<?xml version="1.0" encoding="UTF-8" standalone="no"?>
<svg
   xmlns:dc="http://purl.org/dc/elements/1.1/"
   xmlns:cc="http://creativecommons.org/ns#"
   xmlns:rdf="http://www.w3.org/1999/02/22-rdf-syntax-ns#"
   xmlns:svg="http://www.w3.org/2000/svg"
   xmlns="http://www.w3.org/2000/svg"
   width="93.134193mm"
   height="55.58007mm"
   viewBox="0 0 93.134193 55.58007"
   version="1.1"
   id="svg8">
  <defs
     id="defs2">
    <style
       id="style2">
      .cls-1 {
        fill-rule: evenodd;
      }
    </style>
    <style
       id="style2-8">
      .cls-1 {
        fill-rule: evenodd;
      }
    </style>
    <style
       id="style2-89">
      .cls-1 {
        fill-rule: evenodd;
      }
    </style>
  </defs>
  <metadata
     id="metadata5">
    <rdf:RDF>
      <cc:Work
         rdf:about="">
        <dc:format>image/svg+xml</dc:format>
        <dc:type
           rdf:resource="http://purl.org/dc/dcmitype/StillImage" />
        <dc:title></dc:title>
      </cc:Work>
    </rdf:RDF>
  </metadata>
  <g
     id="layer1"
     transform="translate(-66.570186,-108.78708)">
    <path
       id="IconGraphic"
       class="cls-1"
       d="m 99.105377,126.10077 c -0.371834,-0.90974 -0.616935,-2.94366 -0.774653,-2.94366 -0.157717,0 -0.524282,2.23718 -0.929576,3.09859 -0.126733,0.21535 -0.61972,0 -0.61972,0 l 0.154932,-4.49295 c 0,0 -0.129053,-1.70423 -1.704223,-1.70423 -0.914084,0 -1.446267,0.36579 -1.731183,0.67239 -0.205435,0.2214 -26.930768,27.05998 -26.930768,27.05998 v -3.25351 c 0,0 24.036532,-24.96719 24.810559,-25.81621 a 4.7730669,4.7730669 0 0 1 8.344343,3.19651 v 4.33802 c -0.08149,8.7e-4 -0.461994,0.23101 -0.619711,-0.15493 z m -3.964494,9.76056 h -2.91159 v -1.08451 h 2.91159 z m -2.91159,-2.01533 -1.180252,-2.74193 1.531168,1.01525 1.105112,-1.65775 1.254929,1.65775 1.37639,-1.01525 -1.175447,2.74224 v 8.7e-4 h -2.9119 z m -13.10982,10.07167 c 3.755955,-3.9614 10.929189,-6.55074 12.704215,-7.14876 v 0.022 h 3.414336 c 0.339139,0.55108 1.528537,2.56439 2.937768,5.88732 1.672157,3.94295 1.32992,8.53073 -0.154924,9.14083 -1.484843,0.61012 -10.101402,2.77324 -15.647876,1.39437 -5.546475,-1.37888 -7.560559,-4.75293 -3.253519,-9.29576 z"
       style="fill:#ffffff;fill-rule:evenodd;stroke-width:0.15493" />
    <path
       id="IconGraphic-9"
       class="cls-1"
       d="m 156.6315,144.64941 v 16.90092 c -6.9e-4,1.55523 -1.26159,2.81565 -2.81683,2.81565 -1.55523,0 -2.81619,-1.26042 -2.81683,-2.81565 v -16.90092 h -1.02428 v 16.90092 c 0,1.55568 -1.26114,2.81682 -2.81684,2.81682 -1.55568,0 -2.81682,-1.26114 -2.81682,-2.81682 v -16.91399 c -1.59171,-0.13236 -2.81631,-1.46261 -2.81681,-3.05983 v -16.1327 c 0,-1.69711 1.37578,-3.07289 3.07289,-3.07289 h 12.03552 c 1.6971,0 3.07288,1.37578 3.07288,3.07289 v 16.1327 c 0,1.69711 -1.37578,3.0729 -3.07288,3.0729 z m -6.01776,-23.81494 c -5.36162,0 -8.04575,-6.48196 -4.25498,-10.27272 3.79077,-3.79078 10.27274,-1.10665 10.27274,4.25497 0,3.32351 -2.69425,6.01775 -6.01776,6.01775 z"
       style="fill:#ffffff;fill-rule:evenodd;stroke-width:0.256074" />
    <path
       id="IconGraphic-1"
       class="cls-1"
       d="m 105.94961,135.87527 c 0.041,0.43764 1.00424,1.0872 1.68461,0.96544 0.68036,-0.12176 2.92737,-1.65602 2.88778,-2.17217 -0.0633,-0.82572 -1.54108,-3.74194 -1.92523,-3.86174 -0.38415,-0.1198 -2.27649,1.67647 -2.64754,1.93087 -0.37106,0.25441 -0.0407,2.69997 3.8e-4,3.1376 z m 6.73827,0.48272 c 0,0 0.3565,0.49228 0.72204,0.48272 0.36555,-0.01 1.11407,-0.52754 1.2032,-0.96544 0.0892,-0.43789 0.0248,-2.80482 0,-3.37902 -0.0248,-0.57421 -0.17039,-0.58561 -0.48128,-0.72402 -0.31088,-0.1384 -0.74799,-0.27523 -0.48128,-0.72414 0.26673,-0.4489 0.89126,0.0895 0.96256,0.2413 0.0713,0.15177 0.67945,0.54719 0.96268,0.24142 0.28323,-0.30578 0.46332,-1.22338 0.48128,-1.93114 0.0179,-0.70775 0.41771,-0.78731 0.48127,-0.48271 0.0636,0.30459 -0.0393,1.38931 0,1.44815 0.0637,0.0586 0.30145,-0.54314 0.72205,-0.48272 0.42059,0.0604 0.0811,0.4261 -0.24064,0.72415 a 0.90435933,0.90435933 0 0 0 -0.24064,0.96543 5.2940409,5.2940409 0 0 0 0.72191,1.44816 c 0.39557,0.5531 0.8547,0.65651 0.48129,0.96543 -0.37342,0.30893 -0.80488,1.36493 -0.48129,1.93088 0.32361,0.56594 0.44904,0.35138 0.72192,0.48272 0.27288,0.13132 1.27266,1.2522 1.44396,1.68944 0.17131,0.43724 -0.26907,0.9425 -0.24064,1.20673 0.0284,0.26423 0.55625,0.1021 1.20332,0.72415 0.64708,0.62204 0.84473,1.24237 0.72192,1.68944 -0.1228,0.44707 -1.28065,1.97766 -1.6846,2.65502 -0.40394,0.67735 2.433,0.61719 5.0538,-0.48272 2.6208,-1.09991 2.62946,-2.1162 3.12856,-2.41333 0.4991,-0.29712 7.94158,0 7.94158,0 v -12.06822 c 0,0 -9.4094,1.37974 -10.10759,1.44842 -0.74446,0.0688 -0.84643,-0.32766 -1.44383,-0.96543 -0.59739,-0.63778 -5.061,-4.09164 -6.25711,-4.82719 -1.19612,-0.73554 -2.29184,-0.53737 -2.64755,-0.24143 -0.35572,0.29596 -5.0534,4.58563 -5.0534,4.58563 0,0 -0.84355,0.54314 -0.48128,1.44816 0.36227,0.90501 2.88779,5.31016 2.88779,5.31016 z m 6.25711,3.86175 c -0.53383,0.0272 -4.30855,3.29068 -4.57252,4.10303 -0.26396,0.81236 0.43174,1.35143 0.9627,1.68959 0.53094,0.33815 1.62653,1.08025 2.16586,0.24129 0.53935,-0.83895 2.91257,-4.18575 2.88793,-4.82718 -0.0246,-0.64144 -0.91025,-1.23386 -1.44397,-1.20673 z m -1.92523,-5.5512 c 0.1966,-0.66044 -0.92454,-2.31188 -1.20332,-1.93087 -0.27878,0.38101 -0.42426,2.69197 -0.24064,3.37903 0.18362,0.68705 1.24723,-0.78785 1.44396,-1.44816 z m 0.24064,2.65488 c -0.73213,-0.70539 -1.6846,0 -1.6846,0 0,0 -2.78516,2.24413 -3.60984,2.89658 -0.82466,0.65244 -0.9733,1.53557 -0.48127,2.17217 0.49202,0.63659 0.96255,1.20686 0.96255,1.20686 0,0 0.77487,0.89741 1.6846,0 0.90974,-0.89742 4.38798,-3.95966 4.33202,-4.82745 -0.056,-0.86779 -0.47184,-0.74275 -1.20346,-1.44816 z m -3.60984,0.48273 c -0.14509,-0.3953 -1.43871,-0.0177 -1.6846,-0.2413 -0.18244,-0.22373 -0.451,-1.36479 -0.72191,-1.68958 -0.27092,-0.32478 -0.48927,-0.31063 -1.44396,0.24143 -0.95469,0.55205 -1.6846,0.96544 -1.6846,0.96544 0,0 -0.49648,0.42032 -0.24064,1.20672 0.25584,0.7864 0.93058,2.17217 2.16588,2.17217 1.2353,0 3.75479,-2.25959 3.60983,-2.65488 z"
       style="fill:#ffffff;fill-rule:evenodd;stroke-width:0.131067" />
  </g>
</svg>
