<?xml version="1.0" encoding="UTF-8" standalone="no"?>
<svg
   xmlns:dc="http://purl.org/dc/elements/1.1/"
   xmlns:cc="http://creativecommons.org/ns#"
   xmlns:rdf="http://www.w3.org/1999/02/22-rdf-syntax-ns#"
   xmlns:svg="http://www.w3.org/2000/svg"
   xmlns="http://www.w3.org/2000/svg"
   width="44.185425mm"
   height="60.263081mm"
   viewBox="0 0 44.185425 60.263081"
   version="1.1"
   id="svg8">
  <defs
     id="defs2">
    <style
       id="style2">
      .cls-1 {
        fill-rule: evenodd;
      }
    </style>
    <style
       id="style2-1">
      .cls-1 {
        fill-rule: evenodd;
      }
    </style>
  </defs>
  <metadata
     id="metadata5">
    <rdf:RDF>
      <cc:Work
         rdf:about="">
        <dc:format>image/svg+xml</dc:format>
        <dc:type
           rdf:resource="http://purl.org/dc/dcmitype/StillImage" />
        <dc:title></dc:title>
      </cc:Work>
    </rdf:RDF>
  </metadata>
  <g
     id="layer1"
     transform="translate(-90.544196,-82.936216)">
    <path
       id="IconGraphic-5"
       class="cls-1"
       d="m 112.98325,103.19612 c -3.83123,-0.006 -5.75527,4.62371 -3.04876,7.33472 2.70651,2.71102 7.33977,0.79467 7.33978,-3.03656 0.002,-2.37187 -1.91915,-4.29627 -4.29102,-4.29816 z m 6.48229,11.54059 c 0,-1.02287 -0.82921,-1.85208 -1.85208,-1.85208 h -9.26042 c -1.02287,0 -1.85208,0.82921 -1.85208,1.85208 v 12.21423 c 0,1.02287 0.82921,1.85208 1.85208,1.85208 h 0.15664 v 12.06977 c -0.031,2.70896 4.04819,2.70896 4.01717,0 v -12.06977 h 0.73025 v 12.06977 c -0.0316,2.70953 4.04877,2.70953 4.01716,0 v -12.06977 h 0.3392 c 1.02287,0 1.85208,-0.82921 1.85208,-1.85208 z"
       style="fill:#ffffff;fill-rule:evenodd;stroke-width:0.264583" />
    <path
       id="IconGraphic-5-0"
       class="cls-1"
       d="m 128.90879,99.604966 c -3.21469,0 -5.82084,-2.78791 -5.82084,-5.90021 h -21.96041 v 1.13771 h 1.5875 v 5.291674 h -2.910428 v -2.645834 h -1.322916 v 2.645834 h -3.175 v -2.645834 h -1.32291 v 2.645834 h -2.91042 v -5.291674 h 1.5875 v -1.13771 h -2.11667 v -4.60375 h 32.543754 c 0,-3.11229 2.60615,-6.16479 5.82084,-6.16479 3.21476,2e-6 5.82083,2.606081 5.82083,5.82084 v 5.02708 c 0,3.214755 -2.60608,5.820828 -5.82083,5.82083 z m 1.5875,-10.05416 c 0,-2.116666 -3.175,-2.116666 -3.175,0 v 3.43958 c 0,2.116666 3.175,2.116666 3.175,0 z"
       style="fill:#ffffff;fill-rule:evenodd;stroke-width:0.264583" />
    <path
       id="IconGraphic-5-7"
       class="cls-1"
       d="m 127.48757,102.95594 c -3.83123,-0.006 -5.75527,4.62371 -3.04876,7.33472 2.70651,2.71102 7.33977,0.79467 7.33978,-3.03656 0.002,-2.37187 -1.91915,-4.29627 -4.29102,-4.29816 z m 6.48229,11.54059 c 0,-1.02287 -0.82921,-1.85208 -1.85208,-1.85208 h -9.26042 c -1.02287,0 -1.85208,0.82921 -1.85208,1.85208 v 12.21423 c 0,1.02287 0.82921,1.85208 1.85208,1.85208 h 0.15664 v 12.06978 c -0.031,2.70896 4.04819,2.70896 4.01717,0 v -12.06978 h 0.73025 v 12.06978 c -0.0316,2.70952 4.04877,2.70952 4.01716,0 v -12.06978 h 0.3392 c 1.02287,0 1.85208,-0.82921 1.85208,-1.85208 z"
       style="fill:#ffffff;fill-rule:evenodd;stroke-width:0.264583" />
    <path
       id="IconGraphic-5-9"
       class="cls-1"
       d="m 98.355186,103.49048 c -3.83123,-0.006 -5.75527,4.62371 -3.04876,7.33472 2.706511,2.71102 7.339774,0.79467 7.339784,-3.03656 0.002,-2.37187 -1.91915,-4.29627 -4.291024,-4.29816 z m 6.482294,11.54059 c 0,-1.02287 -0.82921,-1.85208 -1.85208,-1.85208 h -9.260424 c -1.02287,0 -1.85208,0.82921 -1.85208,1.85208 v 12.21423 c 0,1.02287 0.82921,1.85208 1.85208,1.85208 h 0.15664 v 12.06977 c -0.031,2.70896 4.048191,2.70896 4.017171,0 v -12.06977 h 0.73025 v 12.06977 c -0.0316,2.70953 4.048773,2.70953 4.017163,0 v -12.06977 h 0.3392 c 1.02287,0 1.85208,-0.82921 1.85208,-1.85208 z"
       style="fill:#ffffff;fill-rule:evenodd;stroke-width:0.264583" />
  </g>
</svg>
