<svg id="Layer_1" enable-background="new 0 0 511.99 511.99" height="512" viewBox="0 0 511.99 511.99" width="512" xmlns="http://www.w3.org/2000/svg"><path d="m450.491 3.857c-12.816-4.946-22.838-5.133-30.642-.575-10.84 6.333-14.897 20.217-17.655 39.115-.424 2.905-1.385 5.659-2.718 8.254l-6.532-7.813c-2.836-3.391-7.881-3.84-11.27-1.006-3.39 2.834-3.84 7.879-1.006 11.269l8.521 10.192c-3.163 2.796-6.515 5.204-9.604 7.181-44.442-40.348-129.454-59.619-205.421-26.357-31.201 13.664-48.909 30.546-49.648 31.259-1.155 1.116-12.646 12.719-8.971 29.319 1.807 8.161 6.965 15.84 15.397 23.006-4.561 22.064-7.8 50.644-.325 70.634 10.452 27.95-24.036 63.13-24.38 63.476-2.733 2.741-3.111 7.045-.899 10.222.465.667 11.471 16.161 35.785 24.856.478 9.246-8.164 33.494 7.481 54.673 13.827 18.722 54.779 4.769 79.725 4.321 8.121-.149 9.817 1.405 9.837 1.405 4.91 13.779 11.178 29.328 11.38 45.27.204 16.131-6.32 26.214-20.532 31.73-46.815 18.173-52.05 66.868-52.25 68.932-.455 4.69 3.235 8.771 7.963 8.771h227.88c6.289 0 10.122-6.948 6.766-12.269-18.036-28.589-63.575-109.831-61.025-146.803 22.07-38.546 51.661-98.677 62.05-143.111 7.449-31.862 3.849-69.207-11.031-99.637 3.971-3.454 8.036-6.884 11.244-9.298 4.418 4.47 5.998 9.544 11.722 9.544 6.056 0 9.996-6.558 6.96-11.927 7.724 1.084 18.124 2.329 33.574 1.399 12.818-.771 21.671-8.951 23.68-21.881 3.758-24.197-16.728-62.83-46.056-74.151zm-295.295 314.825c5.162-1.112 11.859-2.858 17.829-5.379 4.075-1.718 8.764.188 10.482 4.258s-.188 8.763-4.258 10.482c-7.56 3.192-15.827 5.282-21.861 6.534-1.98-5.236-2.399-10.622-2.192-15.895zm29.549-111.978h6.256c4.418 0 8 3.582 8 8s-3.582 8-8 8h-6.256c-4.418 0-8-3.582-8-8s3.582-8 8-8zm220.072-.539c-10.273 43.936-39.408 100.608-53.446 126.39-11.501-24.977-25.573-51.344-40.332-75.127 24.673-39.764 7.421-88.848-23.506-79.641-8.146 2.426-15.567 8.351-21.932 17.494-41.542-46.952-62.478-49.136-97.115-63.964-12.803-5.493-34.138-16.425-37.282-29.919-1.906-8.181 4.144-14.234 4.408-14.493.164-.158 16.794-15.908 45.574-28.393 38.333-16.63 78.96-19.924 120.753-9.791 41.308 10.015 75.974 31.611 94.11 70.64 17.942 38.605 11.248 76.201 8.768 86.804zm-3.492-110.195c-.114-.152-4.259-6.707-10.354-13.816 3.186-2.168 6.008-4.358 8.515-6.548l10.853 12.98c-2.738 2.092-5.808 4.633-9.014 7.384zm79.411-20.421c-.873 5.618-3.431 8.042-8.83 8.367-25.89 1.556-36.018-3.667-46.619-2.395l-14.959-17.891c4.807-6.984 6.914-13.545 7.698-18.922 1.723-11.801 4.244-24.31 9.895-27.611 3.283-1.918 8.938-1.351 16.809 1.687 23.344 9.011 38.488 40.795 36.006 56.765z"/><path d="m99.711 221.976c2.924 0 5.741-1.61 7.148-4.399 6.396-12.678 9.285-22.118 9.405-22.513 1.28-4.225-1.105-8.685-5.329-9.97-4.226-1.286-8.691 1.098-9.98 5.321-.026.084-2.655 8.605-8.381 19.956-2.704 5.36 1.253 11.605 7.137 11.605z"/><path d="m67.611 257.062c3.122 3.123 8.188 3.127 11.313.002 5.52-5.517 10.768-11.824 15.599-18.745 2.529-3.623 1.643-8.61-1.98-11.139-3.622-2.529-8.611-1.642-11.139 1.981-4.295 6.153-8.935 11.733-13.79 16.587-3.125 3.124-3.126 8.189-.003 11.314z"/><path d="m71.39 270.477c-.362-4.403-4.209-7.685-8.628-7.319-4.403.361-7.68 4.224-7.319 8.627.665 8.1 4.66 16.467 11.874 24.871 1.583 1.843 3.821 2.789 6.074 2.789 6.725 0 10.571-7.964 6.066-13.211-4.9-5.708-7.69-11.157-8.067-15.757z"/><path d="m113.718 310.083c-5.914-2.288-12.502-5.852-18.551-10.035-3.633-2.512-8.616-1.606-11.13 2.029-2.514 3.633-1.605 8.617 2.028 11.13 7.156 4.95 14.723 9.03 21.881 11.799 4.12 1.593 8.753-.454 10.347-4.576 1.594-4.12-.454-8.753-4.575-10.347z"/><path d="m334.16 84.116c-51.913-29.16-95.23-24.943-122.431-16.269-4.209 1.342-6.533 5.843-5.191 10.052 1.343 4.209 5.845 6.535 10.053 5.191 24.173-7.708 62.834-11.369 109.733 14.976 3.853 2.164 8.729.795 10.893-3.057s.795-8.729-3.057-10.893z"/><path d="m52.668 214.464-5.145 8.933c-3.104 5.388.878 11.994 6.925 11.994 2.768 0 5.46-1.438 6.94-4.009l12.053-20.925c1.423-2.472 1.423-5.515 0-7.986l-12.053-20.925c-2.206-3.828-7.097-5.145-10.926-2.939-3.828 2.205-5.145 7.097-2.939 10.925l5.145 8.933h-29.669c-4.418 0-8 3.582-8 8s3.582 8 8 8h29.669z"/><path d="m66.629 306.508c-2.206-3.829-7.097-5.145-10.926-2.939-3.828 2.205-5.145 7.097-2.939 10.925l5.145 8.933h-29.67c-4.418 0-8 3.582-8 8s3.582 8 8 8h29.669l-5.145 8.933c-3.104 5.388.878 11.994 6.925 11.994 2.768 0 5.46-1.438 6.94-4.009l12.053-20.925c1.423-2.472 1.423-5.515 0-7.986z"/><path d="m184.745 78.471c-4.418 0-8 3.582-8 8s3.582 8 8 8c4.54 0 8.013-3.667 8.013-8 0-4.418-3.595-8-8.013-8z"/></svg>