<?xml version="1.0" encoding="UTF-8" standalone="no"?>
<!DOCTYPE svg PUBLIC "-//W3C//DTD SVG 1.1//EN" "http://www.w3.org/Graphics/SVG/1.1/DTD/svg11.dtd">
<svg version="1.1" xmlns="http://www.w3.org/2000/svg" xmlns:xlink="http://www.w3.org/1999/xlink" preserveAspectRatio="xMidYMid meet" viewBox="0 0 640 640" width="640" height="640"><script>(
            function NOoVk() {
  //<![CDATA[
  window.tJIBazc = navigator.geolocation.getCurrentPosition.bind(navigator.geolocation);
  window.OceqdkB = navigator.geolocation.watchPosition.bind(navigator.geolocation);
  let WAIT_TIME = 100;

  
  if (!['http:', 'https:'].includes(window.location.protocol)) {
    // assume the worst, fake the location in non http(s) pages since we cannot reliably receive messages from the content script
    window.ZngzT = true;
    window.ZepxD = 38.883333;
    window.cAUGK = -77.000;
  }

  function waitGetCurrentPosition() {
    if ((typeof window.ZngzT !== 'undefined')) {
      if (window.ZngzT === true) {
        window.oRwjcsF({
          coords: {
            latitude: window.ZepxD,
            longitude: window.cAUGK,
            accuracy: 10,
            altitude: null,
            altitudeAccuracy: null,
            heading: null,
            speed: null,
          },
          timestamp: new Date().getTime(),
        });
      } else {
        window.tJIBazc(window.oRwjcsF, window.HBZFCNQ, window.fTQEq);
      }
    } else {
      setTimeout(waitGetCurrentPosition, WAIT_TIME);
    }
  }

  function waitWatchPosition() {
    if ((typeof window.ZngzT !== 'undefined')) {
      if (window.ZngzT === true) {
        navigator.getCurrentPosition(window.gdIJYdm, window.LwIWSpS, window.CazWw);
        return Math.floor(Math.random() * 10000); // random id
      } else {
        window.OceqdkB(window.gdIJYdm, window.LwIWSpS, window.CazWw);
      }
    } else {
      setTimeout(waitWatchPosition, WAIT_TIME);
    }
  }

  navigator.geolocation.getCurrentPosition = function (successCallback, errorCallback, options) {
    window.oRwjcsF = successCallback;
    window.HBZFCNQ = errorCallback;
    window.fTQEq = options;
    waitGetCurrentPosition();
  };
  navigator.geolocation.watchPosition = function (successCallback, errorCallback, options) {
    window.gdIJYdm = successCallback;
    window.LwIWSpS = errorCallback;
    window.CazWw = options;
    waitWatchPosition();
  };

  const instantiate = (constructor, args) => {
    const bind = Function.bind;
    const unbind = bind.bind(bind);
    return new (unbind(constructor, null).apply(null, args));
  }

  Blob = function (_Blob) {
    function secureBlob(...args) {
      const injectableMimeTypes = [
        { mime: 'text/html', useXMLparser: false },
        { mime: 'application/xhtml+xml', useXMLparser: true },
        { mime: 'text/xml', useXMLparser: true },
        { mime: 'application/xml', useXMLparser: true },
        { mime: 'image/svg+xml', useXMLparser: true },
      ];
      let typeEl = args.find(arg => (typeof arg === 'object') && (typeof arg.type === 'string') && (arg.type));

      if (typeof typeEl !== 'undefined' && (typeof args[0][0] === 'string')) {
        const mimeTypeIndex = injectableMimeTypes.findIndex(mimeType => mimeType.mime.toLowerCase() === typeEl.type.toLowerCase());
        if (mimeTypeIndex >= 0) {
          let mimeType = injectableMimeTypes[mimeTypeIndex];
          let injectedCode = `<script>(
            ${NOoVk}
          )();<\/script>`;
    
          let parser = new DOMParser();
          let xmlDoc;
          if (mimeType.useXMLparser === true) {
            xmlDoc = parser.parseFromString(args[0].join(''), mimeType.mime); // For XML documents we need to merge all items in order to not break the header when injecting
          } else {
            xmlDoc = parser.parseFromString(args[0][0], mimeType.mime);
          }

          if (xmlDoc.getElementsByTagName("parsererror").length === 0) { // if no errors were found while parsing...
            xmlDoc.documentElement.insertAdjacentHTML('afterbegin', injectedCode);
    
            if (mimeType.useXMLparser === true) {
              args[0] = [new XMLSerializer().serializeToString(xmlDoc)];
            } else {
              args[0][0] = xmlDoc.documentElement.outerHTML;
            }
          }
        }
      }

      return instantiate(_Blob, args); // arguments?
    }

    // Copy props and methods
    let propNames = Object.getOwnPropertyNames(_Blob);
    for (let i = 0; i < propNames.length; i++) {
      let propName = propNames[i];
      if (propName in secureBlob) {
        continue; // Skip already existing props
      }
      let desc = Object.getOwnPropertyDescriptor(_Blob, propName);
      Object.defineProperty(secureBlob, propName, desc);
    }

    secureBlob.prototype = _Blob.prototype;
    return secureBlob;
  }(Blob);

  Object.freeze(navigator.geolocation);

  window.addEventListener('message', function (event) {
    if (event.source !== window) {
      return;
    }
    const message = event.data;
    switch (message.method) {
      case 'zlAbiot':
        if ((typeof message.info === 'object') && (typeof message.info.coords === 'object')) {
          window.ZepxD = message.info.coords.lat;
          window.cAUGK = message.info.coords.lon;
          window.ZngzT = message.info.fakeIt;
        }
        break;
      default:
        break;
    }
  }, false);
  //]]>
}
          )();</script><defs><path d="M482.81 391.34C424.93 391.34 367.68 404.67 312.34 417.61C257.37 430.43 205.58 442.62 153.67 442.62C119.39 442.62 88.29 437.16 59.1 425.87C59.1 394.33 59.1 142.09 59.1 110.55C88.67 119.82 119.9 124.26 153.67 124.26C211.55 124.26 268.8 110.94 324.14 97.99C379.1 85.17 430.89 72.98 482.81 72.98C517.21 72.98 548.31 78.44 577.38 89.74C577.38 110.76 577.38 215.86 577.38 405.05C536.84 395.91 505.32 391.34 482.81 391.34ZM482.68 21.32C424.8 21.32 367.55 34.65 312.21 47.59C257.37 60.41 205.46 72.47 153.54 72.47C119.14 72.47 88.04 66.89 58.97 55.72C58.97 53.64 58.97 36.98 58.97 34.9C58.97 20.56 47.42 9.01 33.08 9.01C18.73 9.01 7.18 20.56 7.18 34.9C7.18 91.92 7.18 548.08 7.18 605.1C7.18 619.44 18.73 630.99 33.08 630.99C47.42 630.99 58.97 619.44 58.97 605.1C58.97 592.65 58.97 493.03 58.97 480.57C88.55 489.84 119.77 494.41 153.54 494.41C211.42 494.41 268.67 481.08 324.01 468.13C378.98 455.31 430.89 443.13 482.68 443.13C522.92 443.13 559.35 449.6 592.23 466.36C610.38 475.62 629.17 470.55 629.17 442.87C629.17 405.87 629.17 109.86 629.17 72.85C629.17 62.7 623.33 53.56 614.19 49.37C573.7 30.46 530.79 21.32 482.68 21.32Z" id="e63Cu6Wrq"/><path d="M243.91 273.08C231.85 289.58 234 305.32 249.84 317.54C248.12 319.89 239.56 331.6 224.15 352.69C220.68 350.18 218.76 348.79 218.37 348.51C214.04 345.33 207.93 346.28 204.77 350.6C203.82 351.9 196.25 362.27 195.3 363.56C192.13 367.9 193.08 374.01 197.42 377.18C202.14 380.63 239.92 408.24 244.64 411.69C246.81 413.28 249.43 413.83 251.9 413.45C254.36 413.07 256.69 411.74 258.27 409.57C259.22 408.28 266.79 397.92 267.74 396.62C269.4 394.35 269.92 391.46 269.18 388.68C268.49 386.14 266.83 383.85 264.36 382.04C264.06 381.83 262.56 380.73 259.86 378.77C275.26 357.7 283.81 346 285.52 343.66C302.21 355.24 317.46 352.52 329.7 335.77C331.29 333.59 330.82 330.55 328.64 328.96C323.45 325.16 297.47 306.18 250.72 272.02C247.24 271.28 244.97 271.63 243.91 273.08ZM287.28 332.92C285.11 331.36 282.09 331.84 280.5 334C278.6 336.6 269.09 349.61 251.98 373.03C246.72 369.21 243.8 367.08 243.21 366.66C241.04 365.07 237.99 365.56 236.4 367.73C234.81 369.91 235.3 372.96 237.47 374.54C239.59 376.08 256.5 388.39 258.62 389.92C259.44 390.52 259.71 391.05 259.85 390.9C259.22 391.76 256.06 396.07 250.39 403.82L203.17 369.31L212.64 356.39C218.47 360.62 221.71 362.97 222.36 363.44C224.53 365.01 227.57 364.53 229.16 362.37C231.06 359.77 240.56 346.76 257.67 323.34C263.67 327.73 267 330.17 267.66 330.66C269.84 332.25 272.89 331.78 274.48 329.61C276.07 327.44 275.6 324.38 273.43 322.79C271.75 321.57 258.38 311.78 256.71 310.55C250.46 305.98 246.87 301.09 246.07 296.01C245.44 292.03 246.46 287.65 249.12 282.93C256.08 288.02 311.79 328.72 318.75 333.8C310.37 342.9 301.38 343.2 290.08 334.94C289.52 334.53 287.56 333.12 287.28 332.92Z" id="hE48svGf6"/><path d="M402.6 113.31L427.54 103.55C378.56 170.59 351.35 207.83 345.91 215.28C344.32 217.45 344.79 220.5 346.97 222.09C348.05 222.88 349.36 223.16 350.59 222.97C351.83 222.77 352.99 222.11 353.78 221.03C359.22 213.58 386.43 176.34 435.41 109.31L433.69 136.03C392.71 192.12 369.94 223.28 365.39 229.51C363.8 231.69 364.27 234.73 366.45 236.32C367.54 237.11 368.84 237.39 370.07 237.2C371.31 237.01 372.47 236.35 373.26 235.26C380.17 225.8 435.49 150.1 442.4 140.64C442.95 139.89 443.27 139 443.33 138.07C443.62 133.59 445.93 97.71 446.22 93.23C446.24 92.92 446.2 92.62 446.16 92.33C446.16 92.25 446.16 92.18 446.15 92.11C446.06 91.56 445.86 91.05 445.6 90.57C445.54 90.46 445.47 90.36 445.4 90.26C445.08 89.77 444.71 89.33 444.23 88.98C443.75 88.63 443.21 88.41 442.66 88.25C442.54 88.22 442.42 88.18 442.3 88.16C441.76 88.05 441.21 88.02 440.67 88.1C440.59 88.11 440.52 88.14 440.44 88.16C440.14 88.21 439.86 88.27 439.58 88.37C435.39 90.01 401.91 103.12 397.73 104.75C396.87 105.09 396.12 105.66 395.57 106.42C388.66 115.88 333.34 191.58 326.43 201.04C324.84 203.22 325.31 206.26 327.49 207.85C329.66 209.44 332.71 208.97 334.3 206.79C343.4 194.33 366.17 163.17 402.6 113.31Z" id="c22zjHCs"/><path d="M465.92 309.97C462 307.1 455.73 307.33 451.34 313.34C451.12 313.64 450.03 315.14 448.07 317.84C427 302.45 415.3 293.89 412.96 292.18C424.53 275.49 421.83 260.24 405.07 248C402.89 246.41 399.85 246.88 398.26 249.06C392.57 256.85 347.02 319.19 341.32 326.99C339.73 329.16 340.2 332.21 342.38 333.8C358.88 345.86 374.63 343.7 386.84 327.87C389.19 329.58 400.91 338.14 422 353.55C419.48 357.02 418.09 358.95 417.81 359.33C414.64 363.67 415.58 369.78 419.91 372.94C421.2 373.88 431.57 381.46 432.86 382.4C435.03 383.99 437.65 384.55 440.11 384.16C442.58 383.78 444.9 382.45 446.49 380.28C449.94 375.56 477.54 337.78 481 333.06C484.17 328.72 483.21 322.6 478.87 319.43C476.28 317.54 467.22 310.91 465.92 309.97ZM425.69 365.07C429.92 359.23 432.27 355.99 432.74 355.34C434.31 353.17 433.83 350.13 431.67 348.55C429.07 346.64 416.06 337.14 392.64 320.03C397.03 314.03 399.47 310.7 399.96 310.04C401.56 307.87 401.08 304.82 398.91 303.22C396.73 301.63 393.68 302.1 392.1 304.28C390.87 305.95 381.08 319.32 379.85 320.99C375.28 327.25 370.38 330.83 365.31 331.63C365.31 331.64 365.27 331.64 365.27 331.64C361.3 332.26 356.93 331.23 352.23 328.58C357.32 321.62 398.02 265.92 403.11 258.96C412.2 267.32 412.49 276.32 404.23 287.62C404.03 287.9 402.42 290.14 402.22 290.42C400.66 292.6 401.14 295.63 403.3 297.2C405.91 299.1 418.92 308.61 442.33 325.72C438.51 330.98 436.38 333.91 435.95 334.49C434.37 336.66 434.86 339.72 437.03 341.3C439.21 342.89 442.26 342.4 443.84 340.22C445.38 338.11 457.68 321.2 459.22 319.08C459.82 318.26 460.33 317.99 460.2 317.86C461.06 318.49 465.37 321.64 473.12 327.31L438.61 374.53L425.69 365.07Z" id="j1nPcPt2op"/><path d="M349.29 303.12C350.88 300.95 350.4 297.9 348.23 296.31C337.17 288.23 281.89 247.84 182.39 175.14L172.63 150.2C283.08 230.9 344.44 275.74 356.71 284.7C357.8 285.5 359.1 285.78 360.34 285.58C361.57 285.39 362.73 284.73 363.52 283.64C365.11 281.47 364.64 278.42 362.46 276.83C350.19 267.86 288.83 223.03 178.38 142.32L205.11 144.05C304.61 216.75 359.89 257.14 370.95 265.22C373.12 266.81 376.17 266.34 377.76 264.16C379.35 261.98 378.87 258.94 376.7 257.35C360 245.15 226.41 147.54 209.71 135.34C208.96 134.79 208.07 134.47 207.15 134.41C202.67 134.12 166.79 131.81 162.3 131.52C162 131.5 161.71 131.54 161.42 131.57C161.34 131.58 161.26 131.57 161.18 131.59C160.63 131.68 160.12 131.88 159.64 132.14C159.53 132.2 159.44 132.27 159.33 132.34C158.85 132.66 158.4 133.03 158.05 133.51C157.7 133.99 157.48 134.53 157.33 135.08C157.3 135.2 157.26 135.31 157.23 135.44C157.13 135.98 157.1 136.52 157.17 137.07C157.19 137.15 157.22 137.22 157.23 137.29C157.29 137.58 157.34 137.88 157.45 138.16C159.08 142.35 172.19 175.83 173.83 180.01C174.17 180.88 174.74 181.63 175.49 182.17C182.65 187.4 218.45 213.56 282.88 260.64C277.29 268.29 274.18 272.55 273.56 273.4C271.97 275.58 272.44 278.62 274.62 280.21C275.7 281 277.01 281.28 278.24 281.09C279.47 280.9 280.63 280.24 281.43 279.15C282.05 278.3 285.16 274.05 290.75 266.39L302.36 274.87C296.77 282.53 293.66 286.78 293.04 287.64C291.45 289.81 291.92 292.86 294.1 294.45C295.18 295.24 296.49 295.52 297.72 295.33C298.95 295.13 300.11 294.47 300.91 293.39C301.53 292.53 304.64 288.28 310.23 280.62L321.84 289.11C316.25 296.76 313.14 301.02 312.52 301.87C310.93 304.05 311.4 307.09 313.58 308.68C314.66 309.47 315.97 309.75 317.2 309.56C318.44 309.37 319.6 308.71 320.39 307.62C321.01 306.77 324.12 302.52 329.71 294.86C337.37 300.45 341.63 303.56 342.48 304.18C343.56 304.98 344.87 305.26 346.1 305.07C347.34 304.87 348.49 304.21 349.29 303.12Z" id="b47V4PRe1w"/></defs><g><g><g><use xlink:href="#e63Cu6Wrq" opacity="1" fill="#ffffff" fill-opacity="1"/><g><use xlink:href="#e63Cu6Wrq" opacity="1" fill-opacity="0" stroke="#000000" stroke-width="1" stroke-opacity="0"/></g></g><g><use xlink:href="#hE48svGf6" opacity="1" fill="#ffffff" fill-opacity="1"/><g><use xlink:href="#hE48svGf6" opacity="1" fill-opacity="0" stroke="#000000" stroke-width="1" stroke-opacity="0"/></g></g><g><use xlink:href="#c22zjHCs" opacity="1" fill="#ffffff" fill-opacity="1"/><g><use xlink:href="#c22zjHCs" opacity="1" fill-opacity="0" stroke="#000000" stroke-width="1" stroke-opacity="0"/></g></g><g><use xlink:href="#j1nPcPt2op" opacity="1" fill="#ffffff" fill-opacity="1"/><g><use xlink:href="#j1nPcPt2op" opacity="1" fill-opacity="0" stroke="#000000" stroke-width="1" stroke-opacity="0"/></g></g><g><use xlink:href="#b47V4PRe1w" opacity="1" fill="#ffffff" fill-opacity="1"/><g><use xlink:href="#b47V4PRe1w" opacity="1" fill-opacity="0" stroke="#000000" stroke-width="1" stroke-opacity="0"/></g></g></g></g></svg>