<?xml version="1.0" encoding="UTF-8" standalone="no"?>
<svg
   xmlns:dc="http://purl.org/dc/elements/1.1/"
   xmlns:cc="http://creativecommons.org/ns#"
   xmlns:rdf="http://www.w3.org/1999/02/22-rdf-syntax-ns#"
   xmlns:svg="http://www.w3.org/2000/svg"
   xmlns="http://www.w3.org/2000/svg"
   xmlns:sodipodi="http://sodipodi.sourceforge.net/DTD/sodipodi-0.dtd"
   xmlns:inkscape="http://www.inkscape.org/namespaces/inkscape"
   width="167"
   height="239"
   viewBox="0 0 167 239"
   version="1.1"
   id="svg7"
   sodipodi:docname="icons_prisons.svg"
   inkscape:version="0.92.4 (5da689c313, 2019-01-14)">
  <metadata
     id="metadata11">
    <rdf:RDF>
      <cc:Work
         rdf:about="">
        <dc:format>image/svg+xml</dc:format>
        <dc:type
           rdf:resource="http://purl.org/dc/dcmitype/StillImage" />
      </cc:Work>
    </rdf:RDF>
  </metadata>
  <sodipodi:namedview
     pagecolor="#ffffff"
     bordercolor="#666666"
     borderopacity="1"
     objecttolerance="10"
     gridtolerance="10"
     guidetolerance="10"
     inkscape:pageopacity="0"
     inkscape:pageshadow="2"
     inkscape:window-width="640"
     inkscape:window-height="480"
     id="namedview9"
     showgrid="false"
     inkscape:zoom="6.4296875"
     inkscape:cx="58.504253"
     inkscape:cy="119"
     inkscape:current-layer="svg7" />
  <defs
     id="defs4">
    <style
       id="style2">
      .cls-1 {
        fill-rule: evenodd;
      }
    </style>
  </defs>
  <path
     id="IconGraphic"
     class="cls-1"
     d="M 145,63 C 132.85,63 123,52.463 123,40.7 H 40 V 45 h 6 V 65 H 35 V 55 H 30 V 65 H 18 V 55 H 13 V 65 H 2 V 45 H 8 V 40.7 H 0 V 23.3 H 123 C 123,11.537 132.85,0 145,0 a 22,22 0 0 1 22,22 v 19 a 22,22 0 0 1 -22,22 z m 6,-38 a 6,6 0 0 0 -12,0 v 13 a 6,6 0 0 0 12,0 z m 14,214 H 1 V 74 H 165 Z M 83.5,83 A 16.245,16.245 0 1 0 99.718,99.245 16.231,16.231 0 0 0 83.5,83 Z m 24.5,43.618 a 7,7 0 0 0 -7,-7 H 66 a 7,7 0 0 0 -7,7 v 46.164 a 7,7 0 0 0 7,7 h 0.592 V 225.4 a 7.592,7.592 0 1 0 15.183,0 v -45.618 h 2.76 V 225.4 a 7.592,7.592 0 1 0 15.183,0 V 179.782 H 101 a 7,7 0 0 0 7,-7 z"
     style="fill:#ffffff;fill-rule:evenodd"
     inkscape:connector-curvature="0" />
</svg>
