<?xml version="1.0" encoding="UTF-8" standalone="no"?>
<svg
   xmlns:dc="http://purl.org/dc/elements/1.1/"
   xmlns:cc="http://creativecommons.org/ns#"
   xmlns:rdf="http://www.w3.org/1999/02/22-rdf-syntax-ns#"
   xmlns:svg="http://www.w3.org/2000/svg"
   xmlns="http://www.w3.org/2000/svg"
   width="33.462223mm"
   height="47.090874mm"
   viewBox="0 0 33.462223 47.090874"
   version="1.1"
   id="svg119">
  <defs
     id="defs113">
    <style
       id="style2">
      .cls-1 {
        fill-rule: evenodd;
      }
    </style>
  </defs>
  <metadata
     id="metadata116">
    <rdf:RDF>
      <cc:Work
         rdf:about="">
        <dc:format>image/svg+xml</dc:format>
        <dc:type
           rdf:resource="http://purl.org/dc/dcmitype/StillImage" />
        <dc:title></dc:title>
      </cc:Work>
    </rdf:RDF>
  </metadata>
  <g
     id="layer1"
     transform="translate(-106.62037,-143.63183)">
    <g
       id="g97"
       transform="matrix(0.17513578,0,0,0.33405417,86.780743,110.57922)">
      <path
         style="fill:#fefefe;stroke-width:0.0846667"
         d="m 146.48667,99.028568 c 0.0288,0.0466 0.13581,0.0847 0.23791,0.0847 0.26418,0 32.65509,32.391082 32.65509,32.655252 0,0.10198 0.0383,0.20915 0.0853,0.23815 0.0532,0.033 0.0397,0.0983 -0.0362,0.17433 -0.10414,0.10421 -1.44831,0.1216 -9.39864,0.1216 h -9.27705 v 16.43138 c 0,14.12765 -0.0172,16.44834 -0.12093,16.55234 -0.18234,0.18226 -28.36251,0.18226 -28.54477,0 -0.10395,-0.104 -0.12093,-2.42469 -0.12093,-16.55234 V 132.3026 h -9.23472 c -8.2644,0 -9.24862,-0.0139 -9.36715,-0.13244 -0.0988,-0.0988 -0.10796,-0.15684 -0.0362,-0.2286 0.0528,-0.0529 0.0961,-0.1743 0.0961,-0.26981 0,-0.25327 32.31722,-32.558482 32.57058,-32.558482 0.10204,0 0.20897,-0.0381 0.23775,-0.0847 0.0288,-0.0466 0.0858,-0.0847 0.12704,-0.0847 0.0412,0 0.0982,0.0381 0.12703,0.0847 z"
         id="path109" />
      <path
         id="IconGraphic"
         class="cls-1"
         d="m 154.90864,215.19674 c 4.08167,1.33122 6.865,2.35117 8.34999,3.05986 1.65864,0.84517 2.94176,1.87152 3.75812,3.00611 1.10377,1.54676 1.62361,3.19126 1.53063,4.84202 0,3.09194 -1.37837,5.5185 -4.1351,7.27968 -2.75673,1.76119 -6.89226,2.84895 -12.40658,3.26328 v 3.26396 h -7.39684 v -3.37112 c -4.21419,-0.20961 -8.1745,-1.15043 -11.25357,-2.6734 -3.20789,-1.55279 -4.81184,-4.26181 -4.81184,-8.12707 v -1.69678 h 16.06541 v 2.1271 c 0,2.33335 0.16568,3.78272 0.49702,4.34808 0.2959,0.55394 1.31513,0.9133 2.40527,0.84806 0.94823,0.0344 1.86393,-0.18836 2.42603,-0.59021 0.59683,-0.52776 0.87421,-1.13804 0.79549,-1.75019 0,-1.94646 -0.25197,-3.33856 -0.7559,-4.17629 -0.50394,-0.83773 -2.22706,-1.7503 -5.16936,-2.73771 -3.45786,-1.12503 -6.79615,-2.34806 -10.00001,-3.66367 -1.95439,-0.91549 -3.51349,-2.03917 -4.57306,-3.29592 -1.32273,-1.50712 -1.98178,-3.15094 -1.92837,-4.80971 0,-2.59075 1.35846,-4.62351 4.0754,-6.09827 2.71693,-1.47477 6.79298,-2.38382 12.22815,-2.72716 v -2.76867 h 7.39684 v 2.77002 c 4.95675,0.34358 8.66814,1.24187 11.13419,2.69486 2.46604,1.45299 3.69884,3.46068 3.69842,6.02309 0,0.35809 -0.053,0.90237 -0.15897,1.63284 h -16.06607 v -1.43962 c 0,-1.53146 -0.18556,-2.53349 -0.55671,-3.00611 -0.37114,-0.4726 -1.16641,-0.7088 -2.3858,-0.70857 -0.89405,-0.0238 -1.74103,0.21127 -2.20608,0.6123 -0.55998,0.56571 -0.81419,1.20093 -0.73515,1.83693 0,1.3607 0.50351,2.31318 1.51052,2.85746 0.98105,0.54246 3.87037,1.60073 8.66793,3.17482 z"
         style="fill:#ffffff;fill-rule:evenodd;stroke-width:0.469807" />
    </g>
    <path
       style="fill:#fefefe;stroke-width:0.090517"
       d="m 121.97939,190.41351 c 0,-0.29006 1.08874,-13.64927 1.19065,-14.60954 l 0.0478,-0.4501 h -6.39779 -6.39779 l 0.0242,-0.2697 c 0.0172,-0.19224 3.08283,-4.62916 10.67297,-15.44702 5.85688,-8.34753 10.75812,-15.34903 10.89166,-15.55888 0.28352,-0.44555 0.61828,-0.53062 0.61581,-0.15649 -9.2e-4,0.12377 -1.34175,4.79358 -2.97986,10.37733 l -2.97838,10.1523 6.70696,0.0255 6.70697,0.0255 -0.002,0.22446 c -0.003,0.34095 -17.64307,25.91982 -17.90472,25.96192 -0.17056,0.0274 -0.19669,-0.01 -0.19669,-0.27545 z"
       id="path484" />
  </g>
</svg>
