<svg id="Solid" height="512" viewBox="0 0 64 64" width="512" xmlns="http://www.w3.org/2000/svg"><path d="m47.827 46.046-5.962-2.32-4.19 9.774-1.575-1.571-.073.253.983 9.818h7.99a7.806 7.806 0 0 0 -1.712-5.3 1.016 1.016 0 0 1 -.288-.7v-1h2v.631a10.21 10.21 0 0 1 2 6.369h6v-8.471a8 8 0 0 0 -5.173-7.483z"/><path d="m26.325 53.5-4.19-9.777-5.962 2.32a8 8 0 0 0 -5.173 7.486v8.471h6a10.21 10.21 0 0 1 2-6.369v-.631h2v1a1 1 0 0 1 -.293.707 7.8 7.8 0 0 0 -1.707 5.293h7.99l.982-9.818-.073-.253z"/><path d="m32 45 5 5 3-7-3-4z"/><path d="m34.483 50.311-2.483-2.483-2.483 2.483.483 1.689-1 10h6l-1-10z"/><path d="m24 43 3 7 5-5-5-6z"/><path d="m35.627 33.779-1.254-1.558a4.018 4.018 0 0 1 -4.746 0l-1.254 1.558a5.974 5.974 0 0 0 7.254 0z"/><ellipse cx="27" cy="25.5" rx="2" ry="1.5"/><ellipse cx="37" cy="25.5" rx="2" ry="1.5"/><path d="m19 18h26a2 2 0 0 0 0-4h-.063c-.465-3.952-3.611-8.044-7.937-9.925v7.925h-2v-9c0-.552-.672-1-1.5-1h-3c-.828 0-1.5.448-1.5 1v9h-2v-7.925c-4.326 1.881-7.472 5.973-7.937 9.925h-.063a2 2 0 0 0 0 4z"/><path d="m25 39.191v-2.533c2.185 2.065 4.869 3.342 7 3.342s4.815-1.277 7-3.342v2.533a2.005 2.005 0 0 0 1.321 1.881l7.664 2.895a5.114 5.114 0 0 0 -1.485-3.467 5.12 5.12 0 0 1 -1.5-3.621v-13.879a21.272 21.272 0 0 0 -.213-3h-7.939a24.347 24.347 0 0 0 4.152 3v5.2c0 5.22-5.609 9.8-9 9.8s-9-4.58-9-9.8v-5.2a23.128 23.128 0 0 0 9.347-3h-13.134a21.272 21.272 0 0 0 -.213 3v13.879a5.12 5.12 0 0 1 -1.5 3.621 5.114 5.114 0 0 0 -1.485 3.467l7.635-2.885a2.014 2.014 0 0 0 1.35-1.891z"/></svg>