<?xml version="1.0" encoding="UTF-8" standalone="no"?>
<svg
   xmlns:dc="http://purl.org/dc/elements/1.1/"
   xmlns:cc="http://creativecommons.org/ns#"
   xmlns:rdf="http://www.w3.org/1999/02/22-rdf-syntax-ns#"
   xmlns:svg="http://www.w3.org/2000/svg"
   xmlns="http://www.w3.org/2000/svg"
   width="42.065041mm"
   height="24.078671mm"
   viewBox="0 0 42.065041 24.078671"
   version="1.1"
   id="svg8">
  <defs
     id="defs2">
    <style
       id="style2">
      .cls-1 {
        fill-rule: evenodd;
      }
    </style>
    <style
       id="style2-1">
      .cls-1 {
        fill-rule: evenodd;
      }
    </style>
    <style
       id="style2-9">
      .cls-1 {
        fill-rule: evenodd;
      }
    </style>
  </defs>
  <metadata
     id="metadata5">
    <rdf:RDF>
      <cc:Work
         rdf:about="">
        <dc:format>image/svg+xml</dc:format>
        <dc:type
           rdf:resource="http://purl.org/dc/dcmitype/StillImage" />
        <dc:title></dc:title>
      </cc:Work>
    </rdf:RDF>
  </metadata>
  <g
     id="layer1"
     transform="translate(-115.03891,-132.34757)">
    <path
       id="IconGraphic"
       class="cls-1"
       d="m 155.02671,156.42624 h -37.91056 c -1.14723,0 -2.07724,-1.02658 -2.07724,-2.29314 v -19.49212 c 0,-1.26656 0.93001,-2.29341 2.07724,-2.29341 h 37.91056 c 1.14723,0 2.07724,1.02685 2.07724,2.29341 v 19.49291 c -2.6e-4,1.26656 -0.93001,2.29235 -2.07724,2.29235 z m -22.60733,-16.79443 h -15.0495 v 1.9439 h 15.0495 z m 0,3.88779 h -15.0495 v 1.94389 h 15.0495 z m 0,3.88779 h -15.0495 v 1.94389 h 15.0495 z m 22.33084,-10.69129 c 5.8e-4,-1.0731 -0.86894,-1.94345 -1.94204,-1.94389 h -16.99049 c -1.07299,5.9e-4 -1.94235,0.8709 -1.94177,1.94389 v 16.03772 c -4.4e-4,1.07294 0.86883,1.94317 1.94177,1.9439 h 3.88382 c 9.22391,0.002 0,0 9.22391,0.002 h 3.88355 c 1.07304,-5.9e-4 1.94248,-0.87085 1.94204,-1.94389 V 136.7169 Z"
       style="fill:#ffffff;fill-rule:evenodd;stroke-width:0.264583" />
    <path
       id="IconGraphic-5"
       class="cls-1"
       d="m 146.44014,145.02032 -0.37251,2.20535 a 0.33909718,0.33909718 0 0 1 -0.32106,0.27564 H 141.903 a 0.24559642,0.24559642 0 0 1 -0.0955,-0.02 l -0.72816,1.94963 h -3.56904 l 1.37271,-3.58362 c 0,0 0.35926,-0.827 -0.27454,-0.827 h -1.37271 l 1.64725,-4.1349 h 10.43255 v -1.10263 h 2.19633 v 5.23753 z m -1.01541,-0.011 h -2.88268 a 0.24316477,0.24316477 0 0 0 -0.23932,0.17641 l -0.30051,1.58779 a 0.15491949,0.15491949 0 0 0 0.17257,0.17641 h 2.88276 a 0.24316477,0.24316477 0 0 0 0.23924,-0.17641 l 0.30074,-1.58779 a 0.15491949,0.15491949 0 0 0 -0.17256,-0.17641 z"
       style="fill:#ffffff;fill-rule:evenodd;stroke-width:0.0784399" />
  </g>
</svg>
