<?xml version="1.0" encoding="UTF-8" standalone="no"?>
<svg
   xmlns:dc="http://purl.org/dc/elements/1.1/"
   xmlns:cc="http://creativecommons.org/ns#"
   xmlns:rdf="http://www.w3.org/1999/02/22-rdf-syntax-ns#"
   xmlns:svg="http://www.w3.org/2000/svg"
   xmlns="http://www.w3.org/2000/svg"
   width="43.01059mm"
   height="41.878586mm"
   viewBox="0 0 43.01059 41.878586"
   version="1.1"
   id="svg8">
  <defs
     id="defs2" />
  <metadata
     id="metadata5">
    <rdf:RDF>
      <cc:Work
         rdf:about="">
        <dc:format>image/svg+xml</dc:format>
        <dc:type
           rdf:resource="http://purl.org/dc/dcmitype/StillImage" />
        <dc:title></dc:title>
      </cc:Work>
    </rdf:RDF>
  </metadata>
  <g
     id="layer1"
     transform="translate(-103.18456,-132.48338)">
    <g
       id="g41">
      <path
         style="fill:#fefefe;stroke-width:0.0846667"
         d="m 120.26289,174.2948 c -0.2229,-0.061 -0.54675,-0.22309 -0.71967,-0.36025 -0.38688,-0.30687 -0.78007,-1.05034 -0.78007,-1.47501 0,-0.17312 0.24619,-3.31906 0.5471,-6.99099 0.3009,-3.67192 0.62475,-7.62823 0.71966,-8.7918 0.0959,-1.17586 0.17257,-2.85363 0.17257,-3.77714 v -1.66157 l 0.46557,-0.0935 c 0.27484,-0.0552 0.95994,-0.3532 1.67235,-0.72745 1.20895,-0.63508 1.9698,-0.89203 2.64873,-0.89451 0.2677,-9.8e-4 0.65729,0.16433 1.79977,0.7637 0.90153,0.47296 1.63564,0.80061 1.92318,0.85836 l 0.46507,0.0934 v 1.6624 c 0,0.92064 0.0759,2.5871 0.17008,3.73481 0.0935,1.13983 0.26645,3.25351 0.38423,4.69708 0.11778,1.44356 0.36509,4.46521 0.54958,6.71476 0.18449,2.24956 0.33544,4.23345 0.33544,4.40865 0,0.45851 -0.39676,1.18492 -0.82186,1.50471 -1.12911,0.84939 -2.8019,0.28085 -3.15151,-1.07112 -0.0421,-0.16299 -0.13682,-1.03929 -0.21039,-1.94734 -0.0736,-0.90805 -0.26742,-3.2893 -0.43078,-5.29166 -0.16337,-2.00237 -0.38356,-4.70747 -0.48931,-6.01134 l -0.19228,-2.37066 h -0.63051 -0.63052 l -0.3159,3.89466 c -1.05084,12.95539 -0.92588,11.66418 -1.17689,12.16019 -0.39565,0.7818 -1.41929,1.21355 -2.30364,0.97162 z m -9.38081,-0.0424 c -0.68651,-0.13996 -1.25969,-0.73915 -1.39009,-1.45317 -0.0347,-0.19007 0.0897,-1.2868 0.33625,-2.96333 1.81052,-12.31303 1.73824,-11.75211 1.73824,-13.48858 0,-0.86717 -0.0201,-1.57668 -0.0447,-1.57668 -0.0246,0 -0.27541,0.11644 -0.55733,0.25875 l -0.51257,0.25875 0.0244,2.43892 c 0.0221,2.21037 0.0104,2.46024 -0.12461,2.6663 -0.48689,0.74308 -1.55926,0.71238 -1.97951,-0.0567 -0.13544,-0.24785 -0.14984,-0.56079 -0.14893,-3.23771 8.1e-4,-2.40389 0.0294,-3.15143 0.15131,-3.95971 0.28998,-1.92218 0.78788,-3.47943 1.42205,-4.44762 0.31469,-0.48044 0.33684,-0.54761 0.22328,-0.67733 -0.0693,-0.0792 -0.9498,-1.07359 -1.9566,-2.20976 -1.36791,-1.54367 -1.80824,-2.09263 -1.74229,-2.1721 0.0661,-0.0797 -0.31584,-0.52048 -1.52408,-1.75872 -0.88679,-0.90881 -1.61234,-1.68636 -1.61234,-1.72789 0,-0.0415 0.1149,-0.1856 0.25534,-0.32015 l 0.25533,-0.24462 1.65916,1.71294 c 1.21417,1.25353 1.68676,1.69003 1.76209,1.62751 0.0751,-0.0624 0.67847,0.45955 2.23426,1.93273 2.10515,1.99338 2.141,2.03311 2.92003,3.23677 0.43379,0.67024 2.08376,3.21887 3.6666,5.66362 l 2.8779,4.445 -0.51156,6.2865 c -0.28136,3.45757 -0.54072,6.2865 -0.57636,6.2865 -0.0356,0 -0.0652,-0.0857 -0.0658,-0.1905 -5.9e-4,-0.10478 -0.26339,-1.9812 -0.58409,-4.16983 -0.3207,-2.18864 -0.68943,-4.71439 -0.81939,-5.61279 l -0.23629,-1.63346 -0.51225,0.0248 -0.51225,0.0248 -0.0616,0.42333 c -0.0339,0.23284 -0.3306,2.27119 -0.65941,4.52967 -0.32882,2.25848 -0.75237,5.1714 -0.94124,6.47315 -0.22319,1.53831 -0.39729,2.47189 -0.49737,2.667 -0.36399,0.70959 -1.17763,1.1022 -1.95553,0.94361 z m 0.30949,-21.39481 0.37491,-0.21971 v -1.13495 c 0,-0.62423 -0.0204,-1.13496 -0.0453,-1.13496 -0.13622,0 -0.80076,2.15937 -0.80122,2.6035 -1.5e-4,0.14704 0.0451,0.13612 0.47165,-0.11388 z m 26.42925,21.36194 c -0.43128,-0.13851 -0.87424,-0.50812 -1.07086,-0.89354 -0.11668,-0.2287 -0.33276,-1.49129 -0.77095,-4.50472 -0.33486,-2.30283 -0.78606,-5.40616 -1.00265,-6.8963 l -0.39381,-2.70933 -0.51198,-0.0248 -0.51199,-0.0248 -0.22506,1.54878 c -0.12378,0.85183 -0.49612,3.43473 -0.82743,5.73978 -0.3313,2.30505 -0.62524,4.24815 -0.65319,4.318 -0.0279,0.0699 -0.0829,-0.27305 -0.12202,-0.762 -0.0392,-0.48895 -0.27368,-3.34645 -0.52117,-6.35 l -0.44998,-5.461 3.42979,-5.29167 c 1.88638,-2.91041 3.53455,-5.45648 3.66259,-5.65791 0.12805,-0.20144 1.06119,-1.15394 2.07364,-2.11667 2.34789,-2.23257 2.48905,-2.35471 2.57004,-2.22367 0.0428,0.0692 0.61804,-0.46879 1.7253,-1.6135 l 1.66113,-1.71731 0.25646,0.2457 c 0.14106,0.13514 0.25647,0.28113 0.25647,0.32442 0,0.0433 -0.72532,0.82113 -1.61181,1.72854 -1.20221,1.23055 -1.58952,1.67668 -1.52408,1.75552 0.0652,0.0786 -0.3814,0.63511 -1.74282,2.17146 -1.00681,1.13617 -1.88728,2.13056 -1.95661,2.20976 -0.11355,0.12972 -0.0914,0.19689 0.22328,0.67733 0.63418,0.96819 1.13208,2.52544 1.42206,4.44762 0.12193,0.80828 0.1505,1.55582 0.15131,3.95971 9e-4,2.67692 -0.0135,2.98986 -0.14893,3.23771 -0.30386,0.55606 -1.05116,0.77354 -1.55997,0.45398 -0.57168,-0.35905 -0.5712,-0.35635 -0.54415,-3.0636 l 0.0244,-2.43892 -0.51258,-0.25875 c -0.28192,-0.14231 -0.53272,-0.25875 -0.55733,-0.25875 -0.0246,0 -0.0447,0.70286 -0.0447,1.56192 0,1.69352 -0.079,1.07783 1.69589,13.21241 0.2384,1.62984 0.41347,3.09005 0.38906,3.24493 -0.1607,1.01934 -1.30941,1.74048 -2.27728,1.42963 z m 0.99291,-21.45972 c -0.148,-0.87425 -0.62719,-2.39184 -0.75524,-2.39184 -0.0249,0 -0.0451,0.50483 -0.0447,1.12184 l 5.9e-4,1.12183 0.35922,0.23149 c 0.19758,0.12732 0.38953,0.2321 0.42656,0.23284 0.037,7.6e-4 0.0431,-0.14154 0.0136,-0.31616 z m -22.87685,-0.81459 c -1.7343,-2.67434 -3.17665,-4.92337 -3.20522,-4.99784 -0.0467,-0.12174 0.14977,-0.13541 1.94676,-0.13541 h 1.99873 v 0.53878 c 0,1.72483 0.85179,3.30227 2.19177,4.05893 l 0.45611,0.25756 -0.0538,2.20787 c -0.0296,1.21432 -0.0824,2.37092 -0.11744,2.5702 l -0.0637,0.36234 z m 14.67951,4.50493 c -0.0275,-0.20195 -0.0751,-1.36072 -0.10587,-2.57504 l -0.0559,-2.20787 0.4561,-0.26098 c 0.57254,-0.32759 1.02911,-0.7726 1.43681,-1.40042 0.45824,-0.70565 0.67309,-1.40218 0.73052,-2.36837 l 0.0491,-0.8255 h 1.98642 c 1.78057,0 1.98106,0.0139 1.93477,0.13457 -0.0485,0.12645 -6.18952,9.64743 -6.32092,9.79994 -0.0336,0.039 -0.0835,-0.0944 -0.11098,-0.29633 z m -10.82184,-5.79161 c -0.24766,-0.0768 -0.57513,-0.28639 -0.8732,-0.5588 -0.77588,-0.70912 -1.14153,-1.61306 -1.14153,-2.8221 0,-1.88566 1.01366,-3.33573 2.69508,-3.85537 0.40839,-0.12622 0.78336,-0.1663 1.55575,-0.1663 h 1.01766 l -0.0512,0.25622 c -0.0282,0.14092 -0.0938,0.68384 -0.14577,1.2065 -0.18801,1.88997 -0.13623,1.74258 -0.69152,1.96823 -0.65756,0.2672 -1.75761,0.89975 -1.756,1.00973 0.005,0.32379 0.15758,0.29282 1.23212,-0.24968 1.5157,-0.76522 2.12351,-0.91632 3.71958,-0.92468 1.47756,-0.008 1.80394,0.0959 2.13644,0.67817 0.34368,0.60188 0.17678,1.31281 -0.40073,1.70701 -0.2548,0.17393 -0.37668,0.1905 -1.40065,0.1905 -1.39121,0 -1.80248,0.11492 -3.51006,0.98082 -1.35009,0.68461 -1.74135,0.77968 -2.38593,0.57975 z m 9.11693,0.0369 c -0.45617,-0.10476 -2.43157,-1.1684 -2.17596,-1.17163 0.41232,-0.005 0.95804,-0.44406 1.23496,-0.99309 0.0752,-0.14903 0.13667,-0.46522 0.13667,-0.70265 v -0.43168 l 0.559,0.31261 c 0.45264,0.25314 0.57322,0.29017 0.6337,0.19465 0.14685,-0.23191 0.0661,-0.31289 -0.79054,-0.79246 -1.5067,-0.84353 -1.4737,-0.81108 -1.49381,-1.46901 -0.01,-0.31121 -0.0726,-0.96299 -0.14016,-1.4484 -0.0676,-0.48542 -0.12286,-0.89499 -0.12286,-0.91017 0,-0.0152 0.45319,-0.0276 1.00708,-0.0276 1.74852,0 2.75035,0.46938 3.5839,1.67913 0.55992,0.81262 0.80955,2.24964 0.57439,3.30651 -0.25014,1.12423 -1.09301,2.16094 -1.9682,2.42084 -0.48075,0.14277 -0.55034,0.14498 -1.03817,0.0329 z m -4.74683,-4.77243 c 0.025,-0.0931 0.046,-0.26458 0.0467,-0.381 0.001,-0.20786 0.0132,-0.21166 0.67162,-0.21166 h 0.67046 l 0.0356,0.33866 c 0.0196,0.18627 0.0322,0.34427 0.028,0.35111 -0.004,0.007 -0.34289,0.0259 -0.75274,0.0423 -0.71082,0.0285 -0.74308,0.0221 -0.69965,-0.13945 z m -9.07334,-0.12733 c -1.5644,-0.3273 -2.64835,-1.64141 -2.64702,-3.20909 2.5e-4,-0.30703 0.04,-0.70056 0.0883,-0.87451 0.12126,-0.43661 -0.005,-0.6574 -0.37497,-0.6574 -0.86704,0 -0.70445,-1.34052 0.29175,-2.40547 0.85888,-0.91814 1.86388,-1.32064 3.29306,-1.31886 0.90394,10e-4 1.49488,0.13069 2.1822,0.47844 1.61424,0.81673 2.59462,3.24589 1.30999,3.24589 -0.34653,0 -0.46341,0.20737 -0.34946,0.62005 0.0464,0.16805 0.0919,0.48782 0.10109,0.71058 0.0167,0.40338 0.0138,0.40798 -0.71222,1.1247 -0.59612,0.58853 -0.78874,0.84636 -1.05708,1.41489 -0.25349,0.53707 -0.3813,0.7143 -0.56182,0.77906 -0.35698,0.12807 -1.16389,0.17539 -1.56382,0.0917 z m -2.16848,-5.20721 c 0.66293,-0.34315 1.53213,-0.49029 2.86532,-0.48505 1.29312,0.005 2.24252,0.1871 2.81211,0.53912 0.23283,0.1439 0.30992,0.15918 0.36374,0.0721 0.12383,-0.20037 -0.0528,-0.46095 -0.4666,-0.6884 -0.64148,-0.35259 -1.28112,-0.45325 -2.87859,-0.453 -1.25719,1.9e-4 -1.5163,0.0244 -2.04753,0.19122 -0.70351,0.22094 -1.12747,0.53382 -1.12747,0.83208 0,0.11228 0.0155,0.20414 0.0345,0.20414 0.019,0 0.21901,-0.0955 0.4445,-0.21221 z m 3.29317,-1.60495 c 0.11467,-0.11467 0.37964,-0.30879 0.58882,-0.43138 0.20918,-0.12259 0.38033,-0.25244 0.38033,-0.28857 0,-0.0361 -0.18078,-0.0319 -0.40173,0.009 -0.27348,0.0511 -0.41139,0.0461 -0.43197,-0.0157 -0.0694,-0.20815 -0.4004,-0.41989 -0.65641,-0.41989 -0.19912,0 -0.3305,0.0685 -0.48621,0.25357 -0.11736,0.13947 -0.26362,0.23802 -0.32503,0.219 -0.27128,-0.084 -0.66197,-0.12434 -0.66184,-0.0683 9e-5,0.0338 0.18106,0.17379 0.40217,0.31118 0.22111,0.13739 0.48592,0.33742 0.58847,0.4445 0.259,0.27044 0.72558,0.26403 1.0034,-0.0138 z m 17.39448,6.84278 c -0.63074,-0.11838 -0.71043,-0.1846 -1.03233,-0.85794 -0.35435,-0.7412 -0.77373,-1.28246 -1.3595,-1.7546 -0.3932,-0.31692 -0.40217,-0.3347 -0.40217,-0.79767 0,-0.26044 0.0368,-0.60197 0.0819,-0.75895 0.10763,-0.37529 -0.013,-0.60246 -0.32,-0.60246 -0.66634,0 -0.81071,-0.66901 -0.34535,-1.60029 0.48439,-0.96934 1.42543,-1.69554 2.59036,-1.99897 0.62162,-0.16191 1.8844,-0.1618 2.50643,2.2e-4 1.49421,0.38919 2.73281,1.64645 2.8349,2.8776 0.0325,0.39195 0.0135,0.46085 -0.16084,0.58296 -0.10874,0.0762 -0.31845,0.13848 -0.46602,0.13848 -0.31966,0 -0.41516,0.22935 -0.28478,0.68395 0.33131,1.15521 -0.20709,2.71318 -1.18723,3.4355 -0.66444,0.48967 -1.76445,0.78185 -2.45533,0.65217 z m -2.42299,-5.18688 c 0.7071,-0.43193 2.34824,-0.65624 3.7571,-0.5135 0.9444,0.0957 1.88598,0.34705 2.05278,0.54803 0.16079,0.19374 0.33844,0.1531 0.33844,-0.0774 0,-0.29133 -0.41483,-0.60563 -1.08337,-0.82084 -0.80492,-0.2591 -2.83394,-0.32439 -3.82711,-0.12315 -1.13609,0.2302 -1.78914,0.63108 -1.64405,1.0092 0.0671,0.17478 0.0851,0.17379 0.40621,-0.0223 z m 3.37953,-1.64211 c 0.10255,-0.10708 0.36737,-0.30711 0.58847,-0.4445 0.22111,-0.13739 0.40209,-0.27742 0.40217,-0.31118 1.7e-4,-0.056 -0.39055,-0.0157 -0.66184,0.0683 -0.0614,0.019 -0.20767,-0.0795 -0.32502,-0.219 -0.1481,-0.176 -0.28969,-0.25357 -0.46283,-0.25357 -0.28841,0 -0.66682,0.22053 -0.66682,0.38862 0,0.11029 -0.11414,0.10947 -0.6985,-0.005 -0.27066,-0.053 -0.15335,0.11427 0.24297,0.34652 0.21512,0.12607 0.48009,0.31818 0.58881,0.4269 0.26698,0.26697 0.73842,0.26839 0.99259,0.003 z m -10.13231,5.74575 c -0.18045,-0.0658 -0.35961,-0.15123 -0.39813,-0.18974 -0.0385,-0.0385 -0.003,-0.33664 0.0795,-0.6625 l 0.14952,-0.59247 h 0.62407 0.62408 l 0.097,0.381 c 0.0534,0.20955 0.12296,0.48457 0.15465,0.61117 0.0487,0.19464 0.0211,0.24906 -0.1791,0.35257 -0.37549,0.19417 -0.79389,0.23049 -1.15162,0.1 z m -0.4339,-2.70718 c -1.09683,-0.27222 -1.97359,-0.99654 -2.469,-2.03973 -0.24875,-0.52381 -0.30817,-0.75667 -0.34017,-1.33323 -0.0248,-0.4473 0.003,-0.85354 0.0781,-1.12941 0.16104,-0.59368 0.0724,-0.76433 -0.42604,-0.82051 -0.51366,-0.0579 -0.63343,-0.2249 -0.59023,-0.82299 0.10106,-1.39897 1.53176,-2.82452 3.2817,-3.26988 0.71639,-0.18233 1.99294,-0.18233 2.70933,0 1.76016,0.44796 3.17905,1.86185 3.28146,3.26988 0.0435,0.59809 -0.0762,0.76508 -0.58999,0.82299 -0.49847,0.0562 -0.58708,0.22683 -0.42605,0.82051 0.0748,0.27587 0.10292,0.68211 0.0781,1.12941 -0.12747,2.29615 -2.34778,3.92875 -4.58718,3.37296 z m -0.25631,-2.03398 c 0.85696,-0.45565 1.75493,-0.45883 2.55964,-0.009 l 0.3615,0.20205 0.17044,-0.23937 0.17045,-0.23938 -0.35986,-0.2083 c -0.98104,-0.56789 -2.16682,-0.57156 -3.19876,-0.01 -0.457,0.24873 -0.49321,0.32037 -0.28064,0.55526 0.17155,0.18957 0.11477,0.19461 0.57723,-0.0513 z m -2.23917,-3.67242 c 0.21629,-0.2015 1.0869,-0.49874 1.77582,-0.60628 0.70834,-0.11057 2.50899,-0.11057 3.21733,0 0.69446,0.10841 1.56004,0.40525 1.78045,0.6106 0.2011,0.18735 0.33622,0.12961 0.33622,-0.14368 0,-0.29897 -0.50808,-0.69051 -1.15555,-0.89049 -1.86514,-0.57608 -5.11794,-0.34099 -6.00022,0.43367 -0.27345,0.24008 -0.38043,0.55096 -0.23846,0.69294 0.0808,0.0808 0.10138,0.0738 0.28441,-0.0968 z m 3.96076,-1.94814 c 0.12543,-0.13127 0.42808,-0.36384 0.67256,-0.51682 0.24447,-0.15299 0.4445,-0.29598 0.4445,-0.31776 0,-0.0218 -0.20003,-0.0156 -0.4445,0.0137 -0.41804,0.0502 -0.45879,0.0379 -0.68451,-0.20557 -0.33689,-0.36341 -0.79176,-0.36341 -1.12865,0 -0.22572,0.24349 -0.26647,0.25573 -0.68451,0.20557 -0.24448,-0.0293 -0.4445,-0.0355 -0.4445,-0.0137 0,0.0218 0.20002,0.16477 0.4445,0.31776 0.24447,0.15298 0.54713,0.38555 0.67256,0.51682 0.17785,0.18613 0.30472,0.23867 0.57627,0.23867 0.27155,0 0.39842,-0.0525 0.57628,-0.23867 z"
         id="path49" />
    </g>
  </g>
</svg>
