<?xml version="1.0" encoding="UTF-8" standalone="no"?>
<svg
   xmlns:dc="http://purl.org/dc/elements/1.1/"
   xmlns:cc="http://creativecommons.org/ns#"
   xmlns:rdf="http://www.w3.org/1999/02/22-rdf-syntax-ns#"
   xmlns:svg="http://www.w3.org/2000/svg"
   xmlns="http://www.w3.org/2000/svg"
   width="74.105537mm"
   height="46.784626mm"
   viewBox="0 0 74.105537 46.784626"
   version="1.1"
   id="svg8">
  <defs
     id="defs2">
    <style
       id="style2">
      .cls-1 {
        fill-rule: evenodd;
      }
    </style>
    <style
       id="style2-1">
      .cls-1 {
        fill-rule: evenodd;
      }
    </style>
    <style
       id="style2-4">
      .cls-1 {
        fill-rule: evenodd;
      }
    </style>
  </defs>
  <metadata
     id="metadata5">
    <rdf:RDF>
      <cc:Work
         rdf:about="">
        <dc:format>image/svg+xml</dc:format>
        <dc:type
           rdf:resource="http://purl.org/dc/dcmitype/StillImage" />
        <dc:title></dc:title>
      </cc:Work>
    </rdf:RDF>
  </metadata>
  <g
     id="layer1"
     transform="translate(-70.11253,-115.34689)">
    <path
       id="IconGraphic"
       class="cls-1"
       d="m 93.996544,153.99964 c -2.725273,-1.47771 -8.34771,-3.65793 -9.172002,-3.90659 -0.824291,-0.24867 -2.371302,-1.91932 -0.509555,-1.35882 1.861746,0.56052 15.796223,4.92571 15.796223,4.92571 0,0 0.31966,-0.0657 0.84925,0.50955 0.52961,0.57529 4.58601,1.86837 4.58601,1.86837 -1.65486,1.94022 -8.824652,-0.56051 -11.549926,-2.03822 z m 6.454366,-2.71763 c -0.5583,0.15033 -3.36969,-0.85961 -6.284515,-1.52866 -2.914825,-0.66905 -4.471693,-1.07007 -4.246295,-1.69852 0.225392,-0.62845 1.900471,-3.68766 2.208072,-4.07645 0.307601,-0.38879 1.216821,-0.3414 2.887484,-0.33971 1.670666,0.002 2.344799,1.47993 2.547777,1.69853 0.353294,0.13265 1.149727,-0.0253 1.868369,0 0.718638,0.0253 0.977838,0.76925 0.849258,1.35881 -0.12858,0.58956 -0.34395,2.50243 0,3.05734 0.34395,0.55491 0.72816,1.37834 0.16985,1.52866 z m -0.92671,-23.25186 -0.0849,-0.1471 -0.44162,0.25478 c 0,0 0.58328,1.01045 0.76434,1.32382 0.18106,0.31338 -0.0576,0.48204 -0.12451,0.46404 -0.0669,-0.0179 -6.178021,3.56689 -6.178021,3.56689 l -0.93418,-1.61801 -0.588369,0.3397 0.76433,1.32382 -1.176731,0.67942 1.132571,1.96161 a 3.4180988,3.4180988 0 0 1 1.262003,1.16689 c 0.137919,0.35194 0.0051,0.42123 -0.124335,0.46403 -0.03396,0.011 -0.09494,0.0294 -0.167134,0.0509 l 1.463784,2.5352 -1.765101,1.01912 -3.566889,-6.17802 -3.019455,1.74319 c 0.108704,0.58412 0.1369,1.56824 0.0445,1.9363 a 5.1454921,5.1454921 0 0 1 -1.710238,0.83466 c 0.179024,0.89359 0.363313,1.78599 0.438048,2.05725 0.164247,0.59736 0.350574,0.97427 0.06794,1.138 -0.282634,0.16374 -1.288835,0.73036 -1.471087,0.84926 a 0.52127535,0.52127535 0 0 1 -0.718813,-0.56561 c 0.05265,-0.58666 0.222506,-2.21181 -0.07422,-2.50666 a 8.42737,8.42737 0 0 0 -1.121022,-0.92214 c -0.449768,-0.31303 -0.496816,-0.12143 -0.968156,0.36247 -0.471339,0.4839 -2.279242,3.36816 -3.2226,4.60553 -0.943356,1.23737 -4.895299,3.75661 -5.040693,3.49895 -1.070067,-1.8288 -2.765019,-4.07253 -2.841961,-4.24307 -0.07695,-0.17053 0.356689,-0.40187 0.356689,-0.40187 0,0 3.796868,-2.19108 4.707104,-2.71762 0.910236,-0.52654 0.657497,-0.21826 0.990237,0.017 0.33274,0.23523 0.451806,0.3825 0.843145,0.1019 0.391339,-0.28059 3.254191,-2.39491 3.569776,-2.64969 0.315585,-0.25478 0.0146,-0.47099 -0.130446,-0.9053 -0.145054,-0.43432 -0.0997,-0.29844 0.03941,-0.61148 0.139109,-0.31303 0.214523,-0.71218 0.628452,-0.95117 0.413929,-0.23897 8.798328,-5.27594 9.329114,-5.58234 a 0.28654008,0.28654008 0 0 1 0.449936,0.13248 l 0.118898,-0.0688 -0.127898,-0.31848 6.472208,-3.73674 c 0,0 0.161016,-1.9533 0.242716,-2.29742 0.0817,-0.34412 0.611463,0.0394 0.611463,0.0394 l 0.849265,1.47091 0.294185,-0.16984 0.373665,0.64798 0.64545,1.11712 v 0 l 0.16985,0.29417 z m -14.52573,11.34134 a 11.272728,11.272728 0 0 0 1.237031,-0.72714 c 0.169852,-0.68892 0.05486,-1.09673 -0.08306,-1.32485 l -1.398899,0.80766 c 0.06369,0.32679 0.151338,0.77265 0.244926,1.24433 z m 3.13105,-5.93938 a 0.50955558,0.50955558 0 0 0 -0.696393,-0.18684 l -2.206546,1.27389 a 0.50983883,0.50983883 0 0 0 0.509556,0.88323 l 2.206546,-1.27388 a 0.50955558,0.50955558 0 0 0 0.186837,-0.6964 z"
       style="fill:#ffffff;fill-rule:evenodd;stroke-width:0.169852" />
    <path
       id="IconGraphic-9"
       class="cls-1"
       d="m 141.63083,145.53141 v 14.22984 a 2.3716404,2.3716404 0 0 1 -4.74328,0 v -14.22984 h -0.86241 v 14.22984 a 2.3716457,2.3716457 0 0 1 -4.74329,0 v -14.24084 a 2.5859503,2.5859503 0 0 1 -2.37163,-2.57624 v -13.58304 a 2.587244,2.587244 0 0 1 2.58724,-2.58725 h 10.13337 a 2.587244,2.587244 0 0 1 2.58724,2.58725 v 13.58304 a 2.587244,2.587244 0 0 1 -2.58724,2.58724 z m -5.06668,-20.05115 a 5.066686,5.066686 0 1 1 5.06668,-5.06668 5.066686,5.066686 0 0 1 -5.06668,5.06668 z"
       style="fill:#ffffff;fill-rule:evenodd;stroke-width:0.215603" />
    <g
       id="g97"
       transform="matrix(0,-0.1656228,0.35157903,0,67.848298,159.76864)">
      <path
         style="fill:#fefefe;stroke-width:0.0846667"
         d="m 132.29967,164.34674 c -0.0288,-0.0466 -0.13584,-0.0847 -0.23791,-0.0847 -0.26418,0 -32.655095,-32.39108 -32.655095,-32.65525 0,-0.10198 -0.03839,-0.20915 -0.08532,-0.23815 -0.05333,-0.033 -0.03973,-0.0983 0.03629,-0.17433 0.104212,-0.10421 1.448305,-0.1216 9.398645,-0.1216 h 9.27706 v -16.43138 c 0,-14.12764 0.0169,-16.448344 0.12095,-16.552341 0.18225,-0.182248 28.36251,-0.182248 28.54476,0 0.10399,0.103997 0.12095,2.424701 0.12095,16.552341 v 16.43138 h 9.23472 c 8.26441,0 9.24863,0.0139 9.36715,0.13244 0.0988,0.0988 0.10805,0.15684 0.0363,0.2286 -0.0529,0.0529 -0.0962,0.1743 -0.0962,0.26981 0,0.25327 -32.31722,32.55848 -32.57058,32.55848 -0.10198,0 -0.20897,0.0381 -0.23775,0.0847 -0.0288,0.0466 -0.0859,0.0847 -0.127,0.0847 -0.0411,0 -0.0982,-0.0381 -0.127,-0.0847 z"
         id="path109" />
    </g>
  </g>
</svg>
