<?xml version="1.0" encoding="UTF-8" standalone="no"?>
<svg
   xmlns:dc="http://purl.org/dc/elements/1.1/"
   xmlns:cc="http://creativecommons.org/ns#"
   xmlns:rdf="http://www.w3.org/1999/02/22-rdf-syntax-ns#"
   xmlns:svg="http://www.w3.org/2000/svg"
   xmlns="http://www.w3.org/2000/svg"
   width="47.058167mm"
   height="38.940052mm"
   viewBox="0 0 47.058166 38.940052"
   version="1.1"
   id="svg8">
  <defs
     id="defs2">
    <style
       id="style2">
      .cls-1 {
        fill-rule: evenodd;
      }
    </style>
  </defs>
  <metadata
     id="metadata5">
    <rdf:RDF>
      <cc:Work
         rdf:about="">
        <dc:format>image/svg+xml</dc:format>
        <dc:type
           rdf:resource="http://purl.org/dc/dcmitype/StillImage" />
        <dc:title></dc:title>
      </cc:Work>
    </rdf:RDF>
  </metadata>
  <g
     id="layer1"
     transform="translate(-126.44876,-147.98337)">
    <path
       id="IconGraphic"
       class="cls-1"
       d="m 139.91804,163.52208 c 2.06639,1.25748 3.47547,2.221 4.22724,2.89057 0.8366,0.79413 1.48636,1.76417 1.90236,2.84004 0.51647,1.22396 0.77479,2.74867 0.77496,4.57412 0,2.92135 -0.69788,5.21361 -2.09364,6.87678 -1.39577,1.66317 -3.48924,2.69099 -6.28042,3.08346 v 3.08345 h -3.74412 v -3.18479 c -2.12457,-0.19416 -4.12632,-1.08166 -5.69674,-2.52571 -1.62401,-1.46703 -2.43593,-4.02634 -2.43576,-7.67794 v -1.60259 h 8.1325 v 2.00819 c 0,2.20486 0.0839,3.57417 0.25162,4.10792 0.16775,0.53375 0.57344,0.80081 1.21708,0.80116 0.47733,0.0339 0.93941,-0.17598 1.22794,-0.55774 0.26829,-0.37183 0.40243,-0.92295 0.40243,-1.65338 0,-1.83885 -0.12744,-3.15401 -0.38233,-3.94547 -0.25488,-0.79145 -1.12721,-1.65355 -2.61699,-2.5863 -2.48285,-1.5688 -4.17036,-2.72168 -5.06254,-3.45863 -0.98572,-0.86026 -1.77522,-1.92216 -2.3151,-3.11389 -0.66876,-1.42002 -1.00277,-2.97456 -0.97631,-4.54395 0,-2.44757 0.68792,-4.36792 2.06375,-5.76104 1.37583,-1.39312 3.43914,-2.25187 6.18992,-2.57624 v -2.61673 h 3.74412 v 2.61673 c 2.50931,0.32455 4.38785,1.17316 5.63563,2.54582 1.24777,1.37265 1.87175,3.26936 1.87192,5.69013 0,0.33813 -0.0265,0.85204 -0.0794,1.54172 h -8.13223 v -1.35916 c 0,-1.44639 -0.0939,-2.39307 -0.28178,-2.84004 -0.18785,-0.44697 -0.59046,-0.6701 -1.20782,-0.6694 -0.44971,-0.0244 -0.87732,0.19686 -1.11707,0.57812 -0.24853,0.38541 -0.37271,0.96352 -0.37253,1.73434 0,1.28499 0.25497,2.18458 0.76491,2.69875 0.49636,0.51382 1.95915,1.51439 4.38838,3.0017 z"
       style="fill:#ffffff;fill-rule:evenodd;stroke-width:0.264583" />
    <path
       style="fill:#fefefe;stroke-width:0.0744111"
       d="m 158.62494,186.69082 c 0,-0.23845 0.89503,-11.22064 0.97879,-12.01005 l 0.0393,-0.37002 h -5.25943 -5.25942 l 0.0198,-0.22171 c 0.0142,-0.15803 2.5343,-3.80548 8.77391,-12.69851 4.81475,-6.86224 8.84391,-12.61796 8.95369,-12.79047 0.23308,-0.36627 0.50828,-0.43621 0.50625,-0.12864 -7.5e-4,0.10174 -1.10301,3.94065 -2.44965,8.53088 l -2.44844,8.34588 5.51359,0.021 5.5136,0.021 -0.002,0.18453 c -0.003,0.28028 -14.50382,21.30788 -14.71891,21.34249 -0.14022,0.0225 -0.1617,-0.008 -0.1617,-0.22644 z"
       id="path484" />
  </g>
</svg>
