<?xml version="1.0" encoding="UTF-8" standalone="no"?>
<svg
   xmlns:dc="http://purl.org/dc/elements/1.1/"
   xmlns:cc="http://creativecommons.org/ns#"
   xmlns:rdf="http://www.w3.org/1999/02/22-rdf-syntax-ns#"
   xmlns:svg="http://www.w3.org/2000/svg"
   xmlns="http://www.w3.org/2000/svg"
   width="52.088707mm"
   height="61.226749mm"
   viewBox="0 0 52.088707 61.22675"
   version="1.1"
   id="svg8">
  <defs
     id="defs2">
    <style
       id="style2">
      .cls-1 {
        fill-rule: evenodd;
      }
    </style>
    <style
       id="style2-6">
      .cls-1 {
        fill-rule: evenodd;
      }
    </style>
    <style
       id="style2-1">
      .cls-1 {
        fill-rule: evenodd;
      }
    </style>
    <style
       id="style2-2">
      .cls-1 {
        fill-rule: evenodd;
      }
    </style>
    <style
       id="style2-0">
      .cls-1 {
        fill-rule: evenodd;
      }
    </style>
    <style
       id="style2-6-4">
      .cls-1 {
        fill-rule: evenodd;
      }
    </style>
    <style
       id="style2-1-7">
      .cls-1 {
        fill-rule: evenodd;
      }
    </style>
    <style
       id="style2-2-4">
      .cls-1 {
        fill-rule: evenodd;
      }
    </style>
    <style
       id="style2-7">
      .cls-1 {
        fill-rule: evenodd;
      }
    </style>
    <style
       id="style2-72">
      .cls-1 {
        fill-rule: evenodd;
      }
    </style>
    <style
       id="style2-4">
      .cls-1 {
        fill-rule: evenodd;
      }
    </style>
    <style
       id="style2-24">
      .cls-1 {
        fill-rule: evenodd;
      }
    </style>
    <style
       id="style2-2-8">
      .cls-1 {
        fill-rule: evenodd;
      }
    </style>
    <style
       id="style2-6-5">
      .cls-1 {
        fill-rule: evenodd;
      }
    </style>
    <style
       id="style2-4-9">
      .cls-1 {
        fill-rule: evenodd;
      }
    </style>
    <style
       id="style2-9">
      .cls-1 {
        fill-rule: evenodd;
      }
    </style>
  </defs>
  <metadata
     id="metadata5">
    <rdf:RDF>
      <cc:Work
         rdf:about="">
        <dc:format>image/svg+xml</dc:format>
        <dc:type
           rdf:resource="http://purl.org/dc/dcmitype/StillImage" />
        <dc:title></dc:title>
      </cc:Work>
    </rdf:RDF>
  </metadata>
  <g
     id="layer1"
     transform="translate(-96.906107,-125.26945)">
    <g
       id="layer1-0"
       transform="matrix(0.32781049,0,0,0.32781049,71.543246,106.06653)">
      <rect
         style="fill:#ffffff;fill-opacity:1;stroke:#ffffff;stroke-width:0.0429402;stroke-opacity:1"
         id="rect4587"
         width="105.75599"
         height="7.0161381"
         x="77.391968"
         y="126.95258"
         ry="0" />
      <rect
         style="fill:#ffffff;fill-opacity:1;stroke:#ffffff;stroke-width:0.0428672;stroke-opacity:1"
         id="rect4587-3"
         width="105.6838"
         height="6.9970918"
         x="77.442245"
         y="235.33359"
         ry="0" />
      <rect
         style="fill:#ffffff;fill-opacity:1;stroke:#ffffff;stroke-width:0.0415106;stroke-opacity:1"
         id="rect4587-7"
         width="6.0101676"
         height="115.374"
         x="-92.595268"
         y="-242.31955"
         ry="0"
         transform="scale(-1)" />
      <rect
         style="fill:#ffffff;fill-opacity:1;stroke:#ffffff;stroke-width:0.0414548;stroke-opacity:1"
         id="rect4587-7-4"
         width="6.0102234"
         height="115.063"
         x="-173.69295"
         y="-241.90317"
         ry="0"
         transform="scale(-1)" />
      <path
         style="fill:#ffffff;fill-rule:evenodd;stroke-width:0.406266"
         d="m 139.15896,198.06683 v 26.81356 a 4.468931,4.468931 0 0 1 -8.93786,0 v -26.81356 h -1.62506 v 26.81356 a 4.46893,4.46893 0 0 1 -8.93786,0 v -26.83427 a 4.8727559,4.8727559 0 0 1 -4.46893,-4.85448 v -25.59477 a 4.8751934,4.8751934 0 0 1 4.87519,-4.87519 h 19.09452 a 4.8751934,4.8751934 0 0 1 4.87518,4.87519 v 25.59477 a 4.8751934,4.8751934 0 0 1 -4.87518,4.87519 z m -9.54726,-37.78275 a 9.5472538,9.5472538 0 1 1 9.54726,-9.54726 9.5472538,9.5472538 0 0 1 -9.54726,9.54726 z"
         class="cls-1"
         id="IconGraphic-8-6" />
      <rect
         style="fill:#ffffff;fill-opacity:1;stroke:#ffffff;stroke-width:0.0410348;stroke-opacity:1"
         id="rect4587-7-6"
         width="6.0106435"
         height="112.7351"
         x="-110.4436"
         y="-241.6357"
         ry="0"
         transform="scale(-1)" />
      <rect
         style="fill:#ffffff;fill-opacity:1;stroke:#ffffff;stroke-width:0.0410348;stroke-opacity:1"
         id="rect4587-7-6-8"
         width="6.0106435"
         height="112.73512"
         x="-154.17204"
         y="-241.6357"
         ry="0"
         transform="scale(-1)" />
    </g>
    <path
       id="IconGraphic"
       class="cls-1"
       d="m 122.17872,135.88226 v 1.9402 h -1.31907 v -1.9402 h -1.94209 v -1.32224 h 1.94157 v -1.95063 h 1.31905 v 1.95104 h 1.95233 v 1.32226 h -1.95179 z m -5.17179,0.93399 h -0.57869 l -0.0973,1.10737 h -1.67234 l 0.82474,-6.16098 h 2.33793 l 0.92547,6.16098 h -1.65308 z m -0.28881,-3.67987 q -0.24712,1.76956 -0.3104,2.58771 h 0.55678 q -0.12285,-1.04676 -0.24638,-2.58771 z m -18.329333,-7.86693 h 15.424523 v 19.89231 H 98.388787 Z m 0.63826,19.25405 H 113.28143 V 125.9077 H 99.027047 Z m 1.382883,-2.12751 h 11.48862 v 0.74463 h -11.48862 z m 0,-1.91477 h 11.48862 v 0.74463 h -11.48862 z m 0,-1.91477 h 11.48862 v 0.74463 h -11.48862 z m 0,-1.91477 h 11.48862 v 0.74463 h -11.48862 z m 0,-1.91476 h 11.48862 v 0.74462 h -11.48862 z m 0,-1.91477 h 11.48862 v 0.74462 h -11.48862 z m 0,-1.91477 h 11.48862 v 0.74463 h -11.48862 z m 0,-1.91477 h 11.48862 v 0.74463 h -11.48862 z m 0,-1.91478 h 11.48862 v 0.74464 h -11.48862 z"
       style="fill:#ffffff;fill-rule:evenodd;stroke-width:0.106376" />
    <g
       transform="matrix(0.20952396,0,0,0.20952396,105.78478,106.66297)"
       id="layer1-6">
      <path
         id="IconGraphic-3"
         class="cls-1"
         d="m 144.39149,124.25164 h 35.09882 v 26.32412 h 26.3241 v 35.0988 h -26.3241 v 26.32411 h -35.09882 v -26.32411 h -26.32408 v -35.0988 h 26.32408 z"
         style="fill:#ffffff;fill-rule:evenodd;stroke-width:0.725182" />
    </g>
    <path
       id="IconGraphic-2"
       class="cls-1"
       d="m 146.3518,186.49547 h -1.54164 v -18.14679 h 1.54164 a 2.6464243,2.6464243 0 0 1 2.64301,2.64947 v 12.84773 a 2.6464243,2.6464243 0 0 1 -2.64301,2.64959 z m -4.73527,-18.73412 a 4.9025926,4.9025926 0 1 1 4.88673,-4.9026 4.8945433,4.8945433 0 0 1 -4.88673,4.9026 z m -3.41389,0.58794 v 18.14691 h -1.32138 a 2.6464243,2.6464243 0 0 1 -2.64301,-2.65032 v -12.84773 a 2.6464243,2.6464243 0 0 1 2.64301,-2.64947 h 1.32138 z m 5.5014,0.64636 -1.15066,1.32638 1.15516,12.19673 -2.11188,1.71421 -1.93142,-1.71506 1.01053,-12.19673 -1.15016,-1.32638 h 4.1789 z"
       style="fill:#ffffff;fill-rule:evenodd;stroke-width:0.121955" />
  </g>
</svg>
