<svg width="256" height="256" xmlns="http://www.w3.org/2000/svg">
 <defs>
  <style>.cls-1 {
        fill-rule: evenodd;
      }</style>
 </defs>
 <metadata id="metadata5">image/svg+xml</metadata>
 <g>
  <title>background</title>
  <rect x="-1" y="-1" width="258" height="258" id="canvas_background" fill="none"/>
 </g>
 <g>
  <title>Layer 1</title>
  <path id="svg_8" d="m111.38234,144.98367c-0.00566,-0.00226 -0.00792,-0.00849 -0.00792,-0.00849s-0.00255,0.00141 -0.00255,-0.00255s0.00255,0.00255 0.0051,-0.01274c0,0 0.00707,-0.00198 0.00566,-0.0184l-0.0017,0c0,0 0.00424,-0.01755 0,-0.02349c-0.00425,-0.00594 -0.00594,-0.0099 -0.01529,-0.01274s-0.00594,-0.00227 -0.01273,-0.00198c-0.00679,0.00028 -0.01246,0.00396 -0.01246,0.00594c0,0 -0.00424,0.00028 -0.00594,0.00198c-0.0017,0.0017 -0.00453,0.00962 -0.00453,0.0116s0.00141,0.01529 0.00283,0.01812l-0.00168,0.00056c-0.00141,0.01641 0.00566,0.0184 0.00566,0.0184c0.00254,0.01529 0.00509,0.00878 0.00509,0.01274s-0.00255,0.00255 -0.00255,0.00255s-0.00226,0.00622 -0.00792,0.00849c-0.00566,0.00226 -0.03708,0.01443 -0.03963,0.01698c-0.00255,0.00255 -0.00226,0.01444 -0.00226,0.01444l0.13473,0c0,0 0.00029,-0.01188 -0.00226,-0.01444c-0.00256,-0.00255 -0.03398,-0.01472 -0.03964,-0.01698zm-0.06235,-0.00086c-0.00049,-0.0009 -0.00074,-0.00155 -0.00074,-0.00155s-0.00216,0.00119 -0.00216,-0.00216s0.00216,0.00216 0.00432,-0.01079c0,0 0.00599,-0.00168 0.00479,-0.01559l-0.00144,0c0,0 0.00071,-0.00295 0.00118,-0.00667c-0.00002,-0.00154 0.00003,-0.00318 0.00018,-0.00498l0.00019,-0.00213c-0.0001,-0.00246 -0.00053,-0.00469 -0.00156,-0.00613c-0.0036,-0.00503 -0.00504,-0.00839 -0.01295,-0.01079c-0.00791,-0.0024 -0.00504,-0.00192 -0.01079,-0.00168c-0.00576,0.00024 -0.01056,0.00335 -0.01056,0.00504c0,0 -0.0036,0.00024 -0.00504,0.00168c-0.00135,0.00135 -0.00352,0.00731 -0.00378,0.00942l0,0.0014c0.00023,0.00326 0.00129,0.01224 0.00234,0.01436l-0.00143,0.00048c-0.00119,0.01391 0.00479,0.01559 0.00479,0.01559c0.00216,0.01295 0.00432,0.00744 0.00432,0.01079s-0.00216,0.00216 -0.00216,0.00216s-0.00191,0.00528 -0.00671,0.00719c-0.0003,0.00012 -0.00069,0.00028 -0.00116,0.00046l0,0.02617l0.00287,0c-0.00014,-0.00639 0.00038,-0.01463 0.00373,-0.01797c0.00178,-0.00177 0.00761,-0.00469 0.03176,-0.01431zm0.11165,-0.04528c-0.0002,-0.00189 -0.00063,-0.00357 -0.00146,-0.00473c-0.00359,-0.00504 -0.00504,-0.00839 -0.01295,-0.01079c-0.00792,-0.0024 -0.00504,-0.00192 -0.0108,-0.00168c-0.00575,0.00024 -0.01055,0.00335 -0.01055,0.00504c0,0 -0.00359,0.00024 -0.00504,0.00168c-0.00135,0.00136 -0.00354,0.00736 -0.00379,0.00945l0.00016,0l0.0004,0.00456c0.0001,0.00115 0.00011,0.00218 0.00013,0.00322c0.00045,0.00333 0.00105,0.00675 0.00165,0.00794l-0.00143,0.00048c-0.00119,0.01391 0.0048,0.01559 0.0048,0.01559c0.00216,0.01295 0.00431,0.00744 0.00431,0.01079s-0.00216,0.00216 -0.00216,0.00216s-0.00026,0.00071 -0.00081,0.00169c0.02385,0.0095 0.02963,0.0124 0.03139,0.01417c0.00335,0.00333 0.00387,0.01157 0.00373,0.01797l0.0024,0l0,-0.02653c-0.00008,-0.00003 -0.00019,-0.00007 -0.00026,-0.0001c-0.00479,-0.00191 -0.00671,-0.00719 -0.00671,-0.00719s-0.00216,0.00119 -0.00216,-0.00216s0.00216,0.00216 0.00432,-0.01079c0,0 0.00402,-0.00114 0.00481,-0.0092l0,-0.00613c0,-0.00009 0,-0.00016 -0.00001,-0.00025l-0.00144,0c0,0 0.00107,-0.00445 0.00146,-0.0093l0,-0.00588l0.00001,0z" fill-opacity="null" stroke-opacity="null" stroke-width="1.5" stroke="#ffffff" fill="#ffffff"/>
  <path id="svg_9" d="m138.83053,129.54406c-0.00566,-0.00226 -0.00792,-0.00849 -0.00792,-0.00849s-0.00255,0.00141 -0.00255,-0.00255s0.00255,0.00255 0.0051,-0.01274c0,0 0.00707,-0.00198 0.00566,-0.0184l-0.0017,0c0,0 0.00424,-0.01755 0,-0.02349c-0.00425,-0.00594 -0.00594,-0.0099 -0.01529,-0.01274s-0.00594,-0.00227 -0.01273,-0.00198c-0.00679,0.00028 -0.01246,0.00396 -0.01246,0.00594c0,0 -0.00424,0.00028 -0.00594,0.00198c-0.0017,0.0017 -0.00453,0.00962 -0.00453,0.0116s0.00141,0.01529 0.00283,0.01812l-0.00168,0.00056c-0.00141,0.01641 0.00566,0.0184 0.00566,0.0184c0.00254,0.01529 0.00509,0.00878 0.00509,0.01274s-0.00255,0.00255 -0.00255,0.00255s-0.00226,0.00622 -0.00792,0.00849c-0.00566,0.00226 -0.03708,0.01443 -0.03963,0.01698c-0.00255,0.00255 -0.00226,0.01444 -0.00226,0.01444l0.13473,0c0,0 0.00029,-0.01188 -0.00226,-0.01444c-0.00256,-0.00255 -0.03398,-0.01472 -0.03964,-0.01698zm-0.06235,-0.00086c-0.00049,-0.0009 -0.00074,-0.00155 -0.00074,-0.00155s-0.00216,0.00119 -0.00216,-0.00216s0.00216,0.00216 0.00432,-0.01079c0,0 0.00599,-0.00168 0.00479,-0.01559l-0.00144,0c0,0 0.00071,-0.00295 0.00118,-0.00667c-0.00002,-0.00154 0.00003,-0.00318 0.00018,-0.00498l0.00019,-0.00213c-0.0001,-0.00246 -0.00053,-0.00469 -0.00156,-0.00613c-0.0036,-0.00503 -0.00504,-0.00839 -0.01295,-0.01079c-0.00791,-0.0024 -0.00504,-0.00192 -0.01079,-0.00168c-0.00576,0.00024 -0.01056,0.00335 -0.01056,0.00504c0,0 -0.0036,0.00024 -0.00504,0.00168c-0.00135,0.00135 -0.00352,0.00731 -0.00378,0.00942l0,0.0014c0.00023,0.00326 0.00129,0.01224 0.00234,0.01436l-0.00143,0.00048c-0.00119,0.01391 0.00479,0.01559 0.00479,0.01559c0.00216,0.01295 0.00432,0.00744 0.00432,0.01079s-0.00216,0.00216 -0.00216,0.00216s-0.00191,0.00528 -0.00671,0.00719c-0.0003,0.00012 -0.00069,0.00028 -0.00116,0.00046l0,0.02617l0.00287,0c-0.00014,-0.00639 0.00038,-0.01463 0.00373,-0.01797c0.00178,-0.00177 0.00761,-0.00469 0.03176,-0.01431zm0.11165,-0.04528c-0.0002,-0.00189 -0.00063,-0.00357 -0.00146,-0.00473c-0.00359,-0.00504 -0.00504,-0.00839 -0.01295,-0.01079c-0.00792,-0.0024 -0.00504,-0.00192 -0.0108,-0.00168c-0.00575,0.00024 -0.01055,0.00335 -0.01055,0.00504c0,0 -0.00359,0.00024 -0.00504,0.00168c-0.00135,0.00136 -0.00354,0.00736 -0.00379,0.00945l0.00016,0l0.0004,0.00456c0.0001,0.00115 0.00011,0.00218 0.00013,0.00322c0.00045,0.00333 0.00105,0.00675 0.00165,0.00794l-0.00143,0.00048c-0.00119,0.01391 0.0048,0.01559 0.0048,0.01559c0.00216,0.01295 0.00431,0.00744 0.00431,0.01079s-0.00216,0.00216 -0.00216,0.00216s-0.00026,0.00071 -0.00081,0.00169c0.02385,0.0095 0.02963,0.0124 0.03139,0.01417c0.00335,0.00333 0.00387,0.01157 0.00373,0.01797l0.0024,0l0,-0.02653c-0.00008,-0.00003 -0.00019,-0.00007 -0.00026,-0.0001c-0.00479,-0.00191 -0.00671,-0.00719 -0.00671,-0.00719s-0.00216,0.00119 -0.00216,-0.00216s0.00216,0.00216 0.00432,-0.01079c0,0 0.00402,-0.00114 0.00481,-0.0092l0,-0.00613c0,-0.00009 0,-0.00016 -0.00001,-0.00025l-0.00144,0c0,0 0.00107,-0.00445 0.00146,-0.0093l0,-0.00588l0.00001,0z" fill-opacity="null" stroke-opacity="null" stroke-width="1.5" stroke="#ffffff" fill="#ffffff"/>
  <path id="svg_10" d="m94.90541,220.11121c-9.92405,-5.52204 0.25181,-16.42639 8.52673,-12.89995c6.15783,-0.01458 12.3157,-0.00496 18.47355,-0.00776c0,-12.56946 0,-25.13894 0,-37.70841c-15.42541,-19.31207 -30.85082,-38.62413 -46.27622,-57.9362c34.91358,-0.13451 69.82748,-0.13436 104.74105,0c-15.14809,19.40749 -30.29619,38.81498 -45.44428,58.22247c0,12.47406 0,24.9481 0,37.42214c9.09216,0.08413 18.19989,-0.22876 27.27871,0.31848c7.14819,1.99292 4.28674,14.17727 -2.66023,12.89285c-21.54576,-0.07781 -43.09839,0.1417 -64.63932,-0.30361l0,0zm44.8011,-68.26977c6.94383,-2.74625 5.96763,-14.62946 -1.48105,-15.84108c-11.23622,-3.21233 -13.66253,17.01797 -1.85249,16.54322c1.14041,0.00777 2.29914,-0.15982 3.33353,-0.70213l0,0z" fill-opacity="null" stroke-opacity="null" stroke-width="1.5" stroke="#ffffff" fill="#ffffff"/>
  <path stroke="#ffffff" id="svg_11" d="m136.9376,92.45719c-1.96779,-0.74048 -2.75351,-2.77557 -2.75351,-2.77557s-0.88655,0.46096 -0.88655,-0.83365s0.88655,0.83365 1.77309,-4.16499c0,0 2.45799,-0.64894 1.96779,-6.01538l-0.59103,0c0,0 1.47584,-5.73749 0,-7.68105c-1.47758,-1.94356 -2.06687,-3.23817 -5.3158,-4.16499s-2.06513,-0.74211 -4.42752,-0.64731c-2.36239,0.09317 -4.33191,1.29461 -4.33191,1.94192c0,0 -1.47584,0.09317 -2.06513,0.64894c-0.59103,0.55577 -1.57492,3.145 -1.57492,3.79394s0.49195,4.99865 0.98389,5.92384l-0.58582,0.18471c-0.49195,5.36644 1.96779,6.01538 1.96779,6.01538c0.88481,4.99865 1.77135,2.87038 1.77135,4.16499s-0.88655,0.83365 -0.88655,0.83365s-0.78572,2.03509 -2.75351,2.77557c-1.96779,0.73885 -12.89143,4.71749 -13.77971,5.55115c-0.88828,0.83529 -0.78746,4.72076 -0.78746,4.72076l46.84268,0c0,0 0.10256,-3.88548 -0.78572,-4.72076c-0.89002,-0.83365 -11.81367,-4.8123 -13.78145,-5.55115zm-21.67693,-0.28115c-0.17209,-0.29423 -0.25727,-0.50673 -0.25727,-0.50673s-0.75096,0.39067 -0.75096,-0.70615s0.75096,0.70615 1.50191,-3.52913c0,0 2.08425,-0.54923 1.66705,-5.09836l-0.50064,0c0,0 0.24858,-0.96606 0.41198,-2.18057c-0.00695,-0.50346 0.01043,-1.03961 0.06432,-1.62807l0.06606,-0.69635c-0.0365,-0.80423 -0.186,-1.5349 -0.54236,-2.00404c-1.25159,-1.64606 -1.75223,-2.74452 -4.504,-3.52913c-2.75177,-0.78461 -1.75223,-0.62933 -3.75305,-0.54923c-2.00255,0.07846 -3.67135,1.09683 -3.67135,1.64769c0,0 -1.25159,0.07846 -1.75223,0.54923c-0.47109,0.44298 -1.22552,2.3898 -1.31591,3.08125l0,0.45933c0.0817,1.0674 0.44849,4.00317 0.81528,4.69461l-0.49716,0.15692c-0.41546,4.54913 1.66705,5.09836 1.66705,5.09836c0.75096,4.23528 1.50191,2.4323 1.50191,3.52913s-0.75096,0.70615 -0.75096,0.70615s-0.66578,1.72779 -2.33457,2.35221c-0.10604,0.03923 -0.24163,0.09154 -0.40329,0.15038l0,8.55557l0.99954,0c-0.05041,-2.08904 0.13385,-4.78451 1.29679,-5.8748c0.61884,-0.58029 2.64747,-1.5349 11.04185,-4.67826zm38.81683,-14.80306c-0.06953,-0.61788 -0.22077,-1.16875 -0.50759,-1.54634c-1.24986,-1.64769 -1.75223,-2.74452 -4.50227,-3.52913c-2.75351,-0.78461 -1.75223,-0.62933 -3.75478,-0.54923c-2.00081,0.07846 -3.66961,1.09683 -3.66961,1.64769c0,0 -1.24986,0.07846 -1.75223,0.54923c-0.47109,0.44461 -1.23247,2.40615 -1.31765,3.09105l0.05736,0l0.13907,1.4924c0.03477,0.3776 0.03824,0.71269 0.04693,1.05433c0.15645,1.08865 0.36505,2.20673 0.57365,2.5974l-0.49716,0.15692c-0.41546,4.54913 1.66879,5.09836 1.66879,5.09836c0.75096,4.23528 1.50018,2.4323 1.50018,3.52913s-0.75096,0.70615 -0.75096,0.70615s-0.09213,0.23212 -0.28335,0.5525c8.29182,3.10577 10.30306,4.05384 10.91495,4.63249c1.16468,1.09029 1.3472,3.78413 1.29679,5.8748l0.8344,0l0,-8.67326c-0.02781,-0.00981 -0.06606,-0.02452 -0.09039,-0.03433c-1.66705,-0.62606 -2.33457,-2.35221 -2.33457,-2.35221s-0.7527,0.39067 -0.7527,-0.70615s0.7527,0.70615 1.50191,-3.52913c0,0 1.39761,-0.37433 1.67401,-3.00932l0,-2.00567c-0.00174,-0.02942 -0.00174,-0.05394 -0.00521,-0.08337l-0.50238,0c0,0 0.37374,-1.45481 0.50759,-3.04202l0,-1.92231l0.00521,0z" fill-opacity="null" stroke-opacity="null" stroke-width="1.5" fill="#ffffff"/>
  <path id="svg_12" d="m243.47674,100.80924c-0.00566,-0.00226 -0.00792,-0.00849 -0.00792,-0.00849s-0.00255,0.00141 -0.00255,-0.00255s0.00255,0.00255 0.0051,-0.01274c0,0 0.00707,-0.00198 0.00566,-0.0184l-0.0017,0c0,0 0.00424,-0.01755 0,-0.02349c-0.00425,-0.00594 -0.00594,-0.0099 -0.01529,-0.01274s-0.00594,-0.00227 -0.01273,-0.00198c-0.00679,0.00028 -0.01246,0.00396 -0.01246,0.00594c0,0 -0.00424,0.00028 -0.00594,0.00198c-0.0017,0.0017 -0.00453,0.00962 -0.00453,0.0116s0.00141,0.01529 0.00283,0.01812l-0.00168,0.00056c-0.00141,0.01641 0.00566,0.0184 0.00566,0.0184c0.00254,0.01529 0.00509,0.00878 0.00509,0.01274s-0.00255,0.00255 -0.00255,0.00255s-0.00226,0.00622 -0.00792,0.00849c-0.00566,0.00226 -0.03708,0.01443 -0.03963,0.01698c-0.00255,0.00255 -0.00226,0.01444 -0.00226,0.01444l0.13473,0c0,0 0.00029,-0.01188 -0.00226,-0.01444c-0.00256,-0.00255 -0.03398,-0.01472 -0.03964,-0.01698zm-0.06235,-0.00086c-0.00049,-0.0009 -0.00074,-0.00155 -0.00074,-0.00155s-0.00216,0.00119 -0.00216,-0.00216s0.00216,0.00216 0.00432,-0.01079c0,0 0.00599,-0.00168 0.00479,-0.01559l-0.00144,0c0,0 0.00071,-0.00295 0.00118,-0.00667c-0.00002,-0.00154 0.00003,-0.00318 0.00018,-0.00498l0.00019,-0.00213c-0.0001,-0.00246 -0.00053,-0.00469 -0.00156,-0.00613c-0.0036,-0.00503 -0.00504,-0.00839 -0.01295,-0.01079c-0.00791,-0.0024 -0.00504,-0.00192 -0.01079,-0.00168c-0.00576,0.00024 -0.01056,0.00335 -0.01056,0.00504c0,0 -0.0036,0.00024 -0.00504,0.00168c-0.00135,0.00135 -0.00352,0.00731 -0.00378,0.00942l0,0.0014c0.00023,0.00326 0.00129,0.01224 0.00234,0.01436l-0.00143,0.00048c-0.00119,0.01391 0.00479,0.01559 0.00479,0.01559c0.00216,0.01295 0.00432,0.00744 0.00432,0.01079s-0.00216,0.00216 -0.00216,0.00216s-0.00191,0.00528 -0.00671,0.00719c-0.0003,0.00012 -0.00069,0.00028 -0.00116,0.00046l0,0.02617l0.00287,0c-0.00014,-0.00639 0.00038,-0.01463 0.00373,-0.01797c0.00178,-0.00177 0.00761,-0.00469 0.03176,-0.01431zm0.11165,-0.04528c-0.0002,-0.00189 -0.00063,-0.00357 -0.00146,-0.00473c-0.00359,-0.00504 -0.00504,-0.00839 -0.01295,-0.01079c-0.00792,-0.0024 -0.00504,-0.00192 -0.0108,-0.00168c-0.00575,0.00024 -0.01055,0.00335 -0.01055,0.00504c0,0 -0.00359,0.00024 -0.00504,0.00168c-0.00135,0.00136 -0.00354,0.00736 -0.00379,0.00945l0.00016,0l0.0004,0.00456c0.0001,0.00115 0.00011,0.00218 0.00013,0.00322c0.00045,0.00333 0.00105,0.00675 0.00165,0.00794l-0.00143,0.00048c-0.00119,0.01391 0.0048,0.01559 0.0048,0.01559c0.00216,0.01295 0.00431,0.00744 0.00431,0.01079s-0.00216,0.00216 -0.00216,0.00216s-0.00026,0.00071 -0.00081,0.00169c0.02385,0.0095 0.02963,0.0124 0.03139,0.01417c0.00335,0.00333 0.00387,0.01157 0.00373,0.01797l0.0024,0l0,-0.02653c-0.00008,-0.00003 -0.00019,-0.00007 -0.00026,-0.0001c-0.00479,-0.00191 -0.00671,-0.00719 -0.00671,-0.00719s-0.00216,0.00119 -0.00216,-0.00216s0.00216,0.00216 0.00432,-0.01079c0,0 0.00402,-0.00114 0.00481,-0.0092l0,-0.00613c0,-0.00009 0,-0.00016 -0.00001,-0.00025l-0.00144,0c0,0 0.00107,-0.00445 0.00146,-0.0093l0,-0.00588l0.00001,0z" fill-opacity="null" stroke-opacity="null" stroke-width="1.5" stroke="#ffffff" fill="#ffffff"/>
  <path id="svg_13" d="m284.22015,84.94075c-0.00566,-0.00226 -0.00792,-0.00849 -0.00792,-0.00849s-0.00255,0.00141 -0.00255,-0.00255s0.00255,0.00255 0.0051,-0.01274c0,0 0.00707,-0.00198 0.00566,-0.0184l-0.0017,0c0,0 0.00424,-0.01755 0,-0.02349c-0.00425,-0.00594 -0.00594,-0.0099 -0.01529,-0.01274s-0.00594,-0.00227 -0.01273,-0.00198c-0.00679,0.00028 -0.01246,0.00396 -0.01246,0.00594c0,0 -0.00424,0.00028 -0.00594,0.00198c-0.0017,0.0017 -0.00453,0.00962 -0.00453,0.0116s0.00141,0.01529 0.00283,0.01812l-0.00168,0.00056c-0.00141,0.01641 0.00566,0.0184 0.00566,0.0184c0.00254,0.01529 0.00509,0.00878 0.00509,0.01274s-0.00255,0.00255 -0.00255,0.00255s-0.00226,0.00622 -0.00792,0.00849c-0.00566,0.00226 -0.03708,0.01443 -0.03963,0.01698c-0.00255,0.00255 -0.00226,0.01444 -0.00226,0.01444l0.13473,0c0,0 0.00029,-0.01188 -0.00226,-0.01444c-0.00256,-0.00255 -0.03398,-0.01472 -0.03964,-0.01698zm-0.06235,-0.00086c-0.00049,-0.0009 -0.00074,-0.00155 -0.00074,-0.00155s-0.00216,0.00119 -0.00216,-0.00216s0.00216,0.00216 0.00432,-0.01079c0,0 0.00599,-0.00168 0.00479,-0.01559l-0.00144,0c0,0 0.00071,-0.00295 0.00118,-0.00667c-0.00002,-0.00154 0.00003,-0.00318 0.00018,-0.00498l0.00019,-0.00213c-0.0001,-0.00246 -0.00053,-0.00469 -0.00156,-0.00613c-0.0036,-0.00503 -0.00504,-0.00839 -0.01295,-0.01079c-0.00791,-0.0024 -0.00504,-0.00192 -0.01079,-0.00168c-0.00576,0.00024 -0.01056,0.00335 -0.01056,0.00504c0,0 -0.0036,0.00024 -0.00504,0.00168c-0.00135,0.00135 -0.00352,0.00731 -0.00378,0.00942l0,0.0014c0.00023,0.00326 0.00129,0.01224 0.00234,0.01436l-0.00143,0.00048c-0.00119,0.01391 0.00479,0.01559 0.00479,0.01559c0.00216,0.01295 0.00432,0.00744 0.00432,0.01079s-0.00216,0.00216 -0.00216,0.00216s-0.00191,0.00528 -0.00671,0.00719c-0.0003,0.00012 -0.00069,0.00028 -0.00116,0.00046l0,0.02617l0.00287,0c-0.00014,-0.00639 0.00038,-0.01463 0.00373,-0.01797c0.00178,-0.00177 0.00761,-0.00469 0.03176,-0.01431zm0.11165,-0.04528c-0.0002,-0.00189 -0.00063,-0.00357 -0.00146,-0.00473c-0.00359,-0.00504 -0.00504,-0.00839 -0.01295,-0.01079c-0.00792,-0.0024 -0.00504,-0.00192 -0.0108,-0.00168c-0.00575,0.00024 -0.01055,0.00335 -0.01055,0.00504c0,0 -0.00359,0.00024 -0.00504,0.00168c-0.00135,0.00136 -0.00354,0.00736 -0.00379,0.00945l0.00016,0l0.0004,0.00456c0.0001,0.00115 0.00011,0.00218 0.00013,0.00322c0.00045,0.00333 0.00105,0.00675 0.00165,0.00794l-0.00143,0.00048c-0.00119,0.01391 0.0048,0.01559 0.0048,0.01559c0.00216,0.01295 0.00431,0.00744 0.00431,0.01079s-0.00216,0.00216 -0.00216,0.00216s-0.00026,0.00071 -0.00081,0.00169c0.02385,0.0095 0.02963,0.0124 0.03139,0.01417c0.00335,0.00333 0.00387,0.01157 0.00373,0.01797l0.0024,0l0,-0.02653c-0.00008,-0.00003 -0.00019,-0.00007 -0.00026,-0.0001c-0.00479,-0.00191 -0.00671,-0.00719 -0.00671,-0.00719s-0.00216,0.00119 -0.00216,-0.00216s0.00216,0.00216 0.00432,-0.01079c0,0 0.00402,-0.00114 0.00481,-0.0092l0,-0.00613c0,-0.00009 0,-0.00016 -0.00001,-0.00025l-0.00144,0c0,0 0.00107,-0.00445 0.00146,-0.0093l0,-0.00588l0.00001,0z" fill-opacity="null" stroke-opacity="null" stroke-width="1.5" stroke="#ffffff" fill="#ffffff"/>
  <path id="svg_15" d="m-49.85418,23.54374c-0.00046,-0.01962 -0.0165,-0.03538 -0.03624,-0.03539c-0.01319,0 -0.02471,0.00706 -0.03104,0.01758c-0.00297,-0.00163 -0.0064,-0.00258 -0.01005,-0.00258c-0.01139,0.00001 -0.02066,0.00903 -0.02108,0.02033c-0.01196,0.00393 -0.02062,0.01512 -0.02063,0.02843c0,0.01656 0.01343,0.03 0.03,0.03l0,-0.00001l0.02635,0l-0.01083,0.01699l0.00988,-0.00205l-0.01322,0.04455l0.04569,-0.05051l-0.01069,0.00113l0.01083,-0.01011l0.02134,0c0.01656,0 0.03,-0.01344 0.03,-0.03c-0.00001,-0.01318 -0.00852,-0.02433 -0.02032,-0.02835zm-0.00967,0.04836l-0.07937,0c-0.01104,-0.00003 -0.01998,-0.00896 -0.02,-0.02c-0.00001,-0.00991 0.00725,-0.01809 0.01675,-0.01965c0.00132,-0.00021 0.00251,-0.00095 0.00328,-0.00207c0.00077,-0.00111 0.00106,-0.00248 0.00081,-0.00381c-0.00014,-0.00074 -0.00022,-0.00144 -0.00022,-0.00212c0.00002,-0.00612 0.00497,-0.01108 0.0111,-0.01109c0.00323,0 0.00608,0.00139 0.00816,0.00365c0.00116,0.00128 0.00293,0.00187 0.00463,0.00154c0.00171,-0.00033 0.00313,-0.00153 0.00374,-0.00315c0.00374,-0.00996 0.01331,-0.01706 0.02455,-0.01705c0.01449,0.00002 0.02622,0.01175 0.02625,0.02624c0,0.0008 -0.00004,0.00163 -0.00013,0.00248c-0.00024,0.00258 0.00152,0.00492 0.00407,0.00539c0.0093,0.00172 0.01637,0.00983 0.01635,0.01961c-0.00002,0.01105 -0.00894,0.01998 -0.01999,0.02001z" fill-opacity="null" stroke-opacity="null" stroke-width="1.5" stroke="#ffffff" fill="#ffffff"/>
 </g>
</svg>