<?xml version="1.0" encoding="UTF-8" standalone="no"?>
<svg
   xmlns:dc="http://purl.org/dc/elements/1.1/"
   xmlns:cc="http://creativecommons.org/ns#"
   xmlns:rdf="http://www.w3.org/1999/02/22-rdf-syntax-ns#"
   xmlns:svg="http://www.w3.org/2000/svg"
   xmlns="http://www.w3.org/2000/svg"
   width="61.78236mm"
   height="45.772919mm"
   viewBox="0 0 61.78236 45.772919"
   version="1.1"
   id="svg905">
  <defs
     id="defs899">
    <style
       id="style2">
      .cls-1 {
        fill-rule: evenodd;
      }
    </style>
  </defs>
  <metadata
     id="metadata902">
    <rdf:RDF>
      <cc:Work
         rdf:about="">
        <dc:format>image/svg+xml</dc:format>
        <dc:type
           rdf:resource="http://purl.org/dc/dcmitype/StillImage" />
        <dc:title></dc:title>
      </cc:Work>
    </rdf:RDF>
  </metadata>
  <g
     id="layer1"
     transform="translate(-83.513841,-131.32782)">
    <path
       id="IconGraphic"
       class="cls-1"
       d="m 98.462801,177.10074 c -8.257938,-0.002 -14.950858,-6.69763 -14.94896,-14.95557 0,-11.95679 13.02808,-16.90926 14.94896,-30.81735 2.800879,13.90809 14.948959,18.5084 14.948959,30.81735 0.002,8.25794 -6.69102,14.95382 -14.948959,14.95557 z m 7.247989,-26.73853 c -0.89958,0 0.3175,1.8542 0.72126,4.07856 h 3.17897 c -0.79746,-1.99152 -2.0627,-3.88567 -3.90023,-4.07856 z m 4.9829,8.6106 c -0.017,-0.45694 -0.0716,-0.91171 -0.16325,-1.35969 h -4.34842 c -0.22134,0.50648 -0.5347,0.96751 -0.92419,1.35969 0.2487,1.37742 1.21708,2.71913 2.7178,2.71913 1.50144,-2.9e-4 2.71836,-1.21769 2.71806,-2.71913 z"
       style="fill:#ffffff;fill-rule:evenodd;stroke-width:0.264583" />
    <path
       style="fill:#fefefe;stroke-width:0.086165"
       d="m 128.06349,176.42229 c 0,-0.27612 1.03641,-12.99305 1.13341,-13.90714 l 0.0454,-0.42847 h -6.09018 -6.0902 l 0.023,-0.25672 c 0.0164,-0.183 2.93461,-4.4066 10.15983,-14.70435 5.57529,-7.9462 10.24089,-14.61107 10.368,-14.81083 0.2699,-0.42415 0.58857,-0.50512 0.58622,-0.14899 -8.8e-4,0.11784 -1.27726,4.56312 -2.83659,9.87843 l -2.8352,9.66418 6.38451,0.0244 6.38451,0.0243 -0.002,0.21367 c -0.003,0.32455 -16.79481,24.67363 -17.04388,24.71371 -0.16237,0.0261 -0.18724,-0.008 -0.18724,-0.26221 z"
       id="path484" />
  </g>
</svg>
