<svg height="512" viewBox="0 0 59 59" width="512" xmlns="http://www.w3.org/2000/svg"><g id="005---Gender-Pay-Gap" transform="translate(0 -1)"><path id="Shape" d="m58.382 1.077c-.261-.108.052-.077-5.382-.077-.5522847 0-1 .44771525-1 1s.4477153 1 1 1h2.586c-3.734 3.734-4.42 4.416-4.543 4.552-4.5176767-3.76641361-11.1989354-3.31252721-15.1657186 1.03027194-3.9667833 4.34279916-3.8153846 11.03774576.3436582 15.19678846 4.1590427 4.1590428 10.8539893 4.3104415 15.1967885.3436582 4.3427991-3.9667832 4.7966855-10.6480419 1.0302719-15.1657186.145-.13.6-.587 4.552-4.543v2.586c0 .55228475.4477153 1 1 1s1-.44771525 1-1c0-5.39.032-5.117-.077-5.382-.1014909-.24491676-.2960832-.43950909-.541-.541zm-14.382 13.923c2.0098387.0057389 3.7033294 1.5019627 3.9566732 3.4957785s-1.0121382 3.8660208-2.9566732 4.3742215c.0232223.3572656-.1459184.6997815-.4437083.8985254-.29779.1987439-.6789878.2235217-1 .065-.3210123-.1585217-.5330694-.4762598-.5562917-.8335254v-.13c-1.766642-.453221-3.0014703-2.0461494-3-3.87 0-.5522847.4477153-1 1-1s1 .4477153 1 1c0 1.1045695.8954305 2 2 2s2-.8954305 2-2-.8954305-2-2-2c-2.0098387-.0057389-3.7033294-1.5019627-3.9566732-3.4957785s1.0121382-3.86602084 2.9566732-4.3742215c-.0358985-.55228475.3827153-1.02910149.935-1.065s1.0291015.38271525 1.065.935v.13c1.766642.45322096 3.0014703 2.0461494 3 3.87 0 .5522847-.4477153 1-1 1s-1-.4477153-1-1c0-1.1045695-.8954305-2-2-2s-2 .8954305-2 2 .8954305 2 2 2z"/><path id="Shape" d="m57 56h-8v-27c0-1.1045695-.8954305-2-2-2h-6c-1.1045695 0-2 .8954305-2 2v27h-15v-10c0-1.1045695-.8954305-2-2-2h-2v-3h2c.5522847 0 1-.4477153 1-1s-.4477153-1-1-1h-2c0-4.1.008-2.711-.01-3.05 5.8585794-.5294207 10.2638135-5.5743818 9.9988342-11.4508624s-5.1063825-10.504497-10.9888342-10.504497-10.72385489 4.6280164-10.98883419 10.504497 4.14025479 10.9214417 9.99883419 11.4508624c-.016.3-.01-1.008-.01 3.05h-2c-.5522847 0-1 .4477153-1 1s.4477153 1 1 1h2v3h-2c-1.1045695 0-2 .8954305-2 2v10h-9c-.55228475 0-1-.4477153-1-1v-52c0-.55228475-.44771525-1-1-1h-2c-.55228475 0-1 .44771525-1 1v54c0 1.6568542 1.34314575 3 3 3h54c.5522847 0 1-.4477153 1-1v-2c0-.5522847-.4477153-1-1-1zm-39-24v-.13c-1.766642-.453221-3.0014703-2.0461494-3-3.87 0-.5522847.4477153-1 1-1s1 .4477153 1 1c0 1.1045695.8954305 2 2 2s2-.8954305 2-2-.8954305-2-2-2c-2.0098387-.0057389-3.7033294-1.5019627-3.9566732-3.4957785s1.0121382-3.8660208 2.9566732-4.3742215c-.0358985-.5522847.3827153-1.0291015.935-1.065s1.0291015.3827153 1.065.935v.13c1.766642.453221 3.0014703 2.0461494 3 3.87 0 .5522847-.4477153 1-1 1s-1-.4477153-1-1c0-1.1045695-.8954305-2-2-2s-2 .8954305-2 2 .8954305 2 2 2c2.0098387.0057389 3.7033294 1.5019627 3.9566732 3.4957785s-1.0121382 3.8660208-2.9566732 4.3742215c.0358985.5522847-.3827153 1.0291015-.935 1.065s-1.0291015-.3827153-1.065-.935z"/></g></svg>