<?xml version="1.0" encoding="UTF-8" standalone="no"?>
<svg
   xmlns:dc="http://purl.org/dc/elements/1.1/"
   xmlns:cc="http://creativecommons.org/ns#"
   xmlns:rdf="http://www.w3.org/1999/02/22-rdf-syntax-ns#"
   xmlns:svg="http://www.w3.org/2000/svg"
   xmlns="http://www.w3.org/2000/svg"
   width="51.851135mm"
   height="47.063763mm"
   viewBox="0 0 51.851135 47.063763"
   version="1.1"
   id="svg8">
  <defs
     id="defs2">
    <style
       id="style2">
      .cls-1 {
        fill-rule: evenodd;
      }
    </style>
    <style
       id="style2-1">
      .cls-1 {
        fill-rule: evenodd;
      }
    </style>
    <style
       id="style2-2">
      .cls-1 {
        fill-rule: evenodd;
      }
    </style>
    <style
       id="style2-6">
      .cls-1 {
        fill-rule: evenodd;
      }
    </style>
    <style
       id="style2-4">
      .cls-1 {
        fill-rule: evenodd;
      }
    </style>
  </defs>
  <metadata
     id="metadata5">
    <rdf:RDF>
      <cc:Work
         rdf:about="">
        <dc:format>image/svg+xml</dc:format>
        <dc:type
           rdf:resource="http://purl.org/dc/dcmitype/StillImage" />
        <dc:title></dc:title>
      </cc:Work>
    </rdf:RDF>
  </metadata>
  <g
     id="layer1"
     transform="translate(-136.35891,-93.640827)">
    <g
       id="g847">
      <path
         style="fill:#fefefe;stroke-width:0.0846667"
         d="m 139.22224,140.58863 c -1.4034,-0.39113 -2.50194,-1.55698 -2.79239,-2.96351 -0.0602,-0.29155 -0.0814,-5.30963 -0.0662,-15.67543 l 0.0223,-15.2466 0.24417,-0.32011 c 0.48074,-0.63027 0.52158,-0.6364 4.25219,-0.6385 l 3.31103,-0.002 0.0505,-1.50283 c 0.054,-1.60761 0.19192,-2.41339 0.61226,-3.57717 1.3134,-3.636312 4.49321,-6.286644 8.27934,-6.900709 0.99427,-0.161259 2.67546,-0.161259 3.66973,0 4.29144,0.69602 7.67203,3.913123 8.6749,8.255379 0.11441,0.49537 0.18195,1.18804 0.2167,2.2225 l 0.0505,1.50283 3.31103,0.002 c 3.70334,0.002 3.78921,0.0144 4.2084,0.60211 l 0.20329,0.28503 0.024,15.15534 c 0.0164,10.37776 -0.004,15.32149 -0.0656,15.68241 -0.25018,1.47177 -1.26453,2.6317 -2.68509,3.07047 -0.54341,0.16784 -0.75543,0.17001 -15.84536,0.16254 -11.98466,-0.006 -15.37704,-0.0306 -15.67558,-0.11375 z m 30.57554,-3.3133 c 0.52709,-0.27257 0.49712,0.59962 0.49712,-14.46965 v -13.76106 h -2.286 -2.286 l -0.002,4.33917 c -0.002,4.02898 -0.013,4.36338 -0.15738,4.67783 -0.18498,0.40283 -0.37379,0.58335 -0.79364,0.75877 -0.60701,0.25363 -1.41716,0.131 -1.87272,-0.28345 -0.48099,-0.4376 -0.4764,-0.38819 -0.4764,-5.12926 v -4.36306 h -7.45066 -7.45067 v 4.35482 c 0,2.87911 -0.0306,4.43559 -0.0903,4.59317 -0.41751,1.10193 -2.18081,1.29345 -2.92519,0.31772 l -0.24417,-0.32006 -0.0233,-4.47282 -0.0233,-4.47283 h -2.28383 -2.28383 v 13.7457 c 0,10.00431 0.0261,13.82044 0.0957,14.02031 0.0526,0.15103 0.21457,0.34707 0.35983,0.43565 0.25687,0.15663 0.66366,0.16105 14.85214,0.16136 13.07686,2.5e-4 14.61461,-0.0134 14.84451,-0.13231 z m -7.43192,-32.67571 c -0.008,-0.66216 -0.0661,-1.32792 -0.1467,-1.67109 -0.56433,-2.40255 -2.13965,-4.353268 -4.33442,-5.367316 -4.10469,-1.896481 -8.92209,0.578277 -10.11913,5.198316 -0.1706,0.65843 -0.31867,2.58704 -0.21864,2.84772 0.0476,0.12408 0.71485,0.13436 7.44195,0.11467 l 7.38965,-0.0216 z"
         id="path855" />
    </g>
    <path
       id="IconGraphic"
       class="cls-1"
       d="m 150.93774,121.31199 -0.12753,0.89201 0.29763,-0.0423 v 0.16992 l -0.25535,0.72209 0.3402,-0.0423 v 0.12742 q -0.14912,0.36112 -0.29769,0.722 h 0.0427 l 0.21262,-0.0849 v 0.29728 c -0.16146,0.38587 -0.11555,0.81063 -0.17004,1.14689 q -0.21267,0.33971 -0.42523,0.67955 c -0.0606,0.19621 0.147,0.0544 0.12753,0.21244 -0.0758,0.61859 -0.67915,1.34473 -0.72283,2.29364 h 0.0426 l 0.0426,-0.0849 c 0.30744,-0.49261 0.80099,-1.80705 0.80792,-2.42113 l 0.21261,0.0426 0.0849,-0.63712 0.25519,0.0849 q 0.0849,-0.33973 0.1701,-0.67957 l 0.21259,0.0849 0.25489,-0.63688 0.21261,0.12747 c 0.12348,-0.59385 0.55268,-0.73913 0.893,-1.14688 0.12818,0.0523 0.0778,0.0554 0.21262,0.0426 q 0.10633,-0.23361 0.21258,-0.46727 l 0.25513,0.0849 0.3827,-0.55222 c 0.15681,0.0783 0.0311,0.11126 0.1701,0.0426 a 9.0102413,9.0102413 0 0 1 1.74343,-1.23179 c -0.13476,0.66176 -0.66193,1.35749 -1.02058,1.82646 l 0.25517,0.0425 c -0.0667,0.3082 -0.23418,0.41874 -0.42522,0.59467 l 0.25512,0.0423 -0.0426,0.12747 q -0.29762,0.31851 -0.59531,0.63711 l 0.29763,0.0423 c -0.12183,0.38777 -0.51212,0.46867 -0.80792,0.67963 v 0.0426 l 0.21259,0.0849 -0.0849,0.0849 c -0.14328,0.21672 -0.36165,0.25465 -0.59531,0.38218 0.16463,0.16615 0.15588,0.0401 0.0426,0.25482 -0.78846,0.26869 -3.14266,1.9956 -3.44429,2.676 h 0.0423 c 1.14112,-0.5681 2.38937,-1.27053 3.52937,-1.78401 l 0.085,0.16993 0.63783,-0.29734 v 0.21237 c 0.45142,-0.24988 1.71608,-0.21754 2.33874,0.0849 l -0.0426,0.0849 c -0.53233,0.15328 -0.78199,0.52857 -1.27588,0.67957 0.0412,0.18515 0.11906,0.1132 -0.0426,0.25487 l -0.59532,0.16993 c 0.0806,0.13794 0.0983,0.1021 0.085,0.25482 -0.23447,0.0772 -0.41898,0.18774 -0.68038,0.1274 q 0.0426,0.12742 0.085,0.25489 h -0.97773 v 0.0423 l 0.085,0.21238 -2.80646,-0.16987 v 0.0423 c 1.40006,0.24301 2.52964,1.38172 3.10444,2.42112 v 0.0423 h -0.17009 c -0.56668,-0.18704 -1.01512,-0.32338 -1.44579,-0.63711 l -0.0853,0.12723 -0.55269,-0.38218 -0.0427,0.12718 -0.59532,-0.55221 c -0.16862,0.11091 -0.0196,0.0889 -0.2126,0 l -0.55268,-0.89195 h -0.085 c 0.0142,1.23167 0.0283,0.70849 0.0426,1.94028 -0.15793,-0.15874 -0.10541,-0.22831 -0.42521,-0.25483 0.21755,-0.40404 0.21954,-1.23512 0.085,-1.77029 -0.80334,0.77146 -1.34586,1.11072 -2.21115,1.61407 -0.13123,-0.0792 -0.0962,0.0253 -0.0851,-0.12746 -0.56379,0.23682 -1.08249,0.50894 -1.74342,0.67961 0.081,-0.27409 0.34494,-0.48724 0.55267,-0.63711 0.41834,-1.01335 1.77266,-1.58385 3.23169,-1.86895 v -0.0423 c -0.97979,0.002 -2.7509,0.39428 -3.01908,0.16991 a 1.1424712,1.1424712 0 0 1 -0.59531,0.16987 l 0.0426,-0.21237 c -0.37631,0.13928 -1.10932,0.12999 -1.44575,-0.12741 0.0444,-0.11172 0.0665,-0.0705 0.0426,-0.16993 -0.22507,0.066 -0.43904,0.0129 -0.63783,-0.0423 l 0.085,-0.21237 c -0.48349,-0.0158 -0.89352,-0.19162 -1.40329,-0.29727 v -0.0426 l 0.0425,-0.0849 c 0.69297,-0.20579 1.28882,-0.58208 2.12614,-0.50971 l -0.0426,-0.16992 0.63781,0.12741 -0.0426,-0.16986 0.68035,0.12741 c 0.0171,-0.16157 -0.0478,-0.0529 0.0426,-0.16992 l 0.55269,0.25488 v -0.16992 l 2.97668,1.35896 v -0.0425 c -0.47624,-0.64675 -1.30629,-1.29757 -2.08357,-1.57162 l 0.085,-0.16986 c -0.43698,-0.0849 -1.61104,-1.02388 -1.78594,-1.31703 l 0.12758,-0.0426 c -0.24388,-0.20508 -0.54468,-0.23172 -0.72289,-0.50971 l 0.2126,-0.1274 c -0.26552,-0.22796 -0.53758,-0.27635 -0.72291,-0.59468 l 0.25512,-0.0849 c -0.24106,-0.23196 -0.50135,-0.28482 -0.55269,-0.72209 0.147,0.0311 0.10965,0.0512 0.21262,-0.0425 -0.16552,-0.0647 -0.45743,-0.46314 -0.51029,-0.80705 0.2032,-0.0756 0.11529,-0.0826 -0.0425,-0.21236 l -0.7229,-1.40118 0.0426,-0.0423 c 0.6644,0.32474 1.29593,0.89047 1.74343,1.40171 l 0.12759,-0.12741 c 0.22342,0.1621 0.33971,0.33674 0.51029,0.55216 0.20468,-0.1124 0.13118,-0.11068 0.33991,0.0423 l 0.29767,0.46726 0.25513,-0.12748 0.42522,0.55222 0.21259,-0.0849 0.25512,0.67963 0.25513,-0.12746 0.25511,0.67962 c 0.12818,-0.0522 0.0778,-0.0554 0.21262,-0.0423 q 0.0851,0.27634 0.17008,0.55215 l 0.1701,-0.0849 q 0.0426,0.31856 0.085,0.63718 h 0.21262 l 0.0426,0.67956 0.1701,-0.0423 c 0.0752,0.71731 0.30873,1.59031 0.72283,1.99631 h 0.0426 v -0.0425 c -0.2563,-0.7931 -0.32479,-1.40358 -0.68039,-2.03882 0.11125,-0.0754 0.0578,-0.002 0.0426,-0.12741 -0.25577,-0.67439 -0.49513,-0.94998 -0.63784,-1.69921 0.16351,-0.0631 0.15088,-0.0322 0.0426,-0.16993 q -0.10633,-0.27605 -0.21261,-0.55215 l 0.1701,0.0423 q -0.12753,-0.36071 -0.25489,-0.72189 l 0.21261,-0.0423 c -0.10221,-0.20491 -0.16463,-0.30869 -0.1701,-0.63712 l 0.3402,0.0426 v -0.0423 c -0.13053,-0.2293 -0.1758,-0.46642 -0.1701,-0.89199 l 0.3402,0.0849 c -0.0559,-0.31274 -0.098,-0.60425 0,-0.93445 l 0.25512,0.0849 V 120.123 l 0.2126,0.0849 c -0.0103,-0.51289 0.33197,-1.75555 0.55268,-2.29365 h 0.0426 l 0.0426,0.0425 c 0.0639,0.7961 0.41229,1.32233 0.42522,2.16623 0.16762,-0.009 0.10587,-0.0705 0.21266,0.0423 0.0846,0.19991 -5e-4,0.39729 -0.0426,0.59467 0.18668,-0.0118 0.14987,-0.069 0.25517,0.0426 q -0.0213,0.25482 -0.0426,0.50971 h 0.21296 z"
       style="fill:#ffffff;fill-rule:evenodd;stroke-width:0.058796" />
    <g
       transform="matrix(0.31270044,0,0,0.31270044,30.777858,136.62048)"
       id="layer1-5">
      <path
         id="IconGraphic-9"
         class="cls-1"
         d="m 438.69398,-39.018881 -2.754,-2.754226 -8.58735,8.58666 2.75423,2.754224 -1.13413,1.133901 -2.10606,-2.106054 -16.68712,16.687135 -5.48669,-0.669255 -12.17259,12.172124 a 0.9164959,0.9164959 0 0 1 -1.29612,-1.296115 l 12.15082,-12.150823 -0.80993,-5.669753 16.68736,-16.687129 -2.10628,-2.106051 1.13413,-1.13414 2.91598,2.91553 8.58643,-8.586654 -2.754,-2.754231 1.94407,-1.944066 11.66486,11.664854 z m -24.94638,7.449319 -6.44096,6.440052 10.24158,1.422593 2.03021,-2.030222 -5.12514,-0.582874 z m 7.44863,-5.829225 -5.84044,5.840219 0.53888,3.763267 3.67345,0.449069 5.84045,-5.840215 z m 9.72057,-9.396591 -8.58643,8.586427 3.88813,3.888368 8.58666,-8.586661 z"
         style="fill:#ffffff;fill-rule:evenodd;stroke-width:0.229118" />
    </g>
    <path
       style="fill:#fefefe;stroke-width:0.072405"
       d="m 182.14576,140.6457 c -0.15927,-0.0355 -0.43917,-0.0661 -0.62197,-0.0685 -0.45603,-0.005 -1.0928,-0.33726 -1.67841,-0.87387 -0.60705,-0.55624 -0.96785,-1.10472 -1.23575,-1.87851 -0.18792,-0.5428 -0.21451,-0.7207 -0.21695,-1.45129 -0.004,-1.41767 0.37406,-2.3833 1.29224,-3.29442 0.90029,-0.89336 1.91774,-1.29779 3.2573,-1.29471 1.40845,0.003 2.42465,0.39601 3.31731,1.28219 0.9304,0.92363 1.30819,1.88023 1.30606,3.30694 -8.5e-4,0.73523 -0.0266,0.90504 -0.21689,1.45129 -0.26845,0.76999 -0.63087,1.32289 -1.22263,1.86512 -0.64234,0.5886 -1.0946,0.81812 -1.76527,0.89587 -0.87909,0.10183 -1.90154,0.12957 -2.21504,0.06 z m -2.23917,-11.49457 c -0.0245,-0.18917 -0.40232,-3.97685 -0.83978,-8.41709 -0.43746,-4.44021 -0.86228,-8.70849 -0.94407,-9.48502 -0.0818,-0.77655 -0.17824,-2.16129 -0.21429,-3.07723 -0.0361,-0.91591 -0.0874,-1.78746 -0.11386,-1.93682 l -0.0483,-0.27151 h 5.23189 5.23187 l -0.0518,0.30771 c -0.0285,0.16925 -0.0794,1.02453 -0.11337,1.90062 -0.0338,0.87612 -0.16214,2.58667 -0.28498,3.80128 -0.12283,1.21458 -0.54811,5.49914 -0.94504,9.52124 -0.39694,4.02209 -0.74137,7.46765 -0.76541,7.65682 l -0.0437,0.34392 h -3.02742 -3.02742 z"
       id="path32" />
  </g>
</svg>
