<svg id="Capa_1" enable-background="new 0 0 511.981 511.981" height="512" viewBox="0 0 511.981 511.981" width="512" xmlns="http://www.w3.org/2000/svg"><g><g><path d="m381.245 171.289c4.002-9.356 6.101-19.5 6.101-29.69v-8.925c0-14.793 5.762-28.702 16.223-39.164 3.905-3.905 3.905-10.237 0-14.142-3.906-3.905-10.236-3.905-14.143 0-14.238 14.239-22.08 33.17-22.08 53.306v8.925c0 4.72-.625 9.423-1.814 13.98l-35.378-35.373c-3.904-3.904-10.235-3.904-14.142 0l-39.068 39.068c-65.321-25.161-142.302-11.451-194.904 41.15-34.473 34.473-53.458 80.307-53.458 129.059s18.985 94.586 53.458 129.06c29.328 29.328 66.557 47.379 107.663 52.203 7.043.827 14.112 1.235 21.174 1.235 32.904 0 65.562-8.878 93.771-25.739 4.74-2.833 6.286-8.974 3.453-13.714-2.834-4.741-8.973-6.286-13.715-3.453-63.949 38.224-145.453 28.077-198.205-24.674-30.695-30.695-47.6-71.507-47.6-114.917s16.905-84.221 47.6-114.917c62.557-62.557 167.306-62.522 229.832.006 51.409 51.363 62.229 133.389 25.796 196.289-2.768 4.779-1.138 10.897 3.641 13.666 4.779 2.768 10.897 1.138 13.666-3.641 28.322-48.896 31.658-106.823 12.192-157.239l39.079-39.079c1.875-1.875 2.929-4.419 2.929-7.072s-1.054-5.196-2.93-7.071zm-8.743 72.879c-8.49-16.074-19.491-30.891-32.344-43.743-12.856-12.855-27.662-23.841-43.739-32.34l26.665-26.666 76.089 76.078z"/><path d="m453.506 29.432c-3.905-3.905-10.235-3.905-14.143 0l-20.938 20.937c-3.905 3.905-3.905 10.237 0 14.142 1.953 1.953 4.512 2.929 7.071 2.929s5.118-.977 7.071-2.929l20.938-20.937c3.907-3.906 3.907-10.237.001-14.142z"/><path d="m375.04 40.766c.743 4.96 5.009 8.52 9.877 8.52.493 0 .992-.037 1.494-.112 5.462-.818 9.227-5.909 8.408-11.371l-4.387-29.283c-.818-5.462-5.914-9.227-11.371-8.408-5.462.818-9.227 5.909-8.408 11.371z"/><path d="m474.878 92.966-29.283-4.387c-5.454-.815-10.553 2.946-11.371 8.408s2.946 10.553 8.408 11.371l29.283 4.387c.502.075 1.001.112 1.494.112 4.867 0 9.134-3.561 9.877-8.52.819-5.462-2.946-10.552-8.408-11.371z"/><path d="m196.399 304.551c-2.096-5.031-8.017-7.498-13.06-5.41-5.042 2.087-7.477 8.033-5.4 13.06 2.082 5.038 8.014 7.49 13.05 5.41 5.031-2.077 7.506-8.03 5.41-13.06z"/><path d="m244.26 304.551c-1.639-3.934-5.699-6.462-9.961-6.144-4.181.312-7.769 3.275-8.895 7.307-2.417 8.656 7.459 15.876 14.993 11.098 4.062-2.575 5.679-7.83 3.863-12.261z"/><path d="m308.351 270.852h.035c5.506 0 9.98-4.455 9.999-9.966.019-5.523-4.443-10.015-9.966-10.034-10.234-.035-18.606-8.388-18.665-18.621-.031-5.503-4.502-9.943-9.999-9.943-.019 0-.039 0-.058 0-5.523.032-9.975 4.534-9.943 10.057.04 6.975 1.957 13.522 5.255 19.175l-11.162 11.162c-14.721-14.19-34.081-21.751-54.562-21.265-19.013.444-36.981 7.988-50.776 21.246l-11.255-11.255c3.258-5.628 5.151-12.135 5.191-19.064.031-5.522-4.42-10.025-9.943-10.057-5.504-.053-10.025 4.42-10.057 9.943-.059 10.233-8.431 18.586-18.665 18.621-5.522.019-9.985 4.511-9.966 10.034.019 5.511 4.492 9.966 10 9.966h.034c7.019-.023 13.608-1.948 19.294-5.271l12.788 12.788c-6.707 11.107-10.479 23.765-10.84 36.938-.541 19.703 6.667 38.932 19.895 53.418v2.82l-21.843 21.843c-5.685-3.323-12.275-5.247-19.294-5.271-.012 0-.023 0-.034 0-5.507 0-9.981 4.455-10 9.966-.019 5.523 4.444 10.015 9.966 10.034 10.233.034 18.606 8.388 18.665 18.621.032 5.504 4.502 9.943 9.999 9.943h.058c5.523-.032 9.974-4.535 9.943-10.057-.04-6.929-1.932-13.435-5.19-19.064l11.361-11.361c3.976 6.064 10.829 10.08 18.606 10.08h67.755c7.823 0 14.71-4.064 18.675-10.188l11.357 11.357c-3.298 5.654-5.215 12.2-5.255 19.175-.031 5.523 4.42 10.025 9.943 10.057h.058c5.496 0 9.968-4.44 9.999-9.943.058-10.058 8.585-18.586 18.665-18.621 5.522-.019 9.984-4.511 9.966-10.034-.019-5.522-4.536-9.993-10.034-9.966-6.973.023-13.522 1.924-19.182 5.207l-21.955-21.955v-2.637c12.88-14.046 19.924-32.1 19.924-51.297 0-13.986-3.744-27.355-10.743-39.015l12.775-12.775c5.66 3.285 12.209 5.185 19.181 5.209zm-61.137 113.189c0 1.234-1.004 2.237-2.237 2.237h-23.877v-17.443c0-5.523-4.477-10-10-10s-10 4.477-10 10v17.443h-23.877c-1.234 0-2.237-1.003-2.237-2.237v-19.355c0-2.694-1.087-5.274-3.015-7.156-11.324-11.053-17.321-25.854-16.887-41.675.818-29.817 26.209-54.458 56.024-54.458 30.545 0 56.031 25.477 56.031 56.039 0 15.212-6.005 29.452-16.909 40.095-1.928 1.882-3.015 4.462-3.015 7.156v19.354z"/><path d="m340.02 441.761c-7.556-5.035-17.59 2.261-15.18 10.975 1.136 4.107 4.88 7.121 9.141 7.324 4.271.204 8.265-2.408 9.808-6.389 1.66-4.283.096-9.38-3.769-11.91z"/></g></g></svg>