<?xml version="1.0" encoding="UTF-8" standalone="no"?>
<svg
   xmlns:dc="http://purl.org/dc/elements/1.1/"
   xmlns:cc="http://creativecommons.org/ns#"
   xmlns:rdf="http://www.w3.org/1999/02/22-rdf-syntax-ns#"
   xmlns:svg="http://www.w3.org/2000/svg"
   xmlns="http://www.w3.org/2000/svg"
   width="38.755302mm"
   height="60.168152mm"
   viewBox="0 0 38.755302 60.168152"
   version="1.1"
   id="svg8">
  <defs
     id="defs2">
    <style
       id="style2">
      .cls-1 {
        fill-rule: evenodd;
      }
    </style>
    <style
       id="style2-4">
      .cls-1 {
        fill-rule: evenodd;
      }
    </style>
  </defs>
  <metadata
     id="metadata5">
    <rdf:RDF>
      <cc:Work
         rdf:about="">
        <dc:format>image/svg+xml</dc:format>
        <dc:type
           rdf:resource="http://purl.org/dc/dcmitype/StillImage" />
        <dc:title></dc:title>
      </cc:Work>
    </rdf:RDF>
  </metadata>
  <g
     id="layer1"
     transform="translate(-99.199851,-107.44566)">
    <path
       id="IconGraphic"
       class="cls-1"
       d="m 114.79625,116.81381 a 6.2163854,6.2163854 0 0 1 -12.40738,0 h -0.014 v -4.88738 h 12.29678 v 0.24183 l 3.8428,4.64555 z m -12.4214,-9.26042 h 12.29678 v 2.82946 h -12.29678 z m 12.43542,16.66875 a 3.175,3.175 0 0 1 3.175,3.175 v 16.66875 a 3.175,3.175 0 0 1 -3.175,3.175 v 17.4625 a 2.91042,2.91042 0 0 1 -5.82084,0 v -17.4625 h -1.05833 v 17.4625 a 2.9104167,2.9104167 0 0 1 -5.82083,0 V 147.2274 a 3.1734125,3.1734125 0 0 1 -2.910419,-3.16151 v -16.66875 a 3.175,3.175 0 0 1 3.174999,-3.175 z"
       style="fill:#ffffff;fill-rule:evenodd;stroke-width:0.264583" />
    <g
       id="layer1-5"
       transform="matrix(0.7184016,0,0,0.7184016,46.159867,20.52117)">
      <path
         id="IconGraphic-0"
         class="cls-1"
         d="m 120.66505,137.34416 c 2.12677,1.32304 3.57705,2.33674 4.35081,3.04109 0.86424,0.83996 1.53281,1.86003 1.9582,2.98766 0.57511,1.53727 0.84598,3.17167 0.79754,4.8123 0,3.07297 -0.71822,5.48465 -2.15463,7.23502 -1.43641,1.75039 -3.59124,2.83147 -6.46453,3.24325 v 3.24393 h -3.85417 v -3.35042 c -2.19584,-0.20833 -4.25937,-1.14338 -5.86375,-2.65701 -1.6715,-1.54326 -2.50723,-4.23564 -2.50723,-8.0772 v -1.68638 h 8.37098 v 2.11405 c 0,2.31905 0.0864,3.75951 0.25897,4.32142 0.15418,0.55053 0.68526,0.90767 1.25328,0.84284 0.49408,0.0343 0.9712,-0.1872 1.2641,-0.58658 0.31099,-0.52453 0.45552,-1.13105 0.4145,-1.73944 0,-1.93454 -0.13129,-3.31809 -0.39386,-4.15068 -0.2626,-0.8326 -1.16043,-1.73957 -2.69353,-2.72091 -1.80175,-1.11813 -3.54119,-2.33366 -5.21058,-3.64118 -1.01834,-0.90987 -1.83073,-2.02667 -2.38283,-3.27572 -0.6892,-1.49786 -1.0326,-3.1316 -1.00479,-4.78017 0,-2.57487 0.70785,-4.59515 2.12352,-6.06088 1.41568,-1.4657 3.53954,-2.36918 6.37155,-2.71041 v -2.75167 h 3.85417 v 2.75302 c 2.58276,0.34147 4.5166,1.23423 5.80155,2.67832 1.28497,1.44406 1.92732,3.43944 1.9271,5.98612 0,0.3559 -0.0276,0.89683 -0.0828,1.62281 h -8.37134 v -1.43077 c 0,-1.52206 -0.0967,-2.51795 -0.29007,-2.98766 -0.19339,-0.46971 -0.60778,-0.70445 -1.24315,-0.70423 -0.46585,-0.0236 -0.90717,0.20997 -1.14949,0.60855 -0.29176,0.56223 -0.42424,1.19356 -0.38304,1.82567 0,1.35233 0.26235,2.29897 0.78706,2.83991 0.51119,0.53914 2.01667,1.59092 4.51649,3.15535 z"
         style="fill:#ffffff;fill-rule:evenodd;stroke-width:0.338085" />
    </g>
  </g>
</svg>
