<?xml version="1.0" encoding="UTF-8" standalone="no"?>
<svg
   xmlns:dc="http://purl.org/dc/elements/1.1/"
   xmlns:cc="http://creativecommons.org/ns#"
   xmlns:rdf="http://www.w3.org/1999/02/22-rdf-syntax-ns#"
   xmlns:svg="http://www.w3.org/2000/svg"
   xmlns="http://www.w3.org/2000/svg"
   width="32.014584mm"
   height="58.206783mm"
   viewBox="0 0 32.014584 58.206783"
   version="1.1"
   id="svg8">
  <defs
     id="defs2">
    <style
       id="style2">
      .cls-1 {
        fill-rule: evenodd;
      }
    </style>
    <style
       id="style2-1">
      .cls-1, .cls-2 {
        fill-rule: evenodd;
      }

      .cls-2 {
        fill: none;
        stroke: #000;
        stroke-width: 6.35px;
      }
    </style>
  </defs>
  <metadata
     id="metadata5">
    <rdf:RDF>
      <cc:Work
         rdf:about="">
        <dc:format>image/svg+xml</dc:format>
        <dc:type
           rdf:resource="http://purl.org/dc/dcmitype/StillImage" />
        <dc:title></dc:title>
      </cc:Work>
    </rdf:RDF>
  </metadata>
  <g
     id="layer1"
     transform="translate(-151.83798,-178.0305)">
    <path
       id="IconGraphic"
       class="cls-1"
       d="m 180.19748,197.13616 c 1.0448,0.63571 1.75726,1.12276 2.13737,1.46116 0.42288,0.40146 0.75135,0.8918 0.96172,1.43562 0.26111,0.61885 0.39176,1.38966 0.39194,2.31242 0,1.47671 -0.35285,2.63562 -1.05853,3.47672 -0.70569,0.8411 -1.76422,1.36065 -3.17559,1.55864 v 1.55877 h -1.8924 v -1.60999 c -1.07416,-0.0981 -2.08625,-0.54677 -2.88033,-1.27675 -0.82104,-0.74162 -1.23156,-2.03536 -1.23156,-3.88123 v -0.81021 h 4.11189 v 1.0152 c 0,1.11434 0.0425,1.80651 0.1273,2.07654 0.0849,0.27002 0.29013,0.40504 0.61578,0.40504 0.24128,0.0172 0.47486,-0.0889 0.62072,-0.28188 0.13569,-0.18801 0.20357,-0.4666 0.20366,-0.83576 0,-0.92979 -0.0644,-1.59465 -0.19336,-1.99456 -0.1289,-0.39991 -0.57018,-0.8357 -1.32383,-1.30738 -1.25536,-0.79296 -2.10862,-1.37576 -2.5598,-1.74839 -0.49835,-0.43487 -0.8975,-0.97169 -1.17045,-1.57415 -0.33817,-0.71772 -0.50708,-1.50349 -0.4937,-2.29678 0,-1.23727 0.34768,-2.20803 1.04302,-2.91229 0.69535,-0.70425 1.7389,-1.13858 3.13066,-1.30296 v -1.32276 h 1.89307 v 1.32276 c 1.26874,0.16412 2.21868,0.59309 2.84984,1.28692 0.63115,0.69382 0.94669,1.65264 0.9466,2.87645 0,0.17098 -0.0133,0.43076 -0.0401,0.77932 h -4.11323 v -0.68732 c 0,-0.731 -0.0474,-1.20954 -0.14241,-1.43562 -0.095,-0.22607 -0.29852,-0.33889 -0.6107,-0.33845 -0.22737,-0.0124 -0.44358,0.0995 -0.56483,0.29218 -0.12571,0.19488 -0.18846,0.48714 -0.18829,0.87681 0,0.64952 0.12892,1.10417 0.38673,1.36394 0.25103,0.26013 0.99064,0.76613 2.21881,1.51799 z"
       style="fill:#ffffff;fill-rule:evenodd;stroke-width:0.13372" />
    <g
       id="g26"
       style="fill:#ffffff"
       transform="matrix(0.26458333,0,0,0.26458333,133.84631,173.53103)">
      <path
         d="m 189,168 v 69 H 68 l 4,-129 h 24 l 1,64 31,-20 17,21 32,-21 z"
         class="cls-1"
         data-name="Mini Factory"
         id="Mini_Factory"
         style="fill:#ffffff;fill-rule:evenodd" />
      <path
         id="Emission_1"
         d="m 155,17.005859 c -19.01583,0 -30.57559,6.784372 -37.05859,14.242188 -3.24151,3.728908 -5.22998,7.573107 -6.41602,10.755859 -1.18604,3.182753 -1.60547,5.431584 -1.60547,7.115235 v 19.953125 c 0,4.930121 -2.48779,7.20554 -5.36328,8.818359 -2.7895,1.564588 -5.537135,1.953305 -5.705078,1.976563 H 83.160156 l 0.197266,0.0078 c -3.000726,-0.186312 -5.959842,0.801442 -8.246094,2.753906 l -0.04297,0.03516 -0.04102,0.03906 c -3.96069,3.631795 -4.007813,9.025391 -4.007813,9.025391 l -0.01367,0.148437 V 105 h 6.34961 V 92.277344 c 0.01989,-0.09241 0.825306,-3.79124 1.945312,-4.857422 1.026396,-0.850743 2.329494,-1.291725 3.66211,-1.208984 l 0.09961,0.0078 h 16.255859 l 0.189453,-0.02344 c 0,0 4.045291,-0.462897 8.154301,-2.767578 4.10901,-2.30468 8.60742,-7.01559 8.60742,-14.355468 V 49.119141 c 0,-0.07585 0.2482,-2.325409 1.20703,-4.898438 0.95883,-2.573028 2.59086,-5.740923 5.25586,-8.806641 5.33,-6.131434 14.72341,-12.058593 32.26758,-12.058593 z"
         style="color:#000000;font-style:normal;font-variant:normal;font-weight:normal;font-stretch:normal;font-size:medium;line-height:normal;font-family:sans-serif;font-variant-ligatures:normal;font-variant-position:normal;font-variant-caps:normal;font-variant-numeric:normal;font-variant-alternates:normal;font-feature-settings:normal;text-indent:0;text-align:start;text-decoration:none;text-decoration-line:none;text-decoration-style:solid;text-decoration-color:#000000;letter-spacing:normal;word-spacing:normal;text-transform:none;writing-mode:lr-tb;direction:ltr;text-orientation:mixed;dominant-baseline:auto;baseline-shift:baseline;text-anchor:start;white-space:normal;shape-padding:0;clip-rule:nonzero;display:inline;overflow:visible;visibility:visible;opacity:1;isolation:auto;mix-blend-mode:normal;color-interpolation:sRGB;color-interpolation-filters:linearRGB;solid-color:#000000;solid-opacity:1;vector-effect:none;fill:#ffffff;fill-opacity:1;fill-rule:evenodd;stroke:none;stroke-width:6.35px;stroke-linecap:butt;stroke-linejoin:miter;stroke-miterlimit:4;stroke-dasharray:none;stroke-dashoffset:0;stroke-opacity:1;color-rendering:auto;image-rendering:auto;shape-rendering:auto;text-rendering:auto;enable-background:accumulate" />
      <path
         id="Emission_2"
         d="m 155,24.988281 c -14.94514,0 -24.43008,5.219358 -29.92773,10.982422 -2.74883,2.881532 -4.51376,5.858736 -5.60352,8.339844 -1.08976,2.481108 -1.56836,4.043986 -1.56836,5.806641 v 19.957031 c 0,6.74477 -3.67494,10.970006 -7.66797,13.863281 -3.73801,2.7085 -7.19863,3.776958 -7.66015,3.916016 H 87.150391 c -1.368616,0 -2.645871,0.270747 -3.730469,0.933593 -1.084598,0.662847 -1.840666,1.722459 -2.179688,2.65625 -0.466883,1.285971 -0.36992,2.206407 -0.257812,2.789063 V 105 h 6.349609 V 94.203125 h 16.224609 l 0.42188,-0.119141 c 0,0 4.99349,-1.392384 9.98046,-5.005859 4.98698,-3.613475 10.29297,-9.865676 10.29297,-19.003906 V 50.117188 c 0,0.459154 0.20574,-1.374421 1.03125,-3.253907 0.82552,-1.879485 2.20702,-4.228923 4.38282,-6.509765 4.3516,-4.561686 11.82812,-9.013672 25.33398,-9.013672 z"
         style="color:#000000;font-style:normal;font-variant:normal;font-weight:normal;font-stretch:normal;font-size:medium;line-height:normal;font-family:sans-serif;font-variant-ligatures:normal;font-variant-position:normal;font-variant-caps:normal;font-variant-numeric:normal;font-variant-alternates:normal;font-feature-settings:normal;text-indent:0;text-align:start;text-decoration:none;text-decoration-line:none;text-decoration-style:solid;text-decoration-color:#000000;letter-spacing:normal;word-spacing:normal;text-transform:none;writing-mode:lr-tb;direction:ltr;text-orientation:mixed;dominant-baseline:auto;baseline-shift:baseline;text-anchor:start;white-space:normal;shape-padding:0;clip-rule:nonzero;display:inline;overflow:visible;visibility:visible;opacity:1;isolation:auto;mix-blend-mode:normal;color-interpolation:sRGB;color-interpolation-filters:linearRGB;solid-color:#000000;solid-opacity:1;vector-effect:none;fill:#ffffff;fill-opacity:1;fill-rule:evenodd;stroke:none;stroke-width:6.35px;stroke-linecap:butt;stroke-linejoin:miter;stroke-miterlimit:4;stroke-dasharray:none;stroke-dashoffset:0;stroke-opacity:1;color-rendering:auto;image-rendering:auto;shape-rendering:auto;text-rendering:auto;enable-background:accumulate" />
      <path
         id="Emission_3"
         d="m 155,33.970703 c -12.88391,0 -20.51932,3.890711 -24.62305,8.876953 -4.10373,4.986242 -4.49414,10.594899 -4.49414,13.257813 v 16.96289 c 0,7.577105 -4.09517,13.124647 -9.09765,17.023438 -2.50125,1.949395 -5.20608,3.425882 -7.55469,4.386719 -2.34861,0.960836 -4.46373,1.359375 -5.11719,1.359375 H 99.125 c -2.0365,0 -3.665102,-0.170495 -5.646484,0.580078 -0.990692,0.375286 -2.097831,1.180879 -2.726563,2.269531 -0.628732,1.088652 -0.789062,2.23171 -0.789062,3.31836 V 105 H 96.3125 v -2.67383 c 0.368418,-0.0389 1.126164,-0.13867 2.8125,-0.13867 h 4.98828 c 2.21504,0 4.65525,-0.65943 7.52149,-1.83203 2.86623,-1.172602 6.03705,-2.904006 9.05468,-5.255861 6.03527,-4.703709 11.54297,-12.128354 11.54297,-22.03125 v -16.96289 c 0,-2.029087 0.31386,-5.901898 3.04688,-9.222657 2.73302,-3.320758 8.06761,-6.5625 19.7207,-6.5625 z"
         style="color:#000000;font-style:normal;font-variant:normal;font-weight:normal;font-stretch:normal;font-size:medium;line-height:normal;font-family:sans-serif;font-variant-ligatures:normal;font-variant-position:normal;font-variant-caps:normal;font-variant-numeric:normal;font-variant-alternates:normal;font-feature-settings:normal;text-indent:0;text-align:start;text-decoration:none;text-decoration-line:none;text-decoration-style:solid;text-decoration-color:#000000;letter-spacing:normal;word-spacing:normal;text-transform:none;writing-mode:lr-tb;direction:ltr;text-orientation:mixed;dominant-baseline:auto;baseline-shift:baseline;text-anchor:start;white-space:normal;shape-padding:0;clip-rule:nonzero;display:inline;overflow:visible;visibility:visible;opacity:1;isolation:auto;mix-blend-mode:normal;color-interpolation:sRGB;color-interpolation-filters:linearRGB;solid-color:#000000;solid-opacity:1;vector-effect:none;fill:#ffffff;fill-opacity:1;fill-rule:evenodd;stroke:none;stroke-width:6.35px;stroke-linecap:butt;stroke-linejoin:miter;stroke-miterlimit:4;stroke-dasharray:none;stroke-dashoffset:0;stroke-opacity:1;color-rendering:auto;image-rendering:auto;shape-rendering:auto;text-rendering:auto;enable-background:accumulate" />
    </g>
  </g>
</svg>
