<svg id="Capa_1" enable-background="new 0 0 512 512" height="512" viewBox="0 0 512 512" width="512" xmlns="http://www.w3.org/2000/svg"><g><path d="m224.006 300c60.654 0 110-49.346 110-110s-49.346-110-110-110-110 49.346-110 110 49.345 110 110 110zm0-200c49.626 0 90 40.374 90 90s-40.374 90-90 90-90-40.374-90-90 40.374-90 90-90z"/><path d="m239.534 168.944 20 10c4.939 2.47 10.947.467 13.416-4.473 2.47-4.939.468-10.946-4.473-13.416l-2.111-1.055 2.111-1.056c4.94-2.47 6.942-8.477 4.473-13.416-2.47-4.94-8.48-6.943-13.416-4.473l-20 10c-3.389 1.694-5.528 5.156-5.528 8.944s2.139 7.251 5.528 8.945z"/><path d="m175.061 174.472c2.474 4.949 8.487 6.939 13.416 4.473l20-10c3.389-1.694 5.528-5.156 5.528-8.944s-2.14-7.25-5.528-8.944l-20-10c-4.939-2.47-10.946-.469-13.416 4.473-2.47 4.939-.468 10.946 4.473 13.416l2.111 1.056-2.111 1.056c-4.94 2.467-6.942 8.474-4.473 13.414z"/><path d="m174.006 220c.047 0 .079.004.09 0 .939.515 2.809 3.505 3.93 5.3 3.437 5.498 9.188 14.7 20.98 14.7s17.544-9.202 20.98-14.7c1.134-1.815 3.033-4.854 3.892-5.293 0 0 .039-.007.128-.007.047 0 .08.004.09 0 .939.515 2.809 3.505 3.93 5.3 3.437 5.498 9.188 14.7 20.98 14.7s17.544-9.202 20.98-14.7c1.134-1.815 3.033-4.854 3.892-5.293 0 0 .039-.007.128-.007 5.522 0 10-4.478 10-10s-4.478-10-10-10c-11.792 0-17.544 9.202-20.98 14.7-1.134 1.815-3.033 4.854-3.892 5.293 0 0-.039.007-.128.007-.047 0-.08-.003-.09 0-.939-.515-2.809-3.505-3.93-5.3-3.437-5.498-9.188-14.7-20.98-14.7s-17.544 9.202-20.98 14.7c-1.134 1.815-3.033 4.854-3.892 5.293 0 0-.039.007-.128.007-.047 0-.08-.003-.09 0-.939-.515-2.809-3.505-3.93-5.3-3.437-5.498-9.188-14.7-20.98-14.7-5.522 0-10 4.478-10 10s4.477 10 10 10z"/><circle cx="97.006" cy="63" r="10"/><path d="m425.217 217.068c-7.229-7.229-11.211-16.842-11.211-27.068 0-104.767-85.233-190-190-190-34.139 0-67.62 9.16-96.826 26.491-4.749 2.818-6.314 8.953-3.496 13.703 2.817 4.749 8.953 6.315 13.703 3.496 26.118-15.498 56.07-23.69 86.619-23.69 93.738 0 170 76.262 170 170 0 15.53 6.032 30.132 16.987 41.13 0 0 44.01 46.009 44.062 46.062 3.555 3.555 3.043 7.731 2.658 9.362-.385 1.632-1.797 5.599-6.476 7.159l-30.3 9.77c-2.692.868-4.891 2.835-6.051 5.415-1.161 2.579-1.175 5.529-.039 8.119 7.95 18.119 10.758 24.544 10.934 24.896 1.227 2.452 1.398 5.227.483 7.811-.914 2.582-2.791 4.629-5.283 5.761l-8.61 3.91c-2.987 1.356-5.118 4.092-5.704 7.319s.448 6.537 2.768 8.857l3.36 3.36c3.897 3.897 3.897 10.239 0 14.137l-5.86 5.86c-1.875 1.876-2.929 4.419-2.929 7.071 0 16.542-13.458 30-30 30h-40c-30.134 0-54.536 26.785-59.196 56h-139.507c7.183-70.696-16.284-115.242-39.015-158.396-20.787-39.462-42.282-80.27-42.282-143.603 0-30.549 8.192-60.501 23.69-86.619 2.818-4.75 1.253-10.885-3.496-13.703-4.754-2.82-10.887-1.253-13.703 3.496-17.331 29.206-26.491 62.687-26.491 96.826 0 68.278 22.667 111.31 44.587 152.925 23.479 44.573 45.654 86.674 35.514 157.661-.41 2.869.445 5.776 2.345 7.966 1.899 2.19 4.656 3.448 7.555 3.448h160c5.522 0 10-4.478 10-10 0-21.272 17.473-46 40-46h40c26.113 0 47.614-20.12 49.814-45.672l3.117-3.117c9.489-9.489 11.279-23.807 5.371-35.117 5.963-3.566 10.452-9.037 12.81-15.695 2.714-7.666 2.241-15.888-1.326-23.184l-6.182-14.095 19.857-6.403c9.936-3.312 17.304-11.374 19.71-21.568 2.396-10.151-.554-20.613-7.894-28.012-45.148-47.2-43.835-45.832-44.067-46.069z"/></g></svg>