<?xml version="1.0" encoding="UTF-8" standalone="no"?>
<svg
   xmlns:dc="http://purl.org/dc/elements/1.1/"
   xmlns:cc="http://creativecommons.org/ns#"
   xmlns:rdf="http://www.w3.org/1999/02/22-rdf-syntax-ns#"
   xmlns:svg="http://www.w3.org/2000/svg"
   xmlns="http://www.w3.org/2000/svg"
   width="55.03334mm"
   height="50.006248mm"
   viewBox="0 0 55.03334 50.006248"
   version="1.1"
   id="svg8">
  <defs
     id="defs2">
    <style
       id="style2">
      .cls-1 {
        fill-rule: evenodd;
      }
    </style>
    <style
       id="style2-1">
      .cls-1 {
        fill-rule: evenodd;
      }
    </style>
  </defs>
  <metadata
     id="metadata5">
    <rdf:RDF>
      <cc:Work
         rdf:about="">
        <dc:format>image/svg+xml</dc:format>
        <dc:type
           rdf:resource="http://purl.org/dc/dcmitype/StillImage" />
        <dc:title></dc:title>
      </cc:Work>
    </rdf:RDF>
  </metadata>
  <g
     id="layer1"
     transform="translate(-118.38214,-127.69926)">
    <path
       id="IconGraphic"
       class="cls-1"
       d="m 118.38214,167.65134 v -39.95208 h 55.03334 v 39.95208 z m 51.85834,-36.77708 h -48.41875 v 33.60208 h 48.41875 z m -31.35313,41.56286 v -2.13995 h 14.02292 v 2.14313 c 4.7625,0.79825 8.24256,2.38125 9.06277,4.2717 -4.28493,0.61912 -9.85652,0.99351 -15.95437,0.99351 -6.2148,0 -11.88509,-0.38894 -16.2015,-1.02844 0.85011,-1.87695 4.32567,-3.44831 9.07018,-4.23995 z"
       style="fill:#ffffff;fill-rule:evenodd;stroke-width:0.264583" />
    <path
       style="fill:#fefefe;stroke-width:0.050749"
       d="m 144.74201,160.02627 c -0.19539,-0.022 -0.57257,-0.0427 -0.83818,-0.0461 -0.97965,-0.0128 -2.99169,-0.653 -4.23186,-1.34655 -0.27505,-0.15382 -0.33472,-0.21011 -0.33472,-0.31569 0,-0.11803 0.30571,-0.6641 2.38303,-4.25634 0.3551,-0.61406 0.89652,-1.55038 1.20315,-2.0807 0.35064,-0.60641 0.59146,-0.97078 0.64897,-0.98188 0.0503,-0.01 0.26552,0.064 0.47828,0.16382 0.65961,0.30943 1.10014,0.40387 1.88394,0.40387 0.78379,0 1.22536,-0.0946 1.85487,-0.39738 0.20358,-0.098 0.4152,-0.17804 0.47026,-0.17804 0.0749,0 0.18982,0.15685 0.45567,0.62168 0.19556,0.34192 0.5209,0.90714 0.72298,1.25604 0.56271,0.97151 1.23528,2.13762 2.76906,4.8011 0.17848,0.30994 0.32451,0.60828 0.32451,0.66297 0,0.23976 -1.75473,1.02193 -3.17179,1.41382 -0.52386,0.14487 -0.81133,0.1925 -1.39561,0.23126 -1.04039,0.069 -2.80237,0.0953 -3.22256,0.0482 z m 0.24895,-10.27273 c -0.62867,-0.20368 -1.19997,-0.66966 -1.51796,-1.23811 -0.59834,-1.06959 -0.44673,-2.48505 0.35943,-3.35578 0.34107,-0.3684 0.66746,-0.58264 1.14993,-0.75479 0.3167,-0.11305 0.45087,-0.13135 0.95226,-0.13026 0.49154,0.001 0.64047,0.0214 0.94403,0.12867 0.8567,0.30284 1.48184,0.95042 1.74749,1.81018 0.12461,0.40326 0.13543,1.21893 0.022,1.65459 -0.23935,0.91891 -1.01009,1.68964 -1.92899,1.92898 -0.46427,0.12095 -1.2844,0.1003 -1.72816,-0.0435 z m -11.99212,-2.6524 c -0.0741,-0.0837 -0.0749,-0.0446 0.0437,-2.02219 0.0461,-0.77084 0.16551,-1.33044 0.48679,-2.28371 0.6546,-1.94221 1.67361,-3.56961 3.16334,-5.05201 0.93388,-0.92927 2.1162,-1.8238 2.41255,-1.82527 0.0857,-4.2e-4 0.18776,-0.021 0.22669,-0.0456 0.18581,-0.11767 0.35542,0.10114 1.15706,1.49274 1.52402,2.64549 1.9647,3.40953 2.58598,4.48345 0.34469,0.5958 0.6267,1.13434 0.6267,1.19674 0,0.0815 -0.075,0.1613 -0.26642,0.28321 -0.40416,0.2575 -1.05062,0.93659 -1.34138,1.40908 -0.34818,0.56583 -0.62268,1.39414 -0.66172,1.99683 l -0.0291,0.45061 -4.16659,-0.002 c -3.7287,-0.002 -4.17405,-0.0109 -4.23749,-0.082 z m 17.43646,-0.30941 c -0.10419,-1.32142 -0.78933,-2.5518 -1.86091,-3.34179 -0.32127,-0.23686 -0.40626,-0.3263 -0.4065,-0.4278 -1.6e-4,-0.0705 0.17874,-0.43599 0.39757,-0.81199 0.21885,-0.376 0.82613,-1.42585 1.34951,-2.33299 2.19519,-3.80481 2.28642,-3.95705 2.37173,-3.95774 0.0465,-3.6e-4 0.0951,-0.0293 0.10783,-0.0641 0.0186,-0.0508 0.0367,-0.0508 0.0905,0 0.037,0.0349 0.14173,0.0634 0.23277,0.0634 0.18946,0 0.72354,0.34233 1.46354,0.93807 0.69756,0.5616 1.10146,0.95062 1.65552,1.59459 1.67952,1.95201 2.86863,4.58852 2.98915,6.62755 0.0231,0.39077 0.0585,0.98845 0.0788,1.32819 0.0315,0.52812 0.0251,0.62934 -0.0434,0.69781 -0.0717,0.0716 -0.51831,0.08 -4.23761,0.08 h -4.15753 z"
       id="path80" />
  </g>
</svg>
