<?xml version="1.0" encoding="UTF-8" standalone="no"?>
<svg
   xmlns:dc="http://purl.org/dc/elements/1.1/"
   xmlns:cc="http://creativecommons.org/ns#"
   xmlns:rdf="http://www.w3.org/1999/02/22-rdf-syntax-ns#"
   xmlns:svg="http://www.w3.org/2000/svg"
   xmlns="http://www.w3.org/2000/svg"
   xmlns:sodipodi="http://sodipodi.sourceforge.net/DTD/sodipodi-0.dtd"
   xmlns:inkscape="http://www.inkscape.org/namespaces/inkscape"
   width="207.2108"
   height="199.07323"
   viewBox="0 0 207.2108 199.07323"
   version="1.1"
   id="svg7"
   sodipodi:docname="icons_sustainableindustrytransition.svg"
   inkscape:version="1.0.1 (3bc2e813f5, 2020-09-07)">
  <metadata
     id="metadata11">
    <rdf:RDF>
      <cc:Work
         rdf:about="">
        <dc:format>image/svg+xml</dc:format>
        <dc:type
           rdf:resource="http://purl.org/dc/dcmitype/StillImage" />
        <dc:title></dc:title>
      </cc:Work>
    </rdf:RDF>
  </metadata>
  <sodipodi:namedview
     pagecolor="#ffffff"
     bordercolor="#666666"
     borderopacity="1"
     objecttolerance="10"
     gridtolerance="10"
     guidetolerance="10"
     inkscape:pageopacity="0"
     inkscape:pageshadow="2"
     inkscape:window-width="1920"
     inkscape:window-height="986"
     id="namedview9"
     showgrid="false"
     inkscape:zoom="3.8478303"
     inkscape:cx="103.6054"
     inkscape:cy="89.141145"
     inkscape:current-layer="svg7"
     inkscape:document-rotation="0"
     inkscape:window-x="-11"
     inkscape:window-y="-11"
     inkscape:window-maximized="1" />
  <defs
     id="defs4">
    <style
       id="style2">
      .cls-1 {
        fill-rule: evenodd;
      }
    </style>
  </defs>
  <path
     id="IconGraphic"
     class="cls-1"
     d="m 192.4823,182.22822 h -73 v -34 h 40 c 3.958,0 3.5,-1.725 1,-5 -2.5,-3.275 -10,-16 -10,-16 l -17,9 12,-49.999999 48,14.999999 -15,9 c 0,0 15.67,25.956 26,45 10.33,19.044 -12,27 -12,27 z M 105.3953,51.570221 c -1.978,-3.427 -3.244,-2.169 -4.83,1.634 -1.586001,3.803 -8.856001,16.66 -8.856001,16.66 l 16.294001,10.222 -49.300001,14.608 -11.011,-49.066 15.29,8.488 c 0,0 14.644,-26.549 25.972,-45.0170004 11.328001,-18.468 29.382001,-3.108 29.382001,-3.108 l 36.5,63.2200004 -29.445,17 c 0,0 -17.009,-29.461 -19.996,-34.641 z M 46.287299,146.12822 c -1.979,3.428 -0.256,3.895 3.83,3.366 4.086,-0.529 18.856,-0.66 18.856,-0.66 l 0.709,-19.222 37.300001,35.392 -36.992001,34.069 -0.294,-17.49 c 0,0 -30.314,0.593 -51.971,0.017 -21.6569998,-0.576 -17.38299982,-23.893 -17.38299982,-23.893 L 36.842299,94.487221 l 29.445,16.999999 z"
     style="fill:#ffffff;fill-rule:evenodd"
     inkscape:connector-curvature="0" />
  <text
     xml:space="preserve"
     style="font-style:normal;font-weight:normal;font-size:61.6811px;line-height:1.25;font-family:sans-serif;fill:#ffffff;fill-opacity:1;stroke:none;stroke-width:1.54203;"
     x="83.645752"
     y="135.36633"
     id="text10"
     transform="scale(1.0176985,0.98260933)"><tspan
       sodipodi:role="line"
       id="tspan8"
       x="83.645752"
       y="135.36633"
       style="stroke-width:1.54203;fill:#ffffff;">$</tspan></text>
</svg>
