<?xml version="1.0" encoding="UTF-8" standalone="no"?>
<svg
   xmlns:dc="http://purl.org/dc/elements/1.1/"
   xmlns:cc="http://creativecommons.org/ns#"
   xmlns:rdf="http://www.w3.org/1999/02/22-rdf-syntax-ns#"
   xmlns:svg="http://www.w3.org/2000/svg"
   xmlns="http://www.w3.org/2000/svg"
   width="45.041344mm"
   height="47.030102mm"
   viewBox="0 0 45.041344 47.030102"
   version="1.1"
   id="svg977">
  <defs
     id="defs971" />
  <metadata
     id="metadata974">
    <rdf:RDF>
      <cc:Work
         rdf:about="">
        <dc:format>image/svg+xml</dc:format>
        <dc:type
           rdf:resource="http://purl.org/dc/dcmitype/StillImage" />
        <dc:title></dc:title>
      </cc:Work>
    </rdf:RDF>
  </metadata>
  <g
     id="layer1"
     transform="translate(-78.19927,-136.24974)">
    <path
       style="fill:#fefefe;stroke-width:0.0905544"
       d="m 89.761228,182.9966 c 0,-0.29018 1.089198,-13.65493 1.191138,-14.61559 l 0.04778,-0.45029 H 84.599709 78.19927 l 0.02412,-0.26981 c 0.01719,-0.19231 3.084105,-4.63107 10.677387,-15.45342 5.859302,-8.35098 10.762569,-15.35538 10.896167,-15.56531 0.283636,-0.44574 0.618536,-0.53086 0.616066,-0.15657 -9.2e-4,0.12384 -1.342303,4.79557 -2.981085,10.38164 l -2.979619,10.1565 6.709744,0.0256 6.70974,0.0256 -0.002,0.22456 c -0.003,0.34108 -17.65037,25.93055 -17.91213,25.97267 -0.170639,0.0275 -0.196774,-0.009 -0.196774,-0.27558 z"
       id="path484" />
    <g
       id="g97"
       transform="matrix(0.19166824,0,0,0.33143901,94.118776,127.91524)">
      <path
         style="fill:#fefefe;stroke-width:0.0846667"
         d="m 118.58301,166.24723 c -0.0288,-0.0466 -0.13584,-0.0847 -0.23791,-0.0847 -0.26418,0 -32.655091,-32.39108 -32.655091,-32.65525 0,-0.10198 -0.03839,-0.20915 -0.08532,-0.23815 -0.05333,-0.033 -0.03973,-0.0983 0.03629,-0.17433 0.104212,-0.10421 1.448308,-0.1216 9.398649,-0.1216 h 9.277052 v -16.43138 c 0,-14.12764 0.0169,-16.44834 0.12095,-16.552337 0.18225,-0.182248 28.36251,-0.182248 28.54476,0 0.10399,0.103997 0.12095,2.424697 0.12095,16.552337 v 16.43138 h 9.23472 c 8.26441,0 9.24863,0.0139 9.36715,0.13244 0.0988,0.0988 0.10805,0.15684 0.0363,0.2286 -0.0529,0.0529 -0.0962,0.1743 -0.0962,0.26981 0,0.25327 -32.31722,32.55848 -32.57058,32.55848 -0.10198,0 -0.20897,0.0381 -0.23775,0.0847 -0.0288,0.0466 -0.0859,0.0847 -0.127,0.0847 -0.0411,0 -0.0982,-0.0381 -0.127,-0.0847 z"
         id="path109" />
      <path
         style="fill:#fefefe;stroke-width:0.0846667"
         d="m 118.92834,25.432613 c 0.0288,0.04661 0.13585,0.0847 0.23791,0.0847 0.26418,0 32.65509,32.391081 32.65509,32.65525 0,0.101982 0.0384,0.209151 0.0853,0.238152 0.0533,0.03302 0.0397,0.0983 -0.0363,0.174332 -0.10421,0.104208 -1.44832,0.121597 -9.39865,0.121597 h -9.27706 v 16.431382 c 0,14.12764 -0.0169,16.44834 -0.12096,16.55233 -0.18225,0.18225 -28.36251,0.18225 -28.54476,0 -0.10399,-0.10399 -0.12096,-2.42469 -0.12096,-16.55233 V 58.70664 h -9.234724 c -8.26441,0 -9.248631,-0.01388 -9.36714,-0.13244 -0.09881,-0.09879 -0.108043,-0.156838 -0.0363,-0.228598 0.0529,-0.05291 0.0962,-0.174297 0.0962,-0.269808 0,-0.253274 32.317224,-32.558485 32.570584,-32.558485 0.10199,0 0.20897,-0.03811 0.23775,-0.0847 0.0288,-0.04661 0.0859,-0.0847 0.12699,-0.0847 0.0411,0 0.0982,0.03811 0.127,0.0847 z"
         id="path109-6" />
    </g>
  </g>
</svg>
