<?xml version="1.0" encoding="UTF-8" standalone="no"?>
<svg
   xmlns:dc="http://purl.org/dc/elements/1.1/"
   xmlns:cc="http://creativecommons.org/ns#"
   xmlns:rdf="http://www.w3.org/1999/02/22-rdf-syntax-ns#"
   xmlns:svg="http://www.w3.org/2000/svg"
   xmlns="http://www.w3.org/2000/svg"
   xmlns:sodipodi="http://sodipodi.sourceforge.net/DTD/sodipodi-0.dtd"
   xmlns:inkscape="http://www.inkscape.org/namespaces/inkscape"
   width="215.9637"
   height="200.00082"
   viewBox="0 0 215.9637 200.00082"
   version="1.1"
   id="svg7"
   sodipodi:docname="icons_privatepensions.svg"
   inkscape:version="0.92.4 (5da689c313, 2019-01-14)">
  <metadata
     id="metadata11">
    <rdf:RDF>
      <cc:Work
         rdf:about="">
        <dc:format>image/svg+xml</dc:format>
        <dc:type
           rdf:resource="http://purl.org/dc/dcmitype/StillImage" />
      </cc:Work>
    </rdf:RDF>
  </metadata>
  <sodipodi:namedview
     pagecolor="#ffffff"
     bordercolor="#666666"
     borderopacity="1"
     objecttolerance="10"
     gridtolerance="10"
     guidetolerance="10"
     inkscape:pageopacity="0"
     inkscape:pageshadow="2"
     inkscape:window-width="640"
     inkscape:window-height="480"
     id="namedview9"
     showgrid="false"
     inkscape:zoom="6.4296875"
     inkscape:cx="81.520256"
     inkscape:cy="100"
     inkscape:current-layer="svg7" />
  <defs
     id="defs4">
    <style
       id="style2">
      .cls-1 {
        fill-rule: evenodd;
      }
    </style>
  </defs>
  <path
     id="IconGraphic"
     class="cls-1"
     d="m 215.945,200.00083 h -6.779 c 0,0 0.907,-71.538 -0.128,-75.022 -1.7,-6.089 -4.375,-9.348 -7.313,-10.613 -0.16,0.271 -0.323,0.543 -0.5,0.813 -3.382,5.185 -8.413,7.894 -11.236,6.049 l -1.378,-0.9 a 17.226,17.226 0 0 0 -0.989,1.794 c -1.035,3.484 -2.442,7.333 -4.28,7.5 -1.823,0.2 -5.627,-4.221 -1.964,-10.6 a 15.813,15.813 0 0 1 1.228,-2.616 l -15.09,-9.865 -13.025,21.948 a 10.425,10.425 0 0 1 -5.884,4.641 v 55.571 a 11.2,11.2 0 1 1 -22.4,0 v -64.838 l -4.074,-2.422 v 67.26 a 11.203,11.203 0 1 1 -22.405996,0 v -80.758 a 10.487,10.487 0 0 1 -2.27,-13.371003 l 31.118996,-52.439 a 10.471,10.471 0 0 1 14.357,-3.66 l 39.026,23.206 a 10.492,10.492 0 0 1 3.657,14.37 l -6.642,11.192 23.267,15.207003 c 1.4,0.912 1.987,2.768 1.823,5.037 4.71,1.717 8.917,6.129 11.219,14.391 a 15.833,15.833 0 0 1 0.571,3.6 c 0.171,3.925 0.091,74.525 0.091,74.525 z M 176.056,48.274827 a 24.138,24.138 0 1 1 23.9,-24.137 24.021,24.021 0 0 1 -23.9,24.137 z M 42.423004,157.20983 v 10.784 h -13.238 v -11.139 a 34.558,34.558 0 0 1 -20.1410003,-8.833 q -8.61200001,-7.7 -8.61200001,-26.853 v -5.605 H 29.185004 v 7.024 q 0,11.565 0.89,14.367 0.89,2.802 4.306,2.8 a 5.02,5.02 0 0 0 4.341,-1.951 9.766,9.766 0 0 0 1.423,-5.782 q 0,-9.648 -1.352,-13.8 -1.352,-4.152 -9.252,-9.045 -13.168,-8.231 -17.9,-12.100003 a 31.987,31.987 0 0 1 -8.1850003,-10.89 35.549,35.549 0 0 1 -3.45100001,-15.886 q 0,-12.84 7.30000001,-20.149 7.3000003,-7.309 21.8850003,-9.01 v -9.154 h 13.233 v 9.152 q 13.308,1.7 19.928,8.9 6.62,7.2 6.619,19.9 0,1.774 -0.285,5.392 h -28.753 v -4.749 q 0,-7.591 -1,-9.933 -1,-2.342 -4.27,-2.341 a 4.4,4.4 0 0 0 -3.946,2.022 11.235,11.235 0 0 0 -1.317,6.07 q 0,6.741 2.7,9.436 2.632,2.7 15.515,10.5 10.959,6.6 14.946,10.11 a 27.231,27.231 0 0 1 6.726,9.932003 q 2.739,6.423 2.74,16 0,15.324 -7.4,24.051 -7.4,8.727 -22.203,10.78 z"
     style="fill:#ffffff;fill-rule:evenodd"
     inkscape:connector-curvature="0" />
</svg>
