<?xml version="1.0" encoding="UTF-8" standalone="no"?>
<svg
   xmlns:dc="http://purl.org/dc/elements/1.1/"
   xmlns:cc="http://creativecommons.org/ns#"
   xmlns:rdf="http://www.w3.org/1999/02/22-rdf-syntax-ns#"
   xmlns:svg="http://www.w3.org/2000/svg"
   xmlns="http://www.w3.org/2000/svg"
   width="59.505177mm"
   height="66.889351mm"
   viewBox="0 0 59.505177 66.889351"
   version="1.1"
   id="svg861">
  <defs
     id="defs855">
    <style
       id="style2">
      .cls-1 {
        fill-rule: evenodd;
      }
    </style>
  </defs>
  <metadata
     id="metadata858">
    <rdf:RDF>
      <cc:Work
         rdf:about="">
        <dc:format>image/svg+xml</dc:format>
        <dc:type
           rdf:resource="http://purl.org/dc/dcmitype/StillImage" />
        <dc:title></dc:title>
      </cc:Work>
    </rdf:RDF>
  </metadata>
  <g
     id="layer1"
     transform="translate(-87.497411,-108.10735)">
    <path
       style="fill:#fefefe;stroke-width:0.0663071"
       d="m 116.81968,174.967 c -5.47846,-0.67047 -10.88238,-3.03837 -15.38325,-6.74064 -0.57852,-0.47588 -2.210495,-1.97107 -2.519481,-2.30832 -0.145768,-0.15911 -0.45907,-0.49936 -0.696224,-0.75611 -5.954178,-6.44639 -9.590929,-15.75328 -10.570264,-27.05063 -0.243428,-2.80804 -0.184268,-13.53404 0.09105,-16.50947 0.242034,-2.61563 0.278521,-2.76856 0.788644,-3.30538 0.386948,-0.40721 -0.629907,-0.0159 10.883909,-4.18833 4.514156,-1.63586 14.509276,-5.26206 15.544876,-5.63964 l 0.99048,-0.36113 h 1.31236 c 0.99412,0 1.37297,0.0236 1.56235,0.097 0.13749,0.0534 2.6072,0.95128 5.48825,1.99531 5.67575,2.05677 8.58459,3.11148 16.06358,5.8244 2.67173,0.96914 4.96927,1.81927 5.10565,1.88918 0.33036,0.16935 0.7126,0.56123 0.87533,0.89739 0.29344,0.60615 0.51914,3.33594 0.60625,7.33219 0.0851,3.90502 0.0249,10.5492 -0.1093,12.03473 -1.07902,11.95691 -4.93765,21.35166 -11.46246,27.90798 -1.22693,1.23286 -2.21199,2.0938 -3.49755,3.05688 -4.11568,3.08326 -9.03835,5.14373 -13.78446,5.76969 -0.73696,0.0971 -0.89026,0.10368 -1.28978,0.0548 z m 1.15858,-4.50077 c 1.49979,-0.24322 3.37917,-0.78527 5.02508,-1.44933 4.71567,-1.9026 8.72213,-4.9984 11.85044,-9.15686 4.27787,-5.68658 6.87733,-13.33292 7.65652,-22.52167 0.38239,-4.50936 0.34776,-10.0999 -0.0921,-14.86363 -0.0498,-0.5405 -0.10105,-0.99171 -0.11365,-1.0027 -0.0219,-0.019 -1.11334,-0.41622 -8.94125,-3.25369 -1.87815,-0.68079 -5.41398,-1.96315 -7.8574,-2.84968 -7.76398,-2.81698 -8.14011,-2.95136 -8.26105,-2.95136 -0.0653,0 -1.58999,0.53471 -3.38834,1.18824 -1.79833,0.65353 -5.11967,1.85916 -7.38074,2.67916 -9.814748,3.55946 -11.742827,4.25888 -12.976468,4.70727 l -1.30642,0.47485 -0.03571,0.23278 c -0.04543,0.29584 -0.207982,2.42392 -0.316645,4.14489 -0.11216,1.77629 -0.110877,8.03382 0.0016,9.61452 0.410154,5.74563 1.184702,9.98978 2.596761,14.22907 1.624035,4.87569 3.878268,8.84986 6.992672,12.32798 3.82073,4.26695 9.21633,7.3414 14.7247,8.39023 0.97189,0.18505 1.03696,0.18719 1.82166,0.0599 z"
       id="path851" />
    <path
       id="IconGraphic"
       class="cls-1"
       d="m 120.66505,137.34416 c 2.12677,1.32304 3.57705,2.33674 4.35081,3.04109 0.86424,0.83996 1.53281,1.86003 1.9582,2.98766 0.57511,1.53727 0.84598,3.17167 0.79754,4.8123 0,3.07297 -0.71822,5.48465 -2.15463,7.23502 -1.43641,1.75039 -3.59124,2.83147 -6.46453,3.24325 v 3.24393 h -3.85417 v -3.35042 c -2.19584,-0.20833 -4.25937,-1.14338 -5.86375,-2.65701 -1.6715,-1.54326 -2.50723,-4.23564 -2.50723,-8.0772 v -1.68638 h 8.37098 v 2.11405 c 0,2.31905 0.0864,3.75951 0.25897,4.32142 0.15418,0.55053 0.68526,0.90767 1.25328,0.84284 0.49408,0.0343 0.9712,-0.1872 1.2641,-0.58658 0.31099,-0.52453 0.45552,-1.13105 0.4145,-1.73944 0,-1.93454 -0.13129,-3.31809 -0.39386,-4.15068 -0.2626,-0.8326 -1.16043,-1.73957 -2.69353,-2.72091 -1.80175,-1.11813 -3.54119,-2.33366 -5.21058,-3.64118 -1.01834,-0.90987 -1.83073,-2.02667 -2.38283,-3.27572 -0.6892,-1.49786 -1.0326,-3.1316 -1.00479,-4.78017 0,-2.57487 0.70785,-4.59515 2.12352,-6.06088 1.41568,-1.4657 3.53954,-2.36918 6.37155,-2.71041 v -2.75167 h 3.85417 v 2.75302 c 2.58276,0.34147 4.5166,1.23423 5.80155,2.67832 1.28497,1.44406 1.92732,3.43944 1.9271,5.98612 0,0.3559 -0.0276,0.89683 -0.0828,1.62281 h -8.37134 v -1.43077 c 0,-1.52206 -0.0967,-2.51795 -0.29007,-2.98766 -0.19339,-0.46971 -0.60778,-0.70445 -1.24315,-0.70423 -0.46585,-0.0236 -0.90717,0.20997 -1.14949,0.60855 -0.29176,0.56223 -0.42424,1.19356 -0.38304,1.82567 0,1.35233 0.26235,2.29897 0.78706,2.83991 0.51119,0.53914 2.01667,1.59092 4.51649,3.15535 z"
       style="fill:#ffffff;fill-rule:evenodd;stroke-width:0.338085" />
  </g>
</svg>
