<?xml version="1.0" encoding="UTF-8" standalone="no"?>
<svg
   xmlns:dc="http://purl.org/dc/elements/1.1/"
   xmlns:cc="http://creativecommons.org/ns#"
   xmlns:rdf="http://www.w3.org/1999/02/22-rdf-syntax-ns#"
   xmlns:svg="http://www.w3.org/2000/svg"
   xmlns="http://www.w3.org/2000/svg"
   width="40.2817mm"
   height="28.538481mm"
   viewBox="0 0 40.2817 28.538481"
   version="1.1"
   id="svg8">
  <defs
     id="defs2">
    <style
       id="style2">
      .cls-1 {
        fill-rule: evenodd;
      }
    </style>
    <style
       id="style2-5">
      .cls-1 {
        fill-rule: evenodd;
      }
    </style>
    <style
       id="style2-8">
      .cls-1 {
        fill-rule: evenodd;
      }
    </style>
    <style
       id="style2-7">
      .cls-1 {
        fill-rule: evenodd;
      }
    </style>
    <style
       id="style2-3">
      .cls-1 {
        fill-rule: evenodd;
      }
    </style>
    <style
       id="style2-6">
      .cls-1 {
        fill-rule: evenodd;
      }
    </style>
  </defs>
  <metadata
     id="metadata5">
    <rdf:RDF>
      <cc:Work
         rdf:about="">
        <dc:format>image/svg+xml</dc:format>
        <dc:type
           rdf:resource="http://purl.org/dc/dcmitype/StillImage" />
        <dc:title></dc:title>
      </cc:Work>
    </rdf:RDF>
  </metadata>
  <g
     id="layer1"
     transform="translate(-138.57849,-133.04697)">
    <path
       style="fill:#fefefe;stroke-width:0.0588649"
       d="m 162.41137,161.55772 c -0.22663,-0.0254 -0.66413,-0.0496 -0.97223,-0.0535 -1.13631,-0.0148 -3.47012,-0.75742 -4.90861,-1.56188 -0.31905,-0.17842 -0.38827,-0.24371 -0.38827,-0.36618 0,-0.13692 0.35462,-0.77032 2.76413,-4.93701 0.41189,-0.71227 1.03989,-1.79833 1.39558,-2.41347 0.4067,-0.70339 0.68604,-1.12603 0.75275,-1.13891 0.0583,-0.0113 0.30797,0.0742 0.55477,0.19002 0.76509,0.35892 1.27607,0.46846 2.18521,0.46846 0.90914,0 1.42133,-0.10972 2.15151,-0.46093 0.23615,-0.11359 0.4816,-0.20651 0.54547,-0.20651 0.0868,0 0.22018,0.18195 0.52854,0.7211 0.22683,0.3966 0.60421,1.05222 0.83861,1.45691 0.65269,1.12689 1.43282,2.47949 3.21189,5.5689 0.20702,0.35951 0.37641,0.70557 0.37641,0.76901 0,0.2781 -2.03536,1.18536 -3.67905,1.63992 -0.60762,0.16804 -0.94106,0.22329 -1.61879,0.26824 -1.20678,0.0801 -3.25053,0.11062 -3.73792,0.0559 z m 0.28877,-11.91558 c -0.72921,-0.23626 -1.39187,-0.77675 -1.76072,-1.4361 -0.69402,-1.24065 -0.51818,-2.88246 0.41691,-3.89246 0.39562,-0.42732 0.7742,-0.67581 1.33384,-0.87549 0.36734,-0.13107 0.52296,-0.15235 1.10453,-0.15109 0.57015,0.002 0.7429,0.0248 1.09501,0.14925 0.9937,0.35127 1.71883,1.10241 2.02696,2.09967 0.14453,0.46775 0.15708,1.41386 0.0254,1.91918 -0.27762,1.06586 -1.17162,1.95986 -2.23748,2.23748 -0.53851,0.14026 -1.4898,0.11632 -2.00452,-0.0504 z m -13.90994,-3.07658 c -0.0859,-0.097 -0.0869,-0.0517 0.0507,-2.34559 0.0536,-0.89411 0.19197,-1.5432 0.56464,-2.64892 0.75929,-2.25281 1.94127,-4.14047 3.66923,-5.85994 1.08324,-1.07789 2.45464,-2.11546 2.79838,-2.11716 0.0995,-5.1e-4 0.21779,-0.0244 0.26295,-0.0529 0.21551,-0.13647 0.41225,0.11735 1.3421,1.73145 1.76774,3.06857 2.27889,3.95479 2.99954,5.20047 0.3998,0.69108 0.72692,1.31575 0.72692,1.38813 0,0.0945 -0.0871,0.18709 -0.30904,0.32851 -0.4688,0.29867 -1.21864,1.08636 -1.55589,1.63441 -0.40388,0.65632 -0.72226,1.6171 -0.76755,2.31618 l -0.0339,0.52267 -4.83293,-0.002 c -4.325,-0.002 -4.84157,-0.012 -4.91516,-0.0951 z m 20.22495,-0.3589 c -0.12084,-1.53274 -0.91556,-2.95988 -2.15851,-3.87621 -0.37266,-0.27473 -0.47124,-0.37848 -0.47152,-0.49622 -1.7e-4,-0.0819 0.20733,-0.50571 0.46117,-0.94184 0.25385,-0.43614 0.95824,-1.65386 1.56532,-2.70608 2.54625,-4.4133 2.65206,-4.58987 2.75102,-4.59067 0.0539,-4.3e-4 0.11024,-0.0339 0.12509,-0.0744 0.0215,-0.0589 0.0425,-0.0589 0.10497,0 0.0428,0.0404 0.16438,0.0736 0.26997,0.0736 0.21977,0 0.83925,0.39707 1.69759,1.08809 0.80914,0.65141 1.27763,1.10265 1.9203,1.8496 1.9481,2.26418 3.32738,5.32231 3.46717,7.68744 0.0268,0.45325 0.068,1.14653 0.0914,1.5406 0.0365,0.61257 0.0291,0.72998 -0.0502,0.80941 -0.0831,0.0831 -0.60118,0.0929 -4.9153,0.0929 h -4.82239 z"
       id="path80" />
    <g
       id="g97"
       transform="matrix(0.15819212,0,0,0.2577046,123.43797,105.92168)">
      <path
         style="fill:#fefefe;stroke-width:0.0684644"
         d="m 122.4031,158.94612 c -0.0233,-0.0377 -0.10985,-0.0685 -0.19239,-0.0685 -0.21362,0 -26.406034,-26.19255 -26.406034,-26.40617 0,-0.0825 -0.03104,-0.16912 -0.06899,-0.19257 -0.04312,-0.0267 -0.03213,-0.0795 0.02935,-0.14097 0.08427,-0.0843 1.171152,-0.0983 7.600074,-0.0983 h 7.50175 v -13.28699 c 0,-11.4241 0.0137,-13.30069 0.0978,-13.38479 0.14738,-0.14737 22.93491,-0.14737 23.08228,0 0.0841,0.0841 0.0978,1.96069 0.0978,13.38479 v 13.28699 h 7.46751 c 6.68289,0 7.47876,0.0112 7.5746,0.10709 0.0799,0.0799 0.0874,0.12683 0.0294,0.18486 -0.0428,0.0428 -0.0778,0.14094 -0.0778,0.21817 0,0.20481 -26.13283,26.32792 -26.3377,26.32792 -0.0825,0 -0.16898,0.0308 -0.19225,0.0685 -0.0233,0.0377 -0.0695,0.0685 -0.1027,0.0685 -0.0332,0 -0.0794,-0.0308 -0.1027,-0.0685 z"
         id="path109" />
    </g>
    <g
       id="layer1-0"
       transform="matrix(0.15109518,0,0,0.15109518,99.00287,148.47594)">
      <path
         style="fill:#ffffff;fill-rule:evenodd;stroke-width:0.619161"
         d="m 297.07082,30.822018 c 4.83564,2.942675 8.13311,5.197439 9.89242,6.764311 1.95769,1.858396 3.47819,4.128421 4.45163,6.646065 1.20861,2.864255 1.81312,6.432255 1.81359,10.704025 0,6.83634 -1.63316,12.20053 -4.89953,16.09257 -3.26617,3.89202 -8.16517,6.29727 -14.69693,7.21569 v 7.21568 h -8.76168 v -7.45282 c -4.97176,-0.45439 -9.65607,-2.53125 -13.33103,-5.91049 -3.80053,-3.43305 -5.70055,-9.42217 -5.70008,-17.96739 v -3.75023 h 19.03111 v 4.69939 c 0,5.15967 0.19633,8.36403 0.58877,9.61307 0.39251,1.24905 1.3419,1.87401 2.84817,1.87482 1.117,0.0793 2.19827,-0.41184 2.87344,-1.30518 0.62792,-0.87014 0.94191,-2.15982 0.94191,-3.86913 0,-4.30314 -0.2983,-7.3808 -0.89487,-9.2329 -0.59643,-1.8521 -2.63772,-3.86952 -6.12389,-6.05227 -5.81024,-3.671209 -9.75927,-6.369089 -11.84714,-8.093658 -2.30672,-2.013093 -4.15423,-4.498076 -5.41762,-7.286888 -1.56499,-3.32302 -2.3466,-6.960859 -2.28467,-10.633459 0,-5.727628 1.60983,-10.2215039 4.82956,-13.4815619 3.21955,-3.260071 8.04792,-5.269668 14.48516,-6.02876497 V -5.5405769 h 8.76168 v 6.12347403 c 5.87215,0.75950097 10.26819,2.74535897 13.18804,5.95755997 2.92002,3.212202 4.38018,7.6507589 4.38048,13.3156479 0,0.791262 -0.0616,1.993879 -0.18487,3.607826 h -19.03063 v -3.18061 c 0,-3.384755 -0.21974,-5.600088 -0.65923,-6.646078 -0.43963,-1.045964 -1.38184,-1.568111 -2.82662,-1.566455 -1.05233,-0.05713 -2.05291,0.460738 -2.61393,1.352853 -0.5816,0.901924 -0.87223,2.254804 -0.87195,4.058586 0,3.007039 0.59668,5.112206 1.78997,6.315424 1.16165,1.202434 4.58479,3.543873 10.26943,7.024367 z"
         class="cls-1"
         id="IconGraphic" />
    </g>
  </g>
</svg>
