<?xml version="1.0" encoding="UTF-8" standalone="no"?>
<svg
   xmlns:dc="http://purl.org/dc/elements/1.1/"
   xmlns:cc="http://creativecommons.org/ns#"
   xmlns:rdf="http://www.w3.org/1999/02/22-rdf-syntax-ns#"
   xmlns:svg="http://www.w3.org/2000/svg"
   xmlns="http://www.w3.org/2000/svg"
   width="20.997335mm"
   height="36.463467mm"
   viewBox="0 0 20.997335 36.463467"
   version="1.1"
   id="svg967">
  <defs
     id="defs961">
    <style
       id="style2">
      .cls-1 {
        fill-rule: evenodd;
      }
    </style>
  </defs>
  <metadata
     id="metadata964">
    <rdf:RDF>
      <cc:Work
         rdf:about="">
        <dc:format>image/svg+xml</dc:format>
        <dc:type
           rdf:resource="http://purl.org/dc/dcmitype/StillImage" />
        <dc:title></dc:title>
      </cc:Work>
    </rdf:RDF>
  </metadata>
  <g
     id="layer1"
     transform="translate(-80.672965,-100.84248)">
    <g
       id="g983" />
    <path
       id="IconGraphic"
       class="cls-1"
       d="m 88.830297,108.47619 c -2.46203,0 -3.694574,-2.9765 -1.953866,-4.71719 1.740705,-1.74073 4.717186,-0.50817 4.717186,1.95387 0,1.52614 -1.237179,2.76332 -2.76332,2.76332 z"
       style="fill:#ffffff;fill-rule:evenodd;stroke-width:0.117588" />
    <g
       id="g1023">
      <path
         style="fill:#fefefe;stroke-width:0.0846667"
         d="m 85.329609,136.24989 c -0.05583,-0.0345 -0.08467,-4.31801 -0.08467,-12.57539 v -12.52306 l -4.397604,-8.34437 c -0.117802,-0.25025 -0.156652,-0.34407 -0.16657,-0.59151 -0.005,-0.0892 -0.0078,-0.19264 -0.0078,-0.30984 0.01316,-0.87784 0.517529,-1.03892 1.178479,-1.05126 0.299116,0.0209 0.535242,0.0815 0.751649,0.19313 0.260186,0.17256 0.38059,0.28657 0.54368,0.54752 l 4.214855,8.02278 c 0.122777,0.11975 0.221074,0.089 1.481667,0.089 1.260593,0 1.408585,-0.0277 1.481667,-0.127 l 4.276577,-8.17005 c 0.327579,-0.47086 0.712501,-0.55821 1.208289,-0.56736 0.42393,0.005 0.703884,0.0912 0.918535,0.35667 0.0846,0.12494 0.243737,0.39457 0.237878,0.52696 -0.05652,1.27722 -0.972575,2.5549 -1.574675,3.68674 -0.02903,0.05 1.324669,0.0587 3.082561,0.0594 l 3.196173,10e-4 v 0.97366 0.97367 h -2.797944 -2.797938 l -0.70342,-1.97703 -0.366672,0.77196 -2.654094,5.01507 c -0.02423,0.0442 -0.07794,0.60486 -0.07794,1.40305 0,1.53635 0.0546,1.56721 0.46216,1.74577 l 0.988528,0.36427 c 0.376444,0.14305 0.410038,0.12025 0.818056,-0.002 l 2.641925,-1.5582 c 0.51474,-0.28233 0.590684,-0.31392 1.227667,-0.51313 0.763575,-0.13396 1.047263,-0.14304 1.820342,-0.009 0.61295,0.18524 0.99455,0.53501 1.22766,0.98086 0.16478,0.31881 0.16934,0.49328 0.16934,6.48025 v 5.86883 c -0.009,0.24126 -0.0196,0.25196 -0.11571,0.39616 -0.16834,0.2445 -0.19089,0.25867 -0.57733,0.4736 -0.0815,0.0265 -0.18852,0.0461 -0.35756,0.075 -0.37303,0.0699 -0.38817,0.0955 -0.5617,0.38009 l -0.546709,0.89098 c -0.46969,0.72954 -0.859601,1.35846 -1.279175,1.98966 -0.142479,0.22509 -0.139942,0.22926 0.136179,0.55775 1.731435,2.03542 1.837975,2.13747 2.667035,3.67559 0.0267,0.12196 0.0847,0.28222 0.0847,0.67733 -0.0297,0.3937 -0.0778,0.63194 -0.20593,0.89622 -0.54511,0.7318 -0.985662,0.87061 -1.997862,0.83909 -0.348163,-0.0479 -0.502496,-0.12987 -0.846667,-0.44977 l -3.807559,-4.90957 c -0.56591,-0.84253 -0.59583,-0.95366 0.02117,-1.99734 l 2.774398,-4.27646 c 0.166078,-0.32657 0.225628,-0.41007 0.153902,-1.44754 -0.02433,-0.352 -0.04182,-1.62132 -0.11248,-2.32294 l -0.169985,-1.68793 -0.296334,0.45852 c -0.180996,0.28006 -0.42879,0.46768 -0.545207,0.52941 -0.610074,0.19896 -1.318066,0.15177 -1.737946,-0.0296 l -1.950184,-0.8422 c -0.05584,0 -0.08467,2.70539 -0.08467,7.94685 0,4.37077 -0.02456,8.12602 -0.05457,8.345 -0.236835,0.73178 -0.546496,0.95639 -1.22169,1.10216 -0.282197,0.0609 -0.571875,0.0437 -0.875978,-0.0264 -0.464251,-0.10338 -0.751686,-0.22327 -0.980429,-0.77293 -0.05569,0 -0.08467,-2.15699 -0.08467,-6.30162 0,-5.70462 -0.01304,-6.31466 -0.137617,-6.43924 -0.127045,-0.12704 -0.14969,-0.12466 -0.294763,0.0311 -0.149769,0.16076 -0.158213,0.468 -0.179883,6.5451 l -0.02133,5.97978 c -0.02337,0.42223 -0.08842,0.51442 -0.313165,0.71829 -0.385555,0.27063 -0.902337,0.31381 -1.270225,0.31034 -0.796361,0.009 -1.369924,-0.36455 -1.508422,-1.05533 z m 6.773337,-17.85373 v -1.0942 l -1.500614,-0.42926 c -0.263093,-0.037 -0.435937,-0.0901 -0.677336,-0.0117 -0.177347,0.0576 -0.311205,0.19646 -0.381226,0.34768 -0.07359,0.15892 -0.148984,0.29146 -0.171114,0.5387 -0.03386,0.37833 0.06937,0.43234 0.272212,0.66443 0.911019,0.59521 1.069913,0.6782 2.406271,1.22964 0.03493,0.007 0.05181,-0.66913 0.05181,-1.24521 z m 2.987865,-0.89991 c 0.03866,-0.14786 -0.03022,-0.21276 -0.108111,-0.13963 -0.01437,0.0135 -0.09795,0.0608 -0.196383,0.0963 -0.05798,0.0209 -0.112426,0.026 -0.301132,0.0217 -0.280918,-0.006 -0.603023,-0.0264 -0.688906,-0.053 -0.549261,-0.17822 -0.841073,-0.30282 -1.45901,-0.54655 -0.03735,-0.0146 -0.06298,0.0209 -0.06369,0.16749 0.03394,0.29562 0.03496,0.29946 0.371533,0.39883 l 1.822304,0.58986 c 0.09845,0.0317 0.115781,0.0519 0.196659,0.0467 0.238832,-0.16322 0.303959,-0.37544 0.426736,-0.58162 z m 2.987894,-5.91573 c -0.540037,-0.11846 -1.185876,-0.55668 -1.520839,-1.27596 -0.07705,-0.16025 -0.163302,-0.43647 -0.191663,-0.61383 l -0.05157,-0.32248 h -0.497179 -0.497179 v -0.26661 c 0,-0.18771 0.08144,-0.34834 0.275167,-0.54275 0.301787,-0.30285 0.5715,-0.63825 0.5715,-0.71069 0,-0.0255 1.21926,-0.0463 2.709468,-0.0463 h 2.70947 l 0.0518,0.27597 c 0.0878,0.46784 -0.0396,2.02285 -0.11823,2.11676 -0.10151,0.18592 -0.32405,0.50773 -0.35119,0.53915 -0.45475,0.49054 -0.55925,0.59042 -1.15475,0.84517 -0.58636,0.10642 -1.281754,0.0903 -1.934805,0.002 z"
         id="path1037" />
    </g>
  </g>
</svg>
