<?xml version="1.0" encoding="UTF-8" standalone="no"?>
<svg
   xmlns:dc="http://purl.org/dc/elements/1.1/"
   xmlns:cc="http://creativecommons.org/ns#"
   xmlns:rdf="http://www.w3.org/1999/02/22-rdf-syntax-ns#"
   xmlns:svg="http://www.w3.org/2000/svg"
   xmlns="http://www.w3.org/2000/svg"
   width="61.363705mm"
   height="61.407047mm"
   viewBox="0 0 61.363705 61.407047"
   version="1.1"
   id="svg8">
  <defs
     id="defs2" />
  <metadata
     id="metadata5">
    <rdf:RDF>
      <cc:Work
         rdf:about="">
        <dc:format>image/svg+xml</dc:format>
        <dc:type
           rdf:resource="http://purl.org/dc/dcmitype/StillImage" />
        <dc:title></dc:title>
      </cc:Work>
    </rdf:RDF>
  </metadata>
  <g
     id="layer1"
     transform="translate(-128.391,-76.201474)">
    <path
       style="fill:#fefefe;stroke-width:0.128184"
       d="m 155.86909,137.536 c -0.38776,-0.0575 -1.16647,-0.11037 -1.73048,-0.11748 -1.23457,-0.0154 -2.45314,-0.25646 -4.42233,-0.87486 -4.1665,-1.30841 -7.54022,-3.19421 -11.10766,-6.20875 -1.63616,-1.38258 -2.7735,-2.65622 -5.01781,-5.61914 -0.41576,-0.54886 -1.76305,-2.83821 -2.26311,-3.84551 -1.08831,-2.19222 -2.19364,-5.39697 -2.56425,-7.43465 -0.34817,-1.91438 -0.47646,-6.51583 -0.28055,-10.06241 0.12732,-2.30595 0.34587,-3.603662 0.93256,-5.538998 3.03358,-10.006799 10.70449,-17.697244 20.60905,-20.661495 2.63667,-0.789117 4.33357,-0.971233 9.04916,-0.971233 4.7232,0 6.41142,0.181753 9.0643,0.975835 4.38269,1.311879 8.0857,3.384835 11.71598,6.558655 2.5419,2.22228 5.33776,5.911031 6.96571,9.190265 1.08831,2.192227 2.19364,5.396958 2.56423,7.434651 0.50114,2.7554 0.49259,10.31363 -0.0151,13.05687 -1.05585,5.70895 -4.5801,12.06968 -8.92489,16.108 -3.53963,3.28993 -7.80915,5.74918 -12.3214,7.09709 -0.92323,0.27579 -1.88049,0.54222 -2.12725,0.59206 -1.40027,0.28284 -8.80307,0.51755 -10.1265,0.32107 z m 5.06325,-6.54487 c 3.14944,-0.29851 6.15522,-1.15671 8.81331,-2.51636 1.35809,-0.69467 3.22334,-1.86669 4.00003,-2.51337 l 0.37952,-0.316 -13.8388,-13.75789 C 138.14122,89.871821 140.26661,91.934936 140.03185,92.226437 c -0.66273,0.822894 -2.08958,3.135709 -2.64601,4.288968 -3.99076,8.271155 -2.94009,17.834735 2.7729,25.240095 0.74283,0.96289 2.95983,3.18351 4.03392,4.0405 2.87582,2.29458 6.5393,4.02143 10.078,4.75046 2.62176,0.54012 4.40129,0.65889 6.66168,0.44467 z m 17.20156,-9.44787 c 0.0998,-0.12339 0.5852,-0.82594 1.07874,-1.56123 1.66653,-2.48281 2.87202,-5.42765 3.52926,-8.6214 0.31895,-1.54991 0.35115,-1.95915 0.35115,-4.46235 0,-2.5032 -0.0323,-2.91245 -0.35115,-4.46235 -1.29396,-6.287816 -4.73814,-11.566473 -10.00871,-15.339628 -1.36676,-0.978439 -4.52444,-2.581229 -6.16078,-3.127109 -2.85591,-0.952717 -6.44483,-1.410696 -9.16511,-1.169549 -4.66676,0.413694 -8.88949,1.987204 -12.48384,4.651808 l -0.88492,0.656007 16.90702,16.824021 c 9.29886,9.25322 16.9295,16.82673 16.95698,16.83006 0.0274,0.003 0.13156,-0.0949 0.23136,-0.21828 z"
       id="path233" />
    <path
       style="fill:#fefefe;stroke-width:0.0776387"
       d="m 161.71211,103.19932 c 3.29873,-4.824617 6.91126,-9.674335 10.22767,-14.607856 0.24319,-0.382164 0.53032,-0.455136 0.5282,-0.134235 -7.3e-4,0.10617 -1.15085,4.11157 -2.55589,8.900895 l -2.55463,8.707866 5.75272,0.0219 5.75272,0.022 -0.001,0.19252 c -8.5e-4,0.12362 -2.70528,4.11568 -5.84431,8.68617 -11.30548,-11.78926 0,0 -11.30548,-11.78926 z"
       id="path484" />
    <path
       style="fill:#fefefe;stroke-width:0.0187668"
       d="m 144.54144,118.46415 c -1.13231,-0.0632 -2.22584,-0.37071 -3.18099,-0.89447 -0.43847,-0.24044 -0.93683,-0.58765 -1.32305,-0.92177 -0.33479,-0.28962 -0.82389,-0.81782 -1.08663,-1.17348 -0.76039,-1.0293 -1.25667,-2.2774 -1.39948,-3.51961 -0.0755,-0.65731 -0.0755,-1.20414 7e-5,-1.85022 0.19306,-1.64921 0.97171,-3.22149 2.17754,-4.39696 0.87848,-0.85636 1.90522,-1.45885 3.08598,-1.81087 1.28097,-0.38189 2.7191,-0.40362 4.0255,-0.0608 1.93336,0.50732 3.55817,1.75398 4.55908,3.49803 0.40872,0.71221 0.68547,1.46044 0.84428,2.28268 0.20783,1.07606 0.16828,2.25921 -0.11105,3.32173 -0.41144,1.56509 -1.2947,2.91461 -2.58051,3.94272 -0.63714,0.50944 -1.42949,0.93867 -2.2271,1.20644 -0.6518,0.21883 -1.28033,0.3351 -2.04235,0.37784 -0.34815,0.0195 -0.36983,0.0195 -0.74129,-9.1e-4 z m 1.00862,-0.88983 c 0.58529,-0.0563 1.20028,-0.20289 1.74754,-0.41656 1.25251,-0.48901 2.33147,-1.35566 3.09182,-2.48343 1.14232,-1.69434 1.42609,-3.79732 0.77327,-5.73055 -0.53448,-1.58278 -1.70846,-2.95263 -3.1963,-3.72963 -1.57622,-0.82315 -3.36266,-0.97815 -5.02951,-0.43641 -1.06435,0.34592 -2.04611,0.97526 -2.80923,1.80081 -1.64531,1.77992 -2.18186,4.2435 -1.42092,6.52427 0.48257,1.44641 1.49835,2.71698 2.8253,3.53395 0.68969,0.42463 1.414,0.70187 2.24935,0.86097 0.53029,0.101 1.20923,0.1304 1.76868,0.0765 z m 3.32652,-3.86528 c -0.26928,-0.11031 -0.92401,-0.37642 -1.38875,-0.56443 -0.21159,-0.0856 -0.49872,-0.20193 -0.63807,-0.25849 -0.13935,-0.0566 -0.38425,-0.15502 -0.54423,-0.21875 -0.16,-0.0637 -0.32889,-0.13203 -0.37534,-0.15176 -0.14711,-0.0625 -0.51998,-0.21426 -0.99138,-0.40356 -0.25107,-0.10083 -0.48331,-0.20139 -0.51608,-0.22346 -0.0328,-0.022 -0.0807,-0.0778 -0.10649,-0.12385 l -0.0469,-0.0838 -0.005,-2.77458 c -0.004,-1.90228 9e-4,-2.7977 0.0149,-2.84811 0.0254,-0.0943 0.11918,-0.2009 0.21511,-0.24448 0.10046,-0.0457 0.29395,-0.0457 0.39442,0 0.0946,0.043 0.18892,0.14905 0.21453,0.2413 0.0133,0.0478 0.0198,0.9009 0.0198,2.62586 7e-5,2.02652 0.005,2.55686 0.0236,2.56411 0.0129,0.005 0.24725,0.0998 0.52078,0.21052 0.27353,0.11076 0.71267,0.28831 0.97588,0.39456 0.2632,0.10624 0.58411,0.2367 0.71313,0.28989 0.12903,0.0532 0.42038,0.17143 0.64746,0.26275 0.22709,0.0913 0.48888,0.19726 0.58177,0.23545 0.0929,0.0382 0.33211,0.13526 0.53158,0.21568 0.19948,0.0804 0.38309,0.1654 0.40802,0.18882 0.15368,0.14438 0.16496,0.47978 0.0213,0.63378 -0.0786,0.0843 -0.1687,0.11583 -0.32678,0.11446 -0.1276,-9e-4 -0.17125,-0.0115 -0.34324,-0.082 z"
       id="path78" />
    <path
       style="fill:#fefefe;stroke-width:0.0776388"
       d="m 161.96533,115.41729 h -3.0552 -5.48754 l 0.0207,-0.23133 c 0.009,-0.10094 0.99809,-1.56647 3.25764,-4.81702 5.2644,5.04835 0,0 5.2644,5.04835 z"
       id="path484-4" />
    <path
       style="fill:#fefefe;stroke-width:0.0776388"
       d="m 163.33552,128.3343 c 0,-0.19845 0.59404,-7.52769 0.87888,-10.90467 4.00445,4.50614 0,0 4.00445,4.50614 -2.57975,3.71193 -4.63265,6.62166 -4.71426,6.63479 -0.14629,0.0236 -0.1687,-0.008 -0.1687,-0.23627 z"
       id="path484-9" />
  </g>
</svg>
