<?xml version="1.0" encoding="UTF-8" standalone="no"?>
<svg
   xmlns:dc="http://purl.org/dc/elements/1.1/"
   xmlns:cc="http://creativecommons.org/ns#"
   xmlns:rdf="http://www.w3.org/1999/02/22-rdf-syntax-ns#"
   xmlns:svg="http://www.w3.org/2000/svg"
   xmlns="http://www.w3.org/2000/svg"
   width="46.432724mm"
   height="39.282944mm"
   viewBox="0 0 46.432724 39.282944"
   version="1.1"
   id="svg8">
  <defs
     id="defs2">
    <style
       id="style2">
      .cls-1 {
        fill-rule: evenodd;
      }
    </style>
  </defs>
  <metadata
     id="metadata5">
    <rdf:RDF>
      <cc:Work
         rdf:about="">
        <dc:format>image/svg+xml</dc:format>
        <dc:type
           rdf:resource="http://purl.org/dc/dcmitype/StillImage" />
        <dc:title></dc:title>
      </cc:Work>
    </rdf:RDF>
  </metadata>
  <g
     id="layer1"
     transform="translate(-80.207951,-79.480636)">
    <g
       id="g861"
       transform="matrix(-0.46108996,-0.47271575,-0.47271575,0.46108996,176.56612,96.397687)">
      <path
         style="fill:#fefefe;stroke-width:0.0846667"
         d="m 78.582763,110.76882 c -1.071033,-0.0839 -2.052108,-0.15513 -2.180167,-0.15825 -0.207038,-0.005 -0.232833,-0.0374 -0.232833,-0.29232 0,-0.33526 0.0466,-0.46651 1.892884,-5.33104 0.775014,-2.04199 1.409116,-3.75261 1.409116,-3.80139 0,-0.0488 -0.3048,-0.89422 -0.677333,-1.878774 -0.372534,-0.984551 -0.67632,-1.902829 -0.67508,-2.040617 0.0019,-0.206692 0.115682,-0.346808 0.650563,-0.800856 0.356572,-0.302684 0.879432,-0.760055 1.161913,-1.01638 0.454972,-0.412844 2.367621,-2.07951 4.196603,-3.656883 l 0.635,-0.547646 -0.04233,-0.585712 c -0.07291,-1.008807 -0.02905,-1.923262 0.107864,-2.248557 0.116261,-0.276236 0.202955,-0.336183 0.836421,-0.578374 0.388694,-0.148609 0.833947,-0.344029 0.989454,-0.434268 0.155505,-0.09024 0.562162,-0.238951 0.903681,-0.330472 0.341518,-0.09152 0.823886,-0.246659 1.071928,-0.344752 2.6866,-1.062477 6.73853,-2.533623 6.978274,-2.533623 0.163233,0 0.400869,0.05382 0.528081,0.119607 0.517491,0.267605 1.584707,1.664193 2.17306,2.843726 0.127751,0.256117 0.243277,0.478077 0.256724,0.493246 0.01345,0.01517 1.351888,-0.474121 2.974314,-1.087309 3.87139,-1.463174 4.0421,-1.522685 4.36644,-1.522131 0.50229,8.56e-4 0.94534,0.17842 1.25493,0.502948 l 0.30084,0.315355 1.6465,-0.620373 c 0.90557,-0.341205 1.72741,-0.62068 1.82631,-0.621054 0.15365,-5.85e-4 0.24318,0.168754 0.61511,1.163485 0.23941,0.640291 0.43471,1.265984 0.43401,1.390427 -0.001,0.246208 0.0538,0.220283 -2.54128,1.193344 l -0.97366,0.365088 -0.0477,0.550668 c -0.0262,0.302869 -0.0739,0.593094 -0.10596,0.644947 -0.032,0.05185 0.0226,0.305534 0.12138,0.563737 0.24802,0.648112 0.17481,1.037061 -0.22677,1.204852 -0.16021,0.06694 -0.29129,0.140512 -0.29129,0.163493 0,0.02298 0.48219,0.813046 1.07153,1.755697 0.93102,1.489164 1.07657,1.770385 1.11,2.144565 0.0416,0.466211 -0.11762,0.898329 -0.38324,1.03975 -0.081,0.04313 -0.60869,0.25381 -1.17262,0.468176 -1.55492,0.591066 -2.19493,0.538516 -2.47128,-0.202911 -0.0434,-0.116416 -0.2241,-1.110312 -0.40157,-2.208655 l -0.32267,-1.996989 -0.51424,0.0073 -0.51424,0.0073 -0.18718,-0.37103 c -0.10294,-0.204066 -0.19819,-0.403524 -0.21166,-0.44324 -0.0226,-0.0667 -3.17414,1.066036 -3.29618,1.184735 -0.0299,0.02908 -0.003,0.357668 0.059,0.730201 0.15709,0.938555 0.15614,2.422219 -0.002,2.800216 -0.14855,0.355531 -0.1352,0.349163 -2.898905,1.382297 -1.127159,0.421357 -2.403509,0.905216 -2.836333,1.075242 -2.683216,1.054044 -4.794655,1.811904 -5.048054,1.811904 -0.382266,0 -0.967383,-0.29667 -1.143641,-0.57985 -0.07685,-0.12347 -0.230065,-0.33292 -0.34049,-0.465452 l -0.200773,-0.240973 -1.20984,0.558475 c -0.665411,0.30716 -1.302965,0.55847 -1.416784,0.55847 -0.11382,0 -0.549883,-0.21213 -0.969029,-0.47141 -0.419146,-0.25927 -0.773212,-0.459292 -0.786812,-0.444494 -0.0136,0.0148 0.239459,0.579044 0.562354,1.253884 0.34341,0.71771 0.576782,1.31175 0.562267,1.43122 -0.02174,0.1789 -0.164144,0.25656 -1.147924,0.62603 -0.89545,0.3363 -1.130608,0.45808 -1.160098,0.60078 -0.02034,0.0984 -0.191689,1.58869 -0.380768,3.31166 -0.189079,1.72296 -0.365709,3.27554 -0.392511,3.45016 l -0.04873,0.3175 -0.648724,-0.0111 c -0.356798,-0.006 -1.525025,-0.0798 -2.596058,-0.16367 z m 16.383766,-15.545694 2.413766,-0.901721 -0.318477,-0.661376 -0.318477,-0.661375 -0.655956,0.243157 c -0.360776,0.133737 -1.627506,0.610798 -2.814956,1.060136 -1.18745,0.449338 -2.41049,0.911583 -2.717867,1.02721 l -0.558867,0.210232 0.16188,0.611258 c 0.08904,0.336192 0.176477,0.656468 0.194317,0.711722 0.0218,0.06752 0.387928,-0.03692 1.116653,-0.318529 0.596319,-0.230446 2.170412,-0.824767 3.497984,-1.320714 z m 0.33289,-6.312366 c -0.08325,-0.323648 -0.165456,-0.602542 -0.182679,-0.619765 -0.01722,-0.01722 -1.589843,0.557711 -3.494712,1.277632 -1.904868,0.71992 -3.475321,1.308946 -3.489896,1.308946 -0.01457,0 0.106014,0.263133 0.267973,0.584741 l 0.294471,0.584741 3.378103,-1.273922 3.378103,-1.273923 z"
         id="path875" />
    </g>
    <g
       id="g879"
       transform="matrix(0.32986374,-0.73241269,0.73241269,0.32986374,-49.624071,110.20592)">
      <path
         style="fill:#fefefe;stroke-width:0.0846667"
         d="m 98.794931,194.88619 c -0.06837,-0.11062 -0.429507,-1.31752 -0.646534,-2.16066 -0.231518,-0.89945 -0.582163,-2.87291 -0.582163,-3.27647 v -0.32187 h -1.761128 -1.76113 l -0.170764,0.35984 c -0.131956,0.27806 -0.152109,0.41049 -0.08868,0.58276 0.104451,0.28366 0.02387,0.49674 -0.187863,0.49674 -0.183251,0 -0.546724,0.42369 -0.978277,1.14035 -0.239574,0.39786 -0.277331,0.52833 -0.23792,0.82216 0.03716,0.27708 0.01459,0.37284 -0.109214,0.46337 -0.241212,0.17638 -0.566628,0.13643 -2.028694,-0.24906 -1.15942,-0.30569 -1.358246,-0.38213 -1.379502,-0.53038 -0.01579,-0.11016 0.48071,-0.92688 1.363779,-2.24333 0.763737,-1.13856 1.453354,-2.19624 1.532482,-2.35038 0.136251,-0.26544 0.135769,-0.2941 -0.0091,-0.54149 -0.222213,-0.37942 -0.545615,-0.58781 -0.989974,-0.6379 l -0.390673,-0.044 v -0.49699 c 0,-0.47368 -0.0099,-0.49699 -0.211666,-0.49699 -0.178238,0 -0.211667,0.0397 -0.211667,0.25131 v 0.25132 l -0.994833,0.0238 -0.994834,0.0239 -0.02179,0.508 c -0.03793,0.88405 -0.03331,0.87747 -0.634977,0.90615 -0.506481,0.0241 -0.529682,0.0349 -0.555354,0.25802 -0.02556,0.22215 -0.04791,0.23283 -0.486833,0.23283 -0.437488,0 -0.460043,-0.0106 -0.460043,-0.21737 0,-0.35202 -0.215642,-0.25059 -1.489204,0.70048 -0.428594,0.32007 -0.676724,0.44823 -0.867833,0.44823 -0.262435,0 -0.267685,-0.008 -0.270469,-0.40217 l -0.0028,-0.40217 -0.241626,0.29634 c -0.132894,0.16298 -0.472375,0.60798 -0.754402,0.98889 l -0.512777,0.69255 0.291575,0.38187 c 0.166034,0.21745 0.291575,0.48028 0.291575,0.61045 0,0.22716 -0.003,0.22828 -0.477728,0.17929 -0.26275,-0.0271 -0.514895,-0.0865 -0.560322,-0.1319 -0.04543,-0.0454 -0.206607,-0.0625 -0.358176,-0.0379 -0.180962,0.0294 -0.301078,0.005 -0.349844,-0.0704 -0.179741,-0.27874 -0.458612,-2.37287 -0.579078,-4.3485 -0.07099,-1.16417 -0.150549,-2.40242 -0.176805,-2.75167 -0.067,-0.89124 -0.06139,-0.89583 0.949276,-0.77555 0.584576,0.0696 2.172348,0.0864 5.323878,0.0563 2.469977,-0.0235 4.594052,-0.0428 4.720167,-0.0428 0.126743,0 0.22951,-0.0473 0.229771,-0.10583 2.54e-4,-0.0582 0.03954,-0.24648 0.08728,-0.41838 0.07767,-0.27965 0.119449,-0.31529 0.397001,-0.33866 0.29347,-0.0247 0.321019,-0.0535 0.510987,-0.53413 0.110435,-0.2794 0.264948,-0.55725 0.34336,-0.61746 0.07841,-0.0602 0.180669,-0.30785 0.227235,-0.55033 l 0.08467,-0.44087 1.947334,0.004 c 1.071033,0.002 2.328333,0.0476 2.794,0.10129 0.465666,0.0537 1.684866,0.18078 2.709336,0.28245 1.49702,0.14856 1.89394,0.21442 2.02198,0.33554 0.11896,0.11252 0.17628,0.33683 0.2263,0.8856 0.0368,0.4042 0.0795,0.7449 0.0947,0.75712 0.0152,0.0122 0.22188,0.0593 0.4592,0.10467 0.42602,0.0814 0.43266,0.0794 0.52182,-0.15678 l 0.0903,-0.23925 h 4.4453 4.4453 l 0.0761,0.22829 c 0.0752,0.22551 0.0817,0.22061 0.54053,-0.40217 0.25544,-0.34675 0.6149,-0.84811 0.7988,-1.11413 0.35563,-0.51446 0.717,-0.71977 1.0984,-0.62404 0.35589,0.0893 0.41523,0.33294 0.44894,1.84327 l 0.0315,1.41289 0.90174,0.0308 c 0.49595,0.0169 2.45993,-0.006 4.36439,-0.0505 3.35901,-0.0788 3.46629,-0.0764 3.58383,0.0803 0.14017,0.18691 0.11277,1.07952 -0.0378,1.23005 -0.0659,0.0659 -0.9844,0.0716 -3.21184,0.0199 -1.71575,-0.0398 -3.56507,-0.0606 -4.10958,-0.0462 l -0.99002,0.0262 -0.026,0.31245 c -0.0213,0.25678 -0.0624,0.3176 -0.23021,0.34131 -0.11233,0.0159 -0.25999,0.0846 -0.32812,0.15274 -0.0706,0.0706 -0.23774,0.11281 -0.38843,0.0982 -0.23476,-0.0229 -0.26761,-0.0591 -0.29175,-0.32208 -0.0256,-0.27838 -0.18447,-0.58472 -0.18447,-0.3556 0,0.0559 -0.0857,0.10184 -0.1905,0.10212 -0.10477,2.9e-4 -0.3048,0.0639 -0.4445,0.14124 -0.1397,0.0774 -0.44321,0.16288 -0.67446,0.18998 -0.35884,0.042 -0.4395,0.0865 -0.55033,0.30326 -0.0714,0.1397 -0.13212,0.2626 -0.13486,0.2731 -0.003,0.0105 -1.41244,0.057 -3.13267,0.10342 -1.72022,0.0464 -3.74174,0.10829 -4.49226,0.13759 l -1.36458,0.0533 -0.0896,-0.25705 c -0.0889,-0.25498 -0.0936,-0.25667 -0.58275,-0.20962 -0.38845,0.0374 -0.54791,0.0991 -0.75111,0.2908 -0.2338,0.22058 -0.25671,0.28898 -0.24457,0.73027 0.007,0.2678 0.0406,0.68175 0.0738,0.9199 0.0509,0.36475 0.0377,0.44172 -0.0837,0.48833 -0.12716,0.0488 -0.13921,0.16254 -0.10214,0.964 0.0437,0.94456 0.27172,2.05894 0.74898,3.66034 0.34474,1.15674 0.36901,1.30381 0.23266,1.41001 -0.0622,0.0484 -0.3988,0.15474 -0.74805,0.23625 -0.34925,0.0815 -0.80176,0.2207 -1.00559,0.3093 -0.28119,0.12224 -0.57105,0.1611 -1.201509,0.1611 -0.456999,0 -0.853991,-0.0374 -0.882204,-0.083 z m -1.861167,-6.3896 c 0.390115,-0.163 0.54299,-0.48945 0.371927,-0.79422 -0.06907,-0.12305 -0.219673,-0.27134 -0.334683,-0.32954 -0.302211,-0.15292 -1.554542,-0.13932 -1.863085,0.0202 -0.458441,0.23707 -0.4422,0.89709 0.0271,1.10114 0.360562,0.15677 1.42587,0.15818 1.798746,0.002 z m 17.719286,-5.95162 c 0.0216,-0.22428 -0.0124,-0.2923 -0.18607,-0.37141 -0.16049,-0.0731 -0.21884,-0.17181 -0.23816,-0.40278 l -0.0256,-0.30592 -0.39608,0.55033 c -0.35208,0.48919 -0.37891,0.55673 -0.2415,0.6079 0.085,0.0317 0.18098,0.10029 0.21325,0.1525 0.0338,0.0547 0.22598,0.0841 0.45316,0.0694 0.37684,-0.0243 0.39568,-0.0378 0.42098,-0.30005 z m -13.60284,-0.96664 c 0.18972,-0.2031 0.22339,-0.28435 0.1398,-0.33737 -0.17109,-0.10852 -5.549102,-0.0902 -5.754277,0.0196 l -0.172035,0.0921 0.177601,0.12439 c 0.09768,0.0684 0.177602,0.17939 0.177602,0.2466 0,0.10383 0.389537,0.1222 2.590698,0.1222 h 2.590701 z"
         id="path893" />
    </g>
    <path
       id="IconGraphic"
       class="cls-1"
       d="m 108.11963,85.537479 a 4.065872,4.065872 0 0 1 -8.11513,0 h -0.0092 v -3.196628 h 8.04279 v 0.15817 l 2.51341,3.038458 z m -8.124304,-6.056843 h 8.042794 v 1.850626 h -8.042794 z m 8.133474,10.902318 a 2.0766318,2.0766318 0 0 1 2.07663,2.07663 V 103.3619 a 2.0766318,2.0766318 0 0 1 -2.07663,2.07663 V 116.86 a 1.90358,1.90358 0 0 1 -3.80716,0 v -11.42147 h -0.69221 V 116.86 a 1.9035791,1.9035791 0 0 1 -3.807157,0 V 105.42971 A 2.0755935,2.0755935 0 0 1 97.918694,103.3619 V 92.459584 a 2.0766318,2.0766318 0 0 1 2.076632,-2.07663 z m -7.78737,8.30653 -0.865262,2.249676 h 2.249682 l 0.45876,-1.223476 a 0.15470907,0.15470907 0 0 0 0.0604,0.0121 h 2.42274 a 0.21372002,0.21372002 0 0 0 0.20247,-0.17305 l 0.23466,-1.38442 h 3.19697 v -3.288 h -1.38442 v 0.69222 h -6.576 l -1.038311,2.59579 h 0.865261 c 0.39958,0 0.17305,0.51916 0.17305,0.51916 z m 2.30645,-0.52608 h 1.81705 a 0.09742864,0.09742864 0 0 1 0.10868,0.11075 l -0.1895,0.99678 a 0.15315159,0.15315159 0 0 1 -0.15073,0.11075 h -1.81705 a 0.09760169,0.09760169 0 0 1 -0.10885,-0.11075 l 0.18949,-0.99678 a 0.15332464,0.15332464 0 0 1 0.15091,-0.11075 z"
       style="fill:#ffffff;fill-rule:evenodd;stroke-width:0.173052" />
  </g>
</svg>
