<?xml version="1.0" encoding="UTF-8" standalone="no"?>
<svg
   xmlns:dc="http://purl.org/dc/elements/1.1/"
   xmlns:cc="http://creativecommons.org/ns#"
   xmlns:rdf="http://www.w3.org/1999/02/22-rdf-syntax-ns#"
   xmlns:svg="http://www.w3.org/2000/svg"
   xmlns="http://www.w3.org/2000/svg"
   width="73.170258mm"
   height="69.565712mm"
   viewBox="0 0 73.170258 69.565712"
   version="1.1"
   id="svg8">
  <defs
     id="defs2">
    <style
       id="style2">
      .cls-1 {
        fill-rule: evenodd;
      }
    </style>
    <style
       id="style2-3">
      .cls-1 {
        fill-rule: evenodd;
      }
    </style>
  </defs>
  <metadata
     id="metadata5">
    <rdf:RDF>
      <cc:Work
         rdf:about="">
        <dc:format>image/svg+xml</dc:format>
        <dc:type
           rdf:resource="http://purl.org/dc/dcmitype/StillImage" />
        <dc:title></dc:title>
      </cc:Work>
    </rdf:RDF>
  </metadata>
  <g
     id="layer1"
     transform="translate(-71.644935,-70.512216)">
    <g
       id="g40"
       transform="matrix(1.1912914,0,0,1.1912914,-22.237037,-69.500512)">
      <path
         style="fill:#fefefe;stroke-width:0.0846667"
         d="m 105.26578,172.89676 c -10.248698,-5.73478 -14.400414,-8.10639 -14.928187,-8.52751 -1.267269,-1.01118 -0.987034,-4.40091 0.485574,-5.87352 l 0.314472,-0.31447 -0.292108,-0.3754 c -0.458564,-0.58933 -0.781568,-1.36049 -0.924225,-2.20655 -0.117257,-0.69543 -0.117069,-0.83663 0.0019,-1.44065 0.238306,-1.20961 0.759884,-1.99342 1.780922,-2.67634 0.678262,-0.45365 3.921494,-2.11235 6.745959,-3.45012 3.003273,-1.42247 12.465623,-5.80958 12.909983,-5.98558 0.27409,-0.10856 0.54528,-0.15474 0.76368,-0.13006 0.18627,0.0211 4.83447,1.87668 10.32934,4.12363 5.49486,2.24694 10.05978,4.11144 10.14425,4.14334 0.10977,0.0414 -2.98932,1.69435 -10.8635,5.79404 l -11.01709,5.73604 -2.55616,-1.43439 c -6.92266,-3.88464 -12.111964,-6.53495 -14.119801,-7.21134 -0.810871,-0.27316 -1.042575,-0.25124 -1.44307,0.13656 -0.632126,0.61207 -0.922907,1.25852 -0.929765,2.06701 -0.0045,0.5289 0.09185,0.83451 0.407797,1.29369 0.292686,0.42538 0.725206,0.72965 2.422497,1.70421 2.258336,1.29671 16.066652,8.85543 16.177142,8.85543 0.0248,0 4.98345,-2.57175 11.01914,-5.715 6.03569,-3.14325 10.99008,-5.715 11.00977,-5.715 0.0197,0 0.0354,0.37148 0.035,0.8255 l -8.5e-4,0.8255 -10.88938,5.67267 c -5.98916,3.11997 -10.95403,5.70403 -11.03306,5.74236 -0.10566,0.0513 -1.19498,-0.4949 -4.11696,-2.0641 -6.780724,-3.64149 -12.96393,-7.00198 -13.72077,-7.45705 l -0.264827,-0.15924 -0.406848,0.27568 c -0.79475,0.53853 -1.396318,1.78283 -1.278278,2.64403 0.06946,0.50675 0.315745,0.97401 0.68366,1.29705 0.507444,0.44554 4.64562,2.84855 14.315783,8.31308 2.32834,1.31572 4.33316,2.45023 4.45516,2.52113 0.21743,0.12634 0.43839,0.0162 11.13367,-5.55105 6.00151,-3.12398 10.97995,-5.70564 11.0632,-5.73704 0.13993,-0.0528 0.14952,0.006 0.127,0.77412 l -0.0244,0.8312 -11.00667,5.73669 c -6.05366,3.15518 -11.02571,5.73823 -11.049,5.74011 -0.0233,0.002 -2.48073,-1.36102 -5.461,-3.02866 z m 17.42017,-21.28035 c 1.66476,-0.70812 3.02683,-1.31098 3.02683,-1.33969 0,-0.0287 -2.98057,-1.24415 -6.6235,-2.70096 l -6.62351,-2.64875 -3.10868,1.33848 c -1.70977,0.73616 -3.08874,1.35869 -3.06439,1.38339 0.0898,0.091 13.03359,5.23538 13.19708,5.24503 0.0931,0.005 1.53141,-0.56938 3.19617,-1.2775 z m -20.67983,15.89891 -8.932335,-4.83877 -0.02581,-0.40055 c -0.01419,-0.2203 -0.01243,-0.40055 0.0039,-0.40055 0.01635,0 4.040742,2.1717 8.943085,4.826 4.90235,2.6543 8.93101,4.826 8.95259,4.826 0.0216,0 4.51419,-2.3622 9.98358,-5.24933 5.46939,-2.88714 9.96592,-5.24934 9.99229,-5.24934 0.0264,0 0.0363,0.17588 0.0221,0.39083 l -0.0258,0.39083 -8.89,4.69283 c -4.8895,2.58105 -9.3853,4.95337 -9.99066,5.27182 l -1.10067,0.57899 z m -0.0423,-1.81858 -8.889995,-4.81666 -0.02581,-0.39132 c -0.01419,-0.21522 -0.005,-0.39131 0.0204,-0.39131 0.02541,0 4.017731,2.15851 8.871805,4.79669 4.85409,2.63819 8.88351,4.81061 8.95427,4.82762 0.0708,0.017 4.60541,-2.34845 10.07699,-5.25657 l 9.94833,-5.28749 0.0262,0.38431 c 0.0144,0.21137 0.0144,0.39395 0,0.40574 -0.12425,0.10174 -19.85909,10.50669 -19.9597,10.52351 -0.0729,0.0122 -4.13298,-2.14535 -9.02248,-4.79452 z m 0.42334,-4.84406 -8.466669,-4.39361 -0.02581,-0.38214 c -0.01419,-0.21018 0.0049,-0.38179 0.04233,-0.38136 0.03748,4.2e-4 3.856193,1.96258 8.486039,4.36033 4.62984,2.39775 8.46589,4.35955 8.52455,4.35955 0.0587,0 4.57641,-2.36017 10.03943,-5.24482 l 9.93278,-5.24481 0.0266,0.34565 c 0.0146,0.19011 -0.004,0.37498 -0.0423,0.41083 -0.10491,0.0992 -19.92754,10.58097 -19.99308,10.5719 -0.0315,-0.004 -3.86719,-1.98503 -8.52385,-4.40152 z m 0,-1.76465 -8.466669,-4.38918 -0.02581,-0.39103 c -0.01419,-0.21507 -0.0024,-0.39104 0.02632,-0.39104 0.02867,0 3.850281,1.96803 8.492479,4.3734 4.64219,2.40536 8.47936,4.37386 8.52705,4.37444 0.0477,5.9e-4 4.53965,-2.35797 9.98214,-5.24123 5.44249,-2.88325 9.93009,-5.25572 9.97245,-5.27216 0.0424,-0.0164 0.0653,0.15477 0.0509,0.38045 l -0.0262,0.41034 -9.94833,5.26885 c -5.47158,2.89786 -9.98643,5.26828 -10.033,5.26759 -0.0466,-6.8e-4 -3.89467,-1.97638 -8.55133,-4.39043 z"
         id="path42" />
    </g>
    <g
       id="g74"
       transform="matrix(0.45267549,0,0,0.45267549,73.982895,7.8514577)">
      <path
         style="fill:#fefefe;stroke-width:0.0846667"
         d="m 124.9236,206.06806 c -3.96754,-0.056 -5.37384,-0.12912 -7.45066,-0.38715 -3.25372,-0.40425 -5.88925,-1.25495 -7.70234,-2.4862 -1.29555,-0.87979 -2.61585,-2.44635 -3.27119,-3.8813 -1.19765,-2.62244 -1.58801,-6.41831 -1.00718,-9.79395 0.81351,-4.72792 3.40054,-11.01924 7.43309,-18.07633 2.61462,-4.57566 5.70308,-9.27503 8.55177,-13.01231 1.36057,-1.78497 1.71933,-2.74284 1.64301,-4.38669 -0.0561,-1.20751 -0.0882,-1.30023 -2.21773,-6.39747 -0.9584,-2.29402 -1.71252,-4.19883 -1.67582,-4.23292 0.0367,-0.0341 1.2655,-0.44755 2.73068,-0.91882 1.46518,-0.47127 2.68889,-0.88489 2.71936,-0.91916 0.0305,-0.0343 -0.0904,-0.69095 -0.26863,-1.4593 -0.17821,-0.76835 -0.3256,-1.46368 -0.32752,-1.54517 -0.003,-0.1399 0.37415,-0.14816 6.76983,-0.14816 5.81255,0 6.77333,0.0172 6.77333,0.1209 0,0.0665 -0.1143,0.61554 -0.254,1.22009 -0.1397,0.60456 -0.254,1.11233 -0.254,1.12838 0,0.016 1.21812,0.58144 2.70692,1.25641 1.48881,0.67497 2.70801,1.25108 2.70933,1.28024 0.001,0.0292 -0.79739,1.96677 -1.77494,4.30578 -0.97755,2.33902 -1.85873,4.50591 -1.95818,4.81531 -0.25451,0.79184 -0.31337,2.30913 -0.1187,3.06022 0.1937,0.74738 0.54758,1.46562 1.02202,2.07433 1.38752,1.78017 4.43086,6.17613 6.06666,8.763 5.7274,9.05734 9.44001,17.26226 10.4396,23.07167 0.5873,3.41327 0.18835,7.18212 -1.04411,9.86366 -0.6203,1.34962 -2.00311,2.98708 -3.20498,3.79521 -1.77298,1.19214 -4.19998,2.01063 -7.22257,2.43577 -2.10575,0.29619 -3.76904,0.38487 -8.59471,0.45828 -5.28643,0.0804 -5.21818,0.0804 -11.21834,-0.004 z m 6.94267,-10.3125 v -1.42623 l 0.83806,-0.10157 c 1.61903,-0.19623 2.91476,-0.64904 4.15233,-1.45111 1.63924,-1.06239 2.60721,-2.32839 3.10372,-4.05932 0.21498,-0.74942 0.22404,-0.85627 0.17901,-2.1103 -0.053,-1.47658 -0.16923,-2.03627 -0.6083,-2.92957 -1.01839,-2.07194 -3.08962,-3.40756 -6.71232,-4.32838 l -0.9525,-0.24211 v -2.93199 -2.93199 l 0.39475,0.0737 c 1.08804,0.20327 2.05432,1.32867 2.20976,2.57365 l 0.0631,0.50575 2.39151,0.0225 2.39151,0.0225 v -0.34356 c 0,-0.87039 -0.40393,-2.21425 -0.94799,-3.15396 -1.06695,-1.84285 -3.13091,-3.1124 -5.78301,-3.55719 l -0.67734,-0.11359 -0.0234,-1.2855 -0.0234,-1.28551 h -1.01379 -1.0138 v 1.21074 c 0,0.82879 -0.032,1.24278 -0.1016,1.31233 -0.0559,0.0559 -0.23685,0.1022 -0.40217,0.10293 -0.46844,0.002 -1.75081,0.29737 -2.55042,0.58731 -1.12549,0.40811 -1.96868,0.94449 -2.78781,1.77342 -1.35846,1.3747 -1.94733,2.82389 -1.94733,4.79227 0,2.61379 1.25032,4.53346 3.66621,5.62888 0.67172,0.30457 2.313,0.85683 3.27581,1.10226 0.39546,0.1008 0.7473,0.22774 0.78187,0.28207 0.0346,0.0543 0.0634,1.61803 0.0641,3.47487 l 0.001,3.37609 -0.23502,-0.047 c -0.52789,-0.10557 -1.19189,-0.41934 -1.69133,-0.79921 -0.98566,-0.74968 -1.47991,-1.66632 -1.59807,-2.96378 l -0.0559,-0.61384 h -2.37018 -2.37019 l 0.0582,0.64272 c 0.0898,0.9915 0.50665,2.50424 0.9282,3.36882 0.75443,1.5473 1.79232,2.5976 3.31258,3.35222 0.95112,0.47211 1.78547,0.7218 3.09034,0.92485 l 0.889,0.13833 0.0232,1.41687 0.0232,1.41686 h 1.01395 1.01395 z m 0,-8.56444 c 0,-1.72296 0.0142,-3.13266 0.0315,-3.13266 0.13142,0 1.41317,0.46627 1.84573,0.67144 1.16905,0.55449 1.52058,1.05823 1.57704,2.25986 0.033,0.70255 0.0153,0.81895 -0.19552,1.28883 -0.26977,0.60112 -0.89857,1.2416 -1.53616,1.56469 -0.40981,0.20767 -1.31075,0.48051 -1.58667,0.48051 -0.12237,0 -0.13595,-0.3129 -0.13595,-3.13267 z m -2.96333,-8.83503 c -1.42906,-0.50754 -1.93181,-1.05159 -2.01267,-2.17798 -0.0625,-0.87067 0.13607,-1.42389 0.72616,-2.02303 0.52201,-0.53 1.09602,-0.80548 1.79451,-0.86122 l 0.381,-0.0304 0.0224,2.64583 0.0224,2.64584 -0.1917,-0.002 c -0.10544,-9.8e-4 -0.43936,-0.0897 -0.74204,-0.19725 z m 5.50333,-23.29596 v -2.24367 h -3.51367 -3.51366 v 2.24367 2.24366 h 3.51366 3.51367 z"
         id="path88" />
    </g>
    <g
       id="g118"
       transform="matrix(0.50563363,0,0,0.50563363,57.296383,-2.6948451)">
      <path
         style="fill:#fefefe;stroke-width:0.0846667"
         d="m 87.76033,203.64224 c -0.418959,-0.60938 -1.618818,-1.85668 -2.365707,-2.45925 -2.295423,-1.85186 -4.813301,-3.04438 -9.921042,-4.69881 l -1.905,-0.61705 0.973667,-0.004 c 2.635136,-0.0116 5.384953,-0.47646 7.307876,-1.23538 0.953146,-0.37619 2.395818,-1.12494 3.019732,-1.56725 l 0.463941,-0.32891 0.109271,0.20856 c 0.0601,0.1147 0.353677,0.94282 0.652396,1.84027 0.593531,1.78316 1.191543,4.10915 1.524798,5.93076 0.211353,1.15527 0.499436,3.27677 0.451301,3.32346 -0.01374,0.0133 -0.153795,-0.16312 -0.311233,-0.39212 z m -24.351749,-5.67618 c -4.228827,-0.53791 -10.340193,-3.98703 -15.196217,-8.57642 -4.073066,-3.84942 -6.612952,-7.69881 -7.377462,-11.18111 -0.06264,-0.28535 -0.107979,-0.97185 -0.103434,-1.56633 0.01401,-1.83236 0.528525,-3.3139 1.440233,-4.14715 1.328246,-1.21394 3.379687,-1.11885 6.250879,0.28975 1.073578,0.52669 2.582334,1.44182 2.582334,1.5663 0,0.0342 0.09697,0.58717 0.21549,1.22878 0.312085,1.6895 0.784252,3.47356 1.595182,6.0273 0.05016,0.15796 -0.02437,0.22629 -0.578382,0.53035 -0.804775,0.44169 -1.663505,1.23898 -1.946832,1.80754 -1.045529,2.0981 1.527837,4.81404 7.388214,7.79754 2.210997,1.12561 5.399415,2.50419 7.931328,3.42928 l 0.677334,0.24747 -0.0046,0.70792 c -0.01052,1.61888 -0.772138,2.10614 -2.874061,1.83878 z M 51.34358,196.58025 c -1.130593,-0.15532 -2.297265,-0.38614 -5.122333,-1.01342 -4.722897,-1.04868 -6.172194,-1.25698 -8.805334,-1.26554 -2.498601,-0.008 -3.889446,0.22557 -5.756461,0.96723 -0.361529,0.14361 -0.670554,0.24789 -0.686724,0.23172 -0.04126,-0.0413 1.20332,-1.63273 2.067996,-2.64437 0.956982,-1.11964 3.388429,-3.54718 4.506511,-4.49927 1.261723,-1.07441 3.941417,-3.06779 4.008442,-2.98182 0.01304,0.0167 0.294757,0.43047 0.626029,0.91942 2.330946,3.44043 6.387003,7.17248 10.804627,9.94153 l 0.753754,0.47247 -0.796087,-0.009 c -0.437847,-0.005 -1.158036,-0.0584 -1.60042,-0.11923 z m 19.050001,-3.10151 c -4.936597,-0.5096 -10.412445,-2.57914 -15.354765,-5.80318 -1.219746,-0.79568 -2.425236,-1.69033 -2.425236,-1.79989 0,-0.14421 1.746358,-1.72812 2.671559,-2.42304 1.359219,-1.0209 2.65456,-1.80457 4.398108,-2.66079 3.627056,-1.78117 7.337856,-2.80932 12.076625,-3.34604 0.622256,-0.0705 2.230007,-0.16531 3.572779,-0.21075 3.082856,-0.10432 4.021078,-0.24978 5.677461,-0.88022 2.975644,-1.13257 6.227488,-4.01026 8.107343,-7.17453 0.189983,-0.31979 0.378313,-0.58143 0.41851,-0.58143 0.186844,0 1.248294,0.454 1.692913,0.7241 0.95687,0.58126 1.379155,1.31879 1.185166,2.0699 -0.309799,1.19951 -1.83766,2.45294 -4.902506,4.02194 -1.456592,0.74568 -1.99952,1.41356 -3.229728,3.97303 -0.920065,1.91422 -1.499368,2.82303 -2.327132,3.65079 -1.534044,1.53404 -4.670029,3.08109 -7.530303,3.71486 -1.428516,0.31652 -2.547677,0.41703 -4.030794,0.36198 -2.665176,-0.0989 -4.574023,-0.61561 -8.051193,-2.17928 -1.68836,-0.75926 -2.125516,-0.90318 -2.440113,-0.80333 -0.633289,0.201 0.545244,1.41808 2.501656,2.58349 2.215595,1.31979 4.951321,2.28167 7.577183,2.66412 1.165252,0.16972 3.485059,0.17102 4.602582,0.003 5.282552,-0.79618 9.599834,-4.22482 12.721438,-10.10292 0.280515,-0.52822 0.528878,-0.92827 0.551918,-0.889 0.09598,0.16357 0.422369,1.73416 0.532881,2.5642 0.375516,2.82044 -0.17725,5.46686 -1.578838,7.55884 -0.481394,0.71852 -1.668645,1.87194 -2.492193,2.42119 -2.096865,1.39844 -4.876953,2.23275 -8.506654,2.55285 -1.152646,0.10165 -4.397126,0.096 -5.418667,-0.009 z M 55.968867,180.21937 c 0.191496,-1.42587 0.455717,-2.3211 1.043276,-3.53484 1.482256,-3.06193 4.448239,-5.27734 8.451657,-6.31287 2.09995,-0.54317 4.009151,-0.76709 6.580781,-0.77183 2.947215,-0.005 4.520508,0.3376 5.318884,1.15966 0.811358,0.83543 0.535806,2.07073 -0.817616,3.66538 l -0.494066,0.58213 -2.130601,0.0544 c -4.445982,0.11347 -8.112671,0.75581 -11.720641,2.05327 -1.95882,0.70442 -4.57958,2.11457 -5.822046,3.13268 -0.194345,0.15925 -0.37561,0.28955 -0.402811,0.28955 -0.0272,0 -0.03027,-0.14288 -0.0068,-0.3175 z M 37.37358,177.73563 c -2.149837,-2.17011 -3.727504,-3.38279 -5.673674,-4.36109 -0.857486,-0.43103 -2.78153,-1.13335 -3.112981,-1.1363 -0.814585,-0.007 0.842756,-0.56005 3.291481,-1.09786 2.487032,-0.54622 4.987551,-0.86954 7.590821,-0.98151 l 1.37598,-0.0592 -0.744674,0.75242 c -0.557708,0.56351 -0.823616,0.91185 -1.059091,1.38742 -0.799914,1.61552 -0.930797,3.67646 -0.389202,6.12855 0.09138,0.41371 0.155386,0.75795 0.14224,0.76497 -0.01315,0.007 -0.65255,-0.62182 -1.4209,-1.39742 z m 16.482336,-0.82021 c -0.252664,-2.62552 -0.334563,-5.32813 -0.228515,-7.5408 0.0886,-1.84862 0.358787,-4.71658 0.453241,-4.81104 0.02256,-0.0226 0.420783,-0.0388 0.88494,-0.0361 3.613278,0.0212 7.104888,1.69327 9.031916,4.32537 l 0.402913,0.55033 -0.834581,0.0594 c -2.609866,0.18579 -4.608461,0.99691 -6.257649,2.53964 -1.417083,1.32561 -2.510935,3.30348 -3.043601,5.50332 -0.113609,0.4692 -0.219537,0.86606 -0.235395,0.88191 -0.01586,0.0159 -0.09383,-0.64657 -0.173269,-1.47206 z m 25.107639,-2.30943 c 0.879655,-1.25303 2.040587,-3.48475 2.46423,-4.73712 0.582958,-1.72334 0.818325,-3.077 0.818789,-4.70908 6.78e-4,-2.39141 -0.542991,-4.24238 -1.899343,-6.46648 -2.223867,-3.6466 -5.097752,-5.82036 -8.467038,-6.40431 -1.189132,-0.2061 -3.260341,-0.12684 -4.576945,0.17514 -1.70893,0.39196 -3.492471,1.12672 -5.036731,2.07495 l -0.80527,0.49447 -0.635,-0.16788 c -0.890957,-0.23555 -2.475112,-0.29322 -3.302,-0.12022 -2.186316,0.45744 -3.917079,2.26196 -5.031155,5.24556 -0.955959,2.56016 -1.439196,6.1257 -1.387516,10.23775 0.01449,1.15256 0.0025,2.09553 -0.02652,2.0955 -0.125262,-1.7e-4 -1.632066,-0.64302 -2.500564,-1.06684 -1.726944,-0.84274 -3.324191,-1.89004 -4.521172,-2.96448 -3.310658,-2.97173 -4.044974,-6.2502 -2.216611,-9.89642 1.413066,-2.81801 3.869012,-4.56712 7.259206,-5.16996 1.140311,-0.20277 3.628121,-0.20761 4.86208,-0.009 0.48551,0.078 0.909227,0.14176 0.941591,0.14176 0.03237,0 0.08354,-0.18612 0.11371,-0.41359 0.152579,-1.15018 0.663209,-2.47638 1.330461,-3.45544 0.391049,-0.57378 1.292621,-1.45441 1.92843,-1.88364 1.624131,-1.09642 3.624943,-1.65606 6.275395,-1.75524 3.868447,-0.14476 7.3774,0.95783 10.292523,3.23412 0.851075,0.66457 2.04497,1.85587 2.710614,2.70472 0.457546,0.58348 1.420094,2.03976 1.493233,2.25918 0.01762,0.0529 0.167321,-0.002 0.35629,-0.13001 0.497659,-0.33772 0.926031,-0.42451 1.572674,-0.31863 1.43805,0.23546 3.307093,1.632 5.455777,4.07653 2.014356,2.2917 2.575253,3.53969 2.473431,5.50333 -0.05684,1.09619 -0.205932,1.66208 -0.727031,2.75955 -1.07725,2.26876 -3.12658,4.5273 -6.142962,6.77009 -0.963831,0.71665 -2.810045,1.94759 -3.070205,2.04704 -0.140358,0.0537 -0.140481,0.0459 -0.0024,-0.15089 z m -1.119307,-5.49281 c -0.76835,-0.31896 -1.390594,-0.61278 -1.382765,-0.65295 0.265846,-1.3639 0.239401,-4.02723 -0.05159,-5.19536 -0.646763,-2.59636 -2.410013,-4.35973 -5.0331,-5.03344 -1.51065,-0.38799 -4.100726,-0.39685 -5.562747,-0.019 -1.920292,0.49624 -2.840111,1.33955 -2.936923,2.69261 -0.150812,2.10781 2.310782,4.81617 5.032573,5.53707 0.580993,0.15389 1.9916,0.17269 2.508721,0.0334 0.749352,-0.20178 1.232,-0.56892 1.549446,-1.17864 0.221995,-0.42639 0.20315,-1.48818 -0.0382,-2.15217 -0.311392,-0.8567 -0.957029,-1.71606 -1.570163,-2.08994 -0.14723,-0.0898 -0.41878,-0.16007 -0.619114,-0.16024 -0.664479,-6e-4 -0.646616,0.33189 0.101563,1.89041 0.687323,1.43175 0.62708,2.03205 -0.227076,2.26272 -1.091746,0.29484 -2.792565,-0.35169 -3.908713,-1.48581 -0.974623,-0.99032 -1.258207,-2.11942 -0.738241,-2.93932 0.335514,-0.52905 1.171873,-0.94253 2.292988,-1.1336 1.047357,-0.1785 2.827342,-0.12442 3.686733,0.11202 2.832867,0.77938 4.304314,3.60138 3.942585,7.56123 -0.05534,0.60581 -0.120957,1.15447 -0.145816,1.21925 -0.03738,0.0974 -0.106356,0.0909 -0.398851,-0.0379 -1.70263,-0.74939 -4.900806,-0.46216 -7.846651,0.70472 -0.08695,0.0344 -0.273861,-0.13712 -0.592666,-0.54398 -0.641923,-0.81922 -2.365119,-2.4692 -3.209004,-3.07267 -0.88407,-0.6322 -2.200602,-1.36411 -2.790936,-1.55158 -0.24985,-0.0794 -0.471081,-0.18807 -0.491624,-0.24161 -0.07179,-0.18707 0.658021,-2.23028 1.163432,-3.25723 0.682086,-1.38592 1.398615,-2.41836 2.320737,-3.34392 1.663382,-1.66958 3.306475,-2.38892 5.642574,-2.47031 2.246746,-0.0783 4.211701,0.29427 5.87123,1.11313 2.820223,1.39158 4.439794,3.81509 5.096984,7.62709 0.292148,1.69459 0.136768,6.40846 -0.210599,6.38911 -0.03179,-0.002 -0.686444,-0.26418 -1.454794,-0.58313 z m -20.783854,-5.81379 c -0.588916,-0.16145 -1.564438,-0.28852 -2.214979,-0.28852 -0.637682,0 -0.624692,0.10949 -0.135605,-1.143 1.010167,-2.58691 2.354374,-4.4983 3.60189,-5.12169 0.406502,-0.20313 0.618741,-0.25465 1.049123,-0.25465 0.476221,0 1.126758,0.16707 1.126758,0.28938 0,0.0242 -0.174553,0.31384 -0.387895,0.64363 -0.832297,1.2866 -1.670996,3.27137 -2.145932,5.07833 -0.151339,0.57578 -0.275621,0.89306 -0.352752,0.90054 -0.0655,0.006 -0.308772,-0.0405 -0.540608,-0.10402 z"
         id="path128" />
    </g>
  </g>
</svg>
