<?xml version="1.0" encoding="UTF-8" standalone="no"?>
<svg
   xmlns:dc="http://purl.org/dc/elements/1.1/"
   xmlns:cc="http://creativecommons.org/ns#"
   xmlns:rdf="http://www.w3.org/1999/02/22-rdf-syntax-ns#"
   xmlns:svg="http://www.w3.org/2000/svg"
   xmlns="http://www.w3.org/2000/svg"
   width="15.328575mm"
   height="23.904205mm"
   viewBox="0 0 15.328575 23.904205"
   version="1.1"
   id="svg8">
  <defs
     id="defs2" />
  <metadata
     id="metadata5">
    <rdf:RDF>
      <cc:Work
         rdf:about="">
        <dc:format>image/svg+xml</dc:format>
        <dc:type
           rdf:resource="http://purl.org/dc/dcmitype/StillImage" />
        <dc:title></dc:title>
      </cc:Work>
    </rdf:RDF>
  </metadata>
  <g
     id="layer1"
     transform="translate(-136.5132,-90.412313)">
    <g
       id="g847"
       transform="matrix(1.1958339,0,0,1.1958339,-23.937892,-4.3047061)">
      <path
         style="fill:#fefefe;stroke-width:0.0846667"
         d="m 138.82063,99.026086 c -2.13357,-0.559439 -3.77234,-2.15051 -4.44987,-4.320375 -0.17282,-0.553447 -0.19793,-0.803542 -0.19555,-1.947333 0.003,-1.213658 0.0205,-1.363058 0.23843,-1.986944 0.33128,-0.948186 5.27673,-11.231321 5.48814,-11.411557 0.24092,-0.205393 1.08522,-0.205393 1.32589,0 0.17613,0.150305 5.10281,10.34154 5.41297,11.197167 0.42632,1.176049 0.47231,3.018254 0.10462,4.191 -0.6708,2.139512 -2.33755,3.73673 -4.468,4.281607 -0.86992,0.222487 -2.60133,0.220701 -3.45663,-0.0036 z m 3.62447,-5.759708 c 1.00171,-1.74625 1.86389,-3.256654 1.91597,-3.356452 0.0772,-0.147904 0.0626,-0.222258 -0.0789,-0.402167 l -0.17362,-0.220715 h -1.72952 -1.72952 l -0.002,-0.1905 c -9e-4,-0.104775 0.13813,-1.036239 0.30896,-2.069921 0.29498,-1.784933 0.30348,-1.890286 0.16902,-2.095501 -0.15015,-0.229151 -0.20472,-0.251613 -0.36449,-0.150007 -0.0891,0.05667 -3.52489,5.936853 -3.93224,6.729838 l -0.16383,0.318909 0.21026,0.210258 c 0.20992,0.209914 0.21304,0.210258 1.90745,0.210258 h 1.69718 l -10e-4,0.232833 c -5.9e-4,0.128058 -0.13345,1.013883 -0.29524,1.9685 -0.16178,0.954617 -0.29464,1.802342 -0.29524,1.883833 -5.9e-4,0.08149 0.0794,0.228697 0.17786,0.327122 l 0.17896,0.178954 0.18922,-0.200121 c 0.10407,-0.110066 1.00879,-1.628871 2.01049,-3.375121 z"
         id="path855" />
    </g>
  </g>
</svg>
