<?xml version="1.0" encoding="UTF-8" standalone="no"?>
<svg
   xmlns:dc="http://purl.org/dc/elements/1.1/"
   xmlns:cc="http://creativecommons.org/ns#"
   xmlns:rdf="http://www.w3.org/1999/02/22-rdf-syntax-ns#"
   xmlns:svg="http://www.w3.org/2000/svg"
   xmlns="http://www.w3.org/2000/svg"
   width="116.59301mm"
   height="72.192436mm"
   viewBox="0 0 116.59301 72.192436"
   version="1.1"
   id="svg8">
  <defs
     id="defs2">
    <style
       id="style2">
      .cls-1 {
        fill-rule: evenodd;
      }
    </style>
    <style
       id="style2-2">
      .cls-1 {
        fill-rule: evenodd;
      }
    </style>
    <style
       id="style2-1">
      .cls-1 {
        fill-rule: evenodd;
      }
    </style>
    <style
       id="style2-8">
      .cls-1 {
        fill-rule: evenodd;
      }
    </style>
    <style
       id="style2-6">
      .cls-1 {
        fill-rule: evenodd;
      }
    </style>
    <style
       id="style2-1-3">
      .cls-1 {
        fill-rule: evenodd;
      }
    </style>
    <style
       id="style2-2-9">
      .cls-1 {
        fill-rule: evenodd;
      }
    </style>
    <style
       id="style2-7">
      .cls-1 {
        fill-rule: evenodd;
      }
    </style>
    <style
       id="style2-72">
      .cls-1 {
        fill-rule: evenodd;
      }
    </style>
  </defs>
  <metadata
     id="metadata5">
    <rdf:RDF>
      <cc:Work
         rdf:about="">
        <dc:format>image/svg+xml</dc:format>
        <dc:type
           rdf:resource="http://purl.org/dc/dcmitype/StillImage" />
        <dc:title></dc:title>
      </cc:Work>
    </rdf:RDF>
  </metadata>
  <g
     id="layer1"
     transform="translate(-43.325538,-103.00455)">
    <g
       transform="matrix(0.35128062,0,0,0.35128062,38.27702,81.864597)"
       id="layer1-2">
      <path
         id="IconGraphic"
         class="cls-1"
         d="M 89.034955,197.37513 C 64.632057,198.15767 55.847488,183.92139 63.723309,160.5132 57.767536,163.46349 49.53516,163.2292 42.493147,163.45481 18.015313,164.24364 9.248098,149.9159 17.250134,126.37913 24.831715,104.0793 34.670968,101.1227 36.030145,99.100887 c 3.437506,-0.586782 6.939356,-0.698251 10.407221,-0.331293 4.684671,0.670829 9.285454,1.834236 13.725891,3.470886 0.332611,0.73413 0.756689,1.42325 1.26215,2.051 4.979975,6.23188 10.740903,24.23095 10.570512,39.09593 5.153521,-7.31258 9.687797,-9.04095 10.57919,-10.3662 3.436472,-0.5865 6.937241,-0.69799 10.404068,-0.33134 4.684668,0.67086 9.285443,1.83429 13.725883,3.47094 0.33254,0.73415 0.75662,1.42328 1.26216,2.05098 5.5637,6.96395 12.10954,28.61847 10.25497,44.17529 -1.85457,15.55679 -17.23782,14.60466 -29.187235,14.98805 z M 54.14911,134.11929 c -0.518457,-1.31341 -1.323754,-2.49441 -2.357067,-3.45673 -1.651899,-1.30707 -3.40318,-2.48339 -5.237926,-3.51825 -1.917113,-1.05457 -3.736762,-2.27735 -5.437501,-3.65392 -0.631076,-0.62582 -0.946613,-1.72047 -0.946613,-3.28397 -0.04877,-0.73337 0.111224,-1.46555 0.461473,-2.11172 0.301659,-0.46612 0.830079,-0.7347 1.384422,-0.70367 0.623312,-0.0813 1.228215,0.24752 1.498802,0.8149 0.303999,1.12552 0.422041,2.29313 0.349456,3.45672 v 1.65657 h 10.073542 c 0.06627,-0.84144 0.09966,-1.46674 0.100182,-1.87588 0,-2.94502 -0.773329,-5.25371 -2.319988,-6.92607 -1.54666,-1.67234 -3.874541,-2.7052 -6.98364,-3.09858 v -3.18537 h -4.639976 v 3.18537 c -3.408861,0.39442 -5.965506,1.43965 -7.669933,3.13568 -1.704431,1.69601 -2.555331,4.03361 -2.552701,7.01282 -0.03229,1.91257 0.382053,3.80626 1.210088,5.53058 0.672738,1.45367 1.651055,2.74519 2.868237,3.78644 2.01399,1.51479 4.107977,2.92018 6.27289,4.21007 1.845895,1.13593 2.926612,2.18536 3.242149,3.14827 0.384053,1.57041 0.54341,3.18735 0.473307,4.80252 0.04853,0.70643 -0.125838,1.41026 -0.498552,2.01232 -0.361739,0.46654 -0.932886,0.72117 -1.521679,0.6784 -0.672714,0.0831 -1.30835,-0.3276 -1.50906,-0.97503 -0.288311,-1.64993 -0.394129,-3.32656 -0.315537,-4.99965 v -2.44544 H 30.017583 v 1.95079 c 0,4.44438 1.006039,7.55952 3.018116,9.34545 1.957397,1.76318 4.434541,2.84285 7.058581,3.07652 v 3.87793 h 4.63919 v -3.75332 c 3.458293,-0.47751 6.052275,-1.72835 7.781947,-3.75252 1.729672,-2.02417 2.594245,-4.81432 2.593719,-8.37043 0.05804,-1.9026 -0.268496,-3.79736 -0.96002,-5.5708 z m 46.54181,33.92028 c -0.51804,-1.31363 -1.323394,-2.4947 -2.35707,-3.45672 -1.651911,-1.30706 -3.403192,-2.48337 -5.237925,-3.51825 -1.916984,-1.05478 -3.736616,-2.27755 -5.437504,-3.65392 -0.631076,-0.62581 -0.946613,-1.72047 -0.946613,-3.28397 -0.04864,-0.73336 0.111347,-1.46552 0.461474,-2.11174 0.301665,-0.4661 0.830083,-0.73466 1.384421,-0.70363 0.623258,-0.081 1.228018,0.24768 1.498804,0.81487 0.303692,1.12557 0.421467,2.29317 0.348669,3.45672 v 1.65656 h 10.077484 c 0.0652,-0.84141 0.0983,-1.46671 0.0994,-1.87585 0,-2.94503 -0.773332,-5.2537 -2.319993,-6.92604 -1.546661,-1.67237 -3.87454,-2.70524 -6.983639,-3.09861 v -3.18533 h -4.639193 v 3.18533 c -3.408332,0.39442 -5.964975,1.43965 -7.66993,3.13566 -1.704957,1.69601 -2.556909,4.03362 -2.555855,7.01284 -0.03244,1.91257 0.381912,3.80631 1.210084,5.53057 0.672715,1.4537 1.651035,2.74522 2.868237,3.78646 2.014036,1.51471 4.10802,2.9201 6.272892,4.21004 1.845895,1.13595 2.926876,2.18538 3.242937,3.14831 0.383892,1.57042 0.543246,3.18732 0.473307,4.80247 0.04832,0.70642 -0.126029,1.4102 -0.498551,2.01234 -0.361828,0.46641 -0.932911,0.72102 -1.521679,0.6784 -0.672702,0.0831 -1.308333,-0.32757 -1.50906,-0.97498 -0.287046,-1.65009 -0.391542,-3.32676 -0.311593,-4.99971 v -2.44543 H 76.559383 v 1.95083 c 0,4.44435 1.00604,7.55948 3.018118,9.34542 1.957335,1.76328 4.434514,2.84295 7.05858,3.07649 v 3.87796 h 4.639194 v -3.75332 c 3.458293,-0.47751 6.052275,-1.72836 7.781945,-3.75254 1.72967,-2.02415 2.59451,-4.8143 2.59451,-8.3704 0.0577,-1.90268 -0.26908,-3.79744 -0.96082,-5.57083 z m 5.3452,-34.47799 c -4.23018,-1.52289 -8.605377,-2.60798 -13.056943,-3.23823 -3.538298,-0.3745 -7.11165,-0.25049 -10.615477,0.36838 -0.896128,-2.12986 -3.223219,-5.19846 -5.950252,-9.83451 -3.318669,-5.64259 -0.941092,-7.34178 11.52659,-9.45272 -0.420454,2.22693 -1.142243,6.19164 -1.271617,7.87503 -0.185386,2.40282 1.577692,2.71914 2.366534,-0.78884 0.509595,-2.25768 1.341036,-5.5219 1.871139,-7.56818 0.669729,-0.10484 1.355234,-0.21137 2.073083,-0.32025 16.849703,-2.55667 22.197273,6.82744 19.721103,10.25496 -1.92005,2.65843 -7.0499,7.44273 -6.66416,12.70038 z M 59.494317,99.641244 c -4.230162,-1.522957 -8.605371,-2.608031 -13.056951,-3.23819 -3.538558,-0.374574 -7.112179,-0.250568 -10.616262,0.368381 -0.896128,-2.129876 -3.22322,-5.198483 -5.949464,-9.834517 -3.318668,-5.642612 -0.941093,-7.341782 11.526593,-9.452738 -0.420454,2.22691 -1.14225,6.19165 -1.271619,7.875058 -0.185388,2.402796 1.577689,2.719146 2.366533,-0.788847 0.509593,-2.257681 1.341035,-5.521928 1.871138,-7.568195 0.669729,-0.104852 1.355234,-0.211388 2.073081,-0.320274 16.849714,-2.556616 22.197287,6.827455 19.721107,10.254996 -1.920049,2.658394 -7.049901,7.44274 -6.664156,12.704326 z"
         style="fill:#ffffff;fill-rule:evenodd;stroke-width:0.788844" />
      <path
         id="IconGraphic-2"
         class="cls-1"
         d="m 181.4057,115.18316 23.97044,23.97153 c 7.44695,7.45792 -3.73994,18.64477 -11.18689,11.18686 l -23.9704,-23.97039 c -7.16155,-7.45344 3.72668,-18.34501 11.18233,-11.18575 z m -77.11598,106.5318 c -1.57331,1.43471 -2.51868,3.43101 -2.63172,5.55726 0,8.73708 18.21312,15.81985 40.67954,15.81985 22.46638,0 40.67954,-7.08277 40.67954,-15.81985 -0.11314,-2.12625 -1.05844,-4.12257 -2.63177,-5.55726 6.59235,4.62956 10.54168,10.48404 10.54168,16.85716 0,14.97798 -21.75453,27.11969 -48.58945,27.11969 -26.83494,0 -48.589474,-12.14171 -48.589474,-27.11969 0,-6.37312 3.9493,-12.2276 10.541654,-16.85716 z m 75.33741,3.8623 c 0,7.79689 -16.69559,14.12483 -37.28959,14.12483 -20.59404,0 -37.28958,-6.32794 -37.28958,-14.12483 0,-7.79691 16.69554,-14.12484 37.28958,-14.12484 20.594,0 37.28959,6.32793 37.28959,14.12484 z m -42.97118,-65.64659 23.97043,23.97043 c 7.44694,7.45791 -3.73995,18.64475 -11.18689,11.18685 l -23.96928,-23.97044 c -7.431,-7.45714 3.72784,-18.61709 11.18574,-11.18684 z m 25.96824,23.57154 -25.56824,-25.56824 31.15826,-31.16281 25.56823,25.56935 -10.78685,10.78689 51.13759,51.13754 c 6.28974,6.39175 -3.1962,15.87769 -9.58795,9.58794 l -51.13304,-51.13756 z"
         style="fill:#ffffff;fill-rule:evenodd;stroke-width:1.12999" />
    </g>
    <g
       id="layer1-1"
       transform="matrix(0.39371617,0,0,0.39371617,86.178706,2.7712222)">
      <path
         style="fill:#ffffff;fill-rule:evenodd;stroke-width:0.863282"
         d="m 174.66806,290.76469 c -6.97188,0 -12.62381,-6.05163 -12.62381,-12.80856 h -47.62487 v 2.47074 h 3.44278 v 11.48686 h -6.31234 v -5.74344 h -2.86872 v 5.74344 h -6.88555 v -5.74344 h -2.868694 v 5.74344 h -6.31233 v -11.48686 h 3.442754 v -2.46989 h -4.590089 v -9.99337 h 70.577059 c 0,-6.75695 5.65193,-13.38091 12.62381,-13.38091 6.97493,0.003 12.62666,5.66009 12.62381,12.63503 v 10.91192 c 0.003,6.97494 -5.64888,12.6317 -12.62381,12.63504 z m 3.44279,-21.82729 c 0.001,-1.9026 -1.54019,-3.44586 -3.44279,-3.44586 -1.9026,0 -3.44449,1.54326 -3.44279,3.44586 v 7.47259 c -0.001,1.9026 1.54019,3.44586 3.44279,3.44586 1.9026,0 3.44448,-1.54326 3.44279,-3.44586 z"
         class="cls-1"
         id="IconGraphic-1" />
      <rect
         style="fill:#ffffff;fill-opacity:1;stroke:#ffffff;stroke-width:0.0323288;stroke-opacity:1"
         id="rect4587"
         width="79.621529"
         height="5.2823071"
         x="97.735992"
         y="300.06265"
         ry="0" />
      <rect
         style="fill:#ffffff;fill-opacity:1;stroke:#ffffff;stroke-width:0.0322738;stroke-opacity:1"
         id="rect4587-3"
         width="79.567177"
         height="5.2679677"
         x="97.773842"
         y="381.66052"
         ry="0" />
      <rect
         style="fill:#ffffff;fill-opacity:1;stroke:#ffffff;stroke-width:0.0312525;stroke-opacity:1"
         id="rect4587-7"
         width="4.5249324"
         height="86.862732"
         x="-109.18224"
         y="-386.9201"
         ry="0"
         transform="scale(-1)" />
      <rect
         style="fill:#ffffff;fill-opacity:1;stroke:#ffffff;stroke-width:0.0312105;stroke-opacity:1"
         id="rect4587-7-4"
         width="4.5249743"
         height="86.628586"
         x="-170.23903"
         y="-386.6066"
         ry="0"
         transform="scale(-1)" />
      <path
         style="fill:#ffffff;fill-rule:evenodd;stroke-width:0.305869"
         d="m 144.2391,353.60314 v 20.18738 a 3.3645669,3.3645669 0 0 1 -6.72913,0 v -20.18738 h -1.22347 v 20.18738 a 3.36457,3.36457 0 0 1 -6.72914,0 v -20.20298 a 3.6685984,3.6685984 0 0 1 -3.36456,-3.65483 v -19.26978 a 3.6704336,3.6704336 0 0 1 3.67043,-3.67044 h 14.37587 a 3.6704336,3.6704336 0 0 1 3.67043,3.67044 v 19.26978 a 3.6704336,3.6704336 0 0 1 -3.67043,3.67043 z m -7.18793,-28.44586 a 7.1879325,7.1879325 0 1 1 7.18793,-7.18794 7.1879325,7.1879325 0 0 1 -7.18793,7.18794 z"
         class="cls-1"
         id="IconGraphic-8-6" />
      <rect
         style="fill:#ffffff;fill-opacity:1;stroke:#ffffff;stroke-width:0.0308943;stroke-opacity:1"
         id="rect4587-7-6"
         width="4.525291"
         height="84.875954"
         x="-122.61989"
         y="-386.40524"
         ry="0"
         transform="scale(-1)" />
      <rect
         style="fill:#ffffff;fill-opacity:1;stroke:#ffffff;stroke-width:0.0308943;stroke-opacity:1"
         id="rect4587-7-6-8"
         width="4.525291"
         height="84.875969"
         x="-155.54214"
         y="-386.40524"
         ry="0"
         transform="scale(-1)" />
    </g>
  </g>
</svg>
