<?xml version="1.0" encoding="UTF-8" standalone="no"?>
<svg
   xmlns:dc="http://purl.org/dc/elements/1.1/"
   xmlns:cc="http://creativecommons.org/ns#"
   xmlns:rdf="http://www.w3.org/1999/02/22-rdf-syntax-ns#"
   xmlns:svg="http://www.w3.org/2000/svg"
   xmlns="http://www.w3.org/2000/svg"
   width="76.843605mm"
   height="57.705013mm"
   viewBox="0 0 76.843605 57.705013"
   version="1.1"
   id="svg8">
  <defs
     id="defs2">
    <style
       id="style2">
      .cls-1 {
        fill-rule: evenodd;
      }
    </style>
  </defs>
  <metadata
     id="metadata5">
    <rdf:RDF>
      <cc:Work
         rdf:about="">
        <dc:format>image/svg+xml</dc:format>
        <dc:type
           rdf:resource="http://purl.org/dc/dcmitype/StillImage" />
        <dc:title></dc:title>
      </cc:Work>
    </rdf:RDF>
  </metadata>
  <g
     id="layer1"
     transform="translate(-72.732238,-101.54928)">
    <path
       id="IconGraphic"
       class="cls-1"
       d="m 115.91245,133.44691 c -0.74665,1.12475 -1.12183,2.4265 -2.3204,3.29195 -1.31683,0.95091 -4.60957,0.54372 -6.61458,0 -1.35281,-0.36671 -1.45071,-2.75167 -0.99616,-3.64861 0.33841,-0.66727 3.04271,-1.13903 4.17143,-1.54278 1.12871,-0.40375 2.90671,-2.46063 3.10435,-2.37464 0.19765,0.086 1.49913,-0.19632 2.14551,0.27491 0.64637,0.47122 1.2565,2.87469 0.50985,3.99917 z m -8.81909,-2.32833 -0.26088,-0.79163 a 3.5104917,3.5104917 0 0 1 0.85593,-0.20347 l 0.26643,0.82021 a 4.8646292,4.8646292 0 0 0 -0.86148,0.17463 z m 1.20703,-1.52347 c -2.14022,-0.11457 -4.51088,-4.21614 -3.43959,-5.29167 1.23878,-0.40746 4.49792,-1.20385 5.32236,-2.70457 0.82444,-1.50072 1.07527,-1.93463 1.07527,-1.93463 a 2.0584583,2.0584583 0 0 1 2.09894,0.49477 c 0.94641,0.93742 1.05251,3.25623 0.30533,5.10646 -0.74719,1.85023 -3.85763,4.41034 -5.36231,4.32964 z m -0.76941,-7.83722 c -0.75327,0.51937 -3.46975,2.57571 -4.52226,1.22264 -1.05251,-1.35308 -2.67626,-4.28996 -2.71753,-6.7273 0.52916,-0.94403 3.16362,-1.89918 4.4651,-1.96136 1.30149,-0.0622 2.93979,-1.91452 3.91584,-1.57374 0.97604,0.34079 2.35082,1.85209 1.964,3.91584 -0.38682,2.06375 -2.35188,4.60427 -3.10515,5.12392 z m -6.97971,-10.48227 c 0.28231,-0.17753 0.55986,-0.36592 0.82868,-0.57176 l 0.94403,2.90565 a 2.4341667,2.4341667 0 0 0 -0.83794,0.50271 z m -1.623216,5.49143 -1.38245,-4.19312 a 10.552906,10.552906 0 0 0 1.82351,-0.65934 l 1.112836,3.37529 c -0.1942,0.25453 -0.40428,0.52705 -0.648226,0.81148 a 2.5370896,2.5370896 0 0 1 -0.90567,0.66543 z m -0.41725,-7.54486 c -0.66754,0.35349 0.0402,1.27344 -0.52916,1.5875 -0.56939,0.31406 -0.8808,-0.81333 -1.5875,-0.79375 -0.70671,0.0196 -0.52917,0.77946 -0.88424,0.8136 -0.15716,0.0151 -0.3175,0.0143 -0.47625,0.0217 l -0.0979,-4.02167 a 9.2543312,9.2543312 0 0 0 3.0562,-1.03188 l 2.349236,3.13214 c -0.22807,0.17304 -0.459836,0.3392 -0.698496,0.48975 -0.20029,0.12461 -0.46434,-0.55087 -1.13189,-0.19738 z m -3.70416,-7.67291 2.08756,2.78341 a 8.2333042,8.2333042 0 0 1 -2.00316,0.67601 z m 0.42756,11.35724 c 0.33735,-0.0111 0.67019,-0.0426 1.00039,-0.0839 l 1.39859,4.24153 a 5.794375,5.794375 0 0 1 -1.08003,-0.0397 z m 4.09681,5.9772 c 0.989006,0.87021 1.248836,4.29127 5.717646,9.92928 0.44794,0.89085 0.18521,1.3163 -1.03717,1.71291 -1.22237,0.39661 -4.396576,1.63672 -5.919256,-2.14471 -0.41037,-1.15967 0.40799,-2.25028 0.40799,-2.25028 0,0 -1.50522,0.81095 -2.47862,-1.00542 -0.9734,-1.81636 -0.78131,-1.01917 -0.78131,-1.01917 0,0 -1.87325,0.85698 -2.41141,1.30069 -0.53817,0.44371 -0.12939,0.93001 0.89349,1.72429 1.02288,0.79428 4.13676,3.65707 4.81912,5.46021 0.53552,1.1303 -0.74347,2.46459 -0.8501,3.35491 -0.10663,0.89032 -0.61966,3.91584 0.21166,4.19312 0.83133,0.27728 1.63328,-2.79665 2.08572,-4.81912 0.329396,-1.47135 0.507726,-1.93755 0.773636,-2.09021 l 3.22262,10.95745 c -0.77496,0.22411 -1.67693,-0.096 -2.30187,0.62416 -0.62495,0.72019 -2.295786,2.84056 -4.067176,3.64437 -1.11813,0.51752 -1.81901,-0.70671 -1.81901,-0.70671 0,0 -5.0038,8.74078 -5.48825,10.15604 -0.48445,1.41525 -0.25559,1.39461 -2.91042,1.32291 -2.65483,-0.0717 -14.55208,0 -14.55208,0 0,0 0.0704,-11.52525 -0.11245,-12.46372 -0.12938,-0.66437 7.95443,-5.05355 9.29905,-5.93567 1.34461,-0.88212 1.78541,-3.35518 2.2852,-4.54898 0.4998,-1.1938 1.23614,-2.31669 1.57533,-4.63523 0.3392,-2.31855 1.76504,-8.59129 2.28415,-9.81605 0.51911,-1.22475 3.47795,-1.4552 6.18702,-2.19604 2.70907,-0.74083 3.97774,-1.61872 4.96649,-0.74903 z m 4.685766,13.31701 c 0.10584,-0.0709 0.21167,-0.14526 0.31512,-0.22437 0.48101,-0.36777 0.9062,-0.71041 1.32292,-1.00013 l 0.25135,0.76227 a 2.6744083,2.6744083 0 0 0 -0.25029,0.23812 4.1992021,4.1992021 0 0 0 -0.98611,2.2016 z m -1.202,0.5789 7.07311,21.45216 c -1.31366,-0.10769 -1.85209,-0.82418 -1.85209,-0.82418 v -0.52917 l -6.41085,-20.01731 a 2.5929167,2.5929167 0 0 0 1.18957,-0.0815 z m 7.07311,12.16131 c 0.1225,-0.006 0.24288,-0.0148 0.36168,-0.0246 l 2.83104,8.58335 a 7.2879479,7.2879479 0 0 1 -1.07606,0.43709 6.8183125,6.8183125 0 0 1 -0.75723,0.19606 l -3.2184,-9.76154 a 2.5540229,2.5540229 0 0 0 1.85897,0.56965 z m 2.49264,-0.37306 2.26986,6.98765 c 0,0 0.0831,0.50932 -0.44979,1.11839 l -2.6162,-7.93591 c 0.27754,-0.0513 0.54345,-0.10875 0.79613,-0.17013 z m -5.72056,-5.0882 c -0.0426,0.12938 -0.0844,0.24871 -0.12594,0.35983 l -0.71596,-2.17223 a 4.625975,4.625975 0 0 0 1.62904,0.77946 1.7883187,1.7883187 0 0 0 -0.78714,1.03294 z m 3.77296,-0.90461 z m -1.07421,4.77837 -0.19579,0.13679 c -0.33814,0.01 -0.52917,0.09 -1.16417,-0.60854 a 0.38708542,0.38708542 0 0 0 -0.0685,-0.26696 c -0.46885,-0.73925 -1.10782,-1.56105 -0.78582,-2.42465 0.322,-0.8636 0.99775,-1.28958 2.62705,-1.04854 1.6293,0.24104 1.99575,0.62151 2.94455,-0.0794 0.94879,-0.70088 1.8968,-1.75842 2.51354,-1.76133 0.61674,-0.003 0.50641,1.28852 0.27411,2.58948 -0.23231,1.30095 -3.02154,5.57371 -6.14495,3.46313 z"
       style="fill:#ffffff;fill-rule:evenodd;stroke-width:0.264583" />
    <path
       style="fill:#fefefe;stroke-width:0.0479917"
       d="m 132.47422,158.78558 c -0.15837,-0.0191 -0.43913,-0.0377 -0.6239,-0.0414 -0.25281,-0.005 -0.43982,-0.0463 -0.7558,-0.16655 -1.73449,-0.65996 -3.03438,-2.27539 -3.30162,-4.10308 -0.0834,-0.57051 -0.0356,-1.69693 0.0926,-2.18073 0.50051,-1.88915 1.90823,-3.30759 3.7807,-3.80946 0.42962,-0.11517 0.552,-0.12654 1.35996,-0.12654 0.81006,0 0.92988,0.0117 1.36776,0.12805 1.40398,0.37463 2.61648,1.31994 3.30407,2.57601 0.3535,0.64574 0.54206,1.2966 0.6046,2.08685 0.12485,1.57741 -0.36248,3.02299 -1.38908,4.12042 -0.56351,0.60238 -1.39668,1.14106 -2.11166,1.36528 -0.42236,0.13244 -1.76027,0.21934 -2.32761,0.15115 z m -0.71988,-14.51084 c -1.56679,-0.35943 -2.63998,-1.48258 -3.03015,-3.17115 -0.13103,-0.56714 -0.11984,-1.77938 0.0232,-2.5065 0.31152,-1.58406 1.04573,-2.89126 2.42796,-4.32277 0.73756,-0.76385 1.60005,-1.50449 3.22216,-2.76689 3.18491,-2.47866 4.12811,-3.43591 4.82697,-4.89893 0.42217,-0.88376 0.57841,-1.77232 0.47704,-2.71297 -0.26845,-2.49112 -1.78762,-4.09038 -4.38315,-4.61417 -0.46546,-0.0939 -0.68715,-0.10898 -1.59634,-0.10839 -1.20119,5.7e-4 -1.63948,0.0608 -2.47157,0.33893 -1.2159,0.40641 -2.12435,1.11474 -2.85152,2.22342 -0.33661,0.51321 -0.45641,0.74044 -1.24167,2.35524 -0.65298,1.34276 -0.99164,1.86739 -1.53712,2.38126 -0.46136,0.43461 -0.87305,0.67266 -1.49647,0.86528 -0.41691,0.12881 -0.46866,0.13345 -1.48775,0.13345 -1.01725,0 -1.07146,-0.005 -1.48396,-0.13242 -0.7896,-0.24425 -1.35077,-0.57927 -1.81115,-1.08126 -0.79061,-0.86208 -1.07862,-2.02692 -0.90097,-3.64395 0.1167,-1.06247 0.39937,-2.01614 0.9069,-3.06007 1.30198,-2.67801 3.93735,-5.03469 7.18578,-6.42585 1.26632,-0.54231 2.79772,-0.99598 3.87806,-1.14885 0.66106,-0.0935 2.84853,-0.18488 3.5514,-0.1483 0.29034,0.0151 1.06782,0.046 1.7277,0.0686 1.34397,0.0461 2.07547,0.14934 3.43906,0.48543 3.01066,0.74207 5.43593,2.02234 7.21574,3.80913 2.04641,2.05443 3.10397,4.61007 3.2221,7.7864 0.0706,1.89924 -0.26145,3.52016 -1.04618,5.10647 -0.56524,1.14263 -1.28686,2.13638 -2.34452,3.22869 -1.13475,1.17193 -2.10255,1.96361 -4.58321,3.74911 -3.35781,2.41685 -3.55521,2.63835 -4.51205,5.06304 -0.42881,1.08663 -0.58064,1.40301 -0.86742,1.8074 -0.44129,0.6223 -1.06687,1.04626 -1.8717,1.26847 -0.31778,0.0877 -0.53566,0.10746 -1.33936,0.12152 -0.69589,0.0122 -1.03902,-10e-4 -1.24778,-0.0494 z"
       id="path849" />
  </g>
</svg>
