<?xml version="1.0" encoding="UTF-8" standalone="no"?>
<svg
   xmlns:dc="http://purl.org/dc/elements/1.1/"
   xmlns:cc="http://creativecommons.org/ns#"
   xmlns:rdf="http://www.w3.org/1999/02/22-rdf-syntax-ns#"
   xmlns:svg="http://www.w3.org/2000/svg"
   xmlns="http://www.w3.org/2000/svg"
   width="65.271797mm"
   height="43.511765mm"
   viewBox="0 0 65.271797 43.511765"
   version="1.1"
   id="svg8">
  <defs
     id="defs2" />
  <metadata
     id="metadata5">
    <rdf:RDF>
      <cc:Work
         rdf:about="">
        <dc:format>image/svg+xml</dc:format>
        <dc:type
           rdf:resource="http://purl.org/dc/dcmitype/StillImage" />
        <dc:title></dc:title>
      </cc:Work>
    </rdf:RDF>
  </metadata>
  <g
     id="layer1"
     transform="translate(-46.72245,-132.69391)">
    <g
       id="g24"
       transform="matrix(0.48592207,0,0,0.48592207,43.725966,80.506616)">
      <path
         style="fill:#fefefe;stroke-width:0.0846667"
         d="m 90.97964,179.65236 c -2.046816,-0.50786 -3.759863,-1.72041 -4.957963,-3.50941 -0.585398,-0.87411 -0.960398,-1.79852 -1.193384,-2.9418 l -0.175172,-0.85958 0.02189,-28.98148 0.02189,-28.98147 0.224087,-0.81025 c 0.395449,-1.42985 1.115187,-2.65856 2.182478,-3.72585 1.08926,-1.08926 2.396778,-1.83793 3.865885,-2.21355 l 0.754883,-0.19302 h 20.870336 20.87034 l 0.80699,0.22327 c 3.11,0.8604 5.37455,3.2592 6.0636,6.42307 0.15083,0.69254 0.15674,1.81107 0.15674,29.67566 v 28.956 l -0.23291,0.84667 c -0.70235,2.5531 -2.26129,4.44418 -4.57567,5.55051 -0.38212,0.18266 -0.99955,0.41822 -1.37209,0.52346 l -0.67733,0.19136 -20.91267,0.0161 -20.912669,0.0161 z m 43.69188,-36.00024 0.0213,-30.4165 H 112.59469 90.496573 v 30.43783 30.43782 l 22.076837,-0.0213 22.07683,-0.0213 z m -38.925614,16.65817 v -2.87867 h 2.921 2.921004 v 2.87867 2.87866 h -2.921004 -2.921 z m 11.176004,0 v -2.87867 h 9.82133 9.82133 v 2.87867 2.87866 h -9.82133 -9.82133 z M 95.745906,149.21895 v -2.87866 h 2.921 2.921004 v 2.87866 2.87867 h -2.921004 -2.921 z m 11.176004,0 v -2.87866 h 11.21833 11.21833 v 2.87866 2.87867 H 118.14024 106.92191 Z M 95.745906,138.08529 v -2.921 h 2.921 2.921004 v 2.921 2.921 h -2.921004 -2.921 z m 11.176004,0 v -2.921 h 9.82133 9.82133 v 2.921 2.921 h -9.82133 -9.82133 z M 95.745906,126.99395 v -2.921 h 2.921 2.921004 v 2.921 2.921 h -2.921004 -2.921 z m 11.176004,0 v -2.921 h 11.21833 11.21833 v 2.921 2.921 h -11.21833 -11.21833 z"
         id="path32" />
    </g>
    <g
       id="g50"
       transform="translate(-5.8981182,88.206488)">
      <path
         style="fill:#fefefe;stroke-width:0.0846667"
         d="m 52.620568,87.7371 c 0,-0.144152 0.632168,-3.449328 1.40482,-7.344833 1.506981,-7.597803 1.463909,-7.433415 2.161444,-8.249461 0.473968,-0.554495 0.738237,-0.719813 3.25888,-2.03865 l 2.210812,-1.156728 0.05329,-0.443617 c 0.08222,-0.684474 0.06284,-4.448035 -0.02996,-5.819951 -0.167825,-2.480941 -0.432836,-4.478757 -0.85356,-6.434667 -0.219887,-1.022231 -0.271075,-1.475606 -0.305899,-2.709333 -0.03622,-1.283061 -0.01799,-1.59724 0.135971,-2.343884 0.678128,-3.288619 3.306142,-5.865446 6.69508,-6.564674 1.091466,-0.225199 3.268858,-0.179103 4.241001,0.08978 3.131724,0.866204 5.488421,3.224306 6.267761,6.2715 0.09018,0.352612 0.296287,1.803423 0.458009,3.224027 0.675894,5.937214 1.518645,10.465042 2.530263,13.594288 0.300565,0.929745 0.301712,0.931607 0.726235,1.179541 0.326105,0.190456 0.425194,0.296379 0.425194,0.454517 0,0.186614 -0.724681,1.544686 -1.374565,2.575974 -0.305901,0.485427 -0.737173,0.749096 -1.546435,0.945451 -0.62813,0.152407 -4.209664,1.674002 -4.474009,1.900759 -0.282763,0.242556 -0.334071,0.424517 -0.184197,0.653253 0.27587,0.421032 0.437782,0.419948 1.418373,-0.0095 1.073171,-0.46999 1.363336,-0.482494 1.403923,-0.0605 0.03729,0.387666 -0.33503,1.021015 -1.670224,2.841224 -0.60951,0.830917 -1.1082,1.561621 -1.1082,1.623786 0,0.18274 0.260483,0.390221 0.455054,0.362462 0.120392,-0.01718 0.53021,-0.494585 1.23828,-1.442511 0.582083,-0.779261 1.124636,-1.493636 1.205671,-1.5875 0.163452,-0.189326 0.566095,-0.227695 0.724729,-0.06906 0.244304,0.244304 0.09722,0.599405 -0.999067,2.412114 -0.605367,1.000968 -1.100667,1.847335 -1.100667,1.880816 0,0.112985 0.344291,0.43147 0.466431,0.43147 0.167547,0 0.317598,-0.219209 1.506648,-2.201053 0.636614,-1.061073 1.099626,-1.746538 1.191714,-1.764273 0.08283,-0.01595 0.242838,-0.0059 0.355571,0.02244 0.343992,0.08634 0.255444,0.453311 -0.558044,2.312748 l -0.763013,1.744065 0.185105,0.197037 c 0.391577,0.416814 0.541745,0.225699 1.4284,-1.817885 l 0.708914,-1.633918 0.300305,0.02525 c 0.432211,0.03634 0.423309,0.232367 -0.07722,1.700401 -0.234745,0.688498 -0.426809,1.301718 -0.426809,1.362711 0,0.145594 0.274992,0.391141 0.438044,0.391141 0.238468,0 0.385134,-0.291964 0.829372,-1.651001 0.341528,-1.044823 0.616216,-1.679036 1.200967,-2.772844 l 0.758158,-1.418179 0.01656,-1.206488 0.01656,-1.206489 0.846667,-1.458789 c 0.675718,-1.164248 0.883183,-1.459135 1.027519,-1.4605 0.251468,-0.0024 1.151684,0.615837 1.516617,1.041524 0.731359,0.853115 0.669609,0.619506 2.18951,8.283171 0.772578,3.895505 1.404688,7.200681 1.404688,7.344833 V 87.99919 H 71.585902 52.620568 Z m 14.646718,-1.775425 c 1.436048,-0.39795 2.601342,-1.243675 3.430374,-2.489633 0.501076,-0.75307 0.569575,-0.806847 1.027733,-0.806847 0.430942,0 0.585539,0.114947 0.96705,0.719027 0.767247,1.214849 2.27761,2.304034 3.634792,2.621195 2.957514,0.691146 6.081537,-1.277946 6.860669,-4.324323 0.228087,-0.891812 0.208162,-0.928942 -0.136123,-0.253663 -0.966288,1.895273 -2.64451,3.052821 -4.741447,3.270396 -2.378845,0.246826 -4.406544,-0.642336 -5.784173,-2.536402 -0.233156,-0.320562 -0.504806,-0.608511 -0.603665,-0.639888 -0.309349,-0.09818 -0.617998,0.115308 -1.056261,0.73061 -0.776487,1.090154 -1.973438,1.916507 -3.305816,2.282276 -0.850214,0.233403 -2.32589,0.25337 -3.213518,0.04348 -1.671293,-0.395194 -3.135633,-1.57198 -3.947304,-3.172167 -0.270792,-0.533856 -0.308749,-0.413033 -0.110544,0.351866 0.523385,2.019809 2.2921,3.751826 4.337963,4.247958 0.745202,0.180715 1.898974,0.161537 2.64027,-0.04389 z m 6.096616,-14.491537 c 0.954616,-1.54263 1.883188,-3.045479 2.063492,-3.339666 l 0.327826,-0.534885 -0.195773,-1.559274 -0.195772,-1.559274 -0.443249,0.394578 c -1.713271,1.52514 -4.010866,1.910828 -6.366832,1.068773 -0.447628,-0.159988 -0.83876,-0.262832 -0.869184,-0.228542 -0.03042,0.03429 -0.102419,0.473329 -0.159989,0.97564 l -0.104673,0.913295 0.326243,0.531631 c 1.852924,3.019432 3.805867,6.143827 3.839911,6.143238 0.02328,-4.23e-4 0.823383,-1.262884 1.778,-2.805514 z m -1.722983,-7.549715 c 0.716295,-0.19072 1.304268,-0.562712 1.996657,-1.263219 1.537414,-1.55544 2.394345,-3.423517 2.492862,-5.434344 0.04358,-0.889434 -0.145091,-3.089279 -0.40482,-4.720167 l -0.09101,-0.5715 -0.606184,-0.0016 c -1.603178,-0.0044 -3.848556,-0.572545 -5.039567,-1.275259 -0.157827,-0.09312 -0.298033,-0.158235 -0.31157,-0.144698 -0.01354,0.01354 -0.08465,0.486081 -0.158025,1.0501 -0.392757,3.018967 -1.666955,5.208795 -4.217657,7.248439 l -0.738635,0.590643 0.13628,0.26671 c 0.310021,0.606731 1.016473,1.526504 1.593363,2.074493 1.001988,0.951791 1.991408,1.553548 3.261294,1.983495 1.043335,0.353243 1.380524,0.385063 2.087017,0.196952 z m -2.660845,-1.791697 c -0.151859,-0.106366 -0.188172,-0.21363 -0.188172,-0.55583 0,-0.397238 0.02666,-0.450002 0.422032,-0.835102 0.232118,-0.22609 0.641693,-0.518891 0.910166,-0.65067 0.463414,-0.227463 0.546642,-0.239597 1.643413,-0.239597 1.017256,0 1.17657,0.01927 1.3335,0.161289 0.2114,0.191315 0.25352,0.898485 0.06294,1.056656 -0.0734,0.06091 -0.434865,0.08791 -0.994834,0.07429 -1.047247,-0.02546 -1.410788,0.104042 -2.039715,0.726616 -0.437526,0.433107 -0.790501,0.513678 -1.149326,0.262346 z"
         id="path62" />
    </g>
  </g>
</svg>
