<?xml version="1.0" encoding="UTF-8" standalone="no"?>
<svg
   xmlns:dc="http://purl.org/dc/elements/1.1/"
   xmlns:cc="http://creativecommons.org/ns#"
   xmlns:rdf="http://www.w3.org/1999/02/22-rdf-syntax-ns#"
   xmlns:svg="http://www.w3.org/2000/svg"
   xmlns="http://www.w3.org/2000/svg"
   width="75.981369mm"
   height="85.410301mm"
   viewBox="0 0 75.981369 85.410301"
   version="1.1"
   id="svg8">
  <defs
     id="defs2">
    <style
       id="style2">
      .cls-1 {
        fill-rule: evenodd;
      }
    </style>
    <style
       id="style2-7">
      .cls-1 {
        fill-rule: evenodd;
      }
    </style>
  </defs>
  <metadata
     id="metadata5">
    <rdf:RDF>
      <cc:Work
         rdf:about="">
        <dc:format>image/svg+xml</dc:format>
        <dc:type
           rdf:resource="http://purl.org/dc/dcmitype/StillImage" />
        <dc:title></dc:title>
      </cc:Work>
    </rdf:RDF>
  </metadata>
  <g
     id="layer1"
     transform="translate(-73.051822,-99.322183)">
    <path
       style="fill:#fefefe;stroke-width:0.0846667"
       d="m 110.49304,184.6944 c -6.99537,-0.85611 -13.895576,-3.87965 -19.64267,-8.60703 -0.738705,-0.60764 -2.822552,-2.51684 -3.217092,-2.94747 -0.186133,-0.20316 -0.586183,-0.63762 -0.889,-0.96547 -7.602811,-8.2313 -12.246532,-20.11515 -13.497033,-34.54058 -0.310823,-3.58555 -0.235285,-17.28146 0.116267,-21.08074 0.309043,-3.33987 0.355632,-3.53513 1.007002,-4.2206 0.494094,-0.51996 -0.804313,-0.0203 13.897523,-5.34802 5.764064,-2.08881 18.526703,-6.71906 19.849053,-7.201187 l 1.26472,-0.46112 h 1.67574 c 1.26938,0 1.75313,0.0301 1.99494,0.12395 0.17557,0.0682 3.32911,1.214667 7.00788,2.547777 7.2473,2.62627 10.96156,3.973 20.51139,7.4371 3.41149,1.23748 6.34519,2.32301 6.51933,2.41227 0.42183,0.21625 0.90991,0.71662 1.1177,1.14586 0.37468,0.77399 0.66288,4.25962 0.7741,9.36238 0.10869,4.98628 0.0317,13.47013 -0.13951,15.367 -1.37778,15.26762 -6.30483,27.26364 -14.63626,35.63533 -1.56667,1.57423 -2.82446,2.67355 -4.46598,3.90329 -5.25527,3.93698 -11.54095,6.56795 -17.60121,7.36725 -0.94101,0.12412 -1.13676,0.13244 -1.64689,0.07 z m 1.47938,-5.74697 c 1.91506,-0.31057 4.31481,-1.00271 6.41646,-1.85064 6.02138,-2.4294 11.13718,-6.38238 15.13167,-11.69227 5.46235,-7.26111 8.78158,-17.02463 9.77651,-28.75763 0.48827,-5.75794 0.44405,-12.89643 -0.11757,-18.97918 -0.0637,-0.69015 -0.12904,-1.26629 -0.14515,-1.28032 -0.0279,-0.0243 -1.42161,-0.53147 -11.41697,-4.1546 -2.39818,-0.8693 -6.91303,-2.50672 -10.033,-3.63873 -9.91372,-3.59696 -10.39401,-3.76854 -10.54843,-3.76854 -0.0833,0 -2.03024,0.68276 -4.32652,1.51724 -2.29628,0.83449 -6.53725,2.37393 -9.424383,3.42099 -12.532319,4.54503 -14.994256,5.43811 -16.569482,6.01065 l -1.66815,0.60633 -0.04562,0.29723 c -0.05798,0.37776 -0.265568,3.09507 -0.404317,5.29256 -0.143208,2.26812 -0.141575,10.25828 0.0025,12.27666 0.523723,7.33652 1.512729,12.75582 3.315772,18.16891 2.073711,6.2257 4.952106,11.30027 8.928842,15.74143 4.878649,5.44841 11.768228,9.37414 18.801778,10.71338 1.24099,0.23629 1.32409,0.23902 2.32605,0.0765 z"
       id="path851" />
    <path
       id="IconGraphic"
       class="cls-1"
       d="m 102.62998,128.48202 2.86881,4.03497 a 0.75061958,0.75061958 0 0 1 -0.0711,0.93396 l -6.016123,6.01611 a 0.54364794,0.54364794 0 0 1 -0.18079,0.11805 l 1.911903,4.19139 -5.586393,5.58638 -3.460611,-7.75784 c 0,0 -0.732125,-1.85676 -1.724172,-0.86471 l -2.148607,2.14861 -3.893775,-9.05045 16.329438,-16.32944 -1.725883,-1.72589 3.437773,-3.43777 8.198,8.198 z m -1.60652,1.5722 -4.51209,4.51208 a 0.53826528,0.53826528 0 0 0 -0.09846,0.65073 l 2.014897,2.95562 a 0.34292707,0.34292707 0 0 0 0.54625,0.006 l 4.512203,-4.51221 a 0.53826528,0.53826528 0 0 0 0.0983,-0.65059 l -2.01453,-2.95601 a 0.34292707,0.34292707 0 0 0 -0.54625,-0.006 z"
       style="fill:#ffffff;fill-rule:evenodd;stroke-width:0.173634" />
    <g
       id="layer1-6"
       transform="matrix(0.94593943,0,0,0.94593943,8.0212343,16.241414)">
      <path
         id="IconGraphic-9"
         class="cls-1"
         d="m 120.66505,137.34416 c 2.12677,1.32304 3.57705,2.33674 4.35081,3.04109 0.86424,0.83996 1.53281,1.86003 1.9582,2.98766 0.57511,1.53727 0.84598,3.17167 0.79754,4.8123 0,3.07297 -0.71822,5.48465 -2.15463,7.23502 -1.43641,1.75039 -3.59124,2.83147 -6.46453,3.24325 v 3.24393 h -3.85417 v -3.35042 c -2.19584,-0.20833 -4.25937,-1.14338 -5.86375,-2.65701 -1.6715,-1.54326 -2.50723,-4.23564 -2.50723,-8.0772 v -1.68638 h 8.37098 v 2.11405 c 0,2.31905 0.0864,3.75951 0.25897,4.32142 0.15418,0.55053 0.68526,0.90767 1.25328,0.84284 0.49408,0.0343 0.9712,-0.1872 1.2641,-0.58658 0.31099,-0.52453 0.45552,-1.13105 0.4145,-1.73944 0,-1.93454 -0.13129,-3.31809 -0.39386,-4.15068 -0.2626,-0.8326 -1.16043,-1.73957 -2.69353,-2.72091 -1.80175,-1.11813 -3.54119,-2.33366 -5.21058,-3.64118 -1.01834,-0.90987 -1.83073,-2.02667 -2.38283,-3.27572 -0.6892,-1.49786 -1.0326,-3.1316 -1.00479,-4.78017 0,-2.57487 0.70785,-4.59515 2.12352,-6.06088 1.41568,-1.4657 3.53954,-2.36918 6.37155,-2.71041 v -2.75167 h 3.85417 v 2.75302 c 2.58276,0.34147 4.5166,1.23423 5.80155,2.67832 1.28497,1.44406 1.92732,3.43944 1.9271,5.98612 0,0.3559 -0.0276,0.89683 -0.0828,1.62281 h -8.37134 v -1.43077 c 0,-1.52206 -0.0967,-2.51795 -0.29007,-2.98766 -0.19339,-0.46971 -0.60778,-0.70445 -1.24315,-0.70423 -0.46585,-0.0236 -0.90717,0.20997 -1.14949,0.60855 -0.29176,0.56223 -0.42424,1.19356 -0.38304,1.82567 0,1.35233 0.26235,2.29897 0.78706,2.83991 0.51119,0.53914 2.01667,1.59092 4.51649,3.15535 z"
         style="fill:#ffffff;fill-rule:evenodd;stroke-width:0.338085" />
    </g>
  </g>
</svg>
