<?xml version="1.0" encoding="UTF-8" standalone="no"?>
<svg
   xmlns:dc="http://purl.org/dc/elements/1.1/"
   xmlns:cc="http://creativecommons.org/ns#"
   xmlns:rdf="http://www.w3.org/1999/02/22-rdf-syntax-ns#"
   xmlns:svg="http://www.w3.org/2000/svg"
   xmlns="http://www.w3.org/2000/svg"
   width="62.968613mm"
   height="53.974743mm"
   viewBox="0 0 62.968613 53.974743"
   version="1.1"
   id="svg953">
  <defs
     id="defs947">
    <style
       id="style2">
      .cls-1 {
        fill-rule: evenodd;
      }
    </style>
  </defs>
  <metadata
     id="metadata950">
    <rdf:RDF>
      <cc:Work
         rdf:about="">
        <dc:format>image/svg+xml</dc:format>
        <dc:type
           rdf:resource="http://purl.org/dc/dcmitype/StillImage" />
        <dc:title></dc:title>
      </cc:Work>
    </rdf:RDF>
  </metadata>
  <g
     id="layer1"
     transform="translate(-90.266157,-113.61977)">
    <path
       id="IconGraphic"
       class="cls-1"
       d="m 134.40289,126.05493 h -5.10011 a 3.5679062,3.5679062 0 0 1 -2.96968,1.5875 h -4.21428 a 4.75615,4.75615 0 0 1 -4.1201,2.38125 h -14.02291 a 4.7625001,4.7625001 0 0 1 0,-9.525 h 0.26802 a 5.1564646,5.1564646 0 0 1 8.78972,-3.52796 5.159375,5.159375 0 0 1 9.93934,1.07712 3.8306375,3.8306375 0 0 1 6.64104,2.14604 2.9077708,2.9077708 0 0 1 4.41193,1.62771 h 0.37703 a 2.11667,2.11667 0 0 1 0,4.23334 z m -33.07292,4.7625 h 19.62785 c 0,0 -0.0265,0.38153 -0.0595,1.05833 h -19.48603 c -0.0466,-0.67707 -0.0823,-1.05833 -0.0823,-1.05833 z m 0.17436,2.64583 h 19.33231 c -0.12276,4.02908 -0.12356,12.00177 1.32292,19.23203 1.58062,7.89517 9.86208,14.89922 9.86208,14.89922 H 90.266157 c 0,0 8.523817,-7.14004 10.122433,-15.12808 1.4351,-7.16941 1.3118,-15.01669 1.11574,-19.00317 z m 9.61523,27.25208 a 8.4666667,8.4666667 0 1 0 -8.46667,-8.46666 8.4666667,8.4666667 0 0 0 8.46667,8.46666 z m 0,-14.94895 a 6.4822917,6.4822917 0 1 1 -6.48229,6.48229 6.4822917,6.4822917 0 0 1 6.48229,-6.48229 z m 0,5.49142 a 0.84878333,0.84878333 0 1 0 0.85116,0.84879 0.83872917,0.83872917 0 0 0 -0.85116,-0.84879 z m 5.14138,0.79561 a 4.5807312,4.5807312 0 0 0 -0.51461,-2.58128 4.6429083,4.6429083 0 0 0 -1.84309,-1.85658 l -1.89733,3.02366 a 1.3758333,1.3758333 0 0 1 0.56753,0.52916 2.2489583,2.2489583 0 0 1 0.19527,0.88371 h 3.4925 z m -5.21229,5.35754 a 4.7069375,4.7069375 0 0 0 2.51751,-0.76041 l -1.64862,-3.07631 a 2.0931187,2.0931187 0 0 1 -0.86889,0.24765 1.5507229,1.5507229 0 0 1 -0.72655,-0.24765 l -1.7907,3.07631 a 4.7079958,4.7079958 0 0 0 2.51725,0.76041 z m -5.06995,-5.35754 h 3.4925 a 2.2391687,2.2391687 0 0 1 0.19474,-0.88371 1.3776854,1.3776854 0 0 1 0.56753,-0.52917 l -1.8968,-3.02366 a 4.6415854,4.6415854 0 0 0 -1.84388,1.85658 4.5772917,4.5772917 0 0 0 -0.51409,2.57996 z"
       style="fill:#ffffff;fill-rule:evenodd;stroke-width:0.264583" />
    <path
       style="fill:#fefefe;stroke-width:0.0703207"
       d="m 139.17081,167.24281 c 0,-0.22534 0.84583,-10.60384 0.92499,-11.34985 l 0.0371,-0.34967 h -4.97031 -4.97031 l 0.0188,-0.20953 c 0.0134,-0.14934 2.39499,-3.59629 8.29161,-12.00046 4.55008,-6.48502 8.35775,-11.92434 8.46149,-12.08736 0.22027,-0.34614 0.48035,-0.41223 0.47842,-0.12159 -7.1e-4,0.0961 -1.04237,3.72404 -2.31499,8.06195 l -2.31385,7.8871 5.21051,0.0199 5.2105,0.0199 -0.001,0.17438 c -0.002,0.26486 -13.70652,20.13656 -13.90979,20.16927 -0.13252,0.0213 -0.15282,-0.007 -0.15282,-0.214 z"
       id="path484" />
  </g>
</svg>
