<svg id="Layer_5" enable-background="new 0 0 64 64" height="512" viewBox="0 0 64 64" width="512" xmlns="http://www.w3.org/2000/svg"><g><ellipse cx="9" cy="50" rx="2" ry="1"/><path d="m34 51h-4v6h4zm-2 4.036c-.552 0-1-.448-1-1s.448-1 1-1 1 .448 1 1c0 .553-.448 1-1 1z"/><path d="m24 51h-4v6h4zm-2 4.036c-.552 0-1-.448-1-1s.448-1 1-1 1 .448 1 1c0 .553-.448 1-1 1z"/><path d="m7 52.595v1.405c0 .408.779 1 2 1s2-.592 2-1v-1.405c-.587.251-1.262.405-2 .405s-1.413-.154-2-.405z"/><path d="m37.699 28.56-2.277-.456-1.839 2.452 2.86 1.144z"/><path d="m21 45h2v-4h-1c-1.103 0-2-.897-2-2v-4h2v4h7c1.2 0 2.266.542 3 1.382.734-.84 1.8-1.382 3-1.382h7v-4h2v4c0 1.103-.897 2-2 2h-1v4h2c2.757 0 5-2.243 5-5v-3.732c0-1.84-.717-3.571-2.018-4.872-.965-.965-2.182-1.616-3.52-1.884l-2.768-.554-2.137 5.342-5.557-2.223-5.557 2.223-2.137-5.341-2.768.554c-1.338.268-2.555.919-3.521 1.884-1.3 1.3-2.017 3.031-2.017 4.871v3.732c0 2.757 2.243 5 5 5zm10-9h2v2h-2z"/><path d="m33 43c0 1.103.897 2 2 2h4v-4h-4c-1.103 0-2 .897-2 2z"/><path d="m26.301 28.56 1.256 3.14 2.86-1.144-1.839-2.452z"/><path d="m25 41v4h4c1.103 0 2-.897 2-2s-.897-2-2-2z"/><path d="m24 18v-4c-1.103 0-2 .897-2 2s.897 2 2 2z"/><path d="m38 13c0-.551-.449-1-1-1h-10c-.551 0-1 .449-1 1v5c0 3.309 2.691 6 6 6s6-2.691 6-6zm-9 1c.552 0 1 .448 1 1s-.448 1-1 1-1-.448-1-1 .448-1 1-1zm6.789 5.658c-.722 1.445-2.174 2.342-3.789 2.342s-3.067-.897-3.789-2.342l-.105-.211 1.789-.895.105.212c.381.762 1.147 1.236 2 1.236s1.619-.474 2-1.236l.105-.211 1.789.895zm-.789-3.658c-.552 0-1-.448-1-1s.448-1 1-1 1 .448 1 1-.448 1-1 1z"/><path d="m43 47h-8c-1.2 0-2.266-.542-3-1.382-.734.84-1.8 1.382-3 1.382h-8c-1.902 0-3.627-.765-4.89-2h-13.11v16h58v-16h-13.11c-1.263 1.235-2.988 2-4.89 2zm-30 7c0 1.682-1.757 3-4 3s-4-1.318-4-3v-4c0-1.682 1.757-3 4-3s4 1.318 4 3zm13 5h-8v-10h8zm10 0h-8v-10h8zm10 0h-8v-10h8zm5-9c0-1.682 1.757-3 4-3s4 1.318 4 3v4c0 1.682-1.757 3-4 3s-4-1.318-4-3z"/><path d="m40 14v4c1.103 0 2-.897 2-2s-.897-2-2-2z"/><path d="m22.411 12.333c.487-.212 1.024-.333 1.589-.333h.184c.414-1.161 1.514-2 2.816-2h10c1.302 0 2.402.839 2.816 2h.184c.469 0 .913.096 1.331.245l.617-3.086c.034-.172.052-.347.052-.521 0-1.146-.731-2.161-1.818-2.523l-.722-.241-1.409-1.41c-.945-.944-2.201-1.464-3.536-1.464h-8.645c-2.685 0-4.87 2.185-4.87 4.87 0 .623.117 1.23.348 1.808z"/><path d="m55 55c1.221 0 2-.592 2-1v-1.405c-.587.251-1.262.405-2 .405s-1.413-.154-2-.405v1.405c0 .408.779 1 2 1z"/><path d="m44 51h-4v6h4zm-2 4.036c-.552 0-1-.448-1-1s.448-1 1-1 1 .448 1 1c0 .553-.448 1-1 1z"/><path d="m34 26.667v-.93c-.641.166-1.308.263-2 .263s-1.359-.097-2-.263v.93l2 2.667z"/><ellipse cx="55" cy="50" rx="2" ry="1"/><path d="m8 16h2v2h-2z"/><path d="m8 20h2v2h-2z"/><path d="m10 18h2v2h-2z"/><path d="m6 18h2v2h-2z"/><path d="m5 29h2v2h-2z"/><path d="m5 33h2v2h-2z"/><path d="m7 31h2v2h-2z"/><path d="m3 31h2v2h-2z"/><path d="m54 16h2v2h-2z"/><path d="m54 20h2v2h-2z"/><path d="m52 18h2v2h-2z"/><path d="m56 18h2v2h-2z"/><path d="m57 3h2v2h-2z"/><path d="m57 7h2v2h-2z"/><path d="m55 5h2v2h-2z"/><path d="m59 5h2v2h-2z"/><path d="m5 3h2v2h-2z"/><path d="m5 7h2v2h-2z"/><path d="m3 5h2v2h-2z"/><path d="m7 5h2v2h-2z"/><path d="m57 29h2v2h-2z"/><path d="m57 33h2v2h-2z"/><path d="m55 31h2v2h-2z"/><path d="m59 31h2v2h-2z"/></g></svg>