<?xml version="1.0" encoding="UTF-8" standalone="no"?>
<svg
   xmlns:dc="http://purl.org/dc/elements/1.1/"
   xmlns:cc="http://creativecommons.org/ns#"
   xmlns:rdf="http://www.w3.org/1999/02/22-rdf-syntax-ns#"
   xmlns:svg="http://www.w3.org/2000/svg"
   xmlns="http://www.w3.org/2000/svg"
   width="51.256809mm"
   height="60.060421mm"
   viewBox="0 0 51.256809 60.060421"
   version="1.1"
   id="svg8">
  <defs
     id="defs2">
    <style
       id="style2">
      .cls-1 {
        fill-rule: evenodd;
      }
    </style>
    <style
       id="style2-6">
      .cls-1 {
        fill-rule: evenodd;
      }
    </style>
    <style
       id="style2-7">
      .cls-1 {
        fill-rule: evenodd;
      }
    </style>
  </defs>
  <metadata
     id="metadata5">
    <rdf:RDF>
      <cc:Work
         rdf:about="">
        <dc:format>image/svg+xml</dc:format>
        <dc:type
           rdf:resource="http://purl.org/dc/dcmitype/StillImage" />
        <dc:title></dc:title>
      </cc:Work>
    </rdf:RDF>
  </metadata>
  <g
     id="layer1"
     transform="translate(-69.717707,-131.74387)">
    <path
       id="IconGraphic"
       class="cls-1"
       d="m 120.8107,176.77325 c -0.0384,0.41034 -0.94161,1.01939 -1.57954,0.90522 -0.63793,-0.11417 -2.74479,-1.55274 -2.70768,-2.03669 0.0594,-0.77422 1.44496,-3.50856 1.80517,-3.62089 0.36019,-0.11233 2.13451,1.57191 2.48241,1.81046 0.34791,0.23853 0.0382,2.53157 -3.6e-4,2.9419 z m -6.31801,0.4526 c 0,0 -0.33426,0.46159 -0.67701,0.45262 -0.34274,-0.009 -1.04459,-0.49465 -1.12815,-0.90522 -0.0836,-0.41058 -0.0232,-2.62988 0,-3.16827 0.0232,-0.53841 0.15976,-0.54909 0.45126,-0.67886 0.2915,-0.12977 0.70135,-0.25808 0.45126,-0.67898 -0.25009,-0.4209 -0.83567,0.0839 -0.90252,0.22625 -0.0669,0.1423 -0.63707,0.51306 -0.90265,0.22636 -0.26556,-0.2867 -0.43442,-1.14708 -0.45125,-1.8107 -0.0168,-0.66361 -0.39165,-0.7382 -0.45126,-0.4526 -0.0596,0.2856 0.0369,1.30265 0,1.35783 -0.0597,0.0549 -0.28265,-0.50926 -0.67701,-0.45261 -0.39436,0.0567 -0.076,0.39951 0.22562,0.67898 a 0.84795477,0.84795477 0 0 1 0.22565,0.90523 4.9638535,4.9638535 0 0 1 -0.67691,1.35782 c -0.37088,0.51861 -0.80137,0.61557 -0.45126,0.90522 0.35013,0.28967 0.7547,1.2798 0.45126,1.81045 -0.30341,0.53065 -0.42102,0.32948 -0.67688,0.45261 -0.25586,0.12315 -1.19328,1.17411 -1.3539,1.58409 -0.16063,0.40995 0.2523,0.8837 0.22563,1.13146 -0.0267,0.24775 -0.52156,0.0958 -1.12827,0.67898 -0.60672,0.58324 -0.79204,1.16489 -0.67689,1.58406 0.11515,0.41919 1.20077,1.85433 1.57953,2.48944 0.37875,0.63511 -2.28125,0.57869 -4.73859,-0.45261 -2.45736,-1.03132 -2.46546,-1.98422 -2.93344,-2.26282 -0.467974,-0.27859 -7.446262,0 -7.446262,0 v -11.31553 c 0,0 8.822532,1.29369 9.477182,1.35809 0.69802,0.0645 0.79363,-0.30724 1.35378,-0.90523 0.56013,-0.59799 4.74534,-3.83644 5.86685,-4.52611 1.12153,-0.68967 2.1489,-0.50386 2.48243,-0.22636 0.33352,0.27748 4.73822,4.29961 4.73822,4.29961 0,0 0.79093,0.50927 0.45126,1.35784 -0.33967,0.84857 -2.70768,4.97896 -2.70768,4.97896 z m -5.86686,3.62089 c 0.50054,0.0255 4.03982,3.08546 4.28733,3.84714 0.2475,0.76169 -0.40481,1.26714 -0.90264,1.58421 -0.49784,0.31706 -1.52509,1.01287 -2.0308,0.22625 -0.5057,-0.78664 -2.7309,-3.92469 -2.70779,-4.52613 0.0231,-0.60143 0.85348,-1.1569 1.3539,-1.13147 z m 1.80515,-5.20496 c -0.18433,-0.61925 0.86689,-2.16769 1.12828,-1.81043 0.26139,0.35723 0.3978,2.52406 0.22562,3.16827 -0.17216,0.6442 -1.16943,-0.73871 -1.3539,-1.35784 z m -0.22562,2.4893 c 0.68647,-0.6614 1.57952,0 1.57952,0 0,0 2.61146,2.10416 3.38469,2.71591 0.77325,0.61176 0.9126,1.4398 0.45127,2.03669 -0.46134,0.59689 -0.90253,1.1316 -0.90253,1.1316 0,0 -0.72652,0.84143 -1.57952,0 -0.85298,-0.84144 -4.11429,-3.71269 -4.06183,-4.52636 0.0524,-0.81367 0.44241,-0.69644 1.1284,-1.35784 z m 3.38469,0.45261 c 0.13604,-0.37064 1.34898,-0.0165 1.57952,-0.22624 0.17108,-0.20979 0.42287,-1.27967 0.67691,-1.5842 0.25401,-0.30453 0.45874,-0.29126 1.35389,0.22637 0.89514,0.51762 1.57953,0.90522 1.57953,0.90522 0,0 0.46551,0.39411 0.22563,1.13147 -0.23989,0.73734 -0.87254,2.03668 -2.03079,2.03668 -1.15826,0 -3.5206,-2.11865 -3.38469,-2.4893 z"
       style="fill:#ffffff;fill-rule:evenodd;stroke-width:0.122892" />
    <path
       id="IconGraphic-1"
       class="cls-1"
       d="m 85.314107,141.00429 a 6.2163854,6.2163854 0 0 1 -12.40738,0 h -0.014 v -4.88739 h 12.29678 v 0.24183 l 3.8428,4.64556 z m -12.4214,-9.26042 h 12.29678 v 2.82946 h -12.29678 z m 12.43542,16.66875 a 3.175,3.175 0 0 1 3.175,3.175 v 16.66875 a 3.175,3.175 0 0 1 -3.175,3.175 v 17.4625 a 2.91042,2.91042 0 0 1 -5.82084,0 v -17.4625 h -1.05833 v 17.4625 a 2.9104167,2.9104167 0 0 1 -5.82083,0 v -17.47599 a 3.1734125,3.1734125 0 0 1 -2.91042,-3.16151 v -16.66875 a 3.175,3.175 0 0 1 3.175,-3.175 z"
       style="fill:#ffffff;fill-rule:evenodd;stroke-width:0.264583" />
    <path
       id="IconGraphic-9"
       class="cls-1"
       d="m 110.73332,155.55756 -0.71867,4.25463 a 0.6541978,0.6541978 0 0 1 -0.61939,0.53178 h -7.41514 a 0.47381295,0.47381295 0 0 1 -0.18417,-0.0386 l -1.40479,3.7613 h -6.8855 l 2.648267,-6.91365 c 0,0 0.69309,-1.59547 -0.529654,-1.59547 h -2.648267 l 3.177921,-7.97718 h 20.126823 v -2.12724 h 4.23724 v 10.10442 z m -1.95897,-0.0212 H 103.213 a 0.46912174,0.46912174 0 0 0 -0.46171,0.34034 l -0.57974,3.06322 a 0.29887594,0.29887594 0 0 0 0.33292,0.34033 h 5.56152 a 0.46912174,0.46912174 0 0 0 0.46155,-0.34033 l 0.5802,-3.06322 a 0.29887594,0.29887594 0 0 0 -0.33293,-0.34034 z"
       style="fill:#ffffff;fill-rule:evenodd;stroke-width:0.15133" />
  </g>
</svg>
