<?xml version="1.0" encoding="UTF-8" standalone="no"?>
<svg
   xmlns:dc="http://purl.org/dc/elements/1.1/"
   xmlns:cc="http://creativecommons.org/ns#"
   xmlns:rdf="http://www.w3.org/1999/02/22-rdf-syntax-ns#"
   xmlns:svg="http://www.w3.org/2000/svg"
   xmlns="http://www.w3.org/2000/svg"
   width="53.181252mm"
   height="57.683636mm"
   viewBox="0 0 53.181252 57.683636"
   version="1.1"
   id="svg32">
  <defs
     id="defs26">
    <style
       id="style2">
      .cls-1 {
        fill-rule: evenodd;
      }
    </style>
  </defs>
  <metadata
     id="metadata29">
    <rdf:RDF>
      <cc:Work
         rdf:about="">
        <dc:format>image/svg+xml</dc:format>
        <dc:type
           rdf:resource="http://purl.org/dc/dcmitype/StillImage" />
        <dc:title></dc:title>
      </cc:Work>
    </rdf:RDF>
  </metadata>
  <g
     id="layer1"
     transform="translate(-38.799256,-178.33151)">
    <path
       id="IconGraphic"
       class="cls-1"
       d="m 84.338546,197.36295 0.449791,1.38615 -0.835025,0.60669 3.241411,1.62084 4.116123,16.08958 -1.122628,0.37412 -6.198129,-15.49824 0.846667,29.44813 h -3.325283 l 0.921543,-32.02993 -0.764381,-0.55562 -2.090208,2.37728 -16.683831,-0.14791 -0.068,-1.19724 19.178058,-2.3569 0.198173,-0.61013 h 1.446479 l -1.1938,-3.57955 8.466667,-14.2875 1.058333,0.52917 z m -7.384521,25.15844 h -9.525 l -5.875602,-12.29784 h 9.525 z m -5.045869,-9.53082 h -1.42875 l 0.881327,1.84467 h 1.42875 z m -1.22846,4.1402 h 1.42875 l -0.881328,-1.84468 h -1.42875 z m -1.230578,-1.84468 h -1.42875 l 0.881328,1.84468 h 1.42875 z m 1.445948,2.29553 0.881327,1.84467 h 1.42875 l -0.881327,-1.84467 z m -0.34925,0 h -1.42875 l 0.881327,1.84467 h 1.42875 z m -1.778,0 h -1.42875 l 0.881327,1.84467 h 1.42875 z m -0.21537,-0.4498 -0.881328,-1.84467 h -1.42875 l 0.881328,1.84467 z m -1.096963,-2.29552 -0.881327,-1.84468 h -1.42875 l 0.881327,1.84468 z m 0.34925,0 h 1.42875 l -0.881327,-1.84468 h -1.42875 z m 1.778,0 h 1.42875 l -0.881327,-1.84468 h -1.42875 z m 3.422385,0.44979 h -1.42875 l 0.881328,1.84468 h 1.42875 z m 1.096698,2.29553 h -1.42875 l 0.881327,1.84467 h 1.42875 z m 1.978025,4.1402 -0.881327,-1.84468 h -1.42875 l 0.881327,1.84468 z m -1.778,0 -0.881327,-1.84468 h -1.42875 l 0.881327,1.84468 z m -1.778,0 -0.881327,-1.84468 h -1.42875 l 0.881327,1.84468 z m -1.778,0 -0.881327,-1.84468 h -1.42875 l 0.881327,1.84468 z m -3.20675,0 h 1.42875 l -0.881327,-1.84468 h -1.42875 z m -1.096697,-2.29553 h 1.42875 l -0.881328,-1.84467 h -1.42875 z m -1.096698,-2.29552 h 1.42875 l -0.881327,-1.84468 h -1.42928 z m -1.096963,-2.29553 h 1.42875 l -0.881327,-1.84467 h -1.42875 z m -1.978025,-4.1402 0.881327,1.84468 h 1.42875 l -0.881327,-1.84468 z m 1.778,0 0.881327,1.84468 h 1.42875 l -0.881327,-1.84468 z m 1.778,0 0.881327,1.84468 h 1.42875 l -0.881327,-1.84468 z m 1.778,0 0.881327,1.84468 h 1.42875 l -0.881327,-1.84468 z m 1.778,0 0.881327,1.84468 h 1.42875 l -0.881327,-1.84468 z m -13.330767,11.82688 -5.875602,-12.29837 h 9.525 l 5.875602,12.29784 h -9.525 z m 6.872817,-0.79958 -0.881327,-1.84467 h -1.42875 l 0.881327,1.84467 z m -5.185833,-4.1402 0.881327,1.84468 h 1.42875 l -0.881327,-1.84468 z m 1.213379,-0.44979 -0.881327,-1.84467 h -1.42875 l 0.881327,1.84467 z m -1.562629,0.44979 h -1.42875 l 0.881327,1.84468 h 1.42875 z m -0.215371,-0.44979 -0.881327,-1.84467 h -1.42875 l 0.881327,1.84467 z m -1.096698,-2.29552 -0.881327,-1.84468 h -1.42875 l 0.881327,1.84468 z m 0.34925,0 h 1.42875 l -0.879475,-1.84626 h -1.42875 z m 1.778,0 h 1.42875 l -0.881327,-1.84468 h -1.42875 z m 0.215635,0.44979 0.881327,1.84467 h 1.42875 l -0.881327,-1.84467 z m 1.096698,2.29552 0.881327,1.84468 h 1.42875 l -0.881327,-1.84468 z m 1.628775,4.1402 -0.881327,-1.84467 h -1.42875 l 0.881327,1.84467 z m -1.778,0 -0.881327,-1.84467 h -1.42875 l 0.881327,1.84467 z m -3.20675,0 h 1.42875 l -0.881327,-1.84467 h -1.42875 z m -1.096698,-2.29552 h 1.42875 l -0.881327,-1.84468 h -1.42875 z m -1.096698,-2.29553 h 1.42875 l -0.881062,-1.8452 h -1.42875 z m -1.096697,-2.29552 h 1.42875 l -0.881328,-1.84468 h -1.42875 z m -1.978025,-4.1402 0.881327,1.84467 h 1.42875 l -0.881327,-1.84467 z m 1.778,0 0.881327,1.84467 h 1.42875 l -0.881327,-1.84467 z m 1.778,0 0.881327,1.84467 h 1.42875 l -0.881327,-1.84467 z m 1.778,0 0.881327,1.84467 h 1.42875 l -0.881327,-1.84467 z m 3.20675,0 h -1.42875 l 0.881327,1.84467 h 1.42875 z m 1.096697,2.29552 h -1.42875 l 0.881328,1.84468 h 1.42875 z m 1.096963,2.29553 h -1.42875 l 0.881327,1.84467 h 1.42875 z m 1.096698,2.29552 h -1.42875 l 0.881327,1.84468 h 1.42875 z m -0.332052,2.29553 0.881327,1.84467 h 1.42875 l -0.881327,-1.84467 z m -17.717294,2.64372 -5.875602,-12.29784 h 9.525 l 5.875602,12.29784 z m 6.873081,-0.79957 -0.881327,-1.84468 h -1.42875 l 0.881327,1.84468 z m -5.185833,-4.1402 0.881327,1.84467 h 1.42875 l -0.881327,-1.84467 z m 1.213379,-0.4498 -0.881327,-1.84467 h -1.42875 l 0.881327,1.84467 z m -1.562629,0.4498 h -1.42875 l 0.881327,1.84467 h 1.42875 z m -0.215371,-0.4498 -0.881327,-1.84467 h -1.42875 l 0.881327,1.84467 z m -1.096698,-2.29552 -0.881327,-1.84468 h -1.42875 l 0.881327,1.84468 z m 0.34925,0 h 1.42875 l -0.879739,-1.84573 h -1.42875 z m 1.778,0 h 1.42875 l -0.881327,-1.84468 h -1.42875 z m 0.215371,0.44979 0.881327,1.84468 h 1.42875 l -0.881327,-1.84468 z m 1.096698,2.29553 0.881327,1.84467 h 1.42875 l -0.881327,-1.84467 z m 1.628775,4.1402 -0.881327,-1.84468 h -1.42875 l 0.881327,1.84468 z m -1.778,0 -0.881327,-1.84468 h -1.42875 l 0.881327,1.84468 z m -3.20675,0 h 1.42875 l -0.881327,-1.84468 h -1.42875 z m -1.096698,-2.29553 h 1.42875 l -0.881327,-1.84467 h -1.42875 z m -1.096698,-2.29552 h 1.42875 l -0.881062,-1.84468 h -1.42875 z m -1.096698,-2.29553 h 1.42875 l -0.881327,-1.84467 h -1.42875 z m -1.978025,-4.1402 0.881327,1.84468 h 1.42875 l -0.881327,-1.84468 z m 1.778,0 0.881327,1.84468 h 1.42875 l -0.881327,-1.84468 z m 1.778,0 0.881327,1.84468 h 1.42875 l -0.881327,-1.84468 z m 1.778,0 0.881327,1.84468 h 1.42875 l -0.881327,-1.84468 z m 3.20675,0 h -1.42875 l 0.881327,1.84468 h 1.42875 z m 1.096698,2.29553 h -1.42875 l 0.881327,1.84467 h 1.42875 z m 1.096698,2.29552 h -1.42875 l 0.881327,1.84468 h 1.42875 z m 1.096698,2.29553 h -1.42875 l 0.881327,1.84467 h 1.42875 z m -0.332052,2.29552 0.881327,1.84468 h 1.42875 l -0.881327,-1.84468 z m 4.772554,16.138 h -9.525 L 40.386756,223.7173 h 9.525 z m -5.045604,-9.53082 h -1.42875 l 0.881327,1.84467 h 1.42875 z m -1.228725,4.1402 h 1.42875 l -0.881327,-1.84468 h -1.42875 z m -1.230577,-1.84468 h -1.42875 l 0.881327,1.84468 h 1.42875 z m 1.445948,2.29553 0.881327,1.84468 h 1.42875 l -0.881327,-1.84468 z m -0.34925,0 H 47.9504 l 0.881327,1.84468 h 1.42875 z m -1.778,0 H 46.1724 l 0.881327,1.84468 h 1.42875 z m -0.215371,-0.44979 -0.881327,-1.84468 h -1.42875 l 0.881327,1.84468 z m -1.096698,-2.29553 -0.881327,-1.84468 h -1.42875 l 0.881327,1.84468 z m 0.34925,0 h 1.42875 l -0.880533,-1.84573 h -1.42875 z m 1.778,0 h 1.42875 l -0.881327,-1.84468 h -1.42875 z m 3.422121,0.44979 h -1.42875 l 0.881327,1.84468 h 1.42875 z m 1.096698,2.29553 H 51.5064 l 0.881327,1.84468 h 1.42875 z m 1.977231,4.1402 -0.881327,-1.84467 h -1.42875 l 0.881327,1.84467 z m -1.778,0 -0.881327,-1.84467 h -1.42875 l 0.881327,1.84467 z m -1.778,0 -0.881327,-1.84467 h -1.42875 l 0.881327,1.84467 z m -1.778,0 -0.881327,-1.84467 h -1.42875 l 0.881327,1.84467 z m -3.20675,0 h 1.42875 l -0.881327,-1.84467 h -1.42875 z m -1.096698,-2.29552 h 1.42875 l -0.881327,-1.84468 h -1.42875 z m -1.096698,-2.29553 h 1.42875 l -0.881062,-1.84468 h -1.42875 z m -1.096698,-2.29553 h 1.42875 l -0.881327,-1.84467 h -1.42875 z m -1.978025,-4.1402 0.881327,1.84468 h 1.42875 l -0.881327,-1.84468 z m 1.778,0 0.881327,1.84468 h 1.42875 l -0.881327,-1.84468 z m 1.778,0 0.881327,1.84468 h 1.42875 l -0.881327,-1.84468 z m 1.778,0 0.881327,1.84468 h 1.42875 l -0.881327,-1.84468 z m 1.778,0 0.881327,1.84468 h 1.42875 l -0.881327,-1.84468 z m 13.073327,-0.47149 5.875602,12.29784 h -9.525 L 51.763839,223.7173 Z m -7.029714,0.47149 0.881327,1.84468 h 1.42875 l -0.881327,-1.84468 z m 5.185833,4.1402 -0.881327,-1.84467 h -1.42875 l 0.881327,1.84467 z m -1.213115,0.44979 0.881328,1.84468 h 1.42875 l -0.881328,-1.84468 z m 1.562365,-0.44979 h 1.42875 l -0.881327,-1.84467 h -1.42875 z m 0.215635,0.44979 0.881328,1.84468 h 1.42875 l -0.881328,-1.84468 z m 1.096698,2.29553 0.881327,1.84468 h 1.42875 l -0.881327,-1.84468 z m -0.34925,0 h -1.42875 l 0.881327,1.84468 h 1.42875 z m -1.778,0 h -1.42875 l 0.881327,1.84468 h 1.428751 z m -0.21537,-0.44979 -0.881327,-1.84468 h -1.42875 l 0.881327,1.84468 z m -1.096698,-2.29553 -0.881327,-1.84467 h -1.42875 l 0.881327,1.84467 z m -1.628775,-4.1402 0.881327,1.84468 h 1.42875 l -0.881327,-1.84468 z m 1.778,0 0.881327,1.84468 h 1.42875 l -0.881327,-1.84468 z m 3.20675,0 h -1.42875 l 0.881327,1.84468 h 1.42875 z m 1.096698,2.29553 h -1.42875 l 0.881327,1.84467 h 1.42875 z m 1.096962,2.29552 h -1.42875 l 0.881327,1.84468 h 1.42875 z m 1.096698,2.29553 h -1.42875 l 0.881327,1.84468 h 1.42875 z m 1.978025,4.1402 -0.881327,-1.84467 h -1.42875 l 0.881327,1.84467 z m -1.778,0 -0.881327,-1.84467 h -1.42875 l 0.881327,1.84467 z m -1.778,0 -0.881327,-1.84467 h -1.42875 l 0.881327,1.84467 z m -1.778,0 -0.881327,-1.84467 h -1.42875 l 0.881327,1.84467 z m -3.20675,0 h 1.42875 l -0.881327,-1.84467 h -1.42875 z m -1.096698,-2.29552 h 1.42875 l -0.881327,-1.84468 h -1.42875 z m -1.096698,-2.29553 h 1.42875 l -0.883179,-1.84468 h -1.42875 z m -1.096698,-2.29553 h 1.42875 l -0.881327,-1.84467 h -1.42875 z m 0.332052,-2.29552 -0.881327,-1.84468 h -1.42875 l 0.881327,1.84468 z m 17.873134,-2.31617 5.875602,12.29784 h -9.525 L 63.140923,223.7173 Z m -7.029715,0.47149 0.881327,1.84468 h 1.42875 l -0.881327,-1.84468 z m 5.185833,4.1402 -0.881327,-1.84467 h -1.42875 l 0.881327,1.84467 z m -1.213114,0.44979 0.881327,1.84468 h 1.42875 l -0.881327,-1.84468 z m 1.562364,-0.44979 h 1.42875 l -0.881327,-1.84467 h -1.42875 z m 0.215636,0.44979 0.881327,1.84468 h 1.42875 l -0.881327,-1.84468 z m 1.096698,2.29553 0.881327,1.84468 h 1.42875 l -0.881327,-1.84468 z m -0.34925,0 h -1.42875 l 0.881327,1.84468 h 1.42875 z m -1.778,0 h -1.42875 l 0.881327,1.84468 h 1.42875 z m -0.215371,-0.44979 -0.881327,-1.84468 h -1.42875 l 0.881327,1.84468 z m -1.096963,-2.29553 -0.881327,-1.84467 h -1.42875 l 0.881327,1.84467 z m -1.628775,-4.1402 0.881327,1.84468 h 1.428751 l -0.881328,-1.84468 z m 1.778,0 0.881327,1.84468 h 1.42875 l -0.881327,-1.84468 z m 3.20675,0 h -1.42875 l 0.881327,1.84468 h 1.42875 z m 1.096698,2.29553 h -1.42875 l 0.881327,1.84467 h 1.42875 z m 1.096963,2.29552 h -1.42875 l 0.881327,1.84468 h 1.42875 z m 1.096698,2.29553 h -1.42875 l 0.881327,1.84468 h 1.42875 z m 1.978025,4.1402 -0.881327,-1.84467 h -1.42875 l 0.881327,1.84467 z m -1.778,0 -0.881327,-1.84467 h -1.42875 l 0.881327,1.84467 z m -1.778,0 -0.881327,-1.84467 h -1.42875 l 0.881327,1.84467 z m -1.778,0 -0.881327,-1.84467 h -1.42875 l 0.881327,1.84467 z m -3.20675,0 h 1.42875 l -0.881327,-1.84467 h -1.42875 z m -1.096698,-2.29552 h 1.42875 l -0.881327,-1.84468 h -1.42875 z m -1.096698,-2.29553 h 1.42875 l -0.881327,-1.84468 h -1.430338 z m -1.096963,-2.29553 h 1.42875 l -0.881327,-1.84467 h -1.42875 z m 0.332052,-2.29552 -0.881327,-1.84468 h -1.42875 l 0.881327,1.84468 z"
       style="fill:#ffffff;fill-rule:evenodd;stroke-width:0.264583" />
    <path
       style="fill:#fefefe;stroke-width:0.0528752"
       d="m 52.159044,207.73416 c 0,-0.18252 0.590415,-8.58862 0.645674,-9.19285 l 0.0259,-0.28323 h -3.469451 -3.469451 l 0.01307,-0.16971 c 0.0093,-0.12103 1.671784,-2.91282 5.787833,-9.71983 3.176121,-5.25259 5.834013,-9.65817 5.906428,-9.79022 0.153753,-0.28036 0.335293,-0.33389 0.333953,-0.0984 -5.01e-4,0.0778 -0.72762,3.0163 -1.615947,6.52981 l -1.615146,6.3882 3.637116,0.0161 3.637118,0.0161 -9.72e-4,0.14122 c -0.0016,0.21453 -9.567646,16.30969 -9.709537,16.33619 -0.0925,0.0172 -0.106664,-0.006 -0.106664,-0.17332 z"
       id="path484" />
  </g>
</svg>
