<?xml version="1.0" encoding="UTF-8" standalone="no"?>
<svg
   xmlns:dc="http://purl.org/dc/elements/1.1/"
   xmlns:cc="http://creativecommons.org/ns#"
   xmlns:rdf="http://www.w3.org/1999/02/22-rdf-syntax-ns#"
   xmlns:svg="http://www.w3.org/2000/svg"
   xmlns="http://www.w3.org/2000/svg"
   width="23.894529mm"
   height="20.742239mm"
   viewBox="0 0 23.894529 20.742239"
   version="1.1"
   id="svg8">
  <defs
     id="defs2" />
  <metadata
     id="metadata5">
    <rdf:RDF>
      <cc:Work
         rdf:about="">
        <dc:format>image/svg+xml</dc:format>
        <dc:type
           rdf:resource="http://purl.org/dc/dcmitype/StillImage" />
        <dc:title></dc:title>
      </cc:Work>
    </rdf:RDF>
  </metadata>
  <g
     id="layer1"
     transform="translate(-136.85852,-105.16933)">
    <g
       id="g847"
       transform="translate(-17.506154,-0.13363477)">
      <path
         style="fill:#fefefe;stroke-width:0.0846667"
         d="m 168.5663,125.88964 c -0.0771,-0.0851 -0.14012,-0.21617 -0.14012,-0.29114 0,-0.0966 -0.10495,-0.15001 -0.35983,-0.18329 -0.19791,-0.0258 -3.27449,-0.24221 -6.83684,-0.48082 -4.79936,-0.32147 -6.52634,-0.46466 -6.6675,-0.55283 -0.18849,-0.11773 -0.1905,-0.13926 -0.1905,-2.04743 0,-1.38702 0.0285,-1.95698 0.1016,-2.03005 0.15813,-0.15813 0.78121,-0.13069 7.30674,0.32173 3.3528,0.23246 6.21982,0.4228 6.37116,0.42299 0.35943,4.2e-4 0.35447,-0.13527 -0.007,-0.20316 -0.15543,-0.0292 -0.52691,-0.19947 -0.8255,-0.37848 -0.99635,-0.59729 -1.37707,-0.63558 -2.37595,-0.23889 -1.1879,0.47174 -2.23689,0.38533 -3.533,-0.29105 -0.99665,-0.52011 -1.36078,-0.55186 -2.21162,-0.19283 -0.42133,0.17779 -0.73104,0.24109 -1.32126,0.27005 -0.92799,0.0455 -1.50684,-0.0984 -2.31849,-0.57652 -0.30319,-0.1786 -0.69576,-0.35088 -0.87238,-0.38286 l -0.32114,-0.0581 0.0248,-0.56139 0.0248,-0.5614 0.52414,0.008 c 0.53216,0.008 0.61759,0.04 1.79236,0.67105 0.60419,0.32455 1.1313,0.33086 1.88894,0.0226 1.19656,-0.48683 2.31312,-0.40098 3.60113,0.27689 0.96374,0.50721 1.35263,0.54169 2.16548,0.19203 0.41316,-0.17773 0.70195,-0.23447 1.34051,-0.26338 0.94162,-0.0426 1.57688,0.10088 2.19918,0.4968 0.21363,0.13591 0.41365,0.24712 0.4445,0.24712 0.0308,0 0.0561,-0.13033 0.0561,-0.28961 0,-0.25852 -0.0295,-0.29576 -0.27517,-0.34697 -0.15134,-0.0315 -0.56654,-0.22641 -0.92266,-0.43302 -0.88756,-0.51494 -1.31139,-0.56149 -2.12844,-0.23373 -0.55983,0.22457 -0.69894,0.24499 -1.66906,0.24499 -1.14295,0 -1.14968,-0.002 -2.39238,-0.68959 -0.55374,-0.30641 -1.11528,-0.30371 -1.84096,0.009 -0.40781,0.17566 -0.7367,0.24786 -1.27,0.27882 -0.90747,0.0527 -1.53092,-0.099 -2.32833,-0.56639 -0.32597,-0.19107 -0.73717,-0.37082 -0.91378,-0.39944 l -0.3211,-0.052 0.0248,-0.5601 c 0.0245,-0.55287 0.0281,-0.56048 0.27878,-0.58946 0.43079,-0.0498 1.09895,0.14888 1.68067,0.49973 0.30579,0.18443 0.74162,0.37818 0.96851,0.43055 0.38457,0.0888 0.47511,0.0736 1.33586,-0.22359 0.88427,-0.30533 0.95727,-0.31679 1.72576,-0.27095 0.76414,0.0456 0.84701,0.0704 1.73681,0.52028 1.11689,0.56468 1.39079,0.5904 2.33139,0.21894 0.54458,-0.21506 0.75063,-0.25118 1.44704,-0.25368 0.92224,-0.003 1.40247,0.11443 2.0223,0.49581 0.23533,0.1448 0.44634,0.26327 0.46893,0.26327 0.0226,0 0.0411,-0.12732 0.0411,-0.28293 0,-0.25985 -0.0294,-0.29155 -0.35983,-0.38857 -0.19791,-0.0581 -0.53176,-0.21469 -0.74188,-0.34798 -0.91893,-0.58291 -1.34575,-0.62803 -2.36962,-0.25052 -0.58158,0.21444 -0.81119,0.254 -1.47399,0.254 -0.9169,0 -1.37144,-0.11868 -2.06266,-0.53858 -0.2765,-0.16796 -0.6956,-0.3499 -0.93134,-0.40432 -0.40257,-0.0929 -0.47663,-0.0814 -1.21881,0.18915 -0.71525,0.26076 -0.87565,0.28794 -1.69095,0.28658 l -0.90075,-0.001 -0.96192,-0.48636 c -0.52905,-0.2675 -1.04938,-0.4859 -1.15629,-0.48533 -0.18607,9.9e-4 -0.1933,-0.0234 -0.16933,-0.57047 l 0.025,-0.5715 0.55378,0.006 c 0.50201,0.005 0.63076,0.0474 1.37723,0.45103 1.01481,0.54869 1.41111,0.58784 2.25999,0.22323 1.13445,-0.48726 2.5059,-0.37469 3.63947,0.29876 0.79538,0.47252 1.28309,0.52158 2.03319,0.20452 0.43425,-0.18354 0.72737,-0.24132 1.38957,-0.27388 1.02283,-0.0503 1.562,0.0593 2.20931,0.44909 0.2671,0.16084 0.50007,0.29244 0.51771,0.29244 0.0177,0 0.0321,-0.13335 0.0321,-0.29634 0,-0.19844 -0.0394,-0.29633 -0.11928,-0.29633 -0.0656,0 -0.52798,-0.20955 -1.0275,-0.46567 -1.09148,-0.55962 -1.44276,-0.59575 -2.2636,-0.23283 -0.48291,0.21351 -0.61449,0.23283 -1.58528,0.23283 -1.14679,0 -1.16014,-0.004 -2.32707,-0.68099 -0.5808,-0.337 -1.1475,-0.33756 -1.94827,-0.002 -0.53,0.22215 -0.68666,0.24819 -1.48167,0.24624 -0.99124,-0.002 -1.31317,-0.0912 -2.13006,-0.58745 -0.27651,-0.16797 -0.65493,-0.32582 -0.84094,-0.35077 l -0.3382,-0.0454 0.0248,-0.55987 0.0248,-0.55987 h 0.55403 c 0.45112,0 0.63986,0.0461 1.016,0.24809 1.11676,0.59974 1.2457,0.65043 1.65628,0.65119 0.26897,5e-4 0.60745,-0.0829 0.96469,-0.23759 0.50228,-0.21754 0.63903,-0.23835 1.56633,-0.23835 1.09686,0 1.1063,0.003 2.36841,0.69904 0.56097,0.30947 1.154,0.3122 1.90726,0.009 1.11951,-0.45095 2.32365,-0.38448 3.36238,0.18561 l 0.61695,0.3386 v -0.29195 c 0,-0.26315 -0.0313,-0.30183 -0.3175,-0.39196 -0.17463,-0.055 -0.57332,-0.24935 -0.886,-0.43189 -0.93192,-0.54408 -1.23932,-0.5527 -2.56417,-0.0719 -0.42848,0.1555 -0.64377,0.17937 -1.3754,0.15255 -0.85716,-0.0314 -0.87757,-0.0371 -1.72926,-0.47991 -1.09709,-0.57042 -1.44531,-0.62018 -2.20716,-0.31539 -0.79338,0.3174 -1.47361,0.41174 -2.22014,0.30791 -0.73334,-0.102 -0.97211,-0.18621 -1.51719,-0.53512 -0.22724,-0.14546 -0.58919,-0.30901 -0.80434,-0.36346 l -0.39117,-0.099 -0.0219,-0.49896 c -0.0309,-0.70502 0.0165,-0.75204 0.64635,-0.64109 0.52226,0.092 0.86721,0.23331 1.69238,0.6933 0.59806,0.33338 1.03535,0.33146 1.96379,-0.009 0.66407,-0.24325 0.77888,-0.25966 1.62025,-0.23165 0.90484,0.0301 0.90619,0.0305 1.7586,0.47532 1.11271,0.58068 1.37361,0.61311 2.26684,0.28179 1.40623,-0.52161 2.5667,-0.43186 3.73178,0.28862 l 0.36543,0.22598 -0.0268,-0.3168 c -0.0245,-0.2904 -0.0558,-0.32532 -0.37497,-0.4191 -0.19151,-0.0563 -0.57251,-0.23971 -0.84666,-0.40766 -0.27416,-0.16795 -0.67881,-0.34498 -0.89923,-0.39341 -0.36373,-0.0799 -0.48503,-0.0598 -1.31234,0.21782 -0.853,0.28622 -0.96355,0.30342 -1.72077,0.26771 -0.83915,-0.0396 -1.06459,-0.11437 -2.13639,-0.70879 -0.63049,-0.34967 -1.02696,-0.35704 -1.91824,-0.0357 -0.72107,0.26001 -0.80928,0.2724 -1.71582,0.24103 -0.82938,-0.0287 -1.01162,-0.0624 -1.37901,-0.25505 -1.03793,-0.54426 -1.2843,-0.65953 -1.50283,-0.70313 -0.22171,-0.0442 -0.23277,-0.0696 -0.23154,-0.53167 0.002,-0.7086 0.0408,-0.74301 0.71402,-0.63145 0.3671,0.0608 0.75785,0.20473 1.12948,0.41595 1.07983,0.61373 1.48535,0.66787 2.32672,0.31066 0.42677,-0.1812 0.70146,-0.23149 1.4387,-0.2634 1.06274,-0.046 1.39275,0.0361 2.33393,0.58105 0.79206,0.45856 1.29948,0.48596 2.13119,0.11508 0.4927,-0.21972 0.64342,-0.24559 1.43933,-0.24702 0.99318,-0.002 1.48182,0.1242 2.11667,0.54574 l 0.381,0.25299 0.0423,-2.16145 c 0.0352,-1.79698 0.0637,-2.17496 0.16933,-2.24161 0.0699,-0.0441 0.62911,-0.0808 1.24279,-0.0815 1.37787,-0.002 1.38141,7.4e-4 1.38304,0.91492 0.002,1.06718 -0.0293,1.03112 0.89167,1.03112 0.89424,0 1.0545,0.0827 1.0545,0.54421 0,0.27322 0.0101,0.28056 0.5715,0.41675 1.91009,0.46334 3.55855,1.97769 4.21646,3.8734 l 0.24686,0.7113 0.0282,3.1115 0.0282,3.1115 h -0.59829 -0.59828 l -0.001,-2.64583 c -9.9e-4,-2.07283 -0.0293,-2.76502 -0.13058,-3.19617 -0.34288,-1.45915 -1.35002,-2.73221 -2.66474,-3.36832 -1.06784,-0.51667 -1.09814,-0.52025 -1.0979,-0.12988 1.7e-4,0.30793 0.0232,0.33503 0.48684,0.57339 0.73095,0.3758 1.70125,1.38332 2.08291,2.16281 0.49575,1.01252 0.55958,1.4915 0.56125,4.21217 l 0.001,2.39183 h -0.59267 -0.59266 l -0.001,-2.18016 c -0.001,-2.43801 -0.0672,-2.90729 -0.53003,-3.77986 -0.26069,-0.49148 -1.1531,-1.49064 -1.33138,-1.49064 -0.0466,0 -0.0847,0.14707 -0.0847,0.32682 0,0.2601 0.0634,0.39406 0.31066,0.65617 0.17086,0.18114 0.42804,0.57699 0.5715,0.87967 l 0.26084,0.55034 0.0268,2.51883 0.0268,2.51883 h -0.59328 -0.59328 l -0.0262,-2.26483 c -0.033,-2.85194 -0.0205,-2.81517 -0.95973,-2.81517 h -0.63282 l -0.001,0.23284 c -0.002,0.5032 0.27687,7.09262 0.30164,7.12026 0.0249,0.0277 5.54223,0.43178 5.93753,0.43482 0.42648,0.003 0.45055,0.12039 0.45055,2.19187 0,1.38383 -0.0285,1.95289 -0.1016,2.02595 -0.13861,0.13861 -0.47532,0.13089 -3.47984,-0.0797 l -2.60777,-0.18281 -0.12753,0.18207 c -0.1226,0.17504 -0.18738,0.18208 -1.67594,0.18208 -1.39254,0 -1.56251,-0.0156 -1.68853,-0.15484 z m 2.18326,-1.77133 c -0.025,-0.40746 -0.17569,-4.11268 -0.33488,-8.23383 -0.15919,-4.12115 -0.31354,-7.92163 -0.34299,-8.4455 -0.0525,-0.93426 -0.0574,-0.9525 -0.25686,-0.9525 h -0.20332 v 9.18633 9.18633 h 0.59175 0.59174 z m 6.31262,-0.26907 V 122.924 l -0.4445,-0.0488 c -0.61413,-0.0674 -4.06062,-0.30204 -4.43722,-0.30204 h -0.30727 l 0.0456,0.89426 c 0.0251,0.49185 0.0703,0.91897 0.10053,0.94916 0.0588,0.0588 3.52032,0.32683 4.47131,0.34625 l 0.5715,0.0117 z m -8.636,-0.59357 v -0.92615 l -0.35983,-0.0467 c -0.19791,-0.0257 -2.93159,-0.21812 -6.07484,-0.42761 -3.14325,-0.20949 -5.87692,-0.39962 -6.07483,-0.42252 l -0.35983,-0.0416 v 0.97205 c 0,0.95002 0.004,0.97217 0.1905,0.97739 0.10477,0.003 2.76225,0.18893 5.9055,0.41332 3.14325,0.22438 5.95312,0.41248 6.24416,0.41799 l 0.52917,0.01 z m 6.79009,-2.42642 c -0.35385,-0.21207 -0.37383,-0.21446 -0.70021,-0.0839 -0.54465,0.21793 -1.07854,0.17409 -1.68426,-0.13831 l -0.52883,-0.27274 0.0513,-0.37408 c 0.0282,-0.20574 0.0513,-0.46401 0.0513,-0.57392 0,-0.17316 0.0409,-0.19985 0.30604,-0.19985 0.16986,0 0.48701,0.0985 0.7127,0.22133 0.40604,0.22099 0.40725,0.2211 0.79521,0.0729 0.49301,-0.18828 1.11526,-0.12598 1.60432,0.16063 0.31637,0.18541 0.37466,0.19479 0.56283,0.0906 0.11545,-0.0639 0.40993,-0.11755 0.6544,-0.1192 l 0.4445,-0.003 -5.9e-4,0.5715 -5.9e-4,0.5715 -0.45122,0.14817 c -0.67846,0.22279 -1.37099,0.19545 -1.8168,-0.0717 z"
         id="path851" />
    </g>
  </g>
</svg>
