<?xml version="1.0" encoding="UTF-8" standalone="no"?>
<svg
   xmlns:dc="http://purl.org/dc/elements/1.1/"
   xmlns:cc="http://creativecommons.org/ns#"
   xmlns:rdf="http://www.w3.org/1999/02/22-rdf-syntax-ns#"
   xmlns:svg="http://www.w3.org/2000/svg"
   xmlns="http://www.w3.org/2000/svg"
   width="84.428642mm"
   height="72.43541mm"
   viewBox="0 0 84.428642 72.43541"
   version="1.1"
   id="svg8">
  <defs
     id="defs2">
    <style
       id="style2">
      .cls-1 {
        fill-rule: evenodd;
      }
    </style>
    <style
       id="style2-3">
      .cls-1 {
        fill-rule: evenodd;
      }
    </style>
  </defs>
  <metadata
     id="metadata5">
    <rdf:RDF>
      <cc:Work
         rdf:about="">
        <dc:format>image/svg+xml</dc:format>
        <dc:type
           rdf:resource="http://purl.org/dc/dcmitype/StillImage" />
        <dc:title></dc:title>
      </cc:Work>
    </rdf:RDF>
  </metadata>
  <g
     id="layer1"
     transform="translate(-73.266091,-107.49031)">
    <g
       id="g40"
       transform="matrix(1.1912914,0,0,1.1912914,-21.609959,-29.652728)">
      <path
         style="fill:#fefefe;stroke-width:0.0846667"
         d="m 105.26578,172.89676 c -10.248698,-5.73478 -14.400414,-8.10639 -14.928187,-8.52751 -1.267269,-1.01118 -0.987034,-4.40091 0.485574,-5.87352 l 0.314472,-0.31447 -0.292108,-0.3754 c -0.458564,-0.58933 -0.781568,-1.36049 -0.924225,-2.20655 -0.117257,-0.69543 -0.117069,-0.83663 0.0019,-1.44065 0.238306,-1.20961 0.759884,-1.99342 1.780922,-2.67634 0.678262,-0.45365 3.921494,-2.11235 6.745959,-3.45012 3.003273,-1.42247 12.465623,-5.80958 12.909983,-5.98558 0.27409,-0.10856 0.54528,-0.15474 0.76368,-0.13006 0.18627,0.0211 4.83447,1.87668 10.32934,4.12363 5.49486,2.24694 10.05978,4.11144 10.14425,4.14334 0.10977,0.0414 -2.98932,1.69435 -10.8635,5.79404 l -11.01709,5.73604 -2.55616,-1.43439 c -6.92266,-3.88464 -12.111964,-6.53495 -14.119801,-7.21134 -0.810871,-0.27316 -1.042575,-0.25124 -1.44307,0.13656 -0.632126,0.61207 -0.922907,1.25852 -0.929765,2.06701 -0.0045,0.5289 0.09185,0.83451 0.407797,1.29369 0.292686,0.42538 0.725206,0.72965 2.422497,1.70421 2.258336,1.29671 16.066652,8.85543 16.177142,8.85543 0.0248,0 4.98345,-2.57175 11.01914,-5.715 6.03569,-3.14325 10.99008,-5.715 11.00977,-5.715 0.0197,0 0.0354,0.37148 0.035,0.8255 l -8.5e-4,0.8255 -10.88938,5.67267 c -5.98916,3.11997 -10.95403,5.70403 -11.03306,5.74236 -0.10566,0.0513 -1.19498,-0.4949 -4.11696,-2.0641 -6.780724,-3.64149 -12.96393,-7.00198 -13.72077,-7.45705 l -0.264827,-0.15924 -0.406848,0.27568 c -0.79475,0.53853 -1.396318,1.78283 -1.278278,2.64403 0.06946,0.50675 0.315745,0.97401 0.68366,1.29705 0.507444,0.44554 4.64562,2.84855 14.315783,8.31308 2.32834,1.31572 4.33316,2.45023 4.45516,2.52113 0.21743,0.12634 0.43839,0.0162 11.13367,-5.55105 6.00151,-3.12398 10.97995,-5.70564 11.0632,-5.73704 0.13993,-0.0528 0.14952,0.006 0.127,0.77412 l -0.0244,0.8312 -11.00667,5.73669 c -6.05366,3.15518 -11.02571,5.73823 -11.049,5.74011 -0.0233,0.002 -2.48073,-1.36102 -5.461,-3.02866 z m 17.42017,-21.28035 c 1.66476,-0.70812 3.02683,-1.31098 3.02683,-1.33969 0,-0.0287 -2.98057,-1.24415 -6.6235,-2.70096 l -6.62351,-2.64875 -3.10868,1.33848 c -1.70977,0.73616 -3.08874,1.35869 -3.06439,1.38339 0.0898,0.091 13.03359,5.23538 13.19708,5.24503 0.0931,0.005 1.53141,-0.56938 3.19617,-1.2775 z m -20.67983,15.89891 -8.932335,-4.83877 -0.02581,-0.40055 c -0.01419,-0.2203 -0.01243,-0.40055 0.0039,-0.40055 0.01635,0 4.040742,2.1717 8.943085,4.826 4.90235,2.6543 8.93101,4.826 8.95259,4.826 0.0216,0 4.51419,-2.3622 9.98358,-5.24933 5.46939,-2.88714 9.96592,-5.24934 9.99229,-5.24934 0.0264,0 0.0363,0.17588 0.0221,0.39083 l -0.0258,0.39083 -8.89,4.69283 c -4.8895,2.58105 -9.3853,4.95337 -9.99066,5.27182 l -1.10067,0.57899 z m -0.0423,-1.81858 -8.889995,-4.81666 -0.02581,-0.39132 c -0.01419,-0.21522 -0.005,-0.39131 0.0204,-0.39131 0.02541,0 4.017731,2.15851 8.871805,4.79669 4.85409,2.63819 8.88351,4.81061 8.95427,4.82762 0.0708,0.017 4.60541,-2.34845 10.07699,-5.25657 l 9.94833,-5.28749 0.0262,0.38431 c 0.0144,0.21137 0.0144,0.39395 0,0.40574 -0.12425,0.10174 -19.85909,10.50669 -19.9597,10.52351 -0.0729,0.0122 -4.13298,-2.14535 -9.02248,-4.79452 z m 0.42334,-4.84406 -8.466669,-4.39361 -0.02581,-0.38214 c -0.01419,-0.21018 0.0049,-0.38179 0.04233,-0.38136 0.03748,4.2e-4 3.856193,1.96258 8.486039,4.36033 4.62984,2.39775 8.46589,4.35955 8.52455,4.35955 0.0587,0 4.57641,-2.36017 10.03943,-5.24482 l 9.93278,-5.24481 0.0266,0.34565 c 0.0146,0.19011 -0.004,0.37498 -0.0423,0.41083 -0.10491,0.0992 -19.92754,10.58097 -19.99308,10.5719 -0.0315,-0.004 -3.86719,-1.98503 -8.52385,-4.40152 z m 0,-1.76465 -8.466669,-4.38918 -0.02581,-0.39103 c -0.01419,-0.21507 -0.0024,-0.39104 0.02632,-0.39104 0.02867,0 3.850281,1.96803 8.492479,4.3734 4.64219,2.40536 8.47936,4.37386 8.52705,4.37444 0.0477,5.9e-4 4.53965,-2.35797 9.98214,-5.24123 5.44249,-2.88325 9.93009,-5.25572 9.97245,-5.27216 0.0424,-0.0164 0.0653,0.15477 0.0509,0.38045 l -0.0262,0.41034 -9.94833,5.26885 c -5.47158,2.89786 -9.98643,5.26828 -10.033,5.26759 -0.0466,-6.8e-4 -3.89467,-1.97638 -8.55133,-4.39043 z"
         id="path42" />
    </g>
    <g
       id="g71"
       transform="matrix(0.49148664,0,0,0.49148664,60.044179,98.316847)">
      <path
         style="fill:#fefefe;stroke-width:0.0846667"
         d="m 82.665991,87.06989 c -0.981081,-0.09522 -1.902463,-0.624053 -2.159621,-1.239519 -0.108995,-0.260862 -0.10356,-0.319361 0.06132,-0.659954 0.0995,-0.205546 0.682378,-0.911706 1.295276,-1.569245 0.612899,-0.657539 1.312449,-1.414021 1.554555,-1.681072 l 0.440194,-0.485548 0.09333,-1.091926 c 0.119729,-1.400774 0.262584,-2.088343 0.735719,-3.541067 l 0.384033,-1.17914 -0.08325,-3.743903 -0.08325,-3.743903 -0.990679,-1.988314 C 82.258205,62.823838 81.771759,62.1057 81.176637,62.1057 c -0.294687,0 -0.612312,0.361866 -0.612312,0.697599 0,0.155079 0.251143,1.023586 0.558095,1.930015 0.306953,0.906429 0.578239,1.859344 0.602858,2.11759 0.07837,0.822064 -0.116943,1.088436 -2.687913,3.665851 l -2.26704,2.272722 -0.05767,1.833611 c -0.03172,1.008487 -0.093,1.973007 -0.136182,2.143378 -0.08614,0.339839 -0.459992,0.858944 -1.435954,1.993848 -0.8289,0.96389 -1.223546,1.532531 -2.27941,3.284385 -0.951269,1.578312 -1.337064,2.10131 -1.680366,2.277971 -0.584489,0.300773 -2.528174,0.396606 -3.575517,0.176291 -1.476974,-0.310691 -1.958852,-0.947147 -1.508944,-1.992986 0.108575,-0.25239 1.072243,-1.678628 2.141483,-3.169417 3.948994,-5.505888 4.061826,-5.688566 4.446186,-7.198449 0.142166,-0.558475 0.355938,-1.339259 0.475048,-1.735076 0.398675,-1.324838 0.378795,-1.530716 -0.318859,-3.302 -0.47187,-1.198034 -2.18534,-4.596072 -2.582951,-5.122333 -0.182665,-0.241767 -0.482974,-0.508061 -0.70019,-0.620882 -0.362222,-0.188135 -0.440859,-0.195484 -1.650345,-0.15424 -0.758692,0.02587 -1.644959,0.114999 -2.201333,0.221378 -1.258486,0.240621 -3.005051,0.474143 -4.741334,0.633933 -2.058261,0.189422 -3.760898,0.386996 -4.117986,0.477852 -0.432664,0.110085 -0.872891,0.737838 -1.761827,2.512329 -0.594836,1.18741 -0.974397,2.198987 -1.286216,3.427932 -0.23959,0.944277 -0.266854,1.190483 -0.304809,2.752683 -0.02805,1.154617 -0.0095,1.846788 0.05686,2.116667 0.244508,0.994975 1.147086,3.728127 1.320069,3.99738 0.236118,0.367527 0.674658,0.780837 1.394907,1.314652 1.128331,0.836268 1.179391,0.939856 0.774159,1.570573 -0.633704,0.986319 -3.68464,4.275668 -4.051068,4.367636 -0.135372,0.03397 -0.349766,-0.04231 -0.692162,-0.24627 -0.600948,-0.357983 -1.051733,-0.515489 -1.273703,-0.445039 -0.178415,0.05663 -0.302806,0.371423 -0.385568,0.975749 -0.0287,0.20955 -0.09187,0.560128 -0.140378,0.779063 -0.13552,0.611618 -0.173496,0.617937 -3.713948,0.617937 -1.653116,0 -3.10996,-0.02918 -3.237429,-0.06484 -0.301419,-0.08433 -0.517716,-0.422321 -0.503986,-0.787534 0.02123,-0.564836 0.732143,-1.86341 2.383956,-4.354621 0.385954,-0.582083 0.774653,-1.227103 0.863775,-1.433377 0.08912,-0.206274 0.25465,-0.91312 0.36784,-1.57077 0.294608,-1.711705 0.440395,-2.366219 0.69811,-3.134186 l 0.227299,-0.677334 -0.01417,-3.175 c -0.01544,-3.460321 -0.09668,-4.850308 -0.357523,-6.116951 -0.09347,-0.453906 -0.644521,-2.739906 -1.224552,-5.08 -0.580031,-2.340093 -1.066591,-4.407115 -1.081244,-4.593381 l -0.02664,-0.338667 3.725115,-0.04901 c 2.048813,-0.02696 11.154615,-0.05545 20.235115,-0.06331 9.080501,-0.0079 17.619607,-0.03942 18.975791,-0.07013 l 2.46579,-0.05583 0.265552,0.854753 c 0.69557,2.238891 2.810666,5.42436 4.397195,6.622453 0.45582,0.34422 0.660979,0.564699 0.786248,0.844958 0.459437,1.027884 0.363906,3.172429 -0.189652,4.257494 -0.194192,0.380648 -0.307966,0.342263 -0.489586,-0.165179 -0.06356,-0.177571 -0.362832,-0.856256 -0.665061,-1.508189 -0.398224,-0.859004 -0.591626,-1.400158 -0.702497,-1.96564 -0.197316,-1.006385 -0.36283,-1.365788 -0.985839,-2.140694 -0.72337,-0.899734 -2.39346,-2.515152 -2.672743,-2.585248 -0.269482,-0.06764 -0.434016,0.04129 -0.627468,0.415382 -0.109535,0.211818 -0.124275,0.480493 -0.08627,1.5725 0.05652,1.623805 0.235598,2.662967 0.985693,5.7197 0.815449,3.323062 0.876551,3.659548 0.838149,4.615638 -0.03101,0.772113 -0.05293,0.853296 -0.436201,1.615308 -0.368846,0.733342 -0.41377,0.889853 -0.522431,1.820067 -0.06538,0.559751 -0.162006,2.349112 -0.214713,3.976358 l -0.09583,2.958628 -0.810847,1.354667 c -1.677221,2.802103 -2.184668,3.43294 -3.016076,3.749466 -0.820862,0.312512 -2.223434,0.455794 -3.371203,0.344391 z M 44.163718,52.686685 c -1.27379,-3.258478 -4.172997,-6.656554 -5.687193,-6.665792 -0.363917,-0.0022 -0.718471,0.237729 -1.820307,1.231916 -1.087224,0.981004 -1.728241,1.432337 -2.700896,1.901675 -1.237425,0.597098 -1.528152,0.67455 -2.532027,0.67455 -1.997671,0 -4.160028,-1.027409 -4.454886,-2.116667 -0.146432,-0.540946 -0.04696,-1.820425 0.25701,-3.30598 0.258135,-1.26153 0.516904,-2.094106 1.060545,-3.412245 0.356596,-0.86462 0.500525,-1.670446 0.629862,-3.526441 0.114092,-1.637238 0.23377,-2.664147 0.355221,-3.048 0.05157,-0.162983 0.354073,-0.872968 0.672232,-1.577742 0.761773,-1.687449 0.824822,-1.926998 0.620502,-2.35757 -0.08646,-0.182198 -0.512895,-0.804242 -0.947635,-1.38232 -1.32037,-1.755706 -1.546534,-2.365169 -1.543505,-4.159418 0.004,-2.39762 0.611236,-4.517084 1.402109,-4.894225 0.276982,-0.132084 0.302113,-0.130457 0.523099,0.03385 0.271508,0.201876 0.645856,0.912868 1.459208,2.771442 1.423677,3.253217 2.437549,4.476389 3.112866,3.755479 0.28952,-0.309066 0.344888,-0.568054 0.442012,-2.06755 0.05076,-0.783722 0.128601,-1.605632 0.172975,-1.826467 0.119186,-0.593158 1.334595,-2.965546 1.930562,-3.768316 0.58099,-0.782593 1.102836,-0.01453 2.229102,3.280833 0.455765,1.33353 0.514034,1.583246 0.58281,2.497667 0.04203,0.5588 0.07758,1.446143 0.07901,1.971873 0.0021,0.767321 0.03422,1.017836 0.162918,1.27 0.311519,0.610368 0.55317,0.727363 3.522676,1.705502 3.567036,1.174964 4.363953,1.68091 9.144,5.805331 2.309618,1.992834 2.836043,2.390888 3.566834,2.697047 0.789363,0.330699 1.326042,0.379193 4.902665,0.443008 l 3.304832,0.05896 4.103502,-1.371889 c 8.597368,-2.874282 10.594697,-3.424237 12.443169,-3.426163 1.243999,-0.0013 1.809887,0.17743 4.775669,1.508322 1.533306,0.688069 1.759323,0.839738 2.675086,1.795114 1.406061,1.466884 2.67628,3.653168 3.141761,5.407556 0.202004,0.761344 0.214118,2.74086 0.02879,4.704302 -0.111478,1.181053 -0.571136,4.250279 -0.785364,5.244031 l -0.06388,0.296333 -23.345402,0.02132 -23.345403,0.02132 z M 52.653996,49.7232 c -0.299674,-0.897136 -0.707007,-2.286492 -0.707007,-2.411507 0,-0.06493 1.927825,-1.501196 2.416937,-1.800659 0.114085,-0.06985 0.207496,-0.155575 0.207579,-0.1905 8.3e-5,-0.03493 -0.409424,-0.06777 -0.910016,-0.07298 -0.500591,-0.0052 -1.266183,-0.03379 -1.701314,-0.0635 l -0.791148,-0.05402 -0.482954,-1.460368 c -0.265625,-0.803203 -0.525414,-1.502829 -0.577311,-1.554726 -0.06936,-0.06936 -0.222555,0.306223 -0.57837,1.418035 -0.266208,0.831815 -0.507651,1.538698 -0.536541,1.570849 -0.02889,0.03215 -0.814529,0.0893 -1.745862,0.127 l -1.693333,0.06854 0.846666,0.608494 c 1.077021,0.774048 1.86579,1.420401 1.851675,1.517345 -0.01046,0.07186 -0.858958,2.753415 -0.941449,2.975328 -0.09255,0.248955 0.265948,0.04605 1.460441,-0.826612 0.6985,-0.510303 1.293055,-0.928362 1.321234,-0.929022 0.02818,-6.77e-4 0.656829,0.436916 1.397,0.97239 0.740171,0.535474 1.370042,0.973624 1.399713,0.973667 0.02967,4.2e-5 -0.0765,-0.390448 -0.23594,-0.867757 z m 7.844327,-0.146643 c 0.48895,-0.352482 0.99594,-0.708868 1.126644,-0.79197 l 0.237644,-0.151094 1.316367,0.940544 c 0.724002,0.5173 1.347584,0.929171 1.385737,0.915271 0.03815,-0.0139 -0.156326,-0.724179 -0.432177,-1.578395 -0.275852,-0.854218 -0.501548,-1.565208 -0.501548,-1.579981 0,-0.01477 0.618466,-0.477919 1.374371,-1.029212 l 1.374369,-1.002353 -0.633536,-0.05243 c -0.348446,-0.02884 -1.128837,-0.05797 -1.734204,-0.06473 l -1.100667,-0.0123 -0.508,-1.607389 c -0.2794,-0.884063 -0.527801,-1.607409 -0.552002,-1.607436 -0.0242,-2.6e-5 -0.28418,0.723853 -0.577732,1.60862 l -0.53373,1.608666 -0.861601,4.24e-4 c -1.072473,5.08e-4 -2.513983,0.09278 -2.508479,0.160498 0.0023,0.0279 0.592817,0.468294 1.312333,0.978648 0.723221,0.512983 1.307973,0.986236 1.307679,1.058334 -2.54e-4,0.07173 -0.209844,0.774488 -0.465667,1.561688 -0.255824,0.787215 -0.465134,1.485134 -0.465134,1.550946 0,0.132548 -0.01412,0.141439 1.439333,-0.906348 z m 15.93116,0.86631 c -0.110024,-0.212266 -0.945159,-2.935475 -0.945159,-3.081975 0,-0.107234 2.063701,-1.680283 2.471591,-1.883963 0.320861,-0.160222 0.122858,-0.22021 -0.757091,-0.229372 -0.500591,-0.0052 -1.26772,-0.03379 -1.70473,-0.0635 L 74.69953,45.130037 74.255006,43.817704 C 74.010518,43.09592 73.763993,42.39107 73.707174,42.25137 l -0.103308,-0.254 -0.115793,0.254 c -0.06369,0.1397 -0.288906,0.80645 -0.500488,1.481667 -0.211581,0.675217 -0.413766,1.273465 -0.449299,1.329442 -0.04452,0.07014 -0.583567,0.120239 -1.734284,0.161183 -0.918323,0.03268 -1.669678,0.09165 -1.669678,0.131059 0,0.03941 0.03345,0.07165 0.07433,0.07165 0.127154,0 2.4684,1.771267 2.520416,1.906817 0.03737,0.09739 -0.611751,2.361554 -0.879396,3.06735 -0.08688,0.229112 0.191824,0.06961 1.453364,-0.831762 l 1.312241,-0.937595 0.405356,0.278771 c 0.222946,0.153325 0.841421,0.594293 1.37439,0.979929 0.992089,0.717839 1.168893,0.812354 1.034458,0.55299 z m 7.275716,-0.826189 c 0.757402,-0.542472 1.40422,-0.94944 1.459262,-0.918145 0.05437,0.03092 0.662657,0.454858 1.351738,0.942094 0.68908,0.487235 1.27472,0.864035 1.301422,0.837333 0.04869,-0.04869 -0.568916,-2.129204 -0.787029,-2.651221 -0.06395,-0.153047 -0.114927,-0.346165 -0.113289,-0.429152 0.0019,-0.09626 0.492371,-0.502621 1.354666,-1.122366 0.74343,-0.534314 1.351689,-1.001039 1.351689,-1.037167 0,-0.03613 -0.774148,-0.06569 -1.720328,-0.06569 H 86.183002 L 85.67639,43.627201 c -0.278636,-0.849842 -0.542714,-1.544861 -0.586838,-1.544485 -0.04412,3.38e-4 -0.304551,0.686174 -0.578725,1.523999 -0.274174,0.837825 -0.503332,1.530227 -0.50924,1.53867 -0.0059,0.0084 -0.762659,0.04268 -1.681669,0.07608 -0.91901,0.0334 -1.669277,0.08364 -1.667259,0.111649 0.002,0.02801 0.487793,0.405019 1.0795,0.83781 0.591708,0.43279 1.182004,0.873485 1.311769,0.979321 l 0.235936,0.19243 -0.479567,1.518346 c -0.263762,0.835089 -0.497835,1.56597 -0.520162,1.624178 -0.02233,0.05821 -0.01691,0.105834 0.01204,0.105834 0.02895,0 0.664809,-0.43846 1.413028,-0.974356 z"
         id="path83" />
    </g>
    <g
       id="g61"
       transform="matrix(0.96605949,0,0,0.96605949,29.911143,-112.08787)">
      <path
         style="fill:#fefefe;stroke-width:0.0846667"
         d="m 126.09144,261.9442 c -0.95313,-0.1884 -1.90583,-0.9024 -2.51582,-1.88548 -0.70532,-1.13671 -1.03567,-2.1966 -1.48791,-4.77373 -0.29351,-1.6726 -0.50908,-2.32514 -0.8965,-2.71372 -0.30315,-0.30408 -0.43272,-0.33375 -0.67725,-0.1551 -0.15751,0.11508 -0.16628,0.2869 -0.21072,4.1275 -0.0497,4.29914 -0.0613,4.4099 -0.48913,4.70034 -0.20713,0.14061 -0.49923,0.15596 -3.41613,0.17957 l -3.18964,0.0258 -0.2817,-0.25169 -0.2817,-0.2517 -0.0123,-2.82211 c -0.007,-1.55216 -0.0469,-2.93383 -0.0892,-3.07038 -0.0423,-0.13654 -0.18247,-0.32704 -0.31143,-0.42333 -0.23036,-0.17201 -0.31574,-0.17507 -4.883,-0.17507 h -4.64854 l -0.23477,0.23461 -0.23478,0.23461 -0.0448,2.89806 c -0.0304,1.97073 -0.0772,2.97254 -0.14606,3.13085 -0.0557,0.12804 -0.22606,0.30887 -0.37856,0.40185 -0.26384,0.16086 -0.42831,0.16907 -3.391501,0.16937 -3.529525,3.4e-4 -3.607715,-0.0112 -3.842908,-0.56814 -0.121941,-0.28875 -0.131001,-1.12882 -0.09135,-8.46972 0.04837,-8.95589 0.01833,-8.4855 0.551385,-8.63465 0.127469,-0.0357 7.231764,-0.0648 15.787314,-0.0648 H 126.23 l 0.23478,0.23472 0.23477,0.23472 0.0642,6.36928 c 0.0353,3.5031 0.0862,6.5374 0.11308,6.74288 0.0339,0.25883 0.12597,0.45065 0.29976,0.62443 0.21877,0.21878 0.2948,0.24494 0.59486,0.20469 0.42224,-0.0566 0.77313,-0.37224 0.90566,-0.81458 0.0532,-0.17772 0.0968,-0.82265 0.0968,-1.43318 0,-1.44685 -0.0875,-1.38051 1.77858,-1.34895 l 1.3784,0.0233 0.17739,0.23776 c 0.15745,0.21104 0.17548,0.3405 0.16043,1.15197 -0.0566,3.0513 -1.48425,5.28993 -3.75988,5.89561 -0.49038,0.13051 -1.83449,0.14966 -2.41742,0.0344 z M 94.949612,242.66832 c -0.509704,-0.12553 -0.635,-0.61675 -0.635,-2.48949 0,-2.29688 0.347733,-3.99242 1.143991,-5.57806 1.435954,-2.85952 4.320539,-4.70544 8.550337,-5.47158 3.86678,-0.70039 10.04359,-0.68944 13.63134,0.0242 2.77916,0.55279 4.75253,1.49743 6.22931,2.98195 0.83787,0.84227 1.12254,1.23736 1.63563,2.27013 0.74039,1.49026 1.12037,3.20084 1.20945,5.44466 0.0672,1.69303 0.004,2.21465 -0.31133,2.56754 l -0.24016,0.26879 -15.52212,0.0118 c -8.53716,0.006 -15.598315,-0.007 -15.691448,-0.0299 z m 6.737868,-3.83243 0.45836,-1.43754 1.5507,-0.023 1.55071,-0.023 -1.21182,-0.88274 c -0.6665,-0.4855 -1.2244,-0.89178 -1.23977,-0.90283 -0.0154,-0.011 0.18274,-0.67937 0.44024,-1.48514 0.2575,-0.80577 0.45713,-1.47609 0.44361,-1.48961 -0.0135,-0.0135 -0.58509,0.37632 -1.27018,0.8663 l -1.2456,0.89087 -1.239654,-0.88794 c -0.681809,-0.48837 -1.25446,-0.87313 -1.272558,-0.85504 -0.02687,0.0269 0.260944,0.96404 0.82535,2.6875 0.07158,0.21859 0.02645,0.26276 -1.167952,1.143 l -1.242411,0.91563 1.53865,0.0231 1.538645,0.023 0.47911,1.43745 c 0.2635,0.79059 0.5077,1.43744 0.54266,1.43744 0.035,0 0.26982,-0.64689 0.52191,-1.43754 z m 9.48505,-0.0653 0.45245,-1.37583 h 1.55215 c 0.94933,0 1.533,-0.031 1.50286,-0.0797 -0.0271,-0.0439 -0.58181,-0.46581 -1.23267,-0.93767 -0.65086,-0.47186 -1.18296,-0.88365 -1.18246,-0.91509 5.1e-4,-0.0314 0.20558,-0.69533 0.45573,-1.47533 0.25014,-0.77999 0.42988,-1.41816 0.3994,-1.41816 -0.0305,0 -0.60356,0.39553 -1.27354,0.87895 l -1.21814,0.87896 -1.22169,-0.88556 c -0.67193,-0.48706 -1.24009,-0.86716 -1.26258,-0.84467 -0.0225,0.0225 0.15234,0.63767 0.38851,1.36707 0.23617,0.72941 0.42939,1.37829 0.42939,1.44197 0,0.0637 -0.5334,0.50704 -1.18533,0.98526 -0.65193,0.47821 -1.18533,0.89975 -1.18533,0.93675 0,0.037 0.68263,0.0673 1.51697,0.0673 h 1.51696 l 0.48221,1.44676 c 0.26521,0.79571 0.51156,1.41484 0.54744,1.37583 0.0359,-0.039 0.26883,-0.69005 0.51767,-1.44676 z m 9.43108,0.0635 0.47973,-1.43933 h 1.52197 c 0.84721,0 1.50168,-0.0328 1.47621,-0.074 -0.0252,-0.0407 -0.56081,-0.44853 -1.19033,-0.90627 -0.62952,-0.45773 -1.14458,-0.87846 -1.14458,-0.93495 0,-0.0565 0.19392,-0.71839 0.43094,-1.4709 0.23701,-0.75251 0.41732,-1.38182 0.40068,-1.39846 -0.0166,-0.0166 -0.58025,0.3666 -1.25247,0.85165 -1.21534,0.87693 -1.22343,0.8811 -1.43785,0.74067 -0.1186,-0.0777 -0.68618,-0.47957 -1.26128,-0.8931 -0.57511,-0.41353 -1.05563,-0.73981 -1.06782,-0.72507 -0.0122,0.0147 0.18139,0.65544 0.4302,1.42379 0.2488,0.76835 0.43701,1.44001 0.41824,1.49258 -0.0188,0.0526 -0.57288,0.49072 -1.23137,0.97367 l -1.19724,0.87808 1.55327,0.023 1.55326,0.023 0.41097,1.24703 c 0.48801,1.48078 0.5414,1.62803 0.59034,1.62803 0.0206,0 0.25328,-0.6477 0.51713,-1.43933 z"
         id="path67" />
    </g>
  </g>
</svg>
