<?xml version="1.0" encoding="UTF-8" standalone="no"?>
<svg
   xmlns:dc="http://purl.org/dc/elements/1.1/"
   xmlns:cc="http://creativecommons.org/ns#"
   xmlns:rdf="http://www.w3.org/1999/02/22-rdf-syntax-ns#"
   xmlns:svg="http://www.w3.org/2000/svg"
   xmlns="http://www.w3.org/2000/svg"
   xmlns:sodipodi="http://sodipodi.sourceforge.net/DTD/sodipodi-0.dtd"
   xmlns:inkscape="http://www.inkscape.org/namespaces/inkscape"
   width="228.634"
   height="157.0468"
   viewBox="0 0 228.634 157.0468"
   version="1.1"
   id="svg7"
   sodipodi:docname="icons_communitypolicing.svg"
   inkscape:version="0.92.4 (5da689c313, 2019-01-14)">
  <metadata
     id="metadata11">
    <rdf:RDF>
      <cc:Work
         rdf:about="">
        <dc:format>image/svg+xml</dc:format>
        <dc:type
           rdf:resource="http://purl.org/dc/dcmitype/StillImage" />
      </cc:Work>
    </rdf:RDF>
  </metadata>
  <sodipodi:namedview
     pagecolor="#ffffff"
     bordercolor="#666666"
     borderopacity="1"
     objecttolerance="10"
     gridtolerance="10"
     guidetolerance="10"
     inkscape:pageopacity="0"
     inkscape:pageshadow="2"
     inkscape:window-width="640"
     inkscape:window-height="480"
     id="namedview9"
     showgrid="false"
     inkscape:zoom="6.4296875"
     inkscape:cx="113.315"
     inkscape:cy="80.046803"
     inkscape:current-layer="svg7" />
  <defs
     id="defs4">
    <style
       id="style2">
      .cls-1 {
        fill-rule: evenodd;
      }
    </style>
  </defs>
  <path
     id="IconGraphic"
     class="cls-1"
     d="m 222.63,103.978 h -2.215 v 45.447 a 7.535,7.535 0 1 1 -15.069,0 v -45.447 h -2.739 v 45.447 a 7.535,7.535 0 1 1 -15.069,0 v -45.447 h -1.534 a 6,6 0 0 1 -6,-6 V 50.07 a 6,6 0 0 1 6,-6 h 36.63 a 6,6 0 0 1 6,6 v 47.908 a 6,6 0 0 1 -6.004,6 z M 204.315,39.939 a 16.182,16.182 0 1 1 16.1,-16.182 16.139,16.139 0 0 1 -16.1,16.182 z m -41.685,64.039 h -2.215 v 45.447 a 7.535,7.535 0 1 1 -15.069,0 v -45.447 h -2.739 v 45.447 a 7.535,7.535 0 1 1 -15.069,0 v -45.447 h -1.534 a 6,6 0 0 1 -6,-6 V 50.07 a 6,6 0 0 1 6,-6 h 36.63 a 6,6 0 0 1 6,6 v 47.908 a 6,6 0 0 1 -6.004,6 z M 144.315,39.939 a 16.182,16.182 0 1 1 16.1,-16.182 16.139,16.139 0 0 1 -16.1,16.182 z M 83.63,39.25 A 16.12,16.12 0 0 1 67.586,24.1 H 67.534 V 11.381 h 31.833 v 0.629 l 9.948,12.09 H 99.674 A 16.12,16.12 0 0 1 83.63,39.25 Z M 67.534,0 H 99.367 V 7.364 H 67.534 Z m 40.411,49.382 v 47.907 a 6,6 0 0 1 -6,6 h -2.219 v 45.448 a 7.5345,7.5345 0 1 1 -15.069,0 v -45.448 h -2.742 v 45.448 a 7.534,7.534 0 1 1 -15.068,0 v -45.448 h -1.532 a 6,6 0 0 1 -6,-6 V 49.382 a 6,6 0 0 1 6,-6 h 36.63 a 6,6 0 0 1 6,6 z m -65.315,54.6 h -2.215 v 45.447 a 7.534,7.534 0 1 1 -15.068,0 v -45.451 h -2.74 v 45.447 a 7.534,7.534 0 1 1 -15.068,0 V 103.978 H 6 a 6,6 0 0 1 -6,-6 V 50.07 a 6,6 0 0 1 6,-6 h 36.63 a 6,6 0 0 1 6,6 v 47.908 a 6,6 0 0 1 -6,6 z M 24.315,39.939 a 16.182,16.182 0 1 1 16.1,-16.182 16.139,16.139 0 0 1 -16.1,16.182 z"
     style="fill:#ffffff;fill-rule:evenodd"
     inkscape:connector-curvature="0" />
</svg>
