<svg id="Layer_1" enable-background="new 0 0 512.206 512.206" height="512" viewBox="0 0 512.206 512.206" width="512" xmlns="http://www.w3.org/2000/svg"><g><path d="m313.922 160.804 14.201-3.191c2.188-4.902 5.401-9.187 9.348-12.564-13.349-3.167-24.643-11.689-31.474-23.173l-13.922 3.128c11.908 7.936 20.2 20.879 21.847 35.8z"/><path d="m177.934 487.219 19.999-78.791c.414-1.63.962-3.223 1.639-4.763l1.804-4.101c-3.158-2.191-5.531-5.108-7.098-8.703-1.351 12.025-9.765 21.942-20.988 25.488-2.441 6.017-7.803 10.542-14.323 11.804l-8.317 55.937c-1.935 13.018 7.049 25.141 20.067 27.076 3.448.513 6.979.295 10.603-.84-4.012-6.701-5.459-14.937-3.386-23.107z"/><path d="m206.223 305.395c-.621-.136-10.562-2.311-12.119-2.652.242 1.538.369 3.113.369 4.718v62.147c2.731-14.917 8.697-47.522 11.75-64.213z"/><ellipse cx="264.662" cy="166.277" rx="36.982" ry="36.982" transform="matrix(.987 -.16 .16 .987 -23.217 44.541)"/><path d="m301.34 390.483h15.418c4.695 0 8.264-4.665 7.346-9.682l-.574-3.135c-3.15-1.195-6.036-3.126-8.384-5.675-4.368-4.743-6.552-11.198-5.992-17.709l3.229-37.54-7.916-43.263-14.287 1.694c-11.295 1.339-21.87-3.697-28.141-12.264l-23.266 37.624c-7.196 11.637-20.12 7.55-20.247 7.559l-13.304 72.71c-.918 5.018 2.633 9.682 7.346 9.682h6.916l-8.086 18.384c-.389.886-.705 1.802-.942 2.74l-19.999 78.791c-2.378 9.367 3.288 18.888 12.655 21.265 9.364 2.377 18.888-3.287 21.266-12.655l19.641-77.382 13.698-31.143h8.628v12.586 21.701c0 2.209.418 4.398 1.232 6.451l27.736 69.932c3.558 8.97 13.72 13.383 22.717 9.815 2.101-.833 3.938-2.039 5.494-3.495-3.143-5.642-4.818-12.194-4.523-19.12l.862-20.227-18.521-46.699v-18.358-12.587z"/><ellipse cx="198.909" cy="43.844" rx="43.833" ry="43.833" transform="matrix(.997 -.075 .075 .997 -2.741 15.128)"/><path d="m121.959 417.752h-18.856c-3.198 6.372-9.778 10.765-17.379 10.765h-1.325l-8.262 55.574c-1.935 13.018 7.049 25.141 20.067 27.076 13.049 1.94 25.146-7.079 27.076-20.067l9.478-63.754c-4.71-1.701-8.574-5.161-10.799-9.594z"/><path d="m272.067 218.246c-7.938 0-14.35 0-22.638 0-8.409 0-15.645 6.45-17.277 15.373l-2.475 13.526 16.879-9.68-30.259 29.273-46.278-10.127c-7.384-1.619-14.689 3.062-16.306 10.451-.79 3.608-.07 7.19 1.726 10.104h8.741c9.552 0 18.08 4.448 23.636 11.377l29.797 6.521c4.458.977 9.14-.333 12.449-3.535l31.017-30.006c-2.462-3.789-4.119-8.184-4.687-12.974-1.508-12.722 5.071-24.532 15.675-30.303z"/><circle cx="349.015" cy="96.384" r="37.438"/><path d="m468.299 341.364-50.538-178.333c-3.133-11.056-12.937-17.896-23.116-16.924-14.823 1.415-24.216 2.312-37.571 3.587-10.37.99-18.534 9.796-19.497 20.992l-3.268 37.993 3.415-.405 25.216-24.793-23.056 38.083-55.283 6.554c-9.305 1.104-15.953 9.541-14.85 18.845 1.105 9.318 9.554 15.952 18.845 14.85l63.509-7.53c5.191-.616 9.809-3.59 12.516-8.061l27.346-45.168-15.839 52.135c-4.626 15.228-20.618 13.838-22.439 14.453l-24.702 2.929-7.292 84.789c-.546 6.35 4.438 11.628 10.199 11.075 3.783-.361 8.378-.8 13.556-1.294l-7.355 27.764c-.401 1.513-.637 3.065-.704 4.628l-3.895 91.437c-.509 11.961 8.774 22.07 20.735 22.579.314.013.627.02.939.02 11.546-.001 21.144-9.108 21.641-20.754l3.795-89.085 10.857-40.983c2.741-.262 5.49-.524 8.233-.786v44.975c0 1.681.196 3.357.583 4.993l20.11 84.956c2.361 9.971 11.257 16.689 21.076 16.689 1.653 0 3.333-.191 5.012-.588 11.649-2.757 18.858-14.437 16.101-26.087l-19.527-82.493v-46.583c6.733-.643 12.65-1.208 17.331-1.654 5.778-.551 9.643-6.714 7.917-12.805z"/><path d="m220.484 188.712c-8.784-22.294-3.22-36.942-3.22-36.942 4.514-14.721 15.712-26.542 30.038-31.917l-57.867-19.094c-23.001-7.589-48.325-1.794-65.707 15.073-25.061 24.319-53.019 52.239-53.019 52.239-5.56 5.429-7.442 13.603-4.817 20.917l26.758 74.55c-4.96 1.607-8.559 6.266-8.559 11.755.01 5.588-.034 12.85.052 13.889h-22.942c-9.78 0-17.708 8.499-17.708 18.279v79.997c0 9.78 7.928 17.708 17.708 17.708h2.253v3.899c0 3.502 2.839 6.341 6.341 6.341h15.928c3.502 0 6.341-2.839 6.341-6.341v-3.899h40.933v3.899c0 3.502 2.839 6.341 6.341 6.341h16.248c3.502 0 6.341-2.839 6.341-6.341v-3.899h2.253c9.78 0 17.708-7.928 17.708-17.708v-79.997c0-9.78-7.928-18.279-17.708-18.279h-22.941c.085-1.026.039-6.539.052-13.889 0-5.445-3.544-10.07-8.444-11.712.268-2.818-.042-5.733-1.062-8.573l-24.202-67.431 31.386-30.648-18.191 28.397 23.413 65.229c.546 1.521.968 3.056 1.282 4.595 5.86-8.529 16.491-13.123 27.224-10.774 12.675 2.774 21.057 4.608 42.971 9.404 4.197-22.361 3.972-23.054 5.266-26.925 2.884-8.629 9.177-15.434 17.057-18.827-7.401-4.748-13.465-11.389-17.507-19.316zm-100.681 91.695c2.959-1.062 5.494-2.769 7.541-4.887h1.36v13.661h-32.028v-13.661h2.155c5.328 5.499 13.465 7.581 20.972 4.887z"/></g></svg>