<?xml version="1.0" encoding="iso-8859-1"?>
<!-- Generator: Adobe Illustrator 19.0.0, SVG Export Plug-In . SVG Version: 6.00 Build 0)  -->
<svg version="1.1" id="Capa_1" xmlns="http://www.w3.org/2000/svg" xmlns:xlink="http://www.w3.org/1999/xlink" x="0px" y="0px"
	 viewBox="0 0 512 512" style="enable-background:new 0 0 512 512;" xml:space="preserve">
<g>
	<g>
		<path d="M261.122,211c6.84,42.532,18.836,75,24.878,75s18.038-32.468,24.879-75H261.122z"/>
	</g>
</g>
<g>
	<g>
		<path d="M227.28,121h-72.654c-2.214,9.683-3.625,19.656-3.625,30s1.412,20.317,3.625,30h72.654c-0.82-10.366-1.28-20.504-1.28-30
			C226,141.504,226.46,131.366,227.28,121z"/>
	</g>
</g>
<g>
	<g>
		<path d="M417.374,121H344.72c0.82,10.366,1.28,20.504,1.28,30c0,9.496-0.46,19.634-1.28,30h72.654
			c2.214-9.683,3.625-19.656,3.625-30S419.587,130.683,417.374,121z"/>
	</g>
</g>
<g>
	<g>
		<path d="M322.795,21.74c8.459,19.127,14.612,43.894,18.457,69.26h65.046C389.513,57.506,359.427,32.205,322.795,21.74z"/>
	</g>
</g>
<g>
	<g>
		<path d="M314.59,121h-57.18c-0.829,9.857-1.41,19.867-1.41,30s0.58,20.143,1.41,30h57.18c0.829-9.857,1.41-19.867,1.41-30
			S315.42,130.857,314.59,121z"/>
	</g>
</g>
<g>
	<g>
		<path d="M341.252,211c-3.845,25.366-9.998,50.132-18.457,69.26c36.632-10.465,66.718-35.766,83.503-69.26H341.252z"/>
	</g>
</g>
<g>
	<g>
		<path d="M286,16c-6.042,0-18.038,32.468-24.879,75h49.757C304.038,48.468,292.042,16,286,16z"/>
	</g>
</g>
<g>
	<g>
		<path d="M230.748,211h-65.046c16.785,33.494,46.871,58.795,83.503,69.26C240.746,261.133,234.593,236.366,230.748,211z"/>
	</g>
</g>
<g>
	<g>
		<path d="M165.702,91h65.046c3.845-25.366,9.997-50.132,18.457-69.26C212.573,32.205,182.487,57.506,165.702,91z"/>
	</g>
</g>
<g>
	<g>
		<rect y="316" width="61" height="180"/>
	</g>
</g>
<g>
	<g>
		<path d="M512,328.299L469.701,286l-121.3,120H181v-30h150v-60h-70.499C209.017,283.594,145.254,280.153,91,305.374V466h282.599
			C364.479,475.141,508.989,331.317,512,328.299z"/>
	</g>
</g>
<g>
</g>
<g>
</g>
<g>
</g>
<g>
</g>
<g>
</g>
<g>
</g>
<g>
</g>
<g>
</g>
<g>
</g>
<g>
</g>
<g>
</g>
<g>
</g>
<g>
</g>
<g>
</g>
<g>
</g>
</svg>
