<svg height="511pt" viewBox="0 0 511.99984 511" width="511pt" xmlns="http://www.w3.org/2000/svg"><path d="m504.539062 225.949219c-18.988281-30.378907-51.527343-82.4375-62.4375-99.898438 9.726563-31.421875 14.660157-64.011719 14.660157-96.960937v-13.460938c0-8.289062-6.722657-15-15-15h-117.285157l-92.765624 92.765625c-53.117188 53.125-112.808594 49.832031-135.1875 49.832031-36.679688 0-66.523438 29.84375-66.523438 66.523438 0 39.382812 36.902344 64.144531 67.277344 64.144531h14.121094c8.285156 0 15 6.714844 15 15 0 8.285157-6.714844 15-15 15h-14.121094c-56.449219 0-97.277344-47.210937-97.277344-94.140625v287.734375c0 8.285157 6.714844 15 15 15h136.570312s11.496094.75 15.21875-10.390625l2.621094-7.851562c-24.988281-14.066406-48.226562-30.921875-69.457031-50.449219-6.304687-5.800781-6.574219-15.65625-.515625-21.71875 5.671875-5.671875 14.8125-5.898437 20.722656-.476563 42.457032 38.953126 120.769532 90.886719 235.972656 90.886719 6.347657 0 11.316407-.128906 14.707032-.128906.5625 0 1.109375-.007813 1.660156-.019531 37.75-.878906 68.191406-31.871094 68.191406-69.828125v-5.882813c15.578125-31.167968 15.347656-30.148437 15.859375-33.210937l15.28125-91.386719 25.847657-25.851562c16.121093-16.121094 18.949218-40.890626 6.859374-60.230469zm-409.207031-.253907c8.285157 0 15 6.714844 15 15 0 8.28125-6.714843 15-15 15-25.988281 0-47.132812-21.144531-47.132812-47.136718 0-25.988282 21.144531-47.132813 47.132812-47.132813 8.285157 0 15 6.71875 15 15 0 8.285157-6.714843 15-15 15-9.445312 0-17.132812 7.6875-17.132812 17.132813 0 9.449218 7.6875 17.136718 17.132812 17.136718zm69.875 31.066407v-32.136719c0-8.28125 6.714844-15 15-15h32.132813c8.285156 0 15 6.71875 15 15 0 7.035156-4.847656 12.921875-11.378906 14.542969l39.117187 39.121093c5.859375 5.855469 5.859375 15.355469 0 21.210938-5.855469 5.859375-15.355469 5.859375-21.210937 0l-39.121094-39.117188c-1.621094 6.53125-7.507813 11.378907-14.539063 11.378907-8.285156 0-15-6.71875-15-15zm125.789063 164.164062c-3.523438 6.101563-12.296875 10.222657-20.492188 5.488281l-47.910156-27.660156c.121094 6.726563-4.308594 12.933594-11.101562 14.753906-8.359376 2.234376-16.328126-2.976562-18.371094-10.605468l-8.316406-31.039063c-2.144532-8 2.605468-16.226562 10.605468-18.371093l31.035156-8.3125c7.996094-2.148438 16.226563 2.601562 18.371094 10.601562 1.820313 6.792969-1.335937 13.734375-7.222656 16.992188l47.910156 27.660156c7.175782 4.140625 9.632813 13.316406 5.492188 20.492187zm28.300781-245.566406h-55.328125c3.472656 5.765625 2.734375 13.355469-2.238281 18.328125-5.855469 5.859375-15.351563 5.859375-21.210938 0l-22.71875-22.722656c-5.855469-5.855469-5.855469-15.355469 0-21.210938l22.71875-22.722656c5.855469-5.855469 15.351563-5.855469 21.214844 0 4.972656 4.972656 5.707031 12.5625 2.238281 18.328125h55.324219c8.285156 0 15 6.714844 15 15s-6.714844 15-15 15zm0 0"/><path d="m96.523438 113.097656c18.832031 0 69.445312 3.488282 113.972656-41.046875l71.554687-71.550781h-267.050781c-8.285156 0-15 6.714844-15 15v194.125c0-53.226562 43.300781-96.527344 96.523438-96.527344zm0 0"/></svg>