<?xml version="1.0" encoding="UTF-8" standalone="no"?>
<svg
   xmlns:dc="http://purl.org/dc/elements/1.1/"
   xmlns:cc="http://creativecommons.org/ns#"
   xmlns:rdf="http://www.w3.org/1999/02/22-rdf-syntax-ns#"
   xmlns:svg="http://www.w3.org/2000/svg"
   xmlns="http://www.w3.org/2000/svg"
   width="85.38002mm"
   height="68.332603mm"
   viewBox="0 0 85.38002 68.332603"
   version="1.1"
   id="svg8">
  <defs
     id="defs2">
    <style
       id="style2">
      .cls-1 {
        fill-rule: evenodd;
      }
    </style>
    <style
       id="style2-2">
      .cls-1 {
        fill-rule: evenodd;
      }
    </style>
  </defs>
  <metadata
     id="metadata5">
    <rdf:RDF>
      <cc:Work
         rdf:about="">
        <dc:format>image/svg+xml</dc:format>
        <dc:type
           rdf:resource="http://purl.org/dc/dcmitype/StillImage" />
        <dc:title></dc:title>
      </cc:Work>
    </rdf:RDF>
  </metadata>
  <g
     id="layer1"
     transform="translate(-90.155094,-97.210969)">
    <path
       id="IconGraphic"
       class="cls-1"
       d="m 112.97162,107.12437 c -1.91187,0 -3.46182,-1.65806 -3.46182,-3.50903 H 96.449311 v 0.67662 h 0.944133 v 3.14711 h -1.73091 v -1.57355 h -0.786777 v 1.57355 h -1.888265 v -1.57355 h -0.786778 v 1.57355 h -1.730909 v -3.14711 h 0.944132 v -0.67662 h -1.258843 v -2.73799 H 109.5098 c 0,-1.850968 1.54995,-3.666381 3.46182,-3.666381 a 3.4618194,3.4618194 0 0 1 3.46182,3.461821 v 2.98975 a 3.4618194,3.4618194 0 0 1 -3.46182,3.46183 z m 0.94414,-5.97951 a 0.944135,0.944135 0 0 0 -1.88827,0 v 2.04561 a 0.944135,0.944135 0 0 0 1.88827,0 z m 2.20297,33.67406 H 90.312449 v -25.96364 h 25.806281 z m -12.82446,-24.54745 a 2.556239,2.556239 0 1 0 2.552,2.55624 2.554036,2.554036 0 0 0 -2.552,-2.55624 z m 3.85521,6.86353 a 1.101488,1.101488 0 0 0 -1.10149,-1.10149 h -5.50744 a 1.101488,1.101488 0 0 0 -1.101485,1.10149 v 7.26416 a 1.101488,1.101488 0 0 0 1.101485,1.10148 h 0.0932 v 7.17825 a 1.1946425,1.1946425 0 1 0 2.38912,0 v -7.17825 h 0.43431 v 7.17825 a 1.1946425,1.1946425 0 1 0 2.38913,0 v -7.17825 h 0.20172 a 1.101488,1.101488 0 0 0 1.10149,-1.10148 z"
       style="fill:#ffffff;fill-rule:evenodd;stroke-width:0.157355" />
    <path
       id="IconGraphic-9"
       class="cls-1"
       d="m 174.80911,144.02138 c -1.19221,-0.26697 -2.01242,-0.11113 -2.03729,0.58208 -0.0249,0.69321 -2.86332,0.82815 -2.03729,2.61938 0.82602,1.79123 1.29857,2.03729 0.29104,4.36562 -1.00754,2.32834 -0.55219,2.01719 -0.58209,3.20146 -0.0299,1.18428 -0.95382,0.64717 -1.16416,1.74625 -0.21035,1.09908 -2.81517,4.76859 -4.65667,5.82083 -1.8415,1.05225 -2.40982,-0.48736 -4.65667,-0.29104 -2.24684,0.19632 -2.41088,2.17779 -4.36562,2.03729 -1.95474,-0.14049 -1.31789,-1.45388 -2.32833,-1.74625 -1.01045,-0.29236 -1.95184,0.13917 -3.20146,-1.16416 -1.24963,-1.30334 -1.46923,0.82867 -2.32834,0 -0.8591,-0.82868 -0.56197,-0.72126 -1.16416,-1.16417 -0.60219,-0.44291 -0.94377,0.76729 -1.45521,2.32833 -0.51144,1.56105 -1.85764,0.70803 -2.32833,0.87313 -0.4707,0.1651 -0.89959,0.90699 -1.45521,0.87312 -0.55563,-0.0339 -0.26829,-0.83873 -0.87313,-1.16416 -0.60484,-0.32544 -0.39264,0.7493 -1.16416,2.03729 -0.77153,1.28799 -2.81914,0.15875 -2.61938,-1.16417 0.19976,-1.32291 -1.32636,-2.286 -1.45521,-2.91041 -0.12885,-0.62442 1.5875,-0.59082 2.32834,-1.16417 0.74083,-0.57335 -0.5469,-0.93319 -1.16417,-1.16417 -0.61727,-0.23098 -0.20902,-1.08135 -0.87313,-1.16416 -0.6641,-0.0828 -1.42584,1.15199 -1.16416,0.29104 0.26167,-0.86096 2.853,-6.76037 3.4925,-7.56709 0.6395,-0.80671 1.31233,0.61331 2.32833,1.16417 1.016,0.55086 1.21708,-0.33999 1.45521,-1.45521 0.23812,-1.11522 0.99298,-1.1004 2.03729,-1.16416 1.04431,-0.0638 0.73184,-1.69466 0.87313,-2.32834 0.14128,-0.63367 0.72019,0.40508 1.16416,0.58209 0.44397,0.177 0.68792,-0.9488 1.16417,0 0.47625,0.94879 2.23811,1.1041 2.32833,0 0.0902,-1.10411 -0.87312,-1.74625 -0.87312,-1.74625 0,0 -0.14447,-2.77813 0,-3.20146 0.14446,-0.42334 1.16416,-1.16417 1.16416,-1.16417 h 7.27605 V 127.432 l 10.18645,-3.78354 4.94771,5.23875 v 1.16417 c 0,0 1.38986,1.26444 1.45521,2.61937 0.0494,0.58104 0.0494,1.16521 0,1.74625 0,0 1.54014,1.52824 1.45521,2.32834 0.39635,1.22164 0.59291,2.49925 0.58208,3.78354 -0.0331,1.8415 0.61013,3.75973 -0.58208,3.4925 z m -33.02318,-16.05307 c 0.46805,-0.47625 -2.64345,-7.81208 -21.69265,-7.81208 0.0709,-3.08399 0,-3.94547 0,-10.76854 17.13732,0 24.0366,16.18958 24.47184,15.74588 l 3.33375,-3.40175 1.193,10.83839 -10.85903,-0.97737 z"
       style="fill:#ffffff;fill-rule:evenodd;stroke-width:0.264583" />
  </g>
</svg>
