<?xml version="1.0" encoding="UTF-8" standalone="no"?>
<svg
   xmlns:dc="http://purl.org/dc/elements/1.1/"
   xmlns:cc="http://creativecommons.org/ns#"
   xmlns:rdf="http://www.w3.org/1999/02/22-rdf-syntax-ns#"
   xmlns:svg="http://www.w3.org/2000/svg"
   xmlns="http://www.w3.org/2000/svg"
   width="36.664707mm"
   height="46.0243mm"
   viewBox="0 0 36.664707 46.0243"
   version="1.1"
   id="svg865">
  <defs
     id="defs859">
    <style
       id="style2">
      .cls-1 {
        fill-rule: evenodd;
      }
    </style>
    <style
       id="style2-8">
      .cls-1 {
        fill-rule: evenodd;
      }
    </style>
    <style
       id="style2-7">
      .cls-1 {
        fill-rule: evenodd;
      }
    </style>
    <style
       id="style2-3">
      .cls-1 {
        fill-rule: evenodd;
      }
    </style>
    <style
       id="style2-6">
      .cls-1 {
        fill-rule: evenodd;
      }
    </style>
    <style
       id="style2-9">
      .cls-1 {
        fill-rule: evenodd;
      }
    </style>
    <style
       id="style2-8-0">
      .cls-1 {
        fill-rule: evenodd;
      }
    </style>
    <style
       id="style2-7-5">
      .cls-1 {
        fill-rule: evenodd;
      }
    </style>
    <style
       id="style2-32">
      .cls-1 {
        fill-rule: evenodd;
      }
    </style>
    <style
       id="style2-8-08">
      .cls-1 {
        fill-rule: evenodd;
      }
    </style>
    <style
       id="style2-7-1">
      .cls-1 {
        fill-rule: evenodd;
      }
    </style>
    <style
       id="style2-4">
      .cls-1 {
        fill-rule: evenodd;
      }
    </style>
    <style
       id="style2-8-2">
      .cls-1 {
        fill-rule: evenodd;
      }
    </style>
    <style
       id="style2-7-4">
      .cls-1 {
        fill-rule: evenodd;
      }
    </style>
    <style
       id="style2-3-8">
      .cls-1 {
        fill-rule: evenodd;
      }
    </style>
  </defs>
  <metadata
     id="metadata862">
    <rdf:RDF>
      <cc:Work
         rdf:about="">
        <dc:format>image/svg+xml</dc:format>
        <dc:type
           rdf:resource="http://purl.org/dc/dcmitype/StillImage" />
        <dc:title></dc:title>
      </cc:Work>
    </rdf:RDF>
  </metadata>
  <g
     id="layer1"
     transform="translate(-66.234554,-104.63918)">
    <path
       style="fill:#ffffff;fill-rule:evenodd;stroke-width:0.354032"
       d="m 93.173627,128.23047 c -0.271346,0.15262 -0.353227,0.19721 -0.55547,0.32146 l -0.85606,0.49564 c -0.141247,0.0896 -0.236396,0.13838 -0.51122,0.29597 l -1.2292,0.71161 -0.0216,0.0744 -0.0733,-0.0173 -4.90795,2.84146 2.10366,17.70977 h -2.94166 l -0.36961,-4.95646 h -6.83601 l -0.36961,4.95645 h -2.737735 l 2.114635,-17.80784 -4.85875,-2.74269 -0.32571,0.0779 -0.09488,-0.31509 -3.940384,-2.2244 h -0.528219 v -1.41612 h 3.186298 v -0.70807 c 7.13e-4,-0.9434 1.416823,-0.9434 1.416132,0 v 0.70807 h 2.832259 v -0.70807 c 7.14e-4,-0.9434 1.416824,-0.9434 1.416134,0 v 0.70807 h 1.68378 l 0.75515,-6.35985 -5.981029,-3.39234 0.09028,-0.16073 h -0.442561 v -1.0621 h 2.497351 c -0.0099,-0.0306 -0.01632,-0.0622 -0.01912,-0.0942 v -0.5197 c -0.01728,-0.61441 0.913339,-0.61441 0.896053,0 v 0.52006 c -0.0029,0.032 -0.0093,0.0636 -0.01912,0.0942 h 1.840966 c -0.01,-0.0306 -0.0163,-0.0622 -0.0191,-0.0942 v -0.52006 c -0.0173,-0.61438 0.91331,-0.61438 0.89606,0 v 0.52006 c -0.003,0.0318 -0.009,0.0633 -0.0191,0.0938 h 0.82667 l 1.26212,-10.62099 h 2.3228 l 0.58486,4.92532 0.28146,0.28145 -0.22163,0.22162 0.61673,5.19259 h 1.33683 c -0.01,-0.0306 -0.0163,-0.0622 -0.0191,-0.0942 v -0.51972 c 0.0163,-0.58083 0.87976,-0.58083 0.89606,0 v 0.52008 c -0.003,0.032 -0.009,0.0636 -0.0191,0.0942 h 1.84097 c -0.01,-0.0306 -0.0163,-0.0622 -0.0191,-0.0942 v -0.52008 c 0.0163,-0.5808 0.87972,-0.5808 0.89606,0 v 0.52008 c -0.003,0.032 -0.009,0.0636 -0.0191,0.0942 h 1.7893 v 1.0621 h -0.46025 l 0.10975,0.20074 -0.56644,0.3296 c 1.81583,2.24351 2.24775,5.83268 2.33342,7.96574 v 0 c 0.39105,0 0.70806,0.317 0.70807,0.70805 v 0.70807 h 3.18629 v 1.41613 h -0.73782 z m -23.139925,-0.5792 h -1.345325 l 1.620758,0.91482 z m 0.823122,0 0.443956,1.4749 1.322312,0.74631 0.595131,-2.22121 z m 3.367566,0 h -0.26022 l -0.693192,2.58691 1.939389,1.09503 z m 0.74594,0 1.119107,4.17759 0.0141,0.008 0.49742,-4.18571 z m -1.124053,-11.32906 h -1.380724 l 1.671744,0.94811 z m 14.40205,13.64727 1.19982,-0.69461 0.48891,-1.6236 h -2.3097 z m -0.63443,0.36748 -0.71974,-2.68569 h -0.26553 l -1.03271,3.85399 z m -2.7618,1.20868 1.04333,-3.89437 h -1.5057 z m -7.35645,7.18438 -0.36182,4.85272 h 5.21454 z m 6.14141,4.63782 -0.35404,-4.74403 h -4.39 z m -9.268576,-27.04563 0.398635,1.30604 0.621691,0.35402 0.45033,-1.66006 z m 2.186856,0 h -0.24357 l -0.51371,1.89089 1.46252,0.82951 z m 0.50485,0 0.60787,2.34406 0.27828,-2.34406 h -0.88509 z m 0.57955,20.47797 4.90478,-3.83842 h -4.61872 z m 0.36537,-4.90052 h 4.2105 l -3.91843,-3.91843 z m 0.4436,-5.93891 3.2617,-3.26169 -2.73065,-2.7303 -0.0917,0.0917 z m 0.79728,-10.70063 h 1.96417 l -1.82645,-1.82644 z m 1.58181,-9.55888 h -0.86879 l -0.44254,5.93359 1.63209,-1.63209 z m 0.40537,5.43441 -1.46923,1.46923 1.70608,1.7061 z m 0.38661,5.18656 h -2.45309 l -0.20286,2.71863 0.016,0.0155 2.6464,-2.64639 z m 0.0708,0.93714 -2.25343,2.25342 2.6156,2.61559 z m 0.44006,5.93111 -3.04468,3.04468 h 3.27232 z m 0.33279,4.46081 h -3.19196 l 3.4504,3.4504 z m -3.84763,9.55888 h 4.56172 l -0.25172,-3.37322 z m 4.42824,-20.88794 0.21561,1.81443 0.47051,-1.81443 z m 1.48517,0 h -0.3027 l -0.74028,2.85386 1.57013,-0.9134 z m 0.46449,0 0.46378,1.70716 0.55088,-0.32076 0.42342,-1.3864 z m 1.95072,0 -0.31261,1.02388 1.75954,-1.02388 h -1.44587 z m 3.36437,6.01078 c -0.0601,-1.92906 -0.78647,-3.77777 -2.05551,-5.23189 l -4.78581,2.78411 0.75409,6.34993 h 1.83884 v -0.70807 c 7.2e-4,-0.94339 1.41683,-0.94339 1.41614,0 v 0.70807 h 2.58833 c 0.12921,-0.50769 0.31792,-1.6551 0.24392,-3.90215 z m 0.43723,5.31828 -0.31863,1.05607 1.82469,-1.05607 z"
       class="cls-1"
       id="IconGraphic-6" />
    <path
       style="fill:#fefefe;stroke-width:0.0229802"
       d="m 89.455164,150.58813 c -0.03792,-0.01 -0.1192,-0.019 -0.180627,-0.0205 -0.160852,-0.004 -0.359425,-0.11561 -0.554741,-0.31204 -0.210204,-0.2114 -0.298048,-0.37958 -0.324549,-0.62137 -0.02622,-0.23925 -0.02546,-9.87388 8.14e-4,-10.09979 0.02576,-0.22158 0.109721,-0.39039 0.290057,-0.58318 0.16327,-0.17453 0.311786,-0.27507 0.523658,-0.3545 0.127779,-0.0479 0.209267,-0.0598 0.48669,-0.0713 l 0.333211,-0.0137 0.01148,-0.55153 c 0.01137,-0.54622 0.01211,-0.55277 0.07557,-0.68201 0.06932,-0.14114 0.304267,-0.37922 0.390926,-0.39613 0.259412,-0.0507 0.587897,-0.0628 1.406386,-0.0521 0.492925,0.006 0.959521,0.0206 1.036885,0.0315 0.215069,0.0303 0.386869,0.16873 0.509127,0.41011 0.07477,0.14762 0.09707,0.3332 0.09707,0.8078 v 0.44389 h 0.278188 c 0.325973,0 0.489324,0.0355 0.720033,0.15645 0.209887,0.11004 0.436865,0.33741 0.544916,0.54586 0.07075,0.13644 0.08551,0.1926 0.102785,0.38925 0.02568,0.29346 0.02655,9.6474 8.22e-4,9.93892 -0.02481,0.28225 -0.102611,0.45114 -0.307919,0.66878 -0.203633,0.21586 -0.380239,0.32042 -0.589659,0.3491 -0.19636,0.0269 -4.751022,0.0424 -4.851232,0.0165 z m 4.467348,-0.87517 c 0.162183,-0.0348 0.292682,-0.13673 0.359953,-0.28121 l 0.05553,-0.11929 2.3e-4,-4.70826 c 1.82e-4,-3.64339 -0.0061,-4.72967 -0.02786,-4.80286 -0.01696,-0.0571 -0.07014,-0.13681 -0.134347,-0.2013 -0.08471,-0.0851 -0.131432,-0.11216 -0.230438,-0.13354 -0.09096,-0.0197 -0.687195,-0.0249 -2.228678,-0.0197 l -2.104505,0.007 -0.112478,0.0695 c -0.06971,0.0431 -0.138929,0.11233 -0.182028,0.18204 l -0.06955,0.11249 -0.007,4.68976 c -0.005,3.3408 2.08e-4,4.72354 0.01816,4.80721 0.04206,0.19595 0.176917,0.34009 0.365841,0.39101 0.140514,0.0379 4.122976,0.0443 4.297206,0.007 z M 90.891149,146.344 c -0.461178,-0.93119 -0.838502,-1.71829 -0.838502,-1.74911 0,-0.0507 0.08144,-0.097 0.850267,-0.4843 l 0.850265,-0.42827 0.0059,-1.25816 0.0059,-1.25817 h 0.05227 c 0.04632,0 0.146504,0.1903 0.878796,1.66916 0.454584,0.91804 0.829732,1.69844 0.833662,1.73425 0.007,0.064 -0.007,0.0721 -0.844521,0.49104 l -0.851666,0.42595 v 1.27534 1.27534 h -0.05199 c -0.04592,0 -0.149587,-0.19709 -0.890481,-1.69307 z m 1.718586,-8.22862 0.0063,-0.39641 h -0.827832 -0.827829 v 0.38684 c 0,0.21275 0.007,0.39385 0.01561,0.40244 0.0086,0.009 0.37828,0.0129 0.821543,0.01 l 0.805931,-0.006 z"
       id="path855" />
    <path
       style="fill:#fefefe;stroke-width:0.0229802"
       d="m 97.131624,150.58863 c -0.03792,-0.01 -0.1192,-0.019 -0.180627,-0.0205 -0.160852,-0.004 -0.359425,-0.11561 -0.554741,-0.31204 -0.210204,-0.2114 -0.298048,-0.37958 -0.324549,-0.62137 -0.02622,-0.23925 -0.02546,-9.87388 8.14e-4,-10.09979 0.02576,-0.22158 0.109721,-0.39039 0.290057,-0.58318 0.16327,-0.17453 0.311786,-0.27507 0.523658,-0.3545 0.127779,-0.0479 0.209267,-0.0598 0.48669,-0.0713 l 0.333211,-0.0137 0.01148,-0.55153 c 0.01137,-0.54622 0.01211,-0.55277 0.07557,-0.68201 0.06932,-0.14114 0.304267,-0.37922 0.390926,-0.39613 0.259412,-0.0507 0.587897,-0.0628 1.406386,-0.0521 0.492931,0.006 0.959521,0.0206 1.036891,0.0315 0.21507,0.0303 0.38687,0.16873 0.50913,0.41011 0.0748,0.14762 0.0971,0.3332 0.0971,0.8078 v 0.44389 h 0.27818 c 0.32598,0 0.48933,0.0355 0.72004,0.15645 0.20988,0.11004 0.43686,0.33741 0.54491,0.54586 0.0708,0.13644 0.0855,0.1926 0.10279,0.38925 0.0257,0.29346 0.0266,9.6474 8.2e-4,9.93892 -0.0248,0.28225 -0.10261,0.45114 -0.30792,0.66878 -0.20363,0.21586 -0.38024,0.32042 -0.58966,0.3491 -0.19636,0.0269 -4.751027,0.0424 -4.851237,0.0165 z m 4.467356,-0.87517 c 0.16218,-0.0348 0.29268,-0.13673 0.35995,-0.28121 l 0.0555,-0.11929 2.3e-4,-4.70826 c 1.8e-4,-3.64339 -0.006,-4.72967 -0.0279,-4.80286 -0.017,-0.0571 -0.0701,-0.13681 -0.13435,-0.2013 -0.0847,-0.0851 -0.13143,-0.11216 -0.23044,-0.13354 -0.091,-0.0197 -0.68719,-0.0249 -2.228678,-0.0197 l -2.104505,0.007 -0.112478,0.0695 c -0.06971,0.0431 -0.138929,0.11233 -0.182028,0.18204 l -0.06955,0.11249 -0.007,4.68976 c -0.005,3.3408 2.08e-4,4.72354 0.01816,4.80721 0.04206,0.19595 0.176917,0.34009 0.365841,0.39101 0.140514,0.0379 4.122978,0.0443 4.297208,0.007 z m -3.031371,-3.36896 c -0.461178,-0.93119 -0.838502,-1.71829 -0.838502,-1.74911 0,-0.0507 0.08144,-0.097 0.850267,-0.4843 l 0.850265,-0.42827 0.0059,-1.25816 0.0059,-1.25817 h 0.05227 c 0.04632,0 0.146504,0.1903 0.878801,1.66916 0.45458,0.91804 0.82973,1.69844 0.83366,1.73425 0.007,0.064 -0.007,0.0721 -0.84452,0.49104 l -0.85167,0.42595 v 1.27534 1.27534 h -0.05199 c -0.04592,0 -0.149587,-0.19709 -0.890481,-1.69307 z m 1.718591,-8.22862 0.006,-0.39641 h -0.827837 -0.827829 v 0.38684 c 0,0.21275 0.007,0.39385 0.01561,0.40244 0.0086,0.009 0.37828,0.0129 0.821543,0.01 l 0.805933,-0.006 z"
       id="path855-7" />
  </g>
</svg>
