<?xml version="1.0" encoding="UTF-8" standalone="no"?>
<svg
   xmlns:dc="http://purl.org/dc/elements/1.1/"
   xmlns:cc="http://creativecommons.org/ns#"
   xmlns:rdf="http://www.w3.org/1999/02/22-rdf-syntax-ns#"
   xmlns:svg="http://www.w3.org/2000/svg"
   xmlns="http://www.w3.org/2000/svg"
   width="40.531399mm"
   height="40.56002mm"
   viewBox="0 0 40.531399 40.56002"
   version="1.1"
   id="svg8">
  <defs
     id="defs2">
    <style
       id="style2">
      .cls-1 {
        fill-rule: evenodd;
      }
    </style>
  </defs>
  <metadata
     id="metadata5">
    <rdf:RDF>
      <cc:Work
         rdf:about="">
        <dc:format>image/svg+xml</dc:format>
        <dc:type
           rdf:resource="http://purl.org/dc/dcmitype/StillImage" />
        <dc:title></dc:title>
      </cc:Work>
    </rdf:RDF>
  </metadata>
  <g
     id="layer1"
     transform="translate(-139.42924,-170.40898)">
    <path
       id="IconGraphic"
       class="cls-1"
       d="m 162.4846,187.80424 0.24843,0.7656 -0.4612,0.33508 1.79029,0.89523 0.70526,2.75679 c -2.47524,-2.22355 0,0 -2.47524,-2.22355 -0.87013,-1.06207 0,0 -0.87013,-1.06207 l 0.0101,-0.36391 -0.42217,-0.30689 c -0.72486,-0.6198 0,0 -0.72486,-0.6198 l 0.9105,-0.1119 0.10945,-0.33699 h 0.79892 l -0.65936,-1.97705 4.6763,-7.89124 0.58454,0.29226 z m -4.07861,13.89547 h -5.26083 l -3.24521,-6.79232 h 5.26084 z m -2.78693,-5.26405 h -0.78912 l 0.48677,1.01885 h 0.78913 z m -0.6785,2.28671 h 0.78913 l -0.48678,-1.01885 h -0.78912 z m -0.67966,-1.01885 h -0.78913 l 0.48677,1.01885 h 0.78912 z m 0.79862,1.26787 0.48677,1.01884 h 0.78913 l -0.48677,-1.01884 z m -0.1929,0 h -0.78913 l 0.48678,1.01884 h 0.78912 z m -0.98202,0 h -0.78913 l 0.48677,1.01884 h 0.78913 z m -0.11895,-0.24843 -0.48678,-1.01884 h -0.78912 l 0.48677,1.01884 z m -0.60588,-1.26786 -0.48677,-1.01885 h -0.78913 l 0.48677,1.01885 z m 0.1929,0 h 0.78912 l -0.48676,-1.01885 h -0.78913 z m 0.98202,0 h 0.78912 l -0.48677,-1.01885 h -0.78912 z m 1.89025,0.24842 h -0.78913 l 0.48678,1.01885 h 0.78912 z m 0.60573,1.26787 h -0.78913 l 0.48677,1.01884 h 0.78912 z m 1.0925,2.2867 -0.48677,-1.01884 h -0.78913 l 0.48677,1.01884 z m -0.98203,0 -0.48677,-1.01884 h -0.78913 l 0.48678,1.01884 z m -0.98202,0 -0.48677,-1.01884 h -0.78913 l 0.48677,1.01884 z m -0.98203,0 -0.48677,-1.01884 h -0.78912 l 0.48677,1.01884 z m -1.77114,0 h 0.78912 l -0.48676,-1.01884 h -0.78913 z m -0.60573,-1.26786 h 0.78913 l -0.48678,-1.01884 h -0.78912 z m -0.60572,-1.26786 h 0.78913 l -0.48678,-1.01885 h -0.78942 z m -0.60588,-1.26786 h 0.78913 l -0.48677,-1.01885 h -0.78913 z m -1.0925,-2.28671 0.48678,1.01885 h 0.78912 l -0.48677,-1.01885 z m 0.98203,0 0.48677,1.01885 h 0.78912 l -0.48677,-1.01885 z m 0.98202,0 0.48677,1.01885 h 0.78913 l -0.48678,-1.01885 z m 0.98202,0 0.48678,1.01885 h 0.78912 l -0.48678,-1.01885 z m 0.98202,0 0.48678,1.01885 h 0.78913 l -0.48678,-1.01885 z"
       style="fill:#ffffff;fill-rule:evenodd;stroke-width:0.146134" />
    <path
       style="fill:#fefefe;stroke-width:0.0846667"
       d="m 157.57882,210.9211 c -0.25612,-0.038 -0.77047,-0.0729 -1.143,-0.0776 -0.81545,-0.0102 -1.62033,-0.16939 -2.921,-0.57785 -2.75202,-0.86422 -4.9804,-2.10981 -7.33673,-4.10095 -1.0807,-0.91321 -1.83193,-1.75446 -3.31432,-3.7115 -0.27461,-0.36253 -1.16451,-1.87467 -1.49481,-2.54 -0.71884,-1.44799 -1.44892,-3.56476 -1.6937,-4.91067 -0.22998,-1.26447 -0.31472,-4.30378 -0.18531,-6.64633 0.0841,-1.52311 0.22845,-2.38026 0.61596,-3.65857 2.00371,-6.6096 7.07044,-11.68922 13.6125,-13.64714 1.74155,-0.52122 2.86237,-0.64151 5.97707,-0.64151 3.11972,0 4.23481,0.12005 5.98708,0.64455 2.89481,0.86651 5.34069,2.23572 7.73853,4.33206 1.67895,1.46784 3.52565,3.9043 4.60093,6.07027 0.71884,1.44799 1.44892,3.56475 1.6937,4.91067 0.33101,1.81997 0.32536,6.81226 -0.01,8.6242 -0.6974,3.77083 -3.02521,7.97216 -5.89499,10.63951 -2.33796,2.17304 -5.15803,3.7974 -8.13842,4.68771 -0.60981,0.18216 -1.24209,0.35814 -1.40508,0.39106 -0.92489,0.18682 -5.81452,0.34185 -6.68866,0.21207 z m 3.34433,-4.32296 c 2.08024,-0.19717 4.06559,-0.76402 5.8213,-1.66208 0.89703,-0.45884 2.12905,-1.23297 2.64206,-1.66011 l 0.25068,-0.20872 -9.14069,-9.08724 c -14.62713,-14.5416 -13.22328,-13.17889 -13.37835,-12.98635 -0.43773,0.54353 -1.38019,2.07117 -1.74772,2.83291 -2.63594,5.46319 -1.94196,11.78004 1.83153,16.67136 0.49065,0.636 1.955,2.10274 2.66445,2.66879 1.89951,1.5156 4.31928,2.6562 6.65663,3.13773 1.7317,0.35676 2.9071,0.43521 4.40011,0.29371 z m 11.36183,-6.24042 c 0.0659,-0.0815 0.38653,-0.54554 0.71252,-1.03121 1.10076,-1.63992 1.897,-3.58502 2.33111,-5.69453 0.21067,-1.02373 0.23194,-1.29404 0.23194,-2.94743 0,-1.65339 -0.0213,-1.9237 -0.23194,-2.94743 -0.85467,-4.15317 -3.12959,-7.63978 -6.61086,-10.13199 -0.90276,-0.64628 -2.98844,-1.70494 -4.06927,-2.06549 -1.88636,-0.62928 -4.25688,-0.93178 -6.05366,-0.7725 -3.08244,0.27325 -5.8716,1.31256 -8.24571,3.07257 l -0.58449,0.4333 11.16726,11.11245 c 6.14201,6.11185 11.18213,11.11424 11.20028,11.11644 0.0181,0.002 0.0869,-0.0627 0.15282,-0.14418 z"
       id="path233" />
    <path
       id="IconGraphic-3"
       class="cls-1"
       d="m 155.52549,189.87515 -4.88478,-0.0433 -0.0375,-0.66126 3.70971,-0.45591 c 1.21257,1.16048 0,0 1.21257,1.16048 z"
       style="fill:#ffffff;fill-rule:evenodd;stroke-width:0.146134" />
    <path
       id="IconGraphic-4"
       class="cls-1"
       d="m 162.46124,196.50125 0.26148,9.53762 c -0.67203,0.19177 -0.98556,0.21715 -1.77451,0.25859 l 0.30513,-10.96479 c 1.2079,1.16858 0,0 1.2079,1.16858 z"
       style="fill:#ffffff;fill-rule:evenodd;stroke-width:0.146134" />
  </g>
</svg>
