<?xml version="1.0" encoding="UTF-8" standalone="no"?>
<svg
   xmlns:dc="http://purl.org/dc/elements/1.1/"
   xmlns:cc="http://creativecommons.org/ns#"
   xmlns:rdf="http://www.w3.org/1999/02/22-rdf-syntax-ns#"
   xmlns:svg="http://www.w3.org/2000/svg"
   xmlns="http://www.w3.org/2000/svg"
   width="57.477974mm"
   height="57.477982mm"
   viewBox="0 0 57.477974 57.477982"
   version="1.1"
   id="svg191">
  <defs
     id="defs185">
    <style
       id="style2">
      .cls-1, .cls-2 {
        fill-rule: evenodd;
      }

      .cls-2 {
        fill: none;
        stroke: #000;
        stroke-width: 6.35px;
      }
    </style>
    <style
       id="style2-8">
      .cls-1 {
        fill-rule: evenodd;
      }
    </style>
  </defs>
  <metadata
     id="metadata188">
    <rdf:RDF>
      <cc:Work
         rdf:about="">
        <dc:format>image/svg+xml</dc:format>
        <dc:type
           rdf:resource="http://purl.org/dc/dcmitype/StillImage" />
        <dc:title></dc:title>
      </cc:Work>
    </rdf:RDF>
  </metadata>
  <g
     id="layer1"
     transform="translate(-77.233373,-110.50843)">
    <g
       id="g26"
       style="fill:#ffffff"
       transform="matrix(0.21322798,0,0,0.21322798,78.60599,114.54174)">
      <path
         d="m 180.8526,196.67256 c -7.09889,5.25372 -16.76943,10.47431 -26.79238,13.22169 -18.0363,3.50228 -35.2689,3.60602 -52.06053,0.47005 C 89.914409,206.63246 79.043793,199.60047 69.555185,190.60561 L 72,108 h 24 l 1,64 31,-20 17,21 6.94153,-5.51504 13.15074,13.81432 z"
         class="cls-1"
         data-name="Mini Factory"
         id="Mini_Factory"
         style="fill:#ffffff;fill-rule:evenodd" />
      <path
         id="Emission_1"
         d="m 155,17.005859 c -19.01583,0 -30.57559,6.784372 -37.05859,14.242188 -3.24151,3.728908 -5.22998,7.573107 -6.41602,10.755859 -1.18604,3.182753 -1.60547,5.431584 -1.60547,7.115235 v 19.953125 c 0,1.702749 -0.29676,3.088831 -0.80375,4.240318 -0.31564,0.716892 -0.43858,1.096081 -0.89632,1.650917 1.88103,1.645059 2.2588,1.934568 4.6984,3.97687 1.95132,-2.496989 3.35128,-5.773472 3.35128,-9.868119 V 49.119141 c 0,-0.07585 0.2482,-2.325409 1.20703,-4.898438 0.95883,-2.573028 2.59086,-5.740923 5.25586,-8.806641 5.33,-6.131434 14.72341,-12.058593 32.26758,-12.058593 z"
         style="color:#000000;font-style:normal;font-variant:normal;font-weight:normal;font-stretch:normal;font-size:medium;line-height:normal;font-family:sans-serif;font-variant-ligatures:normal;font-variant-position:normal;font-variant-caps:normal;font-variant-numeric:normal;font-variant-alternates:normal;font-feature-settings:normal;text-indent:0;text-align:start;text-decoration:none;text-decoration-line:none;text-decoration-style:solid;text-decoration-color:#000000;letter-spacing:normal;word-spacing:normal;text-transform:none;writing-mode:lr-tb;direction:ltr;text-orientation:mixed;dominant-baseline:auto;baseline-shift:baseline;text-anchor:start;white-space:normal;shape-padding:0;clip-rule:nonzero;display:inline;overflow:visible;visibility:visible;opacity:1;isolation:auto;mix-blend-mode:normal;color-interpolation:sRGB;color-interpolation-filters:linearRGB;solid-color:#000000;solid-opacity:1;vector-effect:none;fill:#ffffff;fill-opacity:1;fill-rule:evenodd;stroke:none;stroke-width:6.35px;stroke-linecap:butt;stroke-linejoin:miter;stroke-miterlimit:4;stroke-dasharray:none;stroke-dashoffset:0;stroke-opacity:1;color-rendering:auto;image-rendering:auto;shape-rendering:auto;text-rendering:auto;enable-background:accumulate" />
      <path
         id="Emission_2"
         d="m 155,24.988281 c -14.94514,0 -24.43008,5.219358 -29.92773,10.982422 -2.74883,2.881532 -4.51376,5.858736 -5.60352,8.339844 -1.08976,2.481108 -1.56836,4.043986 -1.56836,5.806641 v 19.957031 c 0,3.338228 -0.82449,6.108016 -2.29367,8.307099 -0.84026,1.257713 -0.81668,1.34952 -1.39092,1.953557 2.00598,1.680486 2.98985,2.608909 4.68349,4.213821 0.76361,-0.854334 0.98638,-1.238354 1.65189,-2.238884 2.17927,-3.276275 3.70077,-7.342148 3.70077,-12.235593 V 50.117188 c 0,0.459154 0.20574,-1.374421 1.03125,-3.253907 0.82552,-1.879485 2.20702,-4.228923 4.38282,-6.509765 4.3516,-4.561686 11.82812,-9.013672 25.33398,-9.013672 z"
         style="color:#000000;font-style:normal;font-variant:normal;font-weight:normal;font-stretch:normal;font-size:medium;line-height:normal;font-family:sans-serif;font-variant-ligatures:normal;font-variant-position:normal;font-variant-caps:normal;font-variant-numeric:normal;font-variant-alternates:normal;font-feature-settings:normal;text-indent:0;text-align:start;text-decoration:none;text-decoration-line:none;text-decoration-style:solid;text-decoration-color:#000000;letter-spacing:normal;word-spacing:normal;text-transform:none;writing-mode:lr-tb;direction:ltr;text-orientation:mixed;dominant-baseline:auto;baseline-shift:baseline;text-anchor:start;white-space:normal;shape-padding:0;clip-rule:nonzero;display:inline;overflow:visible;visibility:visible;opacity:1;isolation:auto;mix-blend-mode:normal;color-interpolation:sRGB;color-interpolation-filters:linearRGB;solid-color:#000000;solid-opacity:1;vector-effect:none;fill:#ffffff;fill-opacity:1;fill-rule:evenodd;stroke:none;stroke-width:6.35px;stroke-linecap:butt;stroke-linejoin:miter;stroke-miterlimit:4;stroke-dasharray:none;stroke-dashoffset:0;stroke-opacity:1;color-rendering:auto;image-rendering:auto;shape-rendering:auto;text-rendering:auto;enable-background:accumulate" />
      <path
         id="Emission_3"
         d="m 155,33.970703 c -12.88391,0 -20.51932,3.890711 -24.62305,8.876953 -4.10373,4.986242 -4.49414,10.594899 -4.49414,13.257813 v 16.96289 c 0,3.837254 -1.05029,7.153989 -2.7368,9.999665 -0.83454,1.408117 -1.24321,2.119246 -2.33914,3.302675 1.93645,1.689441 2.88808,2.38325 4.91666,4.14771 0.64379,-0.743216 1.00806,-1.466518 1.5883,-2.285816 2.91585,-4.11716 4.92059,-9.189669 4.92059,-15.164234 v -16.96289 c 0,-2.029087 0.31386,-5.901898 3.04688,-9.222657 2.73302,-3.320758 8.06761,-6.5625 19.7207,-6.5625 z"
         style="color:#000000;font-style:normal;font-variant:normal;font-weight:normal;font-stretch:normal;font-size:medium;line-height:normal;font-family:sans-serif;font-variant-ligatures:normal;font-variant-position:normal;font-variant-caps:normal;font-variant-numeric:normal;font-variant-alternates:normal;font-feature-settings:normal;text-indent:0;text-align:start;text-decoration:none;text-decoration-line:none;text-decoration-style:solid;text-decoration-color:#000000;letter-spacing:normal;word-spacing:normal;text-transform:none;writing-mode:lr-tb;direction:ltr;text-orientation:mixed;dominant-baseline:auto;baseline-shift:baseline;text-anchor:start;white-space:normal;shape-padding:0;clip-rule:nonzero;display:inline;overflow:visible;visibility:visible;opacity:1;isolation:auto;mix-blend-mode:normal;color-interpolation:sRGB;color-interpolation-filters:linearRGB;solid-color:#000000;solid-opacity:1;vector-effect:none;fill:#ffffff;fill-opacity:1;fill-rule:evenodd;stroke:none;stroke-width:6.35px;stroke-linecap:butt;stroke-linejoin:miter;stroke-miterlimit:4;stroke-dasharray:none;stroke-dashoffset:0;stroke-opacity:1;color-rendering:auto;image-rendering:auto;shape-rendering:auto;text-rendering:auto;enable-background:accumulate" />
      <path
         id="Emission_3-3"
         d="M 90.740211,98.734736 C 90.21137,99.376553 89.96289,101.46119 89.96289,102.00586 V 105 h 6.34961 v -0.86417 c -2.423186,-2.44072 -3.526649,-3.50498 -5.572289,-5.401094 z"
         style="color:#000000;font-style:normal;font-variant:normal;font-weight:normal;font-stretch:normal;font-size:medium;line-height:normal;font-family:sans-serif;font-variant-ligatures:normal;font-variant-position:normal;font-variant-caps:normal;font-variant-numeric:normal;font-variant-alternates:normal;font-feature-settings:normal;text-indent:0;text-align:start;text-decoration:none;text-decoration-line:none;text-decoration-style:solid;text-decoration-color:#000000;letter-spacing:normal;word-spacing:normal;text-transform:none;writing-mode:lr-tb;direction:ltr;text-orientation:mixed;dominant-baseline:auto;baseline-shift:baseline;text-anchor:start;white-space:normal;shape-padding:0;clip-rule:nonzero;display:inline;overflow:visible;visibility:visible;opacity:1;isolation:auto;mix-blend-mode:normal;color-interpolation:sRGB;color-interpolation-filters:linearRGB;solid-color:#000000;solid-opacity:1;vector-effect:none;fill:#ffffff;fill-opacity:1;fill-rule:evenodd;stroke:none;stroke-width:6.35px;stroke-linecap:butt;stroke-linejoin:miter;stroke-miterlimit:4;stroke-dasharray:none;stroke-dashoffset:0;stroke-opacity:1;color-rendering:auto;image-rendering:auto;shape-rendering:auto;text-rendering:auto;enable-background:accumulate" />
      <path
         id="Emission_2-0"
         d="M 81.938217,90.978045 C 81.199901,91.54231 80.87032,93.233291 80.98243,94.232423 V 105 h 6.34961 v -8.649662 c -2.467058,-2.514047 -3.002862,-3.095384 -5.393823,-5.372293 z"
         style="color:#000000;font-style:normal;font-variant:normal;font-weight:normal;font-stretch:normal;font-size:medium;line-height:normal;font-family:sans-serif;font-variant-ligatures:normal;font-variant-position:normal;font-variant-caps:normal;font-variant-numeric:normal;font-variant-alternates:normal;font-feature-settings:normal;text-indent:0;text-align:start;text-decoration:none;text-decoration-line:none;text-decoration-style:solid;text-decoration-color:#000000;letter-spacing:normal;word-spacing:normal;text-transform:none;writing-mode:lr-tb;direction:ltr;text-orientation:mixed;dominant-baseline:auto;baseline-shift:baseline;text-anchor:start;white-space:normal;shape-padding:0;clip-rule:nonzero;display:inline;overflow:visible;visibility:visible;opacity:1;isolation:auto;mix-blend-mode:normal;color-interpolation:sRGB;color-interpolation-filters:linearRGB;solid-color:#000000;solid-opacity:1;vector-effect:none;fill:#ffffff;fill-opacity:1;fill-rule:evenodd;stroke:none;stroke-width:6.35px;stroke-linecap:butt;stroke-linejoin:miter;stroke-miterlimit:4;stroke-dasharray:none;stroke-dashoffset:0;stroke-opacity:1;color-rendering:auto;image-rendering:auto;shape-rendering:auto;text-rendering:auto;enable-background:accumulate" />
      <path
         id="Emission_1-6"
         d="m 74.762338,82.997455 c -2.509717,2.500042 -3.369758,5.339481 -3.742822,8.731313 l -0.0137,0.14843 v 13.123062 h 6.34961 V 92.277608 c 0.0199,-0.0924 0.8253,-3.79124 1.94531,-4.85743 -2.184301,-2.236159 -2.522168,-2.522142 -4.538398,-4.422723 z"
         style="color:#000000;font-style:normal;font-variant:normal;font-weight:normal;font-stretch:normal;font-size:medium;line-height:normal;font-family:sans-serif;font-variant-ligatures:normal;font-variant-position:normal;font-variant-caps:normal;font-variant-numeric:normal;font-variant-alternates:normal;font-feature-settings:normal;text-indent:0;text-align:start;text-decoration:none;text-decoration-line:none;text-decoration-style:solid;text-decoration-color:#000000;letter-spacing:normal;word-spacing:normal;text-transform:none;writing-mode:lr-tb;direction:ltr;text-orientation:mixed;dominant-baseline:auto;baseline-shift:baseline;text-anchor:start;white-space:normal;shape-padding:0;clip-rule:nonzero;display:inline;overflow:visible;visibility:visible;opacity:1;isolation:auto;mix-blend-mode:normal;color-interpolation:sRGB;color-interpolation-filters:linearRGB;solid-color:#000000;solid-opacity:1;vector-effect:none;fill:#ffffff;fill-opacity:1;fill-rule:evenodd;stroke:none;stroke-width:6.35px;stroke-linecap:butt;stroke-linejoin:miter;stroke-miterlimit:4;stroke-dasharray:none;stroke-dashoffset:0;stroke-opacity:1;color-rendering:auto;image-rendering:auto;shape-rendering:auto;text-rendering:auto;enable-background:accumulate" />
      <path
         id="IconGraphic"
         class="cls-1"
         d="m 187.85311,128.03451 c -14.30888,-0.003 -25.90597,-11.60527 -25.90268,-25.91415 0,-20.718022 22.5743,-29.299376 25.90268,-53.398503 4.85321,24.099127 25.90269,32.070277 25.90269,53.398503 0.003,14.30888 -11.59381,25.91111 -25.90269,25.91415 z m 12.55891,-46.330965 c -1.55875,0 0.55014,3.212847 1.24975,7.067073 h 5.50833 c -1.38178,-3.450784 -3.57411,-6.732863 -6.75808,-7.067073 z m 8.63407,14.919943 c -0.0294,-0.79176 -0.12409,-1.57975 -0.28286,-2.356 h -7.5347 c -0.38352,0.8776 -0.9265,1.67645 -1.60138,2.356 0.43095,2.38672 2.10889,4.711542 4.70924,4.711542 2.60161,-5e-4 4.71021,-2.109932 4.7097,-4.711542 z"
         style="fill:#ffffff;fill-rule:evenodd;stroke-width:0.458456" />
    </g>
    <g
       id="g231"
       transform="matrix(1.4143203,0,0,1.4143203,-49.055658,-9.3656519)">
      <path
         style="fill:#fefefe;stroke-width:0.0846667"
         d="m 107.49643,125.31393 c -0.25612,-0.038 -0.77047,-0.0729 -1.143,-0.0776 -0.81545,-0.0102 -1.62033,-0.16939 -2.921,-0.57785 -2.75202,-0.86422 -4.980402,-2.10981 -7.336731,-4.10095 -1.080705,-0.91321 -1.831932,-1.75446 -3.314326,-3.7115 -0.274606,-0.36253 -1.164507,-1.87467 -1.494805,-2.54 -0.718842,-1.44799 -1.448922,-3.56476 -1.693707,-4.91067 -0.229974,-1.26447 -0.314714,-4.30378 -0.18531,-6.64633 0.08414,-1.52311 0.22845,-2.38026 0.615969,-3.658563 2.003705,-6.609604 7.070431,-11.689224 13.6125,-13.647147 1.74155,-0.521213 2.86237,-0.641508 5.97707,-0.641508 3.11972,0 4.23481,0.120048 5.98707,0.644555 2.89481,0.866508 5.34069,2.23572 7.73853,4.332059 1.67895,1.467839 3.52565,3.904301 4.60093,6.070266 0.71884,1.447991 1.44892,3.564755 1.6937,4.910668 0.33101,1.81997 0.32536,6.81226 -0.01,8.6242 -0.6974,3.77083 -3.02521,7.97216 -5.89499,10.63951 -2.33796,2.17304 -5.15803,3.7974 -8.13842,4.68771 -0.6098,0.18216 -1.24208,0.35814 -1.40507,0.39106 -0.92489,0.18682 -5.81452,0.34185 -6.68866,0.21207 z m 3.34433,-4.32296 c 2.08024,-0.19717 4.06559,-0.76402 5.82129,-1.66208 0.89703,-0.45884 2.12905,-1.23297 2.64206,-1.66011 l 0.25068,-0.20872 -9.14068,-9.08724 C 95.78698,93.831224 97.190821,95.193931 97.035754,95.386474 c -0.437733,0.543527 -1.38019,2.071167 -1.747721,2.832905 -2.635937,5.463191 -1.94196,11.780041 1.831533,16.671361 0.490652,0.636 1.955002,2.10274 2.664449,2.66879 1.899515,1.5156 4.319285,2.6562 6.656635,3.13773 1.7317,0.35676 2.9071,0.43521 4.40011,0.29371 z m 11.36182,-6.24042 c 0.0659,-0.0815 0.38653,-0.54554 0.71252,-1.03121 1.10076,-1.63992 1.897,-3.58502 2.33111,-5.69453 0.21067,-1.02373 0.23194,-1.29404 0.23194,-2.94743 0,-1.65339 -0.0213,-1.9237 -0.23194,-2.94743 -0.85467,-4.153169 -3.12959,-7.639775 -6.61086,-10.131984 -0.90276,-0.646278 -2.98844,-1.704938 -4.06926,-2.065493 -1.88636,-0.629283 -4.25688,-0.931783 -6.05366,-0.772502 -3.08244,0.27325 -5.8716,1.312566 -8.24571,3.072569 l -0.584499,0.433305 11.167269,11.112445 c 6.142,6.11185 11.18212,11.11424 11.20027,11.11644 0.0181,0.002 0.0869,-0.0627 0.15282,-0.14418 z"
         id="path233" />
    </g>
  </g>
</svg>
