<?xml version="1.0" encoding="UTF-8" standalone="no"?>
<svg
   xmlns:dc="http://purl.org/dc/elements/1.1/"
   xmlns:cc="http://creativecommons.org/ns#"
   xmlns:rdf="http://www.w3.org/1999/02/22-rdf-syntax-ns#"
   xmlns:svg="http://www.w3.org/2000/svg"
   xmlns="http://www.w3.org/2000/svg"
   width="53.181248mm"
   height="57.012409mm"
   viewBox="0 0 53.181248 57.012409"
   version="1.1"
   id="svg929">
  <defs
     id="defs923">
    <style
       id="style2">
      .cls-1 {
        fill-rule: evenodd;
      }
    </style>
  </defs>
  <metadata
     id="metadata926">
    <rdf:RDF>
      <cc:Work
         rdf:about="">
        <dc:format>image/svg+xml</dc:format>
        <dc:type
           rdf:resource="http://purl.org/dc/dcmitype/StillImage" />
        <dc:title></dc:title>
      </cc:Work>
    </rdf:RDF>
  </metadata>
  <g
     id="layer1"
     transform="translate(-95.873661,-106.80927)">
    <path
       id="IconGraphic"
       class="cls-1"
       d="m 141.41295,125.1695 0.44979,1.38615 -0.83502,0.60669 3.24141,1.62084 4.11612,16.08957 -1.12263,0.37413 -6.19813,-15.49824 0.84667,29.44813 h -3.32528 l 0.92154,-32.02993 -0.76438,-0.55563 -2.09021,2.37728 -16.68383,-0.1479 -0.068,-1.19724 19.17806,-2.35691 0.19817,-0.61012 h 1.44648 l -1.1938,-3.57955 8.46667,-14.2875 1.05833,0.52916 z m -7.38452,25.15843 h -9.525 l -5.8756,-12.29783 h 9.525 z m -5.04587,-9.53082 h -1.42875 l 0.88133,1.84468 h 1.42875 z m -1.22846,4.1402 h 1.42875 l -0.88133,-1.84467 h -1.42875 z m -1.23058,-1.84467 h -1.42875 l 0.88133,1.84467 h 1.42875 z m 1.44595,2.29552 0.88133,1.84468 h 1.42875 l -0.88133,-1.84468 z m -0.34925,0 h -1.42875 l 0.88133,1.84468 h 1.42875 z m -1.778,0 h -1.42875 l 0.88133,1.84468 h 1.42875 z m -0.21537,-0.44979 -0.88133,-1.84467 h -1.42875 l 0.88133,1.84467 z m -1.09696,-2.29552 -0.88133,-1.84468 h -1.42875 l 0.88133,1.84468 z m 0.34925,0 h 1.42875 l -0.88133,-1.84468 h -1.42875 z m 1.778,0 h 1.42875 l -0.88133,-1.84468 h -1.42875 z m 3.42238,0.44979 h -1.42875 l 0.88133,1.84467 h 1.42875 z m 1.0967,2.29552 h -1.42875 l 0.88133,1.84468 h 1.42875 z m 1.97803,4.1402 -0.88133,-1.84467 h -1.42875 l 0.88133,1.84467 z m -1.778,0 -0.88133,-1.84467 h -1.42875 l 0.88133,1.84467 z m -1.778,0 -0.88133,-1.84467 h -1.42875 l 0.88133,1.84467 z m -1.778,0 -0.88133,-1.84467 h -1.42875 l 0.88133,1.84467 z m -3.20675,0 h 1.42875 l -0.88133,-1.84467 h -1.42875 z m -1.0967,-2.29552 h 1.42875 l -0.88133,-1.84468 h -1.42875 z m -1.0967,-2.29553 h 1.42875 l -0.88133,-1.84467 h -1.42928 z m -1.09696,-2.29552 h 1.42875 l -0.88133,-1.84468 h -1.42875 z m -1.97803,-4.1402 0.88133,1.84467 h 1.42875 l -0.88133,-1.84467 z m 1.778,0 0.88133,1.84467 h 1.42875 l -0.88133,-1.84467 z m 1.778,0 0.88133,1.84467 h 1.42875 l -0.88133,-1.84467 z m 1.778,0 0.88133,1.84467 h 1.42875 l -0.88133,-1.84467 z m 1.778,0 0.88133,1.84467 h 1.42875 l -0.88133,-1.84467 z m -13.33076,11.82687 -5.87561,-12.29836 h 9.525 l 5.87561,12.29783 h -9.525 z m 6.87281,-0.79957 -0.88132,-1.84467 h -1.42875 l 0.88132,1.84467 z m -5.18583,-4.1402 0.88133,1.84468 h 1.42875 l -0.88133,-1.84468 z m 1.21338,-0.44979 -0.88133,-1.84467 h -1.42875 l 0.88133,1.84467 z m -1.56263,0.44979 h -1.42875 l 0.88133,1.84468 h 1.42875 z m -0.21537,-0.44979 -0.88133,-1.84467 h -1.42875 l 0.88133,1.84467 z m -1.0967,-2.29552 -0.88133,-1.84468 h -1.42875 l 0.88133,1.84468 z m 0.34925,0 h 1.42875 l -0.87947,-1.84627 h -1.42875 z m 1.778,0 h 1.42875 l -0.88133,-1.84468 h -1.42875 z m 0.21564,0.44979 0.88132,1.84467 h 1.42875 l -0.88132,-1.84467 z m 1.09669,2.29552 0.88133,1.84468 h 1.42875 l -0.88133,-1.84468 z m 1.62878,4.1402 -0.88133,-1.84467 h -1.42875 l 0.88133,1.84467 z m -1.778,0 -0.88133,-1.84467 h -1.42875 l 0.88133,1.84467 z m -3.20675,0 h 1.42875 l -0.88133,-1.84467 h -1.42875 z m -1.0967,-2.29552 h 1.42875 l -0.88133,-1.84468 h -1.42875 z m -1.0967,-2.29553 h 1.42875 l -0.88106,-1.8452 h -1.42875 z m -1.09669,-2.29552 h 1.42875 l -0.88133,-1.84468 h -1.42875 z m -1.97803,-4.1402 0.88133,1.84467 h 1.42875 l -0.88133,-1.84467 z m 1.778,0 0.88133,1.84467 h 1.42875 l -0.88133,-1.84467 z m 1.778,0 0.88133,1.84467 h 1.42875 l -0.88133,-1.84467 z m 1.778,0 0.88133,1.84467 h 1.42875 l -0.88133,-1.84467 z m 3.20675,0 h -1.42875 l 0.88133,1.84467 h 1.42875 z m 1.0967,2.29552 h -1.42875 l 0.88133,1.84468 h 1.42875 z m 1.09696,2.29553 h -1.42875 l 0.88133,1.84467 h 1.42875 z m 1.0967,2.29552 h -1.42875 l 0.88133,1.84468 h 1.42875 z m -0.33205,2.29553 0.88132,1.84467 h 1.42875 l -0.88132,-1.84467 z m -17.7173,2.64371 -5.875599,-12.29783 h 9.524999 l 5.8756,12.29783 z m 6.87308,-0.79957 -0.88132,-1.84467 h -1.42875 l 0.88132,1.84467 z m -5.18583,-4.1402 0.88133,1.84468 h 1.42875 l -0.88133,-1.84468 z m 1.21338,-0.44979 -0.88133,-1.84467 h -1.42875 l 0.88133,1.84467 z m -1.56263,0.44979 h -1.42875 l 0.88133,1.84468 h 1.42875 z m -0.21537,-0.44979 -0.88133,-1.84467 h -1.42875 l 0.88133,1.84467 z m -1.0967,-2.29552 -0.88133,-1.84468 h -1.428745 l 0.881325,1.84468 z m 0.34925,0 h 1.42875 l -0.87974,-1.84574 h -1.42875 z m 1.778,0 h 1.42875 l -0.88133,-1.84468 h -1.42875 z m 0.21537,0.44979 0.88133,1.84467 h 1.42875 l -0.88133,-1.84467 z m 1.0967,2.29552 0.88133,1.84468 h 1.42875 l -0.88133,-1.84468 z m 1.62878,4.1402 -0.88133,-1.84467 h -1.42875 l 0.88133,1.84467 z m -1.778,0 -0.88133,-1.84467 h -1.42875 l 0.88133,1.84467 z m -3.20675,0 h 1.42875 l -0.88133,-1.84467 h -1.42875 z m -1.0967,-2.29552 h 1.42875 l -0.88133,-1.84468 h -1.428749 z m -1.0967,-2.29553 h 1.42875 l -0.88106,-1.84467 h -1.428753 z m -1.096698,-2.29552 h 1.42875 l -0.881327,-1.84468 h -1.42875 z m -1.978025,-4.1402 0.881327,1.84467 h 1.42875 l -0.881327,-1.84467 z m 1.778,0 0.881327,1.84467 h 1.428746 l -0.881323,-1.84467 z m 1.778003,0 0.88132,1.84467 h 1.42875 l -0.88132,-1.84467 z m 1.778,0 0.88132,1.84467 h 1.42875 l -0.88132,-1.84467 z m 3.20675,0 h -1.42875 l 0.88132,1.84467 h 1.42875 z m 1.09669,2.29552 h -1.42875 l 0.88133,1.84468 h 1.42875 z m 1.0967,2.29553 h -1.42875 l 0.88133,1.84467 h 1.42875 z m 1.0967,2.29552 h -1.42875 l 0.88133,1.84468 h 1.42875 z m -0.33205,2.29553 0.88133,1.84467 h 1.42875 l -0.88133,-1.84467 z m 4.77255,16.13799 h -9.525 l -5.875599,-12.29783 h 9.524999 z m -5.0456,-9.53082 h -1.42875 l 0.88133,1.84468 h 1.42875 z m -1.22873,4.1402 h 1.42875 l -0.88132,-1.84467 h -1.42875 z m -1.23057,-1.84467 h -1.42875 l 0.88132,1.84467 h 1.42875 z m 1.44594,2.29552 0.88133,1.84468 h 1.42875 l -0.88133,-1.84468 z m -0.34925,0 h -1.42875 l 0.88133,1.84468 h 1.42875 z m -1.778,0 h -1.42875 l 0.88133,1.84468 h 1.42875 z m -0.21537,-0.44979 -0.88132,-1.84467 h -1.42875 l 0.88132,1.84467 z m -1.09669,-2.29552 -0.88133,-1.84468 h -1.42875 l 0.88133,1.84468 z m 0.34925,0 h 1.42875 l -0.88054,-1.84574 h -1.42875 z m 1.778,0 h 1.42875 l -0.88133,-1.84468 h -1.42875 z m 3.42212,0.44979 h -1.42875 l 0.88132,1.84467 h 1.42875 z m 1.09669,2.29552 h -1.42875 l 0.88133,1.84468 h 1.42875 z m 1.97724,4.1402 -0.88133,-1.84467 h -1.42875 l 0.88133,1.84467 z m -1.778,0 -0.88133,-1.84467 h -1.42875 l 0.88133,1.84467 z m -1.778,0 -0.88133,-1.84467 h -1.42875 l 0.88133,1.84467 z m -1.778,0 -0.88133,-1.84467 h -1.42875 l 0.88133,1.84467 z m -3.20675,0 h 1.42875 l -0.88133,-1.84467 h -1.42875 z m -1.0967,-2.29552 h 1.42875 l -0.88133,-1.84468 h -1.42875 z m -1.0967,-2.29553 h 1.42875 l -0.88106,-1.84467 h -1.42875 z m -1.0967,-2.29552 h 1.42875 l -0.88133,-1.84468 h -1.428745 z m -1.978023,-4.1402 0.881327,1.84467 h 1.428746 l -0.881323,-1.84467 z m 1.778,0 0.881323,1.84467 h 1.42875 l -0.88132,-1.84467 z m 1.778003,0 0.88132,1.84467 h 1.42875 l -0.88132,-1.84467 z m 1.778,0 0.88132,1.84467 h 1.42875 l -0.88132,-1.84467 z m 1.778,0 0.88132,1.84467 h 1.42875 l -0.88132,-1.84467 z m 13.07332,-0.47149 5.87561,12.29783 h -9.525 l -5.87561,-12.29783 z m -7.02971,0.47149 0.88133,1.84467 h 1.42875 l -0.88133,-1.84467 z m 5.18583,4.1402 -0.88132,-1.84468 h -1.42875 l 0.88132,1.84468 z m -1.21311,0.44979 0.88133,1.84467 h 1.42875 l -0.88133,-1.84467 z m 1.56236,-0.44979 h 1.42875 l -0.88132,-1.84468 h -1.42875 z m 0.21564,0.44979 0.88133,1.84467 h 1.42875 l -0.88133,-1.84467 z m 1.0967,2.29552 0.88132,1.84468 h 1.42875 l -0.88132,-1.84468 z m -0.34925,0 h -1.42875 l 0.88132,1.84468 h 1.42875 z m -1.778,0 h -1.42875 l 0.88132,1.84468 h 1.42875 z m -0.21537,-0.44979 -0.88133,-1.84467 h -1.42875 l 0.88133,1.84467 z m -1.0967,-2.29552 -0.88133,-1.84468 h -1.42875 l 0.88133,1.84468 z m -1.62878,-4.1402 0.88133,1.84467 h 1.42875 l -0.88133,-1.84467 z m 1.778,0 0.88133,1.84467 h 1.42875 l -0.88133,-1.84467 z m 3.20675,0 h -1.42875 l 0.88133,1.84467 h 1.42875 z m 1.0967,2.29552 h -1.42875 l 0.88133,1.84468 h 1.42875 z m 1.09696,2.29553 h -1.42875 l 0.88133,1.84467 h 1.42875 z m 1.0967,2.29552 h -1.42875 l 0.88133,1.84468 h 1.42875 z m 1.97803,4.1402 -0.88133,-1.84467 h -1.42875 l 0.88133,1.84467 z m -1.778,0 -0.88133,-1.84467 h -1.42875 l 0.88133,1.84467 z m -1.778,0 -0.88133,-1.84467 h -1.42875 l 0.88133,1.84467 z m -1.778,0 -0.88133,-1.84467 h -1.42875 l 0.88133,1.84467 z m -3.20675,0 h 1.42875 l -0.88133,-1.84467 h -1.42875 z m -1.0967,-2.29552 h 1.42875 l -0.88133,-1.84468 h -1.42875 z m -1.0967,-2.29553 h 1.42875 l -0.88318,-1.84467 h -1.42875 z m -1.0967,-2.29552 h 1.42875 l -0.88133,-1.84468 h -1.42875 z m 0.33205,-2.29553 -0.88132,-1.84467 h -1.42875 l 0.88132,1.84467 z m 17.87314,-2.31616 5.8756,12.29783 h -9.525 l -5.8756,-12.29783 z m -7.02972,0.47149 0.88133,1.84467 h 1.42875 l -0.88133,-1.84467 z m 5.18584,4.1402 -0.88133,-1.84468 h -1.42875 l 0.88133,1.84468 z m -1.21312,0.44979 0.88133,1.84467 h 1.42875 l -0.88133,-1.84467 z m 1.56237,-0.44979 h 1.42875 l -0.88133,-1.84468 h -1.42875 z m 0.21563,0.44979 0.88133,1.84467 h 1.42875 l -0.88133,-1.84467 z m 1.0967,2.29552 0.88133,1.84468 h 1.42875 l -0.88133,-1.84468 z m -0.34925,0 h -1.42875 l 0.88133,1.84468 h 1.42875 z m -1.778,0 h -1.42875 l 0.88133,1.84468 h 1.42875 z m -0.21537,-0.44979 -0.88133,-1.84467 h -1.42875 l 0.88133,1.84467 z m -1.09696,-2.29552 -0.88133,-1.84468 h -1.42875 l 0.88133,1.84468 z m -1.62878,-4.1402 0.88133,1.84467 h 1.42875 l -0.88133,-1.84467 z m 1.778,0 0.88133,1.84467 h 1.42875 l -0.88133,-1.84467 z m 3.20675,0 h -1.42875 l 0.88133,1.84467 h 1.42875 z m 1.0967,2.29552 h -1.42875 l 0.88133,1.84468 h 1.42875 z m 1.09696,2.29553 h -1.42875 l 0.88133,1.84467 h 1.42875 z m 1.0967,2.29552 h -1.42875 l 0.88133,1.84468 h 1.42875 z m 1.97802,4.1402 -0.88132,-1.84467 h -1.42875 l 0.88132,1.84467 z m -1.778,0 -0.88132,-1.84467 h -1.42875 l 0.88132,1.84467 z m -1.778,0 -0.88132,-1.84467 h -1.42875 l 0.88132,1.84467 z m -1.778,0 -0.88132,-1.84467 h -1.42875 l 0.88132,1.84467 z m -3.20675,0 h 1.42875 l -0.88132,-1.84467 h -1.42875 z m -1.09669,-2.29552 h 1.42875 l -0.88133,-1.84468 h -1.42875 z m -1.0967,-2.29553 h 1.42875 l -0.88133,-1.84467 h -1.43034 z m -1.09696,-2.29552 h 1.42875 l -0.88133,-1.84468 h -1.42875 z m 0.33205,-2.29553 -0.88133,-1.84467 h -1.42875 l 0.88133,1.84467 z"
       style="fill:#ffffff;fill-rule:evenodd;stroke-width:0.264583" />
    <path
       style="fill:#fefefe;stroke-width:0.0507146"
       d="m 103.79752,134.48489 c 0,-0.16252 0.61,-7.64739 0.66709,-8.1854 l 0.0267,-0.25219 h -3.58453 -3.584535 l 0.01351,-0.1511 c 0.0096,-0.10771 1.727238,-2.59362 5.979815,-8.65463 3.28148,-4.67693 6.02753,-8.59971 6.10235,-8.7173 0.15885,-0.24962 0.34641,-0.29729 0.34503,-0.0877 -5.1e-4,0.0694 -0.75175,2.68574 -1.66956,5.8142 l -1.66871,5.68811 3.75777,0.0143 3.75777,0.0143 -9.6e-4,0.12576 c -0.002,0.19103 -9.88502,14.52231 -10.03162,14.54589 -0.0956,0.0153 -0.11019,-0.005 -0.11019,-0.15432 z"
       id="path484" />
  </g>
</svg>
