<svg height="464pt" viewBox="-8 0 464 464.008" width="464pt" xmlns="http://www.w3.org/2000/svg"><path d="m256.003906 320h-48v128h-32v-96h-48v96h-32v-64h-48v64h-32v-184h-15.99999975v200h287.99999975v-16h-32zm0 0"/><path d="m176.003906 99.3125-52.6875 52.6875h52.6875zm0 0"/><path d="m294.925781 128h-6.921875v-128h-32v128h-6.917968l22.917968 27.503906zm0 0"/><path d="m368.003906 168h32v-128h6.921875l-22.921875-27.496094-22.917968 27.496094h6.917968zm0 0"/><path d="m416.003906 88v96h-64v-96h-48v24h25.082032l-57.082032 68.503906-57.078125-68.496094h25.078125v-24h-48v80h-80v168h80v-32h80v128h32v32h144v-376h-32zm-288 112h272v16h-272zm256 152c17.648438 0 32 14.351562 32 32 0 14.871094-10.230468 27.289062-24 30.863281v17.136719h-16v-17.136719c-13.769531-3.574219-24-15.992187-24-30.863281h16c0 8.824219 7.175782 16 16 16 8.824219 0 16-7.175781 16-16s-7.175781-16-16-16c-17.648437 0-32-14.351562-32-32 0-14.871094 10.230469-27.289062 24-30.863281v-17.136719h16v17.136719c13.769532 3.574219 24 15.992187 24 30.863281h-16c0-8.824219-7.175781-16-16-16-8.824218 0-16 7.175781-16 16s7.175782 16 16 16zm48-104h-304v-16h304zm0-32h-16v-16h16zm0 0"/></svg>