<?xml version="1.0" encoding="UTF-8" standalone="no"?>
<svg
   xmlns:dc="http://purl.org/dc/elements/1.1/"
   xmlns:cc="http://creativecommons.org/ns#"
   xmlns:rdf="http://www.w3.org/1999/02/22-rdf-syntax-ns#"
   xmlns:svg="http://www.w3.org/2000/svg"
   xmlns="http://www.w3.org/2000/svg"
   width="85.687195mm"
   height="60.059338mm"
   viewBox="0 0 85.687195 60.059338"
   version="1.1"
   id="svg8">
  <defs
     id="defs2">
    <style
       id="style2">
      .cls-1 {
        fill-rule: evenodd;
      }
    </style>
    <style
       id="style2-4">
      .cls-1 {
        fill-rule: evenodd;
      }
    </style>
  </defs>
  <metadata
     id="metadata5">
    <rdf:RDF>
      <cc:Work
         rdf:about="">
        <dc:format>image/svg+xml</dc:format>
        <dc:type
           rdf:resource="http://purl.org/dc/dcmitype/StillImage" />
        <dc:title></dc:title>
      </cc:Work>
    </rdf:RDF>
  </metadata>
  <g
     id="layer1"
     transform="translate(-62.914137,-119.64863)">
    <path
       id="IconGraphic"
       class="cls-1"
       d="m 78.510531,128.90905 a 6.2163854,6.2163854 0 0 1 -12.407371,0 h -0.01402 v -4.88738 h 12.296775 v 0.24183 l 3.842808,4.64555 z m -12.421394,-9.26042 h 12.296775 v 2.82946 H 66.089137 Z m 12.435417,16.66875 a 3.175,3.175 0 0 1 3.175,3.175 v 16.66875 a 3.175,3.175 0 0 1 -3.175,3.175 v 17.4625 a 2.9104169,2.9104169 0 0 1 -5.820833,0 v -17.4625 h -1.058334 v 17.4625 a 2.9104167,2.9104167 0 0 1 -5.820833,0 v -17.476 a 3.1734125,3.1734125 0 0 1 -2.910417,-3.1615 v -16.66875 a 3.175,3.175 0 0 1 3.175,-3.175 z"
       style="fill:#ffffff;fill-rule:evenodd;stroke-width:0.264583" />
    <path
       id="IconGraphic-6"
       class="cls-1"
       d="m 145.42633,159.33612 v 17.4625 a 2.9104168,2.9104168 0 0 1 -5.82083,0 v -17.4625 h -1.05834 v 17.4625 a 2.9104167,2.9104167 0 0 1 -5.82083,0 v -17.47599 a 3.1734125,3.1734125 0 0 1 -2.91042,-3.16151 v -16.66875 a 3.175,3.175 0 0 1 3.175,-3.175 h 12.43542 a 3.175,3.175 0 0 1 3.175,3.175 v 16.66875 a 3.175,3.175 0 0 1 -3.175,3.175 z m -6.21771,-24.60625 a 6.2177083,6.2177083 0 1 1 6.21771,-6.21771 6.2177083,6.2177083 0 0 1 -6.21771,6.21771 z"
       style="fill:#ffffff;fill-rule:evenodd;stroke-width:0.264583" />
    <g
       id="g896"
       transform="matrix(1.3812596,0,0,1.3812596,-39.479251,-80.891496)">
      <path
         style="fill:#fefefe;stroke-width:0.0846667"
         d="m 115.19202,173.00121 c -0.0699,-0.0451 -0.22478,-0.0826 -0.34429,-0.0834 -0.13822,-8.4e-4 -1.03177,-0.53987 -2.45533,-1.48121 l -2.23805,-1.47991 -4.33302,-0.002 -4.33302,-0.002 -0.17548,-0.22308 c -0.17301,-0.21995 -0.17548,-0.29311 -0.17548,-5.207 v -4.98392 h -0.20573 c -0.12571,0 -1.228137,0.67516 -2.834078,1.73567 -2.281067,1.50634 -2.671647,1.73567 -2.95614,1.73567 -0.395632,0 -0.608048,-0.20025 -0.608048,-0.57321 0,-0.14495 0.20955,-0.84637 0.465667,-1.55871 0.256116,-0.71233 0.465666,-1.30511 0.465666,-1.31729 0,-0.0122 -0.494788,-0.0221 -1.09953,-0.0221 h -1.099531 l -0.128136,-0.30667 c -0.10983,-0.26286 -0.128136,-1.07328 -0.128136,-5.67267 v -5.36599 l 8.741836,0.003 c 7.13477,0.002 8.76907,0.0234 8.89,0.11517 0.13774,0.10456 0.14816,0.41996 0.14816,4.48464 v 4.37217 h 3.47134 c 3.3797,0 3.47133,0.004 3.47133,0.16433 0,0.0904 0.0381,0.18789 0.0847,0.21667 0.0551,0.0341 0.0847,2.12999 0.0847,6.01133 0,3.88134 -0.0295,5.97725 -0.0847,6.01133 -0.0466,0.0288 -0.0847,0.12628 -0.0847,0.21667 0,0.15455 -0.068,0.16433 -1.143,0.16433 -0.62865,0 -1.143,0.0179 -1.143,0.0397 0,0.0218 0.20955,0.61698 0.46567,1.32251 0.25611,0.70553 0.46566,1.34068 0.46566,1.41144 0,0.0708 -0.0667,0.17927 -0.14816,0.24113 -0.17258,0.13101 -0.85216,0.15276 -1.03717,0.0332 z m -1.05985,-2.6771 c -0.33806,-0.93388 -0.3636,-1.23345 -0.12548,-1.47156 0.15476,-0.15477 0.28222,-0.16934 1.48166,-0.16934 h 1.31234 v -5.12233 -5.12233 h -3.00567 -3.00567 v 0.36787 c 0,0.26641 -0.0491,0.41237 -0.17815,0.52917 -0.16911,0.1531 -0.3819,0.16249 -4.191,0.18485 l -4.01285,0.0236 v 4.56961 4.5696 h 4.13894 4.13894 l 1.85123,1.22643 c 1.01818,0.67453 1.86007,1.22698 1.87087,1.22766 0.0108,6.8e-4 -0.11302,-0.36525 -0.27516,-0.81319 z m -10.20082,-3.6729 c -0.10482,-0.10482 -0.16933,-0.28222 -0.16933,-0.46566 0,-0.18345 0.0645,-0.36084 0.16933,-0.46567 0.16381,-0.16381 0.28223,-0.16933 3.62755,-0.16933 3.90863,0 3.73845,-0.03 3.73845,0.65803 0,0.62597 0.0866,0.61197 -3.7865,0.61197 -3.29727,0 -3.41577,-0.006 -3.5795,-0.16934 z m -0.0375,-2.1355 c -0.20919,-0.29866 -0.16857,-0.70195 0.0913,-0.90635 0.22042,-0.17339 0.28789,-0.17548 5.65382,-0.17548 6.19003,0 5.80709,-0.0448 5.80709,0.67916 0,0.32419 -0.036,0.43482 -0.16377,0.50319 -0.10811,0.0579 -2.04881,0.0876 -5.7102,0.0876 h -5.54643 z m 0.0913,-2.01931 c -0.25986,-0.2044 -0.30048,-0.60769 -0.0913,-0.90635 l 0.1318,-0.18817 h 5.6086 c 4.24936,0 5.63322,0.0246 5.7102,0.1016 0.0559,0.0559 0.1016,0.28232 0.1016,0.5032 0,0.70758 0.36998,0.6652 -5.80709,0.6652 -5.36593,0 -5.4334,-0.002 -5.65382,-0.17548 z m 0.87728,-4.22719 h 4.65696 v -4.61433 -4.61433 h -7.70466 -7.704669 v 4.61433 4.61433 h 1.349865 c 1.298934,0 1.354839,0.007 1.481667,0.18818 0.194987,0.27838 0.163904,0.54923 -0.16412,1.43014 -0.162757,0.43707 -0.296107,0.80259 -0.296334,0.81225 -2.28e-4,0.01 0.837654,-0.53326 1.861956,-1.2065 l 1.862365,-1.22407 z m -9.20953,-1.99446 c -0.14948,-0.1047 -0.188173,-0.21438 -0.188173,-0.5334 0,-0.22088 0.04572,-0.44732 0.1016,-0.5032 0.146051,-0.14605 7.101413,-0.14605 7.247463,0 0.0559,0.0559 0.1016,0.28232 0.1016,0.5032 0,0.68713 0.12281,0.6652 -3.725329,0.6652 -2.894067,0 -3.37455,-0.0179 -3.537161,-0.1318 z m -0.04805,-2.1397 c -0.193395,-0.2137 -0.184629,-0.79465 0.01471,-0.97505 0.141036,-0.12763 0.69441,-0.14012 6.20988,-0.14012 5.7585,0 6.06191,0.008 6.19516,0.15483 0.0826,0.0913 0.14013,0.29786 0.14013,0.5032 0,0.6486 0.38294,0.61197 -6.39805,0.61197 -5.726208,0 -6.028585,-0.008 -6.16183,-0.15483 z m 0.008,-2.05329 c -0.109169,-0.0636 -0.148167,-0.19534 -0.148167,-0.50062 0,-0.7258 -0.449742,-0.67793 6.368847,-0.67793 5.8796,0 5.99568,0.003 6.16182,0.16934 0.22136,0.22135 0.22958,0.7659 0.0145,0.96054 -0.14109,0.12768 -0.69161,0.13989 -6.20183,0.13755 -3.949552,-0.002 -6.098396,-0.0325 -6.19517,-0.0889 z"
         id="path904" />
    </g>
  </g>
</svg>
