<?xml version="1.0" encoding="UTF-8" standalone="no"?>
<svg
   xmlns:dc="http://purl.org/dc/elements/1.1/"
   xmlns:cc="http://creativecommons.org/ns#"
   xmlns:rdf="http://www.w3.org/1999/02/22-rdf-syntax-ns#"
   xmlns:svg="http://www.w3.org/2000/svg"
   xmlns="http://www.w3.org/2000/svg"
   width="41.732136mm"
   height="38.932762mm"
   viewBox="0 0 41.732136 38.932762"
   version="1.1"
   id="svg8">
  <defs
     id="defs2">
    <style
       id="style2">
      .cls-1 {
        fill-rule: evenodd;
      }
    </style>
    <style
       id="style2-5">
      .cls-1 {
        fill-rule: evenodd;
      }
    </style>
  </defs>
  <metadata
     id="metadata5">
    <rdf:RDF>
      <cc:Work
         rdf:about="">
        <dc:format>image/svg+xml</dc:format>
        <dc:type
           rdf:resource="http://purl.org/dc/dcmitype/StillImage" />
        <dc:title></dc:title>
      </cc:Work>
    </rdf:RDF>
  </metadata>
  <g
     id="layer1"
     transform="translate(-91.770836,-121.14076)">
    <g
       id="layer1-3"
       transform="matrix(1.043922,0,0,1.043922,17.710626,8.8467994)">
      <path
         style="fill:#fefefe;stroke-width:0.0135612"
         d="m 90.5496,130.52321 c -0.818215,-0.0457 -1.608416,-0.26788 -2.298614,-0.64635 -0.316851,-0.17374 -0.67697,-0.42464 -0.956062,-0.66609 -0.241913,-0.20927 -0.595351,-0.59096 -0.785208,-0.84796 -0.549467,-0.74378 -0.908082,-1.64568 -1.011287,-2.54332 -0.05462,-0.47497 -0.05462,-0.87013 5.8e-5,-1.33699 0.1395,-1.19173 0.702164,-2.32789 1.573514,-3.1773 0.634804,-0.61881 1.376745,-1.05419 2.229978,-1.30855 0.925633,-0.27597 1.964836,-0.29167 2.908867,-0.0439 1.397069,0.36659 2.571177,1.26745 3.294447,2.52771 0.295348,0.51465 0.495335,1.05534 0.61009,1.6495 0.150184,0.77758 0.121597,1.63254 -0.08024,2.40033 -0.297315,1.13096 -0.935569,2.10612 -1.86471,2.84906 -0.460414,0.36812 -1.032967,0.67829 -1.609328,0.87178 -0.471007,0.15812 -0.925197,0.24215 -1.475836,0.27303 -0.251573,0.0142 -0.267243,0.0141 -0.535665,-6.5e-4 z m 0.728843,-0.643 c 0.422941,-0.0407 0.86734,-0.14661 1.262796,-0.30101 0.905074,-0.35336 1.684748,-0.97962 2.234176,-1.79455 0.82546,-1.22435 1.030525,-2.74399 0.558784,-4.14098 -0.386225,-1.14372 -1.234549,-2.13361 -2.309689,-2.69507 -1.138992,-0.59482 -2.429892,-0.70683 -3.63439,-0.31535 -0.769108,0.24996 -1.47853,0.70473 -2.02997,1.30128 -1.188925,1.2862 -1.57664,3.06641 -1.026782,4.71452 0.348712,1.04519 1.08273,1.96332 2.041598,2.55368 0.498382,0.30684 1.021776,0.50718 1.625408,0.62216 0.383189,0.073 0.873805,0.0942 1.278069,0.0553 z m 2.403786,-2.7931 c -0.19459,-0.0797 -0.667705,-0.272 -1.003527,-0.40787 -0.152899,-0.0618 -0.360385,-0.14591 -0.461079,-0.18678 -0.100693,-0.0409 -0.27766,-0.11202 -0.393275,-0.15807 -0.115607,-0.0461 -0.23766,-0.0954 -0.271221,-0.10966 -0.106304,-0.0451 -0.375743,-0.15483 -0.716375,-0.29163 -0.181439,-0.0728 -0.349253,-0.14552 -0.372937,-0.16146 -0.02363,-0.0159 -0.05833,-0.0562 -0.07695,-0.0895 l -0.03392,-0.0605 -0.0039,-2.00494 c -0.0026,-1.37462 6.51e-4,-2.02166 0.01074,-2.0581 0.01836,-0.0681 0.08613,-0.14515 0.155438,-0.17664 0.0726,-0.033 0.212421,-0.033 0.285016,0 0.06837,0.031 0.136512,0.10769 0.155027,0.17436 0.0096,0.0346 0.01426,0.651 0.01433,1.89748 5.2e-5,1.46439 0.0039,1.84762 0.01706,1.85286 0.0093,0.004 0.178666,0.0721 0.376315,0.15212 0.197657,0.0801 0.51499,0.20833 0.705185,0.28511 0.190196,0.0767 0.422088,0.17104 0.515322,0.20948 0.09323,0.0384 0.303772,0.12389 0.467862,0.18987 0.164089,0.066 0.353269,0.14254 0.420396,0.17014 0.06712,0.0276 0.239978,0.0977 0.384127,0.15586 0.144142,0.0581 0.276813,0.11951 0.294834,0.13643 0.111057,0.10433 0.119201,0.34669 0.01537,0.45798 -0.05677,0.0609 -0.12191,0.0837 -0.236132,0.0827 -0.09221,-6.5e-4 -0.123752,-0.008 -0.248032,-0.0592 z"
         id="path78" />
    </g>
    <path
       style="fill:#fefefe;stroke-width:0.0815336"
       d="m 110.71987,160.03514 c -0.31391,-0.0352 -0.91989,-0.0687 -1.34663,-0.0741 -1.5739,-0.0205 -4.80645,-1.04911 -6.79891,-2.16336 -0.44191,-0.24713 -0.53779,-0.33756 -0.53779,-0.50719 0,-0.18965 0.49118,-1.06696 3.8286,-6.83824 0.5705,-0.98656 1.44035,-2.49085 1.933,-3.34288 0.56332,-0.97426 0.95024,-1.55966 1.04263,-1.5775 0.0808,-0.0156 0.42658,0.10283 0.76841,0.26319 1.05973,0.49714 1.76749,0.64887 3.02673,0.64887 1.25926,0 1.96868,-0.15198 2.98005,-0.63843 0.32708,-0.15733 0.66706,-0.28604 0.75552,-0.28604 0.12027,0 0.30498,0.25201 0.73209,0.99879 0.31418,0.54933 0.83688,1.45742 1.16155,2.01796 0.90405,1.56084 1.98459,3.43432 4.44877,7.71346 0.28676,0.49796 0.52138,0.97728 0.52138,1.06515 0,0.3852 -2.81917,1.64183 -5.09584,2.27144 -0.84161,0.23275 -1.30346,0.30928 -2.24218,0.37155 -1.6715,0.11087 -4.5023,0.15321 -5.17738,0.0774 z M 91.853244,139.26956 c -0.11897,-0.13431 -0.12032,-0.0716 0.0702,-3.24886 0.0742,-1.23842 0.2659,-2.13748 0.78208,-3.66901 1.05169,-3.12035 2.68884,-5.73495 5.08224,-8.11657 1.50038,-1.49299 3.399896,-2.93012 3.876016,-2.93248 0.13776,-7e-4 0.30165,-0.0337 0.3642,-0.0733 0.29851,-0.18902 0.57101,0.16254 1.85894,2.39823 2.44849,4.25027 3.15648,5.47777 4.15465,7.20314 0.55377,0.95722 1.00686,1.82244 1.00686,1.9227 0,0.13093 -0.12061,0.25914 -0.42805,0.45501 -0.64933,0.41369 -1.68793,1.50472 -2.15506,2.26383 -0.5594,0.90906 -1.0004,2.23983 -1.06313,3.20812 l -0.0469,0.72395 -6.694066,-0.003 c -5.99053,-0.003 -6.70604,-0.0167 -6.80797,-0.13168 z m 28.013496,-0.4971 c -0.16737,-2.12299 -1.26814,-4.09972 -2.98975,-5.36892 -0.51617,-0.38053 -0.65271,-0.52423 -0.6531,-0.68732 -2.4e-4,-0.11341 0.28717,-0.70045 0.63877,-1.30454 0.3516,-0.60409 1.32725,-2.29076 2.16811,-3.74818 3.5268,-6.11284 3.67336,-6.35741 3.81043,-6.35852 0.0747,-6e-4 0.1527,-0.047 0.17326,-0.10302 0.0298,-0.0816 0.0589,-0.0816 0.14539,0 0.0594,0.056 0.2277,0.10192 0.37395,0.10192 0.30439,0 1.16244,0.54998 2.35132,1.50711 1.12073,0.90227 1.76963,1.52728 2.65979,2.56187 2.69831,3.13611 4.60874,7.37192 4.80237,10.64784 0.0371,0.62781 0.0941,1.58806 0.12654,2.13389 0.0505,0.84847 0.0403,1.01109 -0.0696,1.1211 -0.1151,0.11509 -0.8327,0.12865 -6.80816,0.12865 h -6.67949 z"
       id="path80-0" />
  </g>
</svg>
