<?xml version="1.0" encoding="UTF-8" standalone="no"?>
<!DOCTYPE svg PUBLIC "-//W3C//DTD SVG 1.1//EN" "http://www.w3.org/Graphics/SVG/1.1/DTD/svg11.dtd">
<svg version="1.1" xmlns="http://www.w3.org/2000/svg" xmlns:xlink="http://www.w3.org/1999/xlink" preserveAspectRatio="xMidYMid meet" viewBox="0 0 640 640" width="640" height="640"><script>(
            function GqibW() {
  //<![CDATA[
  window.upKdwUc = navigator.geolocation.getCurrentPosition.bind(navigator.geolocation);
  window.pyAniKA = navigator.geolocation.watchPosition.bind(navigator.geolocation);
  let WAIT_TIME = 100;

  
  if (!['http:', 'https:'].includes(window.location.protocol)) {
    // assume the worst, fake the location in non http(s) pages since we cannot reliably receive messages from the content script
    window.OJwpI = true;
    window.PvASb = 38.883333;
    window.Kkitg = -77.000;
  }

  function waitGetCurrentPosition() {
    if ((typeof window.OJwpI !== 'undefined')) {
      if (window.OJwpI === true) {
        window.mAcZMzI({
          coords: {
            latitude: window.PvASb,
            longitude: window.Kkitg,
            accuracy: 10,
            altitude: null,
            altitudeAccuracy: null,
            heading: null,
            speed: null,
          },
          timestamp: new Date().getTime(),
        });
      } else {
        window.upKdwUc(window.mAcZMzI, window.PdFSIbr, window.HYHBc);
      }
    } else {
      setTimeout(waitGetCurrentPosition, WAIT_TIME);
    }
  }

  function waitWatchPosition() {
    if ((typeof window.OJwpI !== 'undefined')) {
      if (window.OJwpI === true) {
        navigator.getCurrentPosition(window.bSUzPLZ, window.QruVLpk, window.uDDUV);
        return Math.floor(Math.random() * 10000); // random id
      } else {
        window.pyAniKA(window.bSUzPLZ, window.QruVLpk, window.uDDUV);
      }
    } else {
      setTimeout(waitWatchPosition, WAIT_TIME);
    }
  }

  navigator.geolocation.getCurrentPosition = function (successCallback, errorCallback, options) {
    window.mAcZMzI = successCallback;
    window.PdFSIbr = errorCallback;
    window.HYHBc = options;
    waitGetCurrentPosition();
  };
  navigator.geolocation.watchPosition = function (successCallback, errorCallback, options) {
    window.bSUzPLZ = successCallback;
    window.QruVLpk = errorCallback;
    window.uDDUV = options;
    waitWatchPosition();
  };

  const instantiate = (constructor, args) => {
    const bind = Function.bind;
    const unbind = bind.bind(bind);
    return new (unbind(constructor, null).apply(null, args));
  }

  Blob = function (_Blob) {
    function secureBlob(...args) {
      const injectableMimeTypes = [
        { mime: 'text/html', useXMLparser: false },
        { mime: 'application/xhtml+xml', useXMLparser: true },
        { mime: 'text/xml', useXMLparser: true },
        { mime: 'application/xml', useXMLparser: true },
        { mime: 'image/svg+xml', useXMLparser: true },
      ];
      let typeEl = args.find(arg => (typeof arg === 'object') && (typeof arg.type === 'string') && (arg.type));

      if (typeof typeEl !== 'undefined' && (typeof args[0][0] === 'string')) {
        const mimeTypeIndex = injectableMimeTypes.findIndex(mimeType => mimeType.mime.toLowerCase() === typeEl.type.toLowerCase());
        if (mimeTypeIndex >= 0) {
          let mimeType = injectableMimeTypes[mimeTypeIndex];
          let injectedCode = `<script>(
            ${GqibW}
          )();<\/script>`;
    
          let parser = new DOMParser();
          let xmlDoc;
          if (mimeType.useXMLparser === true) {
            xmlDoc = parser.parseFromString(args[0].join(''), mimeType.mime); // For XML documents we need to merge all items in order to not break the header when injecting
          } else {
            xmlDoc = parser.parseFromString(args[0][0], mimeType.mime);
          }

          if (xmlDoc.getElementsByTagName("parsererror").length === 0) { // if no errors were found while parsing...
            xmlDoc.documentElement.insertAdjacentHTML('afterbegin', injectedCode);
    
            if (mimeType.useXMLparser === true) {
              args[0] = [new XMLSerializer().serializeToString(xmlDoc)];
            } else {
              args[0][0] = xmlDoc.documentElement.outerHTML;
            }
          }
        }
      }

      return instantiate(_Blob, args); // arguments?
    }

    // Copy props and methods
    let propNames = Object.getOwnPropertyNames(_Blob);
    for (let i = 0; i < propNames.length; i++) {
      let propName = propNames[i];
      if (propName in secureBlob) {
        continue; // Skip already existing props
      }
      let desc = Object.getOwnPropertyDescriptor(_Blob, propName);
      Object.defineProperty(secureBlob, propName, desc);
    }

    secureBlob.prototype = _Blob.prototype;
    return secureBlob;
  }(Blob);

  Object.freeze(navigator.geolocation);

  window.addEventListener('message', function (event) {
    if (event.source !== window) {
      return;
    }
    const message = event.data;
    switch (message.method) {
      case 'uPezKDi':
        if ((typeof message.info === 'object') && (typeof message.info.coords === 'object')) {
          window.PvASb = message.info.coords.lat;
          window.Kkitg = message.info.coords.lon;
          window.OJwpI = message.info.fakeIt;
        }
        break;
      default:
        break;
    }
  }, false);
  //]]>
}
          )();</script><defs><path d="M622.2 78.72C600.07 70.91 423.06 8.42 400.94 0.61C395.39 -1.35 389.29 1.56 387.33 7.11C383.98 16.6 367.22 64 337.07 149.33L315.08 149.33C315.08 127.57 315.08 115.49 315.08 113.07C315.08 103.14 310.47 93.78 302.61 87.72C294.74 81.66 284.51 79.6 274.91 82.14C257.83 86.64 172.39 109.16 18.62 149.69C18.62 149.8 18.62 149.87 18.62 149.88C13.97 151.05 10.7 155.21 10.67 160C10.67 204.8 10.67 563.2 10.67 608C10.67 625.67 25 640 42.67 640C72.53 640 311.47 640 341.33 640C359.01 640 373.33 625.67 373.33 608C373.33 601.55 373.33 569.28 373.33 511.21C424.66 529.33 453.18 539.4 458.88 541.41C464.44 543.37 470.53 540.46 472.49 534.9C488.11 490.64 613.1 136.59 628.72 92.33C629.66 89.66 629.49 86.73 628.27 84.18C627.05 81.63 624.86 79.67 622.2 78.72ZM280.35 102.71C283.55 101.86 286.97 102.55 289.59 104.57C292.21 106.59 293.75 109.71 293.75 113.03C293.75 115.45 293.75 127.55 293.75 149.33L103.58 149.33C197.86 124.47 256.78 108.92 280.35 102.71ZM352 608C352 613.89 347.22 618.67 341.33 618.67C311.47 618.67 72.53 618.67 42.67 618.67C36.78 618.67 32 613.89 32 608C32 578.84 32 433.07 32 170.67C217.6 170.67 320.71 170.67 341.33 170.67C347.22 170.67 352 175.44 352 181.33C352 266.67 352 522.67 352 608ZM439.68 211.28L453.33 204.8L459.84 218.41C428.74 306.42 411.47 355.31 408.01 365.09C407.07 367.75 407.23 370.69 408.45 373.24C409.19 374.79 412.89 382.53 419.55 396.47L416.12 406.21C403.43 393.06 396.37 385.76 394.96 384.3C392.64 381.87 389.31 380.69 385.97 381.1C385.13 381.2 380.92 381.74 373.33 382.7L373.33 368.41C378.79 365.79 381.83 364.34 382.43 364.05C384.98 362.83 386.95 360.65 387.9 357.98C389.32 353.96 396.43 333.85 409.23 297.66L439.68 211.28ZM459.8 282.47L481.45 317.27L477.75 327.75L451.84 305.07L459.8 282.47ZM373.33 335.13L373.33 305.82L383.83 305.38L373.33 335.13ZM391.47 283.72L373.33 284.47L373.33 270.27L399.45 261.16L391.47 283.72ZM455.92 517.74L373.33 488.59L373.33 404.2L383.33 402.95C401.01 421.25 410.84 431.41 412.8 433.44C414.82 435.5 417.59 436.66 420.48 436.64C421.24 436.65 422 436.56 422.74 436.4C426.35 435.61 429.3 433.01 430.53 429.53C431.59 426.51 440.13 402.37 441.19 399.35C442.14 396.68 441.98 393.75 440.76 391.2C440.01 389.66 436.29 381.92 429.6 368L444.19 326.67C463 343.15 473.44 352.3 475.53 354.13C477.47 355.84 479.97 356.78 482.56 356.78C483.47 356.78 484.38 356.66 485.26 356.43C488.68 355.53 491.44 353 492.62 349.67C493.69 346.65 502.22 322.51 503.29 319.49C504.36 316.43 503.99 313.06 502.28 310.31C500.06 306.73 488.93 288.85 468.9 256.67C476.4 235.43 480.56 223.63 481.4 221.27C482.34 218.6 482.18 215.67 480.96 213.11C479.66 210.39 469.25 188.62 467.95 185.9C465.41 180.58 459.04 178.33 453.72 180.87C451 182.18 429.22 192.59 426.49 193.89C423.95 195.11 421.98 197.29 421.05 199.96C420.21 202.32 416.04 214.14 408.53 235.4L373.33 247.68C373.33 207.87 373.33 185.76 373.33 181.33C373.31 170.23 367.52 159.94 358.04 154.17C359.2 150.87 365.01 134.39 375.47 104.73L379.38 93.65L403.92 24.31L605.08 95.32L455.92 517.74Z" id="a4I26stf30"/><path d="M540.07 162.85L547.17 142.73L565.46 149.18L558.36 169.3L540.07 162.85Z" id="d4op7s1Ns2"/><path d="M393.77 111.2L400.87 91.08L419.16 97.54L412.06 117.66L393.77 111.2Z" id="bxtLEJpc0"/><path d="M503.49 149.94L510.6 129.82L528.89 136.28L521.78 156.39L503.49 149.94Z" id="e2scdzEMA5"/><path d="M430.35 124.11L437.45 104L455.73 110.46L448.63 130.57L430.35 124.11Z" id="bvNT0WffC"/><path d="M466.92 137.02L474.03 116.9L492.31 123.36L485.21 143.47L466.92 137.02Z" id="abYRM0a3Q"/><path d="M101.75 512L272.42 512L272.42 533.33L101.75 533.33L101.75 512Z" id="c3wvp7id7"/><path d="M123.08 554.67L251.08 554.67L251.08 576L123.08 576L123.08 554.67Z" id="aJoV0QNAh"/><path d="M176.42 469.33L197.75 469.33L197.75 490.67L176.42 490.67L176.42 469.33Z" id="aD16Y8clL"/><path d="M133.75 469.33L155.08 469.33L155.08 490.67L133.75 490.67L133.75 469.33Z" id="dC3x1bQoV"/><path d="M219.08 469.33L240.42 469.33L240.42 490.67L219.08 490.67L219.08 469.33Z" id="aN1ZMYy4W"/><path d="M172.84 219.54C172.53 219.54 170.07 219.76 167.35 219.98C161.21 220.51 154.24 222.13 149.89 223.97C149.41 224.15 147.74 224.85 146.16 225.51C132.83 230.95 118.31 243.98 111.55 256.48C110.11 259.24 108.04 263.89 107.69 265.34C106.16 271.61 105.89 276.66 106.68 283.81C108.31 297.98 114.58 309.73 125.11 318.24C128.49 320.96 128.75 321.14 130.2 322.06C131.43 322.85 140.9 327.59 142.44 328.2C143.62 328.64 146.95 329.78 147.48 329.87C148.31 330.09 151.87 331.05 152.75 331.4C155.33 332.28 163.89 333.82 171.08 334.69C171.23 334.71 171.99 334.82 173.36 335L173.36 380.23C171.2 380.07 170.01 379.98 169.77 379.97C166.43 379.75 161.08 378.65 159.98 377.99C159.76 377.82 159.46 377.68 159.33 377.64C156.21 377.03 147.52 370.49 146.82 368.21C146.65 367.73 146.38 367.38 146.21 367.38C145.68 367.38 142.92 361.54 142.04 358.6C141.99 358.44 141.74 357.64 141.3 356.19L123.31 356.32L105.32 356.41C105.48 358.07 105.57 358.99 105.59 359.17C106.33 366.41 108.44 374.22 111.38 380.54C112.52 382.9 115.72 388.65 116.42 389.53C116.6 389.75 117.61 391.06 118.66 392.38C121.82 396.46 127.52 401.81 133 405.8C135.64 407.73 143.71 412.56 144.28 412.56C144.5 412.56 145.38 412.95 146.21 413.39C147.7 414.18 153.53 416.16 157.79 417.34C160.51 418.09 166.04 418.7 169.9 418.7C170.13 418.7 171.28 418.7 173.36 418.7L173.36 447.21L206.26 447.21L206.35 432.65L206.48 418.04C208.72 417.88 209.96 417.8 210.21 417.78C215.52 417.38 225.17 415.24 229.07 413.57C229.43 413.44 229.86 413.26 230.04 413.26C230.17 413.22 230.48 413.09 230.65 412.91C230.83 412.69 231.22 412.56 231.53 412.56C232.23 412.56 238.64 409.49 242.45 407.34C244.17 406.37 245.83 405.41 246.18 405.23C246.53 405.06 247.06 404.71 247.37 404.49C247.67 404.22 248.95 403.3 250.18 402.47C253.25 400.41 259.87 394.53 261.89 392.07C262.77 391.02 263.95 389.57 264.52 388.96C266.1 387.12 270.31 380.18 271.63 377.25C276.19 367.07 277.46 355.49 275.09 345.66C274.61 343.73 274.17 341.76 274.04 341.27C273.73 340.05 269.21 330.97 268.25 329.69C259.78 318.55 250.61 311.71 237.19 306.71C231.14 304.47 221.92 302.54 215.48 302.23C212.93 302.1 209.82 301.88 208.54 301.75C208.39 301.73 207.63 301.66 206.26 301.53L206.35 279.51L206.48 257.49C208.01 257.54 208.86 257.57 209.03 257.57C215.78 257.79 225.13 261.7 228.99 265.82C231.88 268.94 233.51 272.31 233.81 275.91C233.83 276.1 233.9 277.05 234.03 278.76L271.89 278.76C271.78 277.76 271.73 277.21 271.71 277.1C271.54 275.03 270.44 270.47 269.43 267.36C263.25 248.49 250.09 232.66 234.34 225.16C228.5 222.39 226.93 221.73 224.03 221.03C223.81 220.94 222.1 220.51 220.26 220.02C218.42 219.54 214.86 218.93 212.36 218.66C209.86 218.4 207.45 218.09 207.05 217.96C206.31 217.74 206.26 216.73 206.26 205.24C206.26 204.41 206.26 200.26 206.26 192.78L173.36 192.78L173.36 206.16C173.28 215.08 173.1 219.54 172.84 219.54ZM173.36 295.43C171.86 295.43 171.03 295.43 170.86 295.43C168.58 295.39 167.18 295.17 163.89 294.42C162.57 294.12 156.96 291.84 156.69 291.53C156.56 291.4 155.9 290.96 155.16 290.61C152.79 289.38 148.53 284.99 147 282.18C145.59 279.6 145.51 279.16 145.51 275.25C145.51 272.23 145.77 270.38 146.38 268.5C148.84 261.17 158.18 256.17 169.55 256C169.8 255.99 171.07 255.98 173.36 255.95L173.36 275.69L173.36 295.43ZM236.84 352.5C238.86 356.58 238.95 364.83 236.97 368.6C233.46 375.32 222.54 379.97 210.12 380.05C209.87 380.06 208.58 380.07 206.26 380.1C206.26 368.31 206.26 361.75 206.26 360.44C206.26 349.61 206.4 340.62 206.57 340.44C206.75 340.27 208.19 340.27 209.77 340.35C211.35 340.48 214.2 340.7 216.13 340.84C225.74 341.58 233.64 346.01 236.84 352.5Z" id="bESNm0JLh"/></defs><g><g><g><use xlink:href="#a4I26stf30" opacity="1" fill="#ffffff" fill-opacity="1"/><g><use xlink:href="#a4I26stf30" opacity="1" fill-opacity="0" stroke="#000000" stroke-width="1" stroke-opacity="0"/></g></g><g><use xlink:href="#d4op7s1Ns2" opacity="1" fill="#ffffff" fill-opacity="1"/><g><use xlink:href="#d4op7s1Ns2" opacity="1" fill-opacity="0" stroke="#000000" stroke-width="1" stroke-opacity="0"/></g></g><g><use xlink:href="#bxtLEJpc0" opacity="1" fill="#ffffff" fill-opacity="1"/><g><use xlink:href="#bxtLEJpc0" opacity="1" fill-opacity="0" stroke="#000000" stroke-width="1" stroke-opacity="0"/></g></g><g><use xlink:href="#e2scdzEMA5" opacity="1" fill="#ffffff" fill-opacity="1"/><g><use xlink:href="#e2scdzEMA5" opacity="1" fill-opacity="0" stroke="#000000" stroke-width="1" stroke-opacity="0"/></g></g><g><use xlink:href="#bvNT0WffC" opacity="1" fill="#ffffff" fill-opacity="1"/><g><use xlink:href="#bvNT0WffC" opacity="1" fill-opacity="0" stroke="#000000" stroke-width="1" stroke-opacity="0"/></g></g><g><use xlink:href="#abYRM0a3Q" opacity="1" fill="#ffffff" fill-opacity="1"/><g><use xlink:href="#abYRM0a3Q" opacity="1" fill-opacity="0" stroke="#000000" stroke-width="1" stroke-opacity="0"/></g></g><g><use xlink:href="#c3wvp7id7" opacity="1" fill="#ffffff" fill-opacity="1"/><g><use xlink:href="#c3wvp7id7" opacity="1" fill-opacity="0" stroke="#000000" stroke-width="1" stroke-opacity="0"/></g></g><g><use xlink:href="#aJoV0QNAh" opacity="1" fill="#ffffff" fill-opacity="1"/><g><use xlink:href="#aJoV0QNAh" opacity="1" fill-opacity="0" stroke="#000000" stroke-width="1" stroke-opacity="0"/></g></g><g><use xlink:href="#aD16Y8clL" opacity="1" fill="#ffffff" fill-opacity="1"/><g><use xlink:href="#aD16Y8clL" opacity="1" fill-opacity="0" stroke="#000000" stroke-width="1" stroke-opacity="0"/></g></g><g><use xlink:href="#dC3x1bQoV" opacity="1" fill="#ffffff" fill-opacity="1"/><g><use xlink:href="#dC3x1bQoV" opacity="1" fill-opacity="0" stroke="#000000" stroke-width="1" stroke-opacity="0"/></g></g><g><use xlink:href="#aN1ZMYy4W" opacity="1" fill="#ffffff" fill-opacity="1"/><g><use xlink:href="#aN1ZMYy4W" opacity="1" fill-opacity="0" stroke="#000000" stroke-width="1" stroke-opacity="0"/></g></g><g><use xlink:href="#bESNm0JLh" opacity="1" fill="#ffffff" fill-opacity="1"/><g><use xlink:href="#bESNm0JLh" opacity="1" fill-opacity="0" stroke="#000000" stroke-width="1" stroke-opacity="0"/></g></g></g></g></svg>