<?xml version="1.0" encoding="UTF-8" standalone="no"?>
<svg
   xmlns:dc="http://purl.org/dc/elements/1.1/"
   xmlns:cc="http://creativecommons.org/ns#"
   xmlns:rdf="http://www.w3.org/1999/02/22-rdf-syntax-ns#"
   xmlns:svg="http://www.w3.org/2000/svg"
   xmlns="http://www.w3.org/2000/svg"
   width="81.07888mm"
   height="73.67263mm"
   viewBox="0 0 81.07888 73.67263"
   version="1.1"
   id="svg8">
  <defs
     id="defs2">
    <style
       id="style2">
      .cls-1 {
        fill-rule: evenodd;
      }
    </style>
    <style
       id="style2-6">
      .cls-1 {
        fill-rule: evenodd;
      }
    </style>
  </defs>
  <metadata
     id="metadata5">
    <rdf:RDF>
      <cc:Work
         rdf:about="">
        <dc:format>image/svg+xml</dc:format>
        <dc:type
           rdf:resource="http://purl.org/dc/dcmitype/StillImage" />
        <dc:title></dc:title>
      </cc:Work>
    </rdf:RDF>
  </metadata>
  <g
     id="layer1"
     transform="translate(-124.825,-122.94639)">
    <g
       id="g24"
       transform="matrix(0.71755948,0,0,0.71755948,81.666996,44.890939)">
      <path
         style="fill:#fefefe;stroke-width:0.0846667"
         d="m 99.85391,178.93664 c 0.3406,-0.65579 1.17011,-1.43463 1.99785,-1.87581 1.09477,-0.58351 2.62357,-0.9091 6.60624,-1.40693 1.32715,-0.1659 2.6416,-0.35813 2.921,-0.42719 1.04927,-0.25936 1.80238,-0.77971 2.17363,-1.50184 0.20392,-0.39665 0.18397,-0.12861 0.65997,-8.86406 0.14083,-2.58445 0.36964,-6.77545 0.50847,-9.31334 0.13883,-2.53788 0.36808,-6.72888 0.50944,-9.31333 0.14136,-2.58445 0.35167,-6.4135 0.46735,-8.509 0.41808,-7.57308 0.45969,-8.46332 0.39846,-8.52455 -0.0783,-0.0783 -21.28343,-6.33445 -21.470607,-6.33445 -0.07574,0 -0.137717,0.0507 -0.137717,0.11266 0,0.062 1.924051,5.83981 4.275667,12.83967 2.351617,6.99985 4.275667,12.74035 4.275667,12.75667 0,0.0163 0.47703,0.0297 1.06005,0.0297 h 1.06006 l -0.16366,0.3175 c -0.70328,1.36433 -2.89775,2.6388 -5.564291,3.23154 -1.664389,0.36997 -2.749973,0.46649 -5.282159,0.46963 -2.557335,0.003 -3.444003,-0.0688 -5.21937,-0.4238 -2.746274,-0.54911 -5.062467,-1.70072 -6.180588,-3.07298 l -0.390751,-0.47956 1.613235,-0.023 1.613236,-0.023 1.796868,-5.3957 c 0.988278,-2.96763 2.916652,-8.72929 4.285277,-12.8037 1.368625,-4.0744 2.477463,-7.48025 2.464084,-7.56856 -0.03345,-0.22082 -1.175422,-0.57781 -1.238926,-0.38729 -0.02241,0.0672 -0.150656,0.23214 -0.284992,0.36648 -0.211305,0.2113 -0.290259,0.23807 -0.585399,0.19849 -0.404754,-0.0543 -0.627337,-0.23471 -0.750695,-0.60849 -0.255421,-0.77393 0.706227,-1.38071 1.3413,-0.84633 0.139849,0.11767 0.27915,0.32722 0.309557,0.46566 0.03041,0.13844 0.08083,0.25167 0.112058,0.25162 0.03122,-5e-5 2.037972,0.39974 4.459439,0.88844 15.282207,3.08421 18.709737,3.76097 18.762127,3.70454 0.0323,-0.0348 0.0741,-0.43799 0.0928,-0.89605 l 0.0342,-0.83283 -0.4699,-0.23867 c -0.57529,-0.2922 -0.87042,-0.59355 -1.10842,-1.13176 -0.32713,-0.7398 -0.15836,-1.68089 0.41022,-2.28745 0.51825,-0.55286 1.45068,-0.78067 2.23432,-0.54589 0.44507,0.13335 1.02306,0.65646 1.24351,1.12545 0.21109,0.44908 0.24135,1.25698 0.0631,1.68369 -0.26508,0.63443 -1.1641,1.32142 -1.73238,1.3238 -0.19734,8.2e-4 -0.19772,0.003 -0.16933,0.96766 0.0156,0.53177 0.0537,0.99202 0.0846,1.02278 0.0309,0.0308 3.53609,1.08198 7.78933,2.33603 4.25325,1.25404 8.43802,2.4883 9.2995,2.74279 4.53328,1.33918 5.61588,1.65223 5.71383,1.65223 0.0591,0 0.15973,-0.0631 0.22364,-0.14011 0.0639,-0.0771 0.24002,-0.19188 0.39137,-0.25514 0.52186,-0.21814 1.12183,0.21161 1.12183,0.80356 0,0.38606 -0.46192,0.86169 -0.83686,0.86169 -0.37275,0 -0.77868,-0.38628 -0.84688,-0.80589 -0.053,-0.32588 -0.0609,-0.33202 -0.56083,-0.43596 -0.65216,-0.13559 -0.8881,-0.13804 -0.8881,-0.009 0,0.057 1.33783,4.08605 2.97295,8.9535 1.63512,4.86745 3.58181,10.66919 4.32597,12.89275 l 1.35304,4.04283 h 1.47586 1.47587 l -0.13046,0.25227 c -0.20222,0.39105 -1.10413,1.31354 -1.61719,1.65409 -2.66492,1.76887 -7.39837,2.50188 -12.52304,1.93927 -3.58497,-0.39357 -6.38356,-1.5009 -7.9057,-3.12808 -0.28525,-0.30492 -0.51863,-0.59112 -0.51863,-0.63598 0,-0.0481 0.45013,-0.0816 1.09769,-0.0816 0.9608,0 1.1069,-0.0185 1.17162,-0.14817 0.17543,-0.35154 8.66921,-25.85619 8.62544,-25.89997 -0.0939,-0.0939 -21.00296,-4.26345 -21.0613,-4.19991 -0.0325,0.0354 0.0113,1.32168 0.0973,2.85838 0.0861,1.5367 0.27312,4.9276 0.4157,7.53534 0.41837,7.65157 0.7467,13.65272 1.01678,18.58433 0.13899,2.53788 0.36659,6.72888 0.50578,9.31333 0.31824,5.90906 0.29089,5.57999 0.49734,5.98466 0.36497,0.71541 1.26193,1.31142 2.3263,1.54579 0.19487,0.0429 1.59256,0.23611 3.10598,0.42935 4.63382,0.59166 5.74423,0.88919 7.08774,1.89912 0.48064,0.3613 0.95273,0.904 1.20098,1.38058 l 0.0992,0.1905 H 116.5868 99.732982 Z M 146.304,159.5415 c 0,-0.0851 -0.74645,-2.38058 -1.65877,-5.10117 -0.91233,-2.72059 -2.57103,-7.67067 -3.686,-11.00019 -2.49838,-7.46063 -2.61375,-7.78933 -2.73384,-7.78933 -0.10648,0 -8.01334,23.54743 -8.01008,23.85483 l 0.002,0.1905 h 8.04334 c 7.73222,0 8.04333,-0.006 8.04333,-0.15464 z m -43.942,-11.08968 c 0,-0.12536 -3.142971,-9.5508 -7.176533,-21.52168 -0.491655,-1.45914 -0.799408,-2.25217 -0.880147,-2.26798 -0.0944,-0.0185 -1.071584,2.81127 -4.078615,11.811 -2.174957,6.50942 -3.953772,11.90199 -3.952922,11.98348 0.0015,0.14006 0.441596,0.14817 8.04488,0.14817 7.700367,0 8.043337,-0.007 8.043337,-0.15299 z"
         id="path38" />
    </g>
    <path
       style="fill:#ffffff;fill-rule:evenodd;stroke-width:0.389802"
       d="m 124.825,181.80654 v -58.86015 h 81.07888 v 58.86015 z m 76.40125,-54.18252 h -71.33382 v 49.5049 h 71.33382 z m -46.19158,61.23326 v -3.15272 h 20.65953 v 3.15739 c 7.01644,1.17604 12.1435,3.50822 13.35189,6.29336 -6.31285,0.91215 -14.5213,1.46371 -23.50507,1.46371 -9.15607,0 -17.50992,-0.57301 -23.86915,-1.51515 1.25243,-2.76527 6.37287,-5.0803 13.3628,-6.24659 z"
       class="cls-1"
       id="IconGraphic" />
  </g>
</svg>
