<?xml version="1.0" encoding="UTF-8" standalone="no"?>
<svg
   xmlns:dc="http://purl.org/dc/elements/1.1/"
   xmlns:cc="http://creativecommons.org/ns#"
   xmlns:rdf="http://www.w3.org/1999/02/22-rdf-syntax-ns#"
   xmlns:svg="http://www.w3.org/2000/svg"
   xmlns="http://www.w3.org/2000/svg"
   width="43.897686mm"
   height="39.772839mm"
   viewBox="0 0 43.897686 39.772839"
   version="1.1"
   id="svg8">
  <defs
     id="defs2" />
  <metadata
     id="metadata5">
    <rdf:RDF>
      <cc:Work
         rdf:about="">
        <dc:format>image/svg+xml</dc:format>
        <dc:type
           rdf:resource="http://purl.org/dc/dcmitype/StillImage" />
        <dc:title></dc:title>
      </cc:Work>
    </rdf:RDF>
  </metadata>
  <g
     id="layer1"
     transform="translate(-75.440624,-103.62194)">
    <g
       id="g24"
       transform="matrix(1.1079294,0,0,1.1079294,-8.1422643,-15.476518)">
      <path
         style="fill:#fefefe;stroke-width:0.0846667"
         d="m 100.60007,143.22359 c -0.31498,-0.19204 -0.52407,-0.60988 -0.52407,-1.04729 0,-0.35482 0.40738,-1.15963 1.06737,-2.10869 1.95872,-2.81661 4.12825,-4.3961 7.28953,-5.30702 l 0.69456,-0.20013 -0.21198,-0.34518 c -0.41726,-0.67948 -1.11645,-2.13512 -1.34518,-2.80052 -0.71707,-2.08606 -0.75056,-4.44223 -0.092,-6.47296 0.23173,-0.71456 0.67012,-1.68834 1.05497,-2.34333 l 0.25517,-0.4343 -0.52506,-0.10096 c -0.81772,-0.15724 -2.239,-0.65594 -2.93805,-1.03091 -2.28669,-1.22658 -3.89534,-3.32104 -4.91339,-6.39722 -0.19748,-0.59674 -0.36935,-1.0973 -0.38192,-1.11235 -0.0126,-0.0151 -0.474092,0.22379 -1.025604,0.53076 -1.55643,0.86628 -2.777081,1.28777 -4.326538,1.49397 -0.920995,0.12256 -3.707938,0.0503 -4.592545,-0.119 -1.556071,-0.29789 -1.637173,-0.3236 -1.92326,-0.60969 -0.258563,-0.25856 -0.278073,-0.31758 -0.278073,-0.84108 0,-0.61863 0.143086,-0.9932 0.445376,-1.16592 0.1428,-0.0816 0.84818,-0.1088 2.856624,-0.11021 2.61328,-0.002 2.683317,-0.006 3.47705,-0.22404 1.963075,-0.5384 3.507568,-1.64911 5.59913,-4.02657 l 0.83973,-0.95452 h 0.46071 c 0.64135,0 0.74445,0.12571 0.87311,1.06458 0.64641,4.71688 2.09853,7.7963 4.34454,9.21322 1.3403,0.84554 2.70909,1.12814 5.865,1.21087 1.96727,0.0516 2.03412,0.059 2.2225,0.24741 0.1454,0.14539 0.19423,0.29071 0.19423,0.57803 0,0.36662 -0.037,0.42471 -0.8255,1.297 -2.40954,2.6655 -3.16317,3.78506 -3.58792,5.33005 -0.66123,2.40517 0.45382,5.39473 3.43407,9.20703 0.68065,0.87067 0.72535,0.95285 0.72535,1.3335 0,0.29339 -0.0471,0.45272 -0.17014,0.57578 -0.16126,0.16126 -0.2751,0.1698 -2.18017,0.16353 -2.62558,-0.009 -3.72799,0.15778 -5.06692,0.76488 -1.30907,0.59356 -2.77658,1.84811 -4.16209,3.55812 -1.05386,1.30066 -1.12551,1.35473 -1.79482,1.35435 -0.40575,-2.6e-4 -0.62835,-0.0459 -0.83379,-0.17119 z m -22.365218,-6.5729 c -1.538269,-3.10406 -2.79567,-5.72343 -2.794224,-5.82083 0.0022,-0.14521 0.289724,-0.31675 1.597038,-0.95267 2.276702,-1.10746 2.54666,-1.41837 3.480111,-4.00809 0.527344,-1.46304 0.815874,-2.00045 1.305331,-2.43129 0.222718,-0.19604 1.007176,-0.62706 2.009585,-1.10414 1.598301,-0.7607 1.661177,-0.78257 2.249604,-0.78257 0.708785,0 0.909861,0.0634 1.244282,0.39221 0.256225,0.25194 3.151618,6.03307 3.446348,6.88121 0.08749,0.25176 0.159073,0.67746 0.159073,0.946 0,0.40707 -0.03806,0.53348 -0.228881,0.76026 -0.30294,0.36002 -0.671228,0.50298 -1.295773,0.50298 -0.923043,0 -1.484241,-0.43376 -2.49206,-1.92616 -0.550817,-0.81567 -0.72462,-1.0005 -0.72462,-0.77059 0,0.0535 0.177632,0.42496 0.394737,0.8255 1.218423,2.24788 2.200617,3.00346 3.381297,2.60117 0.621123,-0.21164 0.683107,-0.192 0.730852,0.2316 0.06233,0.55296 0.414183,1.23578 0.856376,1.6619 0.429683,0.41406 0.482997,0.62631 0.23671,0.94233 -0.253696,0.32553 -0.408378,0.67767 -0.521341,1.18684 -0.09579,0.43179 -0.08794,0.53577 0.08303,1.09864 0.169456,0.55789 0.24882,0.68063 0.773255,1.19578 0.321431,0.31575 0.584419,0.64455 0.584419,0.73069 0,0.22305 -1.538968,0.92483 -2.40357,1.09604 -0.591747,0.11718 -0.775171,0.11859 -1.608667,0.0123 -1.964325,-0.25041 -1.766475,-0.29784 -4.695866,1.12575 -1.413373,0.68686 -2.659863,1.24884 -2.769979,1.24884 -0.18053,0 -0.475157,-0.55481 -2.997066,-5.64374 z m 14.898481,1.31552 c -1.083892,-0.43094 -1.44135,-2.27982 -0.601319,-3.11021 0.225052,-0.22247 1.113045,-0.69772 3.182415,-1.70322 l 2.870262,-1.39465 0.597488,0.003 c 0.654505,0.003 0.959601,0.12041 1.333831,0.51439 0.33837,0.35623 0.49132,0.80006 0.49132,1.42572 0,0.63893 -0.13124,1.00503 -0.4764,1.32897 -0.1338,0.12556 -1.536146,0.85898 -3.116337,1.62983 l -2.873073,1.40153 -0.59826,-0.005 c -0.329043,-0.003 -0.69351,-0.0432 -0.809927,-0.0895 z m -0.504906,-4.57652 c -0.719763,-0.20651 -1.181573,-0.84228 -1.252357,-1.72411 -0.0516,-0.64288 0.109876,-1.16067 0.467599,-1.49939 0.127232,-0.12047 1.505268,-0.84026 3.062302,-1.59955 l 2.830971,-1.38051 0.59803,0.003 c 0.852427,0.004 1.390925,0.34354 1.694208,1.06956 0.151,0.3615 0.1745,1.29603 0.0414,1.64821 -0.191643,0.50723 -0.534198,0.72331 -3.286495,2.07302 -3.146107,1.54283 -3.396934,1.62795 -4.155688,1.41025 z m -0.992811,-4.28209 c -0.181921,-0.50792 -0.406648,-1.02956 -0.827398,-1.92057 -0.278101,-0.58893 -0.466579,-1.09803 -0.45184,-1.22047 0.02243,-0.18632 0.3695,-0.37756 3.070539,-1.69188 l 3.045249,-1.48181 0.595417,4.3e-4 c 0.654066,5.1e-4 0.961906,0.11769 1.331759,0.50706 0.346522,0.3648 0.491325,0.79791 0.491325,1.46954 0,0.65461 -0.101287,0.92612 -0.479568,1.28552 -0.302184,0.28711 -6.232223,3.20033 -6.514461,3.20033 -0.121389,0 -0.230044,-0.0617 -0.261022,-0.14817 z m -2.546179,-5.39809 c -0.430157,-0.86181 -0.782104,-1.63626 -0.782104,-1.721 0,-0.11789 0.550113,-0.421 2.342287,-1.29058 l 2.342288,-1.1365 h 0.656146 c 0.592752,0 0.691163,0.0246 1.018586,0.25477 0.530636,0.37301 0.780915,0.91047 0.780915,1.67696 0,1.13646 -0.138461,1.25942 -2.983631,2.64954 -1.276225,0.62355 -2.381603,1.13373 -2.456396,1.13373 -0.0918,0 -0.390124,-0.50916 -0.918091,-1.56692 z"
         id="path38" />
    </g>
  </g>
</svg>
