<?xml version="1.0" encoding="UTF-8" standalone="no"?>
<svg
   xmlns:dc="http://purl.org/dc/elements/1.1/"
   xmlns:cc="http://creativecommons.org/ns#"
   xmlns:rdf="http://www.w3.org/1999/02/22-rdf-syntax-ns#"
   xmlns:svg="http://www.w3.org/2000/svg"
   xmlns="http://www.w3.org/2000/svg"
   width="101.42683mm"
   height="53.683907mm"
   viewBox="0 0 101.42684 53.683907"
   version="1.1"
   id="svg8">
  <defs
     id="defs2">
    <style
       id="style2">
      .cls-1 {
        fill-rule: evenodd;
      }
    </style>
    <style
       id="style2-3">
      .cls-1 {
        fill-rule: evenodd;
      }
    </style>
    <style
       id="style2-6">
      .cls-1 {
        fill-rule: evenodd;
      }
    </style>
    <style
       id="style2-1">
      .cls-1 {
        fill-rule: evenodd;
      }
    </style>
    <style
       id="style2-2">
      .cls-1 {
        fill-rule: evenodd;
      }
    </style>
    <style
       id="style2-7">
      .cls-1 {
        fill-rule: evenodd;
      }
    </style>
    <style
       id="style2-72">
      .cls-1 {
        fill-rule: evenodd;
      }
    </style>
  </defs>
  <metadata
     id="metadata5">
    <rdf:RDF>
      <cc:Work
         rdf:about="">
        <dc:format>image/svg+xml</dc:format>
        <dc:type
           rdf:resource="http://purl.org/dc/dcmitype/StillImage" />
        <dc:title></dc:title>
      </cc:Work>
    </rdf:RDF>
  </metadata>
  <g
     id="layer1"
     transform="translate(-67.99927,-135.15776)">
    <path
       id="IconGraphic"
       class="cls-1"
       d="m 116.02607,187.67721 a 2.6579303,2.6579303 0 0 1 -3.49503,-1.38243 l -7.88125,-18.15853 -0.39997,0.1962 c -1.46789,1.77152 -5.003879,6.02705 -6.714223,7.99225 -0.519047,0.69349 0.09125,1.36904 0.802458,2.08022 0.711196,0.71119 5.425335,4.77836 5.425335,4.77836 a 2.6119165,2.6119165 0 1 1 -3.817635,3.56481 l -8.017528,-8.55302 a 2.6121692,2.6121692 0 0 1 0.126411,-3.69121 c 0.193158,-0.18027 1.264115,-1.37966 2.565143,-2.84881 a 2.5353111,2.5353111 0 0 1 -0.507918,-0.0505 l -15.561775,9.72206 c 0.696274,1.11419 -0.18355,2.91986 -1.964942,4.03278 0.02199,-0.014 -3.532445,-5.67765 -3.552167,-5.68599 1.781393,-1.11241 3.78982,-1.11241 4.485842,0.003 l 14.883197,-9.29803 a 2.5163493,2.5163493 0 0 1 -0.31072,-0.91016 2.5239339,2.5239339 0 0 1 -0.955418,-4.16097 l 2.927184,-2.95549 -3.196694,-6.50565 c -0.559751,-1.13923 -0.170656,-2.47767 0.868954,-2.98787 l 8.574756,-4.21431 a 1.9338446,1.9338446 0 0 1 0.84671,-0.19695 2.5282319,2.5282319 0 0 1 2.73832,-0.37772 l 8.72923,4.12735 a 2.5226698,2.5226698 0 0 1 1.19105,3.97488 l -4.61882,5.80204 0.54154,1.10206 a 2.2857745,2.2857745 0 0 1 -0.35395,2.61975 l 8.02436,18.4877 a 2.6576774,2.6576774 0 0 1 -1.38245,3.49477 z m -10.54424,-33.26521 1.24844,2.54087 1.12811,-1.41732 z m -11.441773,-5.58739 a 6.3205799,6.3205799 0 1 1 6.320583,-6.32059 6.3205799,6.3205799 0 0 1 -6.320583,6.32059 z m -23.259731,38.68195 -2.781056,-2.78106 4.04517,-3.03388 3.286703,5.81494 z"
       style="fill:#ffffff;fill-rule:evenodd;stroke-width:0.252822" />
    <g
       id="layer1-5"
       transform="matrix(0.46466427,0,0,0.46466427,84.313816,76.2293)">
      <rect
         style="fill:#ffffff;fill-opacity:1;stroke:#ffffff;stroke-width:0.0429402;stroke-opacity:1"
         id="rect4587"
         width="105.75599"
         height="7.0161381"
         x="77.391968"
         y="126.95258"
         ry="0" />
      <rect
         style="fill:#ffffff;fill-opacity:1;stroke:#ffffff;stroke-width:0.0428672;stroke-opacity:1"
         id="rect4587-3"
         width="105.6838"
         height="6.9970918"
         x="77.442245"
         y="235.33359"
         ry="0" />
      <rect
         style="fill:#ffffff;fill-opacity:1;stroke:#ffffff;stroke-width:0.0415106;stroke-opacity:1"
         id="rect4587-7"
         width="6.0101676"
         height="115.374"
         x="-92.595268"
         y="-242.31955"
         ry="0"
         transform="scale(-1)" />
      <rect
         style="fill:#ffffff;fill-opacity:1;stroke:#ffffff;stroke-width:0.0414548;stroke-opacity:1"
         id="rect4587-7-4"
         width="6.0102234"
         height="115.063"
         x="-173.69295"
         y="-241.90317"
         ry="0"
         transform="scale(-1)" />
      <rect
         style="fill:#ffffff;fill-opacity:1;stroke:#ffffff;stroke-width:0.0410348;stroke-opacity:1"
         id="rect4587-7-6"
         width="6.0106435"
         height="112.7351"
         x="-110.4436"
         y="-241.6357"
         transform="scale(-1)" />
      <rect
         style="fill:#ffffff;fill-opacity:1;stroke:#ffffff;stroke-width:0.0410348;stroke-opacity:1"
         id="rect4587-7-6-8"
         width="6.0106435"
         height="112.73512"
         x="-154.17204"
         y="-241.6357"
         ry="0"
         transform="scale(-1)" />
    </g>
    <rect
       style="fill:#ffffff;fill-opacity:1;stroke:#ffffff;stroke-width:0.0190674;stroke-opacity:1"
       id="rect4587-7-6-0"
       width="2.7929313"
       height="52.383972"
       x="-145.87787"
       y="-188.43826"
       transform="scale(-1)" />
  </g>
</svg>
