<svg height="512" viewBox="0 0 56 54" width="512" xmlns="http://www.w3.org/2000/svg"><g id="Page-1" fill="none" fill-rule="evenodd"><g id="051---Betting" fill="rgb(0,0,0)" fill-rule="nonzero" transform="translate(-1)"><path id="Rectangle-path" d="m27 8h2.001v2h-2.001z"/><path id="Shape" d="m26 2h4l.01.002h3.99v-2.002h-12v2.002h3.99z"/><path id="Shape" d="m51.568 28.848c1.9814305 2.2786494 3.1681031 5.1398605 3.381 8.152h2c-.2183088-3.5421889-1.6146611-6.9096964-3.967-9.567z"/><path id="Rectangle-path" d="m27 4.002h2v1.998h-2z"/><path id="Shape" d="m20 2v-2h-3.468c-1.2279633.03303669-2.2920265.86014634-2.627 2.042l-.011.035c.3501989-.0462216.7028003-.07193212 1.056-.077z"/><path id="Shape" d="m17 10v-1h-2v1c0 1.1045695-.8954305 2-2 2h-1v2h1c1.1045695 0 2 .8954305 2 2v1h2v-1c0-1.1045695.8954305-2 2-2h1v-2h-1c-1.1045695 0-2-.8954305-2-2z"/><path id="Shape" d="m50.154 27.434 1.414-1.414c-2.6575277-2.3526102-6.0254447-3.7489863-9.568-3.967v2c3.0128377.2124716 5.8748143 1.3991705 8.154 3.381z"/><circle id="Oval" cx="41" cy="13" r="3"/><path id="Shape" d="m41 20c5.4382257.0005316 10.5836078 2.4640203 13.994 6.7-.0270137-.9544571-.237156-1.8948353-.619-2.77l-6.9-15.742c-1.1183344-2.54941937-3.641086-4.19382154-6.425-4.188h-10.05v6c0 1.1045695-.8954305 2-2 2h-2c-1.1045695 0-2-.8954305-2-2v-6h-10.05c-2.7835522-.00070888-5.30435945 1.64399522-6.425 4.192l-6.9 15.759c-1.51077511 3.34038-.27033247 7.2825851 2.881 9.156 1.7274108.9650151 3.78162563 1.1570243 5.6579528.5288535 1.8763272-.6281708 3.4008618-2.0183004 4.1990472-3.8288535l2.63-6.01c.4805863-1.0933597 1.5626818-1.7986647 2.757-1.797h13.041c2.5370977-1.3133392 5.3521269-1.9991789 8.209-2zm0-12c2.7614237 0 5 2.2385763 5 5s-2.2385763 5-5 5-5-2.2385763-5-5c.0033061-2.7600532 2.2399468-4.99669388 5-5zm-19 6c0 1.1045695-.8954305 2-2 2h-1v1c0 1.1045695-.8954305 2-2 2h-2c-1.1045695 0-2-.8954305-2-2v-1h-1c-1.1045695 0-2-.8954305-2-2v-2c0-1.1045695.8954305-2 2-2h1v-1c0-1.1045695.8954305-2 2-2h2c1.1045695 0 2 .8954305 2 2v1h1c1.1045695 0 2 .8954305 2 2zm4 5h-1c-.5522847 0-1-.4477153-1-1s.4477153-1 1-1h1c.5522847 0 1 .4477153 1 1s-.4477153 1-1 1zm5 0h-1c-.5522847 0-1-.4477153-1-1s.4477153-1 1-1h1c.5522847 0 1 .4477153 1 1s-.4477153 1-1 1z"/><path id="Shape" d="m42 51.951v2c3.5426596-.218369 6.9105668-1.615093 9.568-3.968l-1.414-1.413c-2.2791857 1.9818295-5.1411623 3.1685284-8.154 3.381z"/><path id="Shape" d="m41.967 2.069-.01-.032c-.3357304-1.17975436-1.3988299-2.00471956-2.625-2.037h-3.332v2h5.05c.3066434.00734653.6127101.03037663.917.069z"/><path id="Shape" d="m53 38c0-6.627417-5.372583-12-12-12s-12 5.372583-12 12 5.372583 12 12 12c6.624447-.0071648 11.9928352-5.375553 12-12zm-12-1c2.6196938-.1277633 4.8520619 1.8813681 5 4.5-.0965423 2.2415987-1.7783513 4.0953727-4 4.409v1.091c0 .5522847-.4477153 1-1 1s-1-.4477153-1-1v-1.089c-2.222362-.3137704-3.9043967-2.1686341-4-4.411 0-.5522847.4477153-1 1-1s1 .4477153 1 1c.1514128 1.5117412 1.4857375 2.6236785 3 2.5 1.5142625.1236785 2.8485872-.9882588 3-2.5-.1514128-1.5117412-1.4857375-2.6236785-3-2.5-2.6196938.1277633-4.8520619-1.8813681-5-4.5.0965423-2.2415987 1.7783513-4.0953727 4-4.409v-1.091c0-.5522847.4477153-1 1-1s1 .4477153 1 1v1.091c2.2216487.3136273 3.9034577 2.1674013 4 4.409 0 .5522847-.4477153 1-1 1s-1-.4477153-1-1c-.1514128-1.5117412-1.4857375-2.6236785-3-2.5-1.5142625-.1236785-2.8485872.9882588-3 2.5.1514128 1.5117412 1.4857375 2.6236785 3 2.5z"/><path id="Shape" d="m51.568 47.156 1.414 1.413c2.3526173-2.657917 3.7489779-6.0261484 3.967-9.569h-2c-.2120461 3.0135359-1.3987714 5.8762781-3.381 8.156z"/><path id="Shape" d="m30.432 49.983c2.6574332 2.352907 6.0253404 3.749631 9.568 3.968v-2c-3.0128377-.2124716-5.8748143-1.3991705-8.154-3.381z"/><path id="Shape" d="m25.051 39c.2184604 3.5421538 1.6147931 6.9096139 3.967 9.567l1.414-1.413c-1.9818295-2.2791857-3.1685284-5.1411623-3.381-8.154z"/><path id="Shape" d="m31.846 27.434c2.2791857-1.9818295 5.1411623-3.1685284 8.154-3.381v-2c-3.5425553.2180137-6.9104723 1.6143898-9.568 3.967z"/><path id="Shape" d="m27.051 37c.2124716-3.0128377 1.3991705-5.8748143 3.381-8.154l-1.414-1.413c-2.3523389 2.6573036-3.7486912 6.0248111-3.967 9.567z"/></g></g></svg>