<?xml version="1.0"?>
<svg xmlns="http://www.w3.org/2000/svg" id="Solid" viewBox="0 0 512 512" width="512" height="512"><path d="M240,392a80.11,80.11,0,0,1-79.6-72H144.336a96,96,0,0,0,191.328,0H319.6A80.11,80.11,0,0,1,240,392Z"/><path d="M464,464a8,8,0,0,1-8,8H48v16H480V88H464Z"/><path d="M176,312a64,64,0,1,0,64-64A64.072,64.072,0,0,0,176,312Zm45.163-17.73c6.067-9.986,12.038-18.508,12.289-18.866a8,8,0,0,1,13.1,0C254.2,286.308,272,312.948,272,324.8c0,15-14.355,27.2-32,27.2s-32-12.2-32-27.2C208,320.672,209.5,313.471,221.163,294.27Z"/><path d="M232,232.4V216.336A96.153,96.153,0,0,0,144.336,304H160.4A80.14,80.14,0,0,1,232,232.4Z"/><path d="M240,336c8.667,0,15.99-5.122,16-11.188-.146-3.764-6.982-16.616-16-30.511-9.023,13.9-15.862,26.761-16,30.517C224,330.871,231.327,336,240,336Z"/><path d="M448,168H32V456H448ZM240,424A112,112,0,1,1,352,312,112.127,112.127,0,0,1,240,424Z"/><path d="M248,216.336V232.4A80.14,80.14,0,0,1,319.6,304h16.065A96.153,96.153,0,0,0,248,216.336Z"/><path d="M368,72V48a8,8,0,0,1,16,0v8h16V48a24,24,0,0,0-48,0V72H304V48a8,8,0,0,1,16,0v8h16V48a24,24,0,0,0-48,0V72H160V48a8,8,0,0,1,16,0v8h16V48a24,24,0,0,0-48,0V72H96V48a8,8,0,0,1,16,0v8h16V48a24,24,0,0,0-48,0V72H32v80H448V72Z"/></svg>
