<svg id="Capa_1" enable-background="new 0 0 512 512" height="512" viewBox="0 0 512 512" width="512" xmlns="http://www.w3.org/2000/svg"><g><path d="m476 482v-166.369l29.632 6.011 5.964-29.401-255.596-51.851-255.596 51.851 5.964 29.401 29.632-6.011v166.369h-36v30h205.74v-171.37h30v171.37h40.52v-171.37h30v171.37h205.74v-30zm-322.5-35h-30v-106.37h30zm235 0h-30v-106.37h30z"/><path d="m91.19 123.97 5.96 29.41 27.1-5.5v88.62l131.75-26.72 131.75 26.72v-88.62l27.1 5.5 5.96-29.41-149.81-30.387v-33.583h34.348v-30h-34.348v-30h-30v30h-34.348v30h34.348v33.583zm149.867 55.725h-30.113v-30h30.113zm60 0h-30.113v-30h30.113z"/></g></svg>