<?xml version="1.0" encoding="iso-8859-1"?>
<!-- Generator: Adobe Illustrator 19.0.0, SVG Export Plug-In . SVG Version: 6.00 Build 0)  -->
<svg version="1.1" id="Capa_1" xmlns="http://www.w3.org/2000/svg" xmlns:xlink="http://www.w3.org/1999/xlink" x="0px" y="0px"
	 viewBox="0 0 512 512" style="enable-background:new 0 0 512 512;" xml:space="preserve">
<g>
	<g>
		<path d="M116.763,217.271c-13.439,0-24.373,10.934-24.373,24.373c0,13.439,10.934,24.372,24.373,24.372
			c13.439,0,24.372-10.933,24.372-24.372C141.135,228.205,130.202,217.271,116.763,217.271z M116.763,251.016
			c-5.168,0-9.373-4.204-9.373-9.372c0-5.168,4.205-9.373,9.373-9.373c5.168,0,9.372,4.205,9.372,9.373
			C126.135,246.812,121.931,251.016,116.763,251.016z"/>
	</g>
</g>
<g>
	<g>
		<path d="M185.295,285.804c-13.439,0-24.373,10.933-24.373,24.372c0,13.439,10.934,24.373,24.373,24.373
			c13.439,0,24.373-10.934,24.373-24.373C209.668,296.737,198.734,285.804,185.295,285.804z M185.296,319.549
			c-5.168,0-9.373-4.205-9.373-9.373c0-5.168,4.205-9.372,9.373-9.372c5.168,0,9.373,4.204,9.373,9.372
			C194.669,315.344,190.464,319.549,185.296,319.549z"/>
	</g>
</g>
<g>
	<g>
		<path d="M115.898,419.847H78.7c-4.142,0-7.5,3.358-7.5,7.5c0,4.142,3.358,7.5,7.5,7.5h11.099v34.864c0,4.142,3.358,7.5,7.5,7.5
			c4.142,0,7.5-3.358,7.5-7.5v-34.864h11.099c4.142,0,7.5-3.358,7.5-7.5C123.398,423.205,120.04,419.847,115.898,419.847z"/>
	</g>
</g>
<g>
	<g>
		<path d="M173.394,466.696l-18.597-42.364c-2.568-5.852-11.165-5.849-13.734,0l-18.599,42.364c-1.665,3.793,0.06,8.217,3.852,9.882
			c0.981,0.431,2.004,0.635,3.011,0.635c2.886,0,5.637-1.675,6.871-4.487l2.471-5.629h18.52l2.471,5.629
			c1.234,2.812,3.985,4.487,6.871,4.487c1.007,0,2.03-0.204,3.011-0.635C173.334,474.913,175.059,470.489,173.394,466.696z
			 M145.254,452.097l2.675-6.093l2.675,6.093H145.254z"/>
	</g>
</g>
<g>
	<g>
		<path d="M214.74,448.529l14.254-16.234c2.732-3.112,2.425-7.851-0.688-10.584c-3.113-2.733-7.851-2.424-10.584,0.687
			l-12.963,14.763l-12.963-14.763c-2.734-3.111-7.472-3.42-10.584-0.687c-3.113,2.733-3.42,7.472-0.688,10.584l14.254,16.234
			l-14.254,16.233c-2.733,3.113-2.425,7.852,0.688,10.584c1.424,1.25,3.188,1.864,4.945,1.864c2.083,0,4.156-0.863,5.639-2.551
			l12.963-14.764l12.963,14.764c1.483,1.688,3.555,2.551,5.639,2.551c1.757,0,3.521-0.614,4.945-1.864
			c3.113-2.733,3.42-7.472,0.688-10.584L214.74,448.529z"/>
	</g>
</g>
<g>
	<g>
		<path d="M464.425,281.439l-53.284-19.187c43.256-6.368,47.979-35.035,48.177-36.401c0.052-0.357,0.078-0.719,0.078-1.08V99.076
			C459.397,44.445,414.951,0,360.32,0h-25.229c-4.143,0-7.5,3.358-7.5,7.5s3.357,7.5,7.5,7.5h25.229
			c46.359,0,84.076,37.716,84.076,84.076v124.995c-0.729,3.13-7.334,24.429-51.395,24.429c-17.991,0-42.213-2.951-58.442-16.516
			c15.196-2.075,26.942-15.139,26.942-30.895V112c0-4.142-3.357-7.5-7.5-7.5h-22.405c-30.4,0-51.897-10.54-62.167-30.48
			c-1.286-2.497-3.859-4.066-6.668-4.066c-2.809,0-5.382,1.569-6.667,4.066c-9.403,18.259-28.222,28.636-54.667,30.256V64.459
			c0-27.272,22.188-49.459,49.459-49.459h50.027c4.143,0,7.5-3.358,7.5-7.5s-3.357-7.5-7.5-7.5h-50.027
			c-35.543,0-64.459,28.917-64.459,64.459V112c0,4.142,3.358,7.5,7.5,7.5c0.805,0,1.592-0.015,2.381-0.028v33.87
			c-14.446-5.352-29.633-8.066-45.279-8.066c-72.031,0-130.633,58.602-130.633,130.634c0,22.88,6.004,45.396,17.363,65.116
			c1.388,2.41,3.912,3.758,6.506,3.758c1.27,0,2.557-0.323,3.737-1.002c3.589-2.068,4.823-6.653,2.755-10.243
			c-10.049-17.445-15.361-37.373-15.361-57.628c0-63.761,51.873-115.634,115.633-115.634c15.746,0,30.963,3.095,45.279,9.2v31.612
			c0,8.923-7.259,16.182-16.183,16.182c-5.396,0-10.209,3.229-12.263,8.228c-2.042,4.969-0.899,10.614,2.912,14.384
			c0.937,0.926,1.957,1.869,3.053,2.816l-62.587,62.156c-2.939,2.919-2.955,7.667-0.037,10.607c1.466,1.476,3.394,2.215,5.322,2.215
			c1.911,0,3.822-0.726,5.285-2.178l64.616-64.17c12.471,6.751,30.529,12.172,56.382,12.172c4.701,0,9.238-0.231,13.507-0.677
			c3.21,1.74,6.561,3.249,10.031,4.512c0.208,2.847,0.316,5.721,0.316,8.575c0,2.614-0.091,5.239-0.265,7.84
			c-14.162,8.503-23.015,23.851-23.015,40.7v21.071c-0.037,0.047-0.078,0.088-0.114,0.136
			c-22.087,29.161-55.707,45.886-92.239,45.886c-30.16,0-58.709-11.551-80.388-32.524c-2.978-2.88-7.725-2.801-10.605,0.175
			c-2.88,2.977-2.802,7.725,0.175,10.605c24.492,23.694,56.745,36.744,90.818,36.744c35.193,0,67.986-13.747,92.353-38.218v32.225
			c0,4.142,3.358,7.5,7.5,7.5c4.142,0,7.5-3.358,7.5-7.5v-76.1c0-13.045,7.754-24.78,19.754-29.896l44.651-19.037v2.098
			c0,19.34,15.733,35.074,35.073,35.074c19.34,0,35.074-15.734,35.074-35.074v-5.976l66.408,23.914
			c12.854,4.628,21.489,16.917,21.489,30.578V504.5c0,4.142,3.357,7.5,7.5,7.5s7.5-3.358,7.5-7.5V326.13
			C495.832,306.164,483.21,288.204,464.425,281.439z M191.318,236.875c-0.146-0.177-0.299-0.35-0.463-0.516
			c-0.947-0.954-2.088-1.594-3.297-1.932c-1.144-0.812-2.207-1.63-3.185-2.444c15.192-2.079,26.935-15.141,26.935-30.894v-82.703
			c1.945-0.261,3.833-0.564,5.665-0.908v79.429c0,19.94,7.845,38.07,20.592,51.508C215.695,247.718,201.04,242.69,191.318,236.875z
			 M281.653,276.749c0.002-0.279,0.01-0.559,0.01-0.838c-0.001-1.602-0.039-3.209-0.097-4.815c3.378,0.468,6.821,0.729,10.325,0.729
			h1.311L281.653,276.749z M377.933,277.613c0.002,11.071-9.003,20.076-20.072,20.076c-11.068,0-20.073-9.005-20.073-20.074v-13.291
			c0-4.142-3.357-7.5-7.5-7.5h-38.397c-33.039,0-59.918-26.879-59.918-59.918v-6.426c1.327,1.141,3.05,1.837,4.928,1.837
			c4.142,0,7.5-3.358,7.5-7.5c0-4.142-3.358-7.5-7.5-7.5h-0.098c-1.851,0-3.533,0.674-4.831,1.786v-30.457h6.879
			c4.142,0,7.5-3.358,7.5-7.5c0-4.142-3.358-7.5-7.5-7.5h-6.879v-20.272c14.398-5.337,24.171-13.533,30.789-22.034
			c11.302,14.517,31.783,28.158,68.835,28.158h14.905v81.589c0,8.923-7.26,16.182-16.183,16.182c-5.396,0-10.209,3.229-12.264,8.228
			c-2.042,4.968-0.899,10.614,2.912,14.383c9.429,9.325,26.694,20.193,56.967,22.95V277.613z"/>
	</g>
</g>
<g>
	<g>
		<path d="M250.882,422.935c-4.142,0-7.5,3.358-7.5,7.5V504.5c0,4.142,3.358,7.5,7.5,7.5c4.142,0,7.5-3.358,7.5-7.5v-74.065
			C258.382,426.293,255.024,422.935,250.882,422.935z"/>
	</g>
</g>
<g>
	<g>
		<path d="M288.597,191.791h-16.305v-50.644c0-4.142-3.357-7.5-7.5-7.5s-7.5,3.358-7.5,7.5v58.144c0,4.142,3.357,7.5,7.5,7.5h23.805
			c4.143,0,7.5-3.358,7.5-7.5C296.097,195.149,292.739,191.791,288.597,191.791z"/>
	</g>
</g>
<g>
	<g>
		<path d="M421.538,323.081c-4.143,0-7.5,3.358-7.5,7.5V504.5c0,4.142,3.357,7.5,7.5,7.5s7.5-3.358,7.5-7.5V330.581
			C429.038,326.438,425.681,323.081,421.538,323.081z"/>
	</g>
</g>
<g>
	<g>
		<path d="M286.419,323.081c-4.143,0-7.5,3.358-7.5,7.5V504.5c0,4.142,3.357,7.5,7.5,7.5s7.5-3.358,7.5-7.5V330.581
			C293.919,326.438,290.562,323.081,286.419,323.081z"/>
	</g>
</g>
<g>
	<g>
		<path d="M318.853,133.647h-18.256c-4.143,0-7.5,3.358-7.5,7.5c0,4.142,3.357,7.5,7.5,7.5h18.256c4.142,0,7.5-3.358,7.5-7.5
			C326.353,137.005,322.996,133.647,318.853,133.647z"/>
	</g>
</g>
<g>
	<g>
		<path d="M52.582,145.576l-7.059-7.1c-2.921-2.937-7.669-2.95-10.607-0.031c-2.937,2.92-2.951,7.669-0.031,10.607l7.059,7.1
			c1.466,1.474,3.392,2.212,5.319,2.212c1.912,0,3.825-0.727,5.288-2.181C55.488,153.263,55.502,148.514,52.582,145.576z"/>
	</g>
</g>
<g>
	<g>
		<path d="M35.296,163.585l-9.664-2.619c-4-1.083-8.117,1.279-9.201,5.277c-1.083,3.998,1.279,8.117,5.277,9.201l9.665,2.619
			c0.657,0.178,1.317,0.263,1.966,0.263c3.303,0,6.329-2.199,7.234-5.54C41.656,168.788,39.294,164.669,35.296,163.585z"/>
	</g>
</g>
<g>
	<g>
		<path d="M74.554,135.132l-2.563-9.678c-1.06-4.004-5.166-6.39-9.17-5.33s-6.391,5.166-5.33,9.17l2.563,9.678
			c0.89,3.361,3.925,5.582,7.245,5.582c0.635,0,1.282-0.082,1.925-0.252C73.228,143.242,75.615,139.136,74.554,135.132z"/>
	</g>
</g>
<g>
	<g>
		<path d="M318.902,177.318h-0.099c-4.143,0-7.451,3.358-7.451,7.5c0,4.142,3.407,7.5,7.55,7.5c4.143,0,7.5-3.358,7.5-7.5
			S323.045,177.318,318.902,177.318z"/>
	</g>
</g>
<g>
	<g>
		<path d="M421.538,98.5c-4.143,0-7.5,3.358-7.5,7.5v84c0,4.142,3.357,7.5,7.5,7.5s7.5-3.358,7.5-7.5v-84
			C429.038,101.858,425.681,98.5,421.538,98.5z"/>
	</g>
</g>
<g>
</g>
<g>
</g>
<g>
</g>
<g>
</g>
<g>
</g>
<g>
</g>
<g>
</g>
<g>
</g>
<g>
</g>
<g>
</g>
<g>
</g>
<g>
</g>
<g>
</g>
<g>
</g>
<g>
</g>
</svg>
