<?xml version="1.0" encoding="UTF-8" standalone="no"?>
<svg
   xmlns:dc="http://purl.org/dc/elements/1.1/"
   xmlns:cc="http://creativecommons.org/ns#"
   xmlns:rdf="http://www.w3.org/1999/02/22-rdf-syntax-ns#"
   xmlns:svg="http://www.w3.org/2000/svg"
   xmlns="http://www.w3.org/2000/svg"
   width="82.509697mm"
   height="60.06041mm"
   viewBox="0 0 82.509697 60.06041"
   version="1.1"
   id="svg8">
  <defs
     id="defs2">
    <style
       id="style2">
      .cls-1 {
        fill-rule: evenodd;
      }
    </style>
    <style
       id="style2-23">
      .cls-1 {
        fill-rule: evenodd;
      }
    </style>
    <style
       id="style2-6">
      .cls-1 {
        fill-rule: evenodd;
      }
    </style>
    <style
       id="style2-1">
      .cls-1 {
        fill-rule: evenodd;
      }
    </style>
    <style
       id="style2-2">
      .cls-1 {
        fill-rule: evenodd;
      }
    </style>
    <style
       id="style2-7">
      .cls-1 {
        fill-rule: evenodd;
      }
    </style>
    <style
       id="style2-72">
      .cls-1 {
        fill-rule: evenodd;
      }
    </style>
  </defs>
  <metadata
     id="metadata5">
    <rdf:RDF>
      <cc:Work
         rdf:about="">
        <dc:format>image/svg+xml</dc:format>
        <dc:type
           rdf:resource="http://purl.org/dc/dcmitype/StillImage" />
        <dc:title></dc:title>
      </cc:Work>
    </rdf:RDF>
  </metadata>
  <g
     id="layer1"
     transform="translate(-92.720751,-91.300419)">
    <path
       id="IconGraphic"
       class="cls-1"
       d="m 141.25457,100.56083 a 6.2163854,6.2163854 0 0 1 -12.40737,0 h -0.014 v -4.887378 h 12.29678 v 0.241829 l 3.8428,4.645549 z m -12.42139,-9.260411 h 12.29678 v 2.829454 h -12.29678 z m 12.43542,16.668751 a 3.175,3.175 0 0 1 3.175,3.175 v 16.66875 a 3.175,3.175 0 0 1 -3.175,3.175 v 17.46249 a 2.91042,2.91042 0 0 1 -5.82084,0 v -17.46249 h -1.05833 v 17.46249 a 2.9104167,2.9104167 0 0 1 -5.82083,0 v -17.47599 a 3.1734125,3.1734125 0 0 1 -2.91042,-3.1615 v -16.66875 a 3.175,3.175 0 0 1 3.175,-3.175 z"
       style="fill:#ffffff;fill-rule:evenodd;stroke-width:0.264583" />
    <g
       id="layer1-5"
       transform="translate(-27.36059,46.670395)">
      <path
         style="fill:#ffffff;fill-rule:evenodd;stroke-width:0.112956"
         d="m 137.78245,80.095539 c -2.64087,2.107113 -4.90159,5.068296 -5.17398,6.26899 -0.31808,-1.22574 -2.34826,-4.105202 -5.20062,-6.210163 -2.94171,-2.17038 -7.35975,-4.199852 -7.32632,-9.629035 0.0606,-9.884968 9.26854,-12.831169 12.50787,-4.313435 3.09037,-8.177452 12.459,-5.655405 12.51938,4.254965 0.0335,5.427984 -4.43914,7.32482 -7.32633,9.628678 z"
         class="cls-1"
         id="IconGraphic-8" />
      <path
         style="fill:#ffffff;fill-rule:evenodd;stroke-width:0.111583"
         d="m 202.45071,71.582795 c -0.033,0.394913 -0.80657,0.981092 -1.35303,0.871215 -0.54645,-0.109877 -2.3512,-1.494405 -2.31941,-1.960181 0.0509,-0.745135 1.23777,-3.376758 1.54631,-3.484866 0.30854,-0.108097 1.82843,1.512857 2.12645,1.742436 0.29802,0.229572 0.0327,2.436476 -3.2e-4,2.831396 z m -5.41202,0.435604 c 0,0 -0.28633,0.444246 -0.57993,0.435611 -0.2936,-0.0087 -0.89479,-0.476061 -0.96637,-0.871215 -0.0716,-0.395161 -0.0199,-2.531093 0,-3.049256 0.0199,-0.518169 0.13685,-0.528452 0.38654,-0.653355 0.2497,-0.124898 0.60078,-0.248377 0.38656,-0.653471 -0.21423,-0.405099 -0.71584,0.08078 -0.7731,0.21774 -0.0572,0.136965 -0.54572,0.493807 -0.77322,0.217865 -0.22749,-0.275936 -0.37212,-1.10398 -0.38655,-1.742665 -0.0144,-0.638686 -0.33548,-0.710479 -0.38654,-0.435611 -0.051,0.274869 0.0315,1.253716 0,1.306825 -0.0511,0.0529 -0.24212,-0.490132 -0.57993,-0.435615 -0.33781,0.05454 -0.0651,0.384521 0.19328,0.653481 a 0.72636076,0.81610016 0 0 1 0.19327,0.871215 4.2520524,4.7773787 0 0 1 -0.57982,1.30682 c -0.31771,0.499124 -0.68647,0.592448 -0.38656,0.871221 0.29992,0.278773 0.64646,1.231714 0.38656,1.74243 -0.25991,0.510717 -0.36066,0.317103 -0.57983,0.435615 -0.21917,0.118508 -1.02218,1.129997 -1.15976,1.524571 -0.13759,0.394559 0.21612,0.850511 0.19328,1.08896 -0.0228,0.238438 -0.44677,0.09213 -0.96648,0.653465 -0.51972,0.561334 -0.67846,1.121135 -0.57983,1.524576 0.0987,0.403429 1.02859,1.784659 1.35303,2.395901 0.32445,0.611246 -1.95412,0.556953 -4.05909,-0.435616 -2.10498,-0.992559 -2.11192,-1.909667 -2.51279,-2.177795 -0.40087,-0.268127 -6.37849,0 -6.37849,0 V 65.919653 c 0,0 7.55741,1.245085 8.11818,1.30706 0.59794,0.0621 0.67983,-0.295692 1.15965,-0.871226 0.47982,-0.575522 4.06488,-3.692311 5.02557,-4.356076 0.9607,-0.663759 1.84075,-0.48493 2.12645,-0.217859 0.2857,0.267065 4.05879,4.138101 4.05879,4.138101 0,0 0.67751,0.490132 0.38654,1.306819 -0.29097,0.816693 -2.31941,4.791927 -2.31941,4.791927 z m -5.02557,3.484872 c 0.42875,0.02453 3.46052,2.969533 3.67254,3.7026 0.21202,0.733082 -0.34675,1.219542 -0.7732,1.524691 -0.42645,0.305155 -1.30639,0.974828 -1.73958,0.217745 -0.43319,-0.757078 -2.33931,-3.777241 -2.31952,-4.356076 0.0198,-0.578841 0.7311,-1.113448 1.15976,-1.08896 z m 1.54631,-5.009442 c -0.15791,-0.595985 0.74257,-2.086256 0.96648,-1.74243 0.2239,0.34383 0.34075,2.429254 0.19326,3.049255 -0.14748,0.620003 -1.00173,-0.710949 -1.15974,-1.306825 z m -0.19328,2.395791 c 0.58803,-0.636556 1.35302,0 1.35302,0 0,0 2.23699,2.025107 2.89935,2.613892 0.66236,0.588763 0.78173,1.38571 0.38655,1.96017 -0.39518,0.574465 -0.77311,1.08908 -0.77311,1.08908 0,0 -0.62235,0.809827 -1.35303,0 -0.73067,-0.809831 -3.52432,-3.573218 -3.47937,-4.356317 0.045,-0.783104 0.37898,-0.670269 0.96659,-1.306825 z m 2.89934,0.43561 c 0.11653,-0.356715 1.15554,-0.01593 1.35303,-0.21775 0.14653,-0.201893 0.36223,-1.231599 0.57982,-1.524685 0.21759,-0.293092 0.39298,-0.280318 1.15976,0.217859 0.76679,0.498177 1.35303,0.871221 1.35303,0.871221 0,0 0.39876,0.379309 0.19328,1.088966 -0.20549,0.709646 -0.74742,1.960169 -1.73959,1.960169 -0.99216,0 -3.01576,-2.039065 -2.89933,-2.39578 z"
         class="cls-1"
         id="IconGraphic-5" />
    </g>
  </g>
</svg>
