<svg id="Capa_1" enable-background="new 0 0 512 512" height="512" viewBox="0 0 512 512" width="512" xmlns="http://www.w3.org/2000/svg"><g><path d="m436 90h-345c-10.92 0-21.17-2.93-30-8.05v385.05c0 24.81 20.19 45 45 45h330c8.28 0 15-6.72 15-15v-392c0-8.28-6.72-15-15-15zm-75 137c0 8.28-6.72 15-15 15s-15-6.72-15-15v-23.78l-42.45 42.44c7.87 11.86 12.45 26.07 12.45 41.34 0 36.22-25.81 66.53-60 73.49v31.51h15c8.28 0 15 6.72 15 15s-6.72 15-15 15h-15v15c0 8.28-6.72 15-15 15s-15-6.72-15-15v-15h-15c-8.28 0-15-6.72-15-15s6.72-15 15-15h15v-31.51c-34.19-6.96-60-37.27-60-73.49 0-41.35 33.65-75 75-75 15.27 0 29.48 4.58 41.34 12.45l42.44-42.45h-23.78c-8.28 0-15-6.72-15-15s6.72-15 15-15h60c8.71 0 15 7.13 15 15z"/><path d="m436 0c-9.405 0-330.361 0-345 0-16.542 0-30 13.458-30 30s13.458 30 30 30h330v-30h15c8.284 0 15-6.716 15-15s-6.716-15-15-15z"/><circle cx="226" cy="287" r="45"/></g></svg>