<?xml version="1.0" encoding="UTF-8" standalone="no"?>
<svg
   xmlns:dc="http://purl.org/dc/elements/1.1/"
   xmlns:cc="http://creativecommons.org/ns#"
   xmlns:rdf="http://www.w3.org/1999/02/22-rdf-syntax-ns#"
   xmlns:svg="http://www.w3.org/2000/svg"
   xmlns="http://www.w3.org/2000/svg"
   width="46.250717mm"
   height="53.974739mm"
   viewBox="0 0 46.250717 53.974739"
   version="1.1"
   id="svg70">
  <defs
     id="defs64">
    <style
       id="style2">
      .cls-1 {
        fill-rule: evenodd;
      }
    </style>
  </defs>
  <metadata
     id="metadata67">
    <rdf:RDF>
      <cc:Work
         rdf:about="">
        <dc:format>image/svg+xml</dc:format>
        <dc:type
           rdf:resource="http://purl.org/dc/dcmitype/StillImage" />
        <dc:title></dc:title>
      </cc:Work>
    </rdf:RDF>
  </metadata>
  <g
     id="layer1"
     transform="translate(-105.38655,-76.578106)">
    <g
       id="layer1-7"
       transform="translate(97.519198,-77.107145)">
      <path
         id="IconGraphic"
         class="cls-1"
         d="m 52.004081,166.1204 h -5.100108 a 3.5679062,3.5679062 0 0 1 -2.969683,1.5875 h -4.214284 a 4.75615,4.75615 0 0 1 -4.120091,2.38125 H 21.576998 a 4.7625001,4.7625001 0 0 1 0,-9.525 h 0.268023 a 5.1564646,5.1564646 0 0 1 8.789723,-3.52795 5.159375,5.159375 0 0 1 9.939337,1.07712 3.8306375,3.8306375 0 0 1 6.641042,2.14603 2.9077708,2.9077708 0 0 1 4.411927,1.62772 h 0.377031 a 2.1166667,2.1166667 0 0 1 0,4.23333 z m -33.072916,4.7625 h 19.62785 c 0,0 -0.02646,0.38153 -0.05953,1.05834 H 19.01345 c -0.04657,-0.67707 -0.08229,-1.05834 -0.08229,-1.05834 z m 0.17436,2.64584 h 19.33231 c -0.122766,4.02907 -0.12356,12.00176 1.322917,19.23203 1.580621,7.89517 9.862079,14.89922 9.862079,14.89922 H 7.8673478 c 0,0 8.5238162,-7.14005 10.1224292,-15.12808 1.4351,-7.16942 1.311804,-15.0167 1.115748,-19.00317 z m 9.615223,27.25208 a 8.4666667,8.4666667 0 1 0 -8.466667,-8.46667 8.4666667,8.4666667 0 0 0 8.466667,8.46667 z m 0,-14.94896 a 6.4822917,6.4822917 0 1 1 -6.482292,6.48229 6.4822917,6.4822917 0 0 1 6.482292,-6.48229 z m 0,5.49143 a 0.84878333,0.84878333 0 1 0 0.851165,0.84878 0.83872917,0.83872917 0 0 0 -0.851165,-0.84878 z m 5.141383,0.7956 a 4.5807312,4.5807312 0 0 0 -0.514614,-2.58127 4.6429083,4.6429083 0 0 0 -1.843088,-1.85658 l -1.897327,3.02365 a 1.3758333,1.3758333 0 0 1 0.567531,0.52917 2.2489583,2.2489583 0 0 1 0.195263,0.88371 h 3.4925 z m -5.212291,5.35755 a 4.7069375,4.7069375 0 0 0 2.51751,-0.76041 l -1.648619,-3.07631 a 2.0931187,2.0931187 0 0 1 -0.868891,0.24765 1.5507229,1.5507229 0 0 1 -0.726546,-0.24765 l -1.7907,3.07631 a 4.7079958,4.7079958 0 0 0 2.517246,0.76041 z m -5.069946,-5.35755 h 3.4925 a 2.2391687,2.2391687 0 0 1 0.194733,-0.88371 1.3776854,1.3776854 0 0 1 0.567531,-0.52916 l -1.896798,-3.02366 a 4.6415854,4.6415854 0 0 0 -1.843881,1.85658 4.5772917,4.5772917 0 0 0 -0.514085,2.57995 z"
         style="fill:#ffffff;fill-rule:evenodd;stroke-width:0.264583" />
      <path
         style="fill:#fefefe;stroke-width:0.0410765"
         d="m 46.623389,195.7838 c 0,-0.15111 0.430369,-7.11087 0.470648,-7.61114 l 0.01888,-0.23449 h -2.528974 -2.528971 l 0.0095,-0.14051 c 0.0068,-0.10018 1.218606,-2.41165 4.218899,-8.04745 2.315155,-4.34881 4.252559,-7.99638 4.305345,-8.1057 0.112077,-0.23213 0.244403,-0.27645 0.243426,-0.0816 -3.64e-4,0.0644 -0.53038,2.49731 -1.177903,5.40629 l -1.177322,5.28905 2.651187,0.0134 2.651186,0.0134 -7.28e-4,0.11696 c -0.0011,0.17761 -6.974099,13.50347 -7.077528,13.5254 -0.06742,0.0144 -0.07775,-0.005 -0.07775,-0.14351 z"
         id="path484" />
    </g>
  </g>
</svg>
