<svg height="512pt" viewBox="-61 0 512 512.00042" width="512pt" xmlns="http://www.w3.org/2000/svg"><path d="m90 0h30v361h-30zm0 0"/><path d="m375 0h-225v361h240v-346c0-8.285156-6.714844-15-15-15zm-105 268.238281v16.5625c0 8.289063-6.707031 15-15 15-8.289062 0-15-6.710937-15-15v-16.730469c-9.898438-3.546874-18.566406-10.210937-23.964844-19.554687-4.160156-7.179687-1.699218-16.347656 5.464844-20.492187 7.191406-4.191407 16.359375-1.714844 20.492188 5.460937 2.679687 4.644531 7.660156 7.515625 13.007812 7.515625 8.277344 0 15-6.722656 15-15s-6.722656-15-15-15c-24.8125 0-45-20.1875-45-45 0-19.53125 12.578125-36.023438 30-42.238281v-17.160157c0-8.292968 6.710938-15 15-15 8.292969 0 15 6.707032 15 15v17.328126c9.898438 3.542968 18.566406 10.210937 23.964844 19.554687 4.160156 7.179687 1.699218 16.347656-5.464844 20.492187-7.222656 4.160157-16.390625 1.6875-20.492188-5.460937-2.679687-4.644531-7.660156-7.515625-13.007812-7.515625-8.277344 0-15 6.722656-15 15s6.722656 15 15 15c24.8125 0 45 20.1875 45 45 0 19.53125-12.578125 36.023438-30 42.238281zm0 0"/><path d="m60 361v-361c-33.089844 0-60 26.910156-60 60v316.382812c12.574219-9.519531 28.050781-15.382812 45-15.382812zm0 0"/><path d="m0 436c0 24.851562 20.148438 45 45 45h150v-90h-150c-24.851562 0-45 20.148438-45 45zm0 0"/><path d="m345 481h30c8.285156 0 15-6.714844 15-15v-75h-45zm0 0"/><path d="m225 506.65625c0 1.972656 1.089844 3.785156 2.828125 4.714844 1.742187.929687 3.855469.820312 5.492187-.277344l36.679688-27.0625 36.679688 27.070312c1.640624 1.09375 3.753906 1.199219 5.492187.265626 1.742187-.933594 2.828125-2.746094 2.828125-4.71875v-115.648438h-90zm0 0"/></svg>