<?xml version="1.0" encoding="UTF-8" standalone="no"?>
<svg
   xmlns:dc="http://purl.org/dc/elements/1.1/"
   xmlns:cc="http://creativecommons.org/ns#"
   xmlns:rdf="http://www.w3.org/1999/02/22-rdf-syntax-ns#"
   xmlns:svg="http://www.w3.org/2000/svg"
   xmlns="http://www.w3.org/2000/svg"
   width="41.73214mm"
   height="38.932762mm"
   viewBox="0 0 41.73214 38.932762"
   version="1.1"
   id="svg8">
  <defs
     id="defs2">
    <style
       id="style2">
      .cls-1 {
        fill-rule: evenodd;
      }
    </style>
    <style
       id="style2-3">
      .cls-1 {
        fill-rule: evenodd;
      }
    </style>
  </defs>
  <metadata
     id="metadata5">
    <rdf:RDF>
      <cc:Work
         rdf:about="">
        <dc:format>image/svg+xml</dc:format>
        <dc:type
           rdf:resource="http://purl.org/dc/dcmitype/StillImage" />
        <dc:title></dc:title>
      </cc:Work>
    </rdf:RDF>
  </metadata>
  <g
     id="layer1"
     transform="translate(-79.675601,-115.84909)">
    <path
       style="fill:#fefefe;stroke-width:0.0815336"
       d="m 98.624639,154.74347 c -0.31391,-0.0352 -0.91989,-0.0687 -1.34663,-0.0741 -1.5739,-0.0205 -4.80645,-1.04911 -6.79891,-2.16336 -0.44191,-0.24713 -0.53779,-0.33756 -0.53779,-0.50719 0,-0.18965 0.49118,-1.06696 3.8286,-6.83824 0.5705,-0.98656 1.44035,-2.49085 1.933,-3.34288 0.56332,-0.97426 0.95024,-1.55966 1.04263,-1.5775 0.0808,-0.0156 0.42658,0.10283 0.76841,0.26319 1.05973,0.49714 1.76749,0.64887 3.026731,0.64887 1.25926,0 1.96868,-0.15198 2.98005,-0.63843 0.32708,-0.15733 0.66706,-0.28604 0.75552,-0.28604 0.12027,0 0.30498,0.25201 0.73209,0.99879 0.31418,0.54933 0.83688,1.45742 1.16155,2.01796 0.90405,1.56084 1.98459,3.43432 4.44877,7.71346 0.28676,0.49796 0.52138,0.97728 0.52138,1.06515 0,0.3852 -2.81917,1.64183 -5.09584,2.27144 -0.84161,0.23275 -1.30346,0.30928 -2.24218,0.37155 -1.6715,0.11087 -4.502301,0.15321 -5.177381,0.0774 z m -18.86663,-20.76558 c -0.11897,-0.13431 -0.12032,-0.0716 0.0702,-3.24886 0.0742,-1.23842 0.2659,-2.13748 0.78208,-3.66901 1.05169,-3.12035 2.68884,-5.73495 5.08224,-8.11657 1.50038,-1.49299 3.3999,-2.93012 3.87602,-2.93248 0.13776,-7e-4 0.30165,-0.0337 0.3642,-0.0733 0.29851,-0.18902 0.57101,0.16254 1.85894,2.39823 2.44849,4.25027 3.15648,5.47777 4.15465,7.20314 0.55377,0.95722 1.00686,1.82244 1.00686,1.9227 0,0.13093 -0.12061,0.25914 -0.42805,0.45501 -0.64933,0.41369 -1.68793,1.50472 -2.15506,2.26383 -0.5594,0.90906 -1.0004,2.23983 -1.06313,3.20812 l -0.0469,0.72395 -6.69407,-0.003 c -5.99053,-0.003 -6.70604,-0.0167 -6.80797,-0.13168 z m 28.013501,-0.4971 c -0.16737,-2.12299 -1.26814,-4.09972 -2.98975,-5.36892 -0.51617,-0.38053 -0.65271,-0.52423 -0.6531,-0.68732 -2.4e-4,-0.11341 0.28717,-0.70045 0.63877,-1.30454 0.3516,-0.60409 1.32725,-2.29076 2.16811,-3.74818 3.5268,-6.11284 3.67336,-6.35741 3.81043,-6.35852 0.0747,-6e-4 0.1527,-0.047 0.17326,-0.10302 0.0298,-0.0816 0.0589,-0.0816 0.14539,0 0.0594,0.056 0.2277,0.10192 0.37395,0.10192 0.30439,0 1.16244,0.54998 2.35132,1.50711 1.12073,0.90227 1.76963,1.52728 2.65979,2.56187 2.69831,3.13611 4.60874,7.37192 4.80237,10.64784 0.0371,0.62781 0.0941,1.58806 0.12654,2.13389 0.0505,0.84847 0.0403,1.01109 -0.0696,1.1211 -0.1151,0.11509 -0.8327,0.12865 -6.80816,0.12865 h -6.67949 z"
       id="path80" />
    <path
       id="IconGraphic"
       class="cls-1"
       d="m 106.80322,138.53648 h -5.15249 v -2.39979 h 2.82328 c 0.27936,0 0.24703,-0.12175 0.0706,-0.35292 -0.17645,-0.23115 -0.70582,-1.12931 -0.70582,-1.12931 l -1.1999,0.63525 0.84699,-3.52911 3.38794,1.05873 -1.05873,0.63524 c 0,0 1.10602,1.83203 1.83513,3.1762 0.72911,1.34415 -0.84698,1.90571 -0.84698,1.90571 z m -6.14679,-9.22212 c -0.13961,-0.24188 -0.22897,-0.15309 -0.34091,0.11533 -0.11194,0.26843 -0.625073,1.1759 -0.625073,1.1759 l 1.150063,0.72149 -3.479693,1.03107 -0.77719,-3.46319 1.0792,0.59911 c 0,0 1.03361,-1.87389 1.83317,-3.17739 0.799553,-1.30352 2.073843,-0.21937 2.073843,-0.21937 l 2.57624,4.4622 -2.07829,1.19989 c 0,0 -1.20053,-2.07941 -1.41136,-2.44504 z m -4.171973,6.67411 c -0.13967,0.24195 -0.0181,0.27491 0.27034,0.23757 0.28839,-0.0373 1.33089,-0.0466 1.33089,-0.0466 l 0.0501,-1.35674 2.632713,2.49805 -2.610973,2.40466 -0.0208,-1.23449 c 0,0 -2.13962,0.0418 -3.66822,0.002 -1.52859,-0.0406 -1.22693,-1.68642 -1.22693,-1.68642 l 2.57625,-4.4622 2.07829,1.1999 z"
       style="fill:#ffffff;fill-rule:evenodd;stroke-width:0.070582" />
  </g>
</svg>
