<?xml version="1.0" encoding="UTF-8" standalone="no"?>
<svg
   xmlns:dc="http://purl.org/dc/elements/1.1/"
   xmlns:cc="http://creativecommons.org/ns#"
   xmlns:rdf="http://www.w3.org/1999/02/22-rdf-syntax-ns#"
   xmlns:svg="http://www.w3.org/2000/svg"
   xmlns="http://www.w3.org/2000/svg"
   xmlns:sodipodi="http://sodipodi.sourceforge.net/DTD/sodipodi-0.dtd"
   xmlns:inkscape="http://www.inkscape.org/namespaces/inkscape"
   width="119.97672"
   height="200.00082"
   viewBox="0 0 119.97672 200.00082"
   version="1.1"
   id="svg7"
   sodipodi:docname="icons_statepensions.svg"
   inkscape:version="0.92.4 (5da689c313, 2019-01-14)">
  <metadata
     id="metadata11">
    <rdf:RDF>
      <cc:Work
         rdf:about="">
        <dc:format>image/svg+xml</dc:format>
        <dc:type
           rdf:resource="http://purl.org/dc/dcmitype/StillImage" />
      </cc:Work>
    </rdf:RDF>
  </metadata>
  <sodipodi:namedview
     pagecolor="#ffffff"
     bordercolor="#666666"
     borderopacity="1"
     objecttolerance="10"
     gridtolerance="10"
     guidetolerance="10"
     inkscape:pageopacity="0"
     inkscape:pageshadow="2"
     inkscape:window-width="640"
     inkscape:window-height="480"
     id="namedview9"
     showgrid="false"
     inkscape:zoom="6.4296875"
     inkscape:cx="34.533829"
     inkscape:cy="100"
     inkscape:current-layer="svg7" />
  <defs
     id="defs4">
    <style
       id="style2">
      .cls-1 {
        fill-rule: evenodd;
      }
    </style>
  </defs>
  <path
     id="IconGraphic"
     class="cls-1"
     d="m 119.95858,200.00083 h -6.779 c 0,0 0.907,-71.538 -0.128,-75.022 -1.7,-6.089 -4.375,-9.348 -7.313,-10.613 -0.16,0.271 -0.323,0.543 -0.5,0.813 -3.382,5.185 -8.413004,7.894 -11.236004,6.049 l -1.378,-0.9 a 17.226,17.226 0 0 0 -0.989,1.794 c -1.036,3.484 -2.442,7.333 -4.28,7.5 -1.823,0.2 -5.627,-4.221 -1.964,-10.6 a 15.813,15.813 0 0 1 1.228,-2.616 l -15.09,-9.865 -13.025,21.948 a 10.425,10.425 0 0 1 -5.884,4.641 v 55.571 a 11.2025,11.2025 0 1 1 -22.405,0 v -64.838 l -4.074,-2.422 v 67.26 a 11.203,11.203 0 1 1 -22.406,0 v -80.758 a 10.486,10.486 0 0 1 -2.27,-13.371003 l 31.119,-52.439 a 10.471,10.471 0 0 1 14.357,-3.66 l 39.026,23.206 a 10.492,10.492 0 0 1 3.657,14.37 l -6.642,11.192 23.267004,15.207003 c 1.4,0.912 1.987,2.768 1.823,5.037 4.71,1.717 8.917,6.129 11.219,14.391 a 15.833,15.833 0 0 1 0.571,3.6 c 0.176,3.925 0.096,74.525 0.096,74.525 z M 80.069576,48.274827 a 24.138,24.138 0 1 1 23.900004,-24.137 24.021,24.021 0 0 1 -23.900004,24.137 z"
     style="fill:#ffffff;fill-rule:evenodd"
     inkscape:connector-curvature="0" />
</svg>
