<svg id="Capa_1" enable-background="new 0 0 512.151 512.151" height="512" viewBox="0 0 512.151 512.151" width="512" xmlns="http://www.w3.org/2000/svg"><g><path d="m246.422 297.136c3.12 2.637 6.343 5.361 9.653 8.174 3.311-2.813 6.533-5.522 9.639-8.159 22.637-19.092 49.79-40.459 49.79-60.674 0-12.627-7.632-25.4-22.222-25.4-16.348 0-22.529 20.479-22.778 21.357-1.875 6.401-7.749 10.84-14.414 10.84-.029 0-.073 0-.103 0-6.709-.044-12.583-4.482-14.37-10.942-.22-.776-6.401-21.255-22.749-21.255-14.59 0-22.222 12.773-22.222 25.4.001 17.871 16.158 32.299 49.776 60.659z"/><path d="m256.076 121.076c-74.399 0-135 60.599-135 135 0 74.399 60.601 135 135 135s135-60.601 135-135c0-74.401-60.601-135-135-135zm29.099 198.9c-5.999 5.099-12.599 10.499-19.199 16.5-3.001 2.401-6.301 3.6-9.901 3.6s-6.899-1.199-9.901-3.6c-6.599-6-13.2-11.4-19.199-16.5-35.101-29.401-60.3-51-60.3-83.401 0-31.199 22.8-55.499 52.2-55.499 16.5 0 28.799 7.5 37.2 17.1 8.401-9.6 20.7-17.1 37.2-17.1 29.399 0 52.2 24.3 52.2 55.499 0 34.801-30.899 58.501-60.3 83.401z"/><path d="m485.675 421.076c-6.599-8.401-4.2-11.4 7.2-23.401 8.701-9.3 19.2-20.4 19.2-36.599 0-16.201-10.499-27.601-19.2-36.601-5.4-5.7-10.8-11.699-10.8-15.899 0-4.501 5.4-10.201 10.8-15.901 8.701-9.3 19.2-20.4 19.2-36.599 0-16.201-10.499-27.601-19.2-36.601-5.4-5.7-10.8-11.699-10.8-15.899 0-4.501 5.4-10.201 10.8-15.901 8.701-9.3 19.2-20.4 19.2-36.599 0-16.201-10.499-27.601-19.2-36.601-10.199-11.1-13.799-14.7-8.099-22.5l14.099-14.099c17.701-17.401 17.701-47.201 0-64.6-17.401-17.701-47.199-17.701-64.6 0l-13.2 13.2c-8.401 6.599-11.4 3.9-23.401-7.2-9-8.701-20.4-19.2-36.599-19.2s-27.599 10.499-36.599 19.2c-5.7 5.099-11.7 10.8-15.901 10.8s-10.201-5.7-15.901-10.8c-9-8.701-20.4-19.2-36.599-19.2s-27.599 10.499-36.599 19.2c-5.7 5.099-11.7 10.8-15.901 10.8s-10.201-5.7-15.901-10.8c-9-8.701-20.4-19.2-36.599-19.2s-27.599 10.499-36.599 19.2c-9.302 8.699-14.101 14.099-22.202 8.399l-14.399-14.399c-17.401-17.701-47.199-17.701-64.6 0-17.701 17.399-17.701 47.199 0 64.6l13.2 13.2c6.301 8.399 3.9 11.4-7.5 23.399-8.401 9-18.9 20.4-18.9 36.601 0 16.199 10.499 27.299 18.9 36.599 5.4 5.7 11.1 11.4 11.1 15.901 0 4.2-5.7 10.199-11.1 15.899-8.401 9-18.9 20.4-18.9 36.601 0 16.199 10.499 27.299 18.9 36.599 5.4 5.7 11.1 11.4 11.1 15.901 0 4.2-5.7 10.199-11.1 15.899-8.401 9-18.9 20.4-18.9 36.601 0 16.199 10.499 27.299 18.9 36.599 9 9.3 14.099 14.101 8.699 22.2l-14.399 14.401c-17.701 17.399-17.701 47.199 0 64.6 17.401 17.699 47.199 17.699 64.6 0l12.9-13.2c8.701-6.601 11.7-3.9 23.701 7.5 9 8.399 20.4 18.9 36.599 18.9s27.599-10.501 36.599-18.9c5.7-5.4 11.7-11.1 15.901-11.1s10.201 5.7 15.901 11.1c9 8.399 20.4 18.9 36.599 18.9s27.599-10.501 36.599-18.9c5.7-5.4 11.7-11.1 15.901-11.1s10.201 5.7 15.901 11.1c9 8.399 20.4 18.9 36.599 18.9s27.599-10.501 36.599-18.9c9.302-9 14.101-14.399 21.901-8.701l14.7 14.401c17.401 17.699 47.199 17.699 64.6 0 17.701-17.401 17.701-47.201 0-64.6zm-229.599 0c-90.901 0-165-74.101-165-165 0-90.901 74.099-165 165-165s165 74.099 165 165c0 90.899-74.1 165-165 165z"/></g></svg>