<svg id="Layer_3" enable-background="new 0 0 64 64" height="512" viewBox="0 0 64 64" width="512" xmlns="http://www.w3.org/2000/svg"><path d="m20 53c-2.757 0-5 2.243-5 5v3h10v-3c0-2.757-2.243-5-5-5z"/><circle cx="20" cy="48" r="3"/><circle cx="32" cy="48" r="3"/><path d="m32 53c-2.757 0-5 2.243-5 5v3h10v-3c0-2.757-2.243-5-5-5z"/><path d="m56 53c-2.757 0-5 2.243-5 5v3h10v-3c0-2.757-2.243-5-5-5z"/><circle cx="56" cy="48" r="3"/><path d="m44 53c-2.757 0-5 2.243-5 5v3h10v-3c0-2.757-2.243-5-5-5z"/><circle cx="44" cy="48" r="3"/><circle cx="8" cy="48" r="3"/><path d="m8 53c-2.757 0-5 2.243-5 5v3h10v-3c0-2.757-2.243-5-5-5z"/><path d="m26.414 21-.414.414v1.172l2.707 2.707-1.414 1.414-3-3c-.164-.164-.266-.379-.288-.607 0-.001 0-.001 0-.001l-1-9.999c-.005-.652-.453-1.1-1.005-1.1s-1 .448-1 1v12.586l3.707 3.707c.188.187.293.441.293.707v2h6v-7.586l-3.414-3.414z"/><circle cx="32" cy="13" r="1.805"/><path d="m32 3c-9.925 0-18 8.075-18 18s8.075 18 18 18 18-8.075 18-18-8.075-18-18-18zm-4.316 9.052c1.581-.527 2.841-1.787 3.368-3.368.135-.409.517-.684.948-.684s.812.275.948.684c.527 1.581 1.787 2.841 3.368 3.368.409.136.684.517.684.948s-.275.812-.684.948c-1.581.527-2.841 1.787-3.368 3.368-.136.409-.517.684-.948.684s-.813-.275-.948-.684c-.527-1.581-1.787-2.841-3.368-3.368-.409-.136-.684-.517-.684-.948s.275-.812.684-.948zm-3.684 21.948c-.553 0-1-.447-1-1v-2.586l-3.707-3.707c-.188-.187-.293-.441-.293-.707v-13c0-1.654 1.346-3 3-3s3 1.346 3 3l.611 6.079c.121-.052.254-.079.389-.079h2c.266 0 .52.105.707.293l3.293 3.293 3.293-3.293c.187-.188.441-.293.707-.293h2c.134 0 .266.027.388.078l.617-6.178c-.005-1.554 1.341-2.9 2.995-2.9s3 1.346 3 3v13c0 .266-.105.52-.293.707l-3.707 3.707v2.586c0 .553-.447 1-1 1z"/><path d="m42 12c-.552 0-1 .448-1 1l-1.005 10.099v.001c-.022.229-.124.443-.288.607l-3 3-1.414-1.414 2.707-2.707v-1.172l-.414-.414h-1.172l-3.414 3.414v7.586h6v-2c0-.266.105-.52.293-.707l3.707-3.707v-12.586c0-.552-.448-1-1-1z"/></svg>