<svg id="Capa_1" enable-background="new 0 0 511.999 511.999" height="512" viewBox="0 0 511.999 511.999" width="512" xmlns="http://www.w3.org/2000/svg"><g><path d="m75.003 90.001h-60.003c-8.284 0-15 6.716-15 15v361.996c0 8.284 6.716 15 15 15l75.003-.003v-376.993c0-8.284-6.715-15-15-15z"/><path d="m335.014 391.994h165.602c-3.621-12.752-7.797-25.289-12.059-38.075-19.298-57.898-41.17-123.521-21.742-246.579.684-4.334-.563-8.749-3.413-12.084s-7.017-5.255-11.403-5.255h-199.997c-4.387 0-8.554 1.92-11.404 5.255s-4.097 7.75-3.413 12.084c17.026 107.842 2.333 171.573-14.548 224.653h97.376c8.284 0 15 6.716 15 15v45.001zm-3.14-135.915c-5.077 0-9.81-2.569-12.577-6.826-2.768-4.258-3.192-9.626-1.13-14.266l20.002-45.003c3.364-7.569 12.229-10.981 19.799-7.615 7.57 3.365 10.979 12.229 7.615 19.799l-10.627 23.911h17.171c5.092 0 9.836 2.583 12.599 6.86 2.764 4.276 3.169 9.663 1.076 14.305l-20.251 44.921c-2.503 5.551-7.966 8.839-13.684 8.839-2.061 0-4.155-.427-6.156-1.329-7.552-3.405-10.914-12.287-7.51-19.839l10.71-23.756h-17.037z"/><path d="m507.765 421.994h-172.751v60.001h161.985c8.284 0 15-6.716 15-15 0-16.019-1.6-30.834-4.234-45.001z"/><path d="m75.002 45.001c0-8.284-6.716-15-15-15h-29.999c-8.284 0-15 6.716-15 15v15h59.999z"/><path d="m187.51 436.995h50v45h-50z"/><path d="m120.005 481.995h37.505v-60c0-8.284 6.716-15 15-15h80c8.284 0 15 6.716 15 15v60h37.504v-120.001h-185.009z"/></g></svg>