<?xml version="1.0" encoding="UTF-8" standalone="no"?>
<svg
   xmlns:dc="http://purl.org/dc/elements/1.1/"
   xmlns:cc="http://creativecommons.org/ns#"
   xmlns:rdf="http://www.w3.org/1999/02/22-rdf-syntax-ns#"
   xmlns:svg="http://www.w3.org/2000/svg"
   xmlns="http://www.w3.org/2000/svg"
   width="42.925999mm"
   height="40.301311mm"
   viewBox="0 0 42.925999 40.301311"
   version="1.1"
   id="svg8">
  <defs
     id="defs2" />
  <metadata
     id="metadata5">
    <rdf:RDF>
      <cc:Work
         rdf:about="">
        <dc:format>image/svg+xml</dc:format>
        <dc:type
           rdf:resource="http://purl.org/dc/dcmitype/StillImage" />
        <dc:title></dc:title>
      </cc:Work>
    </rdf:RDF>
  </metadata>
  <g
     id="layer1"
     transform="translate(-104.23072,-113.15098)">
    <g
       id="g847">
      <path
         style="fill:#fefefe;stroke-width:0.0846667"
         d="m 120.86772,153.28295 c -0.16727,-0.16727 -0.16934,-0.28222 -0.16934,-9.44033 v -9.271 h 4.40267 4.40267 v 9.271 c 0,9.15811 -0.002,9.27306 -0.16934,9.44033 -0.16463,0.16463 -0.28222,0.16934 -4.23333,0.16934 -3.95111,0 -4.0687,-0.005 -4.23333,-0.16934 z m -15.2552,-9.09277 c -0.53759,-0.14476 -0.94389,-0.47426 -1.18263,-0.95909 -0.18883,-0.38347 -0.19917,-0.49168 -0.19917,-2.08404 0,-1.66296 0.002,-1.68118 0.19988,-1.8415 0.1929,-0.15628 0.42381,-0.16193 6.61578,-0.16193 6.19197,0 6.42289,0.006 6.61579,0.16193 0.1979,0.16032 0.19988,0.17854 0.19988,1.8415 0,1.5984 -0.01,1.69938 -0.20174,2.08935 -0.24584,0.49937 -0.71776,0.85875 -1.28838,0.98112 -0.63988,0.13723 -10.2388,0.11284 -10.75941,-0.0273 z m 29.43686,0.0389 c -0.72328,-0.17608 -1.33196,-0.78134 -1.48538,-1.47703 -0.0575,-0.26088 -0.0842,-1.00119 -0.0671,-1.8593 0.0276,-1.3799 0.0349,-1.43104 0.22836,-1.5875 0.19279,-0.15593 0.42751,-0.16167 6.61579,-0.16167 6.19197,0 6.42288,0.006 6.61579,0.16193 0.1979,0.16032 0.19988,0.17854 0.19988,1.8415 0,1.58164 -0.0114,1.70262 -0.19477,2.07494 -0.10711,0.21745 -0.33343,0.50113 -0.50291,0.63041 -0.58396,0.4454 -0.73838,0.45662 -6.15761,0.44722 -2.74892,-0.005 -5.11235,-0.0365 -5.25205,-0.0705 z m -29.40436,-6.62209 c 0.0652,-0.90094 -0.36784,-0.83408 5.40136,-0.83408 5.76921,0 5.3362,-0.0669 5.40137,0.83408 l 0.0376,0.52059 h -5.43902 -5.43901 z m 29.29467,0 c 0.0652,-0.90096 -0.3681,-0.83408 5.40321,-0.83408 h 4.97843 l 0.21919,0.2605 c 0.17086,0.20305 0.2192,0.35242 0.2192,0.67733 v 0.41684 h -5.42885 -5.42884 z m -26.9369,-1.99824 c 0.002,-0.0815 0.43266,-2.52805 0.95608,-5.43679 l 0.95167,-5.28862 0.65416,-0.10115 c 0.35979,-0.0556 0.77344,-0.14272 0.91922,-0.19354 0.14579,-0.0508 0.36416,-0.0923 0.48527,-0.0921 l 0.22019,2.6e-4 0.95734,5.39721 c 0.52654,2.96847 0.95517,5.50342 0.9525,5.63323 l -0.005,0.23604 -0.77725,-0.0243 -0.77725,-0.0243 -0.72283,-3.91583 c -0.39756,-2.15371 -0.74321,-3.91584 -0.76812,-3.91584 -0.0249,0 -0.32524,1.59068 -0.6674,3.53484 -0.34216,1.94416 -0.65955,3.71581 -0.70531,3.937 l -0.0832,0.40216 h -0.79732 c -0.70458,0 -0.7968,-0.0172 -0.79291,-0.14816 z m 29.2872,0.0847 c -0.002,-0.0349 0.44568,-2.58762 0.99414,-5.67266 0.71249,-4.00773 1.02837,-5.60917 1.10639,-5.60917 0.0601,0 0.32708,0.0733 0.59337,0.16291 0.26629,0.0896 0.72281,0.18983 1.01449,0.22273 0.44547,0.0503 0.53686,0.0885 0.57114,0.23926 0.16733,0.73583 1.81953,10.2171 1.81953,10.44152 v 0.28527 l -0.77626,-0.0243 -0.77627,-0.0243 -0.7239,-3.91583 c -0.39814,-2.15371 -0.74422,-3.91584 -0.76907,-3.91584 -0.0248,0 -0.32537,1.59068 -0.66785,3.53484 -0.34247,1.94416 -0.65988,3.71581 -0.70535,3.937 l -0.0827,0.40216 h -0.79731 c -0.43853,0 -0.79869,-0.0286 -0.80038,-0.0635 z m -18.45427,-2.39183 c -0.15182,-0.15182 -0.16934,-0.28222 -0.16934,-1.26062 0,-0.94832 0.0212,-1.11747 0.16186,-1.29117 l 0.16185,-0.19988 h 6.11096 6.11096 l 0.16185,0.19988 c 0.14032,0.17329 0.16186,0.34256 0.16186,1.27233 0,0.83362 -0.0293,1.11435 -0.1318,1.26062 l -0.13181,0.18817 h -6.13353 c -6.02064,0 -6.13665,-0.003 -6.30286,-0.16933 z m 1.60719,-4.04283 c -0.003,-0.55147 -0.26096,-1.42916 -0.53993,-1.84046 -0.87539,-1.29068 -1.14713,-2.45438 -1.2138,-5.19804 l -0.044,-1.81033 0.28577,0.0542 c 0.83929,0.15909 0.97323,0.15606 1.41015,-0.0319 0.24013,-0.1033 0.48057,-0.2408 0.53431,-0.30555 0.14019,-0.16892 0.47806,-0.14508 0.7568,0.0534 0.32013,0.22795 0.88486,0.42155 1.22966,0.42155 0.15473,0 0.53335,-0.1323 0.84805,-0.29633 0.65888,-0.34343 0.7822,-0.35776 1.07786,-0.12519 0.25192,0.19816 0.84257,0.42152 1.11465,0.42152 0.19229,0 0.38394,0.28954 0.38394,0.58004 0,0.0818 -0.1361,0.28004 -0.30246,0.44052 -1.07686,1.03881 -1.65085,2.86556 -1.04257,3.31801 0.38583,0.28699 0.68789,-0.0388 0.77909,-0.84035 0.0879,-0.77278 0.96047,-2.14355 1.36443,-2.14355 0.11104,0 0.40364,0.10467 0.65024,0.23261 0.43217,0.22422 0.50348,0.23369 1.97631,0.26241 1.46367,0.0285 1.53776,0.022 1.7608,-0.15409 0.28552,-0.2255 0.29516,-0.42219 0.0328,-0.6687 -0.18806,-0.17667 -0.29854,-0.19096 -1.8415,-0.2382 -1.32834,-0.0407 -1.69796,-0.0787 -1.93777,-0.19957 -0.58433,-0.29443 -0.86889,-0.76901 -0.97517,-1.6263 l -0.0603,-0.48683 h 3.0918 3.09181 l 0.0981,0.27517 c 0.1828,0.51302 0.21003,1.98603 0.0512,2.76992 -0.25133,1.24033 -0.70191,2.08456 -2.03504,3.81291 -0.84458,1.09497 -1.56898,2.62596 -1.56898,3.31598 v 0.24002 h -4.48733 -4.48734 l -0.001,-0.23283 z m 19.94047,-5.55718 c -0.95224,-0.23157 -1.81777,-0.92395 -2.30004,-1.83991 -0.22845,-0.43389 -0.23996,-0.50948 -0.23996,-1.5761 v -1.12035 l -1.93873,-0.0226 -1.93873,-0.0226 -0.15379,-0.55033 c -0.0846,-0.30268 -0.15514,-0.63606 -0.15677,-0.74083 l -0.003,-0.1905 h 3.08419 3.08419 l 0.17548,0.22308 c 0.26576,0.33786 0.23198,0.78414 -0.0896,1.18344 -0.32496,0.40354 -0.57754,0.93501 -0.57892,1.21814 -0.002,0.3655 0.3805,1.05094 0.78443,1.40649 0.37531,0.33037 0.85642,0.54085 1.23626,0.54085 0.27945,0 0.75723,-0.2247 1.07957,-0.50772 0.24528,-0.21536 0.3595,-0.25428 0.74618,-0.25428 0.39241,0 0.48124,0.0314 0.63206,0.22308 0.248,0.31528 0.23229,0.79708 -0.0364,1.1164 -0.69836,0.82996 -2.13603,1.21792 -3.38645,0.91384 z m -31.00027,-0.0553 c -0.477,-0.0944 -1.13183,-0.43723 -1.50197,-0.7863 -0.27169,-0.25625 -0.30609,-0.33585 -0.30609,-0.70843 0,-0.55878 0.22747,-0.78793 0.78213,-0.78793 0.29284,0 0.45307,0.0529 0.64211,0.21196 0.32255,0.2714 0.92645,0.54579 1.20651,0.54818 0.75035,0.006 1.58468,-0.63152 1.82562,-1.39588 0.12332,-0.39123 0.12723,-0.5021 0.0299,-0.84962 -0.062,-0.22153 -0.25655,-0.56679 -0.43643,-0.77464 -0.27122,-0.31336 -0.32454,-0.43671 -0.32454,-0.75082 0,-0.26296 0.0509,-0.42671 0.16934,-0.54518 0.16297,-0.16297 0.28222,-0.16933 3.175,-0.16933 h 3.00566 v 0.71966 0.71967 h -2.04105 c -1.91083,0 -2.03714,0.009 -1.97961,0.14817 0.11504,0.27741 0.14666,1.3449 0.0528,1.78258 -0.41166,1.91949 -2.24521,3.04447 -4.29941,2.63791 z m 9.5812,-4.33847 -0.29793,-0.29792 v -2.04698 -2.04698 l 0.24749,-0.24749 c 0.22161,-0.22161 0.30374,-0.24749 0.7855,-0.24749 1.04489,0 1.10051,0.14042 1.06704,2.6937 l -0.0257,1.95946 -0.22909,0.22891 c -0.18548,0.18535 -0.32619,0.23594 -0.73924,0.26582 -0.49132,0.0355 -0.52115,0.0259 -0.80808,-0.26103 z m 3.36444,0.1907 c -0.10448,-0.042 -0.26626,-0.20151 -0.35951,-0.35446 -0.15944,-0.2615 -0.16958,-0.42636 -0.16987,-2.76297 -2.6e-4,-2.06823 0.0217,-2.53118 0.13076,-2.7611 0.16434,-0.34631 0.42889,-0.46903 1.01118,-0.46903 0.3609,0 0.50691,0.0429 0.69452,0.20424 l 0.23755,0.20424 0.0247,2.64837 c 0.0165,1.76478 -0.006,2.72229 -0.0671,2.86996 -0.17879,0.43164 -0.94286,0.64565 -1.50224,0.42075 z m 2.86534,-0.21781 c -0.25652,-0.32611 -0.27593,-0.55415 -0.24674,-2.89876 l 0.0267,-2.14448 0.2765,-0.24692 c 0.241,-0.21521 0.34241,-0.24692 0.78968,-0.24692 0.45431,0 0.54157,0.0284 0.76067,0.24749 l 0.24748,0.24748 v 1.86918 1.86918 h -0.19914 c -0.48317,0 -1.07086,0.68465 -1.07086,1.24752 0,0.23627 -0.0299,0.27648 -0.20552,0.27648 -0.12051,0 -0.27718,-0.0911 -0.37877,-0.22025 z m 2.87029,-2.87659 v -1.48818 l 0.24749,-0.24749 c 0.2219,-0.2219 0.30343,-0.24749 0.78849,-0.24749 0.49302,0 0.56307,0.023 0.78968,0.25933 l 0.24868,0.25934 0.0266,1.47633 0.0266,1.47634 h -1.0638 -1.06379 z"
         id="path861" />
    </g>
  </g>
</svg>
