<?xml version="1.0" encoding="UTF-8" standalone="no"?>
<svg
   xmlns:dc="http://purl.org/dc/elements/1.1/"
   xmlns:cc="http://creativecommons.org/ns#"
   xmlns:rdf="http://www.w3.org/1999/02/22-rdf-syntax-ns#"
   xmlns:svg="http://www.w3.org/2000/svg"
   xmlns="http://www.w3.org/2000/svg"
   width="41.755482mm"
   height="46.774261mm"
   viewBox="0 0 41.755482 46.774261"
   version="1.1"
   id="svg8">
  <defs
     id="defs2">
    <style
       id="style2">
      .cls-1 {
        fill-rule: evenodd;
      }
    </style>
  </defs>
  <metadata
     id="metadata5">
    <rdf:RDF>
      <cc:Work
         rdf:about="">
        <dc:format>image/svg+xml</dc:format>
        <dc:type
           rdf:resource="http://purl.org/dc/dcmitype/StillImage" />
        <dc:title></dc:title>
      </cc:Work>
    </rdf:RDF>
  </metadata>
  <g
     id="layer1"
     transform="translate(-53.413758,-132.02129)">
    <path
       id="IconGraphic"
       class="cls-1"
       d="m 64.477574,142.01847 h 19.627847 c 0,0 -0.0265,0.38153 -0.0595,1.05833 H 64.559859 c -0.04657,-0.67707 -0.08229,-1.05833 -0.08229,-1.05833 z m 0.17436,2.64583 h 19.332307 c -0.12276,4.02908 -0.12356,12.00177 1.32292,19.23204 1.58062,7.89516 9.86208,14.89921 9.86208,14.89921 H 53.413758 c 0,0 8.523816,-7.14004 10.122428,-15.12808 1.4351,-7.16941 1.311804,-15.01669 1.115748,-19.00317 z m 9.615227,27.25209 c 5.29351,0 8.73201,-4.4908 8.46933,-9.0127 -0.11165,-1.92204 -0.892,-3.8497 -2.4828,-5.4405 -5.33343,-5.33343 -14.453198,-1.55699 -14.453201,5.98653 -2e-6,4.67601 3.790661,8.46667 8.466671,8.46667 z m 0,-14.94896 c 5.77551,0 8.66684,6.98233 4.58343,11.06573 -4.0834,4.08341 -11.065728,1.19207 -11.065726,-4.58344 10e-7,-3.58007 2.902226,-6.48229 6.482296,-6.48229 z m 0,5.49143 c -0.75566,0.002 -1.13195,0.91625 -0.59693,1.44977 0.53502,0.53352 1.44809,0.15467 1.44809,-0.60099 0.006,-0.47205 -0.37913,-0.85581 -0.85116,-0.84878 z m 5.14138,0.7956 c 0.0847,-0.89224 -0.0942,-1.78972 -0.51461,-2.58128 -0.42371,-0.78273 -1.06347,-1.42717 -1.84309,-1.85658 l -1.89733,3.02366 c 0.23603,0.11828 0.43304,0.30198 0.56753,0.52917 0.1243,0.27829 0.19073,0.57895 0.19526,0.8837 h 3.4925 z m -5.21229,5.35755 c 0.89437,-0.009 1.76763,-0.2729 2.51751,-0.76042 l -1.64862,-3.07631 c -0.26815,0.14482 -0.56468,0.22934 -0.86889,0.24765 -0.25911,-0.0204 -0.50895,-0.10552 -0.72655,-0.24765 l -1.7907,3.07631 c 0.74983,0.48742 1.62297,0.75118 2.51725,0.76042 z m -5.06995,-5.35755 h 3.4925 c 0.004,-0.30475 0.0704,-0.60546 0.19474,-0.88371 0.13457,-0.22712 0.33156,-0.4108 0.56753,-0.52917 l -1.8968,-3.02366 c -0.77996,0.42923 -1.42002,1.0737 -1.84388,1.85659 -0.42012,0.79115 -0.59887,1.68819 -0.51409,2.57995 z"
       style="fill:#ffffff;fill-rule:evenodd;stroke-width:0.264583" />
    <path
       style="fill:#fefefe;stroke-width:0.0550745"
       d="m 64.477574,139.91733 c 0,-0.59936 0.01972,-0.77949 0.09106,-0.83276 0.06889,-0.0514 0.27864,-0.068 0.860494,-0.068 h 0.769439 v -2.66486 -2.66486 h -0.769443 c -0.581854,0 -0.791632,-0.0166 -0.860494,-0.068 -0.07137,-0.0533 -0.09106,-0.2334 -0.09106,-0.83277 v -0.76479 h 3.319047 c 2.79153,0 3.33353,0.0108 3.41011,0.068 0.0714,0.0533 0.0911,0.2334 0.0911,0.83277 v 0.76478 h -0.9561 -0.95611 v 2.66486 2.66486 h 0.95611 0.9561 v 0.76479 c 0,0.59937 -0.0197,0.77949 -0.0911,0.83277 -0.0766,0.0572 -0.61858,0.068 -3.41011,0.068 h -3.319043 z m 12.005983,0.70229 c -0.10935,-0.0407 -0.54506,-0.88812 -2.18707,-4.25362 -1.81701,-3.72421 -2.0397,-4.21087 -1.9555,-4.27374 0.0788,-0.0588 0.3511,-0.0709 1.59747,-0.0709 0.95914,0 1.50246,0.0172 1.50246,0.0476 0,0.0262 0.04,0.0476 0.0888,0.0476 0.0489,0 0.10468,0.0309 0.12411,0.0688 0.0194,0.0378 0.58551,1.26375 1.25796,2.72435 0.67246,1.46059 1.25002,2.70916 1.28347,2.77458 0.0519,0.10151 0.19083,-0.16387 0.94665,-1.80829 1.68187,-3.65924 1.73037,-3.75936 1.82081,-3.75936 0.048,0 0.0874,-0.0214 0.0874,-0.0476 0,-0.0304 0.54406,-0.0476 1.50472,-0.0476 1.40804,0 1.50177,0.006 1.45884,0.0833 -0.0252,0.0458 -0.065,0.21304 -0.0886,0.37165 -0.0301,0.20366 -0.60182,1.43458 -1.94582,4.18964 -1.69341,3.47136 -1.9211,3.9076 -2.06627,3.95874 -0.21139,0.0745 -3.22768,0.07 -3.42943,-0.005 z"
       id="path1482" />
  </g>
</svg>
