<?xml version="1.0" encoding="UTF-8" standalone="no"?>
<svg
   xmlns:dc="http://purl.org/dc/elements/1.1/"
   xmlns:cc="http://creativecommons.org/ns#"
   xmlns:rdf="http://www.w3.org/1999/02/22-rdf-syntax-ns#"
   xmlns:svg="http://www.w3.org/2000/svg"
   xmlns="http://www.w3.org/2000/svg"
   width="33.178772mm"
   height="47.064514mm"
   viewBox="0 0 33.178772 47.064514"
   version="1.1"
   id="svg158">
  <defs
     id="defs152" />
  <metadata
     id="metadata155">
    <rdf:RDF>
      <cc:Work
         rdf:about="">
        <dc:format>image/svg+xml</dc:format>
        <dc:type
           rdf:resource="http://purl.org/dc/dcmitype/StillImage" />
        <dc:title></dc:title>
      </cc:Work>
    </rdf:RDF>
  </metadata>
  <g
     id="layer1"
     transform="translate(-79.416566,-94.396315)">
    <g
       id="layer1-8"
       transform="translate(-27.487252,-49.235519)">
      <g
         id="g97"
         transform="matrix(0.17513578,0,0,0.33405417,86.780743,110.57922)">
        <path
           style="fill:#fefefe;stroke-width:0.0846667"
           d="m 147.91028,165.33832 c -0.0288,-0.0466 -0.13584,-0.0847 -0.23791,-0.0847 -0.26418,0 -32.65508,-32.39108 -32.65508,-32.65525 0,-0.10198 -0.0384,-0.20915 -0.0853,-0.23815 -0.0533,-0.033 -0.0397,-0.0983 0.0363,-0.17433 0.10421,-0.10421 1.4483,-0.1216 9.39864,-0.1216 h 9.27705 v -16.43138 c 0,-14.12765 0.0169,-16.448347 0.12095,-16.552347 0.18225,-0.18225 28.36251,-0.18225 28.54476,0 0.10399,0.104 0.12095,2.424697 0.12095,16.552347 v 16.43138 h 9.23472 c 8.26441,0 9.24863,0.0139 9.36715,0.13244 0.0988,0.0988 0.10805,0.15684 0.0363,0.2286 -0.0529,0.0529 -0.0962,0.1743 -0.0962,0.26981 0,0.25327 -32.31722,32.55848 -32.57058,32.55848 -0.10198,0 -0.20897,0.0381 -0.23775,0.0847 -0.0288,0.0466 -0.0859,0.0847 -0.127,0.0847 -0.0411,0 -0.0982,-0.0381 -0.127,-0.0847 z"
           id="path109" />
      </g>
      <path
         style="fill:#fefefe;stroke-width:0.090517"
         d="m 121.97939,190.41351 c 0,-0.29006 1.08874,-13.64927 1.19065,-14.60954 l 0.0478,-0.4501 h -6.39779 -6.39779 l 0.0242,-0.2697 c 0.0172,-0.19224 3.08283,-4.62916 10.67297,-15.44702 5.85688,-8.34753 10.75812,-15.34903 10.89166,-15.55888 0.28352,-0.44555 0.61828,-0.53062 0.61581,-0.15649 -9.2e-4,0.12377 -1.34175,4.79358 -2.97986,10.37733 l -2.97838,10.1523 6.70696,0.0255 6.70697,0.0255 -0.002,0.22446 c -0.003,0.34095 -17.64307,25.91982 -17.90472,25.96192 -0.17056,0.0274 -0.19669,-0.01 -0.19669,-0.27545 z"
         id="path484" />
    </g>
  </g>
</svg>
