<?xml version="1.0" encoding="UTF-8" standalone="no"?>
<svg
   xmlns:dc="http://purl.org/dc/elements/1.1/"
   xmlns:cc="http://creativecommons.org/ns#"
   xmlns:rdf="http://www.w3.org/1999/02/22-rdf-syntax-ns#"
   xmlns:svg="http://www.w3.org/2000/svg"
   xmlns="http://www.w3.org/2000/svg"
   width="77.841545mm"
   height="59.266659mm"
   viewBox="0 0 77.841545 59.266659"
   version="1.1"
   id="svg8">
  <defs
     id="defs2">
    <style
       id="style2">
      .cls-1 {
        fill-rule: evenodd;
      }
    </style>
    <style
       id="style2-3">
      .cls-1 {
        fill-rule: evenodd;
      }
    </style>
  </defs>
  <metadata
     id="metadata5">
    <rdf:RDF>
      <cc:Work
         rdf:about="">
        <dc:format>image/svg+xml</dc:format>
        <dc:type
           rdf:resource="http://purl.org/dc/dcmitype/StillImage" />
        <dc:title></dc:title>
      </cc:Work>
    </rdf:RDF>
  </metadata>
  <g
     id="layer1"
     transform="translate(-75.219145,-115.04085)">
    <path
       id="IconGraphic"
       class="cls-1"
       d="m 150.15028,174.30751 v -6.61458 h -4.23334 v 6.61458 H 132.42319 V 119.0096 h 13.49375 v -3.96875 h 4.23334 v 3.96875 h 2.91041 v 55.29791 z m -10.58334,-51.06458 h -4.23333 v 4.23333 h 4.23333 z m 0,5.29167 h -4.23333 v 4.23333 h 4.23333 z m 0,5.29166 h -4.23333 v 4.23334 h 4.23333 z m 0,5.29167 h -4.23333 v 4.23333 h 4.23333 z m 0,5.29167 h -4.23333 v 4.23333 h 4.23333 z m 0,5.29166 h -4.23333 v 4.23334 h 4.23333 z m 0,5.29167 h -4.23333 v 4.23333 h 4.23333 z m 0,5.29167 h -4.23333 v 4.23333 h 4.23333 z m 5.29167,-37.04167 h -4.23333 v 4.23333 h 4.23333 z m 0,5.29167 h -4.23333 v 4.23333 h 4.23333 z m 0,5.29166 h -4.23333 v 4.23334 h 4.23333 z m 0,5.29167 h -4.23333 v 4.23333 h 4.23333 z m 0,5.29167 h -4.23333 v 4.23333 h 4.23333 z m 0,5.29166 h -4.23333 v 4.23334 h 4.23333 z m 0,5.29167 h -4.23333 v 4.23333 h 4.23333 z m 0,5.29167 h -4.23333 v 4.23333 h 4.23333 z m 5.29167,-37.04167 h -4.23334 v 4.23333 h 4.23334 z m 0,5.29167 h -4.23334 v 4.23333 h 4.23334 z m 0,5.29166 h -4.23334 v 4.23334 h 4.23334 z m 0,5.29167 h -4.23334 v 4.23333 h 4.23334 z m 0,5.29167 h -4.23334 v 4.23333 h 4.23334 z m 0,5.29166 h -4.23334 v 4.23334 h 4.23334 z m 0,5.29167 h -4.23334 v 4.23333 h 4.23334 z m 0,5.29167 h -4.23334 v 4.23333 h 4.23334 z"
       style="fill:#ffffff;fill-rule:evenodd;stroke-width:0.264583" />
    <path
       id="IconGraphic-2"
       class="cls-1"
       d="m 97.628441,138.54996 h 8.136579 c 1.14732,1e-5 2.07741,0.9301 2.07741,2.07742 0,0 0,5.24668 0,7.87002 -10.213989,-9.94744 0,0 -10.213989,-9.94744 z m 4.068289,-1.03872 c -3.624704,-10e-6 -5.439295,-4.38212 -2.876547,-6.94485 2.562747,-2.56274 6.944847,-0.74812 6.944837,2.87658 -1e-5,2.24685 -1.82144,4.06827 -4.06829,4.06827 z"
       style="fill:#ffffff;fill-rule:evenodd;stroke-width:0.173118" />
    <path
       style="fill:#fefefe;stroke-width:0.109877"
       d="m 98.772842,173.36306 c -0.332391,-0.0493 -0.999884,-0.0947 -1.483339,-0.10067 -1.058249,-0.0132 -2.102784,-0.21984 -3.790736,-0.74992 -3.571445,-1.12154 -6.463332,-2.73802 -9.521269,-5.32202 -1.402496,-1.18512 -2.377407,-2.27685 -4.301183,-4.81662 -0.356377,-0.47047 -1.511249,-2.43285 -1.939896,-3.2963 -0.932877,-1.87912 -1.880342,-4.62616 -2.198006,-6.37283 -0.298457,-1.64097 -0.408429,-5.58524 -0.240486,-8.62529 0.109141,-1.97663 0.296472,-3.08899 0.799377,-4.74792 2.600308,-8.57763 9.175676,-15.16974 17.665672,-17.71064 2.260106,-0.67641 3.714648,-0.83253 7.756764,-0.83253 4.04863,0 5.49574,0.15581 7.76974,0.83648 3.75675,1.12451 6.93091,2.9014 10.04271,5.62195 2.17886,1.90489 4.57544,5.06681 5.97087,7.87771 0.93289,1.87913 1.88036,4.62617 2.19801,6.37285 0.42958,2.36187 0.42224,8.84063 -0.013,11.19208 -0.90506,4.89361 -3.92599,10.34589 -7.65026,13.80747 -3.03409,2.82006 -6.69385,4.92809 -10.56166,6.08348 -0.79137,0.23641 -1.61192,0.46478 -1.82344,0.5075 -1.20027,0.24245 -7.545812,0.44364 -8.680229,0.27522 z m 4.340118,-5.61014 c 2.69964,-0.25588 5.27613,-0.99151 7.5546,-2.15698 1.16412,-0.59545 2.76298,-1.60008 3.42874,-2.15441 l 0.32532,-0.27086 -11.86234,-11.79301 C 83.576856,132.50625 85.398694,134.2747 85.197452,134.52459 c -0.568066,0.70537 -1.791147,2.68786 -2.268111,3.67639 -3.4208,7.0899 -2.520185,15.28761 2.376875,21.63535 0.636756,0.82537 2.537122,2.72883 3.4578,3.46343 2.465109,1.96687 5.605375,3.44708 8.638675,4.07199 2.247319,0.46298 3.772699,0.5648 5.710269,0.38117 z m 14.74484,-8.09853 c 0.0856,-0.10576 0.50162,-0.70798 0.92467,-1.33826 1.42852,-2.12821 2.46184,-4.65248 3.02522,-7.39009 0.2734,-1.32855 0.30099,-1.67934 0.30099,-3.82504 0,-2.1457 -0.0277,-2.49649 -0.30099,-3.82505 -1.10916,-5.38978 -4.06144,-9.91455 -8.57927,-13.14881 -1.17156,-0.83871 -3.87827,-2.2126 -5.2809,-2.68051 -2.44804,-0.81664 -5.52439,-1.20923 -7.85617,-1.00251 -4.000244,0.35461 -7.619885,1.70338 -10.700895,3.98744 l -0.758538,0.56232 14.492373,14.42122 c 7.97079,7.93167 14.51163,14.42355 14.53519,14.42641 0.0234,0.002 0.11277,-0.0814 0.19832,-0.18712 z"
       id="path233" />
    <path
       id="IconGraphic-2-9"
       class="cls-1"
       d="m 105.76502,155.55087 v 9.48619 c -0.004,2.5353 -3.80483,2.5353 -3.8086,0 v -11.42581 h -0.69249 v 11.42581 c -0.004,2.53495 -3.804491,2.53495 -3.808599,0 v -11.43464 c -1.076075,-0.0895 -1.903964,-0.9888 -1.904301,-2.06859 v -5.97216 c 10.21399,9.9892 0,0 10.21399,9.9892 z"
       style="fill:#ffffff;fill-rule:evenodd;stroke-width:0.173118" />
  </g>
</svg>
