<svg height="512" viewBox="0 0 60 60" width="512" xmlns="http://www.w3.org/2000/svg"><g id="Page-1" fill="none" fill-rule="evenodd"><g id="044---Microtransactions" fill="rgb(0,0,0)" fill-rule="nonzero"><path id="Shape" d="m49.293 7.707c.3904999.39038194 1.0235001.39038194 1.414 0l.293-.293.293.293c.3923789.37897221 1.0160848.37355237 1.4018186-.01218142.3857338-.3857338.3911536-1.00943969.0121814-1.40181858l-.293-.293.293-.293c.2599566-.25107447.3642126-.62287789.2726972-.97250732-.0915155-.34962944-.3645604-.6226744-.7141899-.71418984-.3496294-.09151544-.7214328.01274058-.9725073.27269716l-.293.293-.293-.293c-.3923789-.37897221-1.0160848-.37355237-1.4018186.01218142-.3857338.3857338-.3911536 1.00943969-.0121814 1.40181858l.293.293-.293.293c-.3903819.39049985-.3903819 1.02350015 0 1.414z"/><path id="Shape" d="m30.217 4.652c-.192398-.51730238-.7675195-.78091838-1.285-.589l-9.28 3.437c-.2854356.10722824-.5063541.33882453-.6.629l-8.475 26.14-2.9-1.331c-1.00417338-.45794-2.18965477-.0186908-2.653.983l-.835 1.817c-.4608363 1.0037792-.02074427 2.1910875.983 2.652l4.543 2.087-2.244 4.889c-.88396396.3882175-1.59534559 1.0864386-2 1.963-.92259163 2.0072789-.04327888 4.3824083 1.96400002 5.3049999 2.00727891.9225917 4.38240828.043279 5.30499998-1.9639999.4011884-.8795102.4669851-1.8753515.185-2.8l2.247-4.889 4.543 2.087c1.0035087.4609658 2.1907116.0213604 2.652-.982l.833-1.816c.4609658-1.0035087.0213604-2.1907116-.982-2.652l-2.188-1.005 13.559-23.839c.1459417-.2564269.1711942-.5642148.069-.841zm-19.3 45.182c-.4148809.9042765-1.43135969 1.366105-2.38536684 1.0837711-.95400716-.2823339-1.55543225-1.2229734-1.41136189-2.207395.14407036-.9844215.98982485-1.7132659 1.98472873-1.7103761.68147705.0003046 1.3158994.3475875 1.6833899.921488.3674906.5739004.4174676 1.2954262.1326101 1.914512zm.7-3.924c-.515341-.4432775-1.1449937-.7326336-1.817-.835l1.729-3.762 1.817.834zm19.653-32.665-5.707-.145-3.829-4.236 6.956-2.579zm-10.72 30.008-5.45-2.505-3.635-1.67-5.455-2.505.835-1.818 14.539 6.68zm-4.692-6.553 8.259-17.98c.230855-.5017507.0112507-1.0956449-.4905-1.3265-.5017507-.230855-1.095645-.0112507-1.3265.4905l-8.26 17.976-1.633-.75 8.012-24.718 3.948 4.366c.1835798.2030388.4423642.3219495.716.329l5.941.153-12.817 22.535z"/><path id="Shape" d="m7.293 13.707c.39049985.3903819 1.02350015.3903819 1.414 0l1.293-1.293 1.293 1.293c.3923789.3789722 1.0160848.3735524 1.4018186-.0121814s.3911536-1.0094397.0121814-1.4018186l-1.019-1.019.759-.379c.3197527-.1596977.5300187-.4778505.5515928-.8346134.021574-.35676279-.1488214-.69793487-.447-.89499998-.2981787-.1970651-.6788401-.22008435-.9985928-.06038662l-.553.277v-.382c0-.55228475-.4477153-1-1-1-.55228475 0-1 .44771525-1 1v.382l-.553-.277c-.3197527-.15969773-.70041411-.13667848-.99859275.06038663-.29817865.1970651-.46857409.53823718-.44700001.89499997.02157407.3567629.23184005.6749157.55159276.8346134l.759.379-1.019 1.019c-.39038194.3904999-.39038194 1.0235001 0 1.414z"/><path id="Shape" d="m29.688 36.274.759-.379c.3197527-.1596977.5300187-.4778505.5515928-.8346134.021574-.3567628-.1488214-.6979349-.4470001-.895-.2981786-.1970651-.67884-.2200843-.9985927-.0603866l-.553.277v-.382c0-.5522847-.4477153-1-1-1s-1 .4477153-1 1v.382l-.553-.277c-.4942949-.2468713-1.0951287-.0462949-1.342.448s-.0462949 1.0951287.448 1.342l.759.379-1.019 1.019c-.2599566.2510745-.3642126.6228779-.2726972.9725073.0915155.3496295.3645604.6226744.7141899.7141899.3496294.0915154.7214328-.0127406.9725073-.2726972l1.293-1.293 1.293 1.293c.3923789.3789722 1.0160848.3735524 1.4018186-.0121814s.3911536-1.0094397.0121814-1.4018186z"/><circle id="Oval" cx="17" cy="6" r="1"/><circle id="Oval" cx="8" cy="20" r="1"/><circle id="Oval" cx="30" cy="29" r="1"/><circle id="Oval" cx="29" cy="43" r="1"/><path id="Shape" d="m58 36h-1v-33c0-1.65685425-1.3431458-3-3-3h-51c-1.65685425 0-3 1.34314575-3 3v51c0 1.6568542 1.34314575 3 3 3h31v1c0 1.1045695.8954305 2 2 2h22c1.1045695 0 2-.8954305 2-2v-20c0-1.1045695-.8954305-2-2-2zm-24 2v17h-31c-.55228475 0-1-.4477153-1-1v-51c0-.55228475.44771525-1 1-1h51c.5522847 0 1 .44771525 1 1v33h-19c-1.1045695 0-2 .8954305-2 2zm24 20h-22v-20h22z"/><path id="Shape" d="m47 49c1.0212692.0014378 1.8774065.7720901 1.9858725 1.7875841s-.5655856 1.9495875-1.5635114 2.1666976c-.9979259.2171102-1.9991281-.3525128-2.3223611-1.3212817-.1747981-.5246705-.7418295-.8082981-1.2665-.6335-.5246705.1747982-.8082981.7418295-.6335 1.2665.4295694 1.2870038 1.4847458 2.2668105 2.8 2.6v.134c0 .5522847.4477153 1 1 1s1-.4477153 1-1v-.142c1.9482742-.5014457 3.2190002-2.3742805 2.9650329-4.3699561-.2539674-1.9956755-1.953264-3.4905487-3.9650329-3.4880439-1.0212692-.0014378-1.8774065-.7720901-1.9858725-1.7875841s.5655856-1.9495875 1.5635114-2.1666976c.9979259-.2171102 1.9991281.3525128 2.3223611 1.3212817.1130745.3394023.3986287.5926984.749097.6644742.3504684.0717757.7126063-.0488734.9500001-.3165.2373937-.2676266.3139775-.6415719.2009029-.9809742-.4295694-1.2870038-1.4847458-2.2668105-2.8-2.6v-.134c0-.5522847-.4477153-1-1-1s-1 .4477153-1 1v.142c-1.9482742.5014457-3.2190002 2.3742805-2.9650329 4.3699561.2539674 1.9956755 1.953264 3.4905487 3.9650329 3.4880439z"/><path id="Shape" d="m38 21h10c1.6568542 0 3-1.3431458 3-3s-1.3431458-3-3-3h-10c-1.6568542 0-3 1.3431458-3 3s1.3431458 3 3 3zm0-4h10c.5522847 0 1 .4477153 1 1s-.4477153 1-1 1h-10c-.5522847 0-1-.4477153-1-1s.4477153-1 1-1z"/><path id="Shape" d="m36 25h5c.5522847 0 1-.4477153 1-1s-.4477153-1-1-1h-5c-.5522847 0-1 .4477153-1 1s.4477153 1 1 1z"/><path id="Shape" d="m45 23c-.5522847 0-1 .4477153-1 1s.4477153 1 1 1h5c.5522847 0 1-.4477153 1-1s-.4477153-1-1-1z"/><path id="Shape" d="m36 29h14c.5522847 0 1-.4477153 1-1s-.4477153-1-1-1h-14c-.5522847 0-1 .4477153-1 1s.4477153 1 1 1z"/><path id="Shape" d="m44 33c.5522847 0 1-.4477153 1-1s-.4477153-1-1-1h-8c-.5522847 0-1 .4477153-1 1s.4477153 1 1 1z"/><path id="Shape" d="m50 31h-2c-.5522847 0-1 .4477153-1 1s.4477153 1 1 1h2c.5522847 0 1-.4477153 1-1s-.4477153-1-1-1z"/></g></g></svg>