<?xml version="1.0" encoding="UTF-8" standalone="no"?>
<svg
   xmlns:dc="http://purl.org/dc/elements/1.1/"
   xmlns:cc="http://creativecommons.org/ns#"
   xmlns:rdf="http://www.w3.org/1999/02/22-rdf-syntax-ns#"
   xmlns:svg="http://www.w3.org/2000/svg"
   xmlns="http://www.w3.org/2000/svg"
   width="54.239632mm"
   height="44.69738mm"
   viewBox="0 0 54.239632 44.69738"
   version="1.1"
   id="svg8">
  <defs
     id="defs2">
    <style
       id="style2">
      .cls-1 {
        fill-rule: evenodd;
      }
    </style>
    <style
       id="style2-8">
      .cls-1 {
        fill-rule: evenodd;
      }
    </style>
    <style
       id="style2-0">
      .cls-1 {
        fill-rule: evenodd;
      }
    </style>
  </defs>
  <metadata
     id="metadata5">
    <rdf:RDF>
      <cc:Work
         rdf:about="">
        <dc:format>image/svg+xml</dc:format>
        <dc:type
           rdf:resource="http://purl.org/dc/dcmitype/StillImage" />
        <dc:title></dc:title>
      </cc:Work>
    </rdf:RDF>
  </metadata>
  <g
     id="layer1"
     transform="translate(-85.89509,-134.9547)">
    <path
       id="IconGraphic"
       class="cls-1"
       d="m 85.89509,179.65208 v -2.11666 h 29.40685 l -0.1868,-16.31765 a 2.6942521,2.6942521 0 0 1 -4.52437,-0.62944 2.7069521,2.7069521 0 0 1 -4.93871,0 2.7072167,2.7072167 0 0 1 -4.93898,0 2.7072167,2.7072167 0 0 1 -4.938978,0 2.7072167,2.7072167 0 0 1 -4.938977,0 2.7072167,2.7072167 0 0 1 -4.938977,0 V 158.75 a 2.7072167,2.7072167 0 0 0 4.938977,0 2.7072167,2.7072167 0 0 0 4.938977,0 2.7072167,2.7072167 0 0 0 4.937658,0 2.7072167,2.7072167 0 0 0 4.93897,0 2.7069521,2.7069521 0 0 0 4.93872,0 2.6950458,2.6950458 0 0 0 4.50506,0.65617 l -0.0952,-8.32909 h 5.55625 l 16.13032,26.45834 h 3.44884 v 2.11666 z"
       style="fill:#ffffff;fill-rule:evenodd;stroke-width:0.264583" />
    <g
       transform="matrix(0.2287213,0,0,0.2287213,29.963638,70.101358)"
       id="layer1-0">
      <path
         id="IconGraphic-0"
         class="cls-1"
         d="m 307.82606,373.29437 c -24.77911,-0.006 -44.86366,-20.09434 -44.86366,-44.87347 0,-24.7791 20.08455,-44.86805 44.86366,-44.87345 24.78676,-0.006 44.88322,20.08671 44.88322,44.87345 0,24.78676 -20.09646,44.87886 -44.88322,44.87347 z m -11.35013,-5.80863 c -3.1078,-4.24562 -5.59645,-8.9114 -7.39128,-13.85736 -3.17608,1.3183 -6.18793,3.00182 -8.97469,5.01657 4.60648,4.30237 10.24248,7.34717 16.36597,8.8415 z m -19.14031,-11.61297 c 3.23338,-2.1943 6.68317,-4.05141 10.29525,-5.54222 -2.77145,-7.12778 -4.35415,-14.38799 -4.48733,-19.93024 h -15.97068 c 0.28935,9.42118 3.88738,18.43952 10.16276,25.47246 z m -10.16206,-29.43128 h 15.96998 c 0.26571,-5.67544 1.85191,-12.80247 4.48733,-19.93025 -3.61203,-1.49093 -7.0618,-3.34802 -10.29525,-5.54222 -6.27548,7.03288 -9.87354,16.05125 -10.16276,25.47247 z m 12.93281,-28.24535 c 2.75947,1.94821 5.72555,3.58592 8.84434,4.88335 1.9193,-4.91552 4.44744,-9.57094 7.52522,-13.85735 -6.11253,1.59699 -11.73573,4.67969 -16.36956,8.974 z m 25.73814,-10.5574 c -1.3732,0.007 -2.74288,0.13934 -4.09202,0.39533 -3.76616,5.10834 -6.91136,10.6465 -9.3693,16.49777 4.32892,1.59462 8.86071,2.57218 13.46204,2.90395 v -19.79705 z m 0,23.88906 c -5.05306,-0.41571 -10.00278,-1.66306 -14.64939,-3.6917 -2.36176,5.94075 -3.74374,12.22544 -4.09205,18.60894 h 18.74144 z m 0,18.87537 h -18.74144 c 0.38973,6.37826 1.77028,12.65692 4.09205,18.61036 4.64584,-2.03148 9.59585,-3.28011 14.64939,-3.69527 z m 0,19.0057 c -4.54807,0.313 -9.03213,1.24519 -13.32812,2.77076 2.33655,5.92336 5.44187,11.51372 9.2361,16.62737 1.34914,0.25591 2.71883,0.388 4.09202,0.39461 v -19.7956 z m 29.69697,9.23964 c -2.78657,-2.01509 -5.79844,-3.69863 -8.97471,-5.01656 -1.79755,4.94472 -4.28599,9.61013 -7.39129,13.85733 6.12401,-1.49418 11.76022,-4.53979 16.366,-8.84359 z m -25.73812,10.55666 c 1.37344,-0.006 2.74339,-0.13847 4.09273,-0.39461 3.79414,-5.11561 6.90054,-10.70699 9.23968,-16.63093 -4.29732,-1.52608 -8.78289,-2.45828 -13.33241,-2.77076 z m 0,-23.88691 c 5.05357,0.4151 10.00358,1.66373 14.6494,3.69527 2.32413,-5.95275 3.70499,-12.23176 4.09276,-18.61036 h -18.74216 z m 0,-18.87535 h 18.74216 c -0.34631,-6.38386 -1.72861,-12.6689 -4.09276,-18.60898 -4.64638,2.02991 -9.59612,3.2785 -14.6494,3.69531 z m 0,-38.80274 v 19.79704 c 4.60139,-0.33137 9.13322,-1.30895 13.46204,-2.90396 -2.45648,-5.85223 -5.60178,-11.39078 -9.36931,-16.49846 -1.34933,-0.25647 -2.71927,-0.38903 -4.09273,-0.39605 z m 9.37286,1.5827 c 3.07654,4.28659 5.60303,8.94231 7.52021,13.85806 3.11909,-1.29759 6.0854,-2.93554 8.84505,-4.88409 -4.63204,-4.29463 -10.25388,-7.37766 -16.36526,-8.9747 z m 19.13532,11.74615 c -3.23364,2.19391 -6.68337,4.05099 -10.29526,5.54222 2.63542,7.12778 4.22523,14.25481 4.48736,19.93025 h 15.97065 c -0.28764,-9.42155 -3.88591,-18.44043 -10.16275,-25.47247 z m -5.80864,29.43129 c -0.13245,5.54437 -1.71586,12.80246 -4.48732,19.93024 3.61193,1.49111 7.06167,3.34821 10.29523,5.54222 6.27653,-7.03216 9.87455,-16.05102 10.16205,-25.47246 h -15.96854 z"
         style="fill:#ffffff;fill-rule:evenodd;stroke-width:0.712275" />
    </g>
  </g>
</svg>
