<?xml version="1.0" encoding="UTF-8" standalone="no"?>
<svg
   xmlns:dc="http://purl.org/dc/elements/1.1/"
   xmlns:cc="http://creativecommons.org/ns#"
   xmlns:rdf="http://www.w3.org/1999/02/22-rdf-syntax-ns#"
   xmlns:svg="http://www.w3.org/2000/svg"
   xmlns="http://www.w3.org/2000/svg"
   width="67.801727mm"
   height="61.727695mm"
   viewBox="0 0 67.801727 61.727695"
   version="1.1"
   id="svg8">
  <defs
     id="defs2">
    <style
       id="style2">
      .cls-1 {
        fill-rule: evenodd;
      }
    </style>
    <style
       id="style2-5">
      .cls-1 {
        fill-rule: evenodd;
      }
    </style>
    <style
       id="style2-6">
      .cls-1 {
        fill-rule: evenodd;
      }
    </style>
    <style
       id="style2-1">
      .cls-1 {
        fill-rule: evenodd;
      }
    </style>
    <style
       id="style2-2">
      .cls-1 {
        fill-rule: evenodd;
      }
    </style>
    <style
       id="style2-7">
      .cls-1 {
        fill-rule: evenodd;
      }
    </style>
    <style
       id="style2-72">
      .cls-1 {
        fill-rule: evenodd;
      }
    </style>
    <style
       id="style2-77">
      .cls-1 {
        fill-rule: evenodd;
      }
    </style>
  </defs>
  <metadata
     id="metadata5">
    <rdf:RDF>
      <cc:Work
         rdf:about="">
        <dc:format>image/svg+xml</dc:format>
        <dc:type
           rdf:resource="http://purl.org/dc/dcmitype/StillImage" />
        <dc:title></dc:title>
      </cc:Work>
    </rdf:RDF>
  </metadata>
  <g
     id="layer1"
     transform="translate(-74.956281,-99.159962)">
    <g
       id="layer1-7"
       transform="translate(-1.5165306,-2.9684035)">
      <path
         id="IconGraphic"
         class="cls-1"
         d="m 119.45847,145.4067 c -0.24322,-0.10464 -0.67435,-0.44941 -0.70468,-0.41963 -0.0303,0.0298 0.32158,0.52905 0.40631,0.77117 0.0164,0.0654 -0.11919,0.11695 -0.11919,0.11695 l -0.81845,-0.89299 c 0,0 -0.34658,-0.30325 -0.64937,-0.006 -0.17574,0.17259 -0.20898,0.34338 -0.20586,0.45611 10e-4,0.0814 -0.0685,10.2865 -0.0685,10.2865 l -0.61425,-0.62548 c 0,0 -0.0928,-9.33774 -0.10428,-9.6471 -0.0605,-1.18577 1.38102,-1.81318 2.20763,-0.96086 l 0.819,0.83396 c -0.0154,0.0157 -0.0451,0.13164 -0.14839,0.0872 z"
         style="fill:#ffffff;fill-rule:evenodd;stroke-width:0.0417453" />
      <rect
         style="fill:#ffffff;fill-opacity:1;stroke:#ffffff;stroke-width:0.0106025;stroke-opacity:1"
         id="rect4587"
         width="26.112629"
         height="1.7323824"
         x="98.589043"
         y="102.16123"
         ry="0" />
      <rect
         style="fill:#ffffff;fill-opacity:1;stroke:#ffffff;stroke-width:0.0105845;stroke-opacity:1"
         id="rect4587-3"
         width="26.094805"
         height="1.7276796"
         x="98.601456"
         y="128.92201"
         ry="0" />
      <rect
         style="fill:#ffffff;fill-opacity:1;stroke:#ffffff;stroke-width:0.0102495;stroke-opacity:1"
         id="rect4587-7"
         width="1.4839942"
         height="28.48745"
         x="-102.34295"
         y="-130.64694"
         ry="0"
         transform="scale(-1)" />
      <rect
         style="fill:#ffffff;fill-opacity:1;stroke:#ffffff;stroke-width:0.0102358;stroke-opacity:1"
         id="rect4587-7-4"
         width="1.484008"
         height="28.41066"
         x="-122.3671"
         y="-130.54414"
         ry="0"
         transform="scale(-1)" />
      <path
         style="fill:#ffffff;fill-rule:evenodd;stroke-width:0.100313"
         d="m 113.84017,119.72033 v 6.62064 a 1.1034414,1.1034414 0 0 1 -2.20688,0 v -6.62064 h -0.40125 v 6.62064 a 1.1034412,1.1034412 0 0 1 -2.20688,0 v -6.62575 a 1.2031514,1.2031514 0 0 1 -1.10344,-1.19864 v -6.31971 a 1.2037533,1.2037533 0 0 1 1.20375,-1.20375 h 4.7147 a 1.2037533,1.2037533 0 0 1 1.20375,1.20375 v 6.31971 a 1.2037533,1.2037533 0 0 1 -1.20375,1.20375 z m -2.35735,-9.32909 a 2.3573501,2.3573501 0 1 1 2.35735,-2.35735 2.3573501,2.3573501 0 0 1 -2.35735,2.35735 z"
         class="cls-1"
         id="IconGraphic-8-6" />
      <rect
         style="fill:#ffffff;fill-opacity:1;stroke:#ffffff;stroke-width:0.0101321;stroke-opacity:1"
         id="rect4587-7-6"
         width="1.4841117"
         height="27.835869"
         x="-106.74995"
         y="-130.47809"
         ry="0"
         transform="scale(-1)" />
      <rect
         style="fill:#ffffff;fill-opacity:1;stroke:#ffffff;stroke-width:0.0101321;stroke-opacity:1"
         id="rect4587-7-6-8"
         width="1.4841117"
         height="27.835875"
         x="-117.54711"
         y="-130.47809"
         ry="0"
         transform="scale(-1)" />
      <path
         style="fill:#ffffff;fill-rule:evenodd;stroke-width:0.124669"
         d="m 114.24854,154.25655 v 8.22815 a 1.3713601,1.3713601 0 0 1 -2.74272,0 v -8.22815 h -0.49867 v 8.22815 a 1.37136,1.37136 0 0 1 -2.74272,0 v -8.2345 a 1.49528,1.49528 0 0 1 -1.37136,-1.48967 v -7.85416 a 1.4960281,1.4960281 0 0 1 1.49603,-1.49602 h 5.85944 a 1.4960281,1.4960281 0 0 1 1.49602,1.49602 v 7.85416 a 1.4960281,1.4960281 0 0 1 -1.49602,1.49602 z m -2.92972,-11.59422 a 2.9297215,2.9297215 0 1 1 2.92972,-2.92972 2.9297215,2.9297215 0 0 1 -2.92972,2.92972 z"
         class="cls-1"
         id="IconGraphic-8-6-4" />
      <path
         id="IconGraphic-6"
         class="cls-1"
         d="m 106.37535,156.08351 -0.60773,-0.4059 0.15118,-0.22636 0.60773,0.4059 z m -0.32679,-0.82655 0.13592,-0.73685 0.17805,0.42537 0.46177,-0.19194 0.0308,0.52096 0.42883,-0.02 -0.62764,0.40851 -1.8e-4,2.4e-4 -0.60779,-0.40595 z m -4.14043,0.27461 c 1.33622,-0.30323 3.19444,0.15631 3.64831,0.27895 l -0.002,0.004 0.71266,0.476 c -0.006,0.1623 -0.0384,0.74833 -0.20754,1.63837 -0.20067,1.05611 -0.91168,1.96599 -1.30666,1.88633 -0.39499,-0.0797 -2.49503,-0.82937 -3.46051,-1.8904 -0.96546,-1.06103 -0.91548,-2.04608 0.61681,-2.39384 z"
         style="fill:#ffffff;fill-rule:evenodd;stroke-width:0.0388873" />
      <path
         style="fill:#fefefe;stroke-width:0.071011"
         d="m 131.95918,157.35823 c -0.0493,-0.0455 -0.17958,-0.0829 -0.28992,-0.0836 -0.1905,-0.001 -3.09986,-1.99155 -8.03063,-5.49394 l -1.61043,-1.14392 v -0.4227 -0.4227 l 1.40167,-0.99102 c 6.76554,-4.78335 8.40613,-5.89916 8.6737,-5.89916 0.20484,0 0.28366,0.0389 0.33069,0.16359 0.13317,0.35282 0.0606,0.60045 -0.55361,1.88692 -0.33844,0.70894 -0.63237,1.32993 -0.65319,1.37995 -0.0743,0.17819 0.89861,-0.0766 1.71587,-0.44942 3.80184,-1.73453 6.43715,-7.00172 6.27748,-12.54666 -0.1344,-4.66421 -2.07107,-8.87276 -5.05419,-10.98266 -0.55164,-0.39019 -1.06189,-0.6578 -1.84314,-0.96673 -0.3081,-0.1218 -0.69408,-0.31771 -0.85774,-0.43523 -0.42632,-0.30622 -0.85222,-0.94722 -1.07407,-1.61654 -0.16467,-0.49654 -0.1919,-0.67997 -0.21187,-1.42547 -0.0266,-0.99236 0.0725,-1.61335 0.35955,-2.25263 0.50138,-1.11665 1.49906,-1.76822 2.47629,-1.61731 1.26427,0.19535 3.53134,1.47615 4.97212,2.80923 3.09169,2.86062 5.39087,7.52071 6.09678,12.35725 0.25268,1.7311 0.25364,7.40918 0.001,9.13054 -0.48989,3.34531 -1.80211,6.77974 -3.59757,9.41606 -2.33047,3.42176 -5.64486,5.68136 -8.83399,6.02262 -0.29173,0.0311 -0.5304,0.0727 -0.5304,0.092 0,0.02 0.30868,0.68228 0.68593,1.47288 0.72354,1.51628 0.8238,1.87156 0.55172,1.95519 -0.0739,0.023 -0.17455,0.0646 -0.22366,0.0935 -0.0493,0.0289 -0.12976,0.0146 -0.179,-0.0301 z"
         id="path857" />
      <path
         style="fill:#fefefe;stroke-width:0.071011"
         d="m 88.788167,110.45481 c 0.0493,0.0455 0.17958,0.0829 0.28992,0.0836 0.1905,0.001 3.09986,1.99155 8.03063,5.49394 l 1.61043,1.14392 v 0.4227 0.4227 l -1.40167,0.99102 c -6.76554,4.78335 -8.40613,5.89916 -8.6737,5.89916 -0.20484,0 -0.28366,-0.0389 -0.33069,-0.16359 -0.13317,-0.35282 -0.0606,-0.60045 0.55361,-1.88692 0.33844,-0.70894 0.63237,-1.32993 0.65319,-1.37995 0.0743,-0.17819 -0.89861,0.0766 -1.71587,0.44942 -3.80184,1.73453 -6.43715,7.00172 -6.27748,12.54666 0.1344,4.66421 2.07107,8.87275 5.05419,10.98265 0.55164,0.39019 1.06189,0.6578 1.84314,0.96673 0.3081,0.1218 0.69408,0.31771 0.85774,0.43523 0.42632,0.30622 0.85222,0.94722 1.07407,1.61654 0.16467,0.49654 0.1919,0.67997 0.21187,1.42547 0.0266,0.99236 -0.0725,1.61335 -0.35955,2.25263 -0.50138,1.11665 -1.49906,1.76822 -2.47629,1.61731 -1.26427,-0.19535 -3.53134,-1.47615 -4.97212,-2.80923 -3.09169,-2.86062 -5.39087,-7.52071 -6.09678,-12.35724 -0.25268,-1.7311 -0.25364,-7.40918 -0.001,-9.13054 0.48989,-3.34531 1.80211,-6.77974 3.59757,-9.41606 2.33047,-3.42176 5.64486,-5.68136 8.83399,-6.02262 0.29173,-0.0311 0.5304,-0.0727 0.5304,-0.092 0,-0.02 -0.30868,-0.68228 -0.68593,-1.47288 -0.72354,-1.51628 -0.8238,-1.87156 -0.55172,-1.95519 0.0739,-0.023 0.17455,-0.0646 0.22366,-0.0935 0.0493,-0.0289 0.12976,-0.0146 0.179,0.0301 z"
         id="path857-0" />
    </g>
  </g>
</svg>
