<?xml version="1.0" encoding="UTF-8" standalone="no"?>
<svg
   xmlns:dc="http://purl.org/dc/elements/1.1/"
   xmlns:cc="http://creativecommons.org/ns#"
   xmlns:rdf="http://www.w3.org/1999/02/22-rdf-syntax-ns#"
   xmlns:svg="http://www.w3.org/2000/svg"
   xmlns="http://www.w3.org/2000/svg"
   width="39.390667mm"
   height="28.690886mm"
   viewBox="0 0 39.390667 28.690886"
   version="1.1"
   id="svg863">
  <defs
     id="defs857" />
  <metadata
     id="metadata860">
    <rdf:RDF>
      <cc:Work
         rdf:about="">
        <dc:format>image/svg+xml</dc:format>
        <dc:type
           rdf:resource="http://purl.org/dc/dcmitype/StillImage" />
        <dc:title></dc:title>
      </cc:Work>
    </rdf:RDF>
  </metadata>
  <g
     id="layer1"
     transform="translate(-122.77932,-107.43252)">
    <g
       id="g879"
       transform="matrix(1.2983807,0,0,1.2983807,-16.594712,-38.186019)">
      <path
         style="fill:#fefefe;stroke-width:0.0846667"
         d="m 114.10043,134.2215 c -0.0931,-0.037 -0.31152,-0.07 -0.4853,-0.0733 -0.61569,-0.0116 -2.57976,-1.07652 -3.8327,-2.07812 -0.79077,-0.63214 -1.48833,-1.46317 -1.91875,-2.28591 -0.3096,-0.59179 -0.36364,-0.7798 -0.43808,-1.524 -0.10875,-1.08739 -0.10816,-1.74703 0.002,-2.78449 0.12063,-1.13091 0.4148,-1.68862 2.23079,-4.22918 1.66327,-2.32693 2.17373,-3.18545 2.53049,-4.25596 0.47165,-1.41527 0.43223,-2.18325 -0.19821,-3.86166 -0.2562,-0.6821 -0.27532,-0.78647 -0.16439,-0.89741 0.0937,-0.0937 0.14992,-0.10114 0.22169,-0.0294 0.0529,0.0529 0.20456,0.0962 0.33705,0.0962 0.28122,0 1.08377,0.52125 2.3638,1.53525 1.71176,1.356 2.71114,2.52579 3.51918,4.11925 0.48227,0.95102 0.48469,0.95957 0.51679,1.82678 0.0401,1.08348 -0.0742,1.65057 -0.50683,2.51498 -0.40267,0.80452 -1.05816,1.54074 -1.78598,2.00593 -0.29116,0.1861 -1.20687,0.76551 -2.0349,1.28757 -1.68973,1.06535 -2.21844,1.54168 -2.62269,2.36284 -0.24183,0.49121 -0.27408,0.63827 -0.27123,1.23662 0.003,0.61708 0.0352,0.74662 0.35345,1.41804 0.38083,0.80354 1.00599,1.75057 1.5522,2.35141 0.29281,0.32209 0.3384,0.34827 0.29488,0.16933 -0.27089,-1.11388 -0.31189,-1.4573 -0.27793,-2.32833 0.0423,-1.08601 0.2208,-1.56839 0.74477,-2.01315 0.17679,-0.15007 0.92458,-0.59159 1.66175,-0.98115 2.06222,-1.0898 2.6376,-1.44821 3.25949,-2.03034 0.9487,-0.88804 1.21095,-1.64958 0.96665,-2.80703 -0.18124,-0.85872 -0.17579,-0.93133 0.0699,-0.93133 0.16483,0 0.29325,0.14254 0.66749,0.74083 1.05956,1.69394 1.49908,2.58027 1.49908,3.02305 0,0.14953 0.0439,0.49025 0.0974,0.75715 0.0901,0.44854 0.042,1.15713 -0.14491,2.13366 -0.0187,0.0977 -0.19621,0.39663 -0.39447,0.66423 -0.61492,0.83 -1.79159,1.51905 -4.33283,2.5373 -1.7433,0.69853 -2.2524,1.03585 -2.76208,1.83012 -0.14858,0.23154 -0.32015,0.42099 -0.38127,0.42099 -0.0611,0 -0.12382,0.033 -0.13934,0.0733 -0.0155,0.0403 -0.10442,0.043 -0.19755,0.006 z"
         id="path887" />
    </g>
    <path
       style="fill:#fefefe;stroke-width:0.0548499"
       d="m 151.20018,135.95177 c 0,-0.17577 0.65972,-8.27096 0.72148,-8.85284 l 0.029,-0.27274 h -3.87682 -3.87682 l 0.0146,-0.16343 c 0.0107,-0.11644 1.86807,-2.8051 6.46741,-9.36031 3.54904,-5.05829 6.51902,-9.30092 6.59992,-9.42809 0.17182,-0.26999 0.37467,-0.32154 0.37318,-0.0948 -5.6e-4,0.0749 -0.81305,2.90474 -1.80569,6.28828 l -1.80478,6.1519 4.06416,0.0154 4.06417,0.0156 -0.001,0.13601 c -0.003,0.2066 -10.69103,15.70644 -10.84958,15.73196 -0.10328,0.0167 -0.11912,-0.005 -0.11912,-0.16692 z"
       id="path484" />
  </g>
</svg>
