<?xml version="1.0" encoding="UTF-8" standalone="no"?>
<svg
   xmlns:dc="http://purl.org/dc/elements/1.1/"
   xmlns:cc="http://creativecommons.org/ns#"
   xmlns:rdf="http://www.w3.org/1999/02/22-rdf-syntax-ns#"
   xmlns:svg="http://www.w3.org/2000/svg"
   xmlns="http://www.w3.org/2000/svg"
   width="75.776764mm"
   height="59.319889mm"
   viewBox="0 0 75.776764 59.319889"
   version="1.1"
   id="svg8">
  <defs
     id="defs2">
    <style
       id="style2">
      .cls-1 {
        fill-rule: evenodd;
      }
    </style>
  </defs>
  <metadata
     id="metadata5">
    <rdf:RDF>
      <cc:Work
         rdf:about="">
        <dc:format>image/svg+xml</dc:format>
        <dc:type
           rdf:resource="http://purl.org/dc/dcmitype/StillImage" />
        <dc:title></dc:title>
      </cc:Work>
    </rdf:RDF>
  </metadata>
  <g
     id="layer1"
     transform="translate(-77.965057,-71.531868)">
    <path
       id="IconGraphic"
       class="cls-1"
       d="m 150.8314,130.79853 v -6.61458 h -4.23333 v 6.61458 H 133.10432 V 75.500618 h 13.49375 v -3.96875 h 4.23333 v 3.96875 h 2.91042 V 130.79853 Z M 140.24807,79.733951 h -4.23334 v 4.233334 h 4.23334 z m 0,5.291667 h -4.23334 v 4.233333 h 4.23334 z m 0,5.291667 h -4.23334 v 4.233333 h 4.23334 z m 0,5.291666 h -4.23334 v 4.233334 h 4.23334 z m 0,5.291669 h -4.23334 v 4.23333 h 4.23334 z m 0,5.29166 h -4.23334 v 4.23334 h 4.23334 z m 0,5.29167 h -4.23334 v 4.23333 h 4.23334 z m 0,5.29167 h -4.23334 v 4.23333 h 4.23334 z m 5.29166,-37.041669 h -4.23333 v 4.233334 h 4.23333 z m 0,5.291667 h -4.23333 v 4.233333 h 4.23333 z m 0,5.291667 h -4.23333 v 4.233333 h 4.23333 z m 0,5.291666 h -4.23333 v 4.233334 h 4.23333 z m 0,5.291669 h -4.23333 v 4.23333 h 4.23333 z m 0,5.29166 h -4.23333 v 4.23334 h 4.23333 z m 0,5.29167 h -4.23333 v 4.23333 h 4.23333 z m 0,5.29167 h -4.23333 v 4.23333 h 4.23333 z m 5.29167,-37.041669 h -4.23333 v 4.233334 h 4.23333 z m 0,5.291667 h -4.23333 v 4.233333 h 4.23333 z m 0,5.291667 h -4.23333 v 4.233333 h 4.23333 z m 0,5.291666 h -4.23333 v 4.233334 h 4.23333 z m 0,5.291669 h -4.23333 v 4.23333 h 4.23333 z m 0,5.29166 h -4.23333 v 4.23334 h 4.23333 z m 0,5.29167 h -4.23333 v 4.23333 h 4.23333 z m 0,5.29167 h -4.23333 v 4.23333 h 4.23333 z"
       style="fill:#ffffff;fill-rule:evenodd;stroke-width:0.264583" />
    <path
       id="IconGraphic-6"
       class="cls-1"
       d="m 124.39618,130.79853 v -6.61458 h -4.23333 v 6.61458 H 106.6691 V 75.500621 h 13.49375 v -3.96875 h 4.23333 v 3.96875 h 2.91042 V 130.79853 Z M 113.81285,79.733954 h -4.23334 v 4.233334 h 4.23334 z m 0,5.291667 h -4.23334 v 4.233333 h 4.23334 z m 0,5.291667 h -4.23334 v 4.233333 h 4.23334 z m 0,5.291666 h -4.23334 v 4.233334 h 4.23334 z m 0,5.291666 h -4.23334 v 4.23333 h 4.23334 z m 0,5.29166 h -4.23334 v 4.23334 h 4.23334 z m 0,5.29167 h -4.23334 v 4.23333 h 4.23334 z m 0,5.29167 h -4.23334 v 4.23333 h 4.23334 z m 5.29166,-37.041666 h -4.23333 v 4.233334 h 4.23333 z m 0,5.291667 h -4.23333 v 4.233333 h 4.23333 z m 0,5.291667 h -4.23333 v 4.233333 h 4.23333 z m 0,5.291666 h -4.23333 v 4.233334 h 4.23333 z m 0,5.291666 h -4.23333 v 4.23333 h 4.23333 z m 0,5.29166 h -4.23333 v 4.23334 h 4.23333 z m 0,5.29167 h -4.23333 v 4.23333 h 4.23333 z m 0,5.29167 h -4.23333 v 4.23333 h 4.23333 z m 5.29167,-37.041666 h -4.23333 v 4.233334 h 4.23333 z m 0,5.291667 h -4.23333 v 4.233333 h 4.23333 z m 0,5.291667 h -4.23333 v 4.233333 h 4.23333 z m 0,5.291666 h -4.23333 v 4.233334 h 4.23333 z m 0,5.291666 h -4.23333 v 4.23333 h 4.23333 z m 0,5.29166 h -4.23333 v 4.23334 h 4.23333 z m 0,5.29167 h -4.23333 v 4.23333 h 4.23333 z m 0,5.29167 h -4.23333 v 4.23333 h 4.23333 z"
       style="fill:#ffffff;fill-rule:evenodd;stroke-width:0.264583" />
    <g
       id="g918"
       transform="matrix(0.65117866,0,0,0.65117866,41.694913,52.158845)">
      <path
         style="fill:#fefefe;stroke-width:0.0846667"
         d="m 62.392907,120.76841 c -0.748017,-0.11499 -0.89951,-0.21982 -1.205751,-0.83437 l -0.21355,-0.42854 v -8.91571 -8.91571 l 0.232833,1e-5 0.232833,10e-6 0.278846,2.13782 c 0.320168,2.45463 0.44365,2.84382 1.039164,3.27521 0.54642,0.39582 0.949737,0.47641 1.516641,0.30306 0.257042,-0.0786 0.592361,-0.16294 0.745153,-0.18741 l 0.277804,-0.0445 -0.0238,6.21141 c -0.02368,6.18004 -0.02473,6.21311 -0.20655,6.55007 -0.319526,0.59215 -0.59021,0.77598 -1.234356,0.8383 -0.31374,0.0304 -0.61854,0.0678 -0.677334,0.0831 -0.05879,0.0154 -0.401662,-0.0174 -0.761929,-0.0728 z m 4.654581,-2.5e-4 c -0.748596,-0.11504 -0.96328,-0.26461 -1.268301,-0.8836 l -0.191248,-0.38815 -0.02425,-6.28578 -0.02425,-6.28579 0.701578,-0.32719 c 0.745643,-0.34773 0.958021,-0.53055 1.242996,-1.06998 0.297247,-0.56266 0.24234,-0.83634 -0.555068,-2.76666 l -0.733318,-1.77518 0.184211,-0.56604 c 0.323792,-0.994941 0.178143,-1.864925 -0.457096,-2.730293 -0.304916,-0.415378 -0.31029,-0.435966 -0.253131,-0.969717 l 0.0584,-0.545329 -1.615207,-3.880456 c -0.888364,-2.134251 -1.615207,-3.944834 -1.615207,-4.023518 0,-0.132237 0.293061,-0.142966 3.8735,-0.14181 4.25879,0.0014 4.564424,0.03011 5.398979,0.507595 0.54773,0.31338 1.230322,1.028715 1.500509,1.572486 0.449602,0.904859 0.445345,0.838561 0.445345,6.935667 0,3.119965 -0.02913,5.776745 -0.06472,5.903945 -0.08341,0.29805 -0.522038,0.79668 -0.858011,0.97537 -0.358677,0.19078 -1.43652,0.19078 -1.795197,0 -0.426551,-0.22687 -0.769422,-0.68372 -0.871954,-1.16181 -0.06052,-0.2822 -0.100215,-2.23303 -0.113401,-5.573505 -0.01116,-2.826633 -0.03973,1.013817 -0.0635,8.534335 l -0.04321,13.67366 -0.179493,0.381 c -0.289742,0.61502 -0.572613,0.8163 -1.23761,0.88064 -0.313739,0.0304 -0.618539,0.0678 -0.677333,0.0831 -0.05879,0.0154 -0.4026,-0.0175 -0.764015,-0.073 z m 16.246923,0.007 c -0.628067,-0.0882 -0.684125,-0.11379 -0.979525,-0.44703 -0.172333,-0.19441 -0.358321,-0.50363 -0.413307,-0.68716 -0.07409,-0.24733 -0.09997,-2.62727 -0.09997,-9.19273 v -8.859 h 0.20667 c 0.113668,0 0.225833,0.031 0.249253,0.0689 0.02342,0.0379 0.161225,0.98087 0.30623,2.0955 0.29074,2.23485 0.345781,2.47637 0.667949,2.93094 0.505302,0.71297 1.269463,0.96306 2.043606,0.66883 0.25481,-0.0969 0.549017,-0.17611 0.653792,-0.17613 l 0.1905,-5e-5 -0.0019,6.1595 c -0.0017,5.78229 -0.01133,6.18036 -0.156559,6.50005 -0.08508,0.1873 -0.27215,0.458 -0.415703,0.60155 -0.21953,0.21953 -0.349201,0.27004 -0.816044,0.31787 -0.305272,0.0313 -0.603143,0.0694 -0.661937,0.0847 -0.05879,0.0153 -0.406684,-0.0143 -0.773091,-0.0657 z m 4.611887,-7.7e-4 c -0.708832,-0.10526 -1.011278,-0.32476 -1.288506,-0.93509 -0.146779,-0.32315 -0.155909,-0.70893 -0.157661,-6.66152 l -0.0019,-6.31857 0.502352,-0.18786 c 0.91442,-0.34197 1.555703,-1.09253 1.557118,-1.82245 4.23e-4,-0.23378 -0.216135,-0.8575 -0.699339,-2.01392 -0.76093,-1.82109 -0.753111,-1.77522 -0.479347,-2.81208 0.206459,-0.781938 0.0063,-1.591016 -0.585451,-2.366222 C 86.45472,97.265171 86.45028,97.247871 86.5053,96.689498 l 0.05602,-0.568542 -1.575545,-3.795299 c -0.86655,-2.087415 -1.575546,-3.886003 -1.575546,-3.996861 v -0.20156 h 3.798443 c 2.229589,0 3.986656,0.03569 4.254134,0.08642 0.695949,0.131983 1.43326,0.517481 1.919236,1.003457 0.646059,0.646059 0.832922,1.026918 0.919185,1.873456 0.09437,0.926053 0.09028,11.604391 -0.0046,12.107331 -0.08699,0.46097 -0.158786,0.55883 -0.560252,0.76364 -0.978658,0.49928 -2.233163,0.15975 -2.628802,-0.71148 -0.149111,-0.32835 -0.158367,-0.65531 -0.160118,-5.656328 -0.0012,-3.445202 -0.03157,-5.326199 -0.08653,-5.360163 -0.05631,-0.0348 -0.08467,4.497016 -0.08467,13.531021 0,15.0672 0.04034,14.01529 -0.561155,14.63158 -0.270614,0.27727 -0.357907,0.31299 -0.894029,0.36581 -0.326774,0.0322 -0.637862,0.0691 -0.691308,0.082 -0.05344,0.0129 -0.379012,-0.0184 -0.723481,-0.0696 z m -24.529196,-13.9898 c -0.09836,-0.0217 -0.283712,-0.14888 -0.411894,-0.28267 -0.217974,-0.22751 -0.248745,-0.35736 -0.475496,-2.00647 -0.317351,-2.30803 -0.321836,-2.17554 0.07139,-2.10908 0.923375,0.15606 1.333855,0.15079 1.829186,-0.0235 0.272627,-0.0959 0.622511,-0.27113 0.777517,-0.38936 0.554387,-0.42285 0.617894,-0.36722 1.228553,1.0762 0.47333,1.11883 0.546244,1.36089 0.546244,1.81352 0,0.70898 -0.141735,0.84106 -1.53659,1.43186 -1.065382,0.45126 -1.608176,0.58221 -2.028914,0.48948 z m 20.73806,-0.0696 c -0.147827,-0.0643 -0.327969,-0.20725 -0.400316,-0.31767 -0.101366,-0.1547 -0.63722,-3.48407 -0.642487,-3.99189 -4.23e-4,-0.04 0.142121,-0.0492 0.316746,-0.0204 1.237372,0.20406 1.737832,0.13656 2.531695,-0.34148 0.267144,-0.16087 0.55869,-0.28128 0.647879,-0.26759 0.122166,0.0188 0.295612,0.34569 0.703211,1.32548 0.453704,1.09062 0.541048,1.38002 0.541048,1.79266 0,0.68931 -0.18642,0.85142 -1.67615,1.45759 -1.237546,0.50357 -1.564203,0.56227 -2.021626,0.3633 z m -21.206999,-5.47466 c -0.170011,-0.048 -1.827045,-1.12374 -3.682298,-2.390466 l -3.373188,-2.303144 -0.07791,-0.420929 c -0.102023,-0.55123 -0.100603,-1.248717 0.0036,-1.77741 0.0561,-0.2846 0.427736,-1.033317 1.124171,-2.264833 0.853858,-1.509887 1.072961,-1.839277 1.222204,-1.837406 0.157176,0.002 0.288167,0.263243 0.965701,1.926167 0.481931,1.182842 0.783592,2.039297 0.783166,2.223513 -6.86e-4,0.297625 0.01471,0.310072 2.30445,1.862667 2.514333,1.704885 2.799299,1.924347 3.007845,2.316441 0.188934,0.355221 0.190892,1.43724 0.0032,1.7866 -0.153083,0.28499 -0.522493,0.65029 -0.803818,0.79488 -0.26837,0.13793 -1.115631,0.18606 -1.477179,0.0839 z m 20.967775,0.0208 c -0.397296,-0.10305 -0.4971,-0.16633 -3.725333,-2.361927 -3.165267,-2.152772 -3.450577,-2.367348 -3.646629,-2.742569 -0.169771,-0.324923 -0.239154,-1.079138 -0.134232,-1.459136 0.04961,-0.179678 0.6158,-1.254172 1.258198,-2.387766 0.924191,-1.630855 1.204187,-2.061584 1.341374,-2.063486 0.146867,-0.002 0.300447,0.302669 1.004344,1.992627 0.593948,1.425983 0.818715,2.059911 0.788014,2.222499 -0.04072,0.215637 0.08699,0.315556 2.455034,1.920803 2.883316,1.95454 2.912263,1.983705 2.966731,2.989055 0.03073,0.567307 0.0089,0.70091 -0.169006,1.03261 -0.36128,0.67373 -1.337469,1.06507 -2.138495,0.85729 z m -21.315546,-6.082087 -2.085891,-1.414798 -1.156725,-2.79158 c -1.0282,-2.481404 -1.152103,-2.832587 -1.115127,-3.160637 0.05212,-0.462383 0.252501,-0.688758 0.668574,-0.75529 0.178411,-0.02853 0.324383,-0.06228 0.324383,-0.075 0,-0.01272 -0.575205,-1.408028 -1.278234,-3.100678 -0.703028,-1.692651 -1.297894,-3.197247 -1.321924,-3.343548 -0.06267,-0.381551 0.110371,-0.83412 0.362924,-0.949191 0.117261,-0.05343 0.37886,-0.09714 0.581331,-0.09714 0.450606,0 0.684197,0.211639 0.951964,0.862503 0.114474,0.278254 0.227504,0.437015 0.296334,0.416232 0.0612,-0.01848 0.332385,-0.05178 0.602634,-0.074 0.42421,-0.03488 0.518867,-0.01457 0.692618,0.148664 0.476722,0.447857 0.321324,1.28969 -0.288862,1.564845 -0.243818,0.109946 -0.344698,0.202652 -0.319286,0.293411 0.02043,0.07297 1.266173,3.08518 2.768313,6.693789 1.502139,3.608609 2.75036,6.704234 2.773823,6.879166 0.03923,0.292469 0.02602,0.318059 -0.164149,0.318059 -0.127832,0 -1.003376,-0.540288 -2.2927,-1.414799 z m 20.850969,-0.0053 -2.073244,-1.416248 -1.117116,-2.667 C 79.241904,88.753 79.103168,88.363347 79.098079,87.936662 c -0.0068,-0.568904 0.146322,-0.782832 0.62447,-0.872533 0.165581,-0.03106 0.301056,-0.08602 0.301056,-0.122126 0,-0.03611 -0.5715,-1.438334 -1.27,-3.116063 -1.075461,-2.583153 -1.27,-3.11695 -1.27,-3.484778 0,-0.596319 0.245915,-0.85 0.82398,-0.85 0.538975,0 0.717052,0.141186 1.001439,0.793981 0.221615,0.508703 0.250712,0.539716 0.439139,0.468076 0.230957,-0.08781 0.872542,-0.102197 1.075982,-0.02413 0.330812,0.126944 0.49206,0.877731 0.277712,1.29305 -0.08711,0.168789 -0.474383,0.442733 -0.760898,0.538238 -0.03884,0.01295 1.18831,3.049774 2.72701,6.7485 1.754082,4.216463 2.797636,6.829399 2.797636,7.004954 0,0.234491 -0.03096,0.279685 -0.1905,0.278078 -0.105062,-0.0011 -1.12034,-0.637098 -2.263744,-1.418166 z m -19.008755,-7.84263 c -1.183382,-0.375236 -1.975466,-1.199945 -2.281597,-2.375573 -0.185063,-0.710691 -0.173824,-0.78494 0.128886,-0.851426 0.143159,-0.03144 0.391826,-0.17266 0.552594,-0.313817 0.324946,-0.285306 0.537042,-0.289152 1.470401,-0.02666 0.593537,0.16692 1.697895,0.16692 2.291431,0 0.796994,-0.224138 1.19335,-0.252911 1.282774,-0.09312 0.09066,0.161999 0.673245,0.477317 0.881897,0.477317 0.122116,0 0.135756,0.07032 0.09685,0.499318 -0.109372,1.206181 -1.119034,2.349308 -2.36889,2.682027 -0.547058,0.145631 -1.598064,0.146623 -2.054351,0.0019 z m 20.851363,-0.0019 C 84.039787,86.9812 83.049866,85.833323 82.930416,84.635168 l -0.04434,-0.444752 0.393958,-0.158564 c 0.216677,-0.08721 0.455503,-0.252493 0.530724,-0.367296 0.153924,-0.234916 0.201028,-0.232741 1.164014,0.05375 0.718223,0.213674 1.732176,0.23009 2.457165,0.03978 0.944143,-0.247836 1.121512,-0.247251 1.373293,0.0045 0.123997,0.123997 0.392007,0.269997 0.595579,0.324444 l 0.370129,0.09899 -0.05446,0.425513 c -0.135424,1.058179 -0.877684,2.051542 -1.88655,2.524758 -0.493747,0.231597 -0.671647,0.268819 -1.37166,0.286992 -0.48678,0.01264 -0.962243,-0.02441 -1.204303,-0.09384 z M 61.333439,83.41441 c -0.169456,-0.06838 -0.126545,-0.719164 0.152372,-2.310891 0.300514,-1.714977 0.45347,-2.122276 0.995296,-2.650313 0.582993,-0.568158 0.93497,-0.712481 1.921499,-0.78788 1.039446,-0.07944 0.997008,-0.07948 2.032,0.0017 0.663942,0.05207 0.935257,0.113776 1.25716,0.285922 0.513294,0.274498 1.104339,0.92297 1.269116,1.392426 0.148778,0.423873 0.648724,3.291996 0.648724,3.721641 0,0.333049 -0.117558,0.400224 -0.704066,0.402323 -0.434528,0.0016 -0.572599,-0.08781 -0.807652,-0.522746 l -0.199383,-0.368935 -0.47795,0.226044 c -1.193388,0.564408 -2.816482,0.561724 -4.017743,-0.0066 l -0.491794,-0.232688 -0.202778,0.400164 c -0.111528,0.220091 -0.264812,0.423969 -0.340631,0.453063 -0.160378,0.06154 -0.879253,0.05934 -1.03417,-0.0032 z m 20.870333,-0.0023 c -0.210394,-0.05498 -0.192921,-0.411485 0.10281,-2.097584 0.323862,-1.846491 0.444962,-2.216926 0.890333,-2.723461 0.542165,-0.616622 1.082551,-0.85152 2.163249,-0.940332 1.159587,-0.0953 2.807716,0.05127 3.173948,0.282257 0.997946,0.629413 1.263234,1.04576 1.488138,2.335514 0.09191,0.527066 0.222963,1.257786 0.291231,1.623822 0.167263,0.896823 0.163647,1.460197 -0.0098,1.526755 -0.205895,0.07901 -0.875381,0.06093 -1.041796,-0.02813 -0.08172,-0.04374 -0.218356,-0.234238 -0.303626,-0.423334 -0.08527,-0.189095 -0.188868,-0.34381 -0.230218,-0.34381 -0.04135,0 -0.224864,0.07636 -0.40781,0.169694 -0.759832,0.387638 -2.170635,0.534726 -3.148958,0.328306 -0.246767,-0.05207 -0.661708,-0.199532 -0.922092,-0.327702 l -0.473423,-0.233037 -0.20391,0.377219 c -0.112149,0.20747 -0.268079,0.412086 -0.346509,0.454702 -0.144608,0.07858 -0.750651,0.08992 -1.021566,0.01912 z"
         id="path920" />
    </g>
  </g>
</svg>
