<?xml version="1.0" encoding="UTF-8" standalone="no"?>
<svg
   xmlns:dc="http://purl.org/dc/elements/1.1/"
   xmlns:cc="http://creativecommons.org/ns#"
   xmlns:rdf="http://www.w3.org/1999/02/22-rdf-syntax-ns#"
   xmlns:svg="http://www.w3.org/2000/svg"
   xmlns="http://www.w3.org/2000/svg"
   width="79.36937mm"
   height="71.864113mm"
   viewBox="0 0 79.36937 71.864113"
   version="1.1"
   id="svg8">
  <defs
     id="defs2">
    <style
       id="style2">
      .cls-1 {
        fill-rule: evenodd;
      }
    </style>
    <style
       id="style2-6">
      .cls-1 {
        fill-rule: evenodd;
      }
    </style>
    <style
       id="style2-1">
      .cls-1 {
        fill-rule: evenodd;
      }
    </style>
    <style
       id="style2-2">
      .cls-1 {
        fill-rule: evenodd;
      }
    </style>
    <style
       id="style2-7">
      .cls-1 {
        fill-rule: evenodd;
      }
    </style>
    <style
       id="style2-72">
      .cls-1 {
        fill-rule: evenodd;
      }
    </style>
    <style
       id="style2-8">
      .cls-1 {
        fill-rule: evenodd;
      }
    </style>
  </defs>
  <metadata
     id="metadata5">
    <rdf:RDF>
      <cc:Work
         rdf:about="">
        <dc:format>image/svg+xml</dc:format>
        <dc:type
           rdf:resource="http://purl.org/dc/dcmitype/StillImage" />
        <dc:title></dc:title>
      </cc:Work>
    </rdf:RDF>
  </metadata>
  <g
     id="layer1"
     transform="translate(-75.578818,-109.02181)">
    <g
       id="layer1-9"
       transform="matrix(0.40876576,0,0,0.40876576,47.347193,81.820676)">
      <path
         style="fill:#ffffff;fill-rule:evenodd;stroke-width:1.14664"
         d="m 179.57572,114.60269 c -9.26028,0 -16.76737,-8.03798 -16.76737,-17.012762 H 99.551398 v 3.281722 h 4.572822 v 15.25723 h -8.384259 v -7.62863 H 91.92963 v 7.62863 h -9.14562 v -7.62863 h -3.810298 v 7.62863 h -8.384249 v -15.25723 h 4.572781 v -3.280596 h -6.09671 V 84.317525 h 93.742816 c 0,-8.974812 7.50709,-17.772979 16.76737,-17.772979 9.26434,0.0044 16.77116,7.517933 16.76737,16.782278 V 97.82041 c 0.004,9.26435 -7.50303,16.77784 -16.76737,16.78228 z m 4.57283,-28.991748 c 0.002,-2.527099 -2.04573,-4.57691 -4.57283,-4.57691 -2.52709,0 -4.57508,2.049811 -4.57282,4.57691 v 9.925347 c -0.002,2.5271 2.04573,4.576911 4.57282,4.576911 2.5271,0 4.57508,-2.049811 4.57283,-4.576911 z"
         class="cls-1"
         id="IconGraphic" />
      <rect
         style="fill:#ffffff;fill-opacity:1;stroke:#ffffff;stroke-width:0.0429402;stroke-opacity:1"
         id="rect4587"
         width="105.75599"
         height="7.0161381"
         x="77.391968"
         y="126.95258"
         ry="0" />
      <rect
         style="fill:#ffffff;fill-opacity:1;stroke:#ffffff;stroke-width:0.0428672;stroke-opacity:1"
         id="rect4587-3"
         width="105.6838"
         height="6.9970918"
         x="77.442245"
         y="235.33359"
         ry="0" />
      <rect
         style="fill:#ffffff;fill-opacity:1;stroke:#ffffff;stroke-width:0.0415106;stroke-opacity:1"
         id="rect4587-7"
         width="6.0101676"
         height="115.374"
         x="-92.595268"
         y="-242.31955"
         ry="0"
         transform="scale(-1)" />
      <rect
         style="fill:#ffffff;fill-opacity:1;stroke:#ffffff;stroke-width:0.0414548;stroke-opacity:1"
         id="rect4587-7-4"
         width="6.0102234"
         height="115.063"
         x="-173.69295"
         y="-241.90317"
         ry="0"
         transform="scale(-1)" />
      <path
         style="fill:#ffffff;fill-rule:evenodd;stroke-width:0.406266"
         d="m 139.15896,198.06683 v 26.81356 a 4.468931,4.468931 0 0 1 -8.93786,0 v -26.81356 h -1.62506 v 26.81356 a 4.46893,4.46893 0 0 1 -8.93786,0 v -26.83427 a 4.8727559,4.8727559 0 0 1 -4.46893,-4.85448 v -25.59477 a 4.8751934,4.8751934 0 0 1 4.87519,-4.87519 h 19.09452 a 4.8751934,4.8751934 0 0 1 4.87518,4.87519 v 25.59477 a 4.8751934,4.8751934 0 0 1 -4.87518,4.87519 z m -9.54726,-37.78275 a 9.5472538,9.5472538 0 1 1 9.54726,-9.54726 9.5472538,9.5472538 0 0 1 -9.54726,9.54726 z"
         class="cls-1"
         id="IconGraphic-8-6" />
      <rect
         style="fill:#ffffff;fill-opacity:1;stroke:#ffffff;stroke-width:0.0410348;stroke-opacity:1"
         id="rect4587-7-6"
         width="6.0106435"
         height="112.7351"
         x="-110.4436"
         y="-241.6357"
         ry="0"
         transform="scale(-1)" />
      <rect
         style="fill:#ffffff;fill-opacity:1;stroke:#ffffff;stroke-width:0.0410348;stroke-opacity:1"
         id="rect4587-7-6-8"
         width="6.0106435"
         height="112.73512"
         x="-154.17204"
         y="-241.6357"
         ry="0"
         transform="scale(-1)" />
      <g
         id="g917"
         transform="translate(-48.384544,75.846042)">
        <path
           style="fill:#fefefe;stroke-width:0.195723"
           d="m 271.11974,138.74197 c -0.18956,-0.21531 -0.24465,-2.76988 -0.24465,-11.34446 v -11.06657 h -11.0723 c -9.33503,0 -11.11617,-0.0438 -11.3519,-0.2796 -0.41692,-0.41693 -0.41692,-17.030352 0,-17.447262 0.23573,-0.23573 2.01687,-0.27961 11.3519,-0.27961 h 11.0723 V 87.252177 c 0,-9.335025 0.0438,-11.116165 0.2796,-11.351897 0.41691,-0.416916 17.03034,-0.416916 17.44725,0 0.23574,0.235732 0.27961,2.016872 0.27961,11.351897 v 11.072291 h 11.07229 c 9.33503,0 11.11617,0.0439 11.3519,0.27961 0.41691,0.41691 0.41691,17.030332 0,17.447262 -0.23573,0.23572 -2.01687,0.2796 -11.3519,0.2796 h -11.07229 v 11.0723 c 0,9.33502 -0.0439,11.11616 -0.27961,11.3519 -0.41533,0.41533 -17.11601,0.40276 -17.4822,-0.0131 z"
           id="path919" />
      </g>
    </g>
  </g>
</svg>
