<?xml version="1.0"?>
<svg xmlns="http://www.w3.org/2000/svg" id="Layer_1" data-name="Layer 1" viewBox="0 0 512 512" width="512" height="512"><path d="M216.822,290.75a43.363,43.363,0,0,1,55.846-58.92l18.5-19.52a69.183,69.183,0,0,0-92.858,97.967Z"/><path d="M299.184,271.789a43.348,43.348,0,0,1-75.467,29.131l-17.8,18.775A69.173,69.173,0,1,0,300.983,219.4l-17.8,18.777A43.3,43.3,0,0,1,299.184,271.789Z"/><path d="M224.449,271.789a31.282,31.282,0,0,0,1.439,9.4L263.6,241.4a31.376,31.376,0,0,0-39.149,30.389Z"/><path d="M255.817,303.157A31.351,31.351,0,0,0,274.9,246.92l-42.894,45.255A31.3,31.3,0,0,0,255.817,303.157Z"/><path d="M174.6,271.789A81.156,81.156,0,0,1,299.59,203.428l31.253-32.974-5.485-21.769a32.076,32.076,0,0,0-31.139-24.267h-76.65a32.034,32.034,0,0,0-31.195,24.5l-5.4,22.138H132.112A32.148,32.148,0,0,0,100,203.164V355.47a32.167,32.167,0,0,0,25.659,31.46l64.24-67.775A80.755,80.755,0,0,1,174.6,271.789Z"/><path d="M412,355.47V203.164a32.148,32.148,0,0,0-32.112-32.111H346.81L309.241,210.69A81.167,81.167,0,1,1,197.662,328.409l-56.086,59.172H379.888A32.148,32.148,0,0,0,412,355.47Z"/><path d="M256,10A246,246,0,0,0,82.052,429.949a246,246,0,1,0,347.9-347.9A244.39,244.39,0,0,0,256,10ZM421.463,421.463a233.988,233.988,0,0,1-320.928,9.419l41.041-43.3h-9.464a32.137,32.137,0,0,1-6.453-.651l-33.88,35.745c-.413-.406-.832-.8-1.242-1.212A234,234,0,0,1,413.655,83.085l-82.812,87.369.151.6H346.81l75.5-79.651a233.979,233.979,0,0,1-.843,330.061Z"/></svg>
