<?xml version="1.0" encoding="UTF-8" standalone="no"?>
<svg
   xmlns:dc="http://purl.org/dc/elements/1.1/"
   xmlns:cc="http://creativecommons.org/ns#"
   xmlns:rdf="http://www.w3.org/1999/02/22-rdf-syntax-ns#"
   xmlns:svg="http://www.w3.org/2000/svg"
   xmlns="http://www.w3.org/2000/svg"
   width="49.746284mm"
   height="50.167988mm"
   viewBox="0 0 49.746284 50.167988"
   version="1.1"
   id="svg8">
  <defs
     id="defs2">
    <style
       id="style2">
      .cls-1 {
        fill-rule: evenodd;
      }
    </style>
  </defs>
  <metadata
     id="metadata5">
    <rdf:RDF>
      <cc:Work
         rdf:about="">
        <dc:format>image/svg+xml</dc:format>
        <dc:type
           rdf:resource="http://purl.org/dc/dcmitype/StillImage" />
        <dc:title></dc:title>
      </cc:Work>
    </rdf:RDF>
  </metadata>
  <g
     id="layer1"
     transform="translate(-120.09963,-170.30556)">
    <path
       id="IconGraphic"
       class="cls-1"
       d="m 132.10389,210.52941 v 3.06308 h -3.74465 v -3.16389 c -2.12265,-0.19187 -4.1242,-1.07305 -5.69912,-2.50904 -1.62454,-1.4575 -2.43681,-3.99997 -2.43681,-7.62741 v -1.592 h 8.13593 v 1.99496 c 0,2.18987 0.084,3.55018 0.25189,4.08093 0.16792,0.53076 0.57361,0.79605 1.21708,0.79587 0.47669,0.0342 0.93851,-0.17413 1.22846,-0.55404 0.26847,-0.36935 0.4027,-0.91686 0.4027,-1.64253 0,-1.82703 -0.12753,-3.13355 -0.38259,-3.91954 -0.25506,-0.78599 -1.12774,-1.64244 -2.61805,-2.56937 -2.48391,-1.55821 -4.17222,-2.7035 -5.06492,-3.43587 -0.98492,-0.85302 -1.77476,-1.90797 -2.3159,-3.09325 -0.66887,-1.40939 -1.00317,-2.95422 -0.97684,-4.51405 0,-2.43153 0.68792,-4.33926 2.06375,-5.72321 1.37583,-1.38395 3.44064,-2.23705 6.19442,-2.55931 v -2.59953 h 3.74465 v 2.59953 c 2.51037,0.32244 4.38997,1.16549 5.6388,2.52915 1.24883,1.36366 1.87316,3.24785 1.87299,5.65256 0,0.33514 -0.0265,0.8457 -0.0794,1.53167 h -8.13753 v -1.34937 c 0,-1.43739 -0.094,-2.37781 -0.28204,-2.82126 -0.18803,-0.44344 -0.59082,-0.66507 -1.20836,-0.66489 -0.44899,-0.0247 -0.87632,0.19496 -1.1176,0.57441 -0.24853,0.38294 -0.3727,0.95726 -0.37253,1.72296 0,1.27653 0.25506,2.16994 0.76517,2.68023 0.49654,0.51065 1.95995,1.50478 4.39024,2.98239 2.06727,1.24936 3.47697,2.20662 4.2291,2.87178 0.83585,0.78751 1.48587,1.75125 1.90288,2.82126 0.51682,1.21602 0.77532,2.73076 0.77549,4.54421 0,2.9016 -0.69815,5.17878 -2.09444,6.83155 -1.39629,1.65276 -3.49056,2.67343 -6.28279,3.06202 z m 24.64832,-14.92673 h 10.04782 v 17.26168 l 3.04588,-0.0452 -7.92295,7.65439 -8.21663,-7.65439 3.04588,0.0455 z"
       style="fill:#ffffff;fill-rule:evenodd;stroke-width:0.264583" />
    <path
       style="fill:#fefefe;stroke-width:0.0416791"
       d="m 159.99532,191.82157 c 0,-0.13357 0.50132,-6.28491 0.54823,-6.72707 l 0.022,-0.20725 h -2.94589 -2.94591 l 0.0116,-0.12418 c 0.008,-0.0886 1.41952,-2.13153 4.91446,-7.11268 2.69683,-3.84369 4.95363,-7.06757 5.01513,-7.1642 0.13055,-0.20516 0.28469,-0.24433 0.28355,-0.0721 -4.1e-4,0.057 -0.61781,2.20724 -1.37209,4.77832 l -1.37141,4.67469 3.08826,0.0117 3.08827,0.0117 -7e-4,0.10333 c -10e-4,0.15699 -8.12386,11.93496 -8.24434,11.95435 -0.0786,0.0126 -0.0906,-0.005 -0.0906,-0.12684 z"
       id="path484" />
  </g>
</svg>
