<svg id="Capa_1" enable-background="new 0 0 508.426 508.426" height="512" viewBox="0 0 508.426 508.426" width="512" xmlns="http://www.w3.org/2000/svg"><g id="XMLID_251_"><path id="XMLID_252_" d="m354.569 315.642v-64.172c0-9.49 7.721-17.21 17.21-17.21h.193c38.392 0 69.625-34.175 69.625-76.182v-80.76h-255.62v80.76c0 42.007 31.233 76.182 69.625 76.182 9.489 0 17.21 7.721 17.21 17.21v64.172z"/><path id="XMLID_266_" d="m185.978 0h255.62v47.317h-255.62z"/><path id="XMLID_1143_" d="m409.231 346.028-70.78 65.444-20.367-22.027 47.375-43.804h-58.179l-71.198 65.831-20.367-22.027 47.375-43.804h-58.179l-71.199 65.831-20.367-22.027 47.376-43.803h-52.488c-58.856 0-106.739 47.883-106.739 106.739v4.806c0 28.253 22.985 51.239 51.239 51.239h402.961c28.254 0 51.239-22.986 51.239-51.239v-4.806c0-55.812-43.06-101.749-97.702-106.353z"/></g></svg>