<?xml version="1.0" encoding="UTF-8" standalone="no"?>
<svg
   xmlns:dc="http://purl.org/dc/elements/1.1/"
   xmlns:cc="http://creativecommons.org/ns#"
   xmlns:rdf="http://www.w3.org/1999/02/22-rdf-syntax-ns#"
   xmlns:svg="http://www.w3.org/2000/svg"
   xmlns="http://www.w3.org/2000/svg"
   width="18.785419mm"
   height="57.474037mm"
   viewBox="0 0 18.785419 57.474037"
   version="1.1"
   id="svg8">
  <defs
     id="defs2">
    <style
       id="style2">
      .cls-1 {
        fill-rule: evenodd;
      }
    </style>
    <style
       id="style2-8">
      .cls-1 {
        fill-rule: evenodd;
      }
    </style>
  </defs>
  <metadata
     id="metadata5">
    <rdf:RDF>
      <cc:Work
         rdf:about="">
        <dc:format>image/svg+xml</dc:format>
        <dc:type
           rdf:resource="http://purl.org/dc/dcmitype/StillImage" />
        <dc:title></dc:title>
      </cc:Work>
    </rdf:RDF>
  </metadata>
  <g
     id="layer1"
     transform="translate(-133.97366,-131.30644)">
    <path
       id="IconGraphic"
       class="cls-1"
       d="m 149.58408,145.38881 c 1.7535,0 3.175,1.4215 3.175,3.175 v 16.66875 c 0,1.7535 -1.4215,3.175 -3.175,3.175 v 17.4625 c 0,3.88056 -5.82084,3.88056 -5.82084,0 v -17.4625 h -1.05833 v 17.4625 c -0.004,3.87636 -5.81664,3.87636 -5.82083,0 v -17.47599 c -1.64461,-0.13677 -2.90991,-1.51122 -2.91042,-3.16151 v -16.66875 c 0,-1.7535 1.4215,-3.175 3.175,-3.175 z m -11.90625,12.7 -1.32292,3.43958 h 3.43958 l 0.70141,-1.8706 c 0.0292,0.0123 0.0606,0.0186 0.0923,0.0185 h 3.70417 c 0.15225,-0.005 0.28066,-0.11501 0.30956,-0.26458 l 0.35878,-2.11667 h 4.88791 v -5.02708 h -2.11667 v 1.05833 h -10.05416 l -1.5875,3.96875 h 1.32291 c 0.61093,0 0.26459,0.79375 0.26459,0.79375 z m 3.52636,-0.80433 h 2.77813 c 0.0978,-0.0124 0.18042,0.0718 0.16616,0.16933 l -0.28972,1.524 c -0.0294,0.10224 -0.12408,0.1718 -0.23045,0.16933 h -2.77813 c -0.0978,0.0124 -0.18048,-0.0718 -0.16642,-0.16933 l 0.28972,-1.524 c 0.0295,-0.10228 0.12428,-0.17182 0.23071,-0.16933 z"
       style="fill:#ffffff;fill-rule:evenodd;stroke-width:0.264583" />
    <path
       id="IconGraphic-1"
       class="cls-1"
       d="m 143.33533,143.78023 c -5.55138,0 -8.33052,-6.71137 -4.40557,-10.63631 3.92493,-3.92494 10.63629,-1.14581 10.63629,4.40556 0,3.44116 -2.78959,6.23075 -6.23072,6.23075 z"
       style="fill:#ffffff;fill-rule:evenodd;stroke-width:0.265138" />
  </g>
</svg>
