<svg height="512pt" viewBox="0 0 512 512" width="512pt" xmlns="http://www.w3.org/2000/svg"><path d="m391.308594 135.640625c0-74.609375-60.371094-135.640625-135-135.640625-36.050782 0-69.945313 14.6875-95.464844 40.191406-52.617188 52.632813-52.617188 138.28125 0 190.914063 25.519531 25.503906 59.414062 39.535156 95.464844 39.535156 74.644531 0 135-60.398437 135-135zm-120.308594 74.597656v16.5625c0 8.289063-6.710938 15-15 15s-15-6.710937-15-15v-16.730469c-9.898438-3.546874-18.566406-10.210937-23.964844-19.554687-4.160156-7.179687-1.699218-16.347656 5.464844-20.492187 7.175781-4.191407 16.347656-1.714844 20.492188 5.460937 2.679687 4.644531 7.660156 7.515625 13.007812 7.515625 8.277344 0 15-6.722656 15-15s-6.722656-15-15-15c-24.8125 0-45-20.1875-45-45 0-19.53125 12.578125-36.023438 30-42.238281v-17.160157c0-8.292968 6.710938-15 15-15s15 6.707032 15 15v17.328126c9.898438 3.542968 18.566406 10.210937 23.964844 19.554687 4.160156 7.179687 1.699218 16.347656-5.464844 20.492187-7.25 4.160157-16.375 1.699219-20.492188-5.460937-2.679687-4.644531-7.660156-7.515625-13.007812-7.515625-8.277344 0-15 6.722656-15 15s6.722656 15 15 15c24.8125 0 45 20.1875 45 45 0 19.53125-12.578125 36.023438-30 42.238281zm0 0"/><path d="m482 122c-16.570312 0-30 13.429688-30 30v147.421875c0 3.976563-1.578125 7.792969-4.394531 10.605469l-82.046875 82.046875c-5.859375 5.859375-15.351563 5.859375-21.210938 0s-5.859375-15.351563 0-21.210938l53.863282-53.863281c11.714843-11.714844 11.714843-30.707031 0-42.421875-11.714844-11.714844-30.707032-11.714844-42.421876 0l-61.816406 61.816406c-14.066406 14.070313-21.972656 33.148438-21.972656 53.046875v107.558594c0 8.285156 6.714844 15 15 15h90c8.285156 0 15-6.714844 15-15v-37.734375l98.027344-98.027344c14.066406-14.066406 21.972656-33.148437 21.972656-53.046875v-156.191406c0-16.570312-13.429688-30-30-30zm0 0"/><path d="m156.210938 274.578125c-11.714844-11.714844-30.707032-11.714844-42.421876 0-11.714843 11.714844-11.714843 30.707031 0 42.421875l53.863282 53.863281c5.859375 5.859375 5.859375 15.351563 0 21.210938-5.863282 5.859375-15.351563 5.859375-21.210938 0l-82.050781-82.050781c-2.8125-2.808594-4.390625-6.625-4.390625-10.601563v-147.421875c0-16.570312-13.429688-30-30-30s-30 13.429688-30 30v156.191406c0 19.898438 7.90625 38.980469 21.972656 53.046875l98.027344 98.027344v37.734375c0 8.285156 6.714844 15 15 15h90c8.285156 0 15-6.714844 15-15v-107.558594c0-19.898437-7.90625-38.976562-21.972656-53.046875zm0 0"/></svg>