<?xml version="1.0" encoding="UTF-8" standalone="no"?>
<svg
   xmlns:dc="http://purl.org/dc/elements/1.1/"
   xmlns:cc="http://creativecommons.org/ns#"
   xmlns:rdf="http://www.w3.org/1999/02/22-rdf-syntax-ns#"
   xmlns:svg="http://www.w3.org/2000/svg"
   xmlns="http://www.w3.org/2000/svg"
   width="34.418476mm"
   height="27.505249mm"
   viewBox="0 0 34.418476 27.505249"
   version="1.1"
   id="svg8">
  <defs
     id="defs2">
    <style
       id="style2">
      .cls-1 {
        fill-rule: evenodd;
      }
    </style>
    <style
       id="style2-2">
      .cls-1 {
        fill-rule: evenodd;
      }
    </style>
  </defs>
  <metadata
     id="metadata5">
    <rdf:RDF>
      <cc:Work
         rdf:about="">
        <dc:format>image/svg+xml</dc:format>
        <dc:type
           rdf:resource="http://purl.org/dc/dcmitype/StillImage" />
        <dc:title></dc:title>
      </cc:Work>
    </rdf:RDF>
  </metadata>
  <g
     id="layer1"
     transform="translate(-47.929071,-112.63521)">
    <g
       id="g861"
       transform="matrix(0.42233481,-0.267151,0.267151,0.42233481,-21.669688,114.32963)">
      <path
         style="fill:#fefefe;stroke-width:0.0846667"
         d="m 132.48281,120.6024 c -1.61228,-0.97778 -2.69342,-1.80785 -4.1928,-3.21913 -0.96932,-0.91237 -1.40901,-1.40423 -2.05884,-2.30313 -1.15447,-1.59696 -1.10552,-1.51893 -1.79886,-2.86754 -0.344,-0.6691 -0.67501,-1.2359 -0.73559,-1.25955 -0.0606,-0.0237 -0.19638,0.038 -0.30179,0.13705 -0.10541,0.099 -0.23494,0.18004 -0.28786,0.18004 -0.46274,0 -1.00292,0.22028 -1.39575,0.56917 -0.54033,0.47989 -0.73364,0.55969 -1.88479,0.77808 -0.96931,0.18388 -1.94451,0.23203 -2.02609,0.10003 -0.0261,-0.0422 -0.12823,-0.0556 -0.227,-0.0298 -0.25162,0.0658 -0.62612,0.90586 -0.84124,1.88702 -0.44616,2.03505 -0.50301,2.40896 -0.50301,3.30888 v 0.92439 l -0.27516,0.16778 c -0.66088,0.40294 -2.35581,0.0582 -3.19802,-0.65048 -0.29297,-0.24652 -0.3209,-0.51507 -0.12174,-1.17079 0.0707,-0.23283 0.29911,-1.25765 0.50754,-2.27739 l 0.37896,-1.85405 -0.20697,-0.43195 c -0.26652,-0.55619 -0.49493,-0.81294 -0.72324,-0.81294 -0.10038,0 -0.25537,-0.039 -0.34442,-0.0867 -0.18146,-0.0971 -0.6152,0.10063 -2.40928,1.09838 -0.5588,0.31077 -1.53035,0.84522 -2.159,1.18767 -0.62865,0.34246 -1.5621,0.87859 -2.07433,1.19141 -0.51224,0.31281 -1.14089,0.67246 -1.397,0.79922 -0.25612,0.12676 -0.57997,0.33883 -0.71967,0.47127 -0.1397,0.13244 -0.39429,0.29931 -0.56575,0.37082 -0.37309,0.15561 -3.604321,2.04984 -5.769076,3.38199 -1.333366,0.82053 -1.712611,0.99766 -2.071338,0.96746 -0.284726,-0.024 -0.318875,-0.0572 -0.461403,-0.44923 -0.08466,-0.23283 -0.301984,-0.99483 -0.482951,-1.69333 -0.180967,-0.6985 -0.503808,-1.85815 -0.717424,-2.577 -0.213617,-0.71886 -0.388394,-1.45739 -0.388394,-1.64118 0,-0.1838 -0.0445,-0.48269 -0.09888,-0.66421 -0.0754,-0.25166 -0.0754,-0.35353 0,-0.42893 0.05439,-0.0544 0.09888,-0.16041 0.09888,-0.23562 0,-0.1421 0.369796,-0.26262 7.423146,-2.41934 l 2.89348,-0.88475 1.04352,0.0541 1.04352,0.0541 2.58234,-1.03041 c 1.51658,-0.60516 2.64348,-1.10241 2.7305,-1.20484 0.0815,-0.0959 0.1483,-0.25593 0.14848,-0.35554 5.1e-4,-0.27846 0.30883,-0.72082 0.54348,-0.77972 0.12695,-0.0319 0.36834,-0.26794 0.60866,-0.59527 0.30769,-0.4191 0.46744,-0.56056 0.7024,-0.622 0.30783,-0.0805 5.50418,-1.01849 11.77648,-2.12577 1.88595,-0.33293 3.43258,-0.61097 3.43696,-0.61785 0.004,-0.007 0.10911,-0.3418 0.23273,-0.74425 0.14118,-0.45961 0.27991,-0.75623 0.37304,-0.79758 0.0815,-0.0362 0.60547,-0.0713 1.16427,-0.078 1.06474,-0.0128 1.99898,-0.14951 2.28674,-0.33469 0.0959,-0.0617 0.59834,-0.1362 1.15205,-0.1708 l 0.98197,-0.0614 0.18445,0.2345 c 0.17926,0.22789 0.19572,0.23168 0.58362,0.1343 0.21954,-0.0551 1.38977,-0.26953 2.6005,-0.47649 1.21073,-0.20696 2.75282,-0.47353 3.42686,-0.59237 1.29751,-0.22877 2.50492,-0.285416 2.56002,-0.120105 0.0633,0.189825 1.28153,0.08303 3.57368,-0.313343 1.35354,-0.234052 2.40307,-0.376597 2.53289,-0.344014 0.12192,0.0306 0.45651,0.265174 0.74353,0.521275 0.59636,0.532127 1.07347,0.711057 1.93736,0.726567 0.56762,0.0102 4.29168,-0.620012 4.40293,-0.745089 0.12856,-0.144539 0.47794,-1.77415 0.4149,-1.935254 -0.11525,-0.294581 -0.0853,-1.033236 0.0473,-1.165823 0.0681,-0.06809 0.45086,-0.17246 0.8506,-0.231931 0.91203,-0.135687 0.93557,-0.116285 1.15037,0.948072 0.088,0.435912 0.22691,1.036999 0.30876,1.335751 l 0.1488,0.543183 0.42334,0.0071 c 0.39638,0.0067 0.43275,0.02601 0.57137,0.303482 0.29414,0.588819 0.15132,1.324429 -0.27364,1.409419 -0.22529,0.0451 -0.2554,0.0858 -0.2554,0.3453 0,0.22171 -0.0709,0.36516 -0.28787,0.58208 -0.25662,0.25663 -0.33771,0.28787 -0.74717,0.28787 -0.48167,0 -1.60043,-0.3309 -1.83676,-0.54326 -0.11596,-0.1042 -0.25276,-0.0983 -1.02287,0.0439 -0.48895,0.0903 -1.41293,0.25642 -2.05329,0.36919 -1.2435,0.21898 -1.33337,0.24745 -1.33337,0.42247 0,0.14397 -0.17251,0.21637 -0.80434,0.33761 -0.44393,0.0852 -0.51124,0.12368 -0.53369,0.30529 -0.0141,0.11431 -0.12842,0.33118 -0.254,0.48194 -0.20741,0.24902 -0.28458,0.2792 -0.84311,0.32975 -0.49226,0.0446 -0.64414,0.0295 -0.762,-0.0754 -0.13322,-0.11857 -0.25574,-0.11241 -1.2902,0.0649 -1.87784,0.32184 -3.47722,0.62794 -3.56522,0.68233 -0.0454,0.0281 -0.14071,0.19633 -0.21177,0.37391 -0.10457,0.26135 -0.18052,0.33031 -0.3986,0.36192 -0.14817,0.0215 -0.76471,0.12401 -1.37008,0.22786 -3.75486,0.6441 -4.34663,0.78304 -6.18066,1.45116 -0.74522,0.27147 -0.80304,0.27893 -2.62467,0.33848 -1.35321,0.0442 -2.09424,0.10868 -2.70933,0.23563 -0.46567,0.0961 -1.20862,0.23512 -1.651,0.30893 -1.28424,0.21427 -1.43934,0.26871 -1.43934,0.50521 0,0.25643 0.88535,1.97785 1.45528,2.82954 0.66439,0.99285 1.16557,1.59165 2.02791,2.42292 1.21601,1.17221 2.56477,2.14007 3.90398,2.80147 0.57467,0.28381 0.65617,0.35226 0.65617,0.55103 0,0.24263 -1.65242,3.86653 -1.8891,4.14294 -0.25297,0.29544 -0.55454,0.20062 -1.83862,-0.57811 z m -13.62343,-8.76076 c -0.0992,-0.15134 -0.33592,-0.53234 -0.52596,-0.84667 -0.32613,-0.53942 -0.558,-0.75062 -0.46476,-0.42333 0.0232,0.0815 0.0864,0.37677 0.14046,0.65617 0.14098,0.72893 0.26444,0.889 0.68567,0.889 h 0.34503 z m 1.62703,-0.0929 c 0.32971,-0.13803 0.88276,-0.73177 0.95695,-1.02736 0.066,-0.26274 -0.014,-0.72501 -0.15989,-0.92452 -0.10262,-0.14034 -0.14546,-0.13863 -0.82443,0.0329 -0.75572,0.19098 -0.95918,0.34198 -1.05875,0.78579 -0.0604,0.26924 0.26334,0.89845 0.57436,1.1163 0.22471,0.15739 0.17958,0.15591 0.51176,0.0168 z m 26.71944,-8.26483 c 1.83927,-0.30978 2.12899,-0.37496 2.03629,-0.45808 -0.0603,-0.0541 -3.92529,0.63776 -4.01038,0.71789 -0.10322,0.0972 -0.29706,0.12271 1.97409,-0.25981 z"
         id="path871" />
    </g>
    <path
       id="IconGraphic"
       class="cls-1"
       d="m 70.918293,120.29682 -4e-5,0.7345 2.2901,9e-5 v -0.73453 l 0.30243,4e-5 1e-5,0.56166 h 4.45034 l 0.64239,0.82087 3.24629,7e-5 a 0.17283564,0.17283564 0 0 1 0,0.34567 l -3.24054,-10e-6 -0.64804,0.86405 -4.45039,-3e-5 4e-5,0.5617 h -0.30247 l -6e-5,-0.77761 -2.28998,3e-5 -2e-5,0.7345 -0.51848,1e-5 1e-5,-3.11095 z m 4.31985,2.33318 1.71764,1.2e-4 -1.17598,-1.55538 h -0.54144 l 0.60569,0.76114 z m -1.77055,-0.21595 1.55757,3e-5 0.42997,-0.57368 -0.42995,-0.54973 -1.55758,-3e-5 z m -2.54921,-0.0432 2.28994,-1e-5 3e-5,-1.03697 -2.29,10e-6 z"
       style="fill:#ffffff;fill-rule:evenodd;stroke-width:0.0432072" />
    <path
       id="IconGraphic-5"
       class="cls-1"
       d="m 79.548516,135.95012 0.07771,0.15434 0.583171,-0.27017 v 0.19304 c 0.4127,-0.2271 1.568871,-0.1975 2.138152,0.0771 l -0.03886,0.0772 c -0.486692,0.1393 -0.715116,0.48033 -1.166257,0.61764 0.03745,0.16816 0.108796,0.10277 -0.03894,0.23149 l -0.544231,0.15434 c 0.07366,0.12542 0.08986,0.0928 0.0778,0.23149 -0.214369,0.0702 -0.383103,0.17055 -0.622026,0.11573 l 0.07771,0.23149 h -0.8941 v 0.0386 l 0.07771,0.19295 -2.565733,-0.15435 v 0.0385 c 1.280097,0.22082 2.312755,1.25546 2.837972,2.20015 v 0.0387 h -0.155506 c -0.518024,-0.16998 -0.928079,-0.29382 -1.321764,-0.57871 -0.02596,0.0386 -0.05189,0.0772 -0.0778,0.11574 l -0.505376,-0.34722 -0.03886,0.11575 -0.544231,-0.50182 c -0.154183,0.10077 -0.01786,0.0808 -0.194445,0 l -0.505375,-0.8102 h -0.0778 c 0.01298,1.11922 0.02596,0.64385 0.03886,1.76307 -0.144346,-0.14402 -0.09631,-0.20742 -0.38856,-0.23148 0.198414,-0.36715 0.200729,-1.12235 0.07771,-1.60872 -0.73446,0.70106 -1.230494,1.00934 -2.021501,1.46677 -0.119958,-0.072 -0.08788,0.023 -0.07771,-0.11574 -0.515461,0.21495 -0.989669,0.46247 -1.59392,0.61757 0.07441,-0.2491 0.315394,-0.44271 0.505375,-0.57871 0.382442,-0.92089 1.620376,-1.43924 2.954541,-1.69834 v -0.0394 c -0.895754,8.4e-4 -2.514973,0.3583 -2.760179,0.15443 -0.163872,0.10027 -0.352115,0.15366 -0.544231,0.15435 l 0.03886,-0.19296 c -0.34433,0.12657 -1.01414,0.11806 -1.321764,-0.11574 0.04051,-0.10144 0.06077,-0.064 0.03886,-0.15443 -0.205771,0.06 -0.401373,0.0118 -0.583087,-0.0385 l 0.07771,-0.19304 c -0.441965,-0.0146 -0.816885,-0.17419 -1.282908,-0.27017 v -0.0386 l 0.03886,-0.0772 c 0.633517,-0.18701 1.178244,-0.5291 1.94379,-0.46297 l -0.03886,-0.15443 0.58317,0.11574 -0.03885,-0.15443 0.622025,0.11574 c 0.01554,-0.14682 -0.04373,-0.048 0.03886,-0.15443 l 0.505375,0.23148 v -0.15443 l 2.721323,1.23512 v -0.0385 c -0.43527,-0.58755 -1.194284,-1.17916 -1.904935,-1.42817 l 0.07771,-0.15443 c -0.399472,-0.0772 -1.472806,-0.93047 -1.632777,-1.19659 l 0.116651,-0.0385 c -0.223216,-0.18642 -0.497936,-0.21065 -0.660883,-0.46296 l 0.194363,-0.11574 c -0.242726,-0.2071 -0.491486,-0.25116 -0.660882,-0.54035 l 0.233219,-0.0772 c -0.220652,-0.21081 -0.458335,-0.25884 -0.505376,-0.65617 0.13426,0.0283 0.100198,0.0465 0.194362,-0.0386 -0.151289,-0.059 -0.418156,-0.42088 -0.466519,-0.73338 0.185764,-0.0687 0.105407,-0.0751 -0.03886,-0.19296 l -0.661047,-1.27406 0.03886,-0.0386 c 0.607393,0.29514 1.185189,0.80895 1.593921,1.27381 l 0.11665,-0.11574 c 0.204449,0.14733 0.3106,0.30589 0.46652,0.50182 0.187004,-0.1021 0.119957,-0.10053 0.311012,0.0386 l 0.272158,0.42451 0.233218,-0.11574 0.388559,0.50174 0.194363,-0.0772 0.233218,0.61765 0.233218,-0.11574 0.233302,0.61756 c 0.117146,-0.0475 0.07118,-0.0503 0.194363,-0.0386 l 0.155506,0.50183 0.155507,-0.0772 0.0778,0.5787 h 0.194942 l 0.03886,0.61764 0.155506,-0.0386 c 0.06878,0.65204 0.282326,1.4452 0.660882,1.81416 h 0.03885 v -0.0386 c -0.234293,-0.72075 -0.296958,-1.27547 -0.622025,-1.85278 0.101769,-0.0685 0.05299,-0.003 0.03885,-0.11573 -0.233797,-0.61285 -0.452713,-0.86327 -0.58317,-1.54391 0.149472,-0.0574 0.137898,-0.0293 0.03886,-0.15443 l -0.19461,-0.50158 0.155506,0.0386 -0.233218,-0.65625 0.194362,-0.0385 c -0.106511,-0.17388 -0.160512,-0.37484 -0.155507,-0.5787 l 0.311013,0.0386 v -0.0386 c -0.119378,-0.20825 -0.160714,-0.42386 -0.155506,-0.81019 l 0.311344,0.0763 c -0.05101,-0.28422 -0.08953,-0.54911 0,-0.84921 l 0.233301,0.0772 v -0.61755 l 0.194362,0.0772 c -0.0093,-0.46611 0.30349,-1.59558 0.505376,-2.08434 h 0.03885 l 0.03886,0.0386 c 0.05845,0.72347 0.376902,1.20164 0.388559,1.96852 0.153192,-0.008 0.09664,-0.064 0.194363,0.0386 0.07738,0.18189 -5.94e-4,0.36103 -0.03886,0.54043 0.170635,-0.0108 0.136988,-0.0627 0.233218,0.0386 l -0.03886,0.46296 h 0.194363 c -0.03858,0.27007 -0.07747,0.54013 -0.116651,0.81019 l 0.272157,-0.0386 v 0.15443 c -0.07771,0.21864 -0.155451,0.43736 -0.233218,0.65616 l 0.311013,-0.0386 v 0.11573 c -0.09077,0.21876 -0.181493,0.43751 -0.272157,0.65626 h 0.03886 l 0.194362,-0.0772 v 0.27083 c -0.14757,0.35061 -0.105655,0.73662 -0.155506,1.04217 l -0.38856,0.61756 c -0.05531,0.17833 0.134343,0.0496 0.11665,0.19304 -0.06919,0.56217 -0.620951,1.22198 -0.660881,2.08433 h 0.03886 l 0.03886,-0.0772 c 0.281086,-0.44767 0.732311,-1.64211 0.738676,-2.20015 l 0.194363,0.0386 0.07771,-0.57871 0.233301,0.0772 0.155506,-0.61765 0.194363,0.0772 0.233218,-0.5787 0.194445,0.11574 c 0.113013,-0.53961 0.505293,-0.67155 0.816389,-1.04217 0.117146,0.0475 0.07109,0.0504 0.194362,0.0386 0.0647,-0.14142 0.129492,-0.28293 0.194362,-0.42451 l 0.233219,0.0771 0.349869,-0.50174 c 0.143353,0.0711 0.02844,0.10102 0.155506,0.0386 0.485178,-0.43484 1.020223,-0.81059 1.593921,-1.11939 -0.123181,0.60136 -0.605161,1.23364 -0.933039,1.65974 l 0.233301,0.0386 c -0.06101,0.2801 -0.214038,0.38029 -0.38856,0.54035 l 0.233219,0.0386 c -0.01301,0.0386 -0.02596,0.0772 -0.03886,0.11575 l -0.544314,0.57871 0.272157,0.0386 c -0.111442,0.35235 -0.468255,0.42593 -0.738594,0.61757 v 0.038 l 0.194363,0.0772 -0.0778,0.0772 c -0.130953,0.19693 -0.330689,0.23148 -0.544231,0.34722 0.150463,0.15096 0.142444,0.0364 0.03886,0.23148 -0.720819,0.24414 -2.873108,1.8135 -3.148903,2.43173 h 0.03886 c 1.042744,-0.51563 2.184035,-1.15394 3.226201,-1.62054 z"
       style="fill:#ffffff;fill-rule:evenodd;stroke-width:0.0826721" />
  </g>
</svg>
