<?xml version="1.0" encoding="UTF-8" standalone="no"?>
<svg
   xmlns:dc="http://purl.org/dc/elements/1.1/"
   xmlns:cc="http://creativecommons.org/ns#"
   xmlns:rdf="http://www.w3.org/1999/02/22-rdf-syntax-ns#"
   xmlns:svg="http://www.w3.org/2000/svg"
   xmlns="http://www.w3.org/2000/svg"
   width="36.84293mm"
   height="37.587017mm"
   viewBox="0 0 36.84293 37.587017"
   version="1.1"
   id="svg42">
  <defs
     id="defs36" />
  <metadata
     id="metadata39">
    <rdf:RDF>
      <cc:Work
         rdf:about="">
        <dc:format>image/svg+xml</dc:format>
        <dc:type
           rdf:resource="http://purl.org/dc/dcmitype/StillImage" />
        <dc:title></dc:title>
      </cc:Work>
    </rdf:RDF>
  </metadata>
  <g
     id="layer1"
     transform="translate(-86.948361,-112.5319)">
    <path
       style="fill:#fefefe;stroke-width:0.072372"
       d="m 96.1888,149.89248 c 0,-0.23191 0.870498,-10.91316 0.95197,-11.68093 l 0.03819,-0.35988 h -5.115301 -5.115298 l 0.01928,-0.21563 c 0.01375,-0.1537 2.46485,-3.70121 8.533482,-12.35054 4.682817,-6.6742 8.601567,-12.27218 8.708337,-12.43997 0.22669,-0.35624 0.49435,-0.42426 0.49237,-0.12513 -7.3e-4,0.099 -1.07278,3.83267 -2.38252,8.29712 l -2.381344,8.11718 5.362504,0.0205 5.3625,0.0205 -0.001,0.17947 c -0.002,0.2726 -14.106375,20.72397 -14.315576,20.75763 -0.136377,0.0219 -0.157264,-0.007 -0.157264,-0.22024 z"
       id="path484" />
    <path
       style="fill:#fefefe;stroke-width:0.066054"
       d="m 115.89658,146.44164 c -0.14531,-0.0323 -0.40065,-0.0604 -0.56741,-0.0625 -0.41604,-0.005 -0.99695,-0.30768 -1.53119,-0.79722 -0.5538,-0.50746 -0.88296,-1.00782 -1.12736,-1.71373 -0.17145,-0.4952 -0.1957,-0.65748 -0.19792,-1.324 -0.004,-1.29333 0.34125,-2.17425 1.17889,-3.00546 0.8213,-0.81499 1.74953,-1.18395 2.97159,-1.18114 1.28492,0.003 2.21197,0.36127 3.02633,1.16972 0.84879,0.84261 1.19344,1.7153 1.19151,3.01688 -7.8e-4,0.67074 -0.0242,0.82566 -0.19788,1.324 -0.24487,0.70244 -0.57552,1.20684 -1.11537,1.70152 -0.58601,0.53697 -0.9986,0.74636 -1.61044,0.81728 -0.80197,0.0929 -1.73476,0.1182 -2.02075,0.0547 z m -2.04277,-10.48636 c -0.0224,-0.17256 -0.36703,-3.62802 -0.76611,-7.67878 -0.39909,-4.05076 -0.78666,-7.94465 -0.86128,-8.65307 -0.0747,-0.70843 -0.16258,-1.97172 -0.19549,-2.80731 -0.033,-0.83558 -0.0796,-1.6307 -0.10384,-1.76694 l -0.0441,-0.2477 h 4.77298 4.77297 l -0.0472,0.28073 c -0.0259,0.1544 -0.0725,0.93466 -0.10342,1.73391 -0.0309,0.79926 -0.14792,2.35978 -0.25998,3.46784 -0.11206,1.10806 -0.50003,5.01681 -0.86214,8.6861 -0.36212,3.66931 -0.67635,6.81266 -0.69827,6.98522 l -0.0399,0.31376 h -2.76187 -2.76187 z"
       id="path32" />
  </g>
</svg>
