<?xml version="1.0" encoding="UTF-8" standalone="no"?>
<svg
   xmlns:dc="http://purl.org/dc/elements/1.1/"
   xmlns:cc="http://creativecommons.org/ns#"
   xmlns:rdf="http://www.w3.org/1999/02/22-rdf-syntax-ns#"
   xmlns:svg="http://www.w3.org/2000/svg"
   xmlns="http://www.w3.org/2000/svg"
   width="41.463154mm"
   height="41.492451mm"
   viewBox="0 0 41.463154 41.492451"
   version="1.1"
   id="svg8">
  <defs
     id="defs2">
    <style
       id="style2">
      .cls-1 {
        fill-rule: evenodd;
      }
    </style>
  </defs>
  <metadata
     id="metadata5">
    <rdf:RDF>
      <cc:Work
         rdf:about="">
        <dc:format>image/svg+xml</dc:format>
        <dc:type
           rdf:resource="http://purl.org/dc/dcmitype/StillImage" />
        <dc:title></dc:title>
      </cc:Work>
    </rdf:RDF>
  </metadata>
  <g
     id="layer1"
     transform="translate(-100.05147,-158.80008)">
    <g
       id="g44"
       transform="matrix(1.2611736,0,0,1.2611736,2.9544867,-55.17172)">
      <path
         style="fill:#fefefe;stroke-width:0.080512"
         d="m 86.811243,190.35661 v -4.95148 h 2.627824 c 9.975334,9.90296 0,0 9.975334,9.90296 h -6.001177 -6.601981 z"
         id="path54" />
      <path
         style="fill:#fefefe;stroke-width:0.0805121"
         d="m 91.412817,181.37953 h 2.000407 7.246076 v 1.73101 1.731 h -5.612797 c -3.633686,-3.46201 0,0 -3.633686,-3.46201 z m 0.0093,-0.65715 c 0.163465,-0.39657 2.588684,-5.51596 2.639872,-5.57252 0.03509,-0.0388 0.969643,0.35563 2.076752,0.87645 l 2.012922,0.94696 -0.185018,0.41173 c -0.101774,0.22646 -0.449211,0.97332 -0.772089,1.65968 -0.322888,0.68636 -0.543531,1.17409 -0.611238,1.32872 -0.06571,0.12148 -0.09666,0.17569 -0.150949,0.28152 -0.08321,0.12272 -0.362304,0.2398 -0.362304,0.1124 0,-0.0267 0.362056,-0.82307 0.80457,-1.7696 0.442506,-0.94654 0.813872,-1.75752 0.825245,-1.80218 0.02738,-0.10764 -3.40711,-1.7204 -3.486531,-1.63718 -0.03386,0.0354 -0.603992,1.22394 -1.266903,2.64095 -1.014089,2.16765 -1.234134,2.58069 -1.387024,2.60359 -0.126616,0.0189 -0.168248,-0.005 -0.137305,-0.0806 z m 3.334972,0.0332 c -0.01883,-0.0332 -0.09622,-0.25017 -0.171927,-0.48213 -0.07569,-0.23194 -0.173003,-0.44359 -0.216213,-0.47029 -0.04318,-0.0267 -0.311676,0.0337 -0.596593,0.13433 -0.558033,0.19701 -0.555047,0.19727 -0.633043,-0.0569 -0.04612,-0.15025 0.0076,-0.1925 0.452946,-0.35469 0.2779,-0.10126 0.531065,-0.20611 0.562607,-0.23298 0.03157,-0.0269 -0.03166,-0.29396 -0.140366,-0.59352 l -0.197698,-0.54467 0.211905,-0.0806 c 0.116555,-0.0443 0.218704,-0.0704 0.227006,-0.0582 0.0085,0.0122 0.0983,0.25788 0.19999,0.5457 0.101692,0.28783 0.19395,0.53382 0.205029,0.54663 0.01103,0.0129 0.266669,-0.0695 0.567989,-0.18293 0.42729,-0.16083 0.56217,-0.18367 0.612864,-0.1038 0.155429,0.2449 0.06086,0.35675 -0.455865,0.53916 -0.287837,0.10162 -0.523335,0.20998 -0.523335,0.2408 0,0.0308 0.07713,0.28448 0.171434,0.56369 0.142744,0.42268 0.152852,0.51942 0.06038,0.57798 -0.137285,0.0869 -0.291564,0.0926 -0.337114,0.0125 z"
         id="path54-9" />
      <path
         style="fill:#fefefe;stroke-width:0.0805121"
         d="m 95.535107,185.40513 h 4.480103 v 4.52969 c -4.480103,-4.52969 0,0 -4.480103,-4.52969 z"
         id="path54-8" />
      <path
         style="fill:#fefefe;stroke-width:0.0805121"
         d="m 86.16715,183.11057 v -1.32819 c 2.930082,3.05919 0,0 2.930082,3.05919 H 86.16715 Z"
         id="path54-9-0" />
    </g>
    <path
       style="fill:#fefefe;stroke-width:0.0866131"
       d="m 118.61829,200.24354 c -0.26201,-0.0389 -0.78819,-0.0746 -1.16928,-0.0794 -0.83419,-0.0104 -1.65758,-0.17329 -2.98816,-0.59113 -2.81527,-0.88409 -5.09488,-2.15831 -7.50539,-4.19523 -1.10554,-0.9342 -1.87404,-1.79479 -3.39052,-3.79682 -0.28091,-0.37086 -1.19127,-1.91776 -1.52916,-2.59839 -0.73537,-1.48128 -1.48224,-3.64671 -1.73265,-5.02356 -0.23525,-1.29353 -0.321945,-4.40271 -0.18956,-6.79912 0.086,-1.55813 0.23369,-2.43498 0.63013,-3.74267 2.04976,-6.76155 7.23297,-11.95795 13.92543,-13.96088 1.78158,-0.53318 2.92818,-0.65626 6.11448,-0.65626 3.19144,0 4.33216,0.12282 6.1247,0.65938 2.96136,0.88644 5.46346,2.28712 7.91643,4.43165 1.71755,1.50159 3.6067,3.99406 4.70669,6.20981 0.73538,1.48128 1.48223,3.64671 1.73265,5.02356 0.33861,1.8618 0.33284,6.96886 -0.0103,8.82246 -0.71343,3.85751 -3.09475,8.15542 -6.0305,10.88409 -2.39171,2.223 -5.2766,3.88471 -8.32552,4.79548 -0.62382,0.18635 -1.27063,0.36637 -1.43737,0.40005 -0.94615,0.19112 -5.94818,0.34971 -6.84242,0.21695 z m 3.42121,-4.42234 c 2.12806,-0.20171 4.15905,-0.78159 5.95511,-1.70029 0.91766,-0.46939 2.178,-1.26131 2.70279,-1.69827 l 0.25646,-0.21353 -9.35082,-9.29614 c -14.96338,-14.87589 -13.52728,-13.48185 -13.68591,-13.28489 -0.44779,0.55603 -1.41192,2.11879 -1.7879,2.89803 -2.69653,5.58879 -1.9866,12.05086 1.87364,17.05462 0.50193,0.65063 1.99995,2.15108 2.7257,2.73015 1.94318,1.55043 4.41858,2.71725 6.80966,3.20985 1.77151,0.36497 2.97393,0.44522 4.50127,0.30047 z m 11.62302,-6.38388 c 0.0674,-0.0834 0.39541,-0.55808 0.72889,-1.05492 1.12607,-1.67762 1.94061,-3.66744 2.38471,-5.82543 0.2155,-1.04727 0.23726,-1.32379 0.23726,-3.0152 0,-1.69139 -0.0218,-1.96792 -0.23726,-3.01518 -0.87433,-4.24865 -3.20154,-7.81539 -6.76285,-10.3649 -0.92351,-0.66114 -3.05714,-1.74414 -4.16281,-2.11299 -1.92972,-0.64374 -4.35473,-0.9532 -6.19282,-0.79025 -3.15329,0.27952 -6.00658,1.34273 -8.43526,3.14319 l -0.59795,0.44328 11.424,11.3679 c 6.28319,6.25236 11.43919,11.36974 11.45775,11.37199 0.0186,0.002 0.0889,-0.0642 0.15634,-0.14749 z"
       id="path233" />
  </g>
</svg>
