<svg height="512pt" viewBox="0 -42 512 511" width="512pt" xmlns="http://www.w3.org/2000/svg"><path d="m81.808594 20.5c5.523437 0 10-4.476562 10-10s-4.476563-10-10-10h-.003906c-5.519532 0-9.996094 4.476562-9.996094 10s4.476562 10 10 10zm0 0"/><path d="m490 43.28125h-20.78125v-20.78125c0-12.132812-9.867188-22-22-22h-325.21875c-5.523438 0-10 4.476562-10 10s4.476562 10 10 10h325.21875c1.101562 0 2 .898438 2 2v351.652344c0 5.523437 4.476562 10 10 10s10-4.476563 10-10v-310.871094h20.78125c1.101562 0 2 .898438 2 2v308.871094c0 18.078125-14.703125 32.78125-32.78125 32.78125h-31.035156c-5.523438 0-10 4.480468-10 10 0 5.523437 4.476562 10 10 10h31.035156c29.105469 0 52.78125-23.675782 52.78125-52.78125v-308.871094c0-12.128906-9.867188-22-22-22zm0 0"/><path d="m399.453125 406.9375h-.269531c-5.523438 0-10 4.476562-10 10 0 5.519531 4.476562 10 10 10h.269531c5.523437 0 10-4.480469 10-10 0-5.523438-4.476563-10-10-10zm0 0"/><path d="m359.21875 406.9375h-306.4375c-18.074219 0-32.78125-14.707031-32.78125-32.785156v-351.652344c0-1.101562.898438-2 2-2h31.035156c5.523438 0 10-4.476562 10-10s-4.476562-10-10-10h-31.035156c-12.132812 0-22 9.867188-22 22v351.652344c0 29.105468 23.679688 52.78125 52.78125 52.78125h306.4375c5.523438 0 10-4.476563 10-10 0-5.519532-4.476562-9.996094-10-9.996094zm0 0"/><path d="m213.910156 223.851562c0 5.519532 4.480469 10 10 10h192.527344c5.519531 0 10-4.480468 10-10 0-5.523437-4.480469-10-10-10h-192.527344c-5.519531 0-10 4.476563-10 10zm0 0"/><path d="m223.910156 264.675781c-5.519531 0-10 4.476563-10 10 0 5.523438 4.480469 10 10 10h96.261719c5.523437 0 10-4.476562 10-10 0-5.523437-4.476563-10-10-10zm0 0"/><path d="m426.4375 325.5c0-5.519531-4.476562-10-10-10h-192.527344c-5.519531 0-10 4.480469-10 10 0 5.523438 4.480469 10 10 10h192.527344c5.523438 0 10-4.476562 10-10zm0 0"/><path d="m49.355469 43.886719c-3.949219 1.4375-6.574219 5.191406-6.574219 9.394531v64.277344c0 5.523437 4.480469 10 10 10 5.523438 0 10-4.476563 10-10v-36.859375l36.429688 43.296875c1.9375 2.304687 4.757812 3.5625 7.652343 3.5625 1.148438 0 2.304688-.195313 3.425781-.605469 3.945313-1.4375 6.574219-5.191406 6.574219-9.394531v-64.277344c0-5.523438-4.480469-10-10-10-5.523437 0-10 4.476562-10 10v36.859375l-36.429687-43.296875c-2.703125-3.214844-7.128906-4.398438-11.078125-2.957031zm0 0"/><path d="m177.398438 63.28125c5.519531 0 10-4.476562 10-10s-4.480469-10-10-10h-38.25c-5.519532 0-10 4.476562-10 10v64.277344c0 5.519531 4.480468 10 10 10h38.25c5.519531 0 10-4.480469 10-10 0-5.523438-4.480469-10-10-10h-28.25v-12.140625h12.039062c5.523438 0 10-4.476563 10-10 0-5.519531-4.476562-10-10-10h-12.039062v-12.136719zm0 0"/><path d="m209.535156 43.28125c-5.519531 0-10 4.476562-10 10v64.277344c0 3.839844 2.203125 7.34375 5.664063 9.007812 3.460937 1.667969 7.570312 1.203125 10.574219-1.191406l23.976562-19.128906 23.980469 19.128906c1.804687 1.441406 4.011719 2.183594 6.238281 2.183594 1.472656 0 2.957031-.324219 4.335938-.988282 3.460937-1.667968 5.660156-5.167968 5.660156-9.011718v-64.277344c0-5.523438-4.476563-10-10-10-5.519532 0-10 4.476562-10 10v43.507812l-13.976563-11.152343c-3.648437-2.910157-8.824219-2.910157-12.472656 0l-13.980469 11.152343v-43.507812c0-5.523438-4.476562-10-10-10zm0 0"/><path d="m326.484375 107.558594h-24.804687c-5.523438 0-10 4.476562-10 10 0 5.523437 4.476562 10 10 10h24.804687c14.375 0 26.070313-11.695313 26.070313-26.070313s-11.695313-26.066406-26.070313-26.066406h-8.734375c-3.289062 0-6.070312-2.78125-6.070312-6.070313 0-3.289062 2.78125-6.070312 6.070312-6.070312h24.804688c5.523437 0 10-4.476562 10-10 0-5.519531-4.476563-10-10-10h-24.804688c-14.375 0-26.070312 11.695312-26.070312 26.070312s11.695312 26.070313 26.070312 26.070313h8.734375c3.292969 0 6.070313 2.777344 6.070313 6.066406 0 3.292969-2.777344 6.070313-6.070313 6.070313zm0 0"/><path d="m387.25 63.28125h29.1875c5.519531 0 10-4.476562 10-10s-4.480469-10-10-10h-29.1875c-5.523438 0-10 4.476562-10 10s4.476562 10 10 10zm0 0"/><path d="m387.25 95.421875h29.1875c5.519531 0 10-4.480469 10-10 0-5.523437-4.480469-10-10-10h-29.1875c-5.523438 0-10 4.476563-10 10 0 5.519531 4.476562 10 10 10zm0 0"/><path d="m387.25 127.558594h29.1875c5.519531 0 10-4.476563 10-10 0-5.523438-4.480469-10-10-10h-29.1875c-5.523438 0-10 4.476562-10 10 0 5.523437 4.476562 10 10 10zm0 0"/><path d="m223.910156 183.023438h.269532c5.523437 0 10-4.476563 10-10 0-5.519532-4.476563-10-10-10h-.269532c-5.519531 0-10 4.480468-10 10 0 5.523437 4.480469 10 10 10zm0 0"/><path d="m283.945312 163.023438h-31.035156c-5.523437 0-10 4.480468-10 10 0 5.523437 4.476563 10 10 10h31.035156c5.523438 0 10-4.476563 10-10 0-5.519532-4.476562-10-10-10zm0 0"/><path d="m224.179688 383.023438c5.523437 0 10-4.476563 10-10 0-5.519532-4.476563-10-10-10h-.269532c-5.519531 0-10 4.480468-10 10 0 5.523437 4.480469 10 10 10zm0 0"/><path d="m283.945312 383.023438c5.523438 0 10-4.476563 10-10 0-5.519532-4.476562-10-10-10h-31.035156c-5.523437 0-10 4.480468-10 10 0 5.523437 4.476563 10 10 10zm0 0"/><path d="m71.007812 240.054688c0 26.914062 21.894532 48.808593 48.804688 48.808593 26.914062 0 48.808594-21.894531 48.808594-48.808593 0-26.910157-21.894532-48.808594-48.808594-48.808594-26.910156 0-48.804688 21.898437-48.804688 48.808594zm77.613282 0c0 15.886718-12.925782 28.808593-28.808594 28.808593s-28.808594-12.921875-28.808594-28.808593c0-15.882813 12.925782-28.808594 28.808594-28.808594s28.808594 12.925781 28.808594 28.808594zm0 0"/><path d="m42.78125 240.054688c0 29.078124 16.605469 55.289062 41.492188 68.328124-9.46875 3.257813-16.292969 12.25-16.292969 22.808594 0 13.296875 10.816406 24.113282 24.113281 24.113282h3.605469v3.609374c0 13.292969 10.816406 24.109376 24.113281 24.109376 13.292969 0 24.109375-10.816407 24.109375-24.109376v-3.609374h3.605469c13.296875 0 24.113281-10.816407 24.113281-24.113282 0-10.558594-6.824219-19.550781-16.289063-22.808594 24.882813-13.039062 41.488282-39.25 41.488282-68.328124 0-42.476563-34.554688-77.03125-77.03125-77.03125-42.472656 0-77.027344 34.554687-77.027344 77.03125zm134.0625 0c0 26.722656-18.933594 50.171874-45.015625 55.761718-4.609375.988282-7.902344 5.066406-7.902344 9.78125v11.484375c0 5.519531 4.476563 10 10 10h13.605469c2.269531 0 4.113281 1.84375 4.113281 4.109375 0 2.269532-1.847656 4.113282-4.113281 4.113282h-13.605469c-5.523437 0-10 4.476562-10 10v13.605468c0 2.269532-1.847656 4.113282-4.113281 4.113282s-4.109375-1.84375-4.109375-4.113282v-13.605468c0-5.523438-4.480469-10-10-10h-13.609375c-2.269531 0-4.113281-1.84375-4.113281-4.113282 0-2.265625 1.847656-4.109375 4.113281-4.109375h13.605469c5.523437 0 10-4.480469 10-10v-11.484375c0-4.714844-3.292969-8.792968-7.902344-9.78125-26.082031-5.589844-45.015625-29.039062-45.015625-55.761718 0-31.445313 25.585938-57.03125 57.03125-57.03125s57.03125 25.585937 57.03125 57.03125zm0 0"/></svg>