<?xml version="1.0" encoding="UTF-8" standalone="no"?>
<svg
   xmlns:dc="http://purl.org/dc/elements/1.1/"
   xmlns:cc="http://creativecommons.org/ns#"
   xmlns:rdf="http://www.w3.org/1999/02/22-rdf-syntax-ns#"
   xmlns:svg="http://www.w3.org/2000/svg"
   xmlns="http://www.w3.org/2000/svg"
   width="67.920197mm"
   height="49.671692mm"
   viewBox="0 0 67.920197 49.671692"
   version="1.1"
   id="svg8">
  <defs
     id="defs2">
    <style
       id="style2">
      .cls-1 {
        fill-rule: evenodd;
      }
    </style>
  </defs>
  <metadata
     id="metadata5">
    <rdf:RDF>
      <cc:Work
         rdf:about="">
        <dc:format>image/svg+xml</dc:format>
        <dc:type
           rdf:resource="http://purl.org/dc/dcmitype/StillImage" />
        <dc:title></dc:title>
      </cc:Work>
    </rdf:RDF>
  </metadata>
  <g
     id="layer1"
     transform="translate(-87.860566,-117.94212)">
    <path
       id="IconGraphic"
       class="cls-1"
       d="m 100.75923,125.60075 a 5.1411292,5.1411292 0 0 1 -10.26125,0 h -0.01159 v -4.042 h 10.16979 v 0.2 l 3.17811,3.842 z m -10.272848,-7.65863 h 10.169788 v 2.34004 H 90.486382 Z m 10.284448,13.78553 a 2.6258161,2.6258161 0 0 1 2.62581,2.62582 V 148.139 a 2.6258161,2.6258161 0 0 1 -2.62581,2.62582 v 14.44199 a 2.406999,2.406999 0 0 1 -4.813998,0 V 150.76482 H 95.08156 v 14.44199 a 2.4069984,2.4069984 0 0 1 -4.813996,0 V 150.75366 A 2.6245032,2.6245032 0 0 1 87.860566,148.139 v -13.78553 a 2.6258161,2.6258161 0 0 1 2.625816,-2.62582 z"
       style="fill:#ffffff;fill-rule:evenodd;stroke-width:0.218818" />
    <path
       id="IconGraphic-4"
       class="cls-1"
       d="m 117.94109,125.60075 a 5.1411293,5.1411293 0 0 1 -10.26125,0 h -0.0116 v -4.042 h 10.16979 v 0.2 l 3.17811,3.842 z m -10.27285,-7.65863 h 10.16979 v 2.34004 h -10.16979 z m 10.28445,13.78553 a 2.6258161,2.6258161 0 0 1 2.62581,2.62582 V 148.139 a 2.6258161,2.6258161 0 0 1 -2.62581,2.62582 v 14.44199 a 2.407,2.407 0 0 1 -4.814,0 v -14.44199 h -0.87527 v 14.44199 a 2.4069984,2.4069984 0 0 1 -4.81399,0 v -14.45315 a 2.6245032,2.6245032 0 0 1 -2.407,-2.61466 v -13.78553 a 2.6258161,2.6258161 0 0 1 2.62581,-2.62582 z"
       style="fill:#ffffff;fill-rule:evenodd;stroke-width:0.218818" />
    <path
       id="IconGraphic-2"
       class="cls-1"
       d="m 135.52385,125.60075 a 5.1411293,5.1411293 0 0 1 -10.26125,0 h -0.0116 v -4.042 h 10.16979 v 0.2 l 3.17811,3.842 z M 125.251,117.94212 h 10.16979 v 2.34004 H 125.251 Z m 10.28445,13.78553 a 2.6258161,2.6258161 0 0 1 2.62581,2.62582 V 148.139 a 2.6258161,2.6258161 0 0 1 -2.62581,2.62582 v 14.44199 a 2.407,2.407 0 0 1 -4.814,0 v -14.44199 h -0.87527 v 14.44199 a 2.4069984,2.4069984 0 0 1 -4.81399,0 v -14.45315 a 2.6245032,2.6245032 0 0 1 -2.407,-2.61466 v -13.78553 a 2.6258161,2.6258161 0 0 1 2.62581,-2.62582 z"
       style="fill:#ffffff;fill-rule:evenodd;stroke-width:0.218818" />
    <path
       id="IconGraphic-4-7"
       class="cls-1"
       d="m 152.70571,125.60075 a 5.1411293,5.1411293 0 0 1 -10.26125,0 h -0.0116 v -4.042 h 10.16979 v 0.2 l 3.17811,3.842 z m -10.27285,-7.65863 h 10.16979 v 2.34004 h -10.16979 z m 10.28445,13.78553 a 2.6258161,2.6258161 0 0 1 2.62581,2.62582 V 148.139 a 2.6258161,2.6258161 0 0 1 -2.62581,2.62582 v 14.44199 a 2.407,2.407 0 0 1 -4.814,0 v -14.44199 h -0.87527 v 14.44199 a 2.4069984,2.4069984 0 0 1 -4.81399,0 v -14.45315 a 2.6245032,2.6245032 0 0 1 -2.407,-2.61466 v -13.78553 a 2.6258161,2.6258161 0 0 1 2.62581,-2.62582 z"
       style="fill:#ffffff;fill-rule:evenodd;stroke-width:0.218818" />
  </g>
</svg>
