<?xml version="1.0" encoding="UTF-8" standalone="no"?>
<svg
   xmlns:dc="http://purl.org/dc/elements/1.1/"
   xmlns:cc="http://creativecommons.org/ns#"
   xmlns:rdf="http://www.w3.org/1999/02/22-rdf-syntax-ns#"
   xmlns:svg="http://www.w3.org/2000/svg"
   xmlns="http://www.w3.org/2000/svg"
   width="43.288303mm"
   height="38.846912mm"
   viewBox="0 0 43.288303 38.846912"
   version="1.1"
   id="svg8">
  <defs
     id="defs2" />
  <metadata
     id="metadata5">
    <rdf:RDF>
      <cc:Work
         rdf:about="">
        <dc:format>image/svg+xml</dc:format>
        <dc:type
           rdf:resource="http://purl.org/dc/dcmitype/StillImage" />
        <dc:title></dc:title>
      </cc:Work>
    </rdf:RDF>
  </metadata>
  <g
     id="layer1"
     transform="translate(-75.980368,-102.86099)">
    <g
       id="g46">
      <path
         style="fill:#fefefe;stroke-width:0.0846667"
         d="m 85.505016,141.66399 c -0.20955,-0.0397 -0.696938,-0.075 -1.083085,-0.0784 -0.740141,-0.007 -7.677025,-1.03604 -8.073608,-1.19811 -0.223501,-0.0913 -0.258109,-0.18298 -0.362537,-0.95999 -0.01824,-0.13575 0.01109,-0.436 0.0652,-0.66721 0.08156,-0.34857 0.146109,-0.44324 0.377794,-0.55406 0.260452,-0.12459 0.513428,-0.1118 3.725333,0.18829 1.895249,0.17707 3.605849,0.34235 3.801334,0.36728 l 0.355428,0.0453 -0.0672,-0.24374 c -0.04863,-0.17637 -0.11176,-0.2361 -0.228427,-0.21611 -0.844295,0.14463 -1.21368,0.10205 -3.871975,-0.4464 -1.48211,-0.30579 -2.76503,-0.59359 -2.850934,-0.63956 -0.347908,-0.1862 -0.507986,-0.51128 -0.507986,-1.03162 0,-0.77231 0.173638,-1.00541 0.900617,-1.20904 0.09952,-0.0279 1.127072,0.026 2.283443,0.11965 1.15637,0.0937 2.126864,0.14251 2.156652,0.1085 0.02979,-0.034 0.390479,-0.93812 0.801535,-2.00915 0.411056,-1.07104 0.80942,-2.05062 0.885253,-2.17685 0.24484,-0.40755 0.61559,-0.6323 1.227499,-0.74411 0.186267,-0.034 1.9042,-0.42897 3.817628,-0.87763 3.889018,-0.9119 4.254388,-0.95594 5.194398,-0.6261 0.690892,0.24242 1.348447,0.82521 1.667999,1.47835 0.314711,0.64325 0.42218,1.94048 0.223046,2.69234 -0.074,0.2794 -0.162693,0.5461 -0.197092,0.59266 -0.0829,0.11223 -1.011646,2.33381 -1.011646,2.41989 0,0.0369 0.5901,0.79399 1.311332,1.68251 1.687347,2.07874 1.595545,1.92729 1.549987,2.55713 -0.03288,0.45451 -0.07163,0.55037 -0.307801,0.76139 -0.235635,0.21054 -0.337458,0.24142 -0.796171,0.24142 h -0.525981 l -2.130596,-2.13784 c -2.031671,-2.03857 -2.133046,-2.15552 -2.183389,-2.51883 -0.03125,-0.2255 -0.0055,-0.56241 0.06318,-0.8255 0.06378,-0.24447 0.0985,-0.4445 0.07715,-0.4445 -0.158853,0 -4.566881,1.05493 -4.625105,1.10688 -0.04206,0.0375 0.05915,0.83711 0.232834,1.83945 0.34528,1.99269 0.374909,2.54821 0.158928,2.97985 -0.118714,0.23725 -0.215113,0.30915 -0.486702,0.36299 -0.571636,0.11334 -1.167029,0.13647 -1.566333,0.0609 z m 15.721774,-0.17224 c -0.54574,-0.13746 -0.65111,-0.22719 -0.65111,-0.55448 0,-0.19858 0.0641,-0.35935 0.193,-0.48385 0.10615,-0.10255 0.23954,-0.29312 0.29643,-0.42347 0.18667,-0.42781 0.65841,-0.56334 1.96823,-0.56546 1.32797,-0.002 1.52167,0.0679 1.52167,0.5507 0,0.23022 -0.0873,0.38278 -0.42956,0.7505 -0.24107,0.25901 -0.58472,0.52457 -0.78317,0.60519 -0.41562,0.16886 -1.64591,0.23915 -2.11549,0.12087 z m -1.350683,-1.65625 c -0.03433,-0.0343 -0.06243,-0.18855 -0.06243,-0.3427 0,-0.19785 0.05602,-0.31635 0.190493,-0.40296 0.48666,-0.31342 1.25054,-0.22897 1.24695,0.13786 -0.004,0.36293 -0.25221,0.55291 -0.80352,0.6139 -0.27999,0.031 -0.537164,0.0282 -0.571498,-0.006 z m 1.694403,-1.5319 c -0.20435,-0.0534 -0.18513,-0.32436 0.0604,-0.85181 0.18326,-0.39364 0.23645,-0.4445 0.46484,-0.4445 0.20145,0 0.25789,-0.0371 0.25789,-0.16933 0,-0.2499 0.22304,-0.21475 1.0499,0.16546 0.76264,0.35067 0.8491,0.46625 0.64046,0.85611 -0.14079,0.26306 -0.4274,0.19252 -1.05572,-0.25983 -0.66165,-0.47635 -0.64919,-0.48157 -0.75887,0.31776 -0.0567,0.41289 -0.077,0.4438 -0.28588,0.43468 -0.12369,-0.005 -0.29156,-0.0272 -0.37306,-0.0485 z m -3.238495,-0.9871 c -0.950404,-0.31424 -1.649187,-0.90476 -2.034551,-1.71935 -0.322642,-0.68201 -0.429294,-1.87923 -0.231364,-2.59716 0.07921,-0.2873 0.173454,-0.56046 0.209436,-0.60703 0.03598,-0.0466 0.22124,-0.2875 0.411686,-0.53541 0.964865,-1.25599 2.823205,-1.62158 4.370558,-0.85982 0.61328,0.30192 1.13633,0.84879 1.45592,1.52223 0.20158,0.42478 0.22098,0.55859 0.22098,1.524 0,1.00094 -0.0134,1.08473 -0.24656,1.54514 -0.3355,0.66243 -0.91025,1.22324 -1.57377,1.53564 -0.48203,0.22694 -0.65543,0.26188 -1.397002,0.28142 -0.533631,0.0141 -0.971881,-0.0191 -1.185333,-0.0897 z m 14.884275,-0.10805 c -0.14907,-0.0735 -0.33071,-0.22471 -0.40363,-0.336 -0.0729,-0.11129 -1.11062,-2.09629 -2.30599,-4.41112 -2.62888,-5.09079 -2.50476,-4.59366 -1.60446,-6.4261 0.31292,-0.63691 0.55561,-1.17136 0.5393,-1.18766 -0.0427,-0.0427 -5.57038,-0.6376 -5.64672,-0.60767 -0.0351,0.0138 -1.01552,1.13066 -2.17862,2.48195 -1.1631,1.35129 -2.217714,2.50381 -2.34359,2.56117 -0.35409,0.16133 -1.1496,0.13106 -1.455342,-0.0554 -0.481249,-0.29347 -0.696654,-1.15935 -0.437723,-1.75956 0.118317,-0.27427 4.029055,-5.77621 4.373385,-6.15285 0.46646,-0.5102 0.45319,-0.50851 3.46349,-0.44087 2.63768,0.0593 2.73993,0.0557 2.69808,-0.0942 -0.0239,-0.0857 -0.16868,-1.11486 -0.32169,-2.287 l -0.27819,-2.13117 -0.46962,0.32787 c -0.46882,0.32731 -0.47546,0.32897 -3.89862,0.97389 -3.700373,0.69714 -4.290003,0.74984 -4.663561,0.41687 -0.579238,-0.51632 -0.534064,-1.67779 0.07977,-2.05109 0.138823,-0.0844 1.649311,-0.54996 3.356641,-1.03453 l 3.10423,-0.88104 1.74962,-1.54981 c 1.61936,-1.43442 1.80006,-1.56951 2.42696,-1.81427 0.93437,-0.36481 1.83028,-0.41516 2.87867,-0.16179 0.60575,0.14639 1.20471,0.40979 2.921,1.28455 1.18745,0.60522 2.26535,1.20499 2.39532,1.33282 0.32122,0.31593 1.82306,4.6612 1.935,5.59853 0.15111,1.2653 0.17683,1.87904 0.0864,2.06179 -0.0495,0.10003 -0.102,0.25808 -0.11668,0.35121 -0.036,0.22833 -0.58167,0.40303 -1.04288,0.33387 -0.58868,-0.0883 -0.73484,-0.28665 -1.46252,-1.98487 -1.34973,-3.14991 -1.74049,-3.96606 -1.9431,-4.05837 -0.17337,-0.079 -0.18862,-0.0688 -0.15122,0.10142 0.0348,0.15843 0.52676,3.78835 0.68543,5.05762 0.0666,0.53258 -0.10807,1.82327 -0.29644,2.19079 -0.0865,0.16878 -0.78557,1.36161 -1.55347,2.65073 l -1.3962,2.34386 1.64026,3.83681 c 1.51798,3.55075 1.64036,3.87468 1.64154,4.34481 0.002,0.61244 -0.18451,0.96678 -0.61474,1.17094 -0.37356,0.17727 -1.03471,0.17911 -1.39009,0.004 z m -22.059774,-9.4082 c -0.702233,-0.0268 -0.740834,-0.0381 -0.740834,-0.21769 0,-0.12193 0.208971,-0.39684 0.586226,-0.77121 l 0.586225,-0.58173 -0.501558,-0.42416 c -0.374704,-0.31687 -0.501559,-0.47977 -0.501559,-0.64407 0,-0.20886 0.04704,-0.23212 0.935758,-0.46282 0.919021,-0.23856 0.935001,-0.24688 0.893418,-0.46526 -0.02329,-0.12229 -0.06749,-0.61287 -0.09822,-1.09018 l -0.05589,-0.86784 h 0.21895 c 0.178994,0 0.340246,0.16111 0.883627,0.88284 l 0.664677,0.88284 0.408957,-0.97183 c 0.380218,-0.90354 0.424085,-0.97004 0.624243,-0.94634 0.204592,0.0242 0.227809,0.0833 0.46739,1.18966 0.170578,0.78769 0.288615,1.16417 0.365002,1.16417 0.06209,0 0.387874,-0.0762 0.723956,-0.16934 0.905054,-0.2508 0.996171,-0.23719 0.99215,0.14817 -0.0018,0.17463 -0.12817,0.77466 -0.280776,1.33342 -0.292177,1.0698 -0.340165,1.13259 -0.78094,1.02196 -0.2526,-0.0634 -0.257613,-0.19906 -0.0368,-0.99589 0.09249,-0.33378 0.149726,-0.62531 0.12718,-0.64786 -0.02254,-0.0225 -0.269097,0.0224 -0.547893,0.0999 -0.868133,0.24136 -0.888391,0.2323 -1.018184,-0.45558 -0.0619,-0.32808 -0.13864,-0.61264 -0.170524,-0.63234 -0.03188,-0.0197 -0.164853,0.22967 -0.295488,0.55418 -0.209975,0.52159 -0.263478,0.59 -0.461389,0.59 -0.178012,0 -0.300999,-0.1084 -0.600372,-0.52916 l -0.376501,-0.52917 -0.04233,0.41851 -0.04233,0.4185 -0.465667,0.11377 c -0.256116,0.0626 -0.514297,0.13061 -0.573735,0.1512 -0.06748,0.0234 0.01996,0.15309 0.232834,0.34541 0.191681,0.17317 0.340901,0.38565 0.340901,0.48542 0,0.0976 -0.160332,0.34081 -0.356295,0.54049 l -0.356295,0.36303 h 0.343521 c 0.188937,0 0.635019,0.0246 0.991295,0.0548 l 0.647774,0.0548 v 0.32624 0.32624 l -0.994833,-0.0174 c -0.547158,-0.01 -1.328208,-0.0301 -1.735666,-0.0456 z m 16.234834,-17.49249 c -0.96549,-0.25163 -1.86624,-0.92234 -2.35194,-1.75127 -0.64874,-1.10722 -0.64953,-2.93037 -0.002,-4.05058 0.53364,-0.92282 1.28534,-1.4777 2.14201,-1.58115 0.71015,-0.0858 1.84172,-0.0849 2.54,0.002 1.58199,0.1968 2.74092,1.94318 2.60279,3.9221 -0.10792,1.54601 -1.01285,2.78864 -2.42336,3.3277 -0.592,0.22624 -1.88375,0.29382 -2.50776,0.13119 z"
         id="path50" />
    </g>
  </g>
</svg>
