<?xml version="1.0" encoding="UTF-8" standalone="no"?>
<svg
   xmlns:dc="http://purl.org/dc/elements/1.1/"
   xmlns:cc="http://creativecommons.org/ns#"
   xmlns:rdf="http://www.w3.org/1999/02/22-rdf-syntax-ns#"
   xmlns:svg="http://www.w3.org/2000/svg"
   xmlns="http://www.w3.org/2000/svg"
   width="43.010609mm"
   height="41.881752mm"
   viewBox="0 0 43.010609 41.881752"
   version="1.1"
   id="svg48">
  <defs
     id="defs42" />
  <metadata
     id="metadata45">
    <rdf:RDF>
      <cc:Work
         rdf:about="">
        <dc:format>image/svg+xml</dc:format>
        <dc:type
           rdf:resource="http://purl.org/dc/dcmitype/StillImage" />
        <dc:title></dc:title>
      </cc:Work>
    </rdf:RDF>
  </metadata>
  <g
     id="layer1"
     transform="translate(-113.8102,-128.20164)">
    <g
       id="g80">
      <path
         style="fill:#fefefe;stroke-width:0.0846667"
         d="m 130.88855,170.01309 c -0.22289,-0.061 -0.54674,-0.22309 -0.71967,-0.36025 -0.38688,-0.30687 -0.78007,-1.05034 -0.78007,-1.47501 0,-0.17312 0.24619,-3.31906 0.5471,-6.99099 0.3009,-3.67192 0.62475,-7.62824 0.71966,-8.7918 0.0959,-1.17586 0.17257,-2.85363 0.17257,-3.77715 v -1.66157 l 0.44888,-0.0901 c 0.24886,-0.05 1.03168,-0.38816 1.75683,-0.75897 1.2837,-0.65641 1.92052,-0.8676 2.61623,-0.8676 0.22185,0 0.70863,0.21104 1.76448,0.76496 0.90153,0.47296 1.63564,0.80061 1.92318,0.85836 l 0.46507,0.0934 v 1.66157 c 0,0.92517 0.0766,2.59918 0.17279,3.77715 0.095,1.16356 0.41889,5.12539 0.71967,8.80406 0.30078,3.67867 0.54687,6.82462 0.54687,6.99099 0,0.44287 -0.40368,1.17407 -0.82186,1.48865 -1.12914,0.84941 -2.79822,0.2823 -3.15244,-1.07112 -0.0427,-0.16299 -0.17894,-1.55364 -0.30285,-3.09034 -0.12391,-1.5367 -0.40417,-4.98475 -0.62278,-7.66233 l -0.39749,-4.86834 h -0.62952 -0.62952 l -0.35832,4.40267 c -0.19707,2.42147 -0.47556,5.85047 -0.61887,7.62 -0.14331,1.76954 -0.28316,3.33164 -0.31079,3.47134 -0.22138,1.11954 -1.39605,1.83698 -2.50915,1.53247 z m -9.39075,-0.044 c -0.52818,-0.10698 -0.95728,-0.455 -1.21796,-0.98781 -0.23167,-0.47352 -0.23403,-0.49394 -0.14026,-1.21082 0.11774,-0.90017 1.07306,-7.4309 1.60526,-10.97385 0.35577,-2.36849 0.39742,-2.80439 0.4267,-4.46616 0.0178,-1.01283 0.01,-1.8415 -0.0182,-1.8415 -0.0279,0 -0.28133,0.11643 -0.56324,0.25875 l -0.51258,0.25875 0.0244,2.43892 c 0.0221,2.21037 0.0104,2.46023 -0.12461,2.66629 -0.48689,0.74309 -1.55926,0.71239 -1.97951,-0.0567 -0.13544,-0.24785 -0.14984,-0.56078 -0.14893,-3.2377 8.4e-4,-2.40389 0.0294,-3.15144 0.15131,-3.95971 0.28998,-1.92218 0.78788,-3.47943 1.42205,-4.44762 0.31469,-0.48044 0.33684,-0.54762 0.22328,-0.67734 -0.0693,-0.0792 -0.9498,-1.07359 -1.9566,-2.20975 -1.35001,-1.52348 -1.80776,-2.09321 -1.74374,-2.17035 0.0642,-0.0774 -0.33273,-0.53565 -1.52408,-1.75974 -0.88599,-0.91034 -1.61089,-1.68868 -1.61089,-1.72965 0,-0.041 0.11541,-0.18506 0.25646,-0.3202 l 0.25646,-0.2457 1.65799,1.71406 c 1.21383,1.25488 1.68557,1.69116 1.76096,1.62859 0.0752,-0.0624 0.67793,0.45895 2.23431,1.93269 2.10515,1.99338 2.141,2.03311 2.92003,3.23677 0.43379,0.67024 2.08368,3.21887 3.66642,5.66362 l 2.87771,4.445 -0.52157,6.35 c -0.28686,3.4925 -0.54277,6.29285 -0.56869,6.223 -0.0259,-0.0699 -0.42041,-2.70989 -0.87666,-5.86675 l -0.82955,-5.73974 -0.50996,0.0247 -0.50995,0.0248 -0.39554,2.70933 c -0.21755,1.49013 -0.66949,4.59434 -1.00432,6.89823 -0.41924,2.88478 -0.65643,4.2818 -0.76186,4.48733 -0.36498,0.7115 -1.17649,1.09989 -1.96458,0.94025 z m 0.32548,-21.40631 0.36856,-0.23283 1.7e-4,-1.12184 c 8e-5,-0.617 -0.0203,-1.12183 -0.0452,-1.12183 -0.13622,0 -0.80076,2.15937 -0.80122,2.6035 -1.7e-4,0.15147 0.0638,0.13446 0.4777,-0.127 z m 26.4232,21.37506 c -0.43057,-0.13829 -0.87415,-0.50796 -1.06987,-0.89161 -0.11546,-0.2263 -0.33371,-1.50332 -0.7699,-4.50472 -0.33483,-2.30389 -0.78677,-5.4081 -1.00432,-6.89823 l -0.39554,-2.70933 -0.51131,-0.0248 -0.5113,-0.0248 -0.23098,1.59111 c -0.12704,0.87511 -0.49992,3.45801 -0.82862,5.73978 -0.32871,2.28177 -0.62181,4.20582 -0.65136,4.27567 -0.0295,0.0699 -0.0664,-0.0635 -0.0819,-0.29633 -0.0155,-0.23284 -0.24803,-3.09034 -0.51672,-6.35001 l -0.48852,-5.92666 3.42972,-5.29167 c 1.88635,-2.91042 3.53412,-5.45611 3.66171,-5.65711 0.35507,-0.55932 4.48356,-4.43537 4.61132,-4.32934 0.0753,0.0625 0.54792,-0.37398 1.76209,-1.62751 l 1.65916,-1.71295 0.25533,0.24463 c 0.14044,0.13455 0.25534,0.27815 0.25534,0.31912 0,0.041 -0.7249,0.81931 -1.61089,1.72965 -1.19135,1.22409 -1.58828,1.68238 -1.52408,1.75974 0.064,0.0771 -0.39373,0.64687 -1.74374,2.17035 -1.0068,1.13616 -1.8877,2.13103 -1.95756,2.2108 -0.11471,0.13102 -0.0962,0.19151 0.19167,0.62515 0.65723,0.99016 1.18499,2.63944 1.45848,4.5578 0.11498,0.80646 0.14599,1.63807 0.14708,3.943 0.001,2.63685 -0.0132,2.9477 -0.14856,3.19537 -0.30386,0.55607 -1.05116,0.77355 -1.55997,0.45398 -0.57168,-0.35905 -0.5712,-0.35634 -0.54415,-3.06359 l 0.0244,-2.43892 -0.51258,-0.25875 c -0.28192,-0.14232 -0.53271,-0.25875 -0.55732,-0.25875 -0.0808,0 -0.0468,3.23348 0.0395,3.76073 0.0463,0.28321 0.21921,1.44838 0.38414,2.58927 0.48337,3.34365 0.85212,5.87454 1.26982,8.71525 0.24652,1.67654 0.37097,2.77327 0.33626,2.96334 -0.18988,1.03972 -1.29529,1.73232 -2.26682,1.4203 z m 1.03889,-21.24806 c -4.3e-4,-0.44413 -0.665,-2.6035 -0.80122,-2.6035 -0.0249,0 -0.0451,0.50483 -0.0447,1.12183 l 5.9e-4,1.12184 0.35922,0.23149 c 0.40261,0.25945 0.48628,0.28154 0.48612,0.12834 z m -22.91994,-1.0135 c -1.7327,-2.67306 -3.17505,-4.92444 -3.20522,-5.00306 -0.0505,-0.13165 0.10293,-0.14294 1.94387,-0.14294 h 1.99873 v 0.57912 c 0,0.70551 0.25312,1.73755 0.56965,2.32261 0.32775,0.6058 1.07378,1.38666 1.61855,1.69411 l 0.45949,0.25932 -0.052,2.25025 c -0.0286,1.23764 -0.0814,2.39661 -0.11734,2.57548 l -0.0653,0.32522 z m 14.67566,4.53404 c -0.0285,-0.17841 -0.0763,-1.33699 -0.10624,-2.57463 l -0.0544,-2.25025 0.45948,-0.25932 c 0.54478,-0.30745 1.29081,-1.08831 1.61856,-1.69411 0.31653,-0.58506 0.56965,-1.6171 0.56965,-2.32261 v -0.57912 h 1.99873 c 1.84909,0 1.99457,0.0108 1.9433,0.14444 -0.0523,0.13627 -6.18271,9.63951 -6.31514,9.7896 -0.0342,0.0387 -0.0854,-0.0756 -0.11394,-0.254 z M 130.21731,146.376 c -0.60851,-0.18867 -1.32399,-0.89643 -1.67931,-1.66122 -0.25836,-0.55608 -0.29051,-0.70924 -0.32012,-1.52502 -0.0269,-0.74134 -9.6e-4,-1.01176 0.14216,-1.48167 0.30542,-1.00282 0.93066,-1.79184 1.79092,-2.26006 0.6662,-0.36258 1.20055,-0.47163 2.31662,-0.47274 l 1.00445,-0.001 -0.0467,0.27517 c -0.0257,0.15134 -0.09,0.71331 -0.143,1.24883 -0.17817,1.80135 -0.12278,1.66568 -0.80615,1.9745 -0.90351,0.40831 -1.6482,0.83209 -1.64675,0.93713 0.005,0.3301 0.15329,0.30163 1.19018,-0.22778 1.51342,-0.77272 2.18721,-0.94418 3.71919,-0.9464 1.42401,-0.002 1.75615,0.0815 2.09643,0.52767 0.30415,0.39876 0.33061,1.14605 0.0537,1.51751 -0.35278,0.47326 -0.60635,0.55184 -1.74795,0.54169 -1.35364,-0.012 -1.74212,0.093 -3.40787,0.92145 -1.48444,0.73826 -1.86478,0.8338 -2.51583,0.63195 z m 9.11983,0.0377 c -0.45617,-0.10476 -2.43157,-1.1684 -2.17596,-1.17163 0.41232,-0.005 0.95804,-0.44406 1.23496,-0.99309 0.0752,-0.14903 0.13667,-0.46522 0.13667,-0.70265 v -0.43168 l 0.559,0.31261 c 0.45265,0.25314 0.57322,0.29017 0.6337,0.19465 0.14685,-0.23191 0.0661,-0.3129 -0.79054,-0.79246 -1.5067,-0.84354 -1.47369,-0.81108 -1.49381,-1.46902 -0.01,-0.3112 -0.0726,-0.96298 -0.14016,-1.4484 -0.0676,-0.48541 -0.12286,-0.89499 -0.12286,-0.91016 0,-0.0152 0.45319,-0.0276 1.00708,-0.0276 1.74852,0 2.75035,0.46937 3.5839,1.67912 0.55992,0.81263 0.80955,2.24964 0.5744,3.30652 -0.25015,1.12423 -1.09302,2.16093 -1.9682,2.42084 -0.48076,0.14277 -0.55035,0.14497 -1.03818,0.0329 z m -4.74683,-4.77243 c 0.025,-0.0931 0.046,-0.26458 0.0467,-0.381 0.001,-0.20786 0.0132,-0.21167 0.67162,-0.21167 h 0.67046 l 0.0356,0.33867 c 0.0196,0.18627 0.0322,0.34427 0.028,0.35111 -0.004,0.007 -0.34289,0.0259 -0.75274,0.0423 -0.71082,0.0285 -0.74308,0.0221 -0.69965,-0.13945 z m -9.07333,-0.12807 c -1.17725,-0.24387 -2.12303,-1.08734 -2.5078,-2.23651 -0.1554,-0.46411 -0.18396,-1.37692 -0.0569,-1.8198 0.13038,-0.45461 0.0349,-0.68395 -0.28477,-0.68395 -0.14758,0 -0.35776,-0.0627 -0.46708,-0.13922 -0.1794,-0.12566 -0.1941,-0.18432 -0.15093,-0.60254 0.12913,-1.25116 1.33308,-2.46841 2.82605,-2.85728 0.64912,-0.16908 1.98569,-0.16376 2.57176,0.0102 1.17316,0.34827 2.05073,1.03939 2.52502,1.98852 0.46537,0.93128 0.321,1.6003 -0.34534,1.6003 -0.30697,0 -0.42763,0.22717 -0.32,0.60246 0.045,0.15698 0.0819,0.49851 0.0819,0.75895 0,0.46296 -0.009,0.48075 -0.40217,0.79767 -0.57989,0.46739 -0.99963,1.00874 -1.35806,1.75151 -0.25197,0.52216 -0.36435,0.66777 -0.56811,0.73607 -0.38885,0.13036 -1.14479,0.17619 -1.54349,0.0936 z m -2.30906,-5.12099 c 0.16799,-0.20242 1.11063,-0.45256 2.0752,-0.55067 1.40333,-0.14275 3.02233,0.081 3.73468,0.51614 0.1452,0.0887 0.284,0.16126 0.30844,0.16126 0.11898,0 0.13708,-0.29922 0.0282,-0.46545 -0.55874,-0.85276 -4.23429,-1.10461 -5.82857,-0.39939 -0.46217,0.20444 -0.65636,0.39947 -0.65636,0.65922 0,0.23192 0.17717,0.27322 0.33845,0.0789 z m 3.42293,-1.67962 c 0.10873,-0.10872 0.37369,-0.30083 0.58882,-0.4269 0.21513,-0.12607 0.39114,-0.25968 0.39114,-0.2969 0,-0.0372 -0.18098,-0.0398 -0.40217,-0.006 -0.25181,0.0388 -0.41404,0.0298 -0.43392,-0.024 -0.0814,-0.22054 -0.37073,-0.40349 -0.63805,-0.40349 -0.21685,0 -0.34197,0.0632 -0.50218,0.25358 -0.11735,0.13946 -0.26362,0.23801 -0.32503,0.21899 -0.27128,-0.084 -0.66197,-0.12434 -0.66183,-0.0683 8e-5,0.0338 0.18105,0.1738 0.40216,0.31119 0.22111,0.13739 0.48592,0.33741 0.58847,0.4445 0.25417,0.2654 0.72562,0.26399 0.99259,-0.003 z m 17.40529,6.83197 c -0.63074,-0.11838 -0.71042,-0.18461 -1.03233,-0.85795 -0.35435,-0.7412 -0.77372,-1.28245 -1.3595,-1.75459 -0.3932,-0.31692 -0.40217,-0.33471 -0.40217,-0.79767 0,-0.26044 0.0368,-0.60197 0.0819,-0.75895 0.10763,-0.37529 -0.013,-0.60246 -0.32,-0.60246 -0.66634,0 -0.81071,-0.66902 -0.34534,-1.6003 0.48438,-0.96934 1.42543,-1.69554 2.59035,-1.99896 0.62162,-0.16191 1.8844,-0.1618 2.50643,2.5e-4 1.49421,0.38919 2.73281,1.64645 2.83491,2.87761 0.0325,0.39194 0.0135,0.46084 -0.16085,0.58296 -0.10874,0.0761 -0.31845,0.13844 -0.46602,0.13844 -0.31966,0 -0.41515,0.22934 -0.28477,0.68395 0.3313,1.1552 -0.2071,2.71318 -1.18724,3.4355 -0.66444,0.48967 -1.76444,0.78184 -2.45533,0.65217 z m -2.42299,-5.18688 c 0.7071,-0.43194 2.34824,-0.65624 3.7571,-0.51351 0.9444,0.0957 1.88598,0.34706 2.05278,0.54804 0.16079,0.19373 0.33844,0.1531 0.33844,-0.0774 0,-0.29133 -0.41483,-0.60564 -1.08337,-0.82084 -0.80492,-0.2591 -2.83394,-0.32439 -3.82711,-0.12315 -1.13609,0.2302 -1.78914,0.63108 -1.64405,1.0092 0.0671,0.17478 0.0851,0.17378 0.40621,-0.0223 z m 3.37953,-1.64211 c 0.10256,-0.10709 0.36737,-0.30711 0.58848,-0.4445 0.2211,-0.13739 0.40208,-0.27742 0.40216,-0.31118 1.7e-4,-0.056 -0.39055,-0.0157 -0.66183,0.0683 -0.0614,0.019 -0.20768,-0.0795 -0.32503,-0.21899 -0.1481,-0.176 -0.28969,-0.25358 -0.46282,-0.25358 -0.28842,0 -0.66683,0.22054 -0.66683,0.38862 0,0.1103 -0.11414,0.10947 -0.6985,-0.005 -0.27066,-0.053 -0.15334,0.11427 0.24297,0.34653 0.21512,0.12607 0.48009,0.31818 0.58882,0.4269 0.26697,0.26697 0.73841,0.26838 0.99258,0.003 z m -10.13231,5.74575 c -0.18045,-0.0659 -0.35961,-0.15123 -0.39812,-0.18974 -0.0385,-0.0385 -0.003,-0.33664 0.0795,-0.6625 l 0.14952,-0.59248 h 0.62408 0.62407 l 0.097,0.381 c 0.0534,0.20955 0.12296,0.48458 0.15465,0.61117 0.0487,0.19465 0.0211,0.24907 -0.1791,0.35258 -0.37549,0.19417 -0.79389,0.23049 -1.15162,0.1 z m -0.4339,-2.70718 c -1.09683,-0.27223 -1.97359,-0.99654 -2.469,-2.03973 -0.24875,-0.52381 -0.30817,-0.75667 -0.34017,-1.33323 -0.0248,-0.4473 0.003,-0.85355 0.0781,-1.12941 0.16104,-0.59368 0.0724,-0.76433 -0.42604,-0.82051 -0.51366,-0.0579 -0.63343,-0.2249 -0.59023,-0.82299 0.10106,-1.39897 1.53176,-2.82452 3.2817,-3.26989 0.71639,-0.18232 1.99294,-0.18232 2.70933,0 1.76016,0.44797 3.17905,1.86186 3.28146,3.26989 0.0435,0.59809 -0.0762,0.76508 -0.58999,0.82299 -0.49847,0.0562 -0.58708,0.22683 -0.42604,0.82051 0.0748,0.27586 0.10291,0.68211 0.0781,1.12941 -0.12747,2.29614 -2.34778,3.92875 -4.58718,3.37296 z m -0.25631,-2.03398 c 0.85696,-0.45565 1.75493,-0.45883 2.55965,-0.009 l 0.36149,0.20204 0.17044,-0.23937 0.17045,-0.23937 -0.35986,-0.20831 c -0.98104,-0.56789 -2.16682,-0.57156 -3.19876,-0.01 -0.457,0.24873 -0.49321,0.32037 -0.28064,0.55526 0.17155,0.18956 0.11477,0.19461 0.57723,-0.0513 z m -2.23917,-3.67242 c 0.2163,-0.20151 1.0869,-0.49874 1.77582,-0.60628 0.70834,-0.11058 2.50899,-0.11058 3.21733,0 0.69446,0.1084 1.56004,0.40525 1.78045,0.6106 0.2011,0.18735 0.33622,0.12961 0.33622,-0.14368 0,-0.11999 -0.11611,-0.29984 -0.2949,-0.45683 -1.14118,-1.00196 -5.71969,-1.00196 -6.86087,0 -0.27344,0.24009 -0.38043,0.55097 -0.23845,0.69294 0.0808,0.0808 0.10138,0.0738 0.2844,-0.0967 z m 3.96076,-1.94814 c 0.12543,-0.13127 0.42808,-0.36384 0.67256,-0.51683 0.24447,-0.15298 0.4445,-0.29597 0.4445,-0.31775 0,-0.0218 -0.20003,-0.0156 -0.4445,0.0137 -0.41804,0.0502 -0.45879,0.0379 -0.68451,-0.20558 -0.1872,-0.20192 -0.31138,-0.2589 -0.56433,-0.2589 -0.25294,0 -0.37713,0.057 -0.56432,0.2589 -0.22572,0.2435 -0.26647,0.25573 -0.68451,0.20558 -0.24447,-0.0293 -0.4445,-0.0355 -0.4445,-0.0137 0,0.0218 0.20003,0.16477 0.4445,0.31775 0.24448,0.15299 0.54713,0.38556 0.67256,0.51683 0.17785,0.18613 0.30472,0.23867 0.57627,0.23867 0.27156,0 0.39842,-0.0525 0.57628,-0.23867 z"
         id="path88" />
    </g>
  </g>
</svg>
