<?xml version="1.0" encoding="UTF-8" standalone="no"?>
<svg
   xmlns:dc="http://purl.org/dc/elements/1.1/"
   xmlns:cc="http://creativecommons.org/ns#"
   xmlns:rdf="http://www.w3.org/1999/02/22-rdf-syntax-ns#"
   xmlns:svg="http://www.w3.org/2000/svg"
   xmlns="http://www.w3.org/2000/svg"
   width="61.363705mm"
   height="61.407047mm"
   viewBox="0 0 61.363705 61.407047"
   version="1.1"
   id="svg8">
  <defs
     id="defs2" />
  <metadata
     id="metadata5">
    <rdf:RDF>
      <cc:Work
         rdf:about="">
        <dc:format>image/svg+xml</dc:format>
        <dc:type
           rdf:resource="http://purl.org/dc/dcmitype/StillImage" />
        <dc:title></dc:title>
      </cc:Work>
    </rdf:RDF>
  </metadata>
  <g
     id="layer1"
     transform="translate(-131.84791,-120.48695)">
    <g
       id="layer1-2"
       transform="translate(3.4569098,44.285479)">
      <path
         style="fill:#fefefe;stroke-width:0.128184"
         d="m 155.86909,137.536 c -0.38776,-0.0575 -1.16647,-0.11037 -1.73048,-0.11748 -1.23457,-0.0154 -2.45314,-0.25646 -4.42233,-0.87486 -4.1665,-1.30841 -7.54022,-3.19421 -11.10766,-6.20875 -1.63616,-1.38258 -2.7735,-2.65622 -5.01781,-5.61914 -0.41576,-0.54886 -1.76305,-2.83821 -2.26311,-3.84551 -1.08831,-2.19222 -2.19364,-5.39697 -2.56425,-7.43465 -0.34817,-1.91438 -0.47646,-6.51583 -0.28055,-10.06241 0.12732,-2.30595 0.34587,-3.603662 0.93256,-5.538998 3.03358,-10.006799 10.70449,-17.697244 20.60905,-20.661495 2.63667,-0.789117 4.33357,-0.971233 9.04916,-0.971233 4.7232,0 6.41142,0.181753 9.0643,0.975835 4.38269,1.311879 8.0857,3.384835 11.71598,6.558655 2.5419,2.22228 5.33776,5.911031 6.96571,9.190265 1.08831,2.192227 2.19364,5.396958 2.56423,7.434651 0.50114,2.7554 0.49259,10.31363 -0.0151,13.05687 -1.05585,5.70895 -4.5801,12.06968 -8.92489,16.108 -3.53963,3.28993 -7.80915,5.74918 -12.3214,7.09709 -0.92323,0.27579 -1.88049,0.54222 -2.12725,0.59206 -1.40027,0.28284 -8.80307,0.51755 -10.1265,0.32107 z m 5.06325,-6.54487 c 3.14944,-0.29851 6.15522,-1.15671 8.81331,-2.51636 1.35809,-0.69467 3.22334,-1.86669 4.00003,-2.51337 l 0.37952,-0.316 -13.8388,-13.75789 C 138.14122,89.871821 140.26661,91.934936 140.03185,92.226437 c -0.66273,0.822894 -2.08958,3.135709 -2.64601,4.288968 -3.99076,8.271155 -2.94009,17.834735 2.7729,25.240095 0.74283,0.96289 2.95983,3.18351 4.03392,4.0405 2.87582,2.29458 6.5393,4.02143 10.078,4.75046 2.62176,0.54012 4.40129,0.65889 6.66168,0.44467 z m 17.20156,-9.44787 c 0.0998,-0.12339 0.5852,-0.82594 1.07874,-1.56123 1.66653,-2.48281 2.87202,-5.42765 3.52926,-8.6214 0.31895,-1.54991 0.35115,-1.95915 0.35115,-4.46235 0,-2.5032 -0.0323,-2.91245 -0.35115,-4.46235 -1.29396,-6.287816 -4.73814,-11.566473 -10.00871,-15.339628 -1.36676,-0.978439 -4.52444,-2.581229 -6.16078,-3.127109 -2.85591,-0.952717 -6.44483,-1.410696 -9.16511,-1.169549 -4.66676,0.413694 -8.88949,1.987204 -12.48384,4.651808 l -0.88492,0.656007 16.90702,16.824021 c 9.29886,9.25322 16.9295,16.82673 16.95698,16.83006 0.0274,0.003 0.13156,-0.0949 0.23136,-0.21828 z"
         id="path233" />
      <path
         style="fill:#fefefe;stroke-width:0.0776387"
         d="m 161.71211,103.19932 c 3.29873,-4.824617 6.91126,-9.674335 10.22767,-14.607856 0.24319,-0.382164 0.53032,-0.455136 0.5282,-0.134235 -7.3e-4,0.10617 -1.15085,4.11157 -2.55589,8.900895 l -2.55463,8.707866 5.75272,0.0219 5.75272,0.022 -0.001,0.19252 c -8.5e-4,0.12362 -2.70528,4.11568 -5.84431,8.68617 -11.30548,-11.78926 0,0 -11.30548,-11.78926 z"
         id="path484" />
      <path
         style="fill:#fefefe;stroke-width:0.0776388"
         d="m 161.96533,115.41729 h -3.0552 -5.48754 l 0.0207,-0.23133 c 0.009,-0.10094 0.99809,-1.56647 3.25764,-4.81702 5.2644,5.04835 0,0 5.2644,5.04835 z"
         id="path484-4" />
      <path
         style="fill:#fefefe;stroke-width:0.0776388"
         d="m 163.33552,128.3343 c 0,-0.19845 0.59404,-7.52769 0.87888,-10.90467 4.00445,4.50614 0,0 4.00445,4.50614 -2.57975,3.71193 -4.63265,6.62166 -4.71426,6.63479 -0.14629,0.0236 -0.1687,-0.008 -0.1687,-0.23627 z"
         id="path484-9" />
      <path
         style="fill:#fefefe;stroke-width:0.0422065"
         d="m 143.96135,121.45386 c -0.093,-0.0207 -0.25602,-0.0386 -0.36257,-0.0399 -0.26583,-0.003 -0.63702,-0.1966 -0.97839,-0.5094 -0.35386,-0.32424 -0.56418,-0.64396 -0.72033,-1.09502 -0.10949,-0.31641 -0.12507,-0.42011 -0.12647,-0.846 -0.002,-0.8264 0.21804,-1.38927 0.75327,-1.9204 0.52479,-0.52076 1.11789,-0.7565 1.89876,-0.7547 0.82103,0.001 1.41338,0.23084 1.93372,0.7474 0.54236,0.53842 0.76259,1.09603 0.76136,1.9277 -5.1e-4,0.42859 -0.0155,0.52757 -0.12646,0.846 -0.15646,0.44884 -0.36772,0.77114 -0.71269,1.08722 -0.37442,0.34311 -0.63807,0.4769 -1.029,0.52221 -0.51245,0.0594 -1.10846,0.0755 -1.2912,0.0349 z m -1.30527,-6.70047 c -0.0142,-0.11031 -0.23453,-2.31819 -0.48953,-4.90652 -0.25501,-2.5883 -0.50265,-5.07638 -0.55033,-5.52905 -0.0477,-0.45265 -0.10395,-1.25986 -0.12491,-1.79378 -0.021,-0.53392 -0.0509,-1.04198 -0.0663,-1.12902 l -0.0281,-0.15827 h 3.04978 3.0498 l -0.0302,0.17936 c -0.0166,0.0986 -0.0463,0.59723 -0.0661,1.10793 -0.0196,0.5107 -0.0945,1.50784 -0.16611,2.21585 -0.0716,0.70801 -0.31951,3.20559 -0.55089,5.55016 -0.23139,2.34459 -0.43217,4.35307 -0.44617,4.46334 l -0.0255,0.20048 h -1.76475 -1.76475 z"
         id="path32" />
      <path
         style="fill:#fefefe;stroke-width:0.0306163"
         d="m 159.23637,99.346427 c -0.0674,-0.01503 -0.18571,-0.02804 -0.26301,-0.02891 -0.19285,-0.0014 -0.46209,-0.142644 -0.70972,-0.369505 -0.25668,-0.235199 -0.40924,-0.467121 -0.52251,-0.794314 -0.0793,-0.229521 -0.0906,-0.304746 -0.0917,-0.613682 -0.001,-0.599462 0.15817,-1.007759 0.54641,-1.393032 0.38067,-0.377755 0.8109,-0.548759 1.37735,-0.547453 0.59555,7.86e-4 1.02522,0.167459 1.40268,0.542157 0.39343,0.390559 0.55318,0.795052 0.55229,1.398328 -3.7e-4,0.310891 -0.0122,0.3827 -0.0917,0.613682 -0.11338,0.325582 -0.26675,0.559374 -0.51699,0.788652 -0.2716,0.248881 -0.46286,0.345944 -0.74642,0.37881 -0.37173,0.04308 -0.80406,0.05474 -0.93663,0.02538 z m -0.94683,-4.860436 c -0.0109,-0.08003 -0.17005,-1.681588 -0.35511,-3.559129 -0.18496,-1.877524 -0.36461,-3.682345 -0.39919,-4.010704 -0.0345,-0.328352 -0.0754,-0.91389 -0.0905,-1.301187 -0.0157,-0.387296 -0.037,-0.755839 -0.048,-0.818978 l -0.0205,-0.114798 h 2.21228 2.21229 l -0.0219,0.130113 c -0.0122,0.0715 -0.0337,0.433219 -0.0478,0.803677 -0.0139,0.370457 -0.0685,1.093764 -0.12059,1.607347 -0.052,0.513583 -0.23178,2.325293 -0.39964,4.026022 -0.16777,1.700733 -0.31348,3.157662 -0.32363,3.237651 l -0.0185,0.145422 h -1.28011 -1.28012 z"
         id="path32-7-6" />
    </g>
  </g>
</svg>
