<svg height="480pt" viewBox="0 0 480 480" width="480pt" xmlns="http://www.w3.org/2000/svg"><g fill="#231f20"><path d="m328 160c0 4.417969-3.582031 8-8 8s-8-3.582031-8-8 3.582031-8 8-8 8 3.582031 8 8zm0 0"/><path d="m248 160c0 4.417969-3.582031 8-8 8s-8-3.582031-8-8 3.582031-8 8-8 8 3.582031 8 8zm0 0"/><path d="m360 304c-4.417969 0-8 3.582031-8 8v160c0 4.417969 3.582031 8 8 8s8-3.582031 8-8v-160c0-4.417969-3.582031-8-8-8zm0 0"/><path d="m152 304c-4.417969 0-8 3.582031-8 8v160c0 4.417969 3.582031 8 8 8s8-3.582031 8-8v-160c0-4.417969-3.582031-8-8-8zm0 0"/><path d="m304 392h-16v-16c0-4.417969-3.582031-8-8-8s-8 3.582031-8 8v16h-16c-4.417969 0-8 3.582031-8 8s3.582031 8 8 8h16v32c0 4.417969 3.582031 8 8 8s8-3.582031 8-8v-32h16c4.417969 0 8-3.582031 8-8s-3.582031-8-8-8zm0 0"/><path d="m408 272h-80v-14.320312c22.699219-14.601563 37.445312-38.8125 40-65.679688h8c13.253906 0 24-10.746094 24-24v-16c-.039062-8.234375-4.296875-15.875-11.28125-20.238281 7.214844-7.445313 11.261719-17.394531 11.28125-27.761719v-16c0-48.601562-39.398438-88-88-88h-136c-8.835938 0-16 7.164062-16 16v88c.019531 10.367188 4.066406 20.316406 11.28125 27.761719-6.984375 4.363281-11.242188 12.003906-11.28125 20.238281v16c0 13.253906 10.746094 24 24 24h8.398438c2.464843 26.796875 17.054687 50.992188 39.601562 65.679688v14.320312h-80c-4.417969 0-8 3.582031-8 8s3.582031 8 8 8h40v184c0 4.417969 3.582031 8 8 8s8-3.582031 8-8v-184h24.71875c2.386719 14.082031 10.921875 26.367188 23.28125 33.519531v14.480469c0 4.417969 3.582031 8 8 8h32c4.417969 0 8-3.582031 8-8v-14.480469c12.359375-7.152343 20.894531-19.4375 23.28125-33.519531h72.71875v184c0 4.417969 3.582031 8 8 8s8-3.582031 8-8v-183.359375c27.527344 3.972656 47.96875 27.546875 48 55.359375v128c0 4.417969 3.582031 8 8 8s8-3.582031 8-8v-128c0-39.765625-32.234375-72-72-72zm-24-104c0 4.417969-3.582031 8-8 8h-8v-32h8c4.417969 0 8 3.582031 8 8zm-208 0v-16c0-4.417969 3.582031-8 8-8h8v32h-8c-4.417969 0-8-3.582031-8-8zm32 16v-87.199219l23.199219 2.398438c4.417969.441406 8.359375-2.78125 8.800781-7.199219s-2.78125-8.359375-7.199219-8.800781l-32-3.199219c-2.257812-.210938-4.496093.546875-6.160156 2.078125-1.675781 1.515625-2.636719 3.664063-2.640625 5.921875v38.558594c-9.566406-3.378906-15.972656-12.414063-16-22.558594v-88h136c39.765625 0 72 32.234375 72 72v16c-.027344 10.144531-6.433594 19.179688-16 22.558594v-22.558594c.019531-4.125-3.097656-7.585938-7.199219-8l-96-9.601562c-4.417969-.441407-8.359375 2.785156-8.800781 7.203124-.441406 4.417969 2.78125 8.355469 7.199219 8.796876l88.800781 8.800781v72.800781c0 39.765625-32.234375 72-72 72s-72-32.234375-72-72zm72 88c10.949219-.03125 21.800781-2.09375 32-6.078125v14.078125c.121094 1.597656.121094 3.203125 0 4.800781-20.863281 4.160157-42.339844 4.160157-63.199219 0-.121093-1.597656-.121093-3.203125 0-4.800781v-14.078125c9.949219 3.890625 20.519531 5.949219 31.199219 6.078125zm12.800781 37.28125c-2.925781 1.273438-4.8125 4.167969-4.800781 7.359375v11.359375h-16v-11.359375c.011719-3.191406-1.875-6.085937-4.800781-7.359375-3.640625-1.613281-6.953125-3.894531-9.757813-6.722656 14.976563 1.921875 30.140625 1.921875 45.117188 0-2.804688 2.828125-6.117188 5.109375-9.757813 6.722656zm0 0"/><path d="m120 304h-88c-17.671875 0-32 14.328125-32 32v112c0 17.671875 14.328125 32 32 32h88c4.417969 0 8-3.582031 8-8v-112c0-4.417969-3.582031-8-8-8h-88c-8.835938 0-16-7.164062-16-16s7.164062-16 16-16h80v8c0 4.417969 3.582031 8 8 8s8-3.582031 8-8v-16c0-4.417969-3.582031-8-8-8zm-88 64h80v96h-80c-8.835938 0-16-7.164062-16-16v-84.480469c4.832031 2.910157 10.359375 4.457031 16 4.480469zm0 0"/><path d="m48 416h8v24c0 4.417969 3.582031 8 8 8s8-3.582031 8-8v-24h8c4.417969 0 8-3.582031 8-8s-3.582031-8-8-8h-8v-8c0-4.417969-3.582031-8-8-8s-8 3.582031-8 8v8h-8c-4.417969 0-8 3.582031-8 8s3.582031 8 8 8zm0 0"/><path d="m120 128h-24v-24c0-4.417969-3.582031-8-8-8h-32c-4.417969 0-8 3.582031-8 8v24h-24c-4.417969 0-8 3.582031-8 8v32c0 4.417969 3.582031 8 8 8h24v56c0 4.417969 3.582031 8 8 8h32c4.417969 0 8-3.582031 8-8v-56h24c4.417969 0 8-3.582031 8-8v-32c0-4.417969-3.582031-8-8-8zm-8 32h-24c-4.417969 0-8 3.582031-8 8v56h-16v-56c0-4.417969-3.582031-8-8-8h-24v-16h24c4.417969 0 8-3.582031 8-8v-24h16v24c0 4.417969 3.582031 8 8 8h24zm0 0"/></g></svg>