<?xml version="1.0" encoding="UTF-8" standalone="no"?>
<svg
   xmlns:dc="http://purl.org/dc/elements/1.1/"
   xmlns:cc="http://creativecommons.org/ns#"
   xmlns:rdf="http://www.w3.org/1999/02/22-rdf-syntax-ns#"
   xmlns:svg="http://www.w3.org/2000/svg"
   xmlns="http://www.w3.org/2000/svg"
   width="43.006477mm"
   height="35.477486mm"
   viewBox="0 0 43.006477 35.477486"
   version="1.1"
   id="svg8">
  <defs
     id="defs2" />
  <metadata
     id="metadata5">
    <rdf:RDF>
      <cc:Work
         rdf:about="">
        <dc:format>image/svg+xml</dc:format>
        <dc:type
           rdf:resource="http://purl.org/dc/dcmitype/StillImage" />
        <dc:title></dc:title>
      </cc:Work>
    </rdf:RDF>
  </metadata>
  <g
     id="layer1"
     transform="translate(-67.699143,-113.79697)">
    <path
       style="fill:#fefefe;stroke-width:0.0846667"
       d="m 99.201859,149.23325 c -0.69822,-0.1693 -1.26366,-0.82456 -1.33926,-1.55199 -0.0203,-0.19506 0.24894,-3.76461 0.59824,-7.93233 0.59309,-7.07637 0.62729,-7.61104 0.51704,-8.08214 -0.0649,-0.27747 -0.10941,-0.51312 -0.0989,-0.52368 0.0106,-0.0106 1.07174,-0.28285 2.358171,-0.6051 l 2.33896,-0.5859 0.10573,0.49822 c 0.0581,0.27403 0.13244,0.51473 0.16508,0.53491 0.0506,0.0312 0.68061,-0.1073 0.74168,-0.1631 0.0115,-0.0105 -0.0388,-0.21988 -0.11164,-0.4653 l -0.14901,-0.57359 0.22425,-0.0661 c 0.0261,-0.008 0.0473,0.11555 0.0545,0.13694 l 0.0939,0.27833 c 0.0998,0.29573 0.11245,0.33674 0.16192,0.50225 0.0101,0.0339 0.021,0.0733 0.0361,0.12051 0,0 0.008,0.0315 0.37227,-0.0807 l 0.35545,-0.10955 -0.36661,-0.98082 c 0,0 0.009,-0.005 0.0387,-0.0203 0.11033,-0.0586 0,0 0.131,-0.0586 0.0469,-0.021 0.30296,-0.11911 0.58811,-0.18874 l 0.51844,-0.1266 0.43411,1.74468 c 0.59272,2.38218 3.73611,16.23564 3.73553,16.4631 -9.5e-4,0.367 -0.18438,0.82969 -0.44792,1.12985 -0.95279,1.08516 -2.66202,0.66209 -3.05758,-0.75682 -0.0681,-0.24426 -0.83593,-3.58737 -1.7063,-7.42912 -0.87037,-3.84175 -1.58865,-6.9928 -1.59617,-7.00234 -0.0204,-0.0259 -1.24429,0.29484 -1.28662,0.33717 -0.02,0.0201 -0.30152,3.1948 -0.62549,7.05498 -0.32396,3.86019 -0.61124,7.11377 -0.63839,7.23019 -0.19796,0.84881 -1.26954,1.484 -2.145291,1.27165 z m -29.105999,-0.0962 c -0.14661,-0.0413 -0.38473,-0.20972 -0.52917,-0.37421 -0.21774,-0.248 -0.2626,-0.3704 -0.2626,-0.71653 0,-0.34584 0.0449,-0.46858 0.26174,-0.71554 0.31296,-0.35645 0.33677,-0.36331 2.8286,-0.81535 1.07103,-0.19429 1.95401,-0.35828 1.96218,-0.36443 0.008,-0.006 -0.26805,-1.03801 -0.61383,-2.29303 -0.34578,-1.25502 -0.62869,-2.33223 -0.62869,-2.39381 0,-0.0616 0.0555,-0.24475 0.12331,-0.40706 l 0.1233,-0.29511 0.4388,0.33212 c 1.15578,0.87477 2.98619,0.91758 4.17784,0.0977 1.41807,-0.97566 1.99066,-2.66073 1.4506,-4.26901 -0.12323,-0.36694 -0.21313,-0.67611 -0.19978,-0.68703 0.0133,-0.0109 0.11325,-0.0662 0.22202,-0.12285 0.24467,-0.12743 0.20773,-0.16741 -0.24958,-0.27016 -0.22353,-0.0502 -0.49447,-0.20391 -0.71043,-0.40297 -0.90634,-0.83543 -2.18082,-1.20234 -3.28563,-0.9459 -0.29713,0.069 -0.32883,0.0584 -0.40217,-0.13453 -0.24227,-0.63722 0.0242,-1.28 0.62577,-1.50975 l 0.38105,-0.14553 3.41495,0.77607 c 1.87822,0.42683 3.53687,0.81411 3.68589,0.86062 0.14901,0.0465 0.38713,0.2169 0.52916,0.37866 0.21254,0.24207 0.25823,0.36735 0.25823,0.708 0,0.57137 -0.2016,0.78439 -1.61623,1.70778 l -1.17026,0.76388 0.17251,0.43811 c 0.32126,0.81592 0.83869,1.72078 1.31237,2.29505 l 0.47171,0.57187 -0.46175,1.6411 c -0.44793,1.59197 -0.45704,1.64537 -0.3042,1.78369 0.0867,0.0784 0.17011,0.12695 0.18545,0.10783 0.0153,-0.0191 0.32802,-1.11643 0.69486,-2.43847 0.45754,-1.64896 0.74155,-2.52131 0.90448,-2.77823 0.61611,-0.9715 2.1427,-1.02678 2.86588,-0.10376 0.12513,0.1597 0.90141,1.92361 1.72506,3.9198 1.645149,3.98715 1.689179,4.14831 1.327159,4.85794 -0.57712,1.13125 -1.954249,1.36776 -2.850919,0.48961 -0.26981,-0.26424 -0.44051,-0.56964 -0.75847,-1.35698 -0.22567,-0.5588 -0.43599,-1.04639 -0.4674,-1.08352 -0.0314,-0.0371 -0.1453,0.24861 -0.2531,0.635 -0.10781,0.38638 -0.26377,0.83948 -0.34659,1.00687 -0.28817,0.58245 -0.96272,1.00704 -1.59989,1.00704 -0.40435,0 -0.89694,-0.19131 -2.32427,-0.90266 -1.66997,-0.83229 -2.74178,-1.44672 -3.83519,-2.19857 -0.43072,-0.29617 -0.79965,-0.53849 -0.81984,-0.53849 -0.0202,0 0.0555,0.33337 0.16824,0.74083 0.11273,0.40746 0.20529,0.89323 0.20569,1.0795 9.4e-4,0.43327 -0.26262,0.86708 -0.61432,1.01114 -0.15032,0.0616 -1.47346,0.32692 -2.94031,0.58966 -1.46685,0.26274 -2.7432,0.49144 -2.83633,0.50823 -0.0931,0.0168 -0.28929,-0.003 -0.4359,-0.0446 z m 23.287619,-0.20063 c -0.29816,-0.14858 -0.88431,-0.67813 -1.99145,-1.79916 l -1.56894,-1.58862 -0.87106,-2.11667 c -0.479079,-1.16416 -0.959669,-2.32621 -1.067979,-2.58233 l -0.19693,-0.46567 0.31232,-0.14594 c 0.41045,-0.19181 1.073509,-0.18663 1.497649,0.0117 0.46963,0.21959 6.16599,5.94251 6.34612,6.37571 0.16928,0.40713 0.16735,1.10677 -0.004,1.46798 -0.4416,0.93059 -1.53008,1.30427 -2.45568,0.84302 z M 75.40009,141.34495 c -1.00882,-0.16233 -1.96216,-0.87939 -2.42612,-1.82479 -0.21827,-0.44478 -0.24088,-0.5743 -0.24088,-1.37985 0,-0.78732 0.0259,-0.94438 0.22691,-1.37313 0.49833,-1.06321 1.55132,-1.81955 2.65674,-1.90828 l 0.56441,-0.0453 c 0.545545,0.0758 0.554519,0.0742 0.99969,0.23815 l 0.37845,0.20077 c 0.50805,0.26952 1.10433,0.92327 1.38152,1.51467 0.20096,0.42875 0.22691,0.58581 0.22691,1.37313 0,0.80454 -0.0222,0.93201 -0.23351,1.34179 -0.72251,1.40104 -2.05132,2.10145 -3.53416,1.86285 z m 0.44835,-1.20198 c 0.10266,-0.10927 0.38934,-0.41425 0.63707,-0.67775 0.33376,-0.35499 0.63642,-0.56786 1.16855,-0.82183 0.39497,-0.18851 0.74159,-0.40388 0.77026,-0.47859 0.0971,-0.25302 -0.35078,-0.53249 -0.85333,-0.53249 -1.25669,0 -2.68389,1.50224 -2.30002,2.42097 0.14123,0.33801 0.31833,0.36551 0.57747,0.0897 z m -4.41481,0.89717 c -0.44657,-0.42588 -0.5785,-0.86799 -0.42315,-1.41802 0.0637,-0.22549 0.16879,-0.42765 0.23355,-0.44924 0.0887,-0.0296 0.1028,0.0105 0.0572,0.16259 -0.22747,0.75794 -0.11242,1.25292 0.37496,1.61326 0.24332,0.17989 0.33937,0.40891 0.1715,0.40891 -0.0446,0 -0.23092,-0.14288 -0.41403,-0.3175 z m 0.48862,-0.52265 c -0.25105,-0.25105 -0.31126,-0.56417 -0.19322,-1.00481 0.0544,-0.20296 0.26356,-0.20995 0.2131,-0.007 -0.0997,0.40067 -0.021,0.71424 0.23216,0.92563 0.14436,0.12051 0.26247,0.24492 0.26247,0.27645 0,0.14195 -0.28934,0.035 -0.51451,-0.19015 z m -3.64067,-1.016 c -0.331425,-0.33143 -0.331311,-0.71206 3.4e-4,-1.1699 0.40914,-0.56481 1.57943,-1.01708 2.32057,-0.89681 l 0.3002,0.0487 -0.69347,0.72435 c -0.38141,0.39839 -0.869,0.90812 -1.08354,1.13274 -0.21454,0.22461 -0.43655,0.40838 -0.49335,0.40838 -0.0568,0 -0.21464,-0.11137 -0.35076,-0.24748 z m -0.484554,-3.66412 c -0.142281,-0.14228 -0.126603,-0.58702 0.0285,-0.80846 0.394221,-0.56283 1.830684,-0.34359 2.522674,0.38502 l 0.23977,0.25246 -0.62077,0.0569 c -0.34143,0.0313 -0.8278,0.0926 -1.08082,0.13629 -0.61989,0.10703 -0.967225,0.1 -1.089353,-0.0222 z m 3.962404,-1.73615 c -0.16299,-0.0718 -0.53905,-0.2007 -0.83569,-0.28636 -0.72771,-0.21016 -0.96604,-0.37255 -0.89683,-0.6111 0.15535,-0.5355 0.86429,-0.62773 1.44143,-0.18752 0.55472,0.4231 1.02014,1.24383 0.69325,1.22249 -0.0582,-0.004 -0.23918,-0.0657 -0.40216,-0.13751 z m 37.34401,-0.51188 c -0.44794,-0.22841 -0.58021,-0.48943 -0.80441,-1.58737 -0.57645,-2.823 -1.13407,-4.65882 -1.90838,-6.28288 -0.42777,-0.8972 -1.0346,-1.88537 -1.07606,-1.75226 -0.0131,0.0421 0.21745,1.06708 0.51233,2.27781 0.29489,1.21073 0.52818,2.21176 0.51844,2.2245 -0.01,0.0128 -0.27407,0.0995 -0.59033,0.18195 l -0.55553,0.1448 c 0,0 -0.0482,-0.27611 -0.0981,-0.3359 0,0 -0.11878,0.0298 -0.12639,0.032 l -0.6802,0.19532 0.0889,0.34481 -0.23075,0.0703 c 0,0 -0.0342,-0.12839 -0.0509,-0.18378 l -0.0525,-0.1741 -0.3121,0.0874 -0.34349,0.0902 0.0549,0.34039 -2.43027,0.59629 c -1.426911,0.3501 -2.298971,0.5507 -2.331921,0.49738 -0.029,-0.047 -0.27975,-1.03864 -0.55717,-2.20375 -0.27743,-1.16511 -0.52996,-2.11864 -0.56118,-2.11895 -0.0481,-5.1e-4 -4.38404,5.93848 -4.45541,6.10265 -0.0137,0.0314 0.21878,0.19965 0.51654,0.37383 l 0.54138,0.3167 -0.17787,0.32776 c -0.0978,0.18027 -0.21598,0.32798 -0.26255,0.32824 -0.0466,2.6e-4 -0.30565,-0.13277 -0.57574,-0.29563 -0.54725,-0.32999 -0.62295,-0.34467 -0.85861,-0.16643 -0.21442,0.16218 -0.75108,0.15878 -1.07126,-0.007 -0.3311,-0.17121 -0.58401,-0.59558 -0.5844,-0.98058 l -3.4e-4,-0.30735 -5.577649,-3.23354 -5.57764,-3.23354 0.18014,-0.3319 c 0.0991,-0.18255 0.20992,-0.33223 0.2463,-0.33261 0.0364,-4.2e-4 2.53193,1.43068 5.54567,3.18013 3.01373,1.74946 5.513489,3.18773 5.555029,3.19617 0.0675,0.0137 2.27244,-2.98291 5.15959,-7.012 l 1.03139,-1.43933 0.38042,0.099 c 0.20923,0.0545 0.53585,0.10208 0.72583,0.10583 l 0.34541,0.007 0.4846,0.889 c 0.26653,0.48895 0.49847,0.889 0.51542,0.889 0.0169,0 0.17254,-0.42532 0.345761,-0.94515 0.2834,-0.85052 0.30136,-0.95508 0.17938,-1.04428 -0.11644,-0.0851 -0.0629,-0.14926 0.37948,-0.45453 0.3492,-0.24097 0.49625,-0.30683 0.45669,-0.20456 -0.20281,0.52432 -0.18787,0.54701 0.67133,1.01868 0.44533,0.24448 0.84278,0.4445 0.88322,0.4445 0.0404,0 -0.0535,-0.50374 -0.20877,-1.11943 -0.15526,-0.61569 -0.27486,-1.12332 -0.26578,-1.12806 0.009,-0.005 0.38562,-0.0916 0.83676,-0.1929 0.97892,-0.21992 1.24684,-0.22706 1.85255,-0.0494 2.55672,0.75007 4.48661,4.31255 5.74544,10.60574 0.21641,1.08183 0.21945,1.42045 0.0158,1.75446 -0.17129,0.2809 -0.63244,0.54363 -0.9538,0.54342 -0.10938,-7e-5 -0.32952,-0.0668 -0.48919,-0.14816 z m -5.43956,-7.50635 c 0.02,-0.099 -0.0105,-0.23035 0.0537,-0.29165 0.0469,-0.0447 0.13481,-0.0452 0.24625,-0.0774 0.16613,-0.048 0.30758,-0.12914 0.30758,-0.15674 0,-0.0276 -0.0953,-0.12511 -0.21168,-0.21669 -0.1824,-0.14347 -0.20442,-0.21195 -0.15915,-0.495 l 0.0525,-0.3285 -0.30831,0.0851 c -0.26208,0.0724 -0.34565,0.0585 -0.55721,-0.0921 l -0.24889,-0.17722 -0.0721,0.27831 c -0.0469,0.18101 -0.15906,0.32281 -0.3208,0.40558 -0.13678,0.07 -0.26496,0.13719 -0.28485,0.14931 -0.0199,0.0121 0.10137,0.12022 0.22656,0.25089 0.0981,0.10242 0.19426,0.13304 0.21802,0.21297 0.0212,0.0712 -0.0587,0.1994 -0.0794,0.30292 -0.0584,0.29204 -0.0343,0.28516 0.31182,0.15361 0.0874,-0.0515 0.20558,-0.15664 0.26625,-0.14553 0.0634,0.0116 0.16241,0.15909 0.22913,0.236 0.20735,0.23902 0.26623,0.2251 0.32467,-0.0646 z m -5.972631,-3.85261 c -0.93155,-0.23791 -1.86887,-1.03474 -2.22343,-1.89018 l -0.18688,-0.45088 -0.80348,-0.29201 c -0.44192,-0.16061 -0.8191,-0.31728 -0.83819,-0.34816 -0.0191,-0.0309 -0.0784,-0.53128 -0.13183,-1.11201 l -0.0971,-1.05587 1.26073,-1.53548 c 1.11011,-1.35205 1.29107,-1.53633 1.51473,-1.54255 0.1397,-0.004 1.0343,-0.0519 1.98799,-0.10667 l 1.73399,-0.0996 0.763681,0.66718 c 0.42002,0.36696 0.79067,0.69151 0.82367,0.72123 0.033,0.0297 -0.0533,0.44203 -0.19174,0.91625 l -0.25173,0.86221 0.25159,0.39672 c 0.32467,0.51195 0.45672,1.119 0.41438,1.90487 -0.0626,1.16201 -0.75434,2.19189 -1.826851,2.71988 -0.45605,0.22452 -0.66003,0.27264 -1.23656,0.29176 -0.37973,0.0126 -0.81304,-0.008 -0.96292,-0.0467 z m 0.77816,-1.57418 c 0.59329,-0.30293 1.22843,-0.57472 1.41143,-0.60398 0.336621,-0.0538 0.558071,-0.28486 0.446341,-0.46564 -0.15011,-0.24288 -1.400041,0.17057 -2.551151,0.84387 -0.5845,0.34189 -0.6069,0.36652 -0.51557,0.56697 0.0525,0.11525 0.1033,0.20955 0.11286,0.20955 0.01,0 0.5028,-0.24784 1.09609,-0.55077 z m -3.2127,-1.48565 c 0.60508,-1.17009 3.86438,-2.85362 5.176441,-2.67378 0.36995,0.0507 0.45214,-0.0201 0.30042,-0.25867 -0.39039,-0.61395 -2.575581,-0.049 -4.336151,1.12106 -1.16781,0.77612 -1.77471,1.6159 -1.4224,1.96821 0.1352,0.1352 0.12886,0.13872 0.28169,-0.15682 z m 1.81805,-3.06744 c 0.15145,-0.12299 0.84666,-1.15709 0.84666,-1.25937 0,-0.1175 -0.11302,-0.0768 -0.36984,0.13327 -0.23775,0.19446 -0.24617,0.19528 -0.40216,0.0393 -0.17134,-0.17134 -0.58375,-0.21001 -0.83062,-0.0779 -0.17926,0.0959 -0.36837,0.51199 -0.32959,0.7251 0.0202,0.11089 -0.0713,0.1837 -0.35379,0.28153 l -0.381,0.13196 0.254,0.0573 c 0.43755,0.0987 1.43073,0.0789 1.56634,-0.0312 z"
       id="path60" />
  </g>
</svg>
