<svg id="Layer_1" enable-background="new 0 0 512 512" height="512" viewBox="0 0 512 512" width="512" xmlns="http://www.w3.org/2000/svg"><path d="m466.437 181.747c3.576 9.068 5.563 18.93 5.563 29.253v91h-212v-171h49.991c-10.553-13.109-18.142-26.466-22.731-40h-67.26v211h-33.44c2.22-6.26 3.44-12.989 3.44-20 0-33.084-26.916-60-60-60s-60 26.916-60 60c0 7.011 1.22 13.74 3.44 20h-33.44v-302h-40v512h40v-60h432v60h40v-301c0-19.489-4.674-37.906-12.954-54.194-11.821 10.423-23.605 18.937-32.609 24.941zm-356.437 100.253c0-11.028 8.972-20 20-20s20 8.972 20 20-8.972 20-20 20-20-8.972-20-20zm-70 130v-70h432v70zm90-220c33.084 0 60-26.916 60-60s-26.916-60-60-60-60 26.916-60 60 26.916 60 60 60zm0-80c11.028 0 20 8.972 20 20s-8.972 20-20 20-20-8.972-20-20 8.972-20 20-20zm271.791 44.023c1.616.939 15.205 8.784 15.205 8.784s13.6-7.844 15.22-8.786c13.322-7.747 79.784-48.793 79.784-96.209 0-16.918-5.949-32.26-16.752-43.2-10.578-10.713-25.049-16.612-40.748-16.612-15.871 0-28.312 4.811-37.5 11.855-9.188-7.044-21.629-11.855-37.5-11.855-15.699 0-30.17 5.899-40.748 16.611-10.803 10.94-16.752 26.283-16.752 43.201 0 47.415 66.463 88.462 79.791 96.211zm-22.291-116.023c9.5 0 13.425 5.4 17.417 9.383.078.286.11.472.118.521 0-.002-.021-.152-.03-.431 11.23 11.248 19.89 27.527 19.89 27.527s8.676-16.015 20.087-27.252c-.008.1-.016.155-.016.156.004-.025.014-.084.032-.172 4.304-4.236 9.002-9.732 17.502-9.732 10.794 0 17.5 7.591 17.5 19.812 0 15.623-27.679 41.723-54.999 58.688-27.321-16.966-55.001-43.066-55.001-58.688 0-12.221 6.706-19.812 17.5-19.812z"/></svg>