<svg id="Layer_1" enable-background="new 0 0 512 512" height="512" viewBox="0 0 512 512" width="512" xmlns="http://www.w3.org/2000/svg"><g><path d="m497 0h-80.333c-8.284 0-15 6.716-15 15s6.716 15 15 15h44.115l-61.606 61.63c-49.985-39.461-122.928-36.144-169.042 9.971-42.65 42.65-48.697 108.251-18.146 157.412 10.733-.65 20.977-3.786 30.057-9.142-28.381-38.136-25.289-92.466 9.302-127.057 38.002-38.002 99.837-38.002 137.839 0s38.002 99.837 0 137.839c-15.986 15.986-36.192 25.22-57.065 27.756-3.99 5.113-8.318 10.013-12.975 14.67-5.368 5.368-11.062 10.293-17.029 14.772 38.389 5.477 78.815-6.517 108.283-35.985 46.107-46.107 49.431-119.035 9.989-169.02l61.611-61.636v44.123c0 8.284 6.716 15 15 15s15-6.716 15-15v-80.333c0-8.284-6.716-15-15-15z"/><path d="m316.084 124.462c-10.734.648-20.975 3.79-30.056 9.141 28.375 38.135 25.28 92.461-9.308 127.05-38.002 38.002-99.837 38.002-137.839 0s-38.002-99.837 0-137.839c16.01-16.01 36.252-25.247 57.158-27.768 8.593-11.064 18.644-20.979 29.903-29.432-38.386-5.474-78.808 6.52-108.274 35.986-46.248 46.248-49.45 119.48-9.626 169.476l-44.849 44.862-37.585-37.585c-5.857-5.857-15.355-5.857-21.213 0s-5.858 15.355 0 21.213l37.588 37.588-37.59 37.601c-5.856 5.859-5.855 15.356.003 21.214 5.859 5.855 15.354 5.854 21.214-.003l37.587-37.598 37.599 37.598c5.857 5.857 15.355 5.857 21.213 0s5.858-15.355 0-21.213l-37.602-37.601 44.941-44.954c49.972 39.081 122.612 35.64 168.586-10.333 42.646-42.646 48.694-108.243 18.15-157.403z"/><path d="m497 417.733h-2.88c-1.555-6.362-4.063-12.353-7.384-17.801l12.833-12.82c5.861-5.855 5.865-15.353.01-21.213s-15.352-5.866-21.213-.01l-12.845 12.833c-5.444-3.317-11.43-5.821-17.786-7.375v-2.88c0-8.284-6.716-15-15-15s-15 6.716-15 15v2.88c-6.356 1.553-12.343 4.058-17.786 7.375l-12.845-12.833c-5.861-5.855-15.358-5.85-21.213.01-5.855 5.861-5.851 15.358.01 21.213l12.833 12.82c-3.321 5.448-5.829 11.44-7.384 17.801h-2.88c-8.284 0-15 6.716-15 15s6.716 15 15 15h2.88c1.555 6.362 4.063 12.354 7.385 17.802l-12.832 12.82c-5.861 5.855-5.865 15.353-.01 21.213s15.352 5.866 21.213.01l12.845-12.833c5.444 3.317 11.43 5.821 17.786 7.374v2.881c0 8.284 6.716 15 15 15s15-6.716 15-15v-2.88c6.356-1.553 12.342-4.058 17.786-7.375l12.846 12.833c5.861 5.855 15.358 5.85 21.213-.01 5.855-5.861 5.851-15.358-.01-21.213l-12.833-12.821c3.321-5.448 5.829-11.439 7.384-17.801h2.877c8.284 0 15-6.716 15-15s-6.716-15-15-15z"/></g></svg>