<?xml version="1.0" encoding="UTF-8" standalone="no"?>
<svg
   xmlns:dc="http://purl.org/dc/elements/1.1/"
   xmlns:cc="http://creativecommons.org/ns#"
   xmlns:rdf="http://www.w3.org/1999/02/22-rdf-syntax-ns#"
   xmlns:svg="http://www.w3.org/2000/svg"
   xmlns="http://www.w3.org/2000/svg"
   xmlns:sodipodi="http://sodipodi.sourceforge.net/DTD/sodipodi-0.dtd"
   xmlns:inkscape="http://www.inkscape.org/namespaces/inkscape"
   width="201"
   height="215.48"
   viewBox="0 0 201 215.48"
   version="1.1"
   id="svg7"
   sodipodi:docname="icons_cleanenergysubsidies.svg"
   inkscape:version="0.92.4 (5da689c313, 2019-01-14)">
  <metadata
     id="metadata11">
    <rdf:RDF>
      <cc:Work
         rdf:about="">
        <dc:format>image/svg+xml</dc:format>
        <dc:type
           rdf:resource="http://purl.org/dc/dcmitype/StillImage" />
      </cc:Work>
    </rdf:RDF>
  </metadata>
  <sodipodi:namedview
     pagecolor="#ffffff"
     bordercolor="#666666"
     borderopacity="1"
     objecttolerance="10"
     gridtolerance="10"
     guidetolerance="10"
     inkscape:pageopacity="0"
     inkscape:pageshadow="2"
     inkscape:window-width="640"
     inkscape:window-height="480"
     id="namedview9"
     showgrid="false"
     inkscape:zoom="6.4296875"
     inkscape:cx="102"
     inkscape:cy="107.48"
     inkscape:current-layer="svg7" />
  <defs
     id="defs4">
    <style
       id="style2">
      .cls-1 {
        fill-rule: evenodd;
      }
    </style>
  </defs>
  <path
     id="IconGraphic"
     class="cls-1"
     d="m 172.117,69.393 1.7,5.239 -3.156,2.293 12.251,6.126 15.557,60.811 -4.243,1.414 L 170.8,86.7 174,198 h -12.568 l 3.483,-121.058 -2.889,-2.1 -7.9,8.985 -63.057,-0.559 -0.257,-4.525 72.484,-8.908 0.749,-2.306 h 5.467 L 165,54 197,0 l 4,2 z m -27.91,95.087 h -36 L 86,118 h 36 z m -19.071,-36.022 h -5.4 l 3.331,6.972 h 5.4 z m -4.643,15.648 h 5.4 l -3.331,-6.972 h -5.4 z m -4.651,-6.972 h -5.4 l 3.331,6.972 h 5.4 z m 5.465,8.676 3.331,6.972 h 5.4 l -3.331,-6.972 z m -1.32,0 h -5.4 l 3.331,6.972 h 5.4 z m -6.72,0 h -5.4 l 3.331,6.972 h 5.4 z m -0.814,-1.7 -3.331,-6.972 h -5.4 l 3.331,6.972 z m -4.146,-8.676 -3.331,-6.972 h -5.4 l 3.331,6.972 z m 1.32,0 h 5.4 l -3.331,-6.972 h -5.4 z m 6.72,0 h 5.4 l -3.331,-6.972 h -5.4 z m 12.935,1.7 h -5.4 l 3.331,6.972 h 5.4 z m 4.145,8.676 h -5.4 l 3.331,6.972 h 5.4 z m 7.476,15.648 -3.331,-6.972 h -5.4 l 3.331,6.972 z m -6.72,0 -3.331,-6.972 h -5.4 l 3.331,6.972 z m -6.72,0 -3.331,-6.972 h -5.4 l 3.331,6.972 z m -6.72,0 -3.331,-6.972 h -5.4 l 3.331,6.972 z m -12.12,0 h 5.4 l -3.331,-6.972 h -5.4 z m -4.145,-8.676 h 5.4 l -3.331,-6.972 h -5.4 z m -4.145,-8.676 h 5.4 l -3.331,-6.972 H 97 Z m -4.146,-8.676 h 5.4 l -3.331,-6.972 h -5.4 z m -7.476,-15.648 3.331,6.972 h 5.4 l -3.331,-6.972 z m 6.72,0 3.331,6.972 h 5.4 l -3.331,-6.972 z m 6.72,0 3.331,6.972 h 5.4 l -3.331,-6.972 z m 6.72,0 3.331,6.972 h 5.4 l -3.331,-6.972 z m 6.72,0 3.331,6.972 h 5.4 l -3.331,-6.972 z M 65.207,164.482 43,118 h 36 l 22.207,46.48 h -36 z m 25.976,-3.022 -3.331,-6.972 h -5.4 l 3.331,6.972 z m -19.6,-15.648 3.331,6.972 h 5.4 l -3.331,-6.972 z m 4.586,-1.7 -3.331,-6.972 h -5.4 l 3.331,6.972 z m -5.906,1.7 h -5.4 l 3.331,6.972 h 5.4 z m -0.814,-1.7 -3.331,-6.972 h -5.4 l 3.331,6.972 z m -4.145,-8.676 -3.331,-6.972 h -5.4 l 3.331,6.972 z m 1.32,0 h 5.4 L 68.7,128.458 h -5.4 z m 6.72,0 h 5.4 l -3.331,-6.972 h -5.4 z m 0.815,1.7 3.331,6.972 h 5.4 l -3.331,-6.972 z m 4.145,8.676 3.331,6.972 h 5.4 l -3.331,-6.972 z m 6.156,15.648 -3.331,-6.972 h -5.4 l 3.331,6.972 z m -6.72,0 -3.331,-6.972 h -5.4 l 3.331,6.972 z m -12.12,0 h 5.4 l -3.331,-6.972 h -5.4 z m -4.145,-8.676 h 5.4 l -3.331,-6.972 h -5.4 z m -4.145,-8.676 h 5.4 L 59.4,137.134 H 54 Z m -4.145,-8.676 h 5.4 l -3.331,-6.972 h -5.4 z m -7.476,-15.648 3.331,6.972 h 5.4 l -3.331,-6.972 z m 6.72,0 3.331,6.972 h 5.4 l -3.331,-6.972 z m 6.72,0 3.331,6.972 h 5.4 l -3.331,-6.972 z m 6.72,0 3.331,6.972 h 5.4 l -3.331,-6.972 z m 12.12,0 h -5.4 l 3.331,6.972 h 5.4 z m 4.145,8.676 h -5.4 l 3.331,6.972 h 5.4 z m 4.146,8.676 h -5.4 l 3.331,6.972 h 5.4 z m 4.145,8.676 h -5.4 l 3.331,6.972 h 5.4 z m -1.255,8.676 3.331,6.972 h 5.4 L 94.57,154.488 Z M 22.207,164.48 0,118 h 36 l 22.207,46.48 z m 25.977,-3.022 -3.331,-6.972 h -5.4 l 3.331,6.972 z m -19.6,-15.648 3.331,6.972 h 5.4 l -3.331,-6.972 z m 4.586,-1.7 -3.331,-6.972 h -5.4 l 3.331,6.972 z m -5.906,1.7 h -5.4 l 3.331,6.972 h 5.4 z m -0.814,-1.7 -3.331,-6.972 h -5.4 l 3.331,6.972 z m -4.145,-8.676 -3.331,-6.972 h -5.4 l 3.331,6.972 z m 1.32,0 h 5.4 L 25.7,128.458 h -5.4 z m 6.72,0 h 5.4 l -3.331,-6.972 h -5.4 z m 0.814,1.7 3.331,6.972 h 5.4 l -3.331,-6.972 z m 4.145,8.676 3.331,6.972 h 5.4 l -3.331,-6.972 z m 6.156,15.648 -3.331,-6.972 h -5.4 l 3.331,6.972 z m -6.72,0 -3.331,-6.972 h -5.4 l 3.331,6.972 z m -12.12,0 h 5.4 l -3.331,-6.972 h -5.4 z m -4.145,-8.676 h 5.4 l -3.331,-6.972 h -5.4 z m -4.145,-8.676 h 5.4 L 16.4,137.134 H 11 Z m -4.145,-8.676 h 5.4 l -3.331,-6.972 h -5.4 z m -7.476,-15.648 3.331,6.972 h 5.4 l -3.331,-6.972 z m 6.72,0 3.331,6.972 h 5.4 l -3.331,-6.972 z m 6.72,0 3.331,6.972 h 5.4 l -3.331,-6.972 z m 6.72,0 3.331,6.972 h 5.4 l -3.331,-6.972 z m 12.12,0 h -5.4 l 3.331,6.972 h 5.4 z m 4.145,8.676 h -5.4 l 3.331,6.972 h 5.4 z m 4.145,8.676 h -5.4 l 3.331,6.972 h 5.4 z m 4.145,8.676 h -5.4 l 3.331,6.972 h 5.4 z m -1.255,8.676 3.331,6.972 h 5.4 l -3.331,-6.972 z m 18.038,60.994 h -36 L 6,169 h 36 z m -19.07,-36.022 h -5.4 l 3.331,6.972 h 5.4 z m -4.644,15.648 h 5.4 l -3.331,-6.972 h -5.4 z m -4.651,-6.972 h -5.4 l 3.331,6.972 h 5.4 z m 5.465,8.676 3.331,6.972 h 5.4 l -3.331,-6.972 z m -1.32,0 h -5.4 l 3.331,6.972 h 5.4 z m -6.72,0 h -5.4 l 3.331,6.972 h 5.4 z m -0.814,-1.7 -3.331,-6.972 h -5.4 l 3.331,6.972 z m -4.145,-8.676 -3.331,-6.972 h -5.4 l 3.331,6.972 z m 1.32,0 h 5.4 L 31.7,179.458 h -5.4 z m 6.72,0 h 5.4 l -3.331,-6.972 h -5.4 z m 12.934,1.7 h -5.4 l 3.331,6.972 h 5.4 z m 4.145,8.676 h -5.4 l 3.331,6.972 h 5.4 z m 7.473,15.648 -3.331,-6.972 h -5.4 l 3.331,6.972 z m -6.72,0 -3.331,-6.972 h -5.4 l 3.331,6.972 z m -6.72,0 -3.331,-6.972 h -5.4 l 3.331,6.972 z m -6.72,0 -3.331,-6.972 h -5.4 l 3.331,6.972 z m -12.12,0 h 5.4 l -3.331,-6.972 h -5.4 z m -4.145,-8.676 h 5.4 l -3.331,-6.972 h -5.4 z m -4.145,-8.676 h 5.4 L 22.4,188.134 H 17 Z m -4.145,-8.676 h 5.4 l -3.331,-6.972 h -5.4 z m -7.476,-15.648 3.331,6.972 h 5.4 l -3.331,-6.972 z m 6.72,0 3.331,6.972 h 5.4 l -3.331,-6.972 z m 6.72,0 3.331,6.972 h 5.4 l -3.331,-6.972 z m 6.72,0 3.331,6.972 h 5.4 l -3.331,-6.972 z m 6.72,0 3.331,6.972 h 5.4 l -3.331,-6.972 z M 85,169 l 22.207,46.48 h -36 L 49,169 Z m -26.569,1.782 3.331,6.972 h 5.4 l -3.331,-6.972 z m 19.6,15.648 -3.331,-6.972 h -5.4 l 3.331,6.972 z m -4.585,1.7 3.331,6.972 h 5.4 l -3.331,-6.972 z m 5.905,-1.7 h 5.4 l -3.331,-6.972 h -5.4 z m 0.815,1.7 3.331,6.972 h 5.4 l -3.331,-6.972 z m 4.145,8.676 3.331,6.972 h 5.4 l -3.331,-6.972 z m -1.32,0 h -5.4 l 3.331,6.972 h 5.4 z m -6.72,0 h -5.4 l 3.331,6.972 h 5.4 z m -0.814,-1.7 -3.331,-6.972 h -5.4 l 3.331,6.972 z m -4.145,-8.676 -3.331,-6.972 h -5.4 l 3.331,6.972 z m -6.156,-15.648 3.331,6.972 h 5.4 l -3.331,-6.972 z m 6.72,0 3.331,6.972 h 5.4 l -3.331,-6.972 z m 12.12,0 h -5.4 l 3.331,6.972 h 5.4 z m 4.145,8.676 h -5.4 l 3.331,6.972 h 5.4 z m 4.146,8.676 h -5.4 l 3.331,6.972 h 5.4 z m 4.145,8.676 h -5.4 l 3.331,6.972 h 5.4 z m 7.476,15.648 -3.331,-6.972 h -5.4 l 3.331,6.972 z m -6.72,0 -3.331,-6.972 h -5.4 l 3.331,6.972 z m -6.72,0 -3.331,-6.972 h -5.4 l 3.331,6.972 z m -6.72,0 -3.331,-6.972 h -5.4 l 3.331,6.972 z m -12.12,0 h 5.4 l -3.331,-6.972 h -5.4 z m -4.145,-8.676 h 5.4 l -3.331,-6.972 h -5.4 z m -4.145,-8.676 h 5.4 L 65.4,188.134 H 60 Z m -4.145,-8.676 h 5.4 l -3.331,-6.972 h -5.4 z m 1.255,-8.676 -3.331,-6.972 h -5.4 l 3.331,6.972 z M 128,169 l 22.207,46.48 h -36 L 92,169 Z m -26.569,1.782 3.331,6.972 h 5.4 l -3.331,-6.972 z m 19.6,15.648 -3.331,-6.972 h -5.4 l 3.331,6.972 z m -4.585,1.7 3.331,6.972 h 5.4 l -3.331,-6.972 z m 5.905,-1.7 h 5.4 l -3.331,-6.972 h -5.4 z m 0.815,1.7 3.331,6.972 h 5.4 l -3.331,-6.972 z m 4.145,8.676 3.331,6.972 h 5.4 l -3.331,-6.972 z m -1.32,0 h -5.4 l 3.331,6.972 h 5.4 z m -6.72,0 h -5.4 l 3.331,6.972 h 5.4 z m -0.814,-1.7 -3.331,-6.972 h -5.4 l 3.331,6.972 z m -4.146,-8.676 -3.331,-6.972 h -5.4 l 3.331,6.972 z m -6.156,-15.648 3.331,6.972 h 5.4 l -3.331,-6.972 z m 6.72,0 3.331,6.972 h 5.4 l -3.331,-6.972 z m 12.12,0 h -5.4 l 3.331,6.972 h 5.4 z m 4.145,8.676 h -5.4 l 3.331,6.972 h 5.4 z m 4.146,8.676 h -5.4 l 3.331,6.972 h 5.4 z m 4.145,8.676 h -5.4 l 3.331,6.972 h 5.4 z m 7.476,15.648 -3.331,-6.972 h -5.4 l 3.331,6.972 z m -6.72,0 -3.331,-6.972 h -5.4 l 3.331,6.972 z m -6.72,0 -3.331,-6.972 h -5.4 l 3.331,6.972 z m -6.72,0 -3.331,-6.972 h -5.4 l 3.331,6.972 z m -12.12,0 h 5.4 l -3.331,-6.972 h -5.4 z m -4.145,-8.676 h 5.4 l -3.331,-6.972 h -5.4 z m -4.145,-8.676 h 5.4 l -3.331,-6.972 H 103 Z m -4.146,-8.676 h 5.4 l -3.331,-6.972 h -5.4 z m 1.255,-8.676 -3.331,-6.972 h -5.4 l 3.331,6.972 z"
     style="fill:#ffffff;fill-rule:evenodd"
     inkscape:connector-curvature="0" />
</svg>
