<?xml version="1.0" encoding="UTF-8" standalone="no"?>
<svg
   xmlns:dc="http://purl.org/dc/elements/1.1/"
   xmlns:cc="http://creativecommons.org/ns#"
   xmlns:rdf="http://www.w3.org/1999/02/22-rdf-syntax-ns#"
   xmlns:svg="http://www.w3.org/2000/svg"
   xmlns="http://www.w3.org/2000/svg"
   width="49.767643mm"
   height="57.414585mm"
   viewBox="0 0 49.767643 57.414585"
   version="1.1"
   id="svg31">
  <defs
     id="defs25">
    <style
       id="style2">
      .cls-1 {
        fill-rule: evenodd;
      }
    </style>
  </defs>
  <metadata
     id="metadata28">
    <rdf:RDF>
      <cc:Work
         rdf:about="">
        <dc:format>image/svg+xml</dc:format>
        <dc:type
           rdf:resource="http://purl.org/dc/dcmitype/StillImage" />
        <dc:title></dc:title>
      </cc:Work>
    </rdf:RDF>
  </metadata>
  <g
     id="layer1"
     transform="translate(-68.854274,-103.58438)">
    <g
       id="layer1-6"
       transform="translate(-3.5374926,-15.508378)">
      <g
         id="g24"
         transform="matrix(0.74099558,0,0,0.74099558,27.728424,23.680906)">
        <path
           style="fill:#fefefe;stroke-width:0.0846667"
           d="m 107.12148,189.02001 c -3.92395,-1.31932 -7.521362,-4.08194 -10.781476,-8.27962 -3.296865,-4.245 -5.169325,-9.69279 -6.000756,-17.45878 -0.165562,-1.54644 -0.142632,-6.54986 0.0346,-7.55016 0.167889,-0.94756 0.278609,-1.19046 0.660958,-1.45003 0.290801,-0.19742 0.320835,-0.20011 1.608667,-0.14381 4.817528,0.21061 10.069577,-1.55008 14.726557,-4.9369 0.81194,-0.59049 0.92173,-0.64501 1.35466,-0.67265 0.55814,-0.0356 0.7474,0.0559 1.58541,0.76669 2.63078,2.2314 6.27939,3.93335 9.83355,4.587 1.35024,0.24832 2.36808,0.31497 4.3617,0.28559 l 2.01687,-0.0297 0.2822,0.30742 c 0.1941,0.21146 0.31143,0.44934 0.37584,0.762 0.16142,0.7836 0.25681,2.09575 0.25772,3.54491 0.003,5.30878 -1.06167,11.22884 -2.833,15.74801 -1.05227,2.68462 -1.96068,4.30186 -3.59059,6.39233 -2.75667,3.53561 -5.41817,5.85774 -8.34725,7.28288 -1.59194,0.77456 -2.78649,1.16378 -3.683,1.20004 -0.66878,0.0271 -0.80048,0.002 -1.86266,-0.35519 z m 2.87225,-3.94757 c 1.83293,-0.74767 3.4394,-1.88521 5.2981,-3.75157 2.68864,-2.69973 4.31824,-5.12776 5.57237,-8.30259 1.50334,-3.80567 2.52149,-9.12197 2.54576,-13.29267 l 0.01,-1.69333 -1.31233,-0.057 c -4.26441,-0.18523 -8.55283,-1.61944 -12.24758,-4.09605 -1.15178,-0.77205 -1.17576,-0.78328 -1.38376,-0.64846 -4.43779,2.87665 -8.536433,4.35385 -13.017498,4.69169 l -1.291167,0.0973 v 1.49678 c 0,5.60708 1.413358,11.94597 3.567056,15.9982 1.585559,2.98326 4.583799,6.306 7.337579,8.13173 1.41048,0.93513 3.56287,1.91538 3.95437,1.80091 0.0931,-0.0272 0.52839,-0.19597 0.96725,-0.37498 z m -7.84199,-8.82009 -0.87226,-0.87227 v -0.45786 -0.45787 l 2.42891,-2.43423 2.42892,-2.43423 -2.42892,-2.42799 -2.42891,-2.428 v -0.42392 c 0,-0.42369 5e-4,-0.4244 0.86274,-1.30064 l 0.86274,-0.87673 h 0.47132 0.47131 l 2.41189,2.41301 2.4119,2.41301 2.41409,-2.41301 2.41408,-2.41301 h 0.46664 0.46664 l 0.86633,0.86928 0.86632,0.86928 v 0.46085 0.46085 l -2.41233,2.4176 -2.41233,2.4176 2.41233,2.41122 2.41233,2.41121 v 0.47131 0.47131 l -0.87673,0.86275 c -0.87625,0.86227 -0.87696,0.86274 -1.30065,0.86274 h -0.42391 l -2.428,-2.42891 -2.428,-2.42892 -2.43422,2.42892 -2.43423,2.42891 h -0.45787 -0.45787 z"
           id="path38" />
      </g>
      <path
         id="IconGraphic"
         class="cls-1"
         d="m 88.002184,156.13442 v 17.4625 a 2.910417,2.910417 0 0 1 -5.820834,0 v -17.4625 h -1.058333 v 17.4625 a 2.9104167,2.9104167 0 0 1 -5.820833,0 v -17.47599 a 3.1734125,3.1734125 0 0 1 -2.910417,-3.16151 v -16.66875 a 3.175,3.175 0 0 1 3.175,-3.175 h 12.435417 a 3.175,3.175 0 0 1 3.175,3.175 v 16.66875 a 3.175,3.175 0 0 1 -3.175,3.175 z m -6.217709,-24.60625 a 6.2177083,6.2177083 0 1 1 6.217709,-6.21771 6.2177083,6.2177083 0 0 1 -6.217709,6.21771 z"
         style="fill:#ffffff;fill-rule:evenodd;stroke-width:0.264583" />
    </g>
  </g>
</svg>
