<?xml version="1.0" encoding="iso-8859-1"?>
<!-- Generator: Adobe Illustrator 18.0.0, SVG Export Plug-In . SVG Version: 6.00 Build 0)  -->
<!DOCTYPE svg PUBLIC "-//W3C//DTD SVG 1.1//EN" "http://www.w3.org/Graphics/SVG/1.1/DTD/svg11.dtd">
<svg version="1.1" id="Capa_1" xmlns="http://www.w3.org/2000/svg" xmlns:xlink="http://www.w3.org/1999/xlink" x="0px" y="0px"
	 viewBox="0 0 49 49" style="enable-background:new 0 0 49 49;" xml:space="preserve">
<g>
	<path d="M4.309,19.546c1.106,0.264,16.839,3.813,27.309-4.553c0.488-0.39,1.119-0.559,1.733-0.468
		c0.601,0.092,1.14,0.435,1.479,0.94c1.982,2.952,5.271,6.063,9.708,4.145l1.131-0.687C43.303,9.188,34.803,2.5,24.5,2.5
		C14.125,2.5,5.576,9.282,3.28,19.129L4.309,19.546z"/>
	<path d="M46.883,20.527l-1.365,0.829c-0.037,0.022-0.075,0.043-0.115,0.061c-4.474,1.974-8.817,0.253-12.233-4.835
		c-0.011-0.017-0.045-0.066-0.123-0.079c-0.032-0.004-0.107-0.006-0.181,0.054c-6.034,4.82-13.484,6.003-19.34,6.003
		c-5.393,0-9.434-1.003-9.774-1.09c-0.044-0.011-0.086-0.025-0.128-0.042l-1.735-0.704C0.746,21.833,0,23.431,0,25
		c0,2.153,1.269,4.089,3.208,4.979C5.704,39.733,14.386,46.5,24.5,46.5c10.115,0,18.797-6.767,21.292-16.521
		C47.732,29.089,49,27.153,49,25C49,23.331,48.15,21.639,46.883,20.527z M11.984,35.648c-1.127,0.019-2.065-0.889-2.083-2.016
		c-0.018-1.127,1.967-4.148,1.982-4.132c0,0,2.098,2.938,2.117,4.065S13.111,35.63,11.984,35.648z M12.707,27.966
		c-0.391,0.391-1.023,0.391-1.414,0s-0.391-1.023,0-1.414c2.728-2.728,7.17-2.729,9.899,0c0.391,0.391,0.391,1.023,0,1.414
		c-0.195,0.195-0.451,0.293-0.707,0.293s-0.512-0.098-0.707-0.293C17.829,26.017,14.656,26.017,12.707,27.966z M31.34,41.17
		c-0.553,0-1-0.447-1-1c0-3.126-2.544-5.67-5.67-5.67S19,37.044,19,40.17c0,0.553-0.447,1-1,1s-1-0.447-1-1
		c0-4.229,3.44-7.67,7.67-7.67s7.67,3.44,7.67,7.67C32.34,40.723,31.893,41.17,31.34,41.17z M29.222,27.966
		c-0.391,0.391-1.023,0.391-1.414,0s-0.391-1.023,0-1.414c2.729-2.729,7.172-2.728,9.899,0c0.391,0.391,0.391,1.023,0,1.414
		c-0.195,0.195-0.451,0.293-0.707,0.293s-0.512-0.098-0.707-0.293C34.345,26.017,31.172,26.017,29.222,27.966z M37.083,35.648
		c-1.127,0.019-2.065-0.889-2.083-2.016c-0.018-1.127,1.967-4.148,1.982-4.132l0,0c0,0,2.098,2.938,2.117,4.065
		S38.21,35.63,37.083,35.648z"/>
</g>
<g>
</g>
<g>
</g>
<g>
</g>
<g>
</g>
<g>
</g>
<g>
</g>
<g>
</g>
<g>
</g>
<g>
</g>
<g>
</g>
<g>
</g>
<g>
</g>
<g>
</g>
<g>
</g>
<g>
</g>
</svg>
