<?xml version="1.0" encoding="UTF-8" standalone="no"?>
<svg
   xmlns:dc="http://purl.org/dc/elements/1.1/"
   xmlns:cc="http://creativecommons.org/ns#"
   xmlns:rdf="http://www.w3.org/1999/02/22-rdf-syntax-ns#"
   xmlns:svg="http://www.w3.org/2000/svg"
   xmlns="http://www.w3.org/2000/svg"
   width="64.893646mm"
   height="64.939484mm"
   viewBox="0 0 64.893646 64.939484"
   version="1.1"
   id="svg8">
  <defs
     id="defs2">
    <style
       id="style2">
      .cls-1 {
        fill-rule: evenodd;
      }
    </style>
  </defs>
  <metadata
     id="metadata5">
    <rdf:RDF>
      <cc:Work
         rdf:about="">
        <dc:format>image/svg+xml</dc:format>
        <dc:type
           rdf:resource="http://purl.org/dc/dcmitype/StillImage" />
        <dc:title></dc:title>
      </cc:Work>
    </rdf:RDF>
  </metadata>
  <g
     id="layer1"
     transform="translate(-95.973104,-106.72908)">
    <path
       style="display:inline;fill:#fefefe;stroke-width:0.0846667"
       d="m 138.91321,144.18737 c 0.95187,-0.006 2.30655,-0.006 4.24602,-0.006 6.19197,0 6.42288,0.006 6.61579,0.16193 0.1979,0.16032 0.19988,0.17854 0.19988,1.8415 0,1.58164 -0.0114,1.70262 -0.19477,2.07494 -0.10711,0.21745 -0.33342,0.50114 -0.50291,0.63041 -0.54951,0.41913 -0.71867,0.45379 -5.25239,0.44858 -5.11162,-5.15122 0,0 -5.11162,-5.15122 z m -1.15534,-1.54273 c 0.0652,-0.90096 -0.3681,-0.83408 5.40321,-0.83408 h 4.97843 l 0.21919,0.2605 c 0.17086,0.20305 0.2192,0.35242 0.2192,0.67733 v 0.41684 h -5.42885 -5.42884 z m 2.3503,-1.91354 c -0.002,-0.0349 0.44568,-2.58762 0.99414,-5.67266 0.71249,-4.00773 1.02837,-5.60917 1.10639,-5.60917 0.0601,0 0.32708,0.0733 0.59337,0.16291 0.26629,0.0896 0.72281,0.18983 1.01449,0.22273 0.44547,0.0503 0.53686,0.0885 0.57114,0.23926 0.16733,0.73583 1.81953,10.2171 1.81953,10.44152 v 0.28527 l -0.77626,-0.0243 -0.77627,-0.0243 -0.7239,-3.91583 c -0.39814,-2.15371 -0.74422,-3.91584 -0.76907,-3.91584 -0.0248,0 -0.32537,1.59068 -0.66785,3.53484 -0.34247,1.94416 -0.65988,3.71581 -0.70535,3.937 l -0.0827,0.40216 h -0.79731 c -0.43853,0 -0.79869,-0.0286 -0.80038,-0.0635 z m -9.88109,-5.1435 h 3.80311 l 0.16185,0.19988 c 0.14032,0.17329 0.16186,0.34256 0.16186,1.27233 0,0.83362 -0.0293,1.11435 -0.1318,1.26062 l -0.13181,0.18817 h -0.95666 c -2.90655,-2.921 0,0 -2.90655,-2.921 z m -8.71972,-8.32966 -0.044,-1.81033 0.28577,0.0542 c 0.83929,0.15909 0.97323,0.15606 1.41015,-0.0319 0.24013,-0.1033 0.48057,-0.2408 0.53431,-0.30555 0.14019,-0.16892 0.47806,-0.14508 0.7568,0.0534 0.32013,0.22795 0.88486,0.42155 1.22966,0.42155 0.15473,0 0.53335,-0.1323 0.84805,-0.29633 0.65888,-0.34343 0.7822,-0.35776 1.07786,-0.12519 0.25192,0.19816 0.84257,0.42152 1.11465,0.42152 0.19229,0 0.38394,0.28954 0.38394,0.58004 0,0.0818 -0.1361,0.28004 -0.30246,0.44052 -1.07686,1.03881 -1.65085,2.86556 -1.04257,3.31801 0.38583,0.28699 0.68789,-0.0388 0.77909,-0.84035 0.0879,-0.77278 0.96047,-2.14355 1.36443,-2.14355 0.11104,0 0.40364,0.10467 0.65024,0.23261 0.43217,0.22422 0.50348,0.23369 1.97631,0.26241 1.46367,0.0285 1.53776,0.022 1.7608,-0.15409 0.28552,-0.2255 0.29516,-0.42219 0.0328,-0.6687 -0.18806,-0.17667 -0.29854,-0.19096 -1.8415,-0.2382 -1.32834,-0.0407 -1.69796,-0.0787 -1.93777,-0.19957 -0.58433,-0.29443 -0.86889,-0.76901 -0.97517,-1.6263 l -0.0603,-0.48683 h 3.0918 3.09181 l 0.0981,0.27517 c 0.1828,0.51302 0.21003,1.98603 0.0512,2.76992 -0.25133,1.24033 -0.70191,2.08456 -2.03504,3.81291 -0.84458,1.09497 -1.56898,2.62596 -1.56898,3.31598 v 0.24002 h -2.9123 c -7.81768,-7.27137 0,0 -7.81768,-7.27137 z m 21.6942,1.48132 c -0.95224,-0.23157 -1.81777,-0.92395 -2.30004,-1.83991 -0.22845,-0.43389 -0.23996,-0.50948 -0.23996,-1.5761 v -1.12035 l -1.93873,-0.0226 -1.93873,-0.0226 -0.15379,-0.55033 c -0.0846,-0.30268 -0.15514,-0.63606 -0.15677,-0.74083 l -0.003,-0.1905 h 3.08419 3.08419 l 0.17548,0.22308 c 0.26576,0.33786 0.23198,0.78414 -0.0896,1.18344 -0.32496,0.40354 -0.57754,0.93501 -0.57892,1.21814 -0.002,0.3655 0.3805,1.05094 0.78443,1.40649 0.37531,0.33037 0.85642,0.54085 1.23626,0.54085 0.27945,0 0.75723,-0.2247 1.07957,-0.50772 0.24528,-0.21536 0.3595,-0.25428 0.74618,-0.25428 0.39241,0 0.48124,0.0314 0.63206,0.22308 0.248,0.31528 0.23229,0.79708 -0.0364,1.1164 -0.69836,0.82996 -2.13603,1.21792 -3.38645,0.91384 z m -26.24154,-6.05125 c 0.20774,-1.8e-4 0.25667,-0.012 0.50285,-0.012 h 3.00566 v 0.71966 0.71967 h -2.04105 c -1.46746,-1.42729 0,0 -1.46746,-1.42729 z m 4.82247,1.65748 -0.29793,-0.29792 v -2.04698 -2.04698 l 0.24749,-0.24749 c 0.22161,-0.22161 0.30374,-0.24749 0.7855,-0.24749 1.04489,0 1.10051,0.14042 1.06704,2.6937 l -0.0257,1.95946 -0.22909,0.22891 c -0.18548,0.18535 -0.32619,0.23594 -0.73924,0.26582 -0.49132,0.0355 -0.52115,0.0259 -0.80808,-0.26103 z m 3.36444,0.1907 c -0.10448,-0.042 -0.26626,-0.20151 -0.35951,-0.35446 -0.15944,-0.2615 -0.16958,-0.42636 -0.16987,-2.76297 -2.6e-4,-2.06823 0.0217,-2.53118 0.13076,-2.7611 0.16434,-0.34631 0.42889,-0.46903 1.01118,-0.46903 0.3609,0 0.50691,0.0429 0.69452,0.20424 l 0.23755,0.20424 0.0247,2.64837 c 0.0165,1.76478 -0.006,2.72229 -0.0671,2.86996 -0.17879,0.43164 -0.94286,0.64565 -1.50224,0.42075 z m 2.86534,-0.21781 c -0.25652,-0.32611 -0.27593,-0.55415 -0.24674,-2.89876 l 0.0267,-2.14448 0.2765,-0.24692 c 0.241,-0.21521 0.34241,-0.24692 0.78968,-0.24692 0.45431,0 0.54157,0.0284 0.76067,0.24749 l 0.24748,0.24748 v 1.86918 1.86918 h -0.19914 c -0.48317,0 -1.07086,0.68465 -1.07086,1.24752 0,0.23627 -0.0299,0.27648 -0.20552,0.27648 -0.12051,0 -0.27718,-0.0911 -0.37877,-0.22025 z m 2.87029,-2.87659 v -1.48818 l 0.24749,-0.24749 c 0.2219,-0.2219 0.30343,-0.24749 0.78849,-0.24749 0.49302,0 0.56307,0.023 0.78968,0.25933 l 0.24868,0.25934 0.0266,1.47633 0.0266,1.47634 h -1.0638 -1.06379 z"
       id="path861" />
    <path
       style="fill:#fefefe;stroke-width:0.135557"
       d="m 125.03188,171.59192 c -0.41007,-0.0609 -1.23358,-0.11672 -1.83001,-0.12429 -1.3056,-0.0163 -2.59428,-0.27121 -4.67674,-0.92518 -4.40618,-1.38368 -7.97398,-3.37797 -11.74663,-6.56592 -1.73029,-1.46211 -2.93306,-2.80902 -5.30648,-5.94237 -0.43966,-0.58044 -1.864459,-3.00149 -2.393269,-4.06673 -1.15093,-2.31833 -2.31985,-5.70743 -2.71176,-7.86233 -0.36821,-2.0245 -0.50389,-6.89066 -0.29669,-10.64126 0.13465,-2.4386 0.36577,-3.81096 0.98622,-5.85762 3.208049,-10.58245 11.320249,-18.71528 21.794579,-21.85004 2.78834,-0.8345 4.58285,-1.0271 9.56971,-1.0271 4.9949,0 6.78023,0.1922 9.58572,1.03198 4.6348,1.38733 8.55084,3.57954 12.38995,6.93592 2.68812,2.35012 5.64481,6.25107 7.3664,9.71893 1.15092,2.31834 2.31984,5.70743 2.71175,7.86233 0.52996,2.9139 0.52091,10.90693 -0.0161,13.80797 -1.1166,6.03737 -4.84358,12.764 -9.4383,17.03461 -3.74325,3.4792 -8.25838,6.07991 -13.0302,7.50536 -0.97633,0.29166 -1.98865,0.57341 -2.24961,0.62611 -1.48082,0.29912 -9.30946,0.54734 -10.70902,0.33955 z m 5.35452,-6.92137 c 3.33061,-0.31568 6.50929,-1.22325 9.3203,-2.66111 1.4362,-0.73464 3.40876,-1.97407 4.23012,-2.65795 l 0.40136,-0.33418 -14.63488,-14.54932 c -23.41908,-23.28213 -21.17144,-21.10034 -21.41971,-20.79207 -0.70084,0.87022 -2.20978,3.31609 -2.79822,4.53569 -4.22033,8.74695 -3.10921,18.86069 2.93241,26.69204 0.78558,1.01828 3.13011,3.36663 4.26598,4.27292 3.04126,2.42659 6.91548,4.25277 10.65775,5.02374 2.77257,0.57119 4.65447,0.69679 7.04489,0.47024 z m 18.19108,-9.99135 c 0.10554,-0.13049 0.61887,-0.87346 1.14079,-1.65104 1.76239,-2.62563 3.03724,-5.73988 3.73228,-9.11736 0.3373,-1.63907 0.37135,-2.07185 0.37135,-4.71905 0,-2.6472 -0.0341,-3.07998 -0.37135,-4.71904 -1.36839,-6.64952 -5.0107,-12.23183 -10.58446,-16.22204 -1.44538,-1.03473 -4.7847,-2.72972 -6.51517,-3.307 -3.0202,-1.00752 -6.81558,-1.49184 -9.69234,-1.23683 -4.93521,0.4375 -9.40086,2.10152 -13.20198,4.91941 l -0.93582,0.69375 17.8796,17.79182 c 9.83377,9.78551 17.90336,17.7947 17.93242,17.79822 0.029,0.003 0.13913,-0.10041 0.24468,-0.23084 z"
       id="path233" />
    <path
       style="display:inline;fill:#fefefe;stroke-width:0.0846667"
       d="m 123.6859,158.3206 c -0.16727,-0.16727 -0.16934,-0.28222 -0.16934,-9.44033 v -9.271 c 8.80534,9.271 0,0 8.80534,9.271 0,9.15811 -0.002,9.27306 -0.16934,9.44033 -0.16463,0.16463 -0.28222,0.16934 -4.23333,0.16934 -3.95111,0 -4.0687,-0.005 -4.23333,-0.16934 z m -15.2552,-9.09277 c -0.53759,-0.14476 -0.94389,-0.47426 -1.18263,-0.95909 -0.18883,-0.38347 -0.19917,-0.49168 -0.19917,-2.08404 0,-1.66296 0.002,-1.68118 0.19988,-1.8415 0.1929,-0.15628 0.42381,-0.16193 6.61578,-0.16193 6.19197,0 6.42289,0.006 6.61579,0.16193 0.1979,0.16032 0.19988,0.17854 0.19988,1.8415 0,1.5984 -0.01,1.69938 -0.20174,2.08935 -0.24584,0.49937 -0.71776,0.85875 -1.28838,0.98112 -0.63988,0.13723 -10.2388,0.11284 -10.75941,-0.0273 z m 0.0325,-6.58319 c 0.0652,-0.90094 -0.36784,-0.83408 5.40136,-0.83408 5.76921,0 5.3362,-0.0669 5.40137,0.83408 l 0.0376,0.52059 h -5.43902 -5.43901 z m 2.35777,-1.99824 c 0.002,-0.0815 0.43266,-2.52805 0.95608,-5.43679 l 0.95167,-5.28862 0.65416,-0.10115 c 0.21009,-0.0325 0.43855,-0.0757 0.62131,-0.11614 1.33704,1.7119 0,0 1.33704,1.7119 l 0.62367,3.51607 c 0.52654,2.96847 0.95517,5.50342 0.9525,5.63323 l -0.005,0.23604 -0.77725,-0.0243 -0.77725,-0.0243 -0.72283,-3.91583 c -0.39756,-2.15371 -0.74321,-3.91584 -0.76812,-3.91584 -0.0249,0 -0.32524,1.59068 -0.6674,3.53484 -0.34216,1.94416 -0.65955,3.71581 -0.70531,3.937 l -0.0832,0.40216 h -0.79732 c -0.70458,0 -0.7968,-0.0172 -0.79291,-0.14816 z m 10.83293,-2.30713 c -0.12743,-0.12743 -0.16025,-0.23977 -0.1675,-0.85116 -0.001,-0.11701 -0.002,-0.25229 -0.002,-0.40946 1.07479,1.40625 0,0 1.07479,1.40625 -0.75482,-0.022 -0.82413,-0.0643 -0.90545,-0.14563 z m -9.45261,-9.65531 c -0.477,-0.0944 -1.13183,-0.43723 -1.50197,-0.7863 -0.27169,-0.25625 -0.30609,-0.33585 -0.30609,-0.70843 0,-0.16848 0.0207,-0.307 0.0648,-0.4183 2.25297,1.9833 0,0 2.25297,1.9833 -0.1679,-0.013 -0.33803,-0.0363 -0.50971,-0.0703 z"
       id="path861-6" />
  </g>
</svg>
